<?xml version="1.0" encoding="UTF-8" standalone="no"?>
<!DOCTYPE svg PUBLIC "-//W3C//DTD SVG 1.1//EN"
 "http://www.w3.org/Graphics/SVG/1.1/DTD/svg11.dtd">
<!-- Generated by graphviz version 10.0.1 (20240210.2158)
 -->
<!-- Pages: 1 -->
<svg width="222pt" height="116pt"
 viewBox="0.00 0.00 221.90 116.00" xmlns="http://www.w3.org/2000/svg" xmlns:xlink="http://www.w3.org/1999/xlink">
<g id="graph0" class="graph" transform="scale(1 1) rotate(0) translate(4 112)">
<polygon fill="white" stroke="none" points="-4,4 -4,-112 217.9,-112 217.9,4 -4,4"/>
<!-- equilateral.equilateral_area -->
<g id="node1" class="node">
<title>equilateral.equilateral_area</title>
<ellipse fill="none" stroke="black" stroke-width="2" cx="106.95" cy="-90" rx="106.95" ry="18"/>
<text text-anchor="middle" x="106.95" y="-84.58" font-family="Times New Roman,serif" font-size="14.00">equilateral.equilateral_area</text>
</g>
<!-- math.sqrt -->
<g id="node2" class="node">
<title>math.sqrt</title>
<ellipse fill="none" stroke="black" stroke-width="2" cx="51.95" cy="-18" rx="45.57" ry="18"/>
<text text-anchor="middle" x="51.95" y="-12.57" font-family="Times New Roman,serif" font-size="14.00">math.sqrt</text>
</g>
<!-- equilateral.equilateral_area&#45;&gt;math.sqrt -->
<g id="edge1" class="edge">
<title>equilateral.equilateral_area&#45;&gt;math.sqrt</title>
<path fill="none" stroke="black" d="M93.07,-71.34C86.74,-63.28 79.12,-53.58 72.18,-44.74"/>
<polygon fill="black" stroke="black" points="75.12,-42.82 66.19,-37.12 69.62,-47.15 75.12,-42.82"/>
</g>
<!-- math.pow -->
<g id="node3" class="node">
<title>math.pow</title>
<ellipse fill="none" stroke="black" stroke-width="2" cx="162.95" cy="-18" rx="47.57" ry="18"/>
<text text-anchor="middle" x="162.95" y="-12.57" font-family="Times New Roman,serif" font-size="14.00">math.pow</text>
</g>
<!-- equilateral.equilateral_area&#45;&gt;math.pow -->
<g id="edge2" class="edge">
<title>equilateral.equilateral_area&#45;&gt;math.pow</title>
<path fill="none" stroke="black" d="M121.08,-71.34C127.53,-63.28 135.28,-53.58 142.36,-44.74"/>
<polygon fill="black" stroke="black" points="144.94,-47.11 148.46,-37.12 139.48,-42.74 144.94,-47.11"/>
</g>
</g>
</svg>
