<?xml version="1.0" encoding="UTF-8" standalone="no"?>
<!DOCTYPE svg PUBLIC "-//W3C//DTD SVG 1.1//EN"
 "http://www.w3.org/Graphics/SVG/1.1/DTD/svg11.dtd">
<!-- Generated by graphviz version 10.0.1 (20240210.2158)
 -->
<!-- Title: clusters_equilateral_area_split Pages: 1 -->
<svg width="403pt" height="249pt"
 viewBox="0.00 0.00 403.39 249.00" xmlns="http://www.w3.org/2000/svg" xmlns:xlink="http://www.w3.org/1999/xlink">
<g id="graph0" class="graph" transform="scale(1 1) rotate(0) translate(4 245)">
<title>clusters_equilateral_area_split</title>
<polygon fill="white" stroke="none" points="-4,4 -4,-245 399.39,-245 399.39,4 -4,4"/>
<text text-anchor="middle" x="197.69" y="-6.45" font-family="Times New Roman,serif" font-size="14.00">s_equilateral_area_split</text>
<!-- 1 -->
<g id="node1" class="node">
<title>1</title>
<ellipse fill="none" stroke="black" cx="174.76" cy="-197.32" rx="115.26" ry="27.93"/>
<text text-anchor="middle" x="174.76" y="-199.77" font-family="Times New Roman,serif" font-size="14.00">1. const = math.sqrt(3) / 4</text>
<text text-anchor="middle" x="174.76" y="-184.02" font-family="Times New Roman,serif" font-size="14.00">if side == 1:</text>
<text text-anchor="start" x="15.26" y="-211.95" font-family="Times New Roman,serif" font-size="14.00" fill="darkorange">100,100</text>
</g>
<!-- 2 -->
<g id="node2" class="node">
<title>2</title>
<ellipse fill="none" stroke="black" cx="75.76" cy="-62.82" rx="58.51" ry="27.93"/>
<text text-anchor="middle" x="75.76" y="-57.39" font-family="Times New Roman,serif" font-size="14.00">2. return const</text>
<text text-anchor="start" x="0" y="-77.45" font-family="Times New Roman,serif" font-size="14.00" fill="darkorange">1,0</text>
</g>
<!-- 1&#45;&gt;2 -->
<g id="edge1" class="edge">
<title>1&#45;&gt;2</title>
<path fill="none" stroke="green" d="M154.73,-169.5C139.4,-148.99 118.15,-120.55 101.56,-98.34"/>
<polygon fill="green" stroke="green" points="104.46,-96.37 95.67,-90.45 98.85,-100.56 104.46,-96.37"/>
<text text-anchor="middle" x="173.39" y="-138.09" font-family="Times New Roman,serif" font-size="14.00">&quot;side == 1&quot;</text>
<text text-anchor="middle" x="173.39" y="-122.34" font-family="Times New Roman,serif" font-size="14.00">c[1]:(1,0) 0</text>
<text text-anchor="start" x="107.44" y="-131.75" font-family="Times New Roman,serif" font-size="14.00" fill="darkmagenta">1,0</text>
</g>
<!-- 3 -->
<g id="node3" class="node">
<title>3</title>
<ellipse fill="none" stroke="black" cx="273.76" cy="-62.82" rx="121.62" ry="39.07"/>
<text text-anchor="middle" x="273.76" y="-73.14" font-family="Times New Roman,serif" font-size="14.00">3. term = math.pow(side, 2)</text>
<text text-anchor="middle" x="273.76" y="-57.39" font-family="Times New Roman,serif" font-size="14.00">area = const + term</text>
<text text-anchor="middle" x="273.76" y="-41.64" font-family="Times New Roman,serif" font-size="14.00">return area</text>
<text text-anchor="start" x="114.64" y="-88.59" font-family="Times New Roman,serif" font-size="14.00" fill="darkorange">99,100</text>
</g>
<!-- 1&#45;&gt;3 -->
<g id="edge2" class="edge">
<title>1&#45;&gt;3</title>
<path fill="none" stroke="blue" d="M195.63,-169.81C200.31,-163.78 205.24,-157.38 209.76,-151.39 219.81,-138.07 230.56,-123.49 240.34,-110.11"/>
<polygon fill="blue" stroke="blue" points="242.97,-112.44 246.03,-102.3 237.31,-108.32 242.97,-112.44"/>
<text text-anchor="middle" x="262.01" y="-130.21" font-family="Times New Roman,serif" font-size="14.00">(side != 1)</text>
<text text-anchor="start" x="202.77" y="-122.38" font-family="Times New Roman,serif" font-size="14.00" fill="darkmagenta">99,100</text>
</g>
</g>
</svg>
