<?xml version="1.0" encoding="UTF-8" standalone="no"?>
<!DOCTYPE svg PUBLIC "-//W3C//DTD SVG 1.1//EN"
 "http://www.w3.org/Graphics/SVG/1.1/DTD/svg11.dtd">
<!-- Generated by graphviz version 2.46.0 (20210118.1747)
 -->
<!-- Pages: 1 -->
<svg width="211pt" height="151pt"
 viewBox="0.00 0.00 211.26 151.48" xmlns="http://www.w3.org/2000/svg" xmlns:xlink="http://www.w3.org/1999/xlink">
<g id="graph0" class="graph" transform="scale(1 1) rotate(0) translate(4 147.48)">
<polygon fill="white" stroke="transparent" points="-4,4 -4,-147.48 207.26,-147.48 207.26,4 -4,4"/>
<!-- mergesort.mergesort -->
<g id="node1" class="node">
<title>mergesort.mergesort</title>
<g id="a_node1"><a xlink:href="fault_report.html#mergesort" xlink:title="mergesort.mergesort\nMax Score: 0.48">
<ellipse fill="none" stroke="black" stroke-width="2" cx="92.63" cy="-116.61" rx="92.76" ry="26.74"/>
<text text-anchor="middle" x="92.63" y="-120.41" font-family="Times New Roman,serif" font-size="14.00">mergesort.mergesort</text>
<text text-anchor="middle" x="92.63" y="-105.41" font-family="Times New Roman,serif" font-size="14.00">Max Score: 0.48</text>
</a>
</g>
</g>
<!-- mergesort.mergesort&#45;&gt;mergesort.mergesort -->
<g id="edge2" class="edge">
<title>mergesort.mergesort&#45;&gt;mergesort.mergesort</title>
<path fill="none" stroke="black" d="M166.04,-133.05C187.06,-132.4 203.26,-126.92 203.26,-116.61 203.26,-108.07 192.15,-102.85 176.39,-100.94"/>
<polygon fill="black" stroke="black" points="176.27,-97.42 166.04,-100.17 175.76,-104.4 176.27,-97.42"/>
</g>
<!-- mergesort.merge -->
<g id="node2" class="node">
<title>mergesort.merge</title>
<g id="a_node2"><a xlink:href="fault_report.html#merge" xlink:title="mergesort.merge\nMax Score: 0.54">
<ellipse fill="none" stroke="red" stroke-width="2" cx="92.63" cy="-26.87" rx="77.56" ry="26.74"/>
<text text-anchor="middle" x="92.63" y="-30.67" font-family="Times New Roman,serif" font-size="14.00">mergesort.merge</text>
<text text-anchor="middle" x="92.63" y="-15.67" font-family="Times New Roman,serif" font-size="14.00">Max Score: 0.54</text>
</a>
</g>
</g>
<!-- mergesort.mergesort&#45;&gt;mergesort.merge -->
<g id="edge1" class="edge">
<title>mergesort.mergesort&#45;&gt;mergesort.merge</title>
<path fill="none" stroke="black" d="M92.63,-89.29C92.63,-81.32 92.63,-72.43 92.63,-63.94"/>
<polygon fill="black" stroke="black" points="96.13,-63.87 92.63,-53.87 89.13,-63.87 96.13,-63.87"/>
</g>
</g>
</svg>
