<?xml version="1.0" encoding="UTF-8" standalone="no"?>
<!DOCTYPE svg PUBLIC "-//W3C//DTD SVG 1.1//EN"
 "http://www.w3.org/Graphics/SVG/1.1/DTD/svg11.dtd">
<!-- Generated by graphviz version 10.0.1 (20240210.2158)
 -->
<!-- Title: clusterdecimal_to_hex Pages: 1 -->
<svg width="479pt" height="416pt"
 viewBox="0.00 0.00 479.17 416.27" xmlns="http://www.w3.org/2000/svg" xmlns:xlink="http://www.w3.org/1999/xlink">
<g id="graph0" class="graph" transform="scale(1 1) rotate(0) translate(4 412.27)">
<title>clusterdecimal_to_hex</title>
<polygon fill="white" stroke="none" points="-4,4 -4,-412.27 475.17,-412.27 475.17,4 -4,4"/>
<text text-anchor="middle" x="235.59" y="-6.9" font-family="Times New Roman,serif" font-size="8.00">decimal_to_hex</text>
<!-- 1 -->
<g id="node1" class="node">
<title>1</title>
<ellipse fill="none" stroke="black" cx="231.13" cy="-369.84" rx="48.97" ry="27.93"/>
<text text-anchor="middle" x="231.13" y="-367.49" font-family="Times New Roman,serif" font-size="8.00">1. if n == 0:</text>
<text text-anchor="start" x="161.91" y="-390.17" font-family="Times New Roman,serif" font-size="8.00" fill="darkorange">52,52</text>
</g>
<!-- 3 -->
<g id="node2" class="node">
<title>3</title>
<ellipse fill="none" stroke="black" cx="231.13" cy="-277.41" rx="52.56" ry="18"/>
<text text-anchor="middle" x="231.13" y="-275.06" font-family="Times New Roman,serif" font-size="8.00">3. hex_str = &#39;&#39;</text>
<text text-anchor="start" x="158.32" y="-287.81" font-family="Times New Roman,serif" font-size="8.00" fill="darkorange">52,52</text>
</g>
<!-- 1&#45;&gt;3 -->
<g id="edge1" class="edge">
<title>1&#45;&gt;3</title>
<path fill="none" stroke="blue" d="M231.13,-341.71C231.13,-330.78 231.13,-318.17 231.13,-307.09"/>
<polygon fill="blue" stroke="blue" points="234.63,-307.34 231.13,-297.34 227.63,-307.34 234.63,-307.34"/>
<text text-anchor="middle" x="244.63" y="-316.31" font-family="Times New Roman,serif" font-size="8.00">(n != 0)</text>
<text text-anchor="start" x="199.63" y="-311.33" font-family="Times New Roman,serif" font-size="8.00" fill="darkmagenta"> &#160;52,52 &#160;&#160;</text>
</g>
<!-- 5 -->
<g id="node3" class="node">
<title>5</title>
<ellipse fill="none" stroke="black" cx="231.13" cy="-204.41" rx="53.56" ry="18"/>
<text text-anchor="middle" x="231.13" y="-202.06" font-family="Times New Roman,serif" font-size="8.00">5. while n &gt; 0:</text>
<text text-anchor="start" x="148.32" y="-214.81" font-family="Times New Roman,serif" font-size="8.00" fill="darkorange">137,171</text>
</g>
<!-- 3&#45;&gt;5 -->
<g id="edge2" class="edge">
<title>3&#45;&gt;5</title>
<path fill="none" stroke="blue" d="M231.13,-259.22C231.13,-251.64 231.13,-242.51 231.13,-233.95"/>
<polygon fill="blue" stroke="blue" points="234.63,-233.95 231.13,-223.95 227.63,-233.95 234.63,-233.95"/>
<text text-anchor="start" x="199.63" y="-233.25" font-family="Times New Roman,serif" font-size="8.00" fill="darkmagenta"> &#160;52,52 &#160;&#160;</text>
</g>
<!-- 6 -->
<g id="node4" class="node">
<title>6</title>
<ellipse fill="none" stroke="black" cx="177.13" cy="-68.71" rx="152.38" ry="50.21"/>
<text text-anchor="middle" x="177.13" y="-76.86" font-family="Times New Roman,serif" font-size="8.00">6. x = n % 16</text>
<text text-anchor="middle" x="177.13" y="-66.36" font-family="Times New Roman,serif" font-size="8.00">hex_str = digit_to_hex(x) + hex_str</text>
<text text-anchor="middle" x="177.13" y="-55.86" font-family="Times New Roman,serif" font-size="8.00">n = n // 16</text>
<text text-anchor="start" x="0" y="-111.31" font-family="Times New Roman,serif" font-size="8.00" fill="darkorange">85,119</text>
</g>
<!-- 5&#45;&gt;6 -->
<g id="edge3" class="edge">
<title>5&#45;&gt;6</title>
<path fill="none" stroke="blue" stroke-width="5" d="M199.44,-189.52C191.01,-184.19 182.93,-177.22 178.13,-168.41 172.67,-158.39 169.99,-146.9 169,-135.38"/>
<polygon fill="blue" stroke="blue" stroke-width="5" points="173.38,-135.37 168.77,-125.47 164.63,-135.57 173.38,-135.37"/>
<text text-anchor="middle" x="197.63" y="-160.81" font-family="Times New Roman,serif" font-size="8.00">&quot;n &gt; 0&quot;</text>
<text text-anchor="middle" x="197.63" y="-150.31" font-family="Times New Roman,serif" font-size="8.00">c[2]</text>
<text text-anchor="middle" x="197.63" y="-139.81" font-family="Times New Roman,serif" font-size="8.00">Score: 0.52</text>
<text text-anchor="start" x="137.61" y="-150.52" font-family="Times New Roman,serif" font-size="8.00" fill="darkmagenta"> &#160;85,119 &#160;&#160;</text>
</g>
<!-- 7 -->
<g id="node5" class="node">
<title>7</title>
<ellipse fill="none" stroke="black" cx="409.13" cy="-68.71" rx="62.04" ry="18"/>
<text text-anchor="middle" x="409.13" y="-66.36" font-family="Times New Roman,serif" font-size="8.00">7. return hex_str</text>
<text text-anchor="start" x="347.09" y="-79.11" font-family="Times New Roman,serif" font-size="8.00" fill="darkorange">52,52</text>
</g>
<!-- 5&#45;&gt;7 -->
<g id="edge4" class="edge">
<title>5&#45;&gt;7</title>
<path fill="none" stroke="blue" d="M252.25,-187.55C283.53,-164.05 342.35,-119.87 378.4,-92.79"/>
<polygon fill="blue" stroke="blue" points="380.38,-95.68 386.28,-86.87 376.18,-90.08 380.38,-95.68"/>
<text text-anchor="middle" x="329.38" y="-150.31" font-family="Times New Roman,serif" font-size="8.00">(n &lt;= 0)</text>
<text text-anchor="start" x="288.28" y="-129.23" font-family="Times New Roman,serif" font-size="8.00" fill="darkmagenta"> &#160;52,52 &#160;&#160;</text>
</g>
<!-- 6&#45;&gt;5 -->
<g id="edge5" class="edge">
<title>6&#45;&gt;5</title>
<path fill="none" stroke="blue" d="M208.55,-118.31C211.75,-124.43 214.71,-130.71 217.13,-136.91 221.83,-148.95 225.07,-162.85 227.24,-174.83"/>
<polygon fill="blue" stroke="blue" points="223.76,-175.22 228.82,-184.52 230.67,-174.09 223.76,-175.22"/>
<text text-anchor="start" x="221.99" y="-144.04" font-family="Times New Roman,serif" font-size="8.00" fill="darkmagenta"> &#160;85,119 &#160;&#160;</text>
</g>
</g>
</svg>
