<?xml version="1.0" encoding="UTF-8" standalone="no"?>
<!DOCTYPE svg PUBLIC "-//W3C//DTD SVG 1.1//EN"
 "http://www.w3.org/Graphics/SVG/1.1/DTD/svg11.dtd">
<!-- Generated by graphviz version 10.0.1 (20240210.2158)
 -->
<!-- Title: clusterprocess_and_convert Pages: 1 -->
<svg width="631pt" height="392pt"
 viewBox="0.00 0.00 631.30 391.58" xmlns="http://www.w3.org/2000/svg" xmlns:xlink="http://www.w3.org/1999/xlink">
<g id="graph0" class="graph" transform="scale(1 1) rotate(0) translate(4 387.58)">
<title>clusterprocess_and_convert</title>
<polygon fill="white" stroke="none" points="-4,4 -4,-387.58 627.3,-387.58 627.3,4 -4,4"/>
<text text-anchor="middle" x="311.65" y="-6.9" font-family="Times New Roman,serif" font-size="8.00">process_and_convert</text>
<!-- 1 -->
<g id="node1" class="node">
<title>1</title>
<ellipse fill="none" stroke="black" cx="431.73" cy="-345.15" rx="90.33" ry="27.93"/>
<text text-anchor="middle" x="431.73" y="-342.8" font-family="Times New Roman,serif" font-size="8.00">1. validated_nums = []</text>
<text text-anchor="start" x="321.15" y="-365.48" font-family="Times New Roman,serif" font-size="8.00" fill="darkorange">13,13</text>
</g>
<!-- 2 -->
<g id="node2" class="node">
<title>2</title>
<ellipse fill="none" stroke="black" cx="431.73" cy="-262.22" rx="106.95" ry="18"/>
<text text-anchor="middle" x="431.73" y="-259.87" font-family="Times New Roman,serif" font-size="8.00">2. for num in decimal_nums:</text>
<text text-anchor="start" x="304.53" y="-272.62" font-family="Times New Roman,serif" font-size="8.00" fill="darkorange">65,65</text>
</g>
<!-- 1&#45;&gt;2 -->
<g id="edge1" class="edge">
<title>1&#45;&gt;2</title>
<path fill="none" stroke="blue" d="M431.73,-316.75C431.73,-308.84 431.73,-300.17 431.73,-292.16"/>
<polygon fill="blue" stroke="blue" points="435.23,-292.21 431.73,-282.21 428.23,-292.21 435.23,-292.21"/>
<text text-anchor="start" x="400.23" y="-291.44" font-family="Times New Roman,serif" font-size="8.00" fill="darkmagenta"> &#160;13,13 &#160;&#160;</text>
</g>
<!-- 3 -->
<g id="node3" class="node">
<title>3</title>
<ellipse fill="none" stroke="black" cx="130.73" cy="-159.29" rx="110.48" ry="27.93"/>
<text text-anchor="middle" x="130.73" y="-156.94" font-family="Times New Roman,serif" font-size="8.00">3. if 0 &lt;= num &lt;= 1000000:</text>
<text text-anchor="start" x="0" y="-179.62" font-family="Times New Roman,serif" font-size="8.00" fill="darkorange">52,52</text>
</g>
<!-- 2&#45;&gt;3 -->
<g id="edge2" class="edge">
<title>2&#45;&gt;3</title>
<path fill="none" stroke="blue" d="M385.03,-245.56C337.41,-229.59 262.75,-204.56 206.62,-185.74"/>
<polygon fill="blue" stroke="blue" points="208.04,-182.52 197.44,-182.66 205.81,-189.16 208.04,-182.52"/>
<text text-anchor="middle" x="351.11" y="-218.62" font-family="Times New Roman,serif" font-size="8.00">decimal_nums</text>
<text text-anchor="middle" x="351.11" y="-208.12" font-family="Times New Roman,serif" font-size="8.00">c[6]</text>
<text text-anchor="start" x="258.97" y="-206.25" font-family="Times New Roman,serif" font-size="8.00" fill="darkmagenta"> &#160;52,52 &#160;&#160;</text>
</g>
<!-- 4 -->
<g id="node4" class="node">
<title>4</title>
<ellipse fill="none" stroke="black" cx="431.73" cy="-159.29" rx="172.32" ry="18"/>
<text text-anchor="middle" x="431.73" y="-156.94" font-family="Times New Roman,serif" font-size="8.00">4. return convert_list_to_hex(validated_nums)</text>
<text text-anchor="start" x="259.41" y="-169.69" font-family="Times New Roman,serif" font-size="8.00" fill="darkorange">13,13</text>
</g>
<!-- 2&#45;&gt;4 -->
<g id="edge3" class="edge">
<title>2&#45;&gt;4</title>
<path fill="none" stroke="blue" d="M431.73,-244.1C431.73,-229.02 431.73,-206.75 431.73,-188.96"/>
<polygon fill="blue" stroke="blue" points="435.23,-189.01 431.73,-179.01 428.23,-189.01 435.23,-189.01"/>
<text text-anchor="start" x="400.23" y="-203.11" font-family="Times New Roman,serif" font-size="8.00" fill="darkmagenta"> &#160;13,13 &#160;&#160;</text>
</g>
<!-- 5 -->
<g id="node5" class="node">
<title>5</title>
<ellipse fill="none" stroke="black" cx="380.73" cy="-46.43" rx="127.99" ry="27.93"/>
<text text-anchor="middle" x="380.73" y="-44.08" font-family="Times New Roman,serif" font-size="8.00">5. validated_nums.append(num)</text>
<text text-anchor="start" x="232.5" y="-66.76" font-family="Times New Roman,serif" font-size="8.00" fill="darkorange">52,52</text>
</g>
<!-- 3&#45;&gt;5 -->
<g id="edge4" class="edge">
<title>3&#45;&gt;5</title>
<path fill="none" stroke="blue" d="M184.37,-134.51C222.64,-117.54 274.34,-94.61 315.09,-76.54"/>
<polygon fill="blue" stroke="blue" points="316.36,-79.81 324.08,-72.55 313.52,-73.41 316.36,-79.81"/>
<text text-anchor="middle" x="321.48" y="-105.76" font-family="Times New Roman,serif" font-size="8.00">&quot;0 &lt;= num &lt;= 1000000&quot;</text>
<text text-anchor="middle" x="321.48" y="-95.26" font-family="Times New Roman,serif" font-size="8.00">c[7]</text>
<text text-anchor="start" x="223.18" y="-95.73" font-family="Times New Roman,serif" font-size="8.00" fill="darkmagenta"> &#160;52,52 &#160;&#160;</text>
</g>
<!-- 5&#45;&gt;2 -->
<g id="edge5" class="edge">
<title>5&#45;&gt;2</title>
<path fill="none" stroke="blue" d="M493.12,-60.17C537.97,-71.4 585.36,-92.35 612.73,-131.36 626.99,-151.68 626.57,-166.61 612.73,-187.22 591.9,-218.26 555.5,-236.28 520.78,-246.75"/>
<polygon fill="blue" stroke="blue" points="520.21,-243.27 511.54,-249.35 522.11,-250.01 520.21,-243.27"/>
<text text-anchor="start" x="503.21" y="-65.99" font-family="Times New Roman,serif" font-size="8.00" fill="darkmagenta"> &#160;52,52 &#160;&#160;</text>
</g>
</g>
</svg>
