<?xml version="1.0" encoding="UTF-8" standalone="no"?>
<!DOCTYPE svg PUBLIC "-//W3C//DTD SVG 1.1//EN"
 "http://www.w3.org/Graphics/SVG/1.1/DTD/svg11.dtd">
<!-- Generated by graphviz version 10.0.1 (20240210.2158)
 -->
<!-- Title: clustermultiply_rxy_z Pages: 1 -->
<svg width="403pt" height="558pt"
 viewBox="0.00 0.00 402.65 557.58" xmlns="http://www.w3.org/2000/svg" xmlns:xlink="http://www.w3.org/1999/xlink">
<g id="graph0" class="graph" transform="scale(1 1) rotate(0) translate(4 553.58)">
<title>clustermultiply_rxy_z</title>
<polygon fill="white" stroke="none" points="-4,4 -4,-553.58 398.65,-553.58 398.65,4 -4,4"/>
<text text-anchor="middle" x="197.32" y="-6.9" font-family="Times New Roman,serif" font-size="8.00">multiply_rxy_z</text>
<!-- 1 -->
<g id="node1" class="node">
<title>1</title>
<ellipse fill="none" stroke="black" cx="299.01" cy="-511.15" rx="95.64" ry="27.93"/>
<text text-anchor="middle" x="299.01" y="-508.8" font-family="Times New Roman,serif" font-size="8.00">1. if rxy == 0 or z == 0:</text>
<text text-anchor="start" x="192.12" y="-531.48" font-family="Times New Roman,serif" font-size="8.00" fill="darkorange">4,4</text>
</g>
<!-- 3 -->
<g id="node2" class="node">
<title>3</title>
<ellipse fill="none" stroke="black" cx="299.01" cy="-418.72" rx="41.58" ry="18"/>
<text text-anchor="middle" x="299.01" y="-416.37" font-family="Times New Roman,serif" font-size="8.00">3. rxyz = 0</text>
<text text-anchor="start" x="246.17" y="-429.12" font-family="Times New Roman,serif" font-size="8.00" fill="darkorange">4,4</text>
</g>
<!-- 1&#45;&gt;3 -->
<g id="edge1" class="edge">
<title>1&#45;&gt;3</title>
<path fill="none" stroke="blue" d="M299.01,-483.02C299.01,-472.09 299.01,-459.48 299.01,-448.4"/>
<polygon fill="blue" stroke="blue" points="302.51,-448.65 299.01,-438.65 295.51,-448.65 302.51,-448.65"/>
<text text-anchor="middle" x="344.01" y="-457.62" font-family="Times New Roman,serif" font-size="8.00">(not (rxy == 0 or z == 0))</text>
<text text-anchor="start" x="276.51" y="-452.64" font-family="Times New Roman,serif" font-size="8.00" fill="darkmagenta"> &#160;4,4 &#160;&#160;</text>
</g>
<!-- 5 -->
<g id="node3" class="node">
<title>5</title>
<ellipse fill="none" stroke="black" cx="299.01" cy="-345.72" rx="88.49" ry="18"/>
<text text-anchor="middle" x="299.01" y="-343.37" font-family="Times New Roman,serif" font-size="8.00">5. for j in range(abs(z)):</text>
<text text-anchor="start" x="190.27" y="-356.12" font-family="Times New Roman,serif" font-size="8.00" fill="darkorange">16,16</text>
</g>
<!-- 3&#45;&gt;5 -->
<g id="edge2" class="edge">
<title>3&#45;&gt;5</title>
<path fill="none" stroke="blue" d="M299.01,-400.54C299.01,-392.95 299.01,-383.82 299.01,-375.26"/>
<polygon fill="blue" stroke="blue" points="302.51,-375.26 299.01,-365.26 295.51,-375.26 302.51,-375.26"/>
<text text-anchor="start" x="276.51" y="-374.56" font-family="Times New Roman,serif" font-size="8.00" fill="darkmagenta"> &#160;4,4 &#160;&#160;</text>
</g>
<!-- 6 -->
<g id="node4" class="node">
<title>6</title>
<ellipse fill="none" stroke="black" cx="181.01" cy="-242.79" rx="48.97" ry="27.93"/>
<text text-anchor="middle" x="181.01" y="-240.44" font-family="Times New Roman,serif" font-size="8.00">6. if z &gt;= 0:</text>
<text text-anchor="start" x="111.79" y="-263.12" font-family="Times New Roman,serif" font-size="8.00" fill="darkorange">12,12</text>
</g>
<!-- 5&#45;&gt;6 -->
<g id="edge3" class="edge">
<title>5&#45;&gt;6</title>
<path fill="none" stroke="blue" d="M269.26,-328.33C260.32,-322.87 250.71,-316.46 242.51,-309.72 230.67,-300 218.9,-288.08 208.87,-277.06"/>
<polygon fill="blue" stroke="blue" points="211.5,-274.76 202.24,-269.61 206.27,-279.41 211.5,-274.76"/>
<text text-anchor="middle" x="269.26" y="-302.12" font-family="Times New Roman,serif" font-size="8.00">&quot;range(abs(z))&quot;</text>
<text text-anchor="middle" x="269.26" y="-291.62" font-family="Times New Roman,serif" font-size="8.00">c[6]</text>
<text text-anchor="start" x="201.07" y="-293.47" font-family="Times New Roman,serif" font-size="8.00" fill="darkmagenta"> &#160;12,12 &#160;&#160;</text>
</g>
<!-- 7 -->
<g id="node5" class="node">
<title>7</title>
<ellipse fill="none" stroke="black" cx="299.01" cy="-242.79" rx="50.57" ry="18"/>
<text text-anchor="middle" x="299.01" y="-240.44" font-family="Times New Roman,serif" font-size="8.00">7. return rxyz</text>
<text text-anchor="start" x="237.19" y="-253.19" font-family="Times New Roman,serif" font-size="8.00" fill="darkorange">4,4</text>
</g>
<!-- 5&#45;&gt;7 -->
<g id="edge4" class="edge">
<title>5&#45;&gt;7</title>
<path fill="none" stroke="blue" d="M299.01,-327.6C299.01,-312.52 299.01,-290.25 299.01,-272.46"/>
<polygon fill="blue" stroke="blue" points="302.51,-272.51 299.01,-262.51 295.51,-272.51 302.51,-272.51"/>
<text text-anchor="start" x="299.01" y="-286.61" font-family="Times New Roman,serif" font-size="8.00" fill="darkmagenta"> &#160;4,4 &#160;&#160;</text>
</g>
<!-- 8 -->
<g id="node6" class="node">
<title>8</title>
<ellipse fill="none" stroke="black" cx="96.01" cy="-119.43" rx="80.26" ry="27.93"/>
<text text-anchor="middle" x="96.01" y="-117.08" font-family="Times New Roman,serif" font-size="8.00">8. rxyz = rxyz + rxy</text>
<text text-anchor="start" x="0" y="-139.76" font-family="Times New Roman,serif" font-size="8.00" fill="darkorange">12,6</text>
</g>
<!-- 6&#45;&gt;8 -->
<g id="edge5" class="edge">
<title>6&#45;&gt;8</title>
<path fill="none" stroke="blue" d="M163.19,-216.35C150.95,-198.87 134.52,-175.42 120.98,-156.08"/>
<polygon fill="blue" stroke="blue" points="123.86,-154.1 115.26,-147.92 118.13,-158.12 123.86,-154.1"/>
<text text-anchor="middle" x="163.63" y="-184.01" font-family="Times New Roman,serif" font-size="8.00">&quot;z &gt;= 0&quot;</text>
<text text-anchor="middle" x="163.63" y="-173.51" font-family="Times New Roman,serif" font-size="8.00">c[7]</text>
<text text-anchor="start" x="111.78" y="-173.9" font-family="Times New Roman,serif" font-size="8.00" fill="darkmagenta"> &#160;12,6 &#160;&#160;</text>
</g>
<!-- 10 -->
<g id="node7" class="node">
<title>10</title>
<ellipse fill="none" stroke="black" cx="272.01" cy="-119.43" rx="77.61" ry="27.93"/>
<text text-anchor="middle" x="272.01" y="-117.08" font-family="Times New Roman,serif" font-size="8.00">10. rxyz = rxyz &#45; rxy</text>
<text text-anchor="start" x="183.15" y="-139.76" font-family="Times New Roman,serif" font-size="8.00" fill="darkorange">0,6</text>
</g>
<!-- 6&#45;&gt;10 -->
<g id="edge6" class="edge">
<title>6&#45;&gt;10</title>
<path fill="none" stroke="red" stroke-width="5" d="M199.86,-216.65C212.18,-200.22 228.52,-178.43 242.53,-159.74"/>
<polygon fill="red" stroke="red" stroke-width="5" points="245.99,-162.42 248.49,-151.79 238.99,-157.17 245.99,-162.42"/>
<text text-anchor="middle" x="257.51" y="-189.26" font-family="Times New Roman,serif" font-size="8.00">&quot;(z &lt; 0)&quot;</text>
<text text-anchor="middle" x="257.51" y="-178.76" font-family="Times New Roman,serif" font-size="8.00">c[8]</text>
<text text-anchor="middle" x="257.51" y="-168.26" font-family="Times New Roman,serif" font-size="8.00">Score: 0.74</text>
<text text-anchor="start" x="203.45" y="-174.26" font-family="Times New Roman,serif" font-size="8.00" fill="darkmagenta"> &#160;0,6 &#160;&#160;</text>
</g>
<!-- 9 -->
<g id="node8" class="node">
<title>9</title>
<ellipse fill="none" stroke="black" cx="272.01" cy="-36.5" rx="79.01" ry="18"/>
<text text-anchor="middle" x="272.01" y="-34.15" font-family="Times New Roman,serif" font-size="8.00">9. print(&#39;rxyz: &#39;, rxyz)</text>
<text text-anchor="start" x="172.75" y="-46.9" font-family="Times New Roman,serif" font-size="8.00" fill="darkorange">12,12</text>
</g>
<!-- 8&#45;&gt;9 -->
<g id="edge7" class="edge">
<title>8&#45;&gt;9</title>
<path fill="none" stroke="blue" d="M143.64,-96.53C169.85,-84.47 202.17,-69.61 227.82,-57.82"/>
<polygon fill="blue" stroke="blue" points="229.01,-61.12 236.64,-53.76 226.09,-54.76 229.01,-61.12"/>
<text text-anchor="start" x="163.72" y="-67.28" font-family="Times New Roman,serif" font-size="8.00" fill="darkmagenta"> &#160;12,6 &#160;&#160;</text>
</g>
<!-- 10&#45;&gt;9 -->
<g id="edge9" class="edge">
<title>10&#45;&gt;9</title>
<path fill="none" stroke="red" d="M272.01,-91.03C272.01,-83.11 272.01,-74.45 272.01,-66.44"/>
<polygon fill="red" stroke="red" points="275.51,-66.49 272.01,-56.49 268.51,-66.49 275.51,-66.49"/>
<text text-anchor="start" x="249.51" y="-65.72" font-family="Times New Roman,serif" font-size="8.00" fill="darkmagenta"> &#160;0,6 &#160;&#160;</text>
</g>
<!-- 9&#45;&gt;5 -->
<g id="edge8" class="edge">
<title>9&#45;&gt;5</title>
<path fill="none" stroke="blue" d="M313.07,-52.34C330.5,-60.92 349.07,-73.63 359.01,-91.5 397.73,-161.11 385.62,-195.65 359.01,-270.72 352.44,-289.27 339.02,-306.55 326.53,-319.75"/>
<polygon fill="blue" stroke="blue" points="324.17,-317.16 319.61,-326.72 329.14,-322.09 324.17,-317.16"/>
<text text-anchor="start" x="348.48" y="-196.34" font-family="Times New Roman,serif" font-size="8.00" fill="darkmagenta"> &#160;12,12 &#160;&#160;</text>
</g>
</g>
</svg>
