<?xml version="1.0" encoding="UTF-8" standalone="no"?>
<!DOCTYPE svg PUBLIC "-//W3C//DTD SVG 1.1//EN"
 "http://www.w3.org/Graphics/SVG/1.1/DTD/svg11.dtd">
<!-- Generated by graphviz version 10.0.1 (20240210.2158)
 -->
<!-- Title: clusterget_next_date Pages: 1 -->
<svg width="612pt" height="1615pt"
 viewBox="0.00 0.00 611.81 1615.10" xmlns="http://www.w3.org/2000/svg" xmlns:xlink="http://www.w3.org/1999/xlink">
<g id="graph0" class="graph" transform="scale(1 1) rotate(0) translate(4 1611.1)">
<title>clusterget_next_date</title>
<polygon fill="white" stroke="none" points="-4,4 -4,-1611.1 607.81,-1611.1 607.81,4 -4,4"/>
<text text-anchor="middle" x="301.91" y="-6.45" font-family="Times New Roman,serif" font-size="14.00">get_next_date</text>
<!-- 1 -->
<g id="node1" class="node">
<title>1</title>
<ellipse fill="none" stroke="black" cx="164.81" cy="-1563.42" rx="87.68" ry="27.93"/>
<text text-anchor="middle" x="164.81" y="-1558" font-family="Times New Roman,serif" font-size="14.00">1. if year % 400 == 0:</text>
<text text-anchor="start" x="46.38" y="-1578.05" font-family="Times New Roman,serif" font-size="14.00" fill="darkorange">13,13</text>
</g>
<!-- 2 -->
<g id="node2" class="node">
<title>2</title>
<ellipse fill="none" stroke="black" cx="100.81" cy="-1350.45" rx="78.67" ry="27.93"/>
<text text-anchor="middle" x="100.81" y="-1345.03" font-family="Times New Roman,serif" font-size="14.00">2. leap_year = True</text>
<text text-anchor="start" x="4.89" y="-1365.08" font-family="Times New Roman,serif" font-size="14.00" fill="darkorange">0,0</text>
</g>
<!-- 1&#45;&gt;2 -->
<g id="edge1" class="edge">
<title>1&#45;&gt;2</title>
<path fill="none" stroke="black" d="M117.92,-1539.66C109.93,-1533.6 102.72,-1526.25 98.06,-1517.49 76.91,-1477.76 82.58,-1424.75 90.22,-1389.42"/>
<polygon fill="black" stroke="black" points="93.54,-1390.62 92.4,-1380.08 86.72,-1389.03 93.54,-1390.62"/>
<text text-anchor="middle" x="151.69" y="-1496.32" font-family="Times New Roman,serif" font-size="14.00">&quot;year % 400 == 0&quot;</text>
<text text-anchor="middle" x="151.69" y="-1480.57" font-family="Times New Roman,serif" font-size="14.00">c[1]</text>
<polygon fill="white" stroke="none" points="52.62,-1462.31 52.62,-1486.06 81.62,-1486.06 81.62,-1462.31 52.62,-1462.31"/>
<text text-anchor="start" x="56.62" y="-1468.76" font-family="Times New Roman,serif" font-size="14.00" fill="darkmagenta">0, 0</text>
</g>
<!-- 4 -->
<g id="node3" class="node">
<title>4</title>
<ellipse fill="none" stroke="black" cx="229.81" cy="-1424.31" rx="87.68" ry="27.93"/>
<text text-anchor="middle" x="229.81" y="-1418.89" font-family="Times New Roman,serif" font-size="14.00">4. if year % 100 == 0:</text>
<text text-anchor="start" x="111.38" y="-1438.94" font-family="Times New Roman,serif" font-size="14.00" fill="darkorange">13,13</text>
</g>
<!-- 1&#45;&gt;4 -->
<g id="edge2" class="edge">
<title>1&#45;&gt;4</title>
<path fill="none" stroke="blue" stroke-width="3.38" d="M193.76,-1536.73C199.06,-1530.86 204.09,-1524.32 207.81,-1517.49 216.16,-1502.16 221.37,-1483.71 224.61,-1467.35"/>
<polygon fill="blue" stroke="blue" stroke-width="3.38" points="228.05,-1467.96 226.28,-1457.52 221.15,-1466.78 228.05,-1467.96"/>
<text text-anchor="middle" x="278.31" y="-1504.19" font-family="Times New Roman,serif" font-size="14.00">&quot;(year % 400 != 0)&quot;</text>
<text text-anchor="middle" x="278.31" y="-1488.44" font-family="Times New Roman,serif" font-size="14.00">c[2]</text>
<text text-anchor="middle" x="278.31" y="-1472.69" font-family="Times New Roman,serif" font-size="14.00"> Score: 0.57</text>
<polygon fill="white" stroke="none" points="172.29,-1498.81 172.29,-1522.56 214.79,-1522.56 214.79,-1498.81 172.29,-1498.81"/>
<text text-anchor="start" x="176.29" y="-1505.26" font-family="Times New Roman,serif" font-size="14.00" fill="darkmagenta">13, 13</text>
</g>
<!-- 3 -->
<g id="node4" class="node">
<title>3</title>
<ellipse fill="none" stroke="black" cx="212.81" cy="-1015.19" rx="140.88" ry="18"/>
<text text-anchor="middle" x="212.81" y="-1009.76" font-family="Times New Roman,serif" font-size="14.00">3. if month in (1, 3, 5, 7, 8, 10, 12):</text>
<text text-anchor="start" x="41.18" y="-1019.89" font-family="Times New Roman,serif" font-size="14.00" fill="darkorange">13,13</text>
</g>
<!-- 2&#45;&gt;3 -->
<g id="edge3" class="edge">
<title>2&#45;&gt;3</title>
<path fill="none" stroke="black" d="M99.58,-1322.06C98.83,-1287 100.35,-1224.84 116.81,-1174.8 133.51,-1124.03 168.93,-1072.4 191.76,-1042.38"/>
<polygon fill="black" stroke="black" points="194.42,-1044.67 197.77,-1034.61 188.88,-1040.38 194.42,-1044.67"/>
<polygon fill="white" stroke="none" points="88.5,-1169.06 88.5,-1192.81 117.5,-1192.81 117.5,-1169.06 88.5,-1169.06"/>
<text text-anchor="start" x="92.5" y="-1175.51" font-family="Times New Roman,serif" font-size="14.00" fill="darkmagenta">0, 0</text>
</g>
<!-- 5 -->
<g id="node17" class="node">
<title>5</title>
<ellipse fill="none" stroke="black" cx="201.81" cy="-1202.73" rx="80.79" ry="27.93"/>
<text text-anchor="middle" x="201.81" y="-1197.3" font-family="Times New Roman,serif" font-size="14.00">5. leap_year = False</text>
<text text-anchor="start" x="103.77" y="-1217.36" font-family="Times New Roman,serif" font-size="14.00" fill="darkorange">0,0</text>
</g>
<!-- 4&#45;&gt;5 -->
<g id="edge21" class="edge">
<title>4&#45;&gt;5</title>
<path fill="none" stroke="black" d="M208.81,-1397.04C205.21,-1391.21 202,-1384.83 200.06,-1378.38 186.42,-1333.05 190.06,-1278.06 194.99,-1242.05"/>
<polygon fill="black" stroke="black" points="198.39,-1242.96 196.39,-1232.56 191.46,-1241.94 198.39,-1242.96"/>
<text text-anchor="middle" x="252.69" y="-1352.9" font-family="Times New Roman,serif" font-size="14.00">&quot;year % 100 == 0&quot;</text>
<text text-anchor="middle" x="252.69" y="-1337.15" font-family="Times New Roman,serif" font-size="14.00">c[3]</text>
<polygon fill="white" stroke="none" points="159.7,-1288.86 159.7,-1312.61 188.7,-1312.61 188.7,-1288.86 159.7,-1288.86"/>
<text text-anchor="start" x="163.7" y="-1295.31" font-family="Times New Roman,serif" font-size="14.00" fill="darkmagenta">0, 0</text>
</g>
<!-- 7 -->
<g id="node18" class="node">
<title>7</title>
<ellipse fill="none" stroke="black" cx="331.81" cy="-1276.59" rx="78.13" ry="27.93"/>
<text text-anchor="middle" x="331.81" y="-1271.16" font-family="Times New Roman,serif" font-size="14.00">7. if year % 4 == 0:</text>
<text text-anchor="start" x="222.93" y="-1291.22" font-family="Times New Roman,serif" font-size="14.00" fill="darkorange">13,13</text>
</g>
<!-- 4&#45;&gt;7 -->
<g id="edge22" class="edge">
<title>4&#45;&gt;7</title>
<path fill="none" stroke="blue" stroke-width="3.38" d="M282.99,-1401.84C293.16,-1395.61 302.8,-1387.86 309.81,-1378.38 322.25,-1361.57 327.92,-1339.12 330.41,-1319.68"/>
<polygon fill="blue" stroke="blue" stroke-width="3.38" points="333.87,-1320.26 331.31,-1309.98 326.9,-1319.61 333.87,-1320.26"/>
<text text-anchor="middle" x="384.31" y="-1360.78" font-family="Times New Roman,serif" font-size="14.00">&quot;(year % 100 != 0)&quot;</text>
<text text-anchor="middle" x="384.31" y="-1345.03" font-family="Times New Roman,serif" font-size="14.00">c[4]</text>
<text text-anchor="middle" x="384.31" y="-1329.28" font-family="Times New Roman,serif" font-size="14.00"> Score: 0.57</text>
<polygon fill="white" stroke="none" points="276.08,-1360.93 276.08,-1384.68 318.58,-1384.68 318.58,-1360.93 276.08,-1360.93"/>
<text text-anchor="start" x="280.08" y="-1367.38" font-family="Times New Roman,serif" font-size="14.00" fill="darkmagenta">13, 13</text>
</g>
<!-- 11 -->
<g id="node5" class="node">
<title>11</title>
<ellipse fill="none" stroke="black" cx="102.81" cy="-812.14" rx="85.56" ry="27.93"/>
<text text-anchor="middle" x="102.81" y="-806.72" font-family="Times New Roman,serif" font-size="14.00">11. month_length = 31</text>
<text text-anchor="start" x="0" y="-826.77" font-family="Times New Roman,serif" font-size="14.00" fill="darkorange">7,1</text>
</g>
<!-- 3&#45;&gt;11 -->
<g id="edge4" class="edge">
<title>3&#45;&gt;11</title>
<path fill="none" stroke="blue" stroke-width="1.38" d="M135.37,-999.79C125.34,-994.81 116.25,-988.13 109.56,-979.19 82.39,-942.86 86.05,-888.53 92.91,-852"/>
<polygon fill="blue" stroke="blue" stroke-width="1.38" points="96.31,-852.89 94.91,-842.39 89.45,-851.47 96.31,-852.89"/>
<text text-anchor="middle" x="199.44" y="-965.89" font-family="Times New Roman,serif" font-size="14.00">&quot;month in (1, 3, 5, 7, 8, 10, 12)&quot;</text>
<text text-anchor="middle" x="199.44" y="-950.14" font-family="Times New Roman,serif" font-size="14.00">c[7]</text>
<text text-anchor="middle" x="199.44" y="-934.39" font-family="Times New Roman,serif" font-size="14.00"> Score: 0.09</text>
<polygon fill="white" stroke="none" points="58.16,-925.11 58.16,-948.86 87.16,-948.86 87.16,-925.11 58.16,-925.11"/>
<text text-anchor="start" x="62.16" y="-931.56" font-family="Times New Roman,serif" font-size="14.00" fill="darkmagenta">7, 1</text>
</g>
<!-- 13 -->
<g id="node6" class="node">
<title>13</title>
<ellipse fill="none" stroke="black" cx="314.81" cy="-886.01" rx="68.06" ry="27.93"/>
<text text-anchor="middle" x="314.81" y="-880.58" font-family="Times New Roman,serif" font-size="14.00">13. if month == 2:</text>
<text text-anchor="start" x="222.75" y="-900.64" font-family="Times New Roman,serif" font-size="14.00" fill="darkorange">6,12</text>
</g>
<!-- 3&#45;&gt;13 -->
<g id="edge5" class="edge">
<title>3&#45;&gt;13</title>
<path fill="none" stroke="blue" stroke-width="3.88" d="M267.77,-998.29C277.2,-993.45 286.1,-987.21 292.81,-979.19 304.33,-965.41 310.02,-946.63 312.77,-929.61"/>
<polygon fill="blue" stroke="blue" stroke-width="3.88" points="316.22,-930.23 313.91,-919.89 309.27,-929.41 316.22,-930.23"/>
<text text-anchor="middle" x="416.81" y="-965.89" font-family="Times New Roman,serif" font-size="14.00">&quot;(month not in (1, 3, 5, 7, 8, 10, 12))&quot;</text>
<text text-anchor="middle" x="416.81" y="-950.14" font-family="Times New Roman,serif" font-size="14.00">c[8]</text>
<text text-anchor="middle" x="416.81" y="-934.39" font-family="Times New Roman,serif" font-size="14.00"> Score: 0.69</text>
<polygon fill="white" stroke="none" points="265.89,-963.55 265.89,-987.3 301.64,-987.3 301.64,-963.55 265.89,-963.55"/>
<text text-anchor="start" x="269.89" y="-970" font-family="Times New Roman,serif" font-size="14.00" fill="darkmagenta">6, 12</text>
</g>
<!-- 12 -->
<g id="node7" class="node">
<title>12</title>
<ellipse fill="none" stroke="black" cx="327.81" cy="-476.88" rx="108.45" ry="18"/>
<text text-anchor="middle" x="327.81" y="-471.45" font-family="Times New Roman,serif" font-size="14.00">12. if day &lt; month_length:</text>
<text text-anchor="start" x="188.61" y="-481.58" font-family="Times New Roman,serif" font-size="14.00" fill="darkorange">13,13</text>
</g>
<!-- 11&#45;&gt;12 -->
<g id="edge6" class="edge">
<title>11&#45;&gt;12</title>
<path fill="none" stroke="blue" stroke-width="1.38" d="M95.9,-784.18C84.97,-735 69.59,-629.64 117.81,-562.63 145.1,-524.7 192.32,-503.72 235.07,-492.13"/>
<polygon fill="blue" stroke="blue" stroke-width="1.38" points="235.86,-495.54 244.69,-489.69 234.13,-488.76 235.86,-495.54"/>
<text text-anchor="middle" x="122.56" y="-651" font-family="Times New Roman,serif" font-size="14.00"> Score: 0.09</text>
<polygon fill="white" stroke="none" points="86.82,-564.62 86.82,-588.37 115.82,-588.37 115.82,-564.62 86.82,-564.62"/>
<text text-anchor="start" x="90.82" y="-571.07" font-family="Times New Roman,serif" font-size="14.00" fill="darkmagenta">7, 1</text>
</g>
<!-- 14 -->
<g id="node13" class="node">
<title>14</title>
<ellipse fill="none" stroke="black" cx="314.81" cy="-738.28" rx="59.04" ry="27.93"/>
<text text-anchor="middle" x="314.81" y="-732.86" font-family="Times New Roman,serif" font-size="14.00">14. if leap_year:</text>
<text text-anchor="start" x="231.77" y="-752.91" font-family="Times New Roman,serif" font-size="14.00" fill="darkorange">2,12</text>
</g>
<!-- 13&#45;&gt;14 -->
<g id="edge14" class="edge">
<title>13&#45;&gt;14</title>
<path fill="none" stroke="blue" stroke-width="4.54" d="M314.81,-857.6C314.81,-836.43 314.81,-806.74 314.81,-782.4"/>
<polygon fill="blue" stroke="blue" stroke-width="4.54" points="318.79,-782.72 314.81,-772.72 310.84,-782.72 318.79,-782.72"/>
<text text-anchor="middle" x="353.81" y="-822.47" font-family="Times New Roman,serif" font-size="14.00">&quot;month == 2&quot;</text>
<text text-anchor="middle" x="353.81" y="-806.72" font-family="Times New Roman,serif" font-size="14.00">c[9]</text>
<text text-anchor="middle" x="353.81" y="-790.97" font-family="Times New Roman,serif" font-size="14.00"> Score: 0.85</text>
<polygon fill="white" stroke="none" points="277.06,-813.92 277.06,-837.67 312.81,-837.67 312.81,-813.92 277.06,-813.92"/>
<text text-anchor="start" x="281.06" y="-820.37" font-family="Times New Roman,serif" font-size="14.00" fill="darkmagenta">2, 12</text>
</g>
<!-- 16 -->
<g id="node14" class="node">
<title>16</title>
<ellipse fill="none" stroke="black" cx="504.81" cy="-664.42" rx="85.56" ry="27.93"/>
<text text-anchor="middle" x="504.81" y="-659" font-family="Times New Roman,serif" font-size="14.00">16. month_length = 30</text>
<text text-anchor="start" x="402" y="-679.05" font-family="Times New Roman,serif" font-size="14.00" fill="darkorange">4,0</text>
</g>
<!-- 13&#45;&gt;16 -->
<g id="edge15" class="edge">
<title>13&#45;&gt;16</title>
<path fill="none" stroke="#429e6a" d="M361.02,-865.06C373.52,-858.29 386.45,-849.91 396.81,-840.07 438.77,-800.26 470.93,-740.76 488.85,-702.52"/>
<polygon fill="#429e6a" stroke="#429e6a" points="491.9,-704.26 492.89,-693.71 485.54,-701.34 491.9,-704.26"/>
<text text-anchor="middle" x="483.44" y="-814.59" font-family="Times New Roman,serif" font-size="14.00">&quot;(month != 2)&quot;</text>
<text text-anchor="middle" x="483.44" y="-798.84" font-family="Times New Roman,serif" font-size="14.00">c[12]</text>
<polygon fill="white" stroke="none" points="409.44,-789.99 409.44,-813.74 438.44,-813.74 438.44,-789.99 409.44,-789.99"/>
<text text-anchor="start" x="413.44" y="-796.44" font-family="Times New Roman,serif" font-size="14.00" fill="darkmagenta">4, 0</text>
</g>
<!-- 20 -->
<g id="node8" class="node">
<title>20</title>
<ellipse fill="none" stroke="black" cx="254.81" cy="-251.56" rx="53.74" ry="27.93"/>
<text text-anchor="middle" x="254.81" y="-246.14" font-family="Times New Roman,serif" font-size="14.00">20. day += 1</text>
<text text-anchor="start" x="177.07" y="-266.2" font-family="Times New Roman,serif" font-size="14.00" fill="darkorange">13,1</text>
</g>
<!-- 12&#45;&gt;20 -->
<g id="edge7" class="edge">
<title>12&#45;&gt;20</title>
<path fill="none" stroke="blue" stroke-width="1.25" d="M274.61,-460.83C265.66,-455.91 257.52,-449.42 252.06,-440.88 223.2,-395.75 232.41,-331.26 242.77,-290.67"/>
<polygon fill="blue" stroke="blue" stroke-width="1.25" points="246.1,-291.79 245.35,-281.22 239.34,-289.95 246.1,-291.79"/>
<text text-anchor="middle" x="313.69" y="-427.58" font-family="Times New Roman,serif" font-size="14.00">&quot;day &lt; month_length&quot;</text>
<text text-anchor="middle" x="313.69" y="-411.83" font-family="Times New Roman,serif" font-size="14.00">c[13]</text>
<text text-anchor="middle" x="313.69" y="-396.08" font-family="Times New Roman,serif" font-size="14.00"> Score: 0.06</text>
<polygon fill="white" stroke="none" points="195.07,-373 195.07,-396.75 230.82,-396.75 230.82,-373 195.07,-373"/>
<text text-anchor="start" x="199.07" y="-379.45" font-family="Times New Roman,serif" font-size="14.00" fill="darkmagenta">13, 1</text>
</g>
<!-- 22 -->
<g id="node9" class="node">
<title>22</title>
<ellipse fill="none" stroke="black" cx="401.81" cy="-336.56" rx="72.83" ry="39.07"/>
<text text-anchor="middle" x="401.81" y="-339.01" font-family="Times New Roman,serif" font-size="14.00">22. day = 1</text>
<text text-anchor="middle" x="401.81" y="-323.26" font-family="Times New Roman,serif" font-size="14.00">if month == 12:</text>
<text text-anchor="start" x="304.98" y="-362.33" font-family="Times New Roman,serif" font-size="14.00" fill="darkorange">0,12</text>
</g>
<!-- 12&#45;&gt;22 -->
<g id="edge8" class="edge">
<title>12&#45;&gt;22</title>
<path fill="none" stroke="red" stroke-width="5" d="M360.57,-459.41C367.86,-454.37 374.88,-448.18 379.81,-440.88 389.49,-426.56 395.02,-408.78 398.15,-392.03"/>
<polygon fill="red" stroke="red" stroke-width="5" points="402.45,-392.82 399.59,-382.28 393.8,-391.54 402.45,-392.82"/>
<text text-anchor="middle" x="467.31" y="-427.58" font-family="Times New Roman,serif" font-size="14.00">&quot;(day &gt;= month_length)&quot;</text>
<text text-anchor="middle" x="467.31" y="-411.83" font-family="Times New Roman,serif" font-size="14.00">c[14]</text>
<text text-anchor="middle" x="467.31" y="-396.08" font-family="Times New Roman,serif" font-size="14.00"> Score: 0.96</text>
<polygon fill="white" stroke="none" points="352.22,-423.25 352.22,-447 387.97,-447 387.97,-423.25 352.22,-423.25"/>
<text text-anchor="start" x="356.22" y="-429.7" font-family="Times New Roman,serif" font-size="14.00" fill="darkmagenta">0, 12</text>
</g>
<!-- 21 -->
<g id="node10" class="node">
<title>21</title>
<ellipse fill="none" stroke="black" cx="394.81" cy="-41.75" rx="110.94" ry="18"/>
<text text-anchor="middle" x="394.81" y="-36.33" font-family="Times New Roman,serif" font-size="14.00">21. return day, month, year</text>
<text text-anchor="start" x="253.12" y="-46.45" font-family="Times New Roman,serif" font-size="14.00" fill="darkorange">13,13</text>
</g>
<!-- 20&#45;&gt;21 -->
<g id="edge9" class="edge">
<title>20&#45;&gt;21</title>
<path fill="none" stroke="blue" stroke-width="1.25" d="M250.09,-223.58C246.91,-197.19 245.99,-156.82 263.31,-127.5 280.58,-98.26 312.35,-77.37 340.33,-63.64"/>
<polygon fill="blue" stroke="blue" stroke-width="1.25" points="341.55,-66.94 349.12,-59.53 338.58,-60.6 341.55,-66.94"/>
<text text-anchor="middle" x="296.56" y="-153.14" font-family="Times New Roman,serif" font-size="14.00"> Score: 0.06</text>
<polygon fill="white" stroke="none" points="231.73,-120.2 231.73,-143.95 267.48,-143.95 267.48,-120.2 231.73,-120.2"/>
<text text-anchor="start" x="235.73" y="-126.65" font-family="Times New Roman,serif" font-size="14.00" fill="darkmagenta">13, 1</text>
</g>
<!-- 23 -->
<g id="node11" class="node">
<title>23</title>
<ellipse fill="none" stroke="black" cx="394.81" cy="-166.57" rx="54.91" ry="39.07"/>
<text text-anchor="middle" x="394.81" y="-169.02" font-family="Times New Roman,serif" font-size="14.00">23. month = 1</text>
<text text-anchor="middle" x="394.81" y="-153.27" font-family="Times New Roman,serif" font-size="14.00">year += 1</text>
<text text-anchor="start" x="322.65" y="-192.33" font-family="Times New Roman,serif" font-size="14.00" fill="darkorange">0,0</text>
</g>
<!-- 22&#45;&gt;23 -->
<g id="edge10" class="edge">
<title>22&#45;&gt;23</title>
<path fill="none" stroke="black" d="M400.21,-297.02C399.22,-273.33 397.94,-242.74 396.88,-217.24"/>
<polygon fill="black" stroke="black" points="400.39,-217.29 396.47,-207.44 393.39,-217.58 400.39,-217.29"/>
<text text-anchor="middle" x="441.19" y="-254.01" font-family="Times New Roman,serif" font-size="14.00">&quot;month == 12&quot;</text>
<text text-anchor="middle" x="441.19" y="-238.26" font-family="Times New Roman,serif" font-size="14.00">c[15]</text>
<polygon fill="white" stroke="none" points="367.3,-253.33 367.3,-277.08 396.3,-277.08 396.3,-253.33 367.3,-253.33"/>
<text text-anchor="start" x="371.3" y="-259.78" font-family="Times New Roman,serif" font-size="14.00" fill="darkmagenta">0, 0</text>
</g>
<!-- 25 -->
<g id="node12" class="node">
<title>25</title>
<ellipse fill="none" stroke="black" cx="525.81" cy="-166.57" rx="57.98" ry="27.93"/>
<text text-anchor="middle" x="525.81" y="-161.14" font-family="Times New Roman,serif" font-size="14.00">25. month += 1</text>
<text text-anchor="start" x="467.83" y="-181.2" font-family="Times New Roman,serif" font-size="14.00" fill="darkorange">0,12</text>
</g>
<!-- 22&#45;&gt;25 -->
<g id="edge11" class="edge">
<title>22&#45;&gt;25</title>
<path fill="none" stroke="red" stroke-width="5" d="M454.12,-309.36C466.51,-301.18 478.74,-291.18 487.81,-279.5 503.33,-259.51 512.72,-232.8 518.28,-210.49"/>
<polygon fill="red" stroke="red" stroke-width="5" points="522.51,-211.63 520.4,-200.91 513.96,-209.73 522.51,-211.63"/>
<text text-anchor="middle" x="558.81" y="-261.89" font-family="Times New Roman,serif" font-size="14.00">&quot;(month != 12)&quot;</text>
<text text-anchor="middle" x="558.81" y="-246.14" font-family="Times New Roman,serif" font-size="14.00">c[16]</text>
<text text-anchor="middle" x="558.81" y="-230.39" font-family="Times New Roman,serif" font-size="14.00"> Score: 0.96</text>
<polygon fill="white" stroke="none" points="463.16,-260.59 463.16,-284.34 498.91,-284.34 498.91,-260.59 463.16,-260.59"/>
<text text-anchor="start" x="467.16" y="-267.04" font-family="Times New Roman,serif" font-size="14.00" fill="darkmagenta">0, 12</text>
</g>
<!-- 23&#45;&gt;21 -->
<g id="edge12" class="edge">
<title>23&#45;&gt;21</title>
<path fill="none" stroke="black" d="M394.81,-127.04C394.81,-109.04 394.81,-87.98 394.81,-71.41"/>
<polygon fill="black" stroke="black" points="398.31,-71.76 394.81,-61.76 391.31,-71.76 398.31,-71.76"/>
<polygon fill="white" stroke="none" points="363.81,-95.77 363.81,-119.52 392.81,-119.52 392.81,-95.77 363.81,-95.77"/>
<text text-anchor="start" x="367.81" y="-102.22" font-family="Times New Roman,serif" font-size="14.00" fill="darkmagenta">0, 0</text>
</g>
<!-- 25&#45;&gt;21 -->
<g id="edge13" class="edge">
<title>25&#45;&gt;21</title>
<path fill="none" stroke="red" stroke-width="5" d="M499.93,-141.3C478.29,-121.01 447.4,-92.05 424.71,-70.78"/>
<polygon fill="red" stroke="red" stroke-width="5" points="427.89,-67.77 417.6,-64.12 421.91,-74.15 427.89,-67.77"/>
<text text-anchor="middle" x="497.56" y="-80.2" font-family="Times New Roman,serif" font-size="14.00"> Score: 0.96</text>
<polygon fill="white" stroke="none" points="418.74,-74.83 418.74,-98.58 454.49,-98.58 454.49,-74.83 418.74,-74.83"/>
<text text-anchor="start" x="422.74" y="-81.28" font-family="Times New Roman,serif" font-size="14.00" fill="darkmagenta">0, 12</text>
</g>
<!-- 17 -->
<g id="node15" class="node">
<title>17</title>
<ellipse fill="none" stroke="black" cx="212.81" cy="-590.56" rx="85.56" ry="27.93"/>
<text text-anchor="middle" x="212.81" y="-585.14" font-family="Times New Roman,serif" font-size="14.00">17. month_length = 29</text>
<text text-anchor="start" x="110" y="-605.19" font-family="Times New Roman,serif" font-size="14.00" fill="darkorange">2,0</text>
</g>
<!-- 14&#45;&gt;17 -->
<g id="edge16" class="edge">
<title>14&#45;&gt;17</title>
<path fill="none" stroke="#429e6a" d="M275.05,-717.41C264.62,-710.65 254.17,-702.25 246.56,-692.35 232.57,-674.17 224.21,-649.89 219.31,-629.71"/>
<polygon fill="#429e6a" stroke="#429e6a" points="222.78,-629.17 217.2,-620.16 215.94,-630.68 222.78,-629.17"/>
<text text-anchor="middle" x="272.44" y="-666.87" font-family="Times New Roman,serif" font-size="14.00">leap_year</text>
<text text-anchor="middle" x="272.44" y="-651.12" font-family="Times New Roman,serif" font-size="14.00">c[10]</text>
<polygon fill="white" stroke="none" points="203.78,-675.34 203.78,-699.09 232.78,-699.09 232.78,-675.34 203.78,-675.34"/>
<text text-anchor="start" x="207.78" y="-681.79" font-family="Times New Roman,serif" font-size="14.00" fill="darkmagenta">2, 0</text>
</g>
<!-- 19 -->
<g id="node16" class="node">
<title>19</title>
<ellipse fill="none" stroke="black" cx="396.81" cy="-590.56" rx="80.79" ry="27.93"/>
<text text-anchor="middle" x="396.81" y="-585.14" font-family="Times New Roman,serif" font-size="14.00">19. month_length = 5</text>
<text text-anchor="start" x="292.02" y="-533.58" font-family="Times New Roman,serif" font-size="14.00" fill="darkorange">0,12</text>
</g>
<!-- 14&#45;&gt;19 -->
<g id="edge17" class="edge">
<title>14&#45;&gt;19</title>
<path fill="none" stroke="red" stroke-width="5" d="M307.35,-710.48C302.96,-688.95 300.56,-658.74 313.81,-636.49 317.5,-630.31 322.36,-624.92 327.89,-620.24"/>
<polygon fill="red" stroke="red" stroke-width="5" points="330.12,-624.03 335.77,-614.69 325.08,-616.88 330.12,-624.03"/>
<text text-anchor="middle" x="361.81" y="-674.75" font-family="Times New Roman,serif" font-size="14.00">&quot;(not leap_year)&quot;</text>
<text text-anchor="middle" x="361.81" y="-659" font-family="Times New Roman,serif" font-size="14.00">c[11]</text>
<text text-anchor="middle" x="361.81" y="-643.25" font-family="Times New Roman,serif" font-size="14.00"> Score: 0.96</text>
<polygon fill="white" stroke="none" points="278.23,-631.03 278.23,-654.78 313.98,-654.78 313.98,-631.03 278.23,-631.03"/>
<text text-anchor="start" x="282.23" y="-637.48" font-family="Times New Roman,serif" font-size="14.00" fill="darkmagenta">0, 12</text>
</g>
<!-- 16&#45;&gt;12 -->
<g id="edge20" class="edge">
<title>16&#45;&gt;12</title>
<path fill="none" stroke="#429e6a" d="M504.17,-636.42C502.7,-615.33 498.49,-585.8 486.81,-562.63 473.12,-535.47 465.61,-528.99 439.81,-512.88 428.47,-505.8 415.59,-500.05 402.69,-495.41"/>
<polygon fill="#429e6a" stroke="#429e6a" points="403.92,-492.13 393.33,-492.25 401.69,-498.76 403.92,-492.13"/>
<polygon fill="white" stroke="none" points="445.75,-519.05 445.75,-542.8 474.75,-542.8 474.75,-519.05 445.75,-519.05"/>
<text text-anchor="start" x="449.75" y="-525.5" font-family="Times New Roman,serif" font-size="14.00" fill="darkmagenta">4, 0</text>
</g>
<!-- 17&#45;&gt;12 -->
<g id="edge18" class="edge">
<title>17&#45;&gt;12</title>
<path fill="none" stroke="#429e6a" d="M239.48,-563.66C258.36,-545.33 283.52,-520.89 302.16,-502.79"/>
<polygon fill="#429e6a" stroke="#429e6a" points="304.4,-505.5 309.13,-496.02 299.52,-500.47 304.4,-505.5"/>
<polygon fill="white" stroke="none" points="243.77,-531.39 243.77,-555.14 272.77,-555.14 272.77,-531.39 243.77,-531.39"/>
<text text-anchor="start" x="247.77" y="-537.84" font-family="Times New Roman,serif" font-size="14.00" fill="darkmagenta">2, 0</text>
</g>
<!-- 19&#45;&gt;12 -->
<g id="edge19" class="edge">
<title>19&#45;&gt;12</title>
<path fill="none" stroke="red" stroke-width="5" d="M380.28,-562.81C370.23,-546.54 357.35,-525.7 346.87,-508.73"/>
<polygon fill="red" stroke="red" stroke-width="5" points="350.67,-506.55 341.69,-500.34 343.22,-511.15 350.67,-506.55"/>
<text text-anchor="middle" x="401.56" y="-515.33" font-family="Times New Roman,serif" font-size="14.00"> Score: 0.96</text>
<polygon fill="white" stroke="none" points="321.38,-530.57 321.38,-554.32 357.13,-554.32 357.13,-530.57 321.38,-530.57"/>
<text text-anchor="start" x="325.38" y="-537.02" font-family="Times New Roman,serif" font-size="14.00" fill="darkmagenta">0, 12</text>
</g>
<!-- 5&#45;&gt;3 -->
<g id="edge23" class="edge">
<title>5&#45;&gt;3</title>
<path fill="none" stroke="black" d="M199.71,-1174.66C199.34,-1168.77 199,-1162.58 198.81,-1156.8 197.98,-1131.98 196.78,-1125.68 198.81,-1100.94 200.36,-1082.04 203.83,-1061.01 206.92,-1044.62"/>
<polygon fill="black" stroke="black" points="210.3,-1045.58 208.78,-1035.1 203.43,-1044.24 210.3,-1045.58"/>
<polygon fill="white" stroke="none" points="167.82,-1102.88 167.82,-1126.63 196.82,-1126.63 196.82,-1102.88 167.82,-1102.88"/>
<text text-anchor="start" x="171.82" y="-1109.33" font-family="Times New Roman,serif" font-size="14.00" fill="darkmagenta">0, 0</text>
</g>
<!-- 8 -->
<g id="node19" class="node">
<title>8</title>
<ellipse fill="none" stroke="black" cx="286.81" cy="-1128.87" rx="78.67" ry="27.93"/>
<text text-anchor="middle" x="286.81" y="-1123.44" font-family="Times New Roman,serif" font-size="14.00">8. leap_year = True</text>
<text text-anchor="start" x="190.89" y="-1143.5" font-family="Times New Roman,serif" font-size="14.00" fill="darkorange">2,0</text>
</g>
<!-- 7&#45;&gt;8 -->
<g id="edge24" class="edge">
<title>7&#45;&gt;8</title>
<path fill="none" stroke="#429e6a" d="M323.45,-1248.52C316.41,-1225.72 306.26,-1192.86 298.43,-1167.5"/>
<polygon fill="#429e6a" stroke="#429e6a" points="301.87,-1166.76 295.57,-1158.24 295.18,-1168.82 301.87,-1166.76"/>
<text text-anchor="middle" x="362.94" y="-1205.18" font-family="Times New Roman,serif" font-size="14.00">&quot;year % 4 == 0&quot;</text>
<text text-anchor="middle" x="362.94" y="-1189.43" font-family="Times New Roman,serif" font-size="14.00">c[5]</text>
<polygon fill="white" stroke="none" points="286.63,-1177.2 286.63,-1200.95 315.63,-1200.95 315.63,-1177.2 286.63,-1177.2"/>
<text text-anchor="start" x="290.63" y="-1183.65" font-family="Times New Roman,serif" font-size="14.00" fill="darkmagenta">2, 0</text>
</g>
<!-- 10 -->
<g id="node20" class="node">
<title>10</title>
<ellipse fill="none" stroke="black" cx="463.81" cy="-1128.87" rx="80.79" ry="27.93"/>
<text text-anchor="middle" x="463.81" y="-1123.44" font-family="Times New Roman,serif" font-size="14.00">10. leap_year = False</text>
<text text-anchor="start" x="352.27" y="-1143.5" font-family="Times New Roman,serif" font-size="14.00" fill="darkorange">11,13</text>
</g>
<!-- 7&#45;&gt;10 -->
<g id="edge25" class="edge">
<title>7&#45;&gt;10</title>
<path fill="none" stroke="blue" stroke-width="3.54" d="M380.95,-1254.46C392.35,-1247.99 403.78,-1240.04 412.81,-1230.66 429.04,-1213.8 441.22,-1190.76 449.6,-1170.97"/>
<polygon fill="blue" stroke="blue" stroke-width="3.54" points="452.75,-1172.51 453.18,-1161.92 446.24,-1169.93 452.75,-1172.51"/>
<text text-anchor="middle" x="495.56" y="-1213.05" font-family="Times New Roman,serif" font-size="14.00">&quot;(year % 4 != 0)&quot;</text>
<text text-anchor="middle" x="495.56" y="-1197.3" font-family="Times New Roman,serif" font-size="14.00">c[6]</text>
<text text-anchor="middle" x="495.56" y="-1181.55" font-family="Times New Roman,serif" font-size="14.00"> Score: 0.61</text>
<polygon fill="white" stroke="none" points="382.99,-1214.4 382.99,-1238.15 425.49,-1238.15 425.49,-1214.4 382.99,-1214.4"/>
<text text-anchor="start" x="386.99" y="-1220.85" font-family="Times New Roman,serif" font-size="14.00" fill="darkmagenta">11, 13</text>
</g>
<!-- 8&#45;&gt;3 -->
<g id="edge26" class="edge">
<title>8&#45;&gt;3</title>
<path fill="none" stroke="#429e6a" d="M269.27,-1101.4C257.52,-1083.66 242.1,-1060.38 230.34,-1042.64"/>
<polygon fill="#429e6a" stroke="#429e6a" points="233.51,-1041.09 225.07,-1034.69 227.68,-1044.96 233.51,-1041.09"/>
<polygon fill="white" stroke="none" points="215.94,-1069.7 215.94,-1093.45 244.94,-1093.45 244.94,-1069.7 215.94,-1069.7"/>
<text text-anchor="start" x="219.94" y="-1076.15" font-family="Times New Roman,serif" font-size="14.00" fill="darkmagenta">2, 0</text>
</g>
<!-- 10&#45;&gt;3 -->
<g id="edge27" class="edge">
<title>10&#45;&gt;3</title>
<path fill="none" stroke="blue" stroke-width="3.54" d="M415.12,-1106.2C371.73,-1086.9 308.45,-1058.74 264.25,-1039.07"/>
<polygon fill="blue" stroke="blue" stroke-width="3.54" points="265.79,-1035.93 255.23,-1035.06 262.94,-1042.32 265.79,-1035.93"/>
<text text-anchor="middle" x="393.56" y="-1053.64" font-family="Times New Roman,serif" font-size="14.00"> Score: 0.61</text>
<polygon fill="white" stroke="none" points="288.27,-1071.56 288.27,-1095.31 330.77,-1095.31 330.77,-1071.56 288.27,-1071.56"/>
<text text-anchor="start" x="292.27" y="-1078.01" font-family="Times New Roman,serif" font-size="14.00" fill="darkmagenta">11, 13</text>
</g>
</g>
</svg>
