<?xml version="1.0" encoding="UTF-8" standalone="no"?>
<!DOCTYPE svg PUBLIC "-//W3C//DTD SVG 1.1//EN"
 "http://www.w3.org/Graphics/SVG/1.1/DTD/svg11.dtd">
<!-- Generated by graphviz version 10.0.1 (20240210.2158)
 -->
<!-- Title: clusterget_next_date Pages: 1 -->
<svg width="584pt" height="1455pt"
 viewBox="0.00 0.00 584.48 1454.60" xmlns="http://www.w3.org/2000/svg" xmlns:xlink="http://www.w3.org/1999/xlink">
<g id="graph0" class="graph" transform="scale(1 1) rotate(0) translate(4 1450.6)">
<title>clusterget_next_date</title>
<polygon fill="white" stroke="none" points="-4,4 -4,-1450.6 580.48,-1450.6 580.48,4 -4,4"/>
<text text-anchor="middle" x="288.24" y="-6.9" font-family="Times New Roman,serif" font-size="8.00">get_next_date</text>
<!-- 1 -->
<g id="node1" class="node">
<title>1</title>
<ellipse fill="none" stroke="black" cx="133.92" cy="-1408.17" rx="87.68" ry="27.93"/>
<text text-anchor="middle" x="133.92" y="-1405.82" font-family="Times New Roman,serif" font-size="8.00">1. if year % 400 == 0:</text>
<text text-anchor="start" x="25.99" y="-1428.5" font-family="Times New Roman,serif" font-size="8.00" fill="darkorange">13,13</text>
</g>
<!-- 2 -->
<g id="node2" class="node">
<title>2</title>
<ellipse fill="none" stroke="black" cx="89.92" cy="-1221.45" rx="78.67" ry="27.93"/>
<text text-anchor="middle" x="89.92" y="-1219.1" font-family="Times New Roman,serif" font-size="8.00">2. leap_year = True</text>
<text text-anchor="start" x="0" y="-1241.78" font-family="Times New Roman,serif" font-size="8.00" fill="darkorange">0,0</text>
</g>
<!-- 1&#45;&gt;2 -->
<g id="edge1" class="edge">
<title>1&#45;&gt;2</title>
<path fill="none" stroke="black" d="M105.75,-1381.76C100.86,-1375.87 96.45,-1369.25 93.67,-1362.24 80.77,-1329.83 81.17,-1289.75 84,-1260.84"/>
<polygon fill="black" stroke="black" points="87.46,-1261.4 85.11,-1251.07 80.51,-1260.61 87.46,-1261.4"/>
<text text-anchor="middle" x="126.54" y="-1354.64" font-family="Times New Roman,serif" font-size="8.00">&quot;year % 400 == 0&quot;</text>
<text text-anchor="middle" x="126.54" y="-1344.14" font-family="Times New Roman,serif" font-size="8.00">c[1]</text>
<text text-anchor="start" x="60.93" y="-1308.86" font-family="Times New Roman,serif" font-size="8.00" fill="darkmagenta"> &#160;0,0 &#160;&#160;</text>
</g>
<!-- 4 -->
<g id="node3" class="node">
<title>4</title>
<ellipse fill="none" stroke="black" cx="205.92" cy="-1295.31" rx="87.68" ry="27.93"/>
<text text-anchor="middle" x="205.92" y="-1292.96" font-family="Times New Roman,serif" font-size="8.00">4. if year % 100 == 0:</text>
<text text-anchor="start" x="97.99" y="-1315.64" font-family="Times New Roman,serif" font-size="8.00" fill="darkorange">13,13</text>
</g>
<!-- 1&#45;&gt;4 -->
<g id="edge2" class="edge">
<title>1&#45;&gt;4</title>
<path fill="none" stroke="blue" d="M151.35,-1380.34C160.72,-1365.9 172.41,-1347.91 182.56,-1332.27"/>
<polygon fill="blue" stroke="blue" points="185.31,-1334.46 187.82,-1324.17 179.44,-1330.65 185.31,-1334.46"/>
<text text-anchor="middle" x="210.79" y="-1354.64" font-family="Times New Roman,serif" font-size="8.00">&quot;(year % 400 != 0)&quot;</text>
<text text-anchor="middle" x="210.79" y="-1344.14" font-family="Times New Roman,serif" font-size="8.00">c[2]</text>
<text text-anchor="start" x="162.06" y="-1333.61" font-family="Times New Roman,serif" font-size="8.00" fill="darkmagenta"> &#160;13,13 &#160;&#160;</text>
</g>
<!-- 3 -->
<g id="node4" class="node">
<title>3</title>
<ellipse fill="none" stroke="black" cx="192.92" cy="-916.94" rx="131.4" ry="18"/>
<text text-anchor="middle" x="192.92" y="-914.59" font-family="Times New Roman,serif" font-size="8.00">3. if month in (1, 3, 5, 7, 8, 10, 12):</text>
<text text-anchor="start" x="41.26" y="-927.34" font-family="Times New Roman,serif" font-size="8.00" fill="darkorange">13,13</text>
</g>
<!-- 2&#45;&gt;3 -->
<g id="edge3" class="edge">
<title>2&#45;&gt;3</title>
<path fill="none" stroke="black" d="M88.27,-1193.22C87.07,-1158.07 88.08,-1095.52 105.92,-1045.8 119.98,-1006.58 148.96,-967.93 169.61,-943.56"/>
<polygon fill="black" stroke="black" points="172.17,-945.95 176.07,-936.1 166.88,-941.37 172.17,-945.95"/>
<text text-anchor="start" x="83.42" y="-1038.18" font-family="Times New Roman,serif" font-size="8.00" fill="darkmagenta"> &#160;0,0 &#160;&#160;</text>
</g>
<!-- 5 -->
<g id="node17" class="node">
<title>5</title>
<ellipse fill="none" stroke="black" cx="190.92" cy="-1073.73" rx="80.79" ry="27.93"/>
<text text-anchor="middle" x="190.92" y="-1071.38" font-family="Times New Roman,serif" font-size="8.00">5. leap_year = False</text>
<text text-anchor="start" x="98.88" y="-1094.06" font-family="Times New Roman,serif" font-size="8.00" fill="darkorange">0,0</text>
</g>
<!-- 4&#45;&gt;5 -->
<g id="edge21" class="edge">
<title>4&#45;&gt;5</title>
<path fill="none" stroke="black" d="M195.97,-1267.54C194.19,-1261.64 192.61,-1255.36 191.67,-1249.38 184.38,-1202.96 185.64,-1148.73 187.77,-1113.17"/>
<polygon fill="black" stroke="black" points="191.25,-1113.58 188.42,-1103.37 184.27,-1113.12 191.25,-1113.58"/>
<text text-anchor="middle" x="223.54" y="-1224.35" font-family="Times New Roman,serif" font-size="8.00">&quot;year % 100 == 0&quot;</text>
<text text-anchor="middle" x="223.54" y="-1213.85" font-family="Times New Roman,serif" font-size="8.00">c[3]</text>
<text text-anchor="start" x="163.84" y="-1166.96" font-family="Times New Roman,serif" font-size="8.00" fill="darkmagenta"> &#160;0,0 &#160;&#160;</text>
</g>
<!-- 7 -->
<g id="node18" class="node">
<title>7</title>
<ellipse fill="none" stroke="black" cx="297.92" cy="-1147.59" rx="78.13" ry="27.93"/>
<text text-anchor="middle" x="297.92" y="-1145.24" font-family="Times New Roman,serif" font-size="8.00">7. if year % 4 == 0:</text>
<text text-anchor="start" x="199.53" y="-1167.92" font-family="Times New Roman,serif" font-size="8.00" fill="darkorange">13,13</text>
</g>
<!-- 4&#45;&gt;7 -->
<g id="edge22" class="edge">
<title>4&#45;&gt;7</title>
<path fill="none" stroke="blue" d="M242.05,-1269.5C248.98,-1263.52 255.7,-1256.71 260.92,-1249.38 274.27,-1230.64 283.35,-1206.53 289.17,-1186.59"/>
<polygon fill="blue" stroke="blue" points="292.48,-1187.74 291.75,-1177.17 285.73,-1185.89 292.48,-1187.74"/>
<text text-anchor="middle" x="320.79" y="-1224.35" font-family="Times New Roman,serif" font-size="8.00">&quot;(year % 100 != 0)&quot;</text>
<text text-anchor="middle" x="320.79" y="-1213.85" font-family="Times New Roman,serif" font-size="8.00">c[4]</text>
<text text-anchor="start" x="258.68" y="-1207.93" font-family="Times New Roman,serif" font-size="8.00" fill="darkmagenta"> &#160;13,13 &#160;&#160;</text>
</g>
<!-- 11 -->
<g id="node5" class="node">
<title>11</title>
<ellipse fill="none" stroke="black" cx="110.92" cy="-729.64" rx="85.56" ry="27.93"/>
<text text-anchor="middle" x="110.92" y="-727.29" font-family="Times New Roman,serif" font-size="8.00">11. month_length = 31</text>
<text text-anchor="start" x="14.11" y="-749.97" font-family="Times New Roman,serif" font-size="8.00" fill="darkorange">7,1</text>
</g>
<!-- 3&#45;&gt;11 -->
<g id="edge4" class="edge">
<title>3&#45;&gt;11</title>
<path fill="none" stroke="blue" d="M145.62,-899.83C137.36,-894.99 129.72,-888.79 124.42,-880.94 102.28,-848.16 101.56,-801.78 104.69,-769.23"/>
<polygon fill="blue" stroke="blue" points="108.15,-769.76 105.81,-759.42 101.2,-768.96 108.15,-769.76"/>
<text text-anchor="middle" x="181.67" y="-868.09" font-family="Times New Roman,serif" font-size="8.00">&quot;month in (1, 3, 5, 7, 8, 10, 12)&quot;</text>
<text text-anchor="middle" x="181.67" y="-857.59" font-family="Times New Roman,serif" font-size="8.00">c[7]</text>
<text text-anchor="start" x="83.61" y="-824.34" font-family="Times New Roman,serif" font-size="8.00" fill="darkmagenta"> &#160;7,1 &#160;&#160;</text>
</g>
<!-- 13 -->
<g id="node6" class="node">
<title>13</title>
<ellipse fill="none" stroke="black" cx="288.92" cy="-803.51" rx="68.06" ry="27.93"/>
<text text-anchor="middle" x="288.92" y="-801.16" font-family="Times New Roman,serif" font-size="8.00">13. if month == 2:</text>
<text text-anchor="start" x="205.11" y="-823.84" font-family="Times New Roman,serif" font-size="8.00" fill="darkorange">6,12</text>
</g>
<!-- 3&#45;&gt;13 -->
<g id="edge5" class="edge">
<title>3&#45;&gt;13</title>
<path fill="none" stroke="blue" stroke-width="3.76" d="M222.18,-899.07C229.79,-893.85 237.62,-887.69 243.92,-880.94 253.84,-870.3 262.56,-857.11 269.63,-844.7"/>
<polygon fill="blue" stroke="blue" stroke-width="3.76" points="272.54,-846.67 274.18,-836.2 266.37,-843.36 272.54,-846.67"/>
<text text-anchor="middle" x="333.79" y="-873.34" font-family="Times New Roman,serif" font-size="8.00">&quot;(month not in (1, 3, 5, 7, 8, 10, 12))&quot;</text>
<text text-anchor="middle" x="333.79" y="-862.84" font-family="Times New Roman,serif" font-size="8.00">c[8]</text>
<text text-anchor="middle" x="333.79" y="-852.34" font-family="Times New Roman,serif" font-size="8.00">Score: 0.69</text>
<text text-anchor="start" x="240.63" y="-850.53" font-family="Times New Roman,serif" font-size="8.00" fill="darkmagenta"> &#160;6,12 &#160;&#160;</text>
</g>
<!-- 12 -->
<g id="node7" class="node">
<title>12</title>
<ellipse fill="none" stroke="black" cx="323.92" cy="-425.13" rx="94.47" ry="18"/>
<text text-anchor="middle" x="323.92" y="-422.78" font-family="Times New Roman,serif" font-size="8.00">12. if day &lt; month_length:</text>
<text text-anchor="start" x="209.19" y="-435.53" font-family="Times New Roman,serif" font-size="8.00" fill="darkorange">13,13</text>
</g>
<!-- 11&#45;&gt;12 -->
<g id="edge6" class="edge">
<title>11&#45;&gt;12</title>
<path fill="none" stroke="blue" d="M101.68,-701.64C86.53,-651.94 62.89,-545.12 113.92,-480.13 129.4,-460.41 185.6,-446.6 235.97,-437.88"/>
<polygon fill="blue" stroke="blue" points="236.5,-441.34 245.79,-436.24 235.35,-434.43 236.5,-441.34"/>
<text text-anchor="start" x="91.42" y="-472.53" font-family="Times New Roman,serif" font-size="8.00" fill="darkmagenta"> &#160;7,1 &#160;&#160;</text>
</g>
<!-- 14 -->
<g id="node13" class="node">
<title>14</title>
<ellipse fill="none" stroke="black" cx="288.92" cy="-655.78" rx="59.04" ry="27.93"/>
<text text-anchor="middle" x="288.92" y="-653.43" font-family="Times New Roman,serif" font-size="8.00">14. if leap_year:</text>
<text text-anchor="start" x="214.12" y="-676.11" font-family="Times New Roman,serif" font-size="8.00" fill="darkorange">2,12</text>
</g>
<!-- 13&#45;&gt;14 -->
<g id="edge14" class="edge">
<title>13&#45;&gt;14</title>
<path fill="none" stroke="blue" stroke-width="4.16" d="M288.92,-775.1C288.92,-753.93 288.92,-724.24 288.92,-699.9"/>
<polygon fill="blue" stroke="blue" stroke-width="4.16" points="292.56,-700.15 288.92,-690.15 285.28,-700.15 292.56,-700.15"/>
<text text-anchor="middle" x="313.29" y="-737.79" font-family="Times New Roman,serif" font-size="8.00">&quot;month == 2&quot;</text>
<text text-anchor="middle" x="313.29" y="-727.29" font-family="Times New Roman,serif" font-size="8.00">c[9]</text>
<text text-anchor="middle" x="313.29" y="-716.79" font-family="Times New Roman,serif" font-size="8.00">Score: 0.79</text>
<text text-anchor="start" x="261.92" y="-721.82" font-family="Times New Roman,serif" font-size="8.00" fill="darkmagenta"> &#160;2,12 &#160;&#160;</text>
</g>
<!-- 16 -->
<g id="node14" class="node">
<title>16</title>
<ellipse fill="none" stroke="black" cx="490.92" cy="-581.92" rx="85.56" ry="27.93"/>
<text text-anchor="middle" x="490.92" y="-579.57" font-family="Times New Roman,serif" font-size="8.00">16. month_length = 30</text>
<text text-anchor="start" x="394.11" y="-602.25" font-family="Times New Roman,serif" font-size="8.00" fill="darkorange">4,0</text>
</g>
<!-- 13&#45;&gt;16 -->
<g id="edge15" class="edge">
<title>13&#45;&gt;16</title>
<path fill="none" stroke="#429e6a" d="M319.38,-778.13C326.96,-771.68 334.91,-764.56 341.92,-757.57 387.46,-712.18 434.77,-654.64 463.54,-618.29"/>
<polygon fill="#429e6a" stroke="#429e6a" points="466.07,-620.73 469.51,-610.71 460.57,-616.4 466.07,-620.73"/>
<text text-anchor="middle" x="417.54" y="-732.54" font-family="Times New Roman,serif" font-size="8.00">&quot;(month != 2)&quot;</text>
<text text-anchor="middle" x="417.54" y="-722.04" font-family="Times New Roman,serif" font-size="8.00">c[12]</text>
<text text-anchor="start" x="375.97" y="-689.12" font-family="Times New Roman,serif" font-size="8.00" fill="darkmagenta"> &#160;4,0 &#160;&#160;</text>
</g>
<!-- 20 -->
<g id="node8" class="node">
<title>20</title>
<ellipse fill="none" stroke="black" cx="273.92" cy="-215.56" rx="53.74" ry="27.93"/>
<text text-anchor="middle" x="273.92" y="-213.22" font-family="Times New Roman,serif" font-size="8.00">20. day += 1</text>
<text text-anchor="start" x="204.43" y="-235.9" font-family="Times New Roman,serif" font-size="8.00" fill="darkorange">13,1</text>
</g>
<!-- 12&#45;&gt;20 -->
<g id="edge7" class="edge">
<title>12&#45;&gt;20</title>
<path fill="none" stroke="blue" d="M288.86,-408.07C281.67,-403.07 275.04,-396.8 270.92,-389.13 248.4,-347.28 254.94,-291.06 263.17,-254.33"/>
<polygon fill="blue" stroke="blue" points="266.46,-255.6 265.39,-245.06 259.65,-253.97 266.46,-255.6"/>
<text text-anchor="middle" x="309.92" y="-376.28" font-family="Times New Roman,serif" font-size="8.00">&quot;day &lt; month_length&quot;</text>
<text text-anchor="middle" x="309.92" y="-365.78" font-family="Times New Roman,serif" font-size="8.00">c[13]</text>
<text text-anchor="start" x="228.66" y="-318.94" font-family="Times New Roman,serif" font-size="8.00" fill="darkmagenta"> &#160;13,1 &#160;&#160;</text>
</g>
<!-- 22 -->
<g id="node9" class="node">
<title>22</title>
<ellipse fill="none" stroke="black" cx="374.92" cy="-300.56" rx="72.83" ry="39.07"/>
<text text-anchor="middle" x="374.92" y="-303.46" font-family="Times New Roman,serif" font-size="8.00">22. day = 1</text>
<text text-anchor="middle" x="374.92" y="-292.96" font-family="Times New Roman,serif" font-size="8.00">if month == 12:</text>
<text text-anchor="start" x="286.34" y="-332.03" font-family="Times New Roman,serif" font-size="8.00" fill="darkorange">0,12</text>
</g>
<!-- 12&#45;&gt;22 -->
<g id="edge8" class="edge">
<title>12&#45;&gt;22</title>
<path fill="none" stroke="red" stroke-width="4.84" d="M340.64,-407.06C345.17,-401.67 349.71,-395.47 352.92,-389.13 358.17,-378.77 362.22,-367.07 365.33,-355.68"/>
<polygon fill="red" stroke="red" stroke-width="4.84" points="369.44,-356.69 367.67,-345.98 361.21,-354.71 369.44,-356.69"/>
<text text-anchor="middle" x="408.17" y="-381.53" font-family="Times New Roman,serif" font-size="8.00">&quot;(day &gt;= month_length)&quot;</text>
<text text-anchor="middle" x="408.17" y="-371.03" font-family="Times New Roman,serif" font-size="8.00">c[14]</text>
<text text-anchor="middle" x="408.17" y="-360.53" font-family="Times New Roman,serif" font-size="8.00">Score: 0.96</text>
<text text-anchor="start" x="338.69" y="-357.33" font-family="Times New Roman,serif" font-size="8.00" fill="darkmagenta"> &#160;0,12 &#160;&#160;</text>
</g>
<!-- 21 -->
<g id="node10" class="node">
<title>21</title>
<ellipse fill="none" stroke="black" cx="355.92" cy="-36.5" rx="96.97" ry="18"/>
<text text-anchor="middle" x="355.92" y="-34.15" font-family="Times New Roman,serif" font-size="8.00">21. return day, month, year</text>
<text text-anchor="start" x="238.69" y="-46.9" font-family="Times New Roman,serif" font-size="8.00" fill="darkorange">13,13</text>
</g>
<!-- 20&#45;&gt;21 -->
<g id="edge9" class="edge">
<title>20&#45;&gt;21</title>
<path fill="none" stroke="blue" d="M272.84,-187.39C272.97,-161.23 276.31,-121.35 292.92,-91.5 299.42,-79.82 309.48,-69.51 319.68,-61.11"/>
<polygon fill="blue" stroke="blue" points="321.61,-64.04 327.39,-55.16 317.33,-58.5 321.61,-64.04"/>
<text text-anchor="start" x="255.92" y="-107.41" font-family="Times New Roman,serif" font-size="8.00" fill="darkmagenta"> &#160;13,1 &#160;&#160;</text>
</g>
<!-- 23 -->
<g id="node11" class="node">
<title>23</title>
<ellipse fill="none" stroke="black" cx="355.92" cy="-130.57" rx="53.74" ry="39.07"/>
<text text-anchor="middle" x="355.92" y="-133.47" font-family="Times New Roman,serif" font-size="8.00">23. month = 1</text>
<text text-anchor="middle" x="355.92" y="-122.97" font-family="Times New Roman,serif" font-size="8.00">year += 1</text>
<text text-anchor="start" x="290.93" y="-162.03" font-family="Times New Roman,serif" font-size="8.00" fill="darkorange">0,0</text>
</g>
<!-- 22&#45;&gt;23 -->
<g id="edge10" class="edge">
<title>22&#45;&gt;23</title>
<path fill="none" stroke="black" d="M370.61,-261.44C367.92,-237.68 364.43,-206.86 361.53,-181.21"/>
<polygon fill="black" stroke="black" points="365.02,-180.87 360.41,-171.33 358.06,-181.66 365.02,-180.87"/>
<text text-anchor="middle" x="394.54" y="-218.47" font-family="Times New Roman,serif" font-size="8.00">&quot;month == 12&quot;</text>
<text text-anchor="middle" x="394.54" y="-207.97" font-family="Times New Roman,serif" font-size="8.00">c[15]</text>
<text text-anchor="start" x="342.91" y="-207.92" font-family="Times New Roman,serif" font-size="8.00" fill="darkmagenta"> &#160;0,0 &#160;&#160;</text>
</g>
<!-- 25 -->
<g id="node12" class="node">
<title>25</title>
<ellipse fill="none" stroke="black" cx="485.92" cy="-130.57" rx="57.98" ry="27.93"/>
<text text-anchor="middle" x="485.92" y="-128.22" font-family="Times New Roman,serif" font-size="8.00">25. month += 1</text>
<text text-anchor="start" x="412.19" y="-150.9" font-family="Times New Roman,serif" font-size="8.00" fill="darkorange">0,12</text>
</g>
<!-- 22&#45;&gt;25 -->
<g id="edge11" class="edge">
<title>22&#45;&gt;25</title>
<path fill="none" stroke="red" stroke-width="5" d="M407.68,-265.3C413.71,-258.32 419.74,-250.85 424.92,-243.5 440.68,-221.11 455.46,-194.22 466.52,-172.41"/>
<polygon fill="red" stroke="red" stroke-width="5" points="470.42,-174.39 470.94,-163.49 462.58,-170.51 470.42,-174.39"/>
<text text-anchor="middle" x="485.79" y="-223.72" font-family="Times New Roman,serif" font-size="8.00">&quot;(month != 12)&quot;</text>
<text text-anchor="middle" x="485.79" y="-213.22" font-family="Times New Roman,serif" font-size="8.00">c[16]</text>
<text text-anchor="middle" x="485.79" y="-202.72" font-family="Times New Roman,serif" font-size="8.00">Score: 1.0</text>
<text text-anchor="start" x="430.64" y="-195.38" font-family="Times New Roman,serif" font-size="8.00" fill="darkmagenta"> &#160;0,12 &#160;&#160;</text>
</g>
<!-- 23&#45;&gt;21 -->
<g id="edge12" class="edge">
<title>23&#45;&gt;21</title>
<path fill="none" stroke="black" d="M355.92,-91.06C355.92,-82.68 355.92,-73.96 355.92,-66.05"/>
<polygon fill="black" stroke="black" points="359.42,-66.33 355.92,-56.33 352.42,-66.33 359.42,-66.33"/>
<text text-anchor="start" x="333.42" y="-65.29" font-family="Times New Roman,serif" font-size="8.00" fill="darkmagenta"> &#160;0,0 &#160;&#160;</text>
</g>
<!-- 25&#45;&gt;21 -->
<g id="edge13" class="edge">
<title>25&#45;&gt;21</title>
<path fill="none" stroke="red" d="M454.12,-107.05C434.35,-93.05 408.98,-75.08 388.98,-60.92"/>
<polygon fill="red" stroke="red" points="391.06,-58.1 380.88,-55.18 387.02,-63.81 391.06,-58.1"/>
<text text-anchor="start" x="389.87" y="-73.06" font-family="Times New Roman,serif" font-size="8.00" fill="darkmagenta"> &#160;0,12 &#160;&#160;</text>
</g>
<!-- 17 -->
<g id="node15" class="node">
<title>17</title>
<ellipse fill="none" stroke="black" cx="208.92" cy="-508.06" rx="85.56" ry="27.93"/>
<text text-anchor="middle" x="208.92" y="-505.71" font-family="Times New Roman,serif" font-size="8.00">17. month_length = 29</text>
<text text-anchor="start" x="112.11" y="-528.39" font-family="Times New Roman,serif" font-size="8.00" fill="darkorange">2,0</text>
</g>
<!-- 14&#45;&gt;17 -->
<g id="edge16" class="edge">
<title>14&#45;&gt;17</title>
<path fill="none" stroke="#429e6a" d="M273.13,-628.78C269.47,-622.61 265.63,-616.03 262.17,-609.85 250.4,-588.88 237.8,-565.12 227.82,-545.93"/>
<polygon fill="#429e6a" stroke="#429e6a" points="230.97,-544.4 223.26,-537.13 224.76,-547.62 230.97,-544.4"/>
<text text-anchor="middle" x="278.79" y="-584.82" font-family="Times New Roman,serif" font-size="8.00">leap_year</text>
<text text-anchor="middle" x="278.79" y="-574.32" font-family="Times New Roman,serif" font-size="8.00">c[10]</text>
<text text-anchor="start" x="224.87" y="-575.29" font-family="Times New Roman,serif" font-size="8.00" fill="darkmagenta"> &#160;2,0 &#160;&#160;</text>
</g>
<!-- 19 -->
<g id="node16" class="node">
<title>19</title>
<ellipse fill="none" stroke="black" cx="392.92" cy="-508.06" rx="80.79" ry="27.93"/>
<text text-anchor="middle" x="392.92" y="-505.71" font-family="Times New Roman,serif" font-size="8.00">19. month_length = 5</text>
<text text-anchor="start" x="296.38" y="-528.39" font-family="Times New Roman,serif" font-size="8.00" fill="darkorange">0,12</text>
</g>
<!-- 14&#45;&gt;19 -->
<g id="edge17" class="edge">
<title>14&#45;&gt;19</title>
<path fill="none" stroke="red" stroke-width="5" d="M296.96,-627.99C304.32,-606.47 316.77,-576.26 334.42,-553.99 337.25,-550.42 340.43,-546.96 343.8,-543.67"/>
<polygon fill="red" stroke="red" stroke-width="5" points="346.47,-547.15 351.1,-537.26 340.7,-540.57 346.47,-547.15"/>
<text text-anchor="middle" x="364.67" y="-590.07" font-family="Times New Roman,serif" font-size="8.00">&quot;(not leap_year)&quot;</text>
<text text-anchor="middle" x="364.67" y="-579.57" font-family="Times New Roman,serif" font-size="8.00">c[11]</text>
<text text-anchor="middle" x="364.67" y="-569.07" font-family="Times New Roman,serif" font-size="8.00">Score: 1.0</text>
<text text-anchor="start" x="305.89" y="-558.59" font-family="Times New Roman,serif" font-size="8.00" fill="darkmagenta"> &#160;0,12 &#160;&#160;</text>
</g>
<!-- 16&#45;&gt;12 -->
<g id="edge20" class="edge">
<title>16&#45;&gt;12</title>
<path fill="none" stroke="#429e6a" d="M496.31,-553.63C499.05,-531.53 498.98,-500.77 482.92,-480.13 466.31,-458.79 440.87,-445.83 415.17,-437.97"/>
<polygon fill="#429e6a" stroke="#429e6a" points="416.19,-434.62 405.62,-435.31 414.32,-441.36 416.19,-434.62"/>
<text text-anchor="start" x="451.12" y="-462.25" font-family="Times New Roman,serif" font-size="8.00" fill="darkmagenta"> &#160;4,0 &#160;&#160;</text>
</g>
<!-- 17&#45;&gt;12 -->
<g id="edge18" class="edge">
<title>17&#45;&gt;12</title>
<path fill="none" stroke="#429e6a" d="M244.05,-482.34C258.89,-471.89 276.1,-459.78 290.73,-449.49"/>
<polygon fill="#429e6a" stroke="#429e6a" points="292.52,-452.51 298.68,-443.89 288.49,-446.78 292.52,-452.51"/>
<text text-anchor="start" x="249.45" y="-455.1" font-family="Times New Roman,serif" font-size="8.00" fill="darkmagenta"> &#160;2,0 &#160;&#160;</text>
</g>
<!-- 19&#45;&gt;12 -->
<g id="edge19" class="edge">
<title>19&#45;&gt;12</title>
<path fill="none" stroke="red" d="M370.71,-481.01C362.7,-471.62 353.69,-461.05 345.72,-451.71"/>
<polygon fill="red" stroke="red" points="348.61,-449.69 339.46,-444.36 343.28,-454.24 348.61,-449.69"/>
<text text-anchor="start" x="327.62" y="-454.54" font-family="Times New Roman,serif" font-size="8.00" fill="darkmagenta"> &#160;0,12 &#160;&#160;</text>
</g>
<!-- 5&#45;&gt;3 -->
<g id="edge23" class="edge">
<title>5&#45;&gt;3</title>
<path fill="none" stroke="black" d="M182.52,-1045.87C181.03,-1039.97 179.69,-1033.72 178.92,-1027.8 175.69,-1003.18 175.78,-996.56 178.92,-971.94 180,-963.45 182,-954.39 184.16,-946.16"/>
<polygon fill="black" stroke="black" points="187.49,-947.26 186.83,-936.68 180.75,-945.36 187.49,-947.26"/>
<text text-anchor="start" x="154.43" y="-982.45" font-family="Times New Roman,serif" font-size="8.00" fill="darkmagenta"> &#160;0,0 &#160;&#160;</text>
</g>
<!-- 8 -->
<g id="node19" class="node">
<title>8</title>
<ellipse fill="none" stroke="black" cx="266.92" cy="-999.87" rx="78.67" ry="27.93"/>
<text text-anchor="middle" x="266.92" y="-997.52" font-family="Times New Roman,serif" font-size="8.00">8. leap_year = True</text>
<text text-anchor="start" x="177" y="-1020.2" font-family="Times New Roman,serif" font-size="8.00" fill="darkorange">2,0</text>
</g>
<!-- 7&#45;&gt;8 -->
<g id="edge24" class="edge">
<title>7&#45;&gt;8</title>
<path fill="none" stroke="#429e6a" d="M292.16,-1119.52C287.33,-1096.82 280.38,-1064.15 275,-1038.84"/>
<polygon fill="#429e6a" stroke="#429e6a" points="278.46,-1038.32 272.96,-1029.27 271.62,-1039.78 278.46,-1038.32"/>
<text text-anchor="middle" x="315.04" y="-1076.63" font-family="Times New Roman,serif" font-size="8.00">&quot;year % 4 == 0&quot;</text>
<text text-anchor="middle" x="315.04" y="-1066.13" font-family="Times New Roman,serif" font-size="8.00">c[5]</text>
<text text-anchor="start" x="271.12" y="-1055.4" font-family="Times New Roman,serif" font-size="8.00" fill="darkmagenta"> &#160;2,0 &#160;&#160;</text>
</g>
<!-- 10 -->
<g id="node20" class="node">
<title>10</title>
<ellipse fill="none" stroke="black" cx="443.92" cy="-999.87" rx="80.79" ry="27.93"/>
<text text-anchor="middle" x="443.92" y="-997.52" font-family="Times New Roman,serif" font-size="8.00">10. leap_year = False</text>
<text text-anchor="start" x="342.88" y="-1020.2" font-family="Times New Roman,serif" font-size="8.00" fill="darkorange">11,13</text>
</g>
<!-- 7&#45;&gt;10 -->
<g id="edge25" class="edge">
<title>7&#45;&gt;10</title>
<path fill="none" stroke="blue" stroke-width="3.44" d="M326.18,-1121.22C333.05,-1114.91 340.31,-1108.11 346.92,-1101.66 368.03,-1081.05 390.95,-1057.31 409.2,-1038.04"/>
<polygon fill="blue" stroke="blue" stroke-width="3.44" points="411.74,-1040.45 416.06,-1030.77 406.65,-1035.64 411.74,-1040.45"/>
<text text-anchor="middle" x="430.29" y="-1081.88" font-family="Times New Roman,serif" font-size="8.00">&quot;(year % 4 != 0)&quot;</text>
<text text-anchor="middle" x="430.29" y="-1071.38" font-family="Times New Roman,serif" font-size="8.00">c[6]</text>
<text text-anchor="middle" x="430.29" y="-1060.88" font-family="Times New Roman,serif" font-size="8.00">Score: 0.61</text>
<text text-anchor="start" x="365.74" y="-1056.89" font-family="Times New Roman,serif" font-size="8.00" fill="darkmagenta"> &#160;11,13 &#160;&#160;</text>
</g>
<!-- 8&#45;&gt;3 -->
<g id="edge26" class="edge">
<title>8&#45;&gt;3</title>
<path fill="none" stroke="#429e6a" d="M243.1,-972.81C234.43,-963.33 224.65,-952.64 216.04,-943.22"/>
<polygon fill="#429e6a" stroke="#429e6a" points="218.88,-941.14 209.55,-936.13 213.72,-945.87 218.88,-941.14"/>
<text text-anchor="start" x="203.17" y="-946.15" font-family="Times New Roman,serif" font-size="8.00" fill="darkmagenta"> &#160;2,0 &#160;&#160;</text>
</g>
<!-- 10&#45;&gt;3 -->
<g id="edge27" class="edge">
<title>10&#45;&gt;3</title>
<path fill="none" stroke="blue" d="M385.7,-980.1C346.04,-967.31 293.64,-950.41 253.49,-937.47"/>
<polygon fill="blue" stroke="blue" points="254.8,-934.21 244.21,-934.47 252.65,-940.87 254.8,-934.21"/>
<text text-anchor="start" x="282.87" y="-949.5" font-family="Times New Roman,serif" font-size="8.00" fill="darkmagenta"> &#160;11,13 &#160;&#160;</text>
</g>
</g>
</svg>
