<?xml version="1.0" encoding="UTF-8" standalone="no"?>
<!DOCTYPE svg PUBLIC "-//W3C//DTD SVG 1.1//EN"
 "http://www.w3.org/Graphics/SVG/1.1/DTD/svg11.dtd">
<!-- Generated by graphviz version 10.0.1 (20240210.2158)
 -->
<!-- Title: clusterget_next_date Pages: 1 -->
<svg width="584pt" height="1456pt"
 viewBox="0.00 0.00 584.48 1456.10" xmlns="http://www.w3.org/2000/svg" xmlns:xlink="http://www.w3.org/1999/xlink">
<g id="graph0" class="graph" transform="scale(1 1) rotate(0) translate(4 1452.1)">
<title>clusterget_next_date</title>
<polygon fill="white" stroke="none" points="-4,4 -4,-1452.1 580.48,-1452.1 580.48,4 -4,4"/>
<text text-anchor="middle" x="288.24" y="-5.75" font-family="Times New Roman,serif" font-size="10.00">get_next_date</text>
<!-- 1 -->
<g id="node1" class="node">
<title>1</title>
<ellipse fill="none" stroke="black" cx="133.92" cy="-1408.92" rx="87.68" ry="27.93"/>
<text text-anchor="middle" x="133.92" y="-1405.05" font-family="Times New Roman,serif" font-size="10.00">1. if year % 400 == 0:</text>
<text text-anchor="start" x="25.99" y="-1427.35" font-family="Times New Roman,serif" font-size="10.00" fill="darkorange">13,13</text>
</g>
<!-- 2 -->
<g id="node2" class="node">
<title>2</title>
<ellipse fill="none" stroke="black" cx="89.92" cy="-1222.2" rx="78.67" ry="27.93"/>
<text text-anchor="middle" x="89.92" y="-1218.33" font-family="Times New Roman,serif" font-size="10.00">2. leap_year = True</text>
<text text-anchor="start" x="0" y="-1240.63" font-family="Times New Roman,serif" font-size="10.00" fill="darkorange">0,0</text>
</g>
<!-- 1&#45;&gt;2 -->
<g id="edge1" class="edge">
<title>1&#45;&gt;2</title>
<path fill="none" stroke="black" d="M105.75,-1382.51C100.86,-1376.62 96.45,-1370 93.67,-1362.99 80.77,-1330.58 81.17,-1290.5 84,-1261.59"/>
<polygon fill="black" stroke="black" points="87.46,-1262.15 85.11,-1251.82 80.51,-1261.36 87.46,-1262.15"/>
<text text-anchor="middle" x="126.54" y="-1355.39" font-family="Times New Roman,serif" font-size="8.00">&quot;year % 400 == 0&quot;</text>
<text text-anchor="middle" x="126.54" y="-1344.89" font-family="Times New Roman,serif" font-size="8.00">c[1]</text>
<text text-anchor="start" x="56.43" y="-1309.61" font-family="Times New Roman,serif" font-size="8.00" fill="darkmagenta"> &#160;&#160;&#160;&#160;0,0 &#160;</text>
</g>
<!-- 4 -->
<g id="node3" class="node">
<title>4</title>
<ellipse fill="none" stroke="black" cx="205.92" cy="-1296.06" rx="87.68" ry="27.93"/>
<text text-anchor="middle" x="205.92" y="-1292.19" font-family="Times New Roman,serif" font-size="10.00">4. if year % 100 == 0:</text>
<text text-anchor="start" x="97.99" y="-1314.49" font-family="Times New Roman,serif" font-size="10.00" fill="darkorange">13,13</text>
</g>
<!-- 1&#45;&gt;4 -->
<g id="edge2" class="edge">
<title>1&#45;&gt;4</title>
<path fill="none" stroke="blue" d="M151.35,-1381.09C160.72,-1366.65 172.41,-1348.66 182.56,-1333.02"/>
<polygon fill="blue" stroke="blue" points="185.31,-1335.21 187.82,-1324.92 179.44,-1331.4 185.31,-1335.21"/>
<text text-anchor="middle" x="210.79" y="-1355.39" font-family="Times New Roman,serif" font-size="8.00">&quot;(year % 400 != 0)&quot;</text>
<text text-anchor="middle" x="210.79" y="-1344.89" font-family="Times New Roman,serif" font-size="8.00">c[2]</text>
<text text-anchor="start" x="160.94" y="-1334.36" font-family="Times New Roman,serif" font-size="8.00" fill="darkmagenta"> &#160;&#160;&#160;&#160;13,13 &#160;</text>
</g>
<!-- 3 -->
<g id="node4" class="node">
<title>3</title>
<ellipse fill="none" stroke="black" cx="192.92" cy="-917.69" rx="131.4" ry="18"/>
<text text-anchor="middle" x="192.92" y="-913.81" font-family="Times New Roman,serif" font-size="10.00">3. if month in (1, 3, 5, 7, 8, 10, 12):</text>
<text text-anchor="start" x="41.26" y="-926.19" font-family="Times New Roman,serif" font-size="10.00" fill="darkorange">13,13</text>
</g>
<!-- 2&#45;&gt;3 -->
<g id="edge3" class="edge">
<title>2&#45;&gt;3</title>
<path fill="none" stroke="black" d="M88.27,-1193.97C87.07,-1158.82 88.08,-1096.27 105.92,-1046.55 119.98,-1007.33 148.96,-968.68 169.61,-944.31"/>
<polygon fill="black" stroke="black" points="172.17,-946.7 176.07,-936.85 166.88,-942.12 172.17,-946.7"/>
<text text-anchor="start" x="78.92" y="-1038.93" font-family="Times New Roman,serif" font-size="8.00" fill="darkmagenta"> &#160;&#160;&#160;&#160;0,0 &#160;</text>
</g>
<!-- 5 -->
<g id="node17" class="node">
<title>5</title>
<ellipse fill="none" stroke="black" cx="190.92" cy="-1074.48" rx="80.79" ry="27.93"/>
<text text-anchor="middle" x="190.92" y="-1070.6" font-family="Times New Roman,serif" font-size="10.00">5. leap_year = False</text>
<text text-anchor="start" x="98.88" y="-1092.91" font-family="Times New Roman,serif" font-size="10.00" fill="darkorange">0,0</text>
</g>
<!-- 4&#45;&gt;5 -->
<g id="edge21" class="edge">
<title>4&#45;&gt;5</title>
<path fill="none" stroke="black" d="M195.97,-1268.29C194.19,-1262.39 192.61,-1256.11 191.67,-1250.13 184.38,-1203.71 185.64,-1149.48 187.77,-1113.92"/>
<polygon fill="black" stroke="black" points="191.25,-1114.33 188.42,-1104.12 184.27,-1113.87 191.25,-1114.33"/>
<text text-anchor="middle" x="223.54" y="-1225.1" font-family="Times New Roman,serif" font-size="8.00">&quot;year % 100 == 0&quot;</text>
<text text-anchor="middle" x="223.54" y="-1214.6" font-family="Times New Roman,serif" font-size="8.00">c[3]</text>
<text text-anchor="start" x="159.34" y="-1167.71" font-family="Times New Roman,serif" font-size="8.00" fill="darkmagenta"> &#160;&#160;&#160;&#160;0,0 &#160;</text>
</g>
<!-- 7 -->
<g id="node18" class="node">
<title>7</title>
<ellipse fill="none" stroke="black" cx="297.92" cy="-1148.34" rx="78.13" ry="27.93"/>
<text text-anchor="middle" x="297.92" y="-1144.46" font-family="Times New Roman,serif" font-size="10.00">7. if year % 4 == 0:</text>
<text text-anchor="start" x="199.53" y="-1166.77" font-family="Times New Roman,serif" font-size="10.00" fill="darkorange">13,13</text>
</g>
<!-- 4&#45;&gt;7 -->
<g id="edge22" class="edge">
<title>4&#45;&gt;7</title>
<path fill="none" stroke="blue" d="M242.05,-1270.25C248.98,-1264.27 255.7,-1257.46 260.92,-1250.13 274.27,-1231.39 283.35,-1207.28 289.17,-1187.34"/>
<polygon fill="blue" stroke="blue" points="292.48,-1188.49 291.75,-1177.92 285.73,-1186.64 292.48,-1188.49"/>
<text text-anchor="middle" x="320.79" y="-1225.1" font-family="Times New Roman,serif" font-size="8.00">&quot;(year % 100 != 0)&quot;</text>
<text text-anchor="middle" x="320.79" y="-1214.6" font-family="Times New Roman,serif" font-size="8.00">c[4]</text>
<text text-anchor="start" x="256.43" y="-1208.68" font-family="Times New Roman,serif" font-size="8.00" fill="darkmagenta"> &#160;&#160;&#160;&#160;13,13 &#160;</text>
</g>
<!-- 11 -->
<g id="node5" class="node">
<title>11</title>
<ellipse fill="none" stroke="black" cx="110.92" cy="-730.39" rx="85.56" ry="27.93"/>
<text text-anchor="middle" x="110.92" y="-726.52" font-family="Times New Roman,serif" font-size="10.00">11. month_length = 31</text>
<text text-anchor="start" x="14.11" y="-748.82" font-family="Times New Roman,serif" font-size="10.00" fill="darkorange">7,1</text>
</g>
<!-- 3&#45;&gt;11 -->
<g id="edge4" class="edge">
<title>3&#45;&gt;11</title>
<path fill="none" stroke="blue" d="M145.62,-900.58C137.36,-895.74 129.72,-889.54 124.42,-881.69 102.28,-848.91 101.56,-802.53 104.69,-769.98"/>
<polygon fill="blue" stroke="blue" points="108.15,-770.51 105.81,-760.17 101.2,-769.71 108.15,-770.51"/>
<text text-anchor="middle" x="181.67" y="-868.84" font-family="Times New Roman,serif" font-size="8.00">&quot;month in (1, 3, 5, 7, 8, 10, 12)&quot;</text>
<text text-anchor="middle" x="181.67" y="-858.34" font-family="Times New Roman,serif" font-size="8.00">c[7]</text>
<text text-anchor="start" x="79.11" y="-825.09" font-family="Times New Roman,serif" font-size="8.00" fill="darkmagenta"> &#160;&#160;&#160;&#160;7,1 &#160;</text>
</g>
<!-- 13 -->
<g id="node6" class="node">
<title>13</title>
<ellipse fill="none" stroke="black" cx="288.92" cy="-804.26" rx="68.06" ry="27.93"/>
<text text-anchor="middle" x="288.92" y="-800.38" font-family="Times New Roman,serif" font-size="10.00">13. if month == 2:</text>
<text text-anchor="start" x="205.11" y="-822.69" font-family="Times New Roman,serif" font-size="10.00" fill="darkorange">6,12</text>
</g>
<!-- 3&#45;&gt;13 -->
<g id="edge5" class="edge">
<title>3&#45;&gt;13</title>
<path fill="none" stroke="blue" stroke-width="3.76" d="M222.18,-899.82C229.79,-894.6 237.62,-888.44 243.92,-881.69 253.84,-871.05 262.56,-857.86 269.63,-845.45"/>
<polygon fill="blue" stroke="blue" stroke-width="3.76" points="272.54,-847.42 274.18,-836.95 266.37,-844.11 272.54,-847.42"/>
<text text-anchor="middle" x="333.79" y="-874.09" font-family="Times New Roman,serif" font-size="8.00">&quot;(month not in (1, 3, 5, 7, 8, 10, 12))&quot;</text>
<text text-anchor="middle" x="333.79" y="-863.59" font-family="Times New Roman,serif" font-size="8.00">c[8]</text>
<text text-anchor="middle" x="333.79" y="-853.09" font-family="Times New Roman,serif" font-size="8.00"> &#160;Score: 0.69</text>
<text text-anchor="start" x="238.38" y="-851.28" font-family="Times New Roman,serif" font-size="8.00" fill="darkmagenta"> &#160;&#160;&#160;&#160;6,12 &#160;</text>
</g>
<!-- 12 -->
<g id="node7" class="node">
<title>12</title>
<ellipse fill="none" stroke="black" cx="323.92" cy="-425.88" rx="94.47" ry="18"/>
<text text-anchor="middle" x="323.92" y="-422" font-family="Times New Roman,serif" font-size="10.00">12. if day &lt; month_length:</text>
<text text-anchor="start" x="209.19" y="-434.38" font-family="Times New Roman,serif" font-size="10.00" fill="darkorange">13,13</text>
</g>
<!-- 11&#45;&gt;12 -->
<g id="edge6" class="edge">
<title>11&#45;&gt;12</title>
<path fill="none" stroke="blue" d="M101.68,-702.39C86.53,-652.69 62.89,-545.87 113.92,-480.88 129.4,-461.16 185.6,-447.35 235.97,-438.63"/>
<polygon fill="blue" stroke="blue" points="236.5,-442.09 245.79,-436.99 235.35,-435.18 236.5,-442.09"/>
<text text-anchor="start" x="86.92" y="-473.28" font-family="Times New Roman,serif" font-size="8.00" fill="darkmagenta"> &#160;&#160;&#160;&#160;7,1 &#160;</text>
</g>
<!-- 14 -->
<g id="node13" class="node">
<title>14</title>
<ellipse fill="none" stroke="black" cx="288.92" cy="-656.53" rx="59.04" ry="27.93"/>
<text text-anchor="middle" x="288.92" y="-652.66" font-family="Times New Roman,serif" font-size="10.00">14. if leap_year:</text>
<text text-anchor="start" x="214.12" y="-674.96" font-family="Times New Roman,serif" font-size="10.00" fill="darkorange">2,12</text>
</g>
<!-- 13&#45;&gt;14 -->
<g id="edge14" class="edge">
<title>13&#45;&gt;14</title>
<path fill="none" stroke="blue" stroke-width="4.16" d="M288.92,-775.85C288.92,-754.68 288.92,-724.99 288.92,-700.65"/>
<polygon fill="blue" stroke="blue" stroke-width="4.16" points="292.56,-700.9 288.92,-690.9 285.28,-700.9 292.56,-700.9"/>
<text text-anchor="middle" x="313.29" y="-738.54" font-family="Times New Roman,serif" font-size="8.00">&quot;month == 2&quot;</text>
<text text-anchor="middle" x="313.29" y="-728.04" font-family="Times New Roman,serif" font-size="8.00">c[9]</text>
<text text-anchor="middle" x="313.29" y="-717.54" font-family="Times New Roman,serif" font-size="8.00"> &#160;Score: 0.79</text>
<text text-anchor="start" x="257.42" y="-722.57" font-family="Times New Roman,serif" font-size="8.00" fill="darkmagenta"> &#160;&#160;&#160;&#160;2,12 &#160;</text>
</g>
<!-- 16 -->
<g id="node14" class="node">
<title>16</title>
<ellipse fill="none" stroke="black" cx="490.92" cy="-582.67" rx="85.56" ry="27.93"/>
<text text-anchor="middle" x="490.92" y="-578.8" font-family="Times New Roman,serif" font-size="10.00">16. month_length = 30</text>
<text text-anchor="start" x="394.11" y="-601.1" font-family="Times New Roman,serif" font-size="10.00" fill="darkorange">4,0</text>
</g>
<!-- 13&#45;&gt;16 -->
<g id="edge15" class="edge">
<title>13&#45;&gt;16</title>
<path fill="none" stroke="#429e6a" d="M319.38,-778.88C326.96,-772.43 334.91,-765.31 341.92,-758.32 387.46,-712.93 434.77,-655.39 463.54,-619.04"/>
<polygon fill="#429e6a" stroke="#429e6a" points="466.07,-621.48 469.51,-611.46 460.57,-617.15 466.07,-621.48"/>
<text text-anchor="middle" x="417.54" y="-733.29" font-family="Times New Roman,serif" font-size="8.00">&quot;(month != 2)&quot;</text>
<text text-anchor="middle" x="417.54" y="-722.79" font-family="Times New Roman,serif" font-size="8.00">c[12]</text>
<text text-anchor="start" x="371.47" y="-689.87" font-family="Times New Roman,serif" font-size="8.00" fill="darkmagenta"> &#160;&#160;&#160;&#160;4,0 &#160;</text>
</g>
<!-- 20 -->
<g id="node8" class="node">
<title>20</title>
<ellipse fill="none" stroke="black" cx="273.92" cy="-216.31" rx="53.74" ry="27.93"/>
<text text-anchor="middle" x="273.92" y="-212.44" font-family="Times New Roman,serif" font-size="10.00">20. day += 1</text>
<text text-anchor="start" x="204.43" y="-234.75" font-family="Times New Roman,serif" font-size="10.00" fill="darkorange">13,1</text>
</g>
<!-- 12&#45;&gt;20 -->
<g id="edge7" class="edge">
<title>12&#45;&gt;20</title>
<path fill="none" stroke="blue" d="M288.86,-408.82C281.67,-403.82 275.04,-397.55 270.92,-389.88 248.4,-348.03 254.94,-291.81 263.17,-255.08"/>
<polygon fill="blue" stroke="blue" points="266.46,-256.35 265.39,-245.81 259.65,-254.72 266.46,-256.35"/>
<text text-anchor="middle" x="309.92" y="-377.03" font-family="Times New Roman,serif" font-size="8.00">&quot;day &lt; month_length&quot;</text>
<text text-anchor="middle" x="309.92" y="-366.53" font-family="Times New Roman,serif" font-size="8.00">c[13]</text>
<text text-anchor="start" x="224.16" y="-319.69" font-family="Times New Roman,serif" font-size="8.00" fill="darkmagenta"> &#160;&#160;&#160;&#160;13,1 &#160;</text>
</g>
<!-- 22 -->
<g id="node9" class="node">
<title>22</title>
<ellipse fill="none" stroke="black" cx="374.92" cy="-301.31" rx="72.83" ry="39.07"/>
<text text-anchor="middle" x="374.92" y="-303.06" font-family="Times New Roman,serif" font-size="10.00">22. day = 1</text>
<text text-anchor="middle" x="374.92" y="-291.81" font-family="Times New Roman,serif" font-size="10.00">if month == 12:</text>
<text text-anchor="start" x="286.34" y="-330.88" font-family="Times New Roman,serif" font-size="10.00" fill="darkorange">0,12</text>
</g>
<!-- 12&#45;&gt;22 -->
<g id="edge8" class="edge">
<title>12&#45;&gt;22</title>
<path fill="none" stroke="red" stroke-width="4.84" d="M340.64,-407.81C345.17,-402.42 349.71,-396.22 352.92,-389.88 358.17,-379.52 362.22,-367.82 365.33,-356.43"/>
<polygon fill="red" stroke="red" stroke-width="4.84" points="369.44,-357.44 367.67,-346.73 361.21,-355.46 369.44,-357.44"/>
<text text-anchor="middle" x="408.17" y="-382.28" font-family="Times New Roman,serif" font-size="8.00">&quot;(day &gt;= month_length)&quot;</text>
<text text-anchor="middle" x="408.17" y="-371.78" font-family="Times New Roman,serif" font-size="8.00">c[14]</text>
<text text-anchor="middle" x="408.17" y="-361.28" font-family="Times New Roman,serif" font-size="8.00"> &#160;Score: 0.96</text>
<text text-anchor="start" x="335.32" y="-358.08" font-family="Times New Roman,serif" font-size="8.00" fill="darkmagenta"> &#160;&#160;&#160;&#160;0,12 &#160;</text>
</g>
<!-- 21 -->
<g id="node10" class="node">
<title>21</title>
<ellipse fill="none" stroke="black" cx="355.92" cy="-37.25" rx="96.97" ry="18"/>
<text text-anchor="middle" x="355.92" y="-33.38" font-family="Times New Roman,serif" font-size="10.00">21. return day, month, year</text>
<text text-anchor="start" x="238.69" y="-45.75" font-family="Times New Roman,serif" font-size="10.00" fill="darkorange">13,13</text>
</g>
<!-- 20&#45;&gt;21 -->
<g id="edge9" class="edge">
<title>20&#45;&gt;21</title>
<path fill="none" stroke="blue" d="M272.84,-188.14C272.97,-161.98 276.31,-122.1 292.92,-92.25 299.42,-80.57 309.48,-70.26 319.68,-61.86"/>
<polygon fill="blue" stroke="blue" points="321.61,-64.79 327.39,-55.91 317.33,-59.25 321.61,-64.79"/>
<text text-anchor="start" x="251.42" y="-108.16" font-family="Times New Roman,serif" font-size="8.00" fill="darkmagenta"> &#160;&#160;&#160;&#160;13,1 &#160;</text>
</g>
<!-- 23 -->
<g id="node11" class="node">
<title>23</title>
<ellipse fill="none" stroke="black" cx="355.92" cy="-131.32" rx="53.74" ry="39.07"/>
<text text-anchor="middle" x="355.92" y="-133.07" font-family="Times New Roman,serif" font-size="10.00">23. month = 1</text>
<text text-anchor="middle" x="355.92" y="-121.82" font-family="Times New Roman,serif" font-size="10.00">year += 1</text>
<text text-anchor="start" x="290.93" y="-160.88" font-family="Times New Roman,serif" font-size="10.00" fill="darkorange">0,0</text>
</g>
<!-- 22&#45;&gt;23 -->
<g id="edge10" class="edge">
<title>22&#45;&gt;23</title>
<path fill="none" stroke="black" d="M370.61,-262.19C367.92,-238.43 364.43,-207.61 361.53,-181.96"/>
<polygon fill="black" stroke="black" points="365.02,-181.62 360.41,-172.08 358.06,-182.41 365.02,-181.62"/>
<text text-anchor="middle" x="394.54" y="-219.22" font-family="Times New Roman,serif" font-size="8.00">&quot;month == 12&quot;</text>
<text text-anchor="middle" x="394.54" y="-208.72" font-family="Times New Roman,serif" font-size="8.00">c[15]</text>
<text text-anchor="start" x="338.41" y="-208.67" font-family="Times New Roman,serif" font-size="8.00" fill="darkmagenta"> &#160;&#160;&#160;&#160;0,0 &#160;</text>
</g>
<!-- 25 -->
<g id="node12" class="node">
<title>25</title>
<ellipse fill="none" stroke="black" cx="485.92" cy="-131.32" rx="57.98" ry="27.93"/>
<text text-anchor="middle" x="485.92" y="-127.44" font-family="Times New Roman,serif" font-size="10.00">25. month += 1</text>
<text text-anchor="start" x="412.19" y="-149.75" font-family="Times New Roman,serif" font-size="10.00" fill="darkorange">0,12</text>
</g>
<!-- 22&#45;&gt;25 -->
<g id="edge11" class="edge">
<title>22&#45;&gt;25</title>
<path fill="none" stroke="red" stroke-width="5" d="M407.68,-266.05C413.71,-259.07 419.74,-251.6 424.92,-244.25 440.68,-221.86 455.46,-194.97 466.52,-173.16"/>
<polygon fill="red" stroke="red" stroke-width="5" points="470.42,-175.14 470.94,-164.24 462.58,-171.26 470.42,-175.14"/>
<text text-anchor="middle" x="485.79" y="-224.47" font-family="Times New Roman,serif" font-size="8.00">&quot;(month != 12)&quot;</text>
<text text-anchor="middle" x="485.79" y="-213.97" font-family="Times New Roman,serif" font-size="8.00">c[16]</text>
<text text-anchor="middle" x="485.79" y="-203.47" font-family="Times New Roman,serif" font-size="8.00"> &#160;Score: 1.0</text>
<text text-anchor="start" x="420.51" y="-196.13" font-family="Times New Roman,serif" font-size="8.00" fill="darkmagenta"> &#160;&#160;&#160;&#160;0,12 &#160;</text>
</g>
<!-- 23&#45;&gt;21 -->
<g id="edge12" class="edge">
<title>23&#45;&gt;21</title>
<path fill="none" stroke="black" d="M355.92,-91.81C355.92,-83.43 355.92,-74.71 355.92,-66.8"/>
<polygon fill="black" stroke="black" points="359.42,-67.08 355.92,-57.08 352.42,-67.08 359.42,-67.08"/>
<text text-anchor="start" x="328.92" y="-66.04" font-family="Times New Roman,serif" font-size="8.00" fill="darkmagenta"> &#160;&#160;&#160;&#160;0,0 &#160;</text>
</g>
<!-- 25&#45;&gt;21 -->
<g id="edge13" class="edge">
<title>25&#45;&gt;21</title>
<path fill="none" stroke="red" d="M454.12,-107.8C434.35,-93.8 408.98,-75.83 388.98,-61.67"/>
<polygon fill="red" stroke="red" points="391.06,-58.85 380.88,-55.93 387.02,-64.56 391.06,-58.85"/>
<text text-anchor="start" x="385.37" y="-73.81" font-family="Times New Roman,serif" font-size="8.00" fill="darkmagenta"> &#160;&#160;&#160;&#160;0,12 &#160;</text>
</g>
<!-- 17 -->
<g id="node15" class="node">
<title>17</title>
<ellipse fill="none" stroke="black" cx="208.92" cy="-508.81" rx="85.56" ry="27.93"/>
<text text-anchor="middle" x="208.92" y="-504.94" font-family="Times New Roman,serif" font-size="10.00">17. month_length = 29</text>
<text text-anchor="start" x="112.11" y="-527.24" font-family="Times New Roman,serif" font-size="10.00" fill="darkorange">2,0</text>
</g>
<!-- 14&#45;&gt;17 -->
<g id="edge16" class="edge">
<title>14&#45;&gt;17</title>
<path fill="none" stroke="#429e6a" d="M273.13,-629.53C269.47,-623.36 265.63,-616.78 262.17,-610.6 250.4,-589.63 237.8,-565.87 227.82,-546.68"/>
<polygon fill="#429e6a" stroke="#429e6a" points="230.97,-545.15 223.26,-537.88 224.76,-548.37 230.97,-545.15"/>
<text text-anchor="middle" x="278.79" y="-585.57" font-family="Times New Roman,serif" font-size="8.00">leap_year</text>
<text text-anchor="middle" x="278.79" y="-575.07" font-family="Times New Roman,serif" font-size="8.00">c[10]</text>
<text text-anchor="start" x="220.37" y="-576.04" font-family="Times New Roman,serif" font-size="8.00" fill="darkmagenta"> &#160;&#160;&#160;&#160;2,0 &#160;</text>
</g>
<!-- 19 -->
<g id="node16" class="node">
<title>19</title>
<ellipse fill="none" stroke="black" cx="392.92" cy="-508.81" rx="80.79" ry="27.93"/>
<text text-anchor="middle" x="392.92" y="-504.94" font-family="Times New Roman,serif" font-size="10.00">19. month_length = 5</text>
<text text-anchor="start" x="296.38" y="-527.24" font-family="Times New Roman,serif" font-size="10.00" fill="darkorange">0,12</text>
</g>
<!-- 14&#45;&gt;19 -->
<g id="edge17" class="edge">
<title>14&#45;&gt;19</title>
<path fill="none" stroke="red" stroke-width="5" d="M296.96,-628.74C304.32,-607.22 316.77,-577.01 334.42,-554.74 337.25,-551.17 340.43,-547.71 343.8,-544.42"/>
<polygon fill="red" stroke="red" stroke-width="5" points="346.47,-547.9 351.1,-538.01 340.7,-541.32 346.47,-547.9"/>
<text text-anchor="middle" x="364.67" y="-590.82" font-family="Times New Roman,serif" font-size="8.00">&quot;(not leap_year)&quot;</text>
<text text-anchor="middle" x="364.67" y="-580.32" font-family="Times New Roman,serif" font-size="8.00">c[11]</text>
<text text-anchor="middle" x="364.67" y="-569.82" font-family="Times New Roman,serif" font-size="8.00"> &#160;Score: 1.0</text>
<text text-anchor="start" x="295.77" y="-559.34" font-family="Times New Roman,serif" font-size="8.00" fill="darkmagenta"> &#160;&#160;&#160;&#160;0,12 &#160;</text>
</g>
<!-- 16&#45;&gt;12 -->
<g id="edge20" class="edge">
<title>16&#45;&gt;12</title>
<path fill="none" stroke="#429e6a" d="M496.31,-554.38C499.05,-532.28 498.98,-501.52 482.92,-480.88 466.31,-459.54 440.87,-446.58 415.17,-438.72"/>
<polygon fill="#429e6a" stroke="#429e6a" points="416.19,-435.37 405.62,-436.06 414.32,-442.11 416.19,-435.37"/>
<text text-anchor="start" x="446.62" y="-463" font-family="Times New Roman,serif" font-size="8.00" fill="darkmagenta"> &#160;&#160;&#160;&#160;4,0 &#160;</text>
</g>
<!-- 17&#45;&gt;12 -->
<g id="edge18" class="edge">
<title>17&#45;&gt;12</title>
<path fill="none" stroke="#429e6a" d="M244.05,-483.09C258.89,-472.64 276.1,-460.53 290.73,-450.24"/>
<polygon fill="#429e6a" stroke="#429e6a" points="292.52,-453.26 298.68,-444.64 288.49,-447.53 292.52,-453.26"/>
<text text-anchor="start" x="244.95" y="-455.85" font-family="Times New Roman,serif" font-size="8.00" fill="darkmagenta"> &#160;&#160;&#160;&#160;2,0 &#160;</text>
</g>
<!-- 19&#45;&gt;12 -->
<g id="edge19" class="edge">
<title>19&#45;&gt;12</title>
<path fill="none" stroke="red" d="M370.71,-481.76C362.7,-472.37 353.69,-461.8 345.72,-452.46"/>
<polygon fill="red" stroke="red" points="348.61,-450.44 339.46,-445.11 343.28,-454.99 348.61,-450.44"/>
<text text-anchor="start" x="323.12" y="-455.29" font-family="Times New Roman,serif" font-size="8.00" fill="darkmagenta"> &#160;&#160;&#160;&#160;0,12 &#160;</text>
</g>
<!-- 5&#45;&gt;3 -->
<g id="edge23" class="edge">
<title>5&#45;&gt;3</title>
<path fill="none" stroke="black" d="M182.52,-1046.62C181.03,-1040.72 179.69,-1034.47 178.92,-1028.55 175.69,-1003.93 175.78,-997.31 178.92,-972.69 180,-964.2 182,-955.14 184.16,-946.91"/>
<polygon fill="black" stroke="black" points="187.49,-948.01 186.83,-937.43 180.75,-946.11 187.49,-948.01"/>
<text text-anchor="start" x="149.93" y="-983.2" font-family="Times New Roman,serif" font-size="8.00" fill="darkmagenta"> &#160;&#160;&#160;&#160;0,0 &#160;</text>
</g>
<!-- 8 -->
<g id="node19" class="node">
<title>8</title>
<ellipse fill="none" stroke="black" cx="266.92" cy="-1000.62" rx="78.67" ry="27.93"/>
<text text-anchor="middle" x="266.92" y="-996.74" font-family="Times New Roman,serif" font-size="10.00">8. leap_year = True</text>
<text text-anchor="start" x="177" y="-1019.05" font-family="Times New Roman,serif" font-size="10.00" fill="darkorange">2,0</text>
</g>
<!-- 7&#45;&gt;8 -->
<g id="edge24" class="edge">
<title>7&#45;&gt;8</title>
<path fill="none" stroke="#429e6a" d="M292.16,-1120.27C287.33,-1097.57 280.38,-1064.9 275,-1039.59"/>
<polygon fill="#429e6a" stroke="#429e6a" points="278.46,-1039.07 272.96,-1030.02 271.62,-1040.53 278.46,-1039.07"/>
<text text-anchor="middle" x="315.04" y="-1077.38" font-family="Times New Roman,serif" font-size="8.00">&quot;year % 4 == 0&quot;</text>
<text text-anchor="middle" x="315.04" y="-1066.88" font-family="Times New Roman,serif" font-size="8.00">c[5]</text>
<text text-anchor="start" x="262.12" y="-1056.15" font-family="Times New Roman,serif" font-size="8.00" fill="darkmagenta"> &#160;&#160;&#160;&#160;2,0 &#160;</text>
</g>
<!-- 10 -->
<g id="node20" class="node">
<title>10</title>
<ellipse fill="none" stroke="black" cx="443.92" cy="-1000.62" rx="80.79" ry="27.93"/>
<text text-anchor="middle" x="443.92" y="-996.74" font-family="Times New Roman,serif" font-size="10.00">10. leap_year = False</text>
<text text-anchor="start" x="342.88" y="-1019.05" font-family="Times New Roman,serif" font-size="10.00" fill="darkorange">11,13</text>
</g>
<!-- 7&#45;&gt;10 -->
<g id="edge25" class="edge">
<title>7&#45;&gt;10</title>
<path fill="none" stroke="blue" stroke-width="3.44" d="M326.18,-1121.97C333.05,-1115.66 340.31,-1108.86 346.92,-1102.41 368.03,-1081.8 390.95,-1058.06 409.2,-1038.79"/>
<polygon fill="blue" stroke="blue" stroke-width="3.44" points="411.74,-1041.2 416.06,-1031.52 406.65,-1036.39 411.74,-1041.2"/>
<text text-anchor="middle" x="430.29" y="-1082.63" font-family="Times New Roman,serif" font-size="8.00">&quot;(year % 4 != 0)&quot;</text>
<text text-anchor="middle" x="430.29" y="-1072.13" font-family="Times New Roman,serif" font-size="8.00">c[6]</text>
<text text-anchor="middle" x="430.29" y="-1061.63" font-family="Times New Roman,serif" font-size="8.00"> &#160;Score: 0.61</text>
<text text-anchor="start" x="364.61" y="-1057.64" font-family="Times New Roman,serif" font-size="8.00" fill="darkmagenta"> &#160;&#160;&#160;&#160;11,13 &#160;</text>
</g>
<!-- 8&#45;&gt;3 -->
<g id="edge26" class="edge">
<title>8&#45;&gt;3</title>
<path fill="none" stroke="#429e6a" d="M243.1,-973.56C234.43,-964.08 224.65,-953.39 216.04,-943.97"/>
<polygon fill="#429e6a" stroke="#429e6a" points="218.88,-941.89 209.55,-936.88 213.72,-946.62 218.88,-941.89"/>
<text text-anchor="start" x="198.67" y="-946.9" font-family="Times New Roman,serif" font-size="8.00" fill="darkmagenta"> &#160;&#160;&#160;&#160;2,0 &#160;</text>
</g>
<!-- 10&#45;&gt;3 -->
<g id="edge27" class="edge">
<title>10&#45;&gt;3</title>
<path fill="none" stroke="blue" d="M385.7,-980.85C346.04,-968.06 293.64,-951.16 253.49,-938.22"/>
<polygon fill="blue" stroke="blue" points="254.8,-934.96 244.21,-935.22 252.65,-941.62 254.8,-934.96"/>
<text text-anchor="start" x="278.37" y="-950.25" font-family="Times New Roman,serif" font-size="8.00" fill="darkmagenta"> &#160;&#160;&#160;&#160;11,13 &#160;</text>
</g>
</g>
</svg>
