<?xml version="1.0" encoding="UTF-8" standalone="no"?>
<!DOCTYPE svg PUBLIC "-//W3C//DTD SVG 1.1//EN"
 "http://www.w3.org/Graphics/SVG/1.1/DTD/svg11.dtd">
<!-- Generated by graphviz version 10.0.1 (20240210.2158)
 -->
<!-- Title: clusterget_next_date Pages: 1 -->
<svg width="570pt" height="1375pt"
 viewBox="0.00 0.00 570.37 1374.61" xmlns="http://www.w3.org/2000/svg" xmlns:xlink="http://www.w3.org/1999/xlink">
<g id="graph0" class="graph" transform="scale(1 1) rotate(0) translate(4 1370.61)">
<title>clusterget_next_date</title>
<polygon fill="white" stroke="none" points="-4,4 -4,-1370.61 566.37,-1370.61 566.37,4 -4,4"/>
<text text-anchor="middle" x="281.19" y="-5.75" font-family="Times New Roman,serif" font-size="10.00">get_next_date</text>
<!-- 1 -->
<g id="node1" class="node">
<title>1</title>
<ellipse fill="none" stroke="black" cx="178.81" cy="-1327.43" rx="87.68" ry="27.93"/>
<text text-anchor="middle" x="178.81" y="-1323.55" font-family="Times New Roman,serif" font-size="10.00">1. if year % 400 == 0:</text>
<text text-anchor="start" x="70.88" y="-1345.86" font-family="Times New Roman,serif" font-size="10.00" fill="darkorange">13,13</text>
</g>
<!-- 4 -->
<g id="node2" class="node">
<title>4</title>
<ellipse fill="none" stroke="black" cx="178.81" cy="-1214.57" rx="87.68" ry="27.93"/>
<text text-anchor="middle" x="178.81" y="-1210.69" font-family="Times New Roman,serif" font-size="10.00">4. if year % 100 == 0:</text>
<text text-anchor="start" x="70.88" y="-1233" font-family="Times New Roman,serif" font-size="10.00" fill="darkorange">13,13</text>
</g>
<!-- 1&#45;&gt;4 -->
<g id="edge1" class="edge">
<title>1&#45;&gt;4</title>
<path fill="none" stroke="blue" d="M178.81,-1299.02C178.81,-1285.46 178.81,-1268.87 178.81,-1254.06"/>
<polygon fill="blue" stroke="blue" points="182.31,-1254.17 178.81,-1244.17 175.31,-1254.17 182.31,-1254.17"/>
<text text-anchor="middle" x="213.69" y="-1273.9" font-family="Times New Roman,serif" font-size="8.00">&quot;(year % 400 != 0)&quot;</text>
<text text-anchor="middle" x="213.69" y="-1263.4" font-family="Times New Roman,serif" font-size="8.00">c[2]</text>
<text text-anchor="start" x="142.81" y="-1263.26" font-family="Times New Roman,serif" font-size="8.00" fill="darkmagenta"> &#160;&#160;&#160;&#160;13,13 &#160;</text>
</g>
<!-- 7 -->
<g id="node15" class="node">
<title>7</title>
<ellipse fill="none" stroke="black" cx="178.81" cy="-1101.7" rx="78.13" ry="27.93"/>
<text text-anchor="middle" x="178.81" y="-1097.83" font-family="Times New Roman,serif" font-size="10.00">7. if year % 4 == 0:</text>
<text text-anchor="start" x="80.43" y="-1120.14" font-family="Times New Roman,serif" font-size="10.00" fill="darkorange">13,13</text>
</g>
<!-- 4&#45;&gt;7 -->
<g id="edge17" class="edge">
<title>4&#45;&gt;7</title>
<path fill="none" stroke="blue" d="M178.81,-1186.16C178.81,-1172.6 178.81,-1156.01 178.81,-1141.2"/>
<polygon fill="blue" stroke="blue" points="182.31,-1141.31 178.81,-1131.31 175.31,-1141.31 182.31,-1141.31"/>
<text text-anchor="middle" x="213.69" y="-1161.04" font-family="Times New Roman,serif" font-size="8.00">&quot;(year % 100 != 0)&quot;</text>
<text text-anchor="middle" x="213.69" y="-1150.54" font-family="Times New Roman,serif" font-size="8.00">c[4]</text>
<text text-anchor="start" x="142.81" y="-1150.39" font-family="Times New Roman,serif" font-size="8.00" fill="darkmagenta"> &#160;&#160;&#160;&#160;13,13 &#160;</text>
</g>
<!-- 3 -->
<g id="node3" class="node">
<title>3</title>
<ellipse fill="none" stroke="black" cx="178.81" cy="-895.41" rx="131.4" ry="18"/>
<text text-anchor="middle" x="178.81" y="-891.54" font-family="Times New Roman,serif" font-size="10.00">3. if month in (1, 3, 5, 7, 8, 10, 12):</text>
<text text-anchor="start" x="27.16" y="-903.91" font-family="Times New Roman,serif" font-size="10.00" fill="darkorange">13,13</text>
</g>
<!-- 11 -->
<g id="node4" class="node">
<title>11</title>
<ellipse fill="none" stroke="black" cx="96.81" cy="-708.12" rx="85.56" ry="27.93"/>
<text text-anchor="middle" x="96.81" y="-704.25" font-family="Times New Roman,serif" font-size="10.00">11. month_length = 31</text>
<text text-anchor="start" x="0" y="-726.55" font-family="Times New Roman,serif" font-size="10.00" fill="darkorange">7,1</text>
</g>
<!-- 3&#45;&gt;11 -->
<g id="edge2" class="edge">
<title>3&#45;&gt;11</title>
<path fill="none" stroke="blue" d="M131.51,-878.31C123.25,-873.46 115.62,-867.27 110.31,-859.41 88.18,-826.64 87.45,-780.26 90.59,-747.71"/>
<polygon fill="blue" stroke="blue" points="94.05,-748.24 91.71,-737.9 87.09,-747.44 94.05,-748.24"/>
<text text-anchor="middle" x="168.56" y="-846.56" font-family="Times New Roman,serif" font-size="8.00">&quot;month in (1, 3, 5, 7, 8, 10, 12)&quot;</text>
<text text-anchor="middle" x="168.56" y="-836.06" font-family="Times New Roman,serif" font-size="8.00">c[7]</text>
<text text-anchor="start" x="65.01" y="-802.82" font-family="Times New Roman,serif" font-size="8.00" fill="darkmagenta"> &#160;&#160;&#160;&#160;7,1 &#160;</text>
</g>
<!-- 13 -->
<g id="node5" class="node">
<title>13</title>
<ellipse fill="none" stroke="black" cx="274.81" cy="-781.98" rx="68.06" ry="27.93"/>
<text text-anchor="middle" x="274.81" y="-778.11" font-family="Times New Roman,serif" font-size="10.00">13. if month == 2:</text>
<text text-anchor="start" x="191" y="-800.41" font-family="Times New Roman,serif" font-size="10.00" fill="darkorange">6,12</text>
</g>
<!-- 3&#45;&gt;13 -->
<g id="edge3" class="edge">
<title>3&#45;&gt;13</title>
<path fill="none" stroke="blue" stroke-width="3.76" d="M208.08,-877.54C215.69,-872.33 223.51,-866.17 229.81,-859.41 239.73,-848.78 248.46,-835.59 255.52,-823.17"/>
<polygon fill="blue" stroke="blue" stroke-width="3.76" points="258.43,-825.15 260.07,-814.68 252.26,-821.84 258.43,-825.15"/>
<text text-anchor="middle" x="319.69" y="-851.81" font-family="Times New Roman,serif" font-size="8.00">&quot;(month not in (1, 3, 5, 7, 8, 10, 12))&quot;</text>
<text text-anchor="middle" x="319.69" y="-841.31" font-family="Times New Roman,serif" font-size="8.00">c[8]</text>
<text text-anchor="middle" x="319.69" y="-830.81" font-family="Times New Roman,serif" font-size="8.00"> &#160;Score: 0.69</text>
<text text-anchor="start" x="224.27" y="-829.01" font-family="Times New Roman,serif" font-size="8.00" fill="darkmagenta"> &#160;&#160;&#160;&#160;6,12 &#160;</text>
</g>
<!-- 12 -->
<g id="node6" class="node">
<title>12</title>
<ellipse fill="none" stroke="black" cx="309.81" cy="-403.61" rx="94.47" ry="18"/>
<text text-anchor="middle" x="309.81" y="-399.73" font-family="Times New Roman,serif" font-size="10.00">12. if day &lt; month_length:</text>
<text text-anchor="start" x="195.09" y="-412.11" font-family="Times New Roman,serif" font-size="10.00" fill="darkorange">13,13</text>
</g>
<!-- 11&#45;&gt;12 -->
<g id="edge4" class="edge">
<title>11&#45;&gt;12</title>
<path fill="none" stroke="blue" d="M87.57,-680.12C72.42,-630.42 48.79,-523.6 99.81,-458.61 115.29,-438.89 171.5,-425.07 221.87,-416.35"/>
<polygon fill="blue" stroke="blue" points="222.4,-419.81 231.68,-414.71 221.24,-412.91 222.4,-419.81"/>
<text text-anchor="start" x="72.81" y="-451" font-family="Times New Roman,serif" font-size="8.00" fill="darkmagenta"> &#160;&#160;&#160;&#160;7,1 &#160;</text>
</g>
<!-- 14 -->
<g id="node11" class="node">
<title>14</title>
<ellipse fill="none" stroke="black" cx="274.81" cy="-634.26" rx="59.04" ry="27.93"/>
<text text-anchor="middle" x="274.81" y="-630.38" font-family="Times New Roman,serif" font-size="10.00">14. if leap_year:</text>
<text text-anchor="start" x="200.02" y="-652.69" font-family="Times New Roman,serif" font-size="10.00" fill="darkorange">2,12</text>
</g>
<!-- 13&#45;&gt;14 -->
<g id="edge10" class="edge">
<title>13&#45;&gt;14</title>
<path fill="none" stroke="blue" stroke-width="4.16" d="M274.81,-753.57C274.81,-732.4 274.81,-702.72 274.81,-678.37"/>
<polygon fill="blue" stroke="blue" stroke-width="4.16" points="278.45,-678.63 274.81,-668.63 271.17,-678.63 278.45,-678.63"/>
<text text-anchor="middle" x="299.19" y="-716.27" font-family="Times New Roman,serif" font-size="8.00">&quot;month == 2&quot;</text>
<text text-anchor="middle" x="299.19" y="-705.77" font-family="Times New Roman,serif" font-size="8.00">c[9]</text>
<text text-anchor="middle" x="299.19" y="-695.27" font-family="Times New Roman,serif" font-size="8.00"> &#160;Score: 0.79</text>
<text text-anchor="start" x="243.31" y="-700.3" font-family="Times New Roman,serif" font-size="8.00" fill="darkmagenta"> &#160;&#160;&#160;&#160;2,12 &#160;</text>
</g>
<!-- 16 -->
<g id="node12" class="node">
<title>16</title>
<ellipse fill="none" stroke="black" cx="476.81" cy="-560.4" rx="85.56" ry="27.93"/>
<text text-anchor="middle" x="476.81" y="-556.52" font-family="Times New Roman,serif" font-size="10.00">16. month_length = 30</text>
<text text-anchor="start" x="380" y="-578.83" font-family="Times New Roman,serif" font-size="10.00" fill="darkorange">4,0</text>
</g>
<!-- 13&#45;&gt;16 -->
<g id="edge11" class="edge">
<title>13&#45;&gt;16</title>
<path fill="none" stroke="#429e6a" d="M305.27,-756.61C312.85,-750.15 320.81,-743.04 327.81,-736.05 373.35,-690.66 420.67,-633.11 449.43,-596.76"/>
<polygon fill="#429e6a" stroke="#429e6a" points="451.96,-599.21 455.4,-589.19 446.46,-594.88 451.96,-599.21"/>
<text text-anchor="middle" x="403.44" y="-711.02" font-family="Times New Roman,serif" font-size="8.00">&quot;(month != 2)&quot;</text>
<text text-anchor="middle" x="403.44" y="-700.52" font-family="Times New Roman,serif" font-size="8.00">c[12]</text>
<text text-anchor="start" x="357.36" y="-667.6" font-family="Times New Roman,serif" font-size="8.00" fill="darkmagenta"> &#160;&#160;&#160;&#160;4,0 &#160;</text>
</g>
<!-- 20 -->
<g id="node7" class="node">
<title>20</title>
<ellipse fill="none" stroke="black" cx="266.81" cy="-194.04" rx="53.74" ry="27.93"/>
<text text-anchor="middle" x="266.81" y="-190.17" font-family="Times New Roman,serif" font-size="10.00">20. day += 1</text>
<text text-anchor="start" x="197.32" y="-212.47" font-family="Times New Roman,serif" font-size="10.00" fill="darkorange">13,1</text>
</g>
<!-- 12&#45;&gt;20 -->
<g id="edge5" class="edge">
<title>12&#45;&gt;20</title>
<path fill="none" stroke="blue" d="M274.76,-386.55C267.57,-381.55 260.94,-375.28 256.81,-367.61 234.2,-325.57 243.54,-269.16 253.86,-232.46"/>
<polygon fill="blue" stroke="blue" points="257.12,-233.78 256.63,-223.19 250.42,-231.77 257.12,-233.78"/>
<text text-anchor="middle" x="295.81" y="-354.76" font-family="Times New Roman,serif" font-size="8.00">&quot;day &lt; month_length&quot;</text>
<text text-anchor="middle" x="295.81" y="-344.26" font-family="Times New Roman,serif" font-size="8.00">c[13]</text>
<text text-anchor="start" x="211.37" y="-296.62" font-family="Times New Roman,serif" font-size="8.00" fill="darkmagenta"> &#160;&#160;&#160;&#160;13,1 &#160;</text>
</g>
<!-- 22 -->
<g id="node8" class="node">
<title>22</title>
<ellipse fill="none" stroke="black" cx="360.81" cy="-279.04" rx="72.83" ry="39.07"/>
<text text-anchor="middle" x="360.81" y="-280.79" font-family="Times New Roman,serif" font-size="10.00">22. day = 1</text>
<text text-anchor="middle" x="360.81" y="-269.54" font-family="Times New Roman,serif" font-size="10.00">if month == 12:</text>
<text text-anchor="start" x="272.23" y="-308.61" font-family="Times New Roman,serif" font-size="10.00" fill="darkorange">0,12</text>
</g>
<!-- 12&#45;&gt;22 -->
<g id="edge6" class="edge">
<title>12&#45;&gt;22</title>
<path fill="none" stroke="red" stroke-width="4.84" d="M326.53,-385.53C331.06,-380.15 335.6,-373.94 338.81,-367.61 344.06,-357.25 348.11,-345.55 351.22,-334.16"/>
<polygon fill="red" stroke="red" stroke-width="4.84" points="355.34,-335.17 353.56,-324.46 347.1,-333.19 355.34,-335.17"/>
<text text-anchor="middle" x="394.06" y="-360.01" font-family="Times New Roman,serif" font-size="8.00">&quot;(day &gt;= month_length)&quot;</text>
<text text-anchor="middle" x="394.06" y="-349.51" font-family="Times New Roman,serif" font-size="8.00">c[14]</text>
<text text-anchor="middle" x="394.06" y="-339.01" font-family="Times New Roman,serif" font-size="8.00"> &#160;Score: 0.96</text>
<text text-anchor="start" x="321.21" y="-335.81" font-family="Times New Roman,serif" font-size="8.00" fill="darkmagenta"> &#160;&#160;&#160;&#160;0,12 &#160;</text>
</g>
<!-- 21 -->
<g id="node9" class="node">
<title>21</title>
<ellipse fill="none" stroke="black" cx="282.81" cy="-37.25" rx="96.97" ry="18"/>
<text text-anchor="middle" x="282.81" y="-33.38" font-family="Times New Roman,serif" font-size="10.00">21. return day, month, year</text>
<text text-anchor="start" x="165.59" y="-45.75" font-family="Times New Roman,serif" font-size="10.00" fill="darkorange">13,13</text>
</g>
<!-- 20&#45;&gt;21 -->
<g id="edge7" class="edge">
<title>20&#45;&gt;21</title>
<path fill="none" stroke="blue" d="M269.63,-165.72C272.51,-137.93 276.94,-95.03 279.86,-66.8"/>
<polygon fill="blue" stroke="blue" points="283.31,-67.5 280.85,-57.19 276.34,-66.78 283.31,-67.5"/>
<text text-anchor="start" x="243.83" y="-103.01" font-family="Times New Roman,serif" font-size="8.00" fill="darkmagenta"> &#160;&#160;&#160;&#160;13,1 &#160;</text>
</g>
<!-- 25 -->
<g id="node10" class="node">
<title>25</title>
<ellipse fill="none" stroke="black" cx="358.81" cy="-120.18" rx="57.98" ry="27.93"/>
<text text-anchor="middle" x="358.81" y="-116.31" font-family="Times New Roman,serif" font-size="10.00">25. month += 1</text>
<text text-anchor="start" x="285.08" y="-138.61" font-family="Times New Roman,serif" font-size="10.00" fill="darkorange">0,12</text>
</g>
<!-- 22&#45;&gt;25 -->
<g id="edge8" class="edge">
<title>22&#45;&gt;25</title>
<path fill="none" stroke="red" stroke-width="5" d="M360.32,-239.67C360.03,-216.9 359.66,-187.97 359.36,-164.39"/>
<polygon fill="red" stroke="red" stroke-width="5" points="363.74,-164.52 359.24,-154.58 354.99,-164.63 363.74,-164.52"/>
<text text-anchor="middle" x="388.69" y="-202.19" font-family="Times New Roman,serif" font-size="8.00">&quot;(month != 12)&quot;</text>
<text text-anchor="middle" x="388.69" y="-191.69" font-family="Times New Roman,serif" font-size="8.00">c[16]</text>
<text text-anchor="middle" x="388.69" y="-181.19" font-family="Times New Roman,serif" font-size="8.00"> &#160;Score: 1.0</text>
<text text-anchor="start" x="328.24" y="-186.79" font-family="Times New Roman,serif" font-size="8.00" fill="darkmagenta"> &#160;&#160;&#160;&#160;0,12 &#160;</text>
</g>
<!-- 25&#45;&gt;21 -->
<g id="edge9" class="edge">
<title>25&#45;&gt;21</title>
<path fill="none" stroke="red" d="M335.6,-94.46C326.41,-84.68 315.86,-73.45 306.62,-63.61"/>
<polygon fill="red" stroke="red" points="309.34,-61.39 299.94,-56.49 304.24,-66.18 309.34,-61.39"/>
<text text-anchor="start" x="285.7" y="-67.27" font-family="Times New Roman,serif" font-size="8.00" fill="darkmagenta"> &#160;&#160;&#160;&#160;0,12 &#160;</text>
</g>
<!-- 17 -->
<g id="node13" class="node">
<title>17</title>
<ellipse fill="none" stroke="black" cx="194.81" cy="-486.54" rx="85.56" ry="27.93"/>
<text text-anchor="middle" x="194.81" y="-482.66" font-family="Times New Roman,serif" font-size="10.00">17. month_length = 29</text>
<text text-anchor="start" x="98" y="-504.97" font-family="Times New Roman,serif" font-size="10.00" fill="darkorange">2,0</text>
</g>
<!-- 14&#45;&gt;17 -->
<g id="edge12" class="edge">
<title>14&#45;&gt;17</title>
<path fill="none" stroke="#429e6a" d="M259.03,-607.26C255.36,-601.09 251.53,-594.5 248.06,-588.33 236.29,-567.36 223.7,-543.59 213.72,-524.41"/>
<polygon fill="#429e6a" stroke="#429e6a" points="216.86,-522.88 209.16,-515.61 210.65,-526.1 216.86,-522.88"/>
<text text-anchor="middle" x="264.69" y="-563.3" font-family="Times New Roman,serif" font-size="8.00">leap_year</text>
<text text-anchor="middle" x="264.69" y="-552.8" font-family="Times New Roman,serif" font-size="8.00">c[10]</text>
<text text-anchor="start" x="206.26" y="-553.77" font-family="Times New Roman,serif" font-size="8.00" fill="darkmagenta"> &#160;&#160;&#160;&#160;2,0 &#160;</text>
</g>
<!-- 19 -->
<g id="node14" class="node">
<title>19</title>
<ellipse fill="none" stroke="black" cx="378.81" cy="-486.54" rx="80.79" ry="27.93"/>
<text text-anchor="middle" x="378.81" y="-482.66" font-family="Times New Roman,serif" font-size="10.00">19. month_length = 5</text>
<text text-anchor="start" x="282.27" y="-504.97" font-family="Times New Roman,serif" font-size="10.00" fill="darkorange">0,12</text>
</g>
<!-- 14&#45;&gt;19 -->
<g id="edge13" class="edge">
<title>14&#45;&gt;19</title>
<path fill="none" stroke="red" stroke-width="5" d="M282.85,-606.47C290.22,-584.95 302.67,-554.74 320.31,-532.47 323.14,-528.89 326.32,-525.44 329.69,-522.15"/>
<polygon fill="red" stroke="red" stroke-width="5" points="332.37,-525.62 336.99,-515.74 326.59,-519.05 332.37,-525.62"/>
<text text-anchor="middle" x="350.56" y="-568.55" font-family="Times New Roman,serif" font-size="8.00">&quot;(not leap_year)&quot;</text>
<text text-anchor="middle" x="350.56" y="-558.05" font-family="Times New Roman,serif" font-size="8.00">c[11]</text>
<text text-anchor="middle" x="350.56" y="-547.55" font-family="Times New Roman,serif" font-size="8.00"> &#160;Score: 1.0</text>
<text text-anchor="start" x="281.66" y="-537.07" font-family="Times New Roman,serif" font-size="8.00" fill="darkmagenta"> &#160;&#160;&#160;&#160;0,12 &#160;</text>
</g>
<!-- 16&#45;&gt;12 -->
<g id="edge16" class="edge">
<title>16&#45;&gt;12</title>
<path fill="none" stroke="#429e6a" d="M482.21,-532.11C484.95,-510.01 484.87,-479.25 468.81,-458.61 452.21,-437.27 426.76,-424.3 401.06,-416.45"/>
<polygon fill="#429e6a" stroke="#429e6a" points="402.09,-413.1 391.52,-413.79 400.21,-419.84 402.09,-413.1"/>
<text text-anchor="start" x="432.51" y="-440.73" font-family="Times New Roman,serif" font-size="8.00" fill="darkmagenta"> &#160;&#160;&#160;&#160;4,0 &#160;</text>
</g>
<!-- 17&#45;&gt;12 -->
<g id="edge14" class="edge">
<title>17&#45;&gt;12</title>
<path fill="none" stroke="#429e6a" d="M229.94,-460.82C244.79,-450.37 261.99,-438.26 276.62,-427.96"/>
<polygon fill="#429e6a" stroke="#429e6a" points="278.41,-430.98 284.58,-422.37 274.38,-425.26 278.41,-430.98"/>
<text text-anchor="start" x="230.85" y="-433.58" font-family="Times New Roman,serif" font-size="8.00" fill="darkmagenta"> &#160;&#160;&#160;&#160;2,0 &#160;</text>
</g>
<!-- 19&#45;&gt;12 -->
<g id="edge15" class="edge">
<title>19&#45;&gt;12</title>
<path fill="none" stroke="red" d="M356.6,-459.48C348.6,-450.1 339.58,-439.53 331.62,-430.18"/>
<polygon fill="red" stroke="red" points="334.5,-428.17 325.35,-422.83 329.17,-432.71 334.5,-428.17"/>
<text text-anchor="start" x="309.02" y="-433.02" font-family="Times New Roman,serif" font-size="8.00" fill="darkmagenta"> &#160;&#160;&#160;&#160;0,12 &#160;</text>
</g>
<!-- 8 -->
<g id="node16" class="node">
<title>8</title>
<ellipse fill="none" stroke="black" cx="90.81" cy="-978.34" rx="78.67" ry="27.93"/>
<text text-anchor="middle" x="90.81" y="-974.47" font-family="Times New Roman,serif" font-size="10.00">8. leap_year = True</text>
<text text-anchor="start" x="0.89" y="-996.77" font-family="Times New Roman,serif" font-size="10.00" fill="darkorange">2,0</text>
</g>
<!-- 7&#45;&gt;8 -->
<g id="edge18" class="edge">
<title>7&#45;&gt;8</title>
<path fill="none" stroke="#429e6a" d="M159.72,-1074.37C147.09,-1056.96 130.38,-1033.92 116.58,-1014.88"/>
<polygon fill="#429e6a" stroke="#429e6a" points="119.46,-1012.89 110.76,-1006.85 113.79,-1017 119.46,-1012.89"/>
<text text-anchor="middle" x="173.94" y="-1042.92" font-family="Times New Roman,serif" font-size="8.00">&quot;year % 4 == 0&quot;</text>
<text text-anchor="middle" x="173.94" y="-1032.42" font-family="Times New Roman,serif" font-size="8.00">c[5]</text>
<text text-anchor="start" x="107.72" y="-1032.3" font-family="Times New Roman,serif" font-size="8.00" fill="darkmagenta"> &#160;&#160;&#160;&#160;2,0 &#160;</text>
</g>
<!-- 10 -->
<g id="node17" class="node">
<title>10</title>
<ellipse fill="none" stroke="black" cx="267.81" cy="-978.34" rx="80.79" ry="27.93"/>
<text text-anchor="middle" x="267.81" y="-974.47" font-family="Times New Roman,serif" font-size="10.00">10. leap_year = False</text>
<text text-anchor="start" x="166.77" y="-996.77" font-family="Times New Roman,serif" font-size="10.00" fill="darkorange">11,13</text>
</g>
<!-- 7&#45;&gt;10 -->
<g id="edge19" class="edge">
<title>7&#45;&gt;10</title>
<path fill="none" stroke="blue" stroke-width="3.44" d="M198.12,-1074.37C210.25,-1057.83 226.1,-1036.22 239.62,-1017.78"/>
<polygon fill="blue" stroke="blue" stroke-width="3.44" points="242.37,-1019.96 245.46,-1009.82 236.72,-1015.82 242.37,-1019.96"/>
<text text-anchor="middle" x="264.19" y="-1048.17" font-family="Times New Roman,serif" font-size="8.00">&quot;(year % 4 != 0)&quot;</text>
<text text-anchor="middle" x="264.19" y="-1037.67" font-family="Times New Roman,serif" font-size="8.00">c[6]</text>
<text text-anchor="middle" x="264.19" y="-1027.17" font-family="Times New Roman,serif" font-size="8.00"> &#160;Score: 0.61</text>
<text text-anchor="start" x="196.41" y="-1021.79" font-family="Times New Roman,serif" font-size="8.00" fill="darkmagenta"> &#160;&#160;&#160;&#160;11,13 &#160;</text>
</g>
<!-- 8&#45;&gt;3 -->
<g id="edge20" class="edge">
<title>8&#45;&gt;3</title>
<path fill="none" stroke="#429e6a" d="M118.65,-951.74C129.2,-942.04 141.18,-931.02 151.66,-921.39"/>
<polygon fill="#429e6a" stroke="#429e6a" points="153.94,-924.05 158.93,-914.7 149.2,-918.89 153.94,-924.05"/>
<text text-anchor="start" x="112.39" y="-925.07" font-family="Times New Roman,serif" font-size="8.00" fill="darkmagenta"> &#160;&#160;&#160;&#160;2,0 &#160;</text>
</g>
<!-- 10&#45;&gt;3 -->
<g id="edge21" class="edge">
<title>10&#45;&gt;3</title>
<path fill="none" stroke="blue" d="M239.65,-951.74C228.99,-942.04 216.87,-931.02 206.27,-921.39"/>
<polygon fill="blue" stroke="blue" points="208.67,-918.83 198.91,-914.69 203.96,-924.01 208.67,-918.83"/>
<text text-anchor="start" x="182.68" y="-925.07" font-family="Times New Roman,serif" font-size="8.00" fill="darkmagenta"> &#160;&#160;&#160;&#160;11,13 &#160;</text>
</g>
</g>
</svg>
