<?xml version="1.0" encoding="UTF-8" standalone="no"?>
<!DOCTYPE svg PUBLIC "-//W3C//DTD SVG 1.1//EN"
 "http://www.w3.org/Graphics/SVG/1.1/DTD/svg11.dtd">
<!-- Generated by graphviz version 10.0.1 (20240210.2158)
 -->
<!-- Title: clusterget_next_date Pages: 1 -->
<svg width="598pt" height="1576pt"
 viewBox="0.00 0.00 598.37 1575.61" xmlns="http://www.w3.org/2000/svg" xmlns:xlink="http://www.w3.org/1999/xlink">
<g id="graph0" class="graph" transform="scale(1 1) rotate(0) translate(4 1571.61)">
<title>clusterget_next_date</title>
<polygon fill="white" stroke="none" points="-4,4 -4,-1571.61 594.37,-1571.61 594.37,4 -4,4"/>
<text text-anchor="middle" x="295.19" y="-6.45" font-family="Times New Roman,serif" font-size="14.00">get_next_date</text>
<!-- 1 -->
<g id="node1" class="node">
<title>1</title>
<ellipse fill="none" stroke="black" cx="212.81" cy="-1523.93" rx="87.68" ry="27.93"/>
<text text-anchor="middle" x="212.81" y="-1518.5" font-family="Times New Roman,serif" font-size="14.00">1. if year % 400 == 0:</text>
<text text-anchor="start" x="94.38" y="-1538.56" font-family="Times New Roman,serif" font-size="14.00" fill="darkorange">13,13</text>
</g>
<!-- 4 -->
<g id="node2" class="node">
<title>4</title>
<ellipse fill="none" stroke="black" cx="212.81" cy="-1384.82" rx="87.68" ry="27.93"/>
<text text-anchor="middle" x="212.81" y="-1379.39" font-family="Times New Roman,serif" font-size="14.00">4. if year % 100 == 0:</text>
<text text-anchor="start" x="94.38" y="-1399.45" font-family="Times New Roman,serif" font-size="14.00" fill="darkorange">13,13</text>
</g>
<!-- 1&#45;&gt;4 -->
<g id="edge1" class="edge">
<title>1&#45;&gt;4</title>
<path fill="none" stroke="blue" stroke-width="3.38" d="M212.81,-1495.51C212.81,-1476.27 212.81,-1450.16 212.81,-1428.25"/>
<polygon fill="blue" stroke="blue" stroke-width="3.38" points="216.31,-1428.29 212.81,-1418.29 209.31,-1428.29 216.31,-1428.29"/>
<text text-anchor="middle" x="268.31" y="-1464.7" font-family="Times New Roman,serif" font-size="14.00">&quot;(year % 400 != 0)&quot;</text>
<text text-anchor="middle" x="268.31" y="-1448.95" font-family="Times New Roman,serif" font-size="14.00">c[2]</text>
<text text-anchor="middle" x="268.31" y="-1433.2" font-family="Times New Roman,serif" font-size="14.00"> Score: 0.57</text>
<polygon fill="white" stroke="none" points="168.31,-1456.64 168.31,-1480.39 210.81,-1480.39 210.81,-1456.64 168.31,-1456.64"/>
<text text-anchor="start" x="172.31" y="-1463.09" font-family="Times New Roman,serif" font-size="14.00" fill="darkmagenta">13, 13</text>
</g>
<!-- 7 -->
<g id="node15" class="node">
<title>7</title>
<ellipse fill="none" stroke="black" cx="212.81" cy="-1245.7" rx="78.13" ry="27.93"/>
<text text-anchor="middle" x="212.81" y="-1240.28" font-family="Times New Roman,serif" font-size="14.00">7. if year % 4 == 0:</text>
<text text-anchor="start" x="103.93" y="-1260.34" font-family="Times New Roman,serif" font-size="14.00" fill="darkorange">13,13</text>
</g>
<!-- 4&#45;&gt;7 -->
<g id="edge17" class="edge">
<title>4&#45;&gt;7</title>
<path fill="none" stroke="blue" stroke-width="3.38" d="M212.81,-1356.4C212.81,-1337.16 212.81,-1311.05 212.81,-1289.13"/>
<polygon fill="blue" stroke="blue" stroke-width="3.38" points="216.31,-1289.18 212.81,-1279.18 209.31,-1289.18 216.31,-1289.18"/>
<text text-anchor="middle" x="268.31" y="-1325.59" font-family="Times New Roman,serif" font-size="14.00">&quot;(year % 100 != 0)&quot;</text>
<text text-anchor="middle" x="268.31" y="-1309.84" font-family="Times New Roman,serif" font-size="14.00">c[4]</text>
<text text-anchor="middle" x="268.31" y="-1294.09" font-family="Times New Roman,serif" font-size="14.00"> Score: 0.57</text>
<polygon fill="white" stroke="none" points="168.31,-1317.53 168.31,-1341.28 210.81,-1341.28 210.81,-1317.53 168.31,-1317.53"/>
<text text-anchor="start" x="172.31" y="-1323.98" font-family="Times New Roman,serif" font-size="14.00" fill="darkmagenta">13, 13</text>
</g>
<!-- 3 -->
<g id="node3" class="node">
<title>3</title>
<ellipse fill="none" stroke="black" cx="212.81" cy="-992.91" rx="140.88" ry="18"/>
<text text-anchor="middle" x="212.81" y="-987.49" font-family="Times New Roman,serif" font-size="14.00">3. if month in (1, 3, 5, 7, 8, 10, 12):</text>
<text text-anchor="start" x="41.18" y="-997.61" font-family="Times New Roman,serif" font-size="14.00" fill="darkorange">13,13</text>
</g>
<!-- 11 -->
<g id="node4" class="node">
<title>11</title>
<ellipse fill="none" stroke="black" cx="102.81" cy="-789.87" rx="85.56" ry="27.93"/>
<text text-anchor="middle" x="102.81" y="-784.45" font-family="Times New Roman,serif" font-size="14.00">11. month_length = 31</text>
<text text-anchor="start" x="0" y="-804.5" font-family="Times New Roman,serif" font-size="14.00" fill="darkorange">7,1</text>
</g>
<!-- 3&#45;&gt;11 -->
<g id="edge2" class="edge">
<title>3&#45;&gt;11</title>
<path fill="none" stroke="blue" stroke-width="1.38" d="M135.37,-977.52C125.34,-972.53 116.25,-965.85 109.56,-956.91 82.39,-920.59 86.05,-866.25 92.91,-829.73"/>
<polygon fill="blue" stroke="blue" stroke-width="1.38" points="96.31,-830.62 94.91,-820.12 89.45,-829.2 96.31,-830.62"/>
<text text-anchor="middle" x="199.44" y="-943.61" font-family="Times New Roman,serif" font-size="14.00">&quot;month in (1, 3, 5, 7, 8, 10, 12)&quot;</text>
<text text-anchor="middle" x="199.44" y="-927.86" font-family="Times New Roman,serif" font-size="14.00">c[7]</text>
<text text-anchor="middle" x="199.44" y="-912.11" font-family="Times New Roman,serif" font-size="14.00"> Score: 0.09</text>
<polygon fill="white" stroke="none" points="58.16,-902.84 58.16,-926.59 87.16,-926.59 87.16,-902.84 58.16,-902.84"/>
<text text-anchor="start" x="62.16" y="-909.29" font-family="Times New Roman,serif" font-size="14.00" fill="darkmagenta">7, 1</text>
</g>
<!-- 13 -->
<g id="node5" class="node">
<title>13</title>
<ellipse fill="none" stroke="black" cx="314.81" cy="-863.73" rx="68.06" ry="27.93"/>
<text text-anchor="middle" x="314.81" y="-858.31" font-family="Times New Roman,serif" font-size="14.00">13. if month == 2:</text>
<text text-anchor="start" x="222.75" y="-878.36" font-family="Times New Roman,serif" font-size="14.00" fill="darkorange">6,12</text>
</g>
<!-- 3&#45;&gt;13 -->
<g id="edge3" class="edge">
<title>3&#45;&gt;13</title>
<path fill="none" stroke="blue" stroke-width="3.88" d="M267.77,-976.02C277.2,-971.18 286.1,-964.94 292.81,-956.91 304.33,-943.14 310.02,-924.36 312.77,-907.34"/>
<polygon fill="blue" stroke="blue" stroke-width="3.88" points="316.22,-907.95 313.91,-897.61 309.27,-907.14 316.22,-907.95"/>
<text text-anchor="middle" x="416.81" y="-943.61" font-family="Times New Roman,serif" font-size="14.00">&quot;(month not in (1, 3, 5, 7, 8, 10, 12))&quot;</text>
<text text-anchor="middle" x="416.81" y="-927.86" font-family="Times New Roman,serif" font-size="14.00">c[8]</text>
<text text-anchor="middle" x="416.81" y="-912.11" font-family="Times New Roman,serif" font-size="14.00"> Score: 0.69</text>
<polygon fill="white" stroke="none" points="265.89,-941.27 265.89,-965.02 301.64,-965.02 301.64,-941.27 265.89,-941.27"/>
<text text-anchor="start" x="269.89" y="-947.72" font-family="Times New Roman,serif" font-size="14.00" fill="darkmagenta">6, 12</text>
</g>
<!-- 12 -->
<g id="node6" class="node">
<title>12</title>
<ellipse fill="none" stroke="black" cx="327.81" cy="-454.61" rx="108.45" ry="18"/>
<text text-anchor="middle" x="327.81" y="-449.18" font-family="Times New Roman,serif" font-size="14.00">12. if day &lt; month_length:</text>
<text text-anchor="start" x="188.61" y="-459.31" font-family="Times New Roman,serif" font-size="14.00" fill="darkorange">13,13</text>
</g>
<!-- 11&#45;&gt;12 -->
<g id="edge4" class="edge">
<title>11&#45;&gt;12</title>
<path fill="none" stroke="blue" stroke-width="1.38" d="M95.9,-761.9C84.97,-712.72 69.59,-607.37 117.81,-540.36 145.1,-502.43 192.32,-481.45 235.07,-469.86"/>
<polygon fill="blue" stroke="blue" stroke-width="1.38" points="235.86,-473.27 244.69,-467.41 234.13,-466.49 235.86,-473.27"/>
<text text-anchor="middle" x="122.56" y="-628.72" font-family="Times New Roman,serif" font-size="14.00"> Score: 0.09</text>
<polygon fill="white" stroke="none" points="86.82,-542.35 86.82,-566.1 115.82,-566.1 115.82,-542.35 86.82,-542.35"/>
<text text-anchor="start" x="90.82" y="-548.8" font-family="Times New Roman,serif" font-size="14.00" fill="darkmagenta">7, 1</text>
</g>
<!-- 14 -->
<g id="node11" class="node">
<title>14</title>
<ellipse fill="none" stroke="black" cx="314.81" cy="-716.01" rx="59.04" ry="27.93"/>
<text text-anchor="middle" x="314.81" y="-710.58" font-family="Times New Roman,serif" font-size="14.00">14. if leap_year:</text>
<text text-anchor="start" x="231.77" y="-730.64" font-family="Times New Roman,serif" font-size="14.00" fill="darkorange">2,12</text>
</g>
<!-- 13&#45;&gt;14 -->
<g id="edge10" class="edge">
<title>13&#45;&gt;14</title>
<path fill="none" stroke="blue" stroke-width="4.54" d="M314.81,-835.32C314.81,-814.15 314.81,-784.47 314.81,-760.12"/>
<polygon fill="blue" stroke="blue" stroke-width="4.54" points="318.79,-760.45 314.81,-750.45 310.84,-760.45 318.79,-760.45"/>
<text text-anchor="middle" x="353.81" y="-800.2" font-family="Times New Roman,serif" font-size="14.00">&quot;month == 2&quot;</text>
<text text-anchor="middle" x="353.81" y="-784.45" font-family="Times New Roman,serif" font-size="14.00">c[9]</text>
<text text-anchor="middle" x="353.81" y="-768.7" font-family="Times New Roman,serif" font-size="14.00"> Score: 0.85</text>
<polygon fill="white" stroke="none" points="277.06,-791.65 277.06,-815.4 312.81,-815.4 312.81,-791.65 277.06,-791.65"/>
<text text-anchor="start" x="281.06" y="-798.1" font-family="Times New Roman,serif" font-size="14.00" fill="darkmagenta">2, 12</text>
</g>
<!-- 16 -->
<g id="node12" class="node">
<title>16</title>
<ellipse fill="none" stroke="black" cx="504.81" cy="-642.15" rx="85.56" ry="27.93"/>
<text text-anchor="middle" x="504.81" y="-636.72" font-family="Times New Roman,serif" font-size="14.00">16. month_length = 30</text>
<text text-anchor="start" x="402" y="-656.78" font-family="Times New Roman,serif" font-size="14.00" fill="darkorange">4,0</text>
</g>
<!-- 13&#45;&gt;16 -->
<g id="edge11" class="edge">
<title>13&#45;&gt;16</title>
<path fill="none" stroke="#429e6a" d="M361.02,-842.78C373.52,-836.02 386.45,-827.63 396.81,-817.8 438.77,-777.99 470.93,-718.49 488.85,-680.25"/>
<polygon fill="#429e6a" stroke="#429e6a" points="491.9,-681.98 492.89,-671.43 485.54,-679.06 491.9,-681.98"/>
<text text-anchor="middle" x="483.44" y="-792.32" font-family="Times New Roman,serif" font-size="14.00">&quot;(month != 2)&quot;</text>
<text text-anchor="middle" x="483.44" y="-776.57" font-family="Times New Roman,serif" font-size="14.00">c[12]</text>
<polygon fill="white" stroke="none" points="409.44,-767.72 409.44,-791.47 438.44,-791.47 438.44,-767.72 409.44,-767.72"/>
<text text-anchor="start" x="413.44" y="-774.17" font-family="Times New Roman,serif" font-size="14.00" fill="darkmagenta">4, 0</text>
</g>
<!-- 20 -->
<g id="node7" class="node">
<title>20</title>
<ellipse fill="none" stroke="black" cx="256.81" cy="-229.29" rx="53.74" ry="27.93"/>
<text text-anchor="middle" x="256.81" y="-223.87" font-family="Times New Roman,serif" font-size="14.00">20. day += 1</text>
<text text-anchor="start" x="179.07" y="-243.92" font-family="Times New Roman,serif" font-size="14.00" fill="darkorange">13,1</text>
</g>
<!-- 12&#45;&gt;20 -->
<g id="edge5" class="edge">
<title>12&#45;&gt;20</title>
<path fill="none" stroke="blue" stroke-width="1.25" d="M274.61,-438.56C265.66,-433.64 257.52,-427.15 252.06,-418.61 223.19,-373.47 233.22,-308.98 244.18,-268.39"/>
<polygon fill="blue" stroke="blue" stroke-width="1.25" points="247.5,-269.51 246.9,-258.93 240.77,-267.58 247.5,-269.51"/>
<text text-anchor="middle" x="313.69" y="-405.31" font-family="Times New Roman,serif" font-size="14.00">&quot;day &lt; month_length&quot;</text>
<text text-anchor="middle" x="313.69" y="-389.56" font-family="Times New Roman,serif" font-size="14.00">c[13]</text>
<text text-anchor="middle" x="313.69" y="-373.81" font-family="Times New Roman,serif" font-size="14.00"> Score: 0.06</text>
<polygon fill="white" stroke="none" points="195.48,-350.72 195.48,-374.47 231.23,-374.47 231.23,-350.72 195.48,-350.72"/>
<text text-anchor="start" x="199.48" y="-357.17" font-family="Times New Roman,serif" font-size="14.00" fill="darkmagenta">13, 1</text>
</g>
<!-- 22 -->
<g id="node8" class="node">
<title>22</title>
<ellipse fill="none" stroke="black" cx="400.81" cy="-314.29" rx="72.83" ry="39.07"/>
<text text-anchor="middle" x="400.81" y="-316.74" font-family="Times New Roman,serif" font-size="14.00">22. day = 1</text>
<text text-anchor="middle" x="400.81" y="-300.99" font-family="Times New Roman,serif" font-size="14.00">if month == 12:</text>
<text text-anchor="start" x="303.98" y="-340.06" font-family="Times New Roman,serif" font-size="14.00" fill="darkorange">0,12</text>
</g>
<!-- 12&#45;&gt;22 -->
<g id="edge6" class="edge">
<title>12&#45;&gt;22</title>
<path fill="none" stroke="red" stroke-width="5" d="M360.89,-436.99C368.08,-431.98 374.97,-425.84 379.81,-418.61 389.4,-404.27 394.77,-386.49 397.74,-369.74"/>
<polygon fill="red" stroke="red" stroke-width="5" points="402.05,-370.51 399.08,-360 393.38,-369.31 402.05,-370.51"/>
<text text-anchor="middle" x="467.31" y="-405.31" font-family="Times New Roman,serif" font-size="14.00">&quot;(day &gt;= month_length)&quot;</text>
<text text-anchor="middle" x="467.31" y="-389.56" font-family="Times New Roman,serif" font-size="14.00">c[14]</text>
<text text-anchor="middle" x="467.31" y="-373.81" font-family="Times New Roman,serif" font-size="14.00"> Score: 0.96</text>
<polygon fill="white" stroke="none" points="352.08,-400.96 352.08,-424.71 387.83,-424.71 387.83,-400.96 352.08,-400.96"/>
<text text-anchor="start" x="356.08" y="-407.41" font-family="Times New Roman,serif" font-size="14.00" fill="darkmagenta">0, 12</text>
</g>
<!-- 21 -->
<g id="node9" class="node">
<title>21</title>
<ellipse fill="none" stroke="black" cx="273.81" cy="-41.75" rx="110.94" ry="18"/>
<text text-anchor="middle" x="273.81" y="-36.33" font-family="Times New Roman,serif" font-size="14.00">21. return day, month, year</text>
<text text-anchor="start" x="132.12" y="-46.45" font-family="Times New Roman,serif" font-size="14.00" fill="darkorange">13,13</text>
</g>
<!-- 20&#45;&gt;21 -->
<g id="edge7" class="edge">
<title>20&#45;&gt;21</title>
<path fill="none" stroke="blue" stroke-width="1.25" d="M259.32,-200.91C262.49,-166.29 267.93,-106.93 271.17,-71.62"/>
<polygon fill="blue" stroke="blue" stroke-width="1.25" points="274.61,-72.37 272.04,-62.09 267.64,-71.73 274.61,-72.37"/>
<text text-anchor="middle" x="299.56" y="-142.01" font-family="Times New Roman,serif" font-size="14.00"> Score: 0.06</text>
<polygon fill="white" stroke="none" points="228.03,-132.45 228.03,-156.2 263.78,-156.2 263.78,-132.45 228.03,-132.45"/>
<text text-anchor="start" x="232.03" y="-138.9" font-family="Times New Roman,serif" font-size="14.00" fill="darkmagenta">13, 1</text>
</g>
<!-- 25 -->
<g id="node10" class="node">
<title>25</title>
<ellipse fill="none" stroke="black" cx="400.81" cy="-155.43" rx="57.98" ry="27.93"/>
<text text-anchor="middle" x="400.81" y="-150.01" font-family="Times New Roman,serif" font-size="14.00">25. month += 1</text>
<text text-anchor="start" x="318.83" y="-170.06" font-family="Times New Roman,serif" font-size="14.00" fill="darkorange">0,12</text>
</g>
<!-- 22&#45;&gt;25 -->
<g id="edge8" class="edge">
<title>22&#45;&gt;25</title>
<path fill="none" stroke="red" stroke-width="5" d="M400.81,-274.92C400.81,-252.15 400.81,-223.22 400.81,-199.64"/>
<polygon fill="red" stroke="red" stroke-width="5" points="405.19,-199.83 400.81,-189.83 396.44,-199.83 405.19,-199.83"/>
<text text-anchor="middle" x="445.81" y="-239.62" font-family="Times New Roman,serif" font-size="14.00">&quot;(month != 12)&quot;</text>
<text text-anchor="middle" x="445.81" y="-223.87" font-family="Times New Roman,serif" font-size="14.00">c[16]</text>
<text text-anchor="middle" x="445.81" y="-208.12" font-family="Times New Roman,serif" font-size="14.00"> Score: 0.96</text>
<polygon fill="white" stroke="none" points="363.06,-231.64 363.06,-255.39 398.81,-255.39 398.81,-231.64 363.06,-231.64"/>
<text text-anchor="start" x="367.06" y="-238.09" font-family="Times New Roman,serif" font-size="14.00" fill="darkmagenta">0, 12</text>
</g>
<!-- 25&#45;&gt;21 -->
<g id="edge9" class="edge">
<title>25&#45;&gt;21</title>
<path fill="none" stroke="red" stroke-width="5" d="M373.57,-130.47C353.53,-112.85 326.25,-88.86 305.28,-70.42"/>
<polygon fill="red" stroke="red" stroke-width="5" points="308.24,-67.2 297.84,-63.88 302.46,-73.77 308.24,-67.2"/>
<text text-anchor="middle" x="381.56" y="-80.2" font-family="Times New Roman,serif" font-size="14.00"> Score: 0.96</text>
<polygon fill="white" stroke="none" points="295.86,-97.33 295.86,-121.08 331.61,-121.08 331.61,-97.33 295.86,-97.33"/>
<text text-anchor="start" x="299.86" y="-103.78" font-family="Times New Roman,serif" font-size="14.00" fill="darkmagenta">0, 12</text>
</g>
<!-- 17 -->
<g id="node13" class="node">
<title>17</title>
<ellipse fill="none" stroke="black" cx="212.81" cy="-568.29" rx="85.56" ry="27.93"/>
<text text-anchor="middle" x="212.81" y="-562.86" font-family="Times New Roman,serif" font-size="14.00">17. month_length = 29</text>
<text text-anchor="start" x="110" y="-582.92" font-family="Times New Roman,serif" font-size="14.00" fill="darkorange">2,0</text>
</g>
<!-- 14&#45;&gt;17 -->
<g id="edge12" class="edge">
<title>14&#45;&gt;17</title>
<path fill="none" stroke="#429e6a" d="M275.05,-695.14C264.62,-688.37 254.17,-679.97 246.56,-670.08 232.57,-651.9 224.21,-627.61 219.31,-607.44"/>
<polygon fill="#429e6a" stroke="#429e6a" points="222.78,-606.9 217.2,-597.89 215.94,-608.41 222.78,-606.9"/>
<text text-anchor="middle" x="272.44" y="-644.6" font-family="Times New Roman,serif" font-size="14.00">leap_year</text>
<text text-anchor="middle" x="272.44" y="-628.85" font-family="Times New Roman,serif" font-size="14.00">c[10]</text>
<polygon fill="white" stroke="none" points="203.78,-653.07 203.78,-676.82 232.78,-676.82 232.78,-653.07 203.78,-653.07"/>
<text text-anchor="start" x="207.78" y="-659.52" font-family="Times New Roman,serif" font-size="14.00" fill="darkmagenta">2, 0</text>
</g>
<!-- 19 -->
<g id="node14" class="node">
<title>19</title>
<ellipse fill="none" stroke="black" cx="396.81" cy="-568.29" rx="80.79" ry="27.93"/>
<text text-anchor="middle" x="396.81" y="-562.86" font-family="Times New Roman,serif" font-size="14.00">19. month_length = 5</text>
<text text-anchor="start" x="292.02" y="-511.31" font-family="Times New Roman,serif" font-size="14.00" fill="darkorange">0,12</text>
</g>
<!-- 14&#45;&gt;19 -->
<g id="edge13" class="edge">
<title>14&#45;&gt;19</title>
<path fill="none" stroke="red" stroke-width="5" d="M307.35,-688.21C302.96,-666.68 300.56,-636.47 313.81,-614.22 317.5,-608.03 322.36,-602.65 327.89,-597.97"/>
<polygon fill="red" stroke="red" stroke-width="5" points="330.12,-601.75 335.77,-592.42 325.08,-594.6 330.12,-601.75"/>
<text text-anchor="middle" x="361.81" y="-652.47" font-family="Times New Roman,serif" font-size="14.00">&quot;(not leap_year)&quot;</text>
<text text-anchor="middle" x="361.81" y="-636.72" font-family="Times New Roman,serif" font-size="14.00">c[11]</text>
<text text-anchor="middle" x="361.81" y="-620.97" font-family="Times New Roman,serif" font-size="14.00"> Score: 0.96</text>
<polygon fill="white" stroke="none" points="268.29,-608.76 268.29,-632.51 304.04,-632.51 304.04,-608.76 268.29,-608.76"/>
<text text-anchor="start" x="272.29" y="-615.21" font-family="Times New Roman,serif" font-size="14.00" fill="darkmagenta">0, 12</text>
</g>
<!-- 16&#45;&gt;12 -->
<g id="edge16" class="edge">
<title>16&#45;&gt;12</title>
<path fill="none" stroke="#429e6a" d="M504.17,-614.15C502.7,-593.06 498.49,-563.53 486.81,-540.36 473.12,-513.19 465.61,-506.72 439.81,-490.61 428.47,-483.52 415.59,-477.77 402.69,-473.14"/>
<polygon fill="#429e6a" stroke="#429e6a" points="403.92,-469.86 393.33,-469.98 401.69,-476.49 403.92,-469.86"/>
<polygon fill="white" stroke="none" points="445.75,-496.77 445.75,-520.52 474.75,-520.52 474.75,-496.77 445.75,-496.77"/>
<text text-anchor="start" x="449.75" y="-503.22" font-family="Times New Roman,serif" font-size="14.00" fill="darkmagenta">4, 0</text>
</g>
<!-- 17&#45;&gt;12 -->
<g id="edge14" class="edge">
<title>17&#45;&gt;12</title>
<path fill="none" stroke="#429e6a" d="M239.48,-541.38C258.36,-523.06 283.52,-498.62 302.16,-480.52"/>
<polygon fill="#429e6a" stroke="#429e6a" points="304.4,-483.22 309.13,-473.74 299.52,-478.2 304.4,-483.22"/>
<polygon fill="white" stroke="none" points="243.77,-509.12 243.77,-532.87 272.77,-532.87 272.77,-509.12 243.77,-509.12"/>
<text text-anchor="start" x="247.77" y="-515.57" font-family="Times New Roman,serif" font-size="14.00" fill="darkmagenta">2, 0</text>
</g>
<!-- 19&#45;&gt;12 -->
<g id="edge15" class="edge">
<title>19&#45;&gt;12</title>
<path fill="none" stroke="red" stroke-width="5" d="M380.28,-540.54C370.23,-524.27 357.35,-503.42 346.87,-486.46"/>
<polygon fill="red" stroke="red" stroke-width="5" points="350.67,-484.27 341.69,-478.07 343.22,-488.87 350.67,-484.27"/>
<text text-anchor="middle" x="401.56" y="-493.06" font-family="Times New Roman,serif" font-size="14.00"> Score: 0.96</text>
<polygon fill="white" stroke="none" points="321.38,-508.3 321.38,-532.05 357.13,-532.05 357.13,-508.3 321.38,-508.3"/>
<text text-anchor="start" x="325.38" y="-514.75" font-family="Times New Roman,serif" font-size="14.00" fill="darkmagenta">0, 12</text>
</g>
<!-- 8 -->
<g id="node16" class="node">
<title>8</title>
<ellipse fill="none" stroke="black" cx="124.81" cy="-1106.59" rx="78.67" ry="27.93"/>
<text text-anchor="middle" x="124.81" y="-1101.17" font-family="Times New Roman,serif" font-size="14.00">8. leap_year = True</text>
<text text-anchor="start" x="28.89" y="-1121.22" font-family="Times New Roman,serif" font-size="14.00" fill="darkorange">2,0</text>
</g>
<!-- 7&#45;&gt;8 -->
<g id="edge18" class="edge">
<title>7&#45;&gt;8</title>
<path fill="none" stroke="#429e6a" d="M187.11,-1219.11C181.64,-1213.04 176.15,-1206.39 171.56,-1199.77 159.71,-1182.68 149.01,-1162.16 140.84,-1144.82"/>
<polygon fill="#429e6a" stroke="#429e6a" points="144.08,-1143.5 136.73,-1135.88 137.72,-1146.43 144.08,-1143.5"/>
<text text-anchor="middle" x="217.94" y="-1178.6" font-family="Times New Roman,serif" font-size="14.00">&quot;year % 4 == 0&quot;</text>
<text text-anchor="middle" x="217.94" y="-1162.85" font-family="Times New Roman,serif" font-size="14.00">c[5]</text>
<polygon fill="white" stroke="none" points="127.28,-1180.56 127.28,-1204.31 156.28,-1204.31 156.28,-1180.56 127.28,-1180.56"/>
<text text-anchor="start" x="131.28" y="-1187.01" font-family="Times New Roman,serif" font-size="14.00" fill="darkmagenta">2, 0</text>
</g>
<!-- 10 -->
<g id="node17" class="node">
<title>10</title>
<ellipse fill="none" stroke="black" cx="301.81" cy="-1106.59" rx="80.79" ry="27.93"/>
<text text-anchor="middle" x="301.81" y="-1101.17" font-family="Times New Roman,serif" font-size="14.00">10. leap_year = False</text>
<text text-anchor="start" x="190.27" y="-1121.22" font-family="Times New Roman,serif" font-size="14.00" fill="darkorange">11,13</text>
</g>
<!-- 7&#45;&gt;10 -->
<g id="edge19" class="edge">
<title>7&#45;&gt;10</title>
<path fill="none" stroke="blue" stroke-width="3.54" d="M245.53,-1219.89C252.16,-1213.82 258.67,-1206.98 263.81,-1199.77 274.67,-1184.56 283.12,-1165.79 289.27,-1149.16"/>
<polygon fill="blue" stroke="blue" stroke-width="3.54" points="292.58,-1150.32 292.53,-1139.73 285.96,-1148.04 292.58,-1150.32"/>
<text text-anchor="middle" x="335.56" y="-1186.47" font-family="Times New Roman,serif" font-size="14.00">&quot;(year % 4 != 0)&quot;</text>
<text text-anchor="middle" x="335.56" y="-1170.72" font-family="Times New Roman,serif" font-size="14.00">c[6]</text>
<text text-anchor="middle" x="335.56" y="-1154.97" font-family="Times New Roman,serif" font-size="14.00"> Score: 0.61</text>
<polygon fill="white" stroke="none" points="231.15,-1182.26 231.15,-1206.01 273.65,-1206.01 273.65,-1182.26 231.15,-1182.26"/>
<text text-anchor="start" x="235.15" y="-1188.71" font-family="Times New Roman,serif" font-size="14.00" fill="darkmagenta">11, 13</text>
</g>
<!-- 8&#45;&gt;3 -->
<g id="edge20" class="edge">
<title>8&#45;&gt;3</title>
<path fill="none" stroke="#429e6a" d="M145.44,-1079.41C159.55,-1061.51 178.16,-1037.89 192.25,-1020.01"/>
<polygon fill="#429e6a" stroke="#429e6a" points="194.78,-1022.45 198.22,-1012.43 189.28,-1018.12 194.78,-1022.45"/>
<polygon fill="white" stroke="none" points="141.3,-1047.33 141.3,-1071.08 170.3,-1071.08 170.3,-1047.33 141.3,-1047.33"/>
<text text-anchor="start" x="145.3" y="-1053.78" font-family="Times New Roman,serif" font-size="14.00" fill="darkmagenta">2, 0</text>
</g>
<!-- 10&#45;&gt;3 -->
<g id="edge21" class="edge">
<title>10&#45;&gt;3</title>
<path fill="none" stroke="blue" stroke-width="3.54" d="M280.94,-1079.41C267.47,-1062.5 249.91,-1040.47 236,-1023.01"/>
<polygon fill="blue" stroke="blue" stroke-width="3.54" points="238.93,-1021.07 229.96,-1015.44 233.46,-1025.44 238.93,-1021.07"/>
<text text-anchor="middle" x="298.56" y="-1031.36" font-family="Times New Roman,serif" font-size="14.00"> Score: 0.61</text>
<polygon fill="white" stroke="none" points="209.38,-1047.44 209.38,-1071.19 251.88,-1071.19 251.88,-1047.44 209.38,-1047.44"/>
<text text-anchor="start" x="213.38" y="-1053.89" font-family="Times New Roman,serif" font-size="14.00" fill="darkmagenta">11, 13</text>
</g>
</g>
</svg>
