<?xml version="1.0" encoding="UTF-8" standalone="no"?>
<!DOCTYPE svg PUBLIC "-//W3C//DTD SVG 1.1//EN"
 "http://www.w3.org/Graphics/SVG/1.1/DTD/svg11.dtd">
<!-- Generated by graphviz version 10.0.1 (20240210.2158)
 -->
<!-- Title: clusterget_next_date Pages: 1 -->
<svg width="570pt" height="1373pt"
 viewBox="0.00 0.00 570.37 1373.11" xmlns="http://www.w3.org/2000/svg" xmlns:xlink="http://www.w3.org/1999/xlink">
<g id="graph0" class="graph" transform="scale(1 1) rotate(0) translate(4 1369.11)">
<title>clusterget_next_date</title>
<polygon fill="white" stroke="none" points="-4,4 -4,-1369.11 566.37,-1369.11 566.37,4 -4,4"/>
<text text-anchor="middle" x="281.19" y="-6.9" font-family="Times New Roman,serif" font-size="8.00">get_next_date</text>
<!-- 1 -->
<g id="node1" class="node">
<title>1</title>
<ellipse fill="none" stroke="black" cx="178.81" cy="-1326.68" rx="87.68" ry="27.93"/>
<text text-anchor="middle" x="178.81" y="-1324.33" font-family="Times New Roman,serif" font-size="8.00">1. if year % 400 == 0:</text>
<text text-anchor="start" x="70.88" y="-1347.01" font-family="Times New Roman,serif" font-size="8.00" fill="darkorange">13,13</text>
</g>
<!-- 4 -->
<g id="node2" class="node">
<title>4</title>
<ellipse fill="none" stroke="black" cx="178.81" cy="-1213.82" rx="87.68" ry="27.93"/>
<text text-anchor="middle" x="178.81" y="-1211.47" font-family="Times New Roman,serif" font-size="8.00">4. if year % 100 == 0:</text>
<text text-anchor="start" x="70.88" y="-1234.15" font-family="Times New Roman,serif" font-size="8.00" fill="darkorange">13,13</text>
</g>
<!-- 1&#45;&gt;4 -->
<g id="edge1" class="edge">
<title>1&#45;&gt;4</title>
<path fill="none" stroke="blue" d="M178.81,-1298.27C178.81,-1284.71 178.81,-1268.12 178.81,-1253.31"/>
<polygon fill="blue" stroke="blue" points="182.31,-1253.42 178.81,-1243.42 175.31,-1253.42 182.31,-1253.42"/>
<text text-anchor="middle" x="213.69" y="-1273.15" font-family="Times New Roman,serif" font-size="8.00">&quot;(year % 400 != 0)&quot;</text>
<text text-anchor="middle" x="213.69" y="-1262.65" font-family="Times New Roman,serif" font-size="8.00">c[2]</text>
<text text-anchor="start" x="147.31" y="-1262.51" font-family="Times New Roman,serif" font-size="8.00" fill="darkmagenta"> &#160;13,13 &#160;&#160;</text>
</g>
<!-- 7 -->
<g id="node15" class="node">
<title>7</title>
<ellipse fill="none" stroke="black" cx="178.81" cy="-1100.95" rx="78.13" ry="27.93"/>
<text text-anchor="middle" x="178.81" y="-1098.6" font-family="Times New Roman,serif" font-size="8.00">7. if year % 4 == 0:</text>
<text text-anchor="start" x="80.43" y="-1121.29" font-family="Times New Roman,serif" font-size="8.00" fill="darkorange">13,13</text>
</g>
<!-- 4&#45;&gt;7 -->
<g id="edge17" class="edge">
<title>4&#45;&gt;7</title>
<path fill="none" stroke="blue" d="M178.81,-1185.41C178.81,-1171.85 178.81,-1155.26 178.81,-1140.45"/>
<polygon fill="blue" stroke="blue" points="182.31,-1140.56 178.81,-1130.56 175.31,-1140.56 182.31,-1140.56"/>
<text text-anchor="middle" x="213.69" y="-1160.29" font-family="Times New Roman,serif" font-size="8.00">&quot;(year % 100 != 0)&quot;</text>
<text text-anchor="middle" x="213.69" y="-1149.79" font-family="Times New Roman,serif" font-size="8.00">c[4]</text>
<text text-anchor="start" x="147.31" y="-1149.64" font-family="Times New Roman,serif" font-size="8.00" fill="darkmagenta"> &#160;13,13 &#160;&#160;</text>
</g>
<!-- 3 -->
<g id="node3" class="node">
<title>3</title>
<ellipse fill="none" stroke="black" cx="178.81" cy="-894.66" rx="131.4" ry="18"/>
<text text-anchor="middle" x="178.81" y="-892.31" font-family="Times New Roman,serif" font-size="8.00">3. if month in (1, 3, 5, 7, 8, 10, 12):</text>
<text text-anchor="start" x="27.16" y="-905.06" font-family="Times New Roman,serif" font-size="8.00" fill="darkorange">13,13</text>
</g>
<!-- 11 -->
<g id="node4" class="node">
<title>11</title>
<ellipse fill="none" stroke="black" cx="96.81" cy="-707.37" rx="85.56" ry="27.93"/>
<text text-anchor="middle" x="96.81" y="-705.02" font-family="Times New Roman,serif" font-size="8.00">11. month_length = 31</text>
<text text-anchor="start" x="0" y="-727.7" font-family="Times New Roman,serif" font-size="8.00" fill="darkorange">7,1</text>
</g>
<!-- 3&#45;&gt;11 -->
<g id="edge2" class="edge">
<title>3&#45;&gt;11</title>
<path fill="none" stroke="blue" d="M131.51,-877.56C123.25,-872.71 115.62,-866.52 110.31,-858.66 88.18,-825.89 87.45,-779.51 90.59,-746.96"/>
<polygon fill="blue" stroke="blue" points="94.05,-747.49 91.71,-737.15 87.09,-746.69 94.05,-747.49"/>
<text text-anchor="middle" x="168.56" y="-845.81" font-family="Times New Roman,serif" font-size="8.00">&quot;month in (1, 3, 5, 7, 8, 10, 12)&quot;</text>
<text text-anchor="middle" x="168.56" y="-835.31" font-family="Times New Roman,serif" font-size="8.00">c[7]</text>
<text text-anchor="start" x="69.51" y="-802.07" font-family="Times New Roman,serif" font-size="8.00" fill="darkmagenta"> &#160;7,1 &#160;&#160;</text>
</g>
<!-- 13 -->
<g id="node5" class="node">
<title>13</title>
<ellipse fill="none" stroke="black" cx="274.81" cy="-781.23" rx="68.06" ry="27.93"/>
<text text-anchor="middle" x="274.81" y="-778.88" font-family="Times New Roman,serif" font-size="8.00">13. if month == 2:</text>
<text text-anchor="start" x="191" y="-801.56" font-family="Times New Roman,serif" font-size="8.00" fill="darkorange">6,12</text>
</g>
<!-- 3&#45;&gt;13 -->
<g id="edge3" class="edge">
<title>3&#45;&gt;13</title>
<path fill="none" stroke="blue" stroke-width="3.76" d="M208.08,-876.79C215.69,-871.58 223.51,-865.42 229.81,-858.66 239.73,-848.03 248.46,-834.84 255.52,-822.42"/>
<polygon fill="blue" stroke="blue" stroke-width="3.76" points="258.43,-824.4 260.07,-813.93 252.26,-821.09 258.43,-824.4"/>
<text text-anchor="middle" x="319.69" y="-851.06" font-family="Times New Roman,serif" font-size="8.00">&quot;(month not in (1, 3, 5, 7, 8, 10, 12))&quot;</text>
<text text-anchor="middle" x="319.69" y="-840.56" font-family="Times New Roman,serif" font-size="8.00">c[8]</text>
<text text-anchor="middle" x="319.69" y="-830.06" font-family="Times New Roman,serif" font-size="8.00">Score: 0.69</text>
<text text-anchor="start" x="226.52" y="-828.26" font-family="Times New Roman,serif" font-size="8.00" fill="darkmagenta"> &#160;6,12 &#160;&#160;</text>
</g>
<!-- 12 -->
<g id="node6" class="node">
<title>12</title>
<ellipse fill="none" stroke="black" cx="309.81" cy="-402.86" rx="94.47" ry="18"/>
<text text-anchor="middle" x="309.81" y="-400.51" font-family="Times New Roman,serif" font-size="8.00">12. if day &lt; month_length:</text>
<text text-anchor="start" x="195.09" y="-413.26" font-family="Times New Roman,serif" font-size="8.00" fill="darkorange">13,13</text>
</g>
<!-- 11&#45;&gt;12 -->
<g id="edge4" class="edge">
<title>11&#45;&gt;12</title>
<path fill="none" stroke="blue" d="M87.57,-679.37C72.42,-629.67 48.79,-522.85 99.81,-457.86 115.29,-438.14 171.5,-424.32 221.87,-415.6"/>
<polygon fill="blue" stroke="blue" points="222.4,-419.06 231.68,-413.96 221.24,-412.16 222.4,-419.06"/>
<text text-anchor="start" x="77.31" y="-450.25" font-family="Times New Roman,serif" font-size="8.00" fill="darkmagenta"> &#160;7,1 &#160;&#160;</text>
</g>
<!-- 14 -->
<g id="node11" class="node">
<title>14</title>
<ellipse fill="none" stroke="black" cx="274.81" cy="-633.51" rx="59.04" ry="27.93"/>
<text text-anchor="middle" x="274.81" y="-631.16" font-family="Times New Roman,serif" font-size="8.00">14. if leap_year:</text>
<text text-anchor="start" x="200.02" y="-653.84" font-family="Times New Roman,serif" font-size="8.00" fill="darkorange">2,12</text>
</g>
<!-- 13&#45;&gt;14 -->
<g id="edge10" class="edge">
<title>13&#45;&gt;14</title>
<path fill="none" stroke="blue" stroke-width="4.16" d="M274.81,-752.82C274.81,-731.65 274.81,-701.97 274.81,-677.62"/>
<polygon fill="blue" stroke="blue" stroke-width="4.16" points="278.45,-677.88 274.81,-667.88 271.17,-677.88 278.45,-677.88"/>
<text text-anchor="middle" x="299.19" y="-715.52" font-family="Times New Roman,serif" font-size="8.00">&quot;month == 2&quot;</text>
<text text-anchor="middle" x="299.19" y="-705.02" font-family="Times New Roman,serif" font-size="8.00">c[9]</text>
<text text-anchor="middle" x="299.19" y="-694.52" font-family="Times New Roman,serif" font-size="8.00">Score: 0.79</text>
<text text-anchor="start" x="247.81" y="-699.55" font-family="Times New Roman,serif" font-size="8.00" fill="darkmagenta"> &#160;2,12 &#160;&#160;</text>
</g>
<!-- 16 -->
<g id="node12" class="node">
<title>16</title>
<ellipse fill="none" stroke="black" cx="476.81" cy="-559.65" rx="85.56" ry="27.93"/>
<text text-anchor="middle" x="476.81" y="-557.3" font-family="Times New Roman,serif" font-size="8.00">16. month_length = 30</text>
<text text-anchor="start" x="380" y="-579.98" font-family="Times New Roman,serif" font-size="8.00" fill="darkorange">4,0</text>
</g>
<!-- 13&#45;&gt;16 -->
<g id="edge11" class="edge">
<title>13&#45;&gt;16</title>
<path fill="none" stroke="#429e6a" d="M305.27,-755.86C312.85,-749.4 320.81,-742.29 327.81,-735.3 373.35,-689.91 420.67,-632.36 449.43,-596.01"/>
<polygon fill="#429e6a" stroke="#429e6a" points="451.96,-598.46 455.4,-588.44 446.46,-594.13 451.96,-598.46"/>
<text text-anchor="middle" x="403.44" y="-710.27" font-family="Times New Roman,serif" font-size="8.00">&quot;(month != 2)&quot;</text>
<text text-anchor="middle" x="403.44" y="-699.77" font-family="Times New Roman,serif" font-size="8.00">c[12]</text>
<text text-anchor="start" x="361.86" y="-666.85" font-family="Times New Roman,serif" font-size="8.00" fill="darkmagenta"> &#160;4,0 &#160;&#160;</text>
</g>
<!-- 20 -->
<g id="node7" class="node">
<title>20</title>
<ellipse fill="none" stroke="black" cx="266.81" cy="-193.29" rx="53.74" ry="27.93"/>
<text text-anchor="middle" x="266.81" y="-190.94" font-family="Times New Roman,serif" font-size="8.00">20. day += 1</text>
<text text-anchor="start" x="197.32" y="-213.62" font-family="Times New Roman,serif" font-size="8.00" fill="darkorange">13,1</text>
</g>
<!-- 12&#45;&gt;20 -->
<g id="edge5" class="edge">
<title>12&#45;&gt;20</title>
<path fill="none" stroke="blue" d="M274.76,-385.8C267.57,-380.8 260.94,-374.53 256.81,-366.86 234.2,-324.82 243.54,-268.41 253.86,-231.71"/>
<polygon fill="blue" stroke="blue" points="257.12,-233.03 256.63,-222.44 250.42,-231.02 257.12,-233.03"/>
<text text-anchor="middle" x="295.81" y="-354.01" font-family="Times New Roman,serif" font-size="8.00">&quot;day &lt; month_length&quot;</text>
<text text-anchor="middle" x="295.81" y="-343.51" font-family="Times New Roman,serif" font-size="8.00">c[13]</text>
<text text-anchor="start" x="215.87" y="-295.87" font-family="Times New Roman,serif" font-size="8.00" fill="darkmagenta"> &#160;13,1 &#160;&#160;</text>
</g>
<!-- 22 -->
<g id="node8" class="node">
<title>22</title>
<ellipse fill="none" stroke="black" cx="360.81" cy="-278.29" rx="72.83" ry="39.07"/>
<text text-anchor="middle" x="360.81" y="-281.19" font-family="Times New Roman,serif" font-size="8.00">22. day = 1</text>
<text text-anchor="middle" x="360.81" y="-270.69" font-family="Times New Roman,serif" font-size="8.00">if month == 12:</text>
<text text-anchor="start" x="272.23" y="-309.76" font-family="Times New Roman,serif" font-size="8.00" fill="darkorange">0,12</text>
</g>
<!-- 12&#45;&gt;22 -->
<g id="edge6" class="edge">
<title>12&#45;&gt;22</title>
<path fill="none" stroke="red" stroke-width="4.84" d="M326.53,-384.78C331.06,-379.4 335.6,-373.19 338.81,-366.86 344.06,-356.5 348.11,-344.8 351.22,-333.41"/>
<polygon fill="red" stroke="red" stroke-width="4.84" points="355.34,-334.42 353.56,-323.71 347.1,-332.44 355.34,-334.42"/>
<text text-anchor="middle" x="394.06" y="-359.26" font-family="Times New Roman,serif" font-size="8.00">&quot;(day &gt;= month_length)&quot;</text>
<text text-anchor="middle" x="394.06" y="-348.76" font-family="Times New Roman,serif" font-size="8.00">c[14]</text>
<text text-anchor="middle" x="394.06" y="-338.26" font-family="Times New Roman,serif" font-size="8.00">Score: 0.96</text>
<text text-anchor="start" x="324.59" y="-335.06" font-family="Times New Roman,serif" font-size="8.00" fill="darkmagenta"> &#160;0,12 &#160;&#160;</text>
</g>
<!-- 21 -->
<g id="node9" class="node">
<title>21</title>
<ellipse fill="none" stroke="black" cx="282.81" cy="-36.5" rx="96.97" ry="18"/>
<text text-anchor="middle" x="282.81" y="-34.15" font-family="Times New Roman,serif" font-size="8.00">21. return day, month, year</text>
<text text-anchor="start" x="165.59" y="-46.9" font-family="Times New Roman,serif" font-size="8.00" fill="darkorange">13,13</text>
</g>
<!-- 20&#45;&gt;21 -->
<g id="edge7" class="edge">
<title>20&#45;&gt;21</title>
<path fill="none" stroke="blue" d="M269.63,-164.97C272.51,-137.18 276.94,-94.28 279.86,-66.05"/>
<polygon fill="blue" stroke="blue" points="283.31,-66.75 280.85,-56.44 276.34,-66.03 283.31,-66.75"/>
<text text-anchor="start" x="248.33" y="-102.26" font-family="Times New Roman,serif" font-size="8.00" fill="darkmagenta"> &#160;13,1 &#160;&#160;</text>
</g>
<!-- 25 -->
<g id="node10" class="node">
<title>25</title>
<ellipse fill="none" stroke="black" cx="358.81" cy="-119.43" rx="57.98" ry="27.93"/>
<text text-anchor="middle" x="358.81" y="-117.08" font-family="Times New Roman,serif" font-size="8.00">25. month += 1</text>
<text text-anchor="start" x="285.08" y="-139.76" font-family="Times New Roman,serif" font-size="8.00" fill="darkorange">0,12</text>
</g>
<!-- 22&#45;&gt;25 -->
<g id="edge8" class="edge">
<title>22&#45;&gt;25</title>
<path fill="none" stroke="red" stroke-width="5" d="M360.32,-238.92C360.03,-216.15 359.66,-187.22 359.36,-163.64"/>
<polygon fill="red" stroke="red" stroke-width="5" points="363.74,-163.77 359.24,-153.83 354.99,-163.88 363.74,-163.77"/>
<text text-anchor="middle" x="388.69" y="-201.44" font-family="Times New Roman,serif" font-size="8.00">&quot;(month != 12)&quot;</text>
<text text-anchor="middle" x="388.69" y="-190.94" font-family="Times New Roman,serif" font-size="8.00">c[16]</text>
<text text-anchor="middle" x="388.69" y="-180.44" font-family="Times New Roman,serif" font-size="8.00">Score: 1.0</text>
<text text-anchor="start" x="332.74" y="-186.04" font-family="Times New Roman,serif" font-size="8.00" fill="darkmagenta"> &#160;0,12 &#160;&#160;</text>
</g>
<!-- 25&#45;&gt;21 -->
<g id="edge9" class="edge">
<title>25&#45;&gt;21</title>
<path fill="none" stroke="red" d="M335.6,-93.71C326.41,-83.93 315.86,-72.7 306.62,-62.86"/>
<polygon fill="red" stroke="red" points="309.34,-60.64 299.94,-55.74 304.24,-65.43 309.34,-60.64"/>
<text text-anchor="start" x="290.2" y="-66.52" font-family="Times New Roman,serif" font-size="8.00" fill="darkmagenta"> &#160;0,12 &#160;&#160;</text>
</g>
<!-- 17 -->
<g id="node13" class="node">
<title>17</title>
<ellipse fill="none" stroke="black" cx="194.81" cy="-485.79" rx="85.56" ry="27.93"/>
<text text-anchor="middle" x="194.81" y="-483.44" font-family="Times New Roman,serif" font-size="8.00">17. month_length = 29</text>
<text text-anchor="start" x="98" y="-506.12" font-family="Times New Roman,serif" font-size="8.00" fill="darkorange">2,0</text>
</g>
<!-- 14&#45;&gt;17 -->
<g id="edge12" class="edge">
<title>14&#45;&gt;17</title>
<path fill="none" stroke="#429e6a" d="M259.03,-606.51C255.36,-600.34 251.53,-593.75 248.06,-587.58 236.29,-566.61 223.7,-542.84 213.72,-523.66"/>
<polygon fill="#429e6a" stroke="#429e6a" points="216.86,-522.13 209.16,-514.86 210.65,-525.35 216.86,-522.13"/>
<text text-anchor="middle" x="264.69" y="-562.55" font-family="Times New Roman,serif" font-size="8.00">leap_year</text>
<text text-anchor="middle" x="264.69" y="-552.05" font-family="Times New Roman,serif" font-size="8.00">c[10]</text>
<text text-anchor="start" x="210.76" y="-553.02" font-family="Times New Roman,serif" font-size="8.00" fill="darkmagenta"> &#160;2,0 &#160;&#160;</text>
</g>
<!-- 19 -->
<g id="node14" class="node">
<title>19</title>
<ellipse fill="none" stroke="black" cx="378.81" cy="-485.79" rx="80.79" ry="27.93"/>
<text text-anchor="middle" x="378.81" y="-483.44" font-family="Times New Roman,serif" font-size="8.00">19. month_length = 5</text>
<text text-anchor="start" x="282.27" y="-506.12" font-family="Times New Roman,serif" font-size="8.00" fill="darkorange">0,12</text>
</g>
<!-- 14&#45;&gt;19 -->
<g id="edge13" class="edge">
<title>14&#45;&gt;19</title>
<path fill="none" stroke="red" stroke-width="5" d="M282.85,-605.72C290.22,-584.2 302.67,-553.99 320.31,-531.72 323.14,-528.14 326.32,-524.69 329.69,-521.4"/>
<polygon fill="red" stroke="red" stroke-width="5" points="332.37,-524.87 336.99,-514.99 326.59,-518.3 332.37,-524.87"/>
<text text-anchor="middle" x="350.56" y="-567.8" font-family="Times New Roman,serif" font-size="8.00">&quot;(not leap_year)&quot;</text>
<text text-anchor="middle" x="350.56" y="-557.3" font-family="Times New Roman,serif" font-size="8.00">c[11]</text>
<text text-anchor="middle" x="350.56" y="-546.8" font-family="Times New Roman,serif" font-size="8.00">Score: 1.0</text>
<text text-anchor="start" x="291.79" y="-536.32" font-family="Times New Roman,serif" font-size="8.00" fill="darkmagenta"> &#160;0,12 &#160;&#160;</text>
</g>
<!-- 16&#45;&gt;12 -->
<g id="edge16" class="edge">
<title>16&#45;&gt;12</title>
<path fill="none" stroke="#429e6a" d="M482.21,-531.36C484.95,-509.26 484.87,-478.5 468.81,-457.86 452.21,-436.52 426.76,-423.55 401.06,-415.7"/>
<polygon fill="#429e6a" stroke="#429e6a" points="402.09,-412.35 391.52,-413.04 400.21,-419.09 402.09,-412.35"/>
<text text-anchor="start" x="437.01" y="-439.98" font-family="Times New Roman,serif" font-size="8.00" fill="darkmagenta"> &#160;4,0 &#160;&#160;</text>
</g>
<!-- 17&#45;&gt;12 -->
<g id="edge14" class="edge">
<title>17&#45;&gt;12</title>
<path fill="none" stroke="#429e6a" d="M229.94,-460.07C244.79,-449.62 261.99,-437.51 276.62,-427.21"/>
<polygon fill="#429e6a" stroke="#429e6a" points="278.41,-430.23 284.58,-421.62 274.38,-424.51 278.41,-430.23"/>
<text text-anchor="start" x="235.35" y="-432.83" font-family="Times New Roman,serif" font-size="8.00" fill="darkmagenta"> &#160;2,0 &#160;&#160;</text>
</g>
<!-- 19&#45;&gt;12 -->
<g id="edge15" class="edge">
<title>19&#45;&gt;12</title>
<path fill="none" stroke="red" d="M356.6,-458.73C348.6,-449.35 339.58,-438.78 331.62,-429.43"/>
<polygon fill="red" stroke="red" points="334.5,-427.42 325.35,-422.08 329.17,-431.96 334.5,-427.42"/>
<text text-anchor="start" x="313.52" y="-432.27" font-family="Times New Roman,serif" font-size="8.00" fill="darkmagenta"> &#160;0,12 &#160;&#160;</text>
</g>
<!-- 8 -->
<g id="node16" class="node">
<title>8</title>
<ellipse fill="none" stroke="black" cx="90.81" cy="-977.59" rx="78.67" ry="27.93"/>
<text text-anchor="middle" x="90.81" y="-975.24" font-family="Times New Roman,serif" font-size="8.00">8. leap_year = True</text>
<text text-anchor="start" x="0.89" y="-997.92" font-family="Times New Roman,serif" font-size="8.00" fill="darkorange">2,0</text>
</g>
<!-- 7&#45;&gt;8 -->
<g id="edge18" class="edge">
<title>7&#45;&gt;8</title>
<path fill="none" stroke="#429e6a" d="M159.72,-1073.62C147.09,-1056.21 130.38,-1033.17 116.58,-1014.13"/>
<polygon fill="#429e6a" stroke="#429e6a" points="119.46,-1012.14 110.76,-1006.1 113.79,-1016.25 119.46,-1012.14"/>
<text text-anchor="middle" x="173.94" y="-1042.17" font-family="Times New Roman,serif" font-size="8.00">&quot;year % 4 == 0&quot;</text>
<text text-anchor="middle" x="173.94" y="-1031.67" font-family="Times New Roman,serif" font-size="8.00">c[5]</text>
<text text-anchor="start" x="112.22" y="-1031.55" font-family="Times New Roman,serif" font-size="8.00" fill="darkmagenta"> &#160;2,0 &#160;&#160;</text>
</g>
<!-- 10 -->
<g id="node17" class="node">
<title>10</title>
<ellipse fill="none" stroke="black" cx="267.81" cy="-977.59" rx="80.79" ry="27.93"/>
<text text-anchor="middle" x="267.81" y="-975.24" font-family="Times New Roman,serif" font-size="8.00">10. leap_year = False</text>
<text text-anchor="start" x="166.77" y="-997.92" font-family="Times New Roman,serif" font-size="8.00" fill="darkorange">11,13</text>
</g>
<!-- 7&#45;&gt;10 -->
<g id="edge19" class="edge">
<title>7&#45;&gt;10</title>
<path fill="none" stroke="blue" stroke-width="3.44" d="M198.12,-1073.62C210.25,-1057.08 226.1,-1035.47 239.62,-1017.03"/>
<polygon fill="blue" stroke="blue" stroke-width="3.44" points="242.37,-1019.21 245.46,-1009.07 236.72,-1015.07 242.37,-1019.21"/>
<text text-anchor="middle" x="264.19" y="-1047.42" font-family="Times New Roman,serif" font-size="8.00">&quot;(year % 4 != 0)&quot;</text>
<text text-anchor="middle" x="264.19" y="-1036.92" font-family="Times New Roman,serif" font-size="8.00">c[6]</text>
<text text-anchor="middle" x="264.19" y="-1026.42" font-family="Times New Roman,serif" font-size="8.00">Score: 0.61</text>
<text text-anchor="start" x="199.79" y="-1021.04" font-family="Times New Roman,serif" font-size="8.00" fill="darkmagenta"> &#160;11,13 &#160;&#160;</text>
</g>
<!-- 8&#45;&gt;3 -->
<g id="edge20" class="edge">
<title>8&#45;&gt;3</title>
<path fill="none" stroke="#429e6a" d="M118.65,-950.99C129.2,-941.29 141.18,-930.27 151.66,-920.64"/>
<polygon fill="#429e6a" stroke="#429e6a" points="153.94,-923.3 158.93,-913.95 149.2,-918.14 153.94,-923.3"/>
<text text-anchor="start" x="116.89" y="-924.32" font-family="Times New Roman,serif" font-size="8.00" fill="darkmagenta"> &#160;2,0 &#160;&#160;</text>
</g>
<!-- 10&#45;&gt;3 -->
<g id="edge21" class="edge">
<title>10&#45;&gt;3</title>
<path fill="none" stroke="blue" d="M239.65,-950.99C228.99,-941.29 216.87,-930.27 206.27,-920.64"/>
<polygon fill="blue" stroke="blue" points="208.67,-918.08 198.91,-913.94 203.96,-923.26 208.67,-918.08"/>
<text text-anchor="start" x="187.18" y="-924.32" font-family="Times New Roman,serif" font-size="8.00" fill="darkmagenta"> &#160;11,13 &#160;&#160;</text>
</g>
</g>
</svg>
