<?xml version="1.0" encoding="UTF-8" standalone="no"?>
<!DOCTYPE svg PUBLIC "-//W3C//DTD SVG 1.1//EN"
 "http://www.w3.org/Graphics/SVG/1.1/DTD/svg11.dtd">
<!-- Generated by graphviz version 10.0.1 (20240210.2158)
 -->
<!-- Pages: 1 -->
<svg width="404pt" height="136pt"
 viewBox="0.00 0.00 404.36 135.86" xmlns="http://www.w3.org/2000/svg" xmlns:xlink="http://www.w3.org/1999/xlink">
<g id="graph0" class="graph" transform="scale(1 1) rotate(0) translate(4 131.86)">
<polygon fill="white" stroke="none" points="-4,4 -4,-131.86 400.36,-131.86 400.36,4 -4,4"/>
<!-- multiply.multiply -->
<g id="node1" class="node">
<title>multiply.multiply</title>
<g id="a_node1"><a xlink:href="simp_fault_report.html#multiply" xlink:title="multiply.multiply">
<ellipse fill="none" stroke="black" stroke-width="2" cx="200.97" cy="-109.86" rx="72.02" ry="18"/>
<text text-anchor="middle" x="200.97" y="-104.44" font-family="Times New Roman,serif" font-size="14.00">multiply.multiply</text>
</a>
</g>
</g>
<!-- multiply.multiply_rxy_z -->
<g id="node2" class="node">
<title>multiply.multiply_rxy_z</title>
<g id="a_node2"><a xlink:href="simp_fault_report.html#multiply_rxy_z" xlink:title="multiply.multiply_rxy_z">
<ellipse fill="none" stroke="black" stroke-width="2" cx="97.97" cy="-27.93" rx="97.97" ry="18"/>
<text text-anchor="middle" x="97.97" y="-22.51" font-family="Times New Roman,serif" font-size="14.00">multiply.multiply_rxy_z</text>
</a>
</g>
</g>
<!-- multiply.multiply&#45;&gt;multiply.multiply_rxy_z -->
<g id="edge1" class="edge">
<title>multiply.multiply&#45;&gt;multiply.multiply_rxy_z</title>
<path fill="none" stroke="black" d="M179.13,-91.91C164.71,-80.72 145.6,-65.89 129.54,-53.43"/>
<polygon fill="black" stroke="black" points="131.74,-50.7 121.69,-47.34 127.44,-56.23 131.74,-50.7"/>
</g>
<!-- multiply.multiply_xy -->
<g id="node3" class="node">
<title>multiply.multiply_xy</title>
<g id="a_node3"><a xlink:href="simp_fault_report.html#multiply_xy" xlink:title="multiply.multiply_xy\nMax Score: 0.71">
<ellipse fill="none" stroke="red" stroke-width="2" cx="304.97" cy="-27.93" rx="91.39" ry="27.93"/>
<text text-anchor="middle" x="304.97" y="-30.38" font-family="Times New Roman,serif" font-size="14.00">multiply.multiply_xy</text>
<text text-anchor="middle" x="304.97" y="-14.63" font-family="Times New Roman,serif" font-size="14.00">Max Score: 0.71</text>
</a>
</g>
</g>
<!-- multiply.multiply&#45;&gt;multiply.multiply_xy -->
<g id="edge2" class="edge">
<title>multiply.multiply&#45;&gt;multiply.multiply_xy</title>
<path fill="none" stroke="black" d="M223.03,-91.91C234.57,-83.04 249.1,-71.87 262.7,-61.41"/>
<polygon fill="black" stroke="black" points="264.48,-64.47 270.27,-55.6 260.21,-58.92 264.48,-64.47"/>
</g>
</g>
</svg>
