<?xml version="1.0" encoding="UTF-8" standalone="no"?>
<!DOCTYPE svg PUBLIC "-//W3C//DTD SVG 1.1//EN"
 "http://www.w3.org/Graphics/SVG/1.1/DTD/svg11.dtd">
<!-- Generated by graphviz version 10.0.1 (20240210.2158)
 -->
<!-- Title: clustermultiply_xy Pages: 1 -->
<svg width="358pt" height="588pt"
 viewBox="0.00 0.00 357.56 587.94" xmlns="http://www.w3.org/2000/svg" xmlns:xlink="http://www.w3.org/1999/xlink">
<g id="graph0" class="graph" transform="scale(1 1) rotate(0) translate(4 583.94)">
<title>clustermultiply_xy</title>
<polygon fill="white" stroke="none" points="-4,4 -4,-583.94 353.56,-583.94 353.56,4 -4,4"/>
<text text-anchor="middle" x="174.78" y="-6.9" font-family="Times New Roman,serif" font-size="8.00">multiply_xy</text>
<!-- 1 -->
<g id="node1" class="node">
<title>1</title>
<ellipse fill="none" stroke="black" cx="199.57" cy="-541.51" rx="88.21" ry="27.93"/>
<text text-anchor="middle" x="199.57" y="-539.16" font-family="Times New Roman,serif" font-size="8.00">1. if x == 0 or y == 0:</text>
<text text-anchor="start" x="100.11" y="-561.84" font-family="Times New Roman,serif" font-size="8.00" fill="darkorange">4,4</text>
</g>
<!-- 2 -->
<g id="node2" class="node">
<title>2</title>
<ellipse fill="none" stroke="black" cx="155.57" cy="-428.65" rx="48.97" ry="27.93"/>
<text text-anchor="middle" x="155.57" y="-426.3" font-family="Times New Roman,serif" font-size="8.00">2. return 0</text>
<text text-anchor="start" x="95.35" y="-448.98" font-family="Times New Roman,serif" font-size="8.00" fill="darkorange">0,0</text>
</g>
<!-- 1&#45;&gt;2 -->
<g id="edge1" class="edge">
<title>1&#45;&gt;2</title>
<path fill="none" stroke="black" d="M175.98,-514.36C171.75,-508.52 167.82,-502.11 165.07,-495.58 161.47,-487.04 159.19,-477.39 157.76,-468.15"/>
<polygon fill="black" stroke="black" points="161.24,-467.79 156.55,-458.29 154.29,-468.65 161.24,-467.79"/>
<text text-anchor="middle" x="197.82" y="-487.98" font-family="Times New Roman,serif" font-size="8.00">&quot;x == 0 or y == 0&quot;</text>
<text text-anchor="middle" x="197.82" y="-477.48" font-family="Times New Roman,serif" font-size="8.00">c[1]</text>
<text text-anchor="start" x="139.43" y="-479.27" font-family="Times New Roman,serif" font-size="8.00" fill="darkmagenta"> &#160;0,0 &#160;&#160;</text>
</g>
<!-- 3 -->
<g id="node3" class="node">
<title>3</title>
<ellipse fill="none" stroke="black" cx="260.57" cy="-428.65" rx="37.59" ry="18"/>
<text text-anchor="middle" x="260.57" y="-426.3" font-family="Times New Roman,serif" font-size="8.00">3. rxy = 0</text>
<text text-anchor="start" x="211.73" y="-439.05" font-family="Times New Roman,serif" font-size="8.00" fill="darkorange">4,4</text>
</g>
<!-- 1&#45;&gt;3 -->
<g id="edge2" class="edge">
<title>1&#45;&gt;3</title>
<path fill="none" stroke="blue" d="M218.32,-513.84C222.21,-507.93 226.15,-501.63 229.57,-495.58 236.52,-483.27 243.31,-469.14 248.76,-457.13"/>
<polygon fill="blue" stroke="blue" points="251.87,-458.75 252.73,-448.19 245.47,-455.9 251.87,-458.75"/>
<text text-anchor="middle" x="282.19" y="-482.73" font-family="Times New Roman,serif" font-size="8.00">(not (x == 0 or y == 0))</text>
<text text-anchor="start" x="231.79" y="-462.77" font-family="Times New Roman,serif" font-size="8.00" fill="darkmagenta"> &#160;4,4 &#160;&#160;</text>
</g>
<!-- 5 -->
<g id="node4" class="node">
<title>5</title>
<ellipse fill="none" stroke="black" cx="260.57" cy="-345.72" rx="88.99" ry="18"/>
<text text-anchor="middle" x="260.57" y="-343.37" font-family="Times New Roman,serif" font-size="8.00">5. for i in range(abs(x)):</text>
<text text-anchor="start" x="151.33" y="-356.12" font-family="Times New Roman,serif" font-size="8.00" fill="darkorange">17,17</text>
</g>
<!-- 3&#45;&gt;5 -->
<g id="edge3" class="edge">
<title>3&#45;&gt;5</title>
<path fill="none" stroke="blue" d="M260.57,-410.49C260.57,-400.37 260.57,-387.29 260.57,-375.61"/>
<polygon fill="blue" stroke="blue" points="264.07,-375.65 260.57,-365.65 257.07,-375.65 264.07,-375.65"/>
<text text-anchor="start" x="238.07" y="-379.81" font-family="Times New Roman,serif" font-size="8.00" fill="darkmagenta"> &#160;4,4 &#160;&#160;</text>
</g>
<!-- 6 -->
<g id="node5" class="node">
<title>6</title>
<ellipse fill="none" stroke="black" cx="146.57" cy="-242.79" rx="48.97" ry="27.93"/>
<text text-anchor="middle" x="146.57" y="-240.44" font-family="Times New Roman,serif" font-size="8.00">6. if x &gt;= 0:</text>
<text text-anchor="start" x="77.35" y="-263.12" font-family="Times New Roman,serif" font-size="8.00" fill="darkorange">13,13</text>
</g>
<!-- 5&#45;&gt;6 -->
<g id="edge4" class="edge">
<title>5&#45;&gt;6</title>
<path fill="none" stroke="blue" d="M229.94,-328.4C220.96,-322.99 211.4,-316.59 203.32,-309.72 192.26,-300.32 181.51,-288.69 172.39,-277.83"/>
<polygon fill="blue" stroke="blue" points="175.13,-275.65 166.1,-270.12 169.71,-280.08 175.13,-275.65"/>
<text text-anchor="middle" x="230.19" y="-302.12" font-family="Times New Roman,serif" font-size="8.00">&quot;range(abs(x))&quot;</text>
<text text-anchor="middle" x="230.19" y="-291.62" font-family="Times New Roman,serif" font-size="8.00">c[2]</text>
<text text-anchor="start" x="163.09" y="-294.22" font-family="Times New Roman,serif" font-size="8.00" fill="darkmagenta"> &#160;13,13 &#160;&#160;</text>
</g>
<!-- 7 -->
<g id="node6" class="node">
<title>7</title>
<ellipse fill="none" stroke="black" cx="260.57" cy="-242.79" rx="46.57" ry="18"/>
<text text-anchor="middle" x="260.57" y="-240.44" font-family="Times New Roman,serif" font-size="8.00">7. return rxy</text>
<text text-anchor="start" x="202.74" y="-253.19" font-family="Times New Roman,serif" font-size="8.00" fill="darkorange">4,4</text>
</g>
<!-- 5&#45;&gt;7 -->
<g id="edge5" class="edge">
<title>5&#45;&gt;7</title>
<path fill="none" stroke="blue" d="M260.57,-327.6C260.57,-312.52 260.57,-290.25 260.57,-272.46"/>
<polygon fill="blue" stroke="blue" points="264.07,-272.51 260.57,-262.51 257.07,-272.51 264.07,-272.51"/>
<text text-anchor="start" x="260.57" y="-286.61" font-family="Times New Roman,serif" font-size="8.00" fill="darkmagenta"> &#160;4,4 &#160;&#160;</text>
</g>
<!-- 8 -->
<g id="node7" class="node">
<title>8</title>
<ellipse fill="none" stroke="black" cx="79.57" cy="-119.43" rx="63.82" ry="27.93"/>
<text text-anchor="middle" x="79.57" y="-117.08" font-family="Times New Roman,serif" font-size="8.00">8. rxy = rxy + y</text>
<text text-anchor="start" x="0" y="-139.76" font-family="Times New Roman,serif" font-size="8.00" fill="darkorange">13,7</text>
</g>
<!-- 6&#45;&gt;8 -->
<g id="edge6" class="edge">
<title>6&#45;&gt;8</title>
<path fill="none" stroke="blue" d="M132.19,-215.76C122.68,-198.52 110.06,-175.67 99.57,-156.66"/>
<polygon fill="blue" stroke="blue" points="102.78,-155.23 94.88,-148.17 96.65,-158.61 102.78,-155.23"/>
<text text-anchor="middle" x="136.57" y="-184.01" font-family="Times New Roman,serif" font-size="8.00">&quot;x &gt;= 0&quot;</text>
<text text-anchor="middle" x="136.57" y="-173.51" font-family="Times New Roman,serif" font-size="8.00">c[3]</text>
<text text-anchor="start" x="86.32" y="-173.98" font-family="Times New Roman,serif" font-size="8.00" fill="darkmagenta"> &#160;13,7 &#160;&#160;</text>
</g>
<!-- 10 -->
<g id="node8" class="node">
<title>10</title>
<ellipse fill="none" stroke="black" cx="234.57" cy="-119.43" rx="73.36" ry="27.93"/>
<text text-anchor="middle" x="234.57" y="-117.08" font-family="Times New Roman,serif" font-size="8.00">10. rxy = &#45;(rxy + y)</text>
<text text-anchor="start" x="149.96" y="-139.76" font-family="Times New Roman,serif" font-size="8.00" fill="darkorange">0,6</text>
</g>
<!-- 6&#45;&gt;10 -->
<g id="edge7" class="edge">
<title>6&#45;&gt;10</title>
<path fill="none" stroke="red" stroke-width="5" d="M164.8,-216.65C176.71,-200.22 192.51,-178.43 206.06,-159.74"/>
<polygon fill="red" stroke="red" stroke-width="5" points="209.45,-162.52 211.78,-151.85 202.37,-157.38 209.45,-162.52"/>
<text text-anchor="middle" x="221.07" y="-189.26" font-family="Times New Roman,serif" font-size="8.00">&quot;(x &lt; 0)&quot;</text>
<text text-anchor="middle" x="221.07" y="-178.76" font-family="Times New Roman,serif" font-size="8.00">c[4]</text>
<text text-anchor="middle" x="221.07" y="-168.26" font-family="Times New Roman,serif" font-size="8.00">Score: 0.71</text>
<text text-anchor="start" x="167.52" y="-174.26" font-family="Times New Roman,serif" font-size="8.00" fill="darkmagenta"> &#160;0,6 &#160;&#160;</text>
</g>
<!-- 9 -->
<g id="node9" class="node">
<title>9</title>
<ellipse fill="none" stroke="black" cx="234.57" cy="-36.5" rx="71.02" ry="18"/>
<text text-anchor="middle" x="234.57" y="-34.15" font-family="Times New Roman,serif" font-size="8.00">9. print(&#39;rxy: &#39;, rxy)</text>
<text text-anchor="start" x="143.29" y="-46.9" font-family="Times New Roman,serif" font-size="8.00" fill="darkorange">13,13</text>
</g>
<!-- 8&#45;&gt;9 -->
<g id="edge8" class="edge">
<title>8&#45;&gt;9</title>
<path fill="none" stroke="blue" d="M119.89,-97.38C142.91,-85.36 171.67,-70.34 194.63,-58.35"/>
<polygon fill="blue" stroke="blue" points="196.15,-61.51 203.39,-53.78 192.91,-55.3 196.15,-61.51"/>
<text text-anchor="start" x="135.44" y="-67.56" font-family="Times New Roman,serif" font-size="8.00" fill="darkmagenta"> &#160;13,7 &#160;&#160;</text>
</g>
<!-- 10&#45;&gt;9 -->
<g id="edge10" class="edge">
<title>10&#45;&gt;9</title>
<path fill="none" stroke="red" d="M234.57,-91.03C234.57,-83.11 234.57,-74.45 234.57,-66.44"/>
<polygon fill="red" stroke="red" points="238.07,-66.49 234.57,-56.49 231.07,-66.49 238.07,-66.49"/>
<text text-anchor="start" x="212.07" y="-65.72" font-family="Times New Roman,serif" font-size="8.00" fill="darkmagenta"> &#160;0,6 &#160;&#160;</text>
</g>
<!-- 9&#45;&gt;5 -->
<g id="edge9" class="edge">
<title>9&#45;&gt;5</title>
<path fill="none" stroke="blue" d="M272.04,-52.22C288.86,-60.94 307.03,-73.79 316.57,-91.5 354.35,-161.62 341.92,-195.21 316.57,-270.72 310.43,-289.01 297.77,-306.39 286.05,-319.7"/>
<polygon fill="blue" stroke="blue" points="283.78,-316.99 279.58,-326.71 288.93,-321.73 283.78,-316.99"/>
<text text-anchor="start" x="305.53" y="-194.96" font-family="Times New Roman,serif" font-size="8.00" fill="darkmagenta"> &#160;13,13 &#160;&#160;</text>
</g>
</g>
</svg>
