<?xml version="1.0" encoding="UTF-8" standalone="no"?>
<!DOCTYPE svg PUBLIC "-//W3C//DTD SVG 1.1//EN"
 "http://www.w3.org/Graphics/SVG/1.1/DTD/svg11.dtd">
<!-- Generated by graphviz version 10.0.1 (20240210.2158)
 -->
<!-- Title: clustermultiply_xy Pages: 1 -->
<svg width="508pt" height="516pt"
 viewBox="0.00 0.00 508.42 516.44" xmlns="http://www.w3.org/2000/svg" xmlns:xlink="http://www.w3.org/1999/xlink">
<g id="graph0" class="graph" transform="scale(1 1) rotate(0) translate(4 512.44)">
<title>clustermultiply_xy</title>
<polygon fill="white" stroke="none" points="-4,4 -4,-512.44 504.42,-512.44 504.42,4 -4,4"/>
<text text-anchor="middle" x="250.21" y="-5.75" font-family="Times New Roman,serif" font-size="10.00">multiply_xy</text>
<!-- 1 -->
<g id="node1" class="node">
<title>1</title>
<ellipse fill="none" stroke="black" cx="215.06" cy="-469.26" rx="88.21" ry="27.93"/>
<text text-anchor="middle" x="215.06" y="-465.39" font-family="Times New Roman,serif" font-size="10.00">1. if x == 0 or y == 0:</text>
<text text-anchor="start" x="115.6" y="-487.69" font-family="Times New Roman,serif" font-size="10.00" fill="darkorange">4,4</text>
</g>
<!-- 2 -->
<g id="node2" class="node">
<title>2</title>
<ellipse fill="none" stroke="black" cx="171.06" cy="-356.4" rx="48.97" ry="27.93"/>
<text text-anchor="middle" x="171.06" y="-352.53" font-family="Times New Roman,serif" font-size="10.00">2. return 0</text>
<text text-anchor="start" x="110.84" y="-374.83" font-family="Times New Roman,serif" font-size="10.00" fill="darkorange">0,0</text>
</g>
<!-- 1&#45;&gt;2 -->
<g id="edge1" class="edge">
<title>1&#45;&gt;2</title>
<path fill="none" stroke="black" d="M191.48,-442.11C187.25,-436.27 183.31,-429.86 180.56,-423.33 176.96,-414.79 174.68,-405.14 173.25,-395.9"/>
<polygon fill="black" stroke="black" points="176.74,-395.54 172.05,-386.04 169.79,-396.4 176.74,-395.54"/>
<text text-anchor="middle" x="213.31" y="-415.73" font-family="Times New Roman,serif" font-size="8.00">&quot;x == 0 or y == 0&quot;</text>
<text text-anchor="middle" x="213.31" y="-405.23" font-family="Times New Roman,serif" font-size="8.00">c[1]</text>
<text text-anchor="start" x="150.43" y="-407.02" font-family="Times New Roman,serif" font-size="8.00" fill="darkmagenta"> &#160;&#160;&#160;&#160;0,0 &#160;</text>
</g>
<!-- 3 -->
<g id="node3" class="node">
<title>3</title>
<ellipse fill="none" stroke="black" cx="276.06" cy="-356.4" rx="37.59" ry="18"/>
<text text-anchor="middle" x="276.06" y="-352.53" font-family="Times New Roman,serif" font-size="10.00">3. rxy = 0</text>
<text text-anchor="start" x="227.22" y="-364.9" font-family="Times New Roman,serif" font-size="10.00" fill="darkorange">4,4</text>
</g>
<!-- 1&#45;&gt;3 -->
<g id="edge2" class="edge">
<title>1&#45;&gt;3</title>
<path fill="none" stroke="blue" d="M233.82,-441.59C237.7,-435.68 241.65,-429.38 245.06,-423.33 252.01,-411.02 258.81,-396.89 264.25,-384.88"/>
<polygon fill="blue" stroke="blue" points="267.36,-386.5 268.23,-375.94 260.97,-383.65 267.36,-386.5"/>
<text text-anchor="middle" x="297.69" y="-410.48" font-family="Times New Roman,serif" font-size="8.00">(not (x == 0 or y == 0))</text>
<text text-anchor="start" x="246.16" y="-390.52" font-family="Times New Roman,serif" font-size="8.00" fill="darkmagenta"> &#160;&#160;&#160;&#160;4,4 &#160;</text>
</g>
<!-- 5 -->
<g id="node4" class="node">
<title>5</title>
<ellipse fill="none" stroke="black" cx="276.06" cy="-273.47" rx="88.99" ry="18"/>
<text text-anchor="middle" x="276.06" y="-269.6" font-family="Times New Roman,serif" font-size="10.00">5. for i in range(abs(x)):</text>
<text text-anchor="start" x="166.82" y="-281.97" font-family="Times New Roman,serif" font-size="10.00" fill="darkorange">17,17</text>
</g>
<!-- 3&#45;&gt;5 -->
<g id="edge3" class="edge">
<title>3&#45;&gt;5</title>
<path fill="none" stroke="blue" d="M276.06,-338.24C276.06,-328.12 276.06,-315.04 276.06,-303.36"/>
<polygon fill="blue" stroke="blue" points="279.56,-303.4 276.06,-293.4 272.56,-303.4 279.56,-303.4"/>
<text text-anchor="start" x="249.06" y="-307.56" font-family="Times New Roman,serif" font-size="8.00" fill="darkmagenta"> &#160;&#160;&#160;&#160;4,4 &#160;</text>
</g>
<!-- 6 -->
<g id="node5" class="node">
<title>6</title>
<ellipse fill="none" stroke="black" cx="384.06" cy="-170.54" rx="48.97" ry="27.93"/>
<text text-anchor="middle" x="384.06" y="-166.67" font-family="Times New Roman,serif" font-size="10.00">6. if x &gt;= 0:</text>
<text text-anchor="start" x="314.84" y="-188.97" font-family="Times New Roman,serif" font-size="10.00" fill="darkorange">13,13</text>
</g>
<!-- 5&#45;&gt;6 -->
<g id="edge4" class="edge">
<title>5&#45;&gt;6</title>
<path fill="none" stroke="blue" d="M293.9,-255.81C309.38,-241.34 332.2,-220.01 351.01,-202.43"/>
<polygon fill="blue" stroke="blue" points="353.31,-205.07 358.23,-195.69 348.53,-199.96 353.31,-205.07"/>
<text text-anchor="middle" x="359.69" y="-229.87" font-family="Times New Roman,serif" font-size="8.00">&quot;range(abs(x))&quot;</text>
<text text-anchor="middle" x="359.69" y="-219.37" font-family="Times New Roman,serif" font-size="8.00">c[2]</text>
<text text-anchor="start" x="290.39" y="-217.84" font-family="Times New Roman,serif" font-size="8.00" fill="darkmagenta"> &#160;&#160;&#160;&#160;13,13 &#160;</text>
</g>
<!-- 7 -->
<g id="node6" class="node">
<title>7</title>
<ellipse fill="none" stroke="black" cx="168.06" cy="-170.54" rx="149.2" ry="27.93"/>
<text text-anchor="middle" x="168.06" y="-172.29" font-family="Times New Roman,serif" font-size="10.00">7. print(&#39;First Two Inputs Prod:&#39;, rxy)</text>
<text text-anchor="middle" x="168.06" y="-161.04" font-family="Times New Roman,serif" font-size="10.00">return rxy</text>
<text text-anchor="start" x="7.61" y="-188.97" font-family="Times New Roman,serif" font-size="10.00" fill="darkorange">4,4</text>
</g>
<!-- 5&#45;&gt;7 -->
<g id="edge5" class="edge">
<title>5&#45;&gt;7</title>
<path fill="none" stroke="blue" d="M258.23,-255.81C243.68,-242.21 222.65,-222.56 204.56,-205.65"/>
<polygon fill="blue" stroke="blue" points="207.29,-203.41 197.6,-199.14 202.51,-208.53 207.29,-203.41"/>
<text text-anchor="start" x="200.43" y="-219.43" font-family="Times New Roman,serif" font-size="8.00" fill="darkmagenta"> &#160;&#160;&#160;&#160;4,4 &#160;</text>
</g>
<!-- 8 -->
<g id="node7" class="node">
<title>8</title>
<ellipse fill="none" stroke="black" cx="115.06" cy="-47.18" rx="63.82" ry="27.93"/>
<text text-anchor="middle" x="115.06" y="-43.31" font-family="Times New Roman,serif" font-size="10.00">8. rxy = rxy + y</text>
<text text-anchor="start" x="35.49" y="-65.61" font-family="Times New Roman,serif" font-size="10.00" fill="darkorange">13,7</text>
</g>
<!-- 6&#45;&gt;8 -->
<g id="edge6" class="edge">
<title>6&#45;&gt;8</title>
<path fill="none" stroke="blue" d="M346.66,-152.08C339.81,-148.91 332.73,-145.65 326.06,-142.61 273.04,-118.44 212.29,-91.31 169.63,-72.35"/>
<polygon fill="blue" stroke="blue" points="171.14,-69.19 160.58,-68.33 168.29,-75.59 171.14,-69.19"/>
<text text-anchor="middle" x="300.06" y="-111.76" font-family="Times New Roman,serif" font-size="8.00">&quot;x &gt;= 0&quot;</text>
<text text-anchor="middle" x="300.06" y="-101.26" font-family="Times New Roman,serif" font-size="8.00">c[3]</text>
<text text-anchor="start" x="221.41" y="-101.94" font-family="Times New Roman,serif" font-size="8.00" fill="darkmagenta"> &#160;&#160;&#160;&#160;13,7 &#160;</text>
</g>
<!-- 10 -->
<g id="node8" class="node">
<title>10</title>
<ellipse fill="none" stroke="black" cx="427.06" cy="-47.18" rx="73.36" ry="27.93"/>
<text text-anchor="middle" x="427.06" y="-43.31" font-family="Times New Roman,serif" font-size="10.00">10. rxy = &#45;(rxy + y)</text>
<text text-anchor="start" x="342.45" y="-65.61" font-family="Times New Roman,serif" font-size="10.00" fill="darkorange">0,6</text>
</g>
<!-- 6&#45;&gt;10 -->
<g id="edge7" class="edge">
<title>6&#45;&gt;10</title>
<path fill="none" stroke="red" stroke-width="5" d="M389.34,-142.54C392.65,-127.69 397.44,-109.1 403.56,-93.11 404.04,-91.88 404.53,-90.63 405.05,-89.38"/>
<polygon fill="red" stroke="red" stroke-width="5" points="408.96,-91.36 409.22,-80.45 401.03,-87.66 408.96,-91.36"/>
<text text-anchor="middle" x="424.81" y="-117.01" font-family="Times New Roman,serif" font-size="8.00">&quot;(x &lt; 0)&quot;</text>
<text text-anchor="middle" x="424.81" y="-106.51" font-family="Times New Roman,serif" font-size="8.00">c[4]</text>
<text text-anchor="middle" x="424.81" y="-96.01" font-family="Times New Roman,serif" font-size="8.00"> &#160;Score: 0.71</text>
<text text-anchor="start" x="371.46" y="-100.27" font-family="Times New Roman,serif" font-size="8.00" fill="darkmagenta"> &#160;&#160;&#160;&#160;0,6 &#160;</text>
</g>
<!-- 8&#45;&gt;5 -->
<g id="edge8" class="edge">
<title>8&#45;&gt;5</title>
<path fill="none" stroke="blue" d="M79.7,-70.73C37.45,-100.48 -23.54,-154.25 10.06,-198.47 32.39,-227.86 124.13,-248.67 193.68,-260.59"/>
<polygon fill="blue" stroke="blue" points="192.7,-263.98 203.14,-262.18 193.86,-257.07 192.7,-263.98"/>
<text text-anchor="start" x="91.96" y="-238.91" font-family="Times New Roman,serif" font-size="8.00" fill="darkmagenta"> &#160;&#160;&#160;&#160;13,7 &#160;</text>
</g>
<!-- 10&#45;&gt;5 -->
<g id="edge9" class="edge">
<title>10&#45;&gt;5</title>
<path fill="none" stroke="red" d="M441.02,-74.65C443.52,-80.57 445.75,-86.93 447.06,-93.11 456.81,-138.97 464.43,-157.27 442.06,-198.47 424.81,-230.25 389.74,-248.41 356.26,-258.77"/>
<polygon fill="red" stroke="red" points="355.57,-255.32 346.92,-261.45 357.5,-262.05 355.57,-255.32"/>
<text text-anchor="start" x="415.04" y="-190.92" font-family="Times New Roman,serif" font-size="8.00" fill="darkmagenta"> &#160;&#160;&#160;&#160;0,6 &#160;</text>
</g>
</g>
</svg>
