<?xml version="1.0" encoding="UTF-8" standalone="no"?>
<!DOCTYPE svg PUBLIC "-//W3C//DTD SVG 1.1//EN"
 "http://www.w3.org/Graphics/SVG/1.1/DTD/svg11.dtd">
<!-- Generated by graphviz version 10.0.1 (20240210.2158)
 -->
<!-- Title: clustermultiply2 Pages: 1 -->
<svg width="374pt" height="346pt"
 viewBox="0.00 0.00 373.71 345.55" xmlns="http://www.w3.org/2000/svg" xmlns:xlink="http://www.w3.org/1999/xlink">
<g id="graph0" class="graph" transform="scale(1 1) rotate(0) translate(4 341.55)">
<title>clustermultiply2</title>
<polygon fill="white" stroke="none" points="-4,4 -4,-341.55 369.71,-341.55 369.71,4 -4,4"/>
<text text-anchor="middle" x="182.85" y="-6.9" font-family="Times New Roman,serif" font-size="8.00">multiply2</text>
<!-- 1 -->
<g id="node1" class="node">
<title>1</title>
<ellipse fill="none" stroke="black" cx="113.78" cy="-276.84" rx="102.53" ry="50.21"/>
<text text-anchor="middle" x="113.78" y="-284.99" font-family="Times New Roman,serif" font-size="8.00">1. print(&#39;Inputs: &#39;, x, y, z)</text>
<text text-anchor="middle" x="113.78" y="-274.49" font-family="Times New Roman,serif" font-size="8.00">rxy = multiply_xy(x, y)</text>
<text text-anchor="middle" x="113.78" y="-263.99" font-family="Times New Roman,serif" font-size="8.00">if rxy == 0:</text>
<text text-anchor="start" x="0" y="-319.45" font-family="Times New Roman,serif" font-size="8.00" fill="darkorange">4,4</text>
</g>
<!-- 2 -->
<g id="node2" class="node">
<title>2</title>
<ellipse fill="none" stroke="black" cx="54.78" cy="-130.57" rx="39.09" ry="18"/>
<text text-anchor="middle" x="54.78" y="-128.22" font-family="Times New Roman,serif" font-size="8.00">2. return 0</text>
<text text-anchor="start" x="4.44" y="-140.97" font-family="Times New Roman,serif" font-size="8.00" fill="darkorange">0,0</text>
</g>
<!-- 1&#45;&gt;2 -->
<g id="edge1" class="edge">
<title>1&#45;&gt;2</title>
<path fill="none" stroke="black" d="M93.97,-227.4C84.68,-204.68 73.95,-178.43 66.06,-159.16"/>
<polygon fill="black" stroke="black" points="69.38,-158.03 62.36,-150.1 62.9,-160.68 69.38,-158.03"/>
<text text-anchor="middle" x="100.78" y="-195.78" font-family="Times New Roman,serif" font-size="8.00">rxy == 0</text>
<text text-anchor="start" x="55.41" y="-180.53" font-family="Times New Roman,serif" font-size="8.00" fill="darkmagenta"> &#160;0,0 &#160;&#160;</text>
</g>
<!-- 4 -->
<g id="node3" class="node">
<title>4</title>
<ellipse fill="none" stroke="black" cx="238.78" cy="-130.57" rx="126.93" ry="39.07"/>
<text text-anchor="middle" x="238.78" y="-133.47" font-family="Times New Roman,serif" font-size="8.00">4. rxyz = multiply_rxy_z(rxy, z)</text>
<text text-anchor="middle" x="238.78" y="-122.97" font-family="Times New Roman,serif" font-size="8.00">print(&#39;multiply done&#39;, rxyz)</text>
<text text-anchor="start" x="100.61" y="-162.03" font-family="Times New Roman,serif" font-size="8.00" fill="darkorange">4,4</text>
</g>
<!-- 1&#45;&gt;4 -->
<g id="edge2" class="edge">
<title>1&#45;&gt;4</title>
<path fill="none" stroke="blue" d="M153.33,-230.19C167.95,-213.32 184.51,-194.2 199.14,-177.32"/>
<polygon fill="blue" stroke="blue" points="201.7,-179.71 205.6,-169.86 196.41,-175.13 201.7,-179.71"/>
<text text-anchor="middle" x="207.78" y="-201.03" font-family="Times New Roman,serif" font-size="8.00">&quot;(rxy != 0)&quot;</text>
<text text-anchor="middle" x="207.78" y="-190.53" font-family="Times New Roman,serif" font-size="8.00">c[9]</text>
<text text-anchor="start" x="157.39" y="-191.94" font-family="Times New Roman,serif" font-size="8.00" fill="darkmagenta"> &#160;4,4 &#160;&#160;</text>
</g>
<!-- 3 -->
<g id="node4" class="node">
<title>3</title>
<ellipse fill="none" stroke="black" cx="238.78" cy="-36.5" rx="50.57" ry="18"/>
<text text-anchor="middle" x="238.78" y="-34.15" font-family="Times New Roman,serif" font-size="8.00">3. return rxyz</text>
<text text-anchor="start" x="176.97" y="-46.9" font-family="Times New Roman,serif" font-size="8.00" fill="darkorange">4,4</text>
</g>
<!-- 4&#45;&gt;3 -->
<g id="edge3" class="edge">
<title>4&#45;&gt;3</title>
<path fill="none" stroke="blue" d="M238.78,-91.06C238.78,-82.68 238.78,-73.96 238.78,-66.05"/>
<polygon fill="blue" stroke="blue" points="242.28,-66.33 238.78,-56.33 235.28,-66.33 242.28,-66.33"/>
<text text-anchor="start" x="216.28" y="-65.29" font-family="Times New Roman,serif" font-size="8.00" fill="darkmagenta"> &#160;4,4 &#160;&#160;</text>
</g>
</g>
</svg>
