<?xml version="1.0" encoding="UTF-8" standalone="no"?>
<!DOCTYPE svg PUBLIC "-//W3C//DTD SVG 1.1//EN"
 "http://www.w3.org/Graphics/SVG/1.1/DTD/svg11.dtd">
<!-- Generated by graphviz version 10.0.1 (20240210.2158)
 -->
<!-- Title: clustermultiply Pages: 1 -->
<svg width="374pt" height="347pt"
 viewBox="0.00 0.00 373.71 347.05" xmlns="http://www.w3.org/2000/svg" xmlns:xlink="http://www.w3.org/1999/xlink">
<g id="graph0" class="graph" transform="scale(1 1) rotate(0) translate(4 343.05)">
<title>clustermultiply</title>
<polygon fill="white" stroke="none" points="-4,4 -4,-343.05 369.71,-343.05 369.71,4 -4,4"/>
<text text-anchor="middle" x="182.85" y="-5.75" font-family="Times New Roman,serif" font-size="10.00">multiply</text>
<!-- 1 -->
<g id="node1" class="node">
<title>1</title>
<ellipse fill="none" stroke="black" cx="113.78" cy="-277.59" rx="102.53" ry="50.21"/>
<text text-anchor="middle" x="113.78" y="-284.97" font-family="Times New Roman,serif" font-size="10.00">1. print(&#39;Inputs: &#39;, x, y, z)</text>
<text text-anchor="middle" x="113.78" y="-273.72" font-family="Times New Roman,serif" font-size="10.00">rxy = multiply_xy(x, y)</text>
<text text-anchor="middle" x="113.78" y="-262.47" font-family="Times New Roman,serif" font-size="10.00">if rxy == 0:</text>
<text text-anchor="start" x="0" y="-318.3" font-family="Times New Roman,serif" font-size="10.00" fill="darkorange">4,4</text>
</g>
<!-- 2 -->
<g id="node2" class="node">
<title>2</title>
<ellipse fill="none" stroke="black" cx="54.78" cy="-131.32" rx="39.09" ry="18"/>
<text text-anchor="middle" x="54.78" y="-127.44" font-family="Times New Roman,serif" font-size="10.00">2. return 0</text>
<text text-anchor="start" x="4.44" y="-139.82" font-family="Times New Roman,serif" font-size="10.00" fill="darkorange">0,0</text>
</g>
<!-- 1&#45;&gt;2 -->
<g id="edge1" class="edge">
<title>1&#45;&gt;2</title>
<path fill="none" stroke="black" d="M93.97,-228.15C84.68,-205.43 73.95,-179.18 66.06,-159.91"/>
<polygon fill="black" stroke="black" points="69.38,-158.78 62.36,-150.85 62.9,-161.43 69.38,-158.78"/>
<text text-anchor="middle" x="100.78" y="-196.53" font-family="Times New Roman,serif" font-size="8.00">rxy == 0</text>
<text text-anchor="start" x="50.91" y="-181.28" font-family="Times New Roman,serif" font-size="8.00" fill="darkmagenta"> &#160;&#160;&#160;&#160;0,0 &#160;</text>
</g>
<!-- 4 -->
<g id="node3" class="node">
<title>4</title>
<ellipse fill="none" stroke="black" cx="238.78" cy="-131.32" rx="126.93" ry="39.07"/>
<text text-anchor="middle" x="238.78" y="-133.07" font-family="Times New Roman,serif" font-size="10.00">4. rxyz = multiply_rxy_z(rxy, z)</text>
<text text-anchor="middle" x="238.78" y="-121.82" font-family="Times New Roman,serif" font-size="10.00">print(&#39;multiply done&#39;, rxyz)</text>
<text text-anchor="start" x="100.61" y="-160.88" font-family="Times New Roman,serif" font-size="10.00" fill="darkorange">4,4</text>
</g>
<!-- 1&#45;&gt;4 -->
<g id="edge2" class="edge">
<title>1&#45;&gt;4</title>
<path fill="none" stroke="blue" d="M153.33,-230.94C167.95,-214.07 184.51,-194.95 199.14,-178.07"/>
<polygon fill="blue" stroke="blue" points="201.7,-180.46 205.6,-170.61 196.41,-175.88 201.7,-180.46"/>
<text text-anchor="middle" x="207.78" y="-201.78" font-family="Times New Roman,serif" font-size="8.00">&quot;(rxy != 0)&quot;</text>
<text text-anchor="middle" x="207.78" y="-191.28" font-family="Times New Roman,serif" font-size="8.00">c[7]</text>
<text text-anchor="start" x="152.89" y="-192.69" font-family="Times New Roman,serif" font-size="8.00" fill="darkmagenta"> &#160;&#160;&#160;&#160;4,4 &#160;</text>
</g>
<!-- 3 -->
<g id="node4" class="node">
<title>3</title>
<ellipse fill="none" stroke="black" cx="238.78" cy="-37.25" rx="50.57" ry="18"/>
<text text-anchor="middle" x="238.78" y="-33.38" font-family="Times New Roman,serif" font-size="10.00">3. return rxyz</text>
<text text-anchor="start" x="176.97" y="-45.75" font-family="Times New Roman,serif" font-size="10.00" fill="darkorange">4,4</text>
</g>
<!-- 4&#45;&gt;3 -->
<g id="edge3" class="edge">
<title>4&#45;&gt;3</title>
<path fill="none" stroke="blue" d="M238.78,-91.81C238.78,-83.43 238.78,-74.71 238.78,-66.8"/>
<polygon fill="blue" stroke="blue" points="242.28,-67.08 238.78,-57.08 235.28,-67.08 242.28,-67.08"/>
<text text-anchor="start" x="211.78" y="-66.04" font-family="Times New Roman,serif" font-size="8.00" fill="darkmagenta"> &#160;&#160;&#160;&#160;4,4 &#160;</text>
</g>
</g>
</svg>
