<?xml version="1.0" encoding="UTF-8" standalone="no"?>
<!DOCTYPE svg PUBLIC "-//W3C//DTD SVG 1.1//EN"
 "http://www.w3.org/Graphics/SVG/1.1/DTD/svg11.dtd">
<!-- Generated by graphviz version 10.0.1 (20240210.2158)
 -->
<!-- Title: clustermultiply_rxy_z Pages: 1 -->
<svg width="487pt" height="393pt"
 viewBox="0.00 0.00 486.87 393.08" xmlns="http://www.w3.org/2000/svg" xmlns:xlink="http://www.w3.org/1999/xlink">
<g id="graph0" class="graph" transform="scale(1 1) rotate(0) translate(4 389.08)">
<title>clustermultiply_rxy_z</title>
<polygon fill="white" stroke="none" points="-4,4 -4,-389.08 482.87,-389.08 482.87,4 -4,4"/>
<text text-anchor="middle" x="239.44" y="-5.75" font-family="Times New Roman,serif" font-size="10.00">multiply_rxy_z</text>
<!-- 1 -->
<g id="node1" class="node">
<title>1</title>
<ellipse fill="none" stroke="black" cx="107.22" cy="-345.9" rx="95.64" ry="27.93"/>
<text text-anchor="middle" x="107.22" y="-342.03" font-family="Times New Roman,serif" font-size="10.00">1. if rxy == 0 or z == 0:</text>
<text text-anchor="start" x="0.33" y="-364.33" font-family="Times New Roman,serif" font-size="10.00" fill="darkorange">4,4</text>
</g>
<!-- 2 -->
<g id="node2" class="node">
<title>2</title>
<ellipse fill="none" stroke="black" cx="60.22" cy="-233.04" rx="48.97" ry="27.93"/>
<text text-anchor="middle" x="60.22" y="-229.17" font-family="Times New Roman,serif" font-size="10.00">2. return 0</text>
<text text-anchor="start" x="0" y="-251.47" font-family="Times New Roman,serif" font-size="10.00" fill="darkorange">0,0</text>
</g>
<!-- 1&#45;&gt;2 -->
<g id="edge1" class="edge">
<title>1&#45;&gt;2</title>
<path fill="none" stroke="black" d="M79.82,-318.71C75.17,-312.96 70.91,-306.6 67.97,-299.97 64.22,-291.53 62.06,-281.91 60.86,-272.68"/>
<polygon fill="black" stroke="black" points="64.36,-272.45 59.95,-262.82 57.39,-273.1 64.36,-272.45"/>
<text text-anchor="middle" x="103.84" y="-292.37" font-family="Times New Roman,serif" font-size="8.00">&quot;rxy == 0 or z == 0&quot;</text>
<text text-anchor="middle" x="103.84" y="-281.87" font-family="Times New Roman,serif" font-size="8.00">c[5]</text>
<text text-anchor="start" x="37.77" y="-283.74" font-family="Times New Roman,serif" font-size="8.00" fill="darkmagenta"> &#160;&#160;&#160;&#160;0,0 &#160;</text>
</g>
<!-- 3 -->
<g id="node3" class="node">
<title>3</title>
<ellipse fill="none" stroke="black" cx="169.22" cy="-233.04" rx="41.58" ry="18"/>
<text text-anchor="middle" x="169.22" y="-229.17" font-family="Times New Roman,serif" font-size="10.00">3. rxyz = 0</text>
<text text-anchor="start" x="116.38" y="-241.54" font-family="Times New Roman,serif" font-size="10.00" fill="darkorange">4,4</text>
</g>
<!-- 1&#45;&gt;3 -->
<g id="edge2" class="edge">
<title>1&#45;&gt;3</title>
<path fill="none" stroke="blue" d="M127.37,-318.37C131.51,-312.46 135.68,-306.11 139.22,-299.97 146.24,-287.79 152.85,-273.68 158.07,-261.64"/>
<polygon fill="blue" stroke="blue" points="161.18,-263.26 161.85,-252.68 154.74,-260.53 161.18,-263.26"/>
<text text-anchor="middle" x="195.22" y="-287.12" font-family="Times New Roman,serif" font-size="8.00">(not (rxy == 0 or z == 0))</text>
<text text-anchor="start" x="139.99" y="-267.87" font-family="Times New Roman,serif" font-size="8.00" fill="darkmagenta"> &#160;&#160;&#160;&#160;4,4 &#160;</text>
</g>
<!-- 5 -->
<g id="node4" class="node">
<title>5</title>
<ellipse fill="none" stroke="black" cx="169.22" cy="-150.11" rx="88.49" ry="18"/>
<text text-anchor="middle" x="169.22" y="-146.24" font-family="Times New Roman,serif" font-size="10.00">5. for j in range(abs(z)):</text>
<text text-anchor="start" x="60.48" y="-158.61" font-family="Times New Roman,serif" font-size="10.00" fill="darkorange">16,16</text>
</g>
<!-- 3&#45;&gt;5 -->
<g id="edge3" class="edge">
<title>3&#45;&gt;5</title>
<path fill="none" stroke="blue" d="M169.22,-214.88C169.22,-204.75 169.22,-191.68 169.22,-180"/>
<polygon fill="blue" stroke="blue" points="172.72,-180.04 169.22,-170.04 165.72,-180.04 172.72,-180.04"/>
<text text-anchor="start" x="142.22" y="-184.19" font-family="Times New Roman,serif" font-size="8.00" fill="darkmagenta"> &#160;&#160;&#160;&#160;4,4 &#160;</text>
</g>
<!-- 6 -->
<g id="node5" class="node">
<title>6</title>
<ellipse fill="none" stroke="black" cx="101.22" cy="-47.18" rx="80.26" ry="27.93"/>
<text text-anchor="middle" x="101.22" y="-43.31" font-family="Times New Roman,serif" font-size="10.00">6. rxyz = rxyz + rxy</text>
<text text-anchor="start" x="0.71" y="-65.61" font-family="Times New Roman,serif" font-size="10.00" fill="darkorange">12,12</text>
</g>
<!-- 5&#45;&gt;6 -->
<g id="edge4" class="edge">
<title>5&#45;&gt;6</title>
<path fill="none" stroke="blue" d="M124.91,-134.23C116.13,-129.22 108.01,-122.65 102.72,-114.11 97.7,-106.01 95.79,-96.22 95.49,-86.68"/>
<polygon fill="blue" stroke="blue" points="98.98,-86.92 95.78,-76.83 91.99,-86.72 98.98,-86.92"/>
<text text-anchor="middle" x="129.47" y="-106.51" font-family="Times New Roman,serif" font-size="8.00">&quot;range(abs(z))&quot;</text>
<text text-anchor="middle" x="129.47" y="-96.01" font-family="Times New Roman,serif" font-size="8.00">c[6]</text>
<text text-anchor="start" x="64.21" y="-101.79" font-family="Times New Roman,serif" font-size="8.00" fill="darkmagenta"> &#160;&#160;&#160;&#160;12,12 &#160;</text>
</g>
<!-- 7 -->
<g id="node6" class="node">
<title>7</title>
<ellipse fill="none" stroke="black" cx="339.22" cy="-47.18" rx="139.65" ry="27.93"/>
<text text-anchor="middle" x="339.22" y="-48.93" font-family="Times New Roman,serif" font-size="10.00">7. print(&#39;Three Inputs Prod: &#39;, rxyz)</text>
<text text-anchor="middle" x="339.22" y="-37.68" font-family="Times New Roman,serif" font-size="10.00">return rxyz</text>
<text text-anchor="start" x="188.31" y="-65.61" font-family="Times New Roman,serif" font-size="10.00" fill="darkorange">4,4</text>
</g>
<!-- 5&#45;&gt;7 -->
<g id="edge5" class="edge">
<title>5&#45;&gt;7</title>
<path fill="none" stroke="blue" d="M196.91,-132.67C220.92,-118.42 256.34,-97.39 285.83,-79.87"/>
<polygon fill="blue" stroke="blue" points="287.47,-82.97 294.28,-74.86 283.9,-76.95 287.47,-82.97"/>
<text text-anchor="start" x="219.27" y="-95.76" font-family="Times New Roman,serif" font-size="8.00" fill="darkmagenta"> &#160;&#160;&#160;&#160;4,4 &#160;</text>
</g>
<!-- 6&#45;&gt;5 -->
<g id="edge6" class="edge">
<title>6&#45;&gt;5</title>
<path fill="none" stroke="blue" d="M137.01,-72.43C143.88,-78.49 150.42,-85.47 155.22,-93.11 160.39,-101.35 163.65,-111.38 165.71,-120.67"/>
<polygon fill="blue" stroke="blue" points="162.24,-121.14 167.46,-130.36 169.13,-119.9 162.24,-121.14"/>
<text text-anchor="start" x="158.55" y="-91.57" font-family="Times New Roman,serif" font-size="8.00" fill="darkmagenta"> &#160;&#160;&#160;&#160;12,12 &#160;</text>
</g>
</g>
</svg>
