<?xml version="1.0" encoding="UTF-8" standalone="no"?>
<!DOCTYPE svg PUBLIC "-//W3C//DTD SVG 1.1//EN"
 "http://www.w3.org/Graphics/SVG/1.1/DTD/svg11.dtd">
<!-- Generated by graphviz version 10.0.1 (20240210.2158)
 -->
<!-- Title: clustermultiply_rxy_z Pages: 1 -->
<svg width="400pt" height="588pt"
 viewBox="0.00 0.00 400.50 587.94" xmlns="http://www.w3.org/2000/svg" xmlns:xlink="http://www.w3.org/1999/xlink">
<g id="graph0" class="graph" transform="scale(1 1) rotate(0) translate(4 583.94)">
<title>clustermultiply_rxy_z</title>
<polygon fill="white" stroke="none" points="-4,4 -4,-583.94 396.5,-583.94 396.5,4 -4,4"/>
<text text-anchor="middle" x="196.25" y="-6.9" font-family="Times New Roman,serif" font-size="8.00">multiply_rxy_z</text>
<!-- 1 -->
<g id="node1" class="node">
<title>1</title>
<ellipse fill="none" stroke="black" cx="242.01" cy="-541.51" rx="95.64" ry="27.93"/>
<text text-anchor="middle" x="242.01" y="-539.16" font-family="Times New Roman,serif" font-size="8.00">1. if rxy == 0 or z == 0:</text>
<text text-anchor="start" x="135.12" y="-561.84" font-family="Times New Roman,serif" font-size="8.00" fill="darkorange">4,4</text>
</g>
<!-- 2 -->
<g id="node2" class="node">
<title>2</title>
<ellipse fill="none" stroke="black" cx="195.01" cy="-428.65" rx="48.97" ry="27.93"/>
<text text-anchor="middle" x="195.01" y="-426.3" font-family="Times New Roman,serif" font-size="8.00">2. return 0</text>
<text text-anchor="start" x="134.79" y="-448.98" font-family="Times New Roman,serif" font-size="8.00" fill="darkorange">0,0</text>
</g>
<!-- 1&#45;&gt;2 -->
<g id="edge1" class="edge">
<title>1&#45;&gt;2</title>
<path fill="none" stroke="black" d="M214.61,-514.32C209.97,-508.57 205.7,-502.21 202.76,-495.58 199.01,-487.14 196.85,-477.52 195.65,-468.29"/>
<polygon fill="black" stroke="black" points="199.15,-468.06 194.74,-458.43 192.18,-468.71 199.15,-468.06"/>
<text text-anchor="middle" x="238.63" y="-487.98" font-family="Times New Roman,serif" font-size="8.00">&quot;rxy == 0 or z == 0&quot;</text>
<text text-anchor="middle" x="238.63" y="-477.48" font-family="Times New Roman,serif" font-size="8.00">c[5]</text>
<text text-anchor="start" x="177.06" y="-479.35" font-family="Times New Roman,serif" font-size="8.00" fill="darkmagenta"> &#160;0,0 &#160;&#160;</text>
</g>
<!-- 3 -->
<g id="node3" class="node">
<title>3</title>
<ellipse fill="none" stroke="black" cx="304.01" cy="-428.65" rx="41.58" ry="18"/>
<text text-anchor="middle" x="304.01" y="-426.3" font-family="Times New Roman,serif" font-size="8.00">3. rxyz = 0</text>
<text text-anchor="start" x="251.17" y="-439.05" font-family="Times New Roman,serif" font-size="8.00" fill="darkorange">4,4</text>
</g>
<!-- 1&#45;&gt;3 -->
<g id="edge2" class="edge">
<title>1&#45;&gt;3</title>
<path fill="none" stroke="blue" d="M262.17,-513.99C266.3,-508.07 270.47,-501.72 274.01,-495.58 281.03,-483.41 287.64,-469.29 292.86,-457.26"/>
<polygon fill="blue" stroke="blue" points="295.98,-458.87 296.64,-448.29 289.53,-456.14 295.98,-458.87"/>
<text text-anchor="middle" x="330.01" y="-482.73" font-family="Times New Roman,serif" font-size="8.00">(not (rxy == 0 or z == 0))</text>
<text text-anchor="start" x="275.9" y="-463.48" font-family="Times New Roman,serif" font-size="8.00" fill="darkmagenta"> &#160;4,4 &#160;&#160;</text>
</g>
<!-- 5 -->
<g id="node4" class="node">
<title>5</title>
<ellipse fill="none" stroke="black" cx="304.01" cy="-345.72" rx="88.49" ry="18"/>
<text text-anchor="middle" x="304.01" y="-343.37" font-family="Times New Roman,serif" font-size="8.00">5. for j in range(abs(z)):</text>
<text text-anchor="start" x="195.27" y="-356.12" font-family="Times New Roman,serif" font-size="8.00" fill="darkorange">16,16</text>
</g>
<!-- 3&#45;&gt;5 -->
<g id="edge3" class="edge">
<title>3&#45;&gt;5</title>
<path fill="none" stroke="blue" d="M304.01,-410.49C304.01,-400.37 304.01,-387.29 304.01,-375.61"/>
<polygon fill="blue" stroke="blue" points="307.51,-375.65 304.01,-365.65 300.51,-375.65 307.51,-375.65"/>
<text text-anchor="start" x="281.51" y="-379.81" font-family="Times New Roman,serif" font-size="8.00" fill="darkmagenta"> &#160;4,4 &#160;&#160;</text>
</g>
<!-- 6 -->
<g id="node5" class="node">
<title>6</title>
<ellipse fill="none" stroke="black" cx="186.01" cy="-242.79" rx="48.97" ry="27.93"/>
<text text-anchor="middle" x="186.01" y="-240.44" font-family="Times New Roman,serif" font-size="8.00">6. if z &gt;= 0:</text>
<text text-anchor="start" x="116.79" y="-263.12" font-family="Times New Roman,serif" font-size="8.00" fill="darkorange">12,12</text>
</g>
<!-- 5&#45;&gt;6 -->
<g id="edge4" class="edge">
<title>5&#45;&gt;6</title>
<path fill="none" stroke="blue" d="M274.26,-328.33C265.32,-322.87 255.71,-316.46 247.51,-309.72 235.67,-300 223.9,-288.08 213.87,-277.06"/>
<polygon fill="blue" stroke="blue" points="216.5,-274.76 207.24,-269.61 211.27,-279.41 216.5,-274.76"/>
<text text-anchor="middle" x="274.26" y="-302.12" font-family="Times New Roman,serif" font-size="8.00">&quot;range(abs(z))&quot;</text>
<text text-anchor="middle" x="274.26" y="-291.62" font-family="Times New Roman,serif" font-size="8.00">c[6]</text>
<text text-anchor="start" x="206.07" y="-293.47" font-family="Times New Roman,serif" font-size="8.00" fill="darkmagenta"> &#160;12,12 &#160;&#160;</text>
</g>
<!-- 7 -->
<g id="node6" class="node">
<title>7</title>
<ellipse fill="none" stroke="black" cx="304.01" cy="-242.79" rx="50.57" ry="18"/>
<text text-anchor="middle" x="304.01" y="-240.44" font-family="Times New Roman,serif" font-size="8.00">7. return rxyz</text>
<text text-anchor="start" x="242.19" y="-253.19" font-family="Times New Roman,serif" font-size="8.00" fill="darkorange">4,4</text>
</g>
<!-- 5&#45;&gt;7 -->
<g id="edge5" class="edge">
<title>5&#45;&gt;7</title>
<path fill="none" stroke="blue" d="M304.01,-327.6C304.01,-312.52 304.01,-290.25 304.01,-272.46"/>
<polygon fill="blue" stroke="blue" points="307.51,-272.51 304.01,-262.51 300.51,-272.51 307.51,-272.51"/>
<text text-anchor="start" x="304.01" y="-286.61" font-family="Times New Roman,serif" font-size="8.00" fill="darkmagenta"> &#160;4,4 &#160;&#160;</text>
</g>
<!-- 8 -->
<g id="node7" class="node">
<title>8</title>
<ellipse fill="none" stroke="black" cx="96.01" cy="-119.43" rx="80.26" ry="27.93"/>
<text text-anchor="middle" x="96.01" y="-117.08" font-family="Times New Roman,serif" font-size="8.00">8. rxyz = rxyz + rxy</text>
<text text-anchor="start" x="0" y="-139.76" font-family="Times New Roman,serif" font-size="8.00" fill="darkorange">12,6</text>
</g>
<!-- 6&#45;&gt;8 -->
<g id="edge6" class="edge">
<title>6&#45;&gt;8</title>
<path fill="none" stroke="blue" d="M167.36,-216.65C154.35,-199.1 136.81,-175.45 122.37,-155.98"/>
<polygon fill="blue" stroke="blue" points="125.24,-153.97 116.47,-148.02 119.61,-158.14 125.24,-153.97"/>
<text text-anchor="middle" x="166.63" y="-184.01" font-family="Times New Roman,serif" font-size="8.00">&quot;z &gt;= 0&quot;</text>
<text text-anchor="middle" x="166.63" y="-173.51" font-family="Times New Roman,serif" font-size="8.00">c[7]</text>
<text text-anchor="start" x="114.36" y="-173.98" font-family="Times New Roman,serif" font-size="8.00" fill="darkmagenta"> &#160;12,6 &#160;&#160;</text>
</g>
<!-- 10 -->
<g id="node8" class="node">
<title>10</title>
<ellipse fill="none" stroke="black" cx="275.01" cy="-119.43" rx="80.26" ry="27.93"/>
<text text-anchor="middle" x="275.01" y="-117.08" font-family="Times New Roman,serif" font-size="8.00">10. rxyz = rxyz + rxy</text>
<text text-anchor="start" x="183.5" y="-139.76" font-family="Times New Roman,serif" font-size="8.00" fill="darkorange">0,6</text>
</g>
<!-- 6&#45;&gt;10 -->
<g id="edge7" class="edge">
<title>6&#45;&gt;10</title>
<path fill="none" stroke="red" stroke-width="5" d="M204.45,-216.65C216.49,-200.22 232.47,-178.43 246.18,-159.74"/>
<polygon fill="red" stroke="red" stroke-width="5" points="249.59,-162.48 251.98,-151.83 242.54,-157.31 249.59,-162.48"/>
<text text-anchor="middle" x="261.51" y="-189.26" font-family="Times New Roman,serif" font-size="8.00">&quot;(z &lt; 0)&quot;</text>
<text text-anchor="middle" x="261.51" y="-178.76" font-family="Times New Roman,serif" font-size="8.00">c[8]</text>
<text text-anchor="middle" x="261.51" y="-168.26" font-family="Times New Roman,serif" font-size="8.00">Score: 0.74</text>
<text text-anchor="start" x="207.46" y="-174.26" font-family="Times New Roman,serif" font-size="8.00" fill="darkmagenta"> &#160;0,6 &#160;&#160;</text>
</g>
<!-- 9 -->
<g id="node9" class="node">
<title>9</title>
<ellipse fill="none" stroke="black" cx="275.01" cy="-36.5" rx="79.01" ry="18"/>
<text text-anchor="middle" x="275.01" y="-34.15" font-family="Times New Roman,serif" font-size="8.00">9. print(&#39;rxyz: &#39;, rxyz)</text>
<text text-anchor="start" x="175.75" y="-46.9" font-family="Times New Roman,serif" font-size="8.00" fill="darkorange">12,12</text>
</g>
<!-- 8&#45;&gt;9 -->
<g id="edge8" class="edge">
<title>8&#45;&gt;9</title>
<path fill="none" stroke="blue" d="M143.98,-96.74C170.74,-84.64 203.86,-69.67 230.11,-57.8"/>
<polygon fill="blue" stroke="blue" points="231.48,-61.02 239.15,-53.71 228.6,-54.64 231.48,-61.02"/>
<text text-anchor="start" x="165.12" y="-67.38" font-family="Times New Roman,serif" font-size="8.00" fill="darkmagenta"> &#160;12,6 &#160;&#160;</text>
</g>
<!-- 10&#45;&gt;9 -->
<g id="edge10" class="edge">
<title>10&#45;&gt;9</title>
<path fill="none" stroke="red" d="M275.01,-91.03C275.01,-83.11 275.01,-74.45 275.01,-66.44"/>
<polygon fill="red" stroke="red" points="278.51,-66.49 275.01,-56.49 271.51,-66.49 278.51,-66.49"/>
<text text-anchor="start" x="252.51" y="-65.72" font-family="Times New Roman,serif" font-size="8.00" fill="darkmagenta"> &#160;0,6 &#160;&#160;</text>
</g>
<!-- 9&#45;&gt;5 -->
<g id="edge9" class="edge">
<title>9&#45;&gt;5</title>
<path fill="none" stroke="blue" d="M316.99,-52.12C334.82,-60.65 353.81,-73.39 364.01,-91.5 403.08,-160.91 390.62,-195.65 364.01,-270.72 357.44,-289.27 344.02,-306.55 331.53,-319.75"/>
<polygon fill="blue" stroke="blue" points="329.17,-317.16 324.61,-326.72 334.14,-322.09 329.17,-317.16"/>
<text text-anchor="start" x="353.56" y="-196.3" font-family="Times New Roman,serif" font-size="8.00" fill="darkmagenta"> &#160;12,12 &#160;&#160;</text>
</g>
</g>
</svg>
