<?xml version="1.0" encoding="UTF-8" standalone="no"?>
<!DOCTYPE svg PUBLIC "-//W3C//DTD SVG 1.1//EN"
 "http://www.w3.org/Graphics/SVG/1.1/DTD/svg11.dtd">
<!-- Generated by graphviz version 10.0.1 (20240210.2158)
 -->
<!-- Title: clustermultiply Pages: 1 -->
<svg width="273pt" height="347pt"
 viewBox="0.00 0.00 273.10 347.05" xmlns="http://www.w3.org/2000/svg" xmlns:xlink="http://www.w3.org/1999/xlink">
<g id="graph0" class="graph" transform="scale(1 1) rotate(0) translate(4 343.05)">
<title>clustermultiply</title>
<polygon fill="white" stroke="none" points="-4,4 -4,-343.05 269.1,-343.05 269.1,4 -4,4"/>
<text text-anchor="middle" x="132.55" y="-5.75" font-family="Times New Roman,serif" font-size="10.00">multiply</text>
<!-- 1 -->
<g id="node1" class="node">
<title>1</title>
<ellipse fill="none" stroke="black" cx="138.18" cy="-277.59" rx="102.53" ry="50.21"/>
<text text-anchor="middle" x="138.18" y="-284.97" font-family="Times New Roman,serif" font-size="10.00">1. print(&#39;Inputs: &#39;, x, y, z)</text>
<text text-anchor="middle" x="138.18" y="-273.72" font-family="Times New Roman,serif" font-size="10.00">rxy = multiply_xy(x, y)</text>
<text text-anchor="middle" x="138.18" y="-262.47" font-family="Times New Roman,serif" font-size="10.00">if rxy == 0:</text>
<text text-anchor="start" x="24.39" y="-318.3" font-family="Times New Roman,serif" font-size="10.00" fill="darkorange">4,4</text>
</g>
<!-- 4 -->
<g id="node2" class="node">
<title>4</title>
<ellipse fill="none" stroke="black" cx="138.18" cy="-131.32" rx="126.93" ry="39.07"/>
<text text-anchor="middle" x="138.18" y="-133.07" font-family="Times New Roman,serif" font-size="10.00">4. rxyz = multiply_rxy_z(rxy, z)</text>
<text text-anchor="middle" x="138.18" y="-121.82" font-family="Times New Roman,serif" font-size="10.00">print(&#39;multiply done&#39;, rxyz)</text>
<text text-anchor="start" x="0" y="-160.88" font-family="Times New Roman,serif" font-size="10.00" fill="darkorange">4,4</text>
</g>
<!-- 1&#45;&gt;4 -->
<g id="edge1" class="edge">
<title>1&#45;&gt;4</title>
<path fill="none" stroke="blue" d="M138.18,-226.94C138.18,-212.4 138.18,-196.52 138.18,-181.98"/>
<polygon fill="blue" stroke="blue" points="141.68,-182.18 138.18,-172.18 134.68,-182.18 141.68,-182.18"/>
<text text-anchor="middle" x="159.18" y="-201.78" font-family="Times New Roman,serif" font-size="8.00">&quot;(rxy != 0)&quot;</text>
<text text-anchor="middle" x="159.18" y="-191.28" font-family="Times New Roman,serif" font-size="8.00">c[7]</text>
<text text-anchor="start" x="111.18" y="-191.16" font-family="Times New Roman,serif" font-size="8.00" fill="darkmagenta"> &#160;&#160;&#160;&#160;4,4 &#160;</text>
</g>
<!-- 3 -->
<g id="node3" class="node">
<title>3</title>
<ellipse fill="none" stroke="black" cx="138.18" cy="-37.25" rx="50.57" ry="18"/>
<text text-anchor="middle" x="138.18" y="-33.38" font-family="Times New Roman,serif" font-size="10.00">3. return rxyz</text>
<text text-anchor="start" x="76.36" y="-45.75" font-family="Times New Roman,serif" font-size="10.00" fill="darkorange">4,4</text>
</g>
<!-- 4&#45;&gt;3 -->
<g id="edge2" class="edge">
<title>4&#45;&gt;3</title>
<path fill="none" stroke="blue" d="M138.18,-91.81C138.18,-83.43 138.18,-74.71 138.18,-66.8"/>
<polygon fill="blue" stroke="blue" points="141.68,-67.08 138.18,-57.08 134.68,-67.08 141.68,-67.08"/>
<text text-anchor="start" x="111.18" y="-66.04" font-family="Times New Roman,serif" font-size="8.00" fill="darkmagenta"> &#160;&#160;&#160;&#160;4,4 &#160;</text>
</g>
</g>
</svg>
