<?xml version="1.0" encoding="UTF-8" standalone="no"?>
<!DOCTYPE svg PUBLIC "-//W3C//DTD SVG 1.1//EN"
 "http://www.w3.org/Graphics/SVG/1.1/DTD/svg11.dtd">
<!-- Generated by graphviz version 10.0.1 (20240210.2158)
 -->
<!-- Title: clustermultiply2 Pages: 1 -->
<svg width="273pt" height="346pt"
 viewBox="0.00 0.00 273.10 345.55" xmlns="http://www.w3.org/2000/svg" xmlns:xlink="http://www.w3.org/1999/xlink">
<g id="graph0" class="graph" transform="scale(1 1) rotate(0) translate(4 341.55)">
<title>clustermultiply2</title>
<polygon fill="white" stroke="none" points="-4,4 -4,-341.55 269.1,-341.55 269.1,4 -4,4"/>
<text text-anchor="middle" x="132.55" y="-6.9" font-family="Times New Roman,serif" font-size="8.00">multiply2</text>
<!-- 1 -->
<g id="node1" class="node">
<title>1</title>
<ellipse fill="none" stroke="black" cx="138.18" cy="-276.84" rx="102.53" ry="50.21"/>
<text text-anchor="middle" x="138.18" y="-284.99" font-family="Times New Roman,serif" font-size="8.00">1. print(&#39;Inputs: &#39;, x, y, z)</text>
<text text-anchor="middle" x="138.18" y="-274.49" font-family="Times New Roman,serif" font-size="8.00">rxy = multiply_xy(x, y)</text>
<text text-anchor="middle" x="138.18" y="-263.99" font-family="Times New Roman,serif" font-size="8.00">if rxy == 0:</text>
<text text-anchor="start" x="24.39" y="-319.45" font-family="Times New Roman,serif" font-size="8.00" fill="darkorange">4,4</text>
</g>
<!-- 4 -->
<g id="node2" class="node">
<title>4</title>
<ellipse fill="none" stroke="black" cx="138.18" cy="-130.57" rx="126.93" ry="39.07"/>
<text text-anchor="middle" x="138.18" y="-133.47" font-family="Times New Roman,serif" font-size="8.00">4. rxyz = multiply_rxy_z(rxy, z)</text>
<text text-anchor="middle" x="138.18" y="-122.97" font-family="Times New Roman,serif" font-size="8.00">print(&#39;multiply done&#39;, rxyz)</text>
<text text-anchor="start" x="0" y="-162.03" font-family="Times New Roman,serif" font-size="8.00" fill="darkorange">4,4</text>
</g>
<!-- 1&#45;&gt;4 -->
<g id="edge1" class="edge">
<title>1&#45;&gt;4</title>
<path fill="none" stroke="blue" d="M138.18,-226.19C138.18,-211.65 138.18,-195.77 138.18,-181.23"/>
<polygon fill="blue" stroke="blue" points="141.68,-181.43 138.18,-171.43 134.68,-181.43 141.68,-181.43"/>
<text text-anchor="middle" x="159.18" y="-201.03" font-family="Times New Roman,serif" font-size="8.00">&quot;(rxy != 0)&quot;</text>
<text text-anchor="middle" x="159.18" y="-190.53" font-family="Times New Roman,serif" font-size="8.00">c[9]</text>
<text text-anchor="start" x="115.68" y="-190.41" font-family="Times New Roman,serif" font-size="8.00" fill="darkmagenta"> &#160;4,4 &#160;&#160;</text>
</g>
<!-- 3 -->
<g id="node3" class="node">
<title>3</title>
<ellipse fill="none" stroke="black" cx="138.18" cy="-36.5" rx="50.57" ry="18"/>
<text text-anchor="middle" x="138.18" y="-34.15" font-family="Times New Roman,serif" font-size="8.00">3. return rxyz</text>
<text text-anchor="start" x="76.36" y="-46.9" font-family="Times New Roman,serif" font-size="8.00" fill="darkorange">4,4</text>
</g>
<!-- 4&#45;&gt;3 -->
<g id="edge2" class="edge">
<title>4&#45;&gt;3</title>
<path fill="none" stroke="blue" d="M138.18,-91.06C138.18,-82.68 138.18,-73.96 138.18,-66.05"/>
<polygon fill="blue" stroke="blue" points="141.68,-66.33 138.18,-56.33 134.68,-66.33 141.68,-66.33"/>
<text text-anchor="start" x="115.68" y="-65.29" font-family="Times New Roman,serif" font-size="8.00" fill="darkmagenta"> &#160;4,4 &#160;&#160;</text>
</g>
</g>
</svg>
