<?xml version="1.0" encoding="UTF-8" standalone="no"?>
<!DOCTYPE svg PUBLIC "-//W3C//DTD SVG 1.1//EN"
 "http://www.w3.org/Graphics/SVG/1.1/DTD/svg11.dtd">
<!-- Generated by graphviz version 10.0.1 (20240210.2158)
 -->
<!-- Title: clustermultiply_rxy_z Pages: 1 -->
<svg width="486pt" height="363pt"
 viewBox="0.00 0.00 486.16 362.72" xmlns="http://www.w3.org/2000/svg" xmlns:xlink="http://www.w3.org/1999/xlink">
<g id="graph0" class="graph" transform="scale(1 1) rotate(0) translate(4 358.72)">
<title>clustermultiply_rxy_z</title>
<polygon fill="white" stroke="none" points="-4,4 -4,-358.72 482.16,-358.72 482.16,4 -4,4"/>
<text text-anchor="middle" x="239.08" y="-5.75" font-family="Times New Roman,serif" font-size="10.00">multiply_rxy_z</text>
<!-- 1 -->
<g id="node1" class="node">
<title>1</title>
<ellipse fill="none" stroke="black" cx="168.51" cy="-315.54" rx="95.64" ry="27.93"/>
<text text-anchor="middle" x="168.51" y="-311.67" font-family="Times New Roman,serif" font-size="10.00">1. if rxy == 0 or z == 0:</text>
<text text-anchor="start" x="61.62" y="-333.97" font-family="Times New Roman,serif" font-size="10.00" fill="darkorange">4,4</text>
</g>
<!-- 3 -->
<g id="node2" class="node">
<title>3</title>
<ellipse fill="none" stroke="black" cx="168.51" cy="-223.11" rx="41.58" ry="18"/>
<text text-anchor="middle" x="168.51" y="-219.24" font-family="Times New Roman,serif" font-size="10.00">3. rxyz = 0</text>
<text text-anchor="start" x="115.67" y="-231.61" font-family="Times New Roman,serif" font-size="10.00" fill="darkorange">4,4</text>
</g>
<!-- 1&#45;&gt;3 -->
<g id="edge1" class="edge">
<title>1&#45;&gt;3</title>
<path fill="none" stroke="blue" d="M168.51,-287.41C168.51,-276.48 168.51,-263.87 168.51,-252.79"/>
<polygon fill="blue" stroke="blue" points="172.01,-253.04 168.51,-243.04 165.01,-253.04 172.01,-253.04"/>
<text text-anchor="middle" x="213.51" y="-262.01" font-family="Times New Roman,serif" font-size="8.00">(not (rxy == 0 or z == 0))</text>
<text text-anchor="start" x="141.51" y="-257.03" font-family="Times New Roman,serif" font-size="8.00" fill="darkmagenta"> &#160;&#160;&#160;&#160;4,4 &#160;</text>
</g>
<!-- 5 -->
<g id="node3" class="node">
<title>5</title>
<ellipse fill="none" stroke="black" cx="168.51" cy="-150.11" rx="88.49" ry="18"/>
<text text-anchor="middle" x="168.51" y="-146.24" font-family="Times New Roman,serif" font-size="10.00">5. for j in range(abs(z)):</text>
<text text-anchor="start" x="59.77" y="-158.61" font-family="Times New Roman,serif" font-size="10.00" fill="darkorange">16,16</text>
</g>
<!-- 3&#45;&gt;5 -->
<g id="edge2" class="edge">
<title>3&#45;&gt;5</title>
<path fill="none" stroke="blue" d="M168.51,-204.92C168.51,-197.34 168.51,-188.21 168.51,-179.65"/>
<polygon fill="blue" stroke="blue" points="172.01,-179.65 168.51,-169.65 165.01,-179.65 172.01,-179.65"/>
<text text-anchor="start" x="141.51" y="-178.95" font-family="Times New Roman,serif" font-size="8.00" fill="darkmagenta"> &#160;&#160;&#160;&#160;4,4 &#160;</text>
</g>
<!-- 6 -->
<g id="node4" class="node">
<title>6</title>
<ellipse fill="none" stroke="black" cx="100.51" cy="-47.18" rx="80.26" ry="27.93"/>
<text text-anchor="middle" x="100.51" y="-43.31" font-family="Times New Roman,serif" font-size="10.00">6. rxyz = rxyz + rxy</text>
<text text-anchor="start" x="0" y="-65.61" font-family="Times New Roman,serif" font-size="10.00" fill="darkorange">12,12</text>
</g>
<!-- 5&#45;&gt;6 -->
<g id="edge3" class="edge">
<title>5&#45;&gt;6</title>
<path fill="none" stroke="blue" d="M124.2,-134.23C115.42,-129.22 107.3,-122.65 102.01,-114.11 96.99,-106.01 95.08,-96.22 94.78,-86.68"/>
<polygon fill="blue" stroke="blue" points="98.27,-86.92 95.07,-76.83 91.28,-86.72 98.27,-86.92"/>
<text text-anchor="middle" x="128.76" y="-106.51" font-family="Times New Roman,serif" font-size="8.00">&quot;range(abs(z))&quot;</text>
<text text-anchor="middle" x="128.76" y="-96.01" font-family="Times New Roman,serif" font-size="8.00">c[6]</text>
<text text-anchor="start" x="63.5" y="-101.79" font-family="Times New Roman,serif" font-size="8.00" fill="darkmagenta"> &#160;&#160;&#160;&#160;12,12 &#160;</text>
</g>
<!-- 7 -->
<g id="node5" class="node">
<title>7</title>
<ellipse fill="none" stroke="black" cx="338.51" cy="-47.18" rx="139.65" ry="27.93"/>
<text text-anchor="middle" x="338.51" y="-48.93" font-family="Times New Roman,serif" font-size="10.00">7. print(&#39;Three Inputs Prod: &#39;, rxyz)</text>
<text text-anchor="middle" x="338.51" y="-37.68" font-family="Times New Roman,serif" font-size="10.00">return rxyz</text>
<text text-anchor="start" x="187.6" y="-65.61" font-family="Times New Roman,serif" font-size="10.00" fill="darkorange">4,4</text>
</g>
<!-- 5&#45;&gt;7 -->
<g id="edge4" class="edge">
<title>5&#45;&gt;7</title>
<path fill="none" stroke="blue" d="M196.2,-132.67C220.21,-118.42 255.63,-97.39 285.13,-79.87"/>
<polygon fill="blue" stroke="blue" points="286.76,-82.97 293.58,-74.86 283.19,-76.95 286.76,-82.97"/>
<text text-anchor="start" x="218.56" y="-95.76" font-family="Times New Roman,serif" font-size="8.00" fill="darkmagenta"> &#160;&#160;&#160;&#160;4,4 &#160;</text>
</g>
<!-- 6&#45;&gt;5 -->
<g id="edge5" class="edge">
<title>6&#45;&gt;5</title>
<path fill="none" stroke="blue" d="M136.3,-72.43C143.17,-78.49 149.71,-85.47 154.51,-93.11 159.68,-101.35 162.94,-111.38 165,-120.67"/>
<polygon fill="blue" stroke="blue" points="161.53,-121.14 166.75,-130.36 168.42,-119.9 161.53,-121.14"/>
<text text-anchor="start" x="157.84" y="-91.57" font-family="Times New Roman,serif" font-size="8.00" fill="darkmagenta"> &#160;&#160;&#160;&#160;12,12 &#160;</text>
</g>
</g>
</svg>
