<?xml version="1.0" encoding="UTF-8" standalone="no"?>
<!DOCTYPE svg PUBLIC "-//W3C//DTD SVG 1.1//EN"
 "http://www.w3.org/Graphics/SVG/1.1/DTD/svg11.dtd">
<!-- Generated by graphviz version 12.1.0 (20240811.2233)
 -->
<!-- Title: clusterget_next_date Pages: 1 -->
<svg width="608pt" height="1657pt"
 viewBox="0.00 0.00 608.43 1657.43" xmlns="http://www.w3.org/2000/svg" xmlns:xlink="http://www.w3.org/1999/xlink">
<g id="graph0" class="graph" transform="scale(1 1) rotate(0) translate(4 1653.43)">
<title>clusterget_next_date</title>
<polygon fill="white" stroke="none" points="-4,4 -4,-1653.43 604.43,-1653.43 604.43,4 -4,4"/>
<text text-anchor="middle" x="300.21" y="-7.2" font-family="Times New Roman,serif" font-size="14.00">get_next_date</text>
<!-- 1 -->
<g id="node1" class="node">
<title>1</title>
<ellipse fill="none" stroke="black" cx="168.81" cy="-1603.94" rx="88.74" ry="28.99"/>
<text text-anchor="middle" x="168.81" y="-1598.89" font-family="Times New Roman,serif" font-size="14.00">1. if year % 400 == 0:</text>
<text text-anchor="start" x="49.32" y="-1619.63" font-family="Times New Roman,serif" font-size="14.00" fill="darkorange">17,17</text>
</g>
<!-- 2 -->
<g id="node2" class="node">
<title>2</title>
<ellipse fill="none" stroke="black" cx="104.81" cy="-1384.47" rx="77.08" ry="28.99"/>
<text text-anchor="middle" x="104.81" y="-1379.42" font-family="Times New Roman,serif" font-size="14.00">2. leap_year = True</text>
<text text-anchor="start" x="10.49" y="-1400.16" font-family="Times New Roman,serif" font-size="14.00" fill="darkorange">0,0</text>
</g>
<!-- 1&#45;&gt;2 -->
<g id="edge1" class="edge">
<title>1&#45;&gt;2</title>
<path fill="none" stroke="black" d="M121.56,-1579.19C113.71,-1573.06 106.64,-1565.67 102.06,-1556.95 80.51,-1515.92 86.18,-1461.39 93.94,-1424.95"/>
<polygon fill="black" stroke="black" points="97.34,-1425.79 96.16,-1415.26 90.51,-1424.23 97.34,-1425.79"/>
<text text-anchor="middle" x="154.94" y="-1535.4" font-family="Times New Roman,serif" font-size="14.00">&quot;year % 400 == 0&quot;</text>
<text text-anchor="middle" x="154.94" y="-1518.9" font-family="Times New Roman,serif" font-size="14.00">c[1]</text>
<polygon fill="white" stroke="none" points="56.27,-1499.44 56.27,-1523.94 85.27,-1523.94 85.27,-1499.44 56.27,-1499.44"/>
<text text-anchor="start" x="60.27" y="-1506.64" font-family="Times New Roman,serif" font-size="14.00" fill="darkmagenta">0, 0</text>
</g>
<!-- 4 -->
<g id="node3" class="node">
<title>4</title>
<ellipse fill="none" stroke="black" cx="233.81" cy="-1460.46" rx="88.74" ry="28.99"/>
<text text-anchor="middle" x="233.81" y="-1455.41" font-family="Times New Roman,serif" font-size="14.00">4. if year % 100 == 0:</text>
<text text-anchor="start" x="114.32" y="-1476.15" font-family="Times New Roman,serif" font-size="14.00" fill="darkorange">17,17</text>
</g>
<!-- 1&#45;&gt;4 -->
<g id="edge2" class="edge">
<title>1&#45;&gt;4</title>
<path fill="none" stroke="blue" stroke-width="3.51" d="M198.01,-1576.33C203.23,-1570.39 208.16,-1563.8 211.81,-1556.95 220.38,-1540.85 225.63,-1521.49 228.84,-1504.43"/>
<polygon fill="blue" stroke="blue" stroke-width="3.51" points="232.25,-1505.22 230.4,-1494.79 225.34,-1504.1 232.25,-1505.22"/>
<text text-anchor="middle" x="283.39" y="-1543.65" font-family="Times New Roman,serif" font-size="14.00">&quot;(year % 400 != 0)&quot;</text>
<text text-anchor="middle" x="283.39" y="-1527.15" font-family="Times New Roman,serif" font-size="14.00">c[2]</text>
<text text-anchor="middle" x="283.39" y="-1510.65" font-family="Times New Roman,serif" font-size="14.00"> Score: 0.57</text>
<polygon fill="white" stroke="none" points="176.48,-1537.25 176.48,-1561.75 218.98,-1561.75 218.98,-1537.25 176.48,-1537.25"/>
<text text-anchor="start" x="180.48" y="-1544.45" font-family="Times New Roman,serif" font-size="14.00" fill="darkmagenta">17, 17</text>
</g>
<!-- 3 -->
<g id="node4" class="node">
<title>3</title>
<ellipse fill="none" stroke="black" cx="216.81" cy="-1041.03" rx="146.04" ry="18"/>
<text text-anchor="middle" x="216.81" y="-1035.98" font-family="Times New Roman,serif" font-size="14.00">3. if month in (1, 3, 5, 7, 8, 10, 12):</text>
<text text-anchor="start" x="40.03" y="-1045.73" font-family="Times New Roman,serif" font-size="14.00" fill="darkorange">17,17</text>
</g>
<!-- 2&#45;&gt;3 -->
<g id="edge3" class="edge">
<title>2&#45;&gt;3</title>
<path fill="none" stroke="black" d="M103.51,-1355.27C102.69,-1319.18 104.13,-1255.15 120.81,-1203.51 137.55,-1151.71 173.28,-1098.8 196.11,-1068.26"/>
<polygon fill="black" stroke="black" points="198.85,-1070.44 202.12,-1060.36 193.28,-1066.2 198.85,-1070.44"/>
<polygon fill="white" stroke="none" points="92.07,-1198.83 92.07,-1223.33 121.07,-1223.33 121.07,-1198.83 92.07,-1198.83"/>
<text text-anchor="start" x="96.07" y="-1206.03" font-family="Times New Roman,serif" font-size="14.00" fill="darkmagenta">0, 0</text>
</g>
<!-- 5 -->
<g id="node17" class="node">
<title>5</title>
<ellipse fill="none" stroke="black" cx="203.81" cy="-1232.51" rx="79.73" ry="28.99"/>
<text text-anchor="middle" x="203.81" y="-1227.46" font-family="Times New Roman,serif" font-size="14.00">5. leap_year = False</text>
<text text-anchor="start" x="106.84" y="-1248.2" font-family="Times New Roman,serif" font-size="14.00" fill="darkorange">0,0</text>
</g>
<!-- 4&#45;&gt;5 -->
<g id="edge21" class="edge">
<title>4&#45;&gt;5</title>
<path fill="none" stroke="black" d="M211.08,-1432.17C207.37,-1426.32 204.08,-1419.95 202.06,-1413.46 187.55,-1366.9 191.39,-1310.21 196.59,-1273.06"/>
<polygon fill="black" stroke="black" points="200.04,-1273.62 198.08,-1263.21 193.12,-1272.58 200.04,-1273.62"/>
<text text-anchor="middle" x="254.94" y="-1387.67" font-family="Times New Roman,serif" font-size="14.00">&quot;year % 100 == 0&quot;</text>
<text text-anchor="middle" x="254.94" y="-1371.17" font-family="Times New Roman,serif" font-size="14.00">c[3]</text>
<polygon fill="white" stroke="none" points="161.07,-1320.77 161.07,-1345.27 190.07,-1345.27 190.07,-1320.77 161.07,-1320.77"/>
<text text-anchor="start" x="165.07" y="-1327.97" font-family="Times New Roman,serif" font-size="14.00" fill="darkmagenta">0, 0</text>
</g>
<!-- 7 -->
<g id="node18" class="node">
<title>7</title>
<ellipse fill="none" stroke="black" cx="333.81" cy="-1308.49" rx="79.2" ry="28.99"/>
<text text-anchor="middle" x="333.81" y="-1303.44" font-family="Times New Roman,serif" font-size="14.00">7. if year % 4 == 0:</text>
<text text-anchor="start" x="223.86" y="-1324.18" font-family="Times New Roman,serif" font-size="14.00" fill="darkorange">17,17</text>
</g>
<!-- 4&#45;&gt;7 -->
<g id="edge22" class="edge">
<title>4&#45;&gt;7</title>
<path fill="none" stroke="blue" stroke-width="3.51" d="M286.13,-1436.84C295.89,-1430.53 305.11,-1422.78 311.81,-1413.46 324.39,-1395.97 330.07,-1372.8 332.53,-1352.77"/>
<polygon fill="blue" stroke="blue" stroke-width="3.51" points="336.01,-1353.11 333.41,-1342.84 329.04,-1352.49 336.01,-1353.11"/>
<text text-anchor="middle" x="387.38" y="-1395.92" font-family="Times New Roman,serif" font-size="14.00">&quot;(year % 100 != 0)&quot;</text>
<text text-anchor="middle" x="387.38" y="-1379.42" font-family="Times New Roman,serif" font-size="14.00">c[4]</text>
<text text-anchor="middle" x="387.38" y="-1362.92" font-family="Times New Roman,serif" font-size="14.00"> Score: 0.57</text>
<polygon fill="white" stroke="none" points="278.56,-1394.33 278.56,-1418.83 321.06,-1418.83 321.06,-1394.33 278.56,-1394.33"/>
<text text-anchor="start" x="282.56" y="-1401.53" font-family="Times New Roman,serif" font-size="14.00" fill="darkmagenta">17, 17</text>
</g>
<!-- 11 -->
<g id="node5" class="node">
<title>11</title>
<ellipse fill="none" stroke="black" cx="102.81" cy="-832.56" rx="85.56" ry="28.99"/>
<text text-anchor="middle" x="102.81" y="-827.51" font-family="Times New Roman,serif" font-size="14.00">11. month_length = 15</text>
<text text-anchor="start" x="0" y="-848.25" font-family="Times New Roman,serif" font-size="14.00" fill="darkorange">8,6</text>
</g>
<!-- 3&#45;&gt;11 -->
<g id="edge4" class="edge">
<title>3&#45;&gt;11</title>
<path fill="none" stroke="blue" stroke-width="2.54" d="M140.52,-1025.31C130.59,-1020.37 121.54,-1013.79 114.81,-1005.03 86.6,-968.31 88.18,-913.1 93.8,-875.31"/>
<polygon fill="blue" stroke="blue" stroke-width="2.54" points="97.24,-875.99 95.46,-865.54 90.33,-874.82 97.24,-875.99"/>
<text text-anchor="middle" x="204.81" y="-991.73" font-family="Times New Roman,serif" font-size="14.00">&quot;month in (1, 3, 5, 7, 8, 10, 12)&quot;</text>
<text text-anchor="middle" x="204.81" y="-975.23" font-family="Times New Roman,serif" font-size="14.00">c[7]</text>
<text text-anchor="middle" x="204.81" y="-958.73" font-family="Times New Roman,serif" font-size="14.00"> Score: 0.35</text>
<polygon fill="white" stroke="none" points="61.49,-949.61 61.49,-974.11 90.49,-974.11 90.49,-949.61 61.49,-949.61"/>
<text text-anchor="start" x="65.49" y="-956.81" font-family="Times New Roman,serif" font-size="14.00" fill="darkmagenta">8, 6</text>
</g>
<!-- 13 -->
<g id="node6" class="node">
<title>13</title>
<ellipse fill="none" stroke="black" cx="320.81" cy="-908.54" rx="69.12" ry="28.99"/>
<text text-anchor="middle" x="320.81" y="-903.49" font-family="Times New Roman,serif" font-size="14.00">13. if month == 2:</text>
<text text-anchor="start" x="227.69" y="-924.23" font-family="Times New Roman,serif" font-size="14.00" fill="darkorange">9,11</text>
</g>
<!-- 3&#45;&gt;13 -->
<g id="edge5" class="edge">
<title>3&#45;&gt;13</title>
<path fill="none" stroke="blue" stroke-width="3.29" d="M273.6,-1024.19C283.1,-1019.36 292.06,-1013.1 298.81,-1005.03 310.95,-990.53 316.69,-970.62 319.31,-952.73"/>
<polygon fill="blue" stroke="blue" stroke-width="3.29" points="322.77,-953.29 320.34,-942.97 315.81,-952.55 322.77,-953.29"/>
<text text-anchor="middle" x="423.63" y="-991.73" font-family="Times New Roman,serif" font-size="14.00">&quot;(month not in (1, 3, 5, 7, 8, 10, 12))&quot;</text>
<text text-anchor="middle" x="423.63" y="-975.23" font-family="Times New Roman,serif" font-size="14.00">c[8]</text>
<text text-anchor="middle" x="423.63" y="-958.73" font-family="Times New Roman,serif" font-size="14.00"> Score: 0.52</text>
<polygon fill="white" stroke="none" points="272.19,-988.83 272.19,-1013.33 307.94,-1013.33 307.94,-988.83 272.19,-988.83"/>
<text text-anchor="start" x="276.19" y="-996.03" font-family="Times New Roman,serif" font-size="14.00" fill="darkmagenta">9, 11</text>
</g>
<!-- 12 -->
<g id="node7" class="node">
<title>12</title>
<ellipse fill="none" stroke="black" cx="324.81" cy="-489.12" rx="111.74" ry="18"/>
<text text-anchor="middle" x="324.81" y="-484.07" font-family="Times New Roman,serif" font-size="14.00">12. if day &lt; month_length:</text>
<text text-anchor="start" x="182.32" y="-493.82" font-family="Times New Roman,serif" font-size="14.00" fill="darkorange">17,17</text>
</g>
<!-- 11&#45;&gt;12 -->
<g id="edge6" class="edge">
<title>11&#45;&gt;12</title>
<path fill="none" stroke="blue" stroke-width="2.54" d="M95.16,-803.45C83.13,-752.75 65.89,-644.81 114.81,-575.62 141.38,-538.05 187.46,-516.96 229.7,-505.14"/>
<polygon fill="blue" stroke="blue" stroke-width="2.54" points="230.44,-508.57 239.23,-502.66 228.68,-501.79 230.44,-508.57"/>
<text text-anchor="middle" x="118.43" y="-667.54" font-family="Times New Roman,serif" font-size="14.00"> Score: 0.35</text>
<polygon fill="white" stroke="none" points="83.81,-577.61 83.81,-602.11 112.81,-602.11 112.81,-577.61 83.81,-577.61"/>
<text text-anchor="start" x="87.81" y="-584.81" font-family="Times New Roman,serif" font-size="14.00" fill="darkmagenta">8, 6</text>
</g>
<!-- 14 -->
<g id="node13" class="node">
<title>14</title>
<ellipse fill="none" stroke="black" cx="320.81" cy="-756.57" rx="59.57" ry="28.99"/>
<text text-anchor="middle" x="320.81" y="-751.52" font-family="Times New Roman,serif" font-size="14.00">14. if leap_year:</text>
<text text-anchor="start" x="243.99" y="-772.27" font-family="Times New Roman,serif" font-size="14.00" fill="darkorange">3,9</text>
</g>
<!-- 13&#45;&gt;14 -->
<g id="edge14" class="edge">
<title>13&#45;&gt;14</title>
<path fill="none" stroke="blue" stroke-width="3.68" d="M320.81,-879.33C320.81,-857.41 320.81,-826.6 320.81,-801.46"/>
<polygon fill="blue" stroke="blue" stroke-width="3.68" points="324.31,-801.48 320.81,-791.48 317.31,-801.48 324.31,-801.48"/>
<text text-anchor="middle" x="359.81" y="-844.01" font-family="Times New Roman,serif" font-size="14.00">&quot;month == 2&quot;</text>
<text text-anchor="middle" x="359.81" y="-827.51" font-family="Times New Roman,serif" font-size="14.00">c[9]</text>
<text text-anchor="middle" x="359.81" y="-811.01" font-family="Times New Roman,serif" font-size="14.00"> Score: 0.61</text>
<polygon fill="white" stroke="none" points="289.81,-834.65 289.81,-859.15 318.81,-859.15 318.81,-834.65 289.81,-834.65"/>
<text text-anchor="start" x="293.81" y="-841.85" font-family="Times New Roman,serif" font-size="14.00" fill="darkmagenta">3, 9</text>
</g>
<!-- 16 -->
<g id="node14" class="node">
<title>16</title>
<ellipse fill="none" stroke="black" cx="509.81" cy="-680.59" rx="85.56" ry="28.99"/>
<text text-anchor="middle" x="509.81" y="-675.54" font-family="Times New Roman,serif" font-size="14.00">16. month_length = 30</text>
<text text-anchor="start" x="407" y="-696.28" font-family="Times New Roman,serif" font-size="14.00" fill="darkorange">6,2</text>
</g>
<!-- 13&#45;&gt;16 -->
<g id="edge15" class="edge">
<title>13&#45;&gt;16</title>
<path fill="none" stroke="blue" stroke-width="1.75" d="M367.54,-886.83C379.92,-879.95 392.64,-871.46 402.81,-861.55 444.56,-820.85 476,-760.5 493.66,-721.1"/>
<polygon fill="blue" stroke="blue" stroke-width="1.75" points="496.83,-722.58 497.63,-712.02 490.42,-719.78 496.83,-722.58"/>
<text text-anchor="middle" x="490.38" y="-844.01" font-family="Times New Roman,serif" font-size="14.00">&quot;(month != 2)&quot;</text>
<text text-anchor="middle" x="490.38" y="-827.51" font-family="Times New Roman,serif" font-size="14.00">c[12]</text>
<text text-anchor="middle" x="490.38" y="-811.01" font-family="Times New Roman,serif" font-size="14.00"> Score: 0.17</text>
<polygon fill="white" stroke="none" points="415.81,-809.28 415.81,-833.78 444.81,-833.78 444.81,-809.28 415.81,-809.28"/>
<text text-anchor="start" x="419.81" y="-816.48" font-family="Times New Roman,serif" font-size="14.00" fill="darkmagenta">6, 2</text>
</g>
<!-- 20 -->
<g id="node8" class="node">
<title>20</title>
<ellipse fill="none" stroke="black" cx="251.81" cy="-257.31" rx="53.21" ry="28.99"/>
<text text-anchor="middle" x="251.81" y="-252.26" font-family="Times New Roman,serif" font-size="14.00">20. day += 1</text>
<text text-anchor="start" x="174.6" y="-273" font-family="Times New Roman,serif" font-size="14.00" fill="darkorange">17,3</text>
</g>
<!-- 12&#45;&gt;20 -->
<g id="edge7" class="edge">
<title>12&#45;&gt;20</title>
<path fill="none" stroke="blue" stroke-width="1.57" d="M271.05,-472.89C262.23,-467.99 254.22,-461.56 248.81,-453.12 218.99,-406.55 228.48,-340.02 239.23,-298.01"/>
<polygon fill="blue" stroke="blue" stroke-width="1.57" points="242.61,-298.93 241.87,-288.36 235.86,-297.09 242.61,-298.93"/>
<text text-anchor="middle" x="310.31" y="-439.82" font-family="Times New Roman,serif" font-size="14.00">&quot;day &lt; month_length&quot;</text>
<text text-anchor="middle" x="310.31" y="-423.32" font-family="Times New Roman,serif" font-size="14.00">c[13]</text>
<text text-anchor="middle" x="310.31" y="-406.82" font-family="Times New Roman,serif" font-size="14.00"> Score: 0.13</text>
<polygon fill="white" stroke="none" points="191.15,-382.36 191.15,-406.86 226.9,-406.86 226.9,-382.36 191.15,-382.36"/>
<text text-anchor="start" x="195.15" y="-389.56" font-family="Times New Roman,serif" font-size="14.00" fill="darkmagenta">17, 3</text>
</g>
<!-- 22 -->
<g id="node9" class="node">
<title>22</title>
<ellipse fill="none" stroke="black" cx="397.81" cy="-344.96" rx="73.89" ry="40.66"/>
<text text-anchor="middle" x="397.81" y="-348.16" font-family="Times New Roman,serif" font-size="14.00">22. day = 1</text>
<text text-anchor="middle" x="397.81" y="-331.66" font-family="Times New Roman,serif" font-size="14.00">if month == 12:</text>
<text text-anchor="start" x="299.92" y="-372.32" font-family="Times New Roman,serif" font-size="14.00" fill="darkorange">0,14</text>
</g>
<!-- 12&#45;&gt;22 -->
<g id="edge8" class="edge">
<title>12&#45;&gt;22</title>
<path fill="none" stroke="red" stroke-width="5" d="M356.98,-471.57C364.13,-466.53 371,-460.36 375.81,-453.12 385.81,-438.05 391.42,-419.37 394.51,-401.84"/>
<polygon fill="red" stroke="red" stroke-width="5" points="398.83,-402.57 395.88,-392.06 390.16,-401.36 398.83,-402.57"/>
<text text-anchor="middle" x="463.78" y="-439.82" font-family="Times New Roman,serif" font-size="14.00">&quot;(day &gt;= month_length)&quot;</text>
<text text-anchor="middle" x="463.78" y="-423.32" font-family="Times New Roman,serif" font-size="14.00">c[14]</text>
<text text-anchor="middle" x="463.78" y="-406.82" font-family="Times New Roman,serif" font-size="14.00"> Score: 0.91</text>
<polygon fill="white" stroke="none" points="358.45,-405.98 358.45,-430.48 394.2,-430.48 394.2,-405.98 358.45,-405.98"/>
<text text-anchor="start" x="362.45" y="-413.18" font-family="Times New Roman,serif" font-size="14.00" fill="darkmagenta">0, 14</text>
</g>
<!-- 21 -->
<g id="node10" class="node">
<title>21</title>
<ellipse fill="none" stroke="black" cx="390.81" cy="-42.5" rx="112.77" ry="18"/>
<text text-anchor="middle" x="390.81" y="-37.45" font-family="Times New Roman,serif" font-size="14.00">21. return day, month, year</text>
<text text-anchor="start" x="247.29" y="-47.2" font-family="Times New Roman,serif" font-size="14.00" fill="darkorange">17,17</text>
</g>
<!-- 20&#45;&gt;21 -->
<g id="edge9" class="edge">
<title>20&#45;&gt;21</title>
<path fill="none" stroke="blue" stroke-width="1.57" d="M247.01,-228.16C243.84,-200.89 243.06,-159.3 260.81,-129 277.92,-99.78 309.45,-78.67 337.17,-64.74"/>
<polygon fill="blue" stroke="blue" stroke-width="1.57" points="338.31,-68.08 345.82,-60.6 335.29,-61.76 338.31,-68.08"/>
<text text-anchor="middle" x="293.81" y="-156.61" font-family="Times New Roman,serif" font-size="14.00"> Score: 0.13</text>
<polygon fill="white" stroke="none" points="227.78,-123.65 227.78,-148.15 263.53,-148.15 263.53,-123.65 227.78,-123.65"/>
<text text-anchor="start" x="231.78" y="-130.85" font-family="Times New Roman,serif" font-size="14.00" fill="darkmagenta">17, 3</text>
</g>
<!-- 23 -->
<g id="node11" class="node">
<title>23</title>
<ellipse fill="none" stroke="black" cx="390.81" cy="-169.66" rx="54.86" ry="40.66"/>
<text text-anchor="middle" x="390.81" y="-172.86" font-family="Times New Roman,serif" font-size="14.00">23. month = 1</text>
<text text-anchor="middle" x="390.81" y="-156.36" font-family="Times New Roman,serif" font-size="14.00">year += 1</text>
<text text-anchor="start" x="318.7" y="-197.02" font-family="Times New Roman,serif" font-size="14.00" fill="darkorange">0,1</text>
</g>
<!-- 22&#45;&gt;23 -->
<g id="edge10" class="edge">
<title>22&#45;&gt;23</title>
<path fill="none" stroke="red" stroke-width="2.89" d="M396.21,-304.2C395.25,-280.62 394.03,-250.4 392.99,-224.68"/>
<polygon fill="red" stroke="red" stroke-width="2.89" points="396.5,-224.75 392.6,-214.9 389.5,-225.04 396.5,-224.75"/>
<text text-anchor="middle" x="437.72" y="-268.76" font-family="Times New Roman,serif" font-size="14.00">&quot;month == 12&quot;</text>
<text text-anchor="middle" x="437.72" y="-252.26" font-family="Times New Roman,serif" font-size="14.00">c[15]</text>
<text text-anchor="middle" x="437.72" y="-235.76" font-family="Times New Roman,serif" font-size="14.00"> Score: 0.43</text>
<polygon fill="white" stroke="none" points="363.31,-259.18 363.31,-283.68 392.31,-283.68 392.31,-259.18 363.31,-259.18"/>
<text text-anchor="start" x="367.31" y="-266.38" font-family="Times New Roman,serif" font-size="14.00" fill="darkmagenta">0, 1</text>
</g>
<!-- 25 -->
<g id="node12" class="node">
<title>25</title>
<ellipse fill="none" stroke="black" cx="521.81" cy="-169.66" rx="57.98" ry="28.99"/>
<text text-anchor="middle" x="521.81" y="-164.61" font-family="Times New Roman,serif" font-size="14.00">25. month += 1</text>
<text text-anchor="start" x="463.83" y="-185.35" font-family="Times New Roman,serif" font-size="14.00" fill="darkorange">0,13</text>
</g>
<!-- 22&#45;&gt;25 -->
<g id="edge11" class="edge">
<title>22&#45;&gt;25</title>
<path fill="none" stroke="red" stroke-width="4.87" d="M450.65,-316.53C462.88,-308.18 474.9,-298.04 483.81,-286.3 499.64,-265.43 509.04,-237.67 514.54,-214.58"/>
<polygon fill="red" stroke="red" stroke-width="4.87" points="518.7,-215.5 516.6,-204.83 510.36,-213.73 518.7,-215.5"/>
<text text-anchor="middle" x="555.43" y="-268.76" font-family="Times New Roman,serif" font-size="14.00">&quot;(month != 12)&quot;</text>
<text text-anchor="middle" x="555.43" y="-252.26" font-family="Times New Roman,serif" font-size="14.00">c[16]</text>
<text text-anchor="middle" x="555.43" y="-235.76" font-family="Times New Roman,serif" font-size="14.00"> Score: 0.88</text>
<polygon fill="white" stroke="none" points="469.59,-237.44 469.59,-261.94 505.34,-261.94 505.34,-237.44 469.59,-237.44"/>
<text text-anchor="start" x="473.59" y="-244.64" font-family="Times New Roman,serif" font-size="14.00" fill="darkmagenta">0, 13</text>
</g>
<!-- 23&#45;&gt;21 -->
<g id="edge12" class="edge">
<title>23&#45;&gt;21</title>
<path fill="none" stroke="red" stroke-width="2.89" d="M390.81,-128.71C390.81,-111.36 390.81,-91.33 390.81,-75.05"/>
<polygon fill="red" stroke="red" stroke-width="2.89" points="394.31,-75.18 390.81,-65.18 387.31,-75.18 394.31,-75.18"/>
<text text-anchor="middle" x="423.81" y="-81.7" font-family="Times New Roman,serif" font-size="14.00"> Score: 0.43</text>
<polygon fill="white" stroke="none" points="359.81,-97.04 359.81,-121.54 388.81,-121.54 388.81,-97.04 359.81,-97.04"/>
<text text-anchor="start" x="363.81" y="-104.24" font-family="Times New Roman,serif" font-size="14.00" fill="darkmagenta">0, 1</text>
</g>
<!-- 25&#45;&gt;21 -->
<g id="edge13" class="edge">
<title>25&#45;&gt;21</title>
<path fill="none" stroke="red" stroke-width="4.87" d="M508.07,-141.06C497.32,-121.63 480.85,-96.07 460.81,-78.5 456.17,-74.43 450.98,-70.71 445.57,-67.33"/>
<polygon fill="red" stroke="red" stroke-width="4.87" points="448.11,-63.87 437.31,-62.7 443.95,-71.31 448.11,-63.87"/>
<text text-anchor="middle" x="521.32" y="-81.7" font-family="Times New Roman,serif" font-size="14.00"> Score: 0.88</text>
<polygon fill="white" stroke="none" points="448.59,-67.92 448.59,-92.42 484.34,-92.42 484.34,-67.92 448.59,-67.92"/>
<text text-anchor="start" x="452.59" y="-75.12" font-family="Times New Roman,serif" font-size="14.00" fill="darkmagenta">0, 13</text>
</g>
<!-- 17 -->
<g id="node15" class="node">
<title>17</title>
<ellipse fill="none" stroke="black" cx="209.81" cy="-604.61" rx="85.56" ry="28.99"/>
<text text-anchor="middle" x="209.81" y="-599.56" font-family="Times New Roman,serif" font-size="14.00">17. month_length = 29</text>
<text text-anchor="start" x="107" y="-620.3" font-family="Times New Roman,serif" font-size="14.00" fill="darkorange">3,0</text>
</g>
<!-- 14&#45;&gt;17 -->
<g id="edge16" class="edge">
<title>14&#45;&gt;17</title>
<path fill="none" stroke="#429e6a" d="M282.23,-734.27C272.19,-727.38 262.04,-719.04 254.31,-709.58 238.83,-690.64 227.88,-665.5 220.71,-644.69"/>
<polygon fill="#429e6a" stroke="#429e6a" points="224.11,-643.81 217.68,-635.39 217.45,-645.98 224.11,-643.81"/>
<text text-anchor="middle" x="280.56" y="-683.79" font-family="Times New Roman,serif" font-size="14.00">leap_year</text>
<text text-anchor="middle" x="280.56" y="-667.29" font-family="Times New Roman,serif" font-size="14.00">c[10]</text>
<polygon fill="white" stroke="none" points="209.51,-691.3 209.51,-715.8 238.51,-715.8 238.51,-691.3 209.51,-691.3"/>
<text text-anchor="start" x="213.51" y="-698.5" font-family="Times New Roman,serif" font-size="14.00" fill="darkmagenta">3, 0</text>
</g>
<!-- 19 -->
<g id="node16" class="node">
<title>19</title>
<ellipse fill="none" stroke="black" cx="393.81" cy="-604.61" rx="80.79" ry="28.99"/>
<text text-anchor="middle" x="393.81" y="-599.56" font-family="Times New Roman,serif" font-size="14.00">19. month_length = 5</text>
<text text-anchor="start" x="295.77" y="-562.32" font-family="Times New Roman,serif" font-size="14.00" fill="darkorange">0,9</text>
</g>
<!-- 14&#45;&gt;19 -->
<g id="edge17" class="edge">
<title>14&#45;&gt;19</title>
<path fill="none" stroke="red" stroke-width="4.3" d="M313.62,-727.7C309.53,-705.65 307.45,-674.81 320.31,-651.6 323.18,-646.42 326.9,-641.75 331.14,-637.55"/>
<polygon fill="red" stroke="red" stroke-width="4.3" points="333.31,-640.64 338.65,-631.39 328.53,-634.83 333.31,-640.64"/>
<text text-anchor="middle" x="367.56" y="-692.04" font-family="Times New Roman,serif" font-size="14.00">&quot;(not leap_year)&quot;</text>
<text text-anchor="middle" x="367.56" y="-675.54" font-family="Times New Roman,serif" font-size="14.00">c[11]</text>
<text text-anchor="middle" x="367.56" y="-659.04" font-family="Times New Roman,serif" font-size="14.00"> Score: 0.75</text>
<polygon fill="white" stroke="none" points="289.6,-647.98 289.6,-672.48 318.6,-672.48 318.6,-647.98 289.6,-647.98"/>
<text text-anchor="start" x="293.6" y="-655.18" font-family="Times New Roman,serif" font-size="14.00" fill="darkmagenta">0, 9</text>
</g>
<!-- 16&#45;&gt;12 -->
<g id="edge20" class="edge">
<title>16&#45;&gt;12</title>
<path fill="none" stroke="blue" stroke-width="1.75" d="M506.72,-651.24C503.42,-629.48 496.81,-599.26 483.81,-575.62 468.9,-548.48 462.08,-541.52 435.81,-525.12 425.03,-518.39 412.85,-512.85 400.6,-508.33"/>
<polygon fill="blue" stroke="blue" stroke-width="1.75" points="401.98,-505.1 391.38,-505.16 399.7,-511.72 401.98,-505.1"/>
<text text-anchor="middle" x="536.28" y="-591.56" font-family="Times New Roman,serif" font-size="14.00"> Score: 0.17</text>
<polygon fill="white" stroke="none" points="442.64,-531.97 442.64,-556.47 471.64,-556.47 471.64,-531.97 442.64,-531.97"/>
<text text-anchor="start" x="446.64" y="-539.17" font-family="Times New Roman,serif" font-size="14.00" fill="darkmagenta">6, 2</text>
</g>
<!-- 17&#45;&gt;12 -->
<g id="edge18" class="edge">
<title>17&#45;&gt;12</title>
<path fill="none" stroke="#429e6a" d="M237.06,-576.71C255.96,-558.07 280.94,-533.41 299.41,-515.18"/>
<polygon fill="#429e6a" stroke="#429e6a" points="301.66,-517.88 306.32,-508.36 296.75,-512.9 301.66,-517.88"/>
<polygon fill="white" stroke="none" points="241.23,-544.01 241.23,-568.51 270.23,-568.51 270.23,-544.01 241.23,-544.01"/>
<text text-anchor="start" x="245.23" y="-551.21" font-family="Times New Roman,serif" font-size="14.00" fill="darkmagenta">3, 0</text>
</g>
<!-- 19&#45;&gt;12 -->
<g id="edge19" class="edge">
<title>19&#45;&gt;12</title>
<path fill="none" stroke="red" stroke-width="4.3" d="M376.93,-575.85C366.82,-559.22 353.95,-538.05 343.53,-520.9"/>
<polygon fill="red" stroke="red" stroke-width="4.3" points="346.88,-519.18 338.47,-512.58 340.45,-523.08 346.88,-519.18"/>
<text text-anchor="middle" x="398.49" y="-528.32" font-family="Times New Roman,serif" font-size="14.00"> Score: 0.75</text>
<polygon fill="white" stroke="none" points="325.28,-543.88 325.28,-568.38 354.28,-568.38 354.28,-543.88 325.28,-543.88"/>
<text text-anchor="start" x="329.28" y="-551.08" font-family="Times New Roman,serif" font-size="14.00" fill="darkmagenta">0, 9</text>
</g>
<!-- 5&#45;&gt;3 -->
<g id="edge23" class="edge">
<title>5&#45;&gt;3</title>
<path fill="none" stroke="black" d="M202.39,-1203.3C202.15,-1197.42 201.94,-1191.27 201.81,-1185.51 201.25,-1159.75 199.58,-1153.2 201.81,-1127.53 203.48,-1108.32 207.23,-1086.96 210.56,-1070.39"/>
<polygon fill="black" stroke="black" points="213.96,-1071.26 212.57,-1060.76 207.1,-1069.83 213.96,-1071.26"/>
<polygon fill="white" stroke="none" points="170.82,-1129.48 170.82,-1153.98 199.82,-1153.98 199.82,-1129.48 170.82,-1129.48"/>
<text text-anchor="start" x="174.82" y="-1136.68" font-family="Times New Roman,serif" font-size="14.00" fill="darkmagenta">0, 0</text>
</g>
<!-- 8 -->
<g id="node19" class="node">
<title>8</title>
<ellipse fill="none" stroke="black" cx="287.81" cy="-1156.52" rx="77.08" ry="28.99"/>
<text text-anchor="middle" x="287.81" y="-1151.47" font-family="Times New Roman,serif" font-size="14.00">8. leap_year = True</text>
<text text-anchor="start" x="193.49" y="-1172.21" font-family="Times New Roman,serif" font-size="14.00" fill="darkorange">4,1</text>
</g>
<!-- 7&#45;&gt;8 -->
<g id="edge24" class="edge">
<title>7&#45;&gt;8</title>
<path fill="none" stroke="blue" stroke-width="1.53" d="M325.16,-1279.28C318.06,-1256.14 307.92,-1223.09 300,-1197.26"/>
<polygon fill="blue" stroke="blue" stroke-width="1.53" points="303.38,-1196.35 297.1,-1187.81 296.69,-1198.4 303.38,-1196.35"/>
<text text-anchor="middle" x="365.06" y="-1243.96" font-family="Times New Roman,serif" font-size="14.00">&quot;year % 4 == 0&quot;</text>
<text text-anchor="middle" x="365.06" y="-1227.46" font-family="Times New Roman,serif" font-size="14.00">c[5]</text>
<text text-anchor="middle" x="365.06" y="-1210.96" font-family="Times New Roman,serif" font-size="14.00"> Score: 0.12</text>
<polygon fill="white" stroke="none" points="288.07,-1206.02 288.07,-1230.52 317.07,-1230.52 317.07,-1206.02 288.07,-1206.02"/>
<text text-anchor="start" x="292.07" y="-1213.22" font-family="Times New Roman,serif" font-size="14.00" fill="darkmagenta">4, 1</text>
</g>
<!-- 10 -->
<g id="node20" class="node">
<title>10</title>
<ellipse fill="none" stroke="black" cx="462.81" cy="-1156.52" rx="79.73" ry="28.99"/>
<text text-anchor="middle" x="462.81" y="-1151.47" font-family="Times New Roman,serif" font-size="14.00">10. leap_year = False</text>
<text text-anchor="start" x="352.34" y="-1172.21" font-family="Times New Roman,serif" font-size="14.00" fill="darkorange">13,16</text>
</g>
<!-- 7&#45;&gt;10 -->
<g id="edge25" class="edge">
<title>7&#45;&gt;10</title>
<path fill="none" stroke="blue" stroke-width="3.64" d="M383.61,-1285.67C394.86,-1279.08 406.06,-1271.02 414.81,-1261.5 430.76,-1244.15 442.23,-1220.58 449.95,-1200.27"/>
<polygon fill="blue" stroke="blue" stroke-width="3.64" points="453.17,-1201.65 453.19,-1191.05 446.57,-1199.32 453.17,-1201.65"/>
<text text-anchor="middle" x="496.45" y="-1243.96" font-family="Times New Roman,serif" font-size="14.00">&quot;(year % 4 != 0)&quot;</text>
<text text-anchor="middle" x="496.45" y="-1227.46" font-family="Times New Roman,serif" font-size="14.00">c[6]</text>
<text text-anchor="middle" x="496.45" y="-1210.96" font-family="Times New Roman,serif" font-size="14.00"> Score: 0.6</text>
<polygon fill="white" stroke="none" points="408.15,-1215.77 408.15,-1240.27 450.65,-1240.27 450.65,-1215.77 408.15,-1215.77"/>
<text text-anchor="start" x="412.15" y="-1222.97" font-family="Times New Roman,serif" font-size="14.00" fill="darkmagenta">13, 16</text>
</g>
<!-- 8&#45;&gt;3 -->
<g id="edge26" class="edge">
<title>8&#45;&gt;3</title>
<path fill="none" stroke="blue" stroke-width="1.53" d="M270.62,-1128.05C259.54,-1110.34 245.19,-1087.39 234.09,-1069.65"/>
<polygon fill="blue" stroke="blue" stroke-width="1.53" points="237.16,-1067.95 228.89,-1061.33 231.22,-1071.67 237.16,-1067.95"/>
<text text-anchor="middle" x="291.67" y="-1080.23" font-family="Times New Roman,serif" font-size="14.00"> Score: 0.12</text>
<polygon fill="white" stroke="none" points="218.09,-1095.62 218.09,-1120.12 247.09,-1120.12 247.09,-1095.62 218.09,-1095.62"/>
<text text-anchor="start" x="222.09" y="-1102.82" font-family="Times New Roman,serif" font-size="14.00" fill="darkmagenta">4, 1</text>
</g>
<!-- 10&#45;&gt;3 -->
<g id="edge27" class="edge">
<title>10&#45;&gt;3</title>
<path fill="none" stroke="blue" stroke-width="3.64" d="M425.34,-1130.46C399.12,-1113.71 362.84,-1092.08 328.81,-1077.03 316.76,-1071.7 303.66,-1066.83 290.79,-1062.53"/>
<polygon fill="blue" stroke="blue" stroke-width="3.64" points="292.28,-1059.33 281.69,-1059.6 290.13,-1066 292.28,-1059.33"/>
<text text-anchor="middle" x="418.84" y="-1080.23" font-family="Times New Roman,serif" font-size="14.00"> Score: 0.6</text>
<polygon fill="white" stroke="none" points="344.13,-1062.46 344.13,-1086.96 386.63,-1086.96 386.63,-1062.46 344.13,-1062.46"/>
<text text-anchor="start" x="348.13" y="-1069.66" font-family="Times New Roman,serif" font-size="14.00" fill="darkmagenta">13, 16</text>
</g>
</g>
</svg>
