<?xml version="1.0" encoding="UTF-8" standalone="no"?>
<!DOCTYPE svg PUBLIC "-//W3C//DTD SVG 1.1//EN"
 "http://www.w3.org/Graphics/SVG/1.1/DTD/svg11.dtd">
<!-- Generated by graphviz version 12.1.0 (20240811.2233)
 -->
<!-- Title: clusterget_next_date Pages: 1 -->
<svg width="608pt" height="1640pt"
 viewBox="0.00 0.00 608.43 1640.46" xmlns="http://www.w3.org/2000/svg" xmlns:xlink="http://www.w3.org/1999/xlink">
<g id="graph0" class="graph" transform="scale(1 1) rotate(0) translate(4 1636.46)">
<title>clusterget_next_date</title>
<polygon fill="white" stroke="none" points="-4,4 -4,-1636.46 604.43,-1636.46 604.43,4 -4,4"/>
<text text-anchor="middle" x="300.21" y="-7.2" font-family="Times New Roman,serif" font-size="14.00">get_next_date</text>
<!-- 1 -->
<g id="node1" class="node">
<title>1</title>
<ellipse fill="none" stroke="black" cx="216.81" cy="-1586.97" rx="88.74" ry="28.99"/>
<text text-anchor="middle" x="216.81" y="-1581.92" font-family="Times New Roman,serif" font-size="14.00">1. if year % 400 == 0:</text>
<text text-anchor="start" x="97.32" y="-1602.66" font-family="Times New Roman,serif" font-size="14.00" fill="darkorange">17,17</text>
</g>
<!-- 4 -->
<g id="node2" class="node">
<title>4</title>
<ellipse fill="none" stroke="black" cx="216.81" cy="-1443.49" rx="88.74" ry="28.99"/>
<text text-anchor="middle" x="216.81" y="-1438.44" font-family="Times New Roman,serif" font-size="14.00">4. if year % 100 == 0:</text>
<text text-anchor="start" x="97.32" y="-1459.18" font-family="Times New Roman,serif" font-size="14.00" fill="darkorange">17,17</text>
</g>
<!-- 1&#45;&gt;4 -->
<g id="edge1" class="edge">
<title>1&#45;&gt;4</title>
<path fill="none" stroke="blue" stroke-width="3.51" d="M216.81,-1557.68C216.81,-1537.73 216.81,-1510.63 216.81,-1487.94"/>
<polygon fill="blue" stroke="blue" stroke-width="3.51" points="220.31,-1488.04 216.81,-1478.04 213.31,-1488.04 220.31,-1488.04"/>
<text text-anchor="middle" x="272.31" y="-1526.68" font-family="Times New Roman,serif" font-size="14.00">&quot;(year % 400 != 0)&quot;</text>
<text text-anchor="middle" x="272.31" y="-1510.18" font-family="Times New Roman,serif" font-size="14.00">c[2]</text>
<text text-anchor="middle" x="272.31" y="-1493.68" font-family="Times New Roman,serif" font-size="14.00"> Score: 0.57</text>
<polygon fill="white" stroke="none" points="172.31,-1517.29 172.31,-1541.79 214.81,-1541.79 214.81,-1517.29 172.31,-1517.29"/>
<text text-anchor="start" x="176.31" y="-1524.49" font-family="Times New Roman,serif" font-size="14.00" fill="darkmagenta">17, 17</text>
</g>
<!-- 7 -->
<g id="node16" class="node">
<title>7</title>
<ellipse fill="none" stroke="black" cx="216.81" cy="-1300.01" rx="79.2" ry="28.99"/>
<text text-anchor="middle" x="216.81" y="-1294.96" font-family="Times New Roman,serif" font-size="14.00">7. if year % 4 == 0:</text>
<text text-anchor="start" x="106.86" y="-1315.7" font-family="Times New Roman,serif" font-size="14.00" fill="darkorange">17,17</text>
</g>
<!-- 4&#45;&gt;7 -->
<g id="edge19" class="edge">
<title>4&#45;&gt;7</title>
<path fill="none" stroke="blue" stroke-width="3.51" d="M216.81,-1414.2C216.81,-1394.25 216.81,-1367.14 216.81,-1344.46"/>
<polygon fill="blue" stroke="blue" stroke-width="3.51" points="220.31,-1344.55 216.81,-1334.55 213.31,-1344.55 220.31,-1344.55"/>
<text text-anchor="middle" x="272.31" y="-1383.2" font-family="Times New Roman,serif" font-size="14.00">&quot;(year % 100 != 0)&quot;</text>
<text text-anchor="middle" x="272.31" y="-1366.7" font-family="Times New Roman,serif" font-size="14.00">c[4]</text>
<text text-anchor="middle" x="272.31" y="-1350.2" font-family="Times New Roman,serif" font-size="14.00"> Score: 0.57</text>
<polygon fill="white" stroke="none" points="172.31,-1373.8 172.31,-1398.3 214.81,-1398.3 214.81,-1373.8 172.31,-1373.8"/>
<text text-anchor="start" x="176.31" y="-1381" font-family="Times New Roman,serif" font-size="14.00" fill="darkmagenta">17, 17</text>
</g>
<!-- 3 -->
<g id="node3" class="node">
<title>3</title>
<ellipse fill="none" stroke="black" cx="216.81" cy="-1041.03" rx="146.04" ry="18"/>
<text text-anchor="middle" x="216.81" y="-1035.98" font-family="Times New Roman,serif" font-size="14.00">3. if month in (1, 3, 5, 7, 8, 10, 12):</text>
<text text-anchor="start" x="40.03" y="-1045.73" font-family="Times New Roman,serif" font-size="14.00" fill="darkorange">17,17</text>
</g>
<!-- 11 -->
<g id="node4" class="node">
<title>11</title>
<ellipse fill="none" stroke="black" cx="102.81" cy="-832.56" rx="85.56" ry="28.99"/>
<text text-anchor="middle" x="102.81" y="-827.51" font-family="Times New Roman,serif" font-size="14.00">11. month_length = 15</text>
<text text-anchor="start" x="0" y="-848.25" font-family="Times New Roman,serif" font-size="14.00" fill="darkorange">8,6</text>
</g>
<!-- 3&#45;&gt;11 -->
<g id="edge2" class="edge">
<title>3&#45;&gt;11</title>
<path fill="none" stroke="blue" stroke-width="2.54" d="M140.52,-1025.31C130.59,-1020.37 121.54,-1013.79 114.81,-1005.03 86.6,-968.31 88.18,-913.1 93.8,-875.31"/>
<polygon fill="blue" stroke="blue" stroke-width="2.54" points="97.24,-875.99 95.46,-865.54 90.33,-874.82 97.24,-875.99"/>
<text text-anchor="middle" x="204.81" y="-991.73" font-family="Times New Roman,serif" font-size="14.00">&quot;month in (1, 3, 5, 7, 8, 10, 12)&quot;</text>
<text text-anchor="middle" x="204.81" y="-975.23" font-family="Times New Roman,serif" font-size="14.00">c[7]</text>
<text text-anchor="middle" x="204.81" y="-958.73" font-family="Times New Roman,serif" font-size="14.00"> Score: 0.35</text>
<polygon fill="white" stroke="none" points="61.49,-949.61 61.49,-974.11 90.49,-974.11 90.49,-949.61 61.49,-949.61"/>
<text text-anchor="start" x="65.49" y="-956.81" font-family="Times New Roman,serif" font-size="14.00" fill="darkmagenta">8, 6</text>
</g>
<!-- 13 -->
<g id="node5" class="node">
<title>13</title>
<ellipse fill="none" stroke="black" cx="321.81" cy="-908.54" rx="69.12" ry="28.99"/>
<text text-anchor="middle" x="321.81" y="-903.49" font-family="Times New Roman,serif" font-size="14.00">13. if month == 2:</text>
<text text-anchor="start" x="228.69" y="-924.23" font-family="Times New Roman,serif" font-size="14.00" fill="darkorange">9,11</text>
</g>
<!-- 3&#45;&gt;13 -->
<g id="edge3" class="edge">
<title>3&#45;&gt;13</title>
<path fill="none" stroke="blue" stroke-width="3.29" d="M273.53,-1024.13C283.04,-1019.31 292.02,-1013.07 298.81,-1005.03 311.14,-990.46 317.08,-970.37 319.87,-952.38"/>
<polygon fill="blue" stroke="blue" stroke-width="3.29" points="323.33,-952.89 320.99,-942.55 316.38,-952.09 323.33,-952.89"/>
<text text-anchor="middle" x="424.08" y="-991.73" font-family="Times New Roman,serif" font-size="14.00">&quot;(month not in (1, 3, 5, 7, 8, 10, 12))&quot;</text>
<text text-anchor="middle" x="424.08" y="-975.23" font-family="Times New Roman,serif" font-size="14.00">c[8]</text>
<text text-anchor="middle" x="424.08" y="-958.73" font-family="Times New Roman,serif" font-size="14.00"> Score: 0.52</text>
<polygon fill="white" stroke="none" points="272.59,-988.3 272.59,-1012.8 308.34,-1012.8 308.34,-988.3 272.59,-988.3"/>
<text text-anchor="start" x="276.59" y="-995.5" font-family="Times New Roman,serif" font-size="14.00" fill="darkmagenta">9, 11</text>
</g>
<!-- 12 -->
<g id="node6" class="node">
<title>12</title>
<ellipse fill="none" stroke="black" cx="324.81" cy="-489.12" rx="111.74" ry="18"/>
<text text-anchor="middle" x="324.81" y="-484.07" font-family="Times New Roman,serif" font-size="14.00">12. if day &lt; month_length:</text>
<text text-anchor="start" x="182.32" y="-493.82" font-family="Times New Roman,serif" font-size="14.00" fill="darkorange">17,17</text>
</g>
<!-- 11&#45;&gt;12 -->
<g id="edge4" class="edge">
<title>11&#45;&gt;12</title>
<path fill="none" stroke="blue" stroke-width="2.54" d="M95.16,-803.45C83.13,-752.75 65.89,-644.81 114.81,-575.62 141.38,-538.05 187.46,-516.96 229.7,-505.14"/>
<polygon fill="blue" stroke="blue" stroke-width="2.54" points="230.44,-508.57 239.23,-502.66 228.68,-501.79 230.44,-508.57"/>
<text text-anchor="middle" x="118.43" y="-667.54" font-family="Times New Roman,serif" font-size="14.00"> Score: 0.35</text>
<polygon fill="white" stroke="none" points="83.81,-577.61 83.81,-602.11 112.81,-602.11 112.81,-577.61 83.81,-577.61"/>
<text text-anchor="start" x="87.81" y="-584.81" font-family="Times New Roman,serif" font-size="14.00" fill="darkmagenta">8, 6</text>
</g>
<!-- 14 -->
<g id="node12" class="node">
<title>14</title>
<ellipse fill="none" stroke="black" cx="321.81" cy="-756.57" rx="59.57" ry="28.99"/>
<text text-anchor="middle" x="321.81" y="-751.52" font-family="Times New Roman,serif" font-size="14.00">14. if leap_year:</text>
<text text-anchor="start" x="244.99" y="-772.27" font-family="Times New Roman,serif" font-size="14.00" fill="darkorange">3,9</text>
</g>
<!-- 13&#45;&gt;14 -->
<g id="edge12" class="edge">
<title>13&#45;&gt;14</title>
<path fill="none" stroke="blue" stroke-width="3.68" d="M321.81,-879.33C321.81,-857.41 321.81,-826.6 321.81,-801.46"/>
<polygon fill="blue" stroke="blue" stroke-width="3.68" points="325.31,-801.48 321.81,-791.48 318.31,-801.48 325.31,-801.48"/>
<text text-anchor="middle" x="360.81" y="-844.01" font-family="Times New Roman,serif" font-size="14.00">&quot;month == 2&quot;</text>
<text text-anchor="middle" x="360.81" y="-827.51" font-family="Times New Roman,serif" font-size="14.00">c[9]</text>
<text text-anchor="middle" x="360.81" y="-811.01" font-family="Times New Roman,serif" font-size="14.00"> Score: 0.61</text>
<polygon fill="white" stroke="none" points="290.81,-834.65 290.81,-859.15 319.81,-859.15 319.81,-834.65 290.81,-834.65"/>
<text text-anchor="start" x="294.81" y="-841.85" font-family="Times New Roman,serif" font-size="14.00" fill="darkmagenta">3, 9</text>
</g>
<!-- 16 -->
<g id="node13" class="node">
<title>16</title>
<ellipse fill="none" stroke="black" cx="509.81" cy="-680.59" rx="85.56" ry="28.99"/>
<text text-anchor="middle" x="509.81" y="-675.54" font-family="Times New Roman,serif" font-size="14.00">16. month_length = 30</text>
<text text-anchor="start" x="407" y="-696.28" font-family="Times New Roman,serif" font-size="14.00" fill="darkorange">6,2</text>
</g>
<!-- 13&#45;&gt;16 -->
<g id="edge13" class="edge">
<title>13&#45;&gt;16</title>
<path fill="none" stroke="blue" stroke-width="1.75" d="M368.57,-886.86C380.94,-879.98 393.66,-871.48 403.81,-861.55 445.37,-820.86 476.47,-760.51 493.89,-721.11"/>
<polygon fill="blue" stroke="blue" stroke-width="1.75" points="497.06,-722.6 497.81,-712.03 490.64,-719.82 497.06,-722.6"/>
<text text-anchor="middle" x="491.09" y="-844.01" font-family="Times New Roman,serif" font-size="14.00">&quot;(month != 2)&quot;</text>
<text text-anchor="middle" x="491.09" y="-827.51" font-family="Times New Roman,serif" font-size="14.00">c[12]</text>
<text text-anchor="middle" x="491.09" y="-811.01" font-family="Times New Roman,serif" font-size="14.00"> Score: 0.17</text>
<polygon fill="white" stroke="none" points="416.53,-809.29 416.53,-833.79 445.53,-833.79 445.53,-809.29 416.53,-809.29"/>
<text text-anchor="start" x="420.53" y="-816.49" font-family="Times New Roman,serif" font-size="14.00" fill="darkmagenta">6, 2</text>
</g>
<!-- 20 -->
<g id="node7" class="node">
<title>20</title>
<ellipse fill="none" stroke="black" cx="251.81" cy="-257.31" rx="53.21" ry="28.99"/>
<text text-anchor="middle" x="251.81" y="-252.26" font-family="Times New Roman,serif" font-size="14.00">20. day += 1</text>
<text text-anchor="start" x="174.6" y="-273" font-family="Times New Roman,serif" font-size="14.00" fill="darkorange">17,3</text>
</g>
<!-- 12&#45;&gt;20 -->
<g id="edge5" class="edge">
<title>12&#45;&gt;20</title>
<path fill="none" stroke="blue" stroke-width="1.57" d="M271.05,-472.89C262.23,-467.99 254.22,-461.56 248.81,-453.12 218.99,-406.55 228.48,-340.02 239.23,-298.01"/>
<polygon fill="blue" stroke="blue" stroke-width="1.57" points="242.61,-298.93 241.87,-288.36 235.86,-297.09 242.61,-298.93"/>
<text text-anchor="middle" x="310.31" y="-439.82" font-family="Times New Roman,serif" font-size="14.00">&quot;day &lt; month_length&quot;</text>
<text text-anchor="middle" x="310.31" y="-423.32" font-family="Times New Roman,serif" font-size="14.00">c[13]</text>
<text text-anchor="middle" x="310.31" y="-406.82" font-family="Times New Roman,serif" font-size="14.00"> Score: 0.13</text>
<polygon fill="white" stroke="none" points="191.15,-382.36 191.15,-406.86 226.9,-406.86 226.9,-382.36 191.15,-382.36"/>
<text text-anchor="start" x="195.15" y="-389.56" font-family="Times New Roman,serif" font-size="14.00" fill="darkmagenta">17, 3</text>
</g>
<!-- 22 -->
<g id="node8" class="node">
<title>22</title>
<ellipse fill="none" stroke="black" cx="397.81" cy="-344.96" rx="73.89" ry="40.66"/>
<text text-anchor="middle" x="397.81" y="-348.16" font-family="Times New Roman,serif" font-size="14.00">22. day = 1</text>
<text text-anchor="middle" x="397.81" y="-331.66" font-family="Times New Roman,serif" font-size="14.00">if month == 12:</text>
<text text-anchor="start" x="299.92" y="-372.32" font-family="Times New Roman,serif" font-size="14.00" fill="darkorange">0,14</text>
</g>
<!-- 12&#45;&gt;22 -->
<g id="edge6" class="edge">
<title>12&#45;&gt;22</title>
<path fill="none" stroke="red" stroke-width="5" d="M356.98,-471.57C364.13,-466.53 371,-460.36 375.81,-453.12 385.81,-438.05 391.42,-419.37 394.51,-401.84"/>
<polygon fill="red" stroke="red" stroke-width="5" points="398.83,-402.57 395.88,-392.06 390.16,-401.36 398.83,-402.57"/>
<text text-anchor="middle" x="463.78" y="-439.82" font-family="Times New Roman,serif" font-size="14.00">&quot;(day &gt;= month_length)&quot;</text>
<text text-anchor="middle" x="463.78" y="-423.32" font-family="Times New Roman,serif" font-size="14.00">c[14]</text>
<text text-anchor="middle" x="463.78" y="-406.82" font-family="Times New Roman,serif" font-size="14.00"> Score: 0.91</text>
<polygon fill="white" stroke="none" points="358.45,-405.98 358.45,-430.48 394.2,-430.48 394.2,-405.98 358.45,-405.98"/>
<text text-anchor="start" x="362.45" y="-413.18" font-family="Times New Roman,serif" font-size="14.00" fill="darkmagenta">0, 14</text>
</g>
<!-- 21 -->
<g id="node9" class="node">
<title>21</title>
<ellipse fill="none" stroke="black" cx="390.81" cy="-42.5" rx="112.77" ry="18"/>
<text text-anchor="middle" x="390.81" y="-37.45" font-family="Times New Roman,serif" font-size="14.00">21. return day, month, year</text>
<text text-anchor="start" x="247.29" y="-47.2" font-family="Times New Roman,serif" font-size="14.00" fill="darkorange">17,17</text>
</g>
<!-- 20&#45;&gt;21 -->
<g id="edge7" class="edge">
<title>20&#45;&gt;21</title>
<path fill="none" stroke="blue" stroke-width="1.57" d="M247.01,-228.16C243.84,-200.89 243.06,-159.3 260.81,-129 277.92,-99.78 309.45,-78.67 337.17,-64.74"/>
<polygon fill="blue" stroke="blue" stroke-width="1.57" points="338.31,-68.08 345.82,-60.6 335.29,-61.76 338.31,-68.08"/>
<text text-anchor="middle" x="293.81" y="-156.61" font-family="Times New Roman,serif" font-size="14.00"> Score: 0.13</text>
<polygon fill="white" stroke="none" points="227.78,-123.65 227.78,-148.15 263.53,-148.15 263.53,-123.65 227.78,-123.65"/>
<text text-anchor="start" x="231.78" y="-130.85" font-family="Times New Roman,serif" font-size="14.00" fill="darkmagenta">17, 3</text>
</g>
<!-- 23 -->
<g id="node10" class="node">
<title>23</title>
<ellipse fill="none" stroke="black" cx="390.81" cy="-169.66" rx="54.86" ry="40.66"/>
<text text-anchor="middle" x="390.81" y="-172.86" font-family="Times New Roman,serif" font-size="14.00">23. month = 1</text>
<text text-anchor="middle" x="390.81" y="-156.36" font-family="Times New Roman,serif" font-size="14.00">year += 1</text>
<text text-anchor="start" x="318.7" y="-197.02" font-family="Times New Roman,serif" font-size="14.00" fill="darkorange">0,1</text>
</g>
<!-- 22&#45;&gt;23 -->
<g id="edge8" class="edge">
<title>22&#45;&gt;23</title>
<path fill="none" stroke="red" stroke-width="2.89" d="M396.21,-304.2C395.25,-280.62 394.03,-250.4 392.99,-224.68"/>
<polygon fill="red" stroke="red" stroke-width="2.89" points="396.5,-224.75 392.6,-214.9 389.5,-225.04 396.5,-224.75"/>
<text text-anchor="middle" x="437.72" y="-268.76" font-family="Times New Roman,serif" font-size="14.00">&quot;month == 12&quot;</text>
<text text-anchor="middle" x="437.72" y="-252.26" font-family="Times New Roman,serif" font-size="14.00">c[15]</text>
<text text-anchor="middle" x="437.72" y="-235.76" font-family="Times New Roman,serif" font-size="14.00"> Score: 0.43</text>
<polygon fill="white" stroke="none" points="363.31,-259.18 363.31,-283.68 392.31,-283.68 392.31,-259.18 363.31,-259.18"/>
<text text-anchor="start" x="367.31" y="-266.38" font-family="Times New Roman,serif" font-size="14.00" fill="darkmagenta">0, 1</text>
</g>
<!-- 25 -->
<g id="node11" class="node">
<title>25</title>
<ellipse fill="none" stroke="black" cx="521.81" cy="-169.66" rx="57.98" ry="28.99"/>
<text text-anchor="middle" x="521.81" y="-164.61" font-family="Times New Roman,serif" font-size="14.00">25. month += 1</text>
<text text-anchor="start" x="463.83" y="-185.35" font-family="Times New Roman,serif" font-size="14.00" fill="darkorange">0,13</text>
</g>
<!-- 22&#45;&gt;25 -->
<g id="edge9" class="edge">
<title>22&#45;&gt;25</title>
<path fill="none" stroke="red" stroke-width="4.87" d="M450.65,-316.53C462.88,-308.18 474.9,-298.04 483.81,-286.3 499.64,-265.43 509.04,-237.67 514.54,-214.58"/>
<polygon fill="red" stroke="red" stroke-width="4.87" points="518.7,-215.5 516.6,-204.83 510.36,-213.73 518.7,-215.5"/>
<text text-anchor="middle" x="555.43" y="-268.76" font-family="Times New Roman,serif" font-size="14.00">&quot;(month != 12)&quot;</text>
<text text-anchor="middle" x="555.43" y="-252.26" font-family="Times New Roman,serif" font-size="14.00">c[16]</text>
<text text-anchor="middle" x="555.43" y="-235.76" font-family="Times New Roman,serif" font-size="14.00"> Score: 0.88</text>
<polygon fill="white" stroke="none" points="469.59,-237.44 469.59,-261.94 505.34,-261.94 505.34,-237.44 469.59,-237.44"/>
<text text-anchor="start" x="473.59" y="-244.64" font-family="Times New Roman,serif" font-size="14.00" fill="darkmagenta">0, 13</text>
</g>
<!-- 23&#45;&gt;21 -->
<g id="edge10" class="edge">
<title>23&#45;&gt;21</title>
<path fill="none" stroke="red" stroke-width="2.89" d="M390.81,-128.71C390.81,-111.36 390.81,-91.33 390.81,-75.05"/>
<polygon fill="red" stroke="red" stroke-width="2.89" points="394.31,-75.18 390.81,-65.18 387.31,-75.18 394.31,-75.18"/>
<text text-anchor="middle" x="423.81" y="-81.7" font-family="Times New Roman,serif" font-size="14.00"> Score: 0.43</text>
<polygon fill="white" stroke="none" points="359.81,-97.04 359.81,-121.54 388.81,-121.54 388.81,-97.04 359.81,-97.04"/>
<text text-anchor="start" x="363.81" y="-104.24" font-family="Times New Roman,serif" font-size="14.00" fill="darkmagenta">0, 1</text>
</g>
<!-- 25&#45;&gt;21 -->
<g id="edge11" class="edge">
<title>25&#45;&gt;21</title>
<path fill="none" stroke="red" stroke-width="4.87" d="M508.07,-141.06C497.32,-121.63 480.85,-96.07 460.81,-78.5 456.17,-74.43 450.98,-70.71 445.57,-67.33"/>
<polygon fill="red" stroke="red" stroke-width="4.87" points="448.11,-63.87 437.31,-62.7 443.95,-71.31 448.11,-63.87"/>
<text text-anchor="middle" x="521.32" y="-81.7" font-family="Times New Roman,serif" font-size="14.00"> Score: 0.88</text>
<polygon fill="white" stroke="none" points="448.59,-67.92 448.59,-92.42 484.34,-92.42 484.34,-67.92 448.59,-67.92"/>
<text text-anchor="start" x="452.59" y="-75.12" font-family="Times New Roman,serif" font-size="14.00" fill="darkmagenta">0, 13</text>
</g>
<!-- 17 -->
<g id="node14" class="node">
<title>17</title>
<ellipse fill="none" stroke="black" cx="209.81" cy="-604.61" rx="85.56" ry="28.99"/>
<text text-anchor="middle" x="209.81" y="-599.56" font-family="Times New Roman,serif" font-size="14.00">17. month_length = 29</text>
<text text-anchor="start" x="107" y="-620.3" font-family="Times New Roman,serif" font-size="14.00" fill="darkorange">3,0</text>
</g>
<!-- 14&#45;&gt;17 -->
<g id="edge14" class="edge">
<title>14&#45;&gt;17</title>
<path fill="none" stroke="#429e6a" d="M282.65,-734.36C272.46,-727.47 262.15,-719.11 254.31,-709.58 238.77,-690.69 227.81,-665.56 220.66,-644.73"/>
<polygon fill="#429e6a" stroke="#429e6a" points="224.05,-643.85 217.64,-635.42 217.4,-646.02 224.05,-643.85"/>
<text text-anchor="middle" x="280.56" y="-683.79" font-family="Times New Roman,serif" font-size="14.00">leap_year</text>
<text text-anchor="middle" x="280.56" y="-667.29" font-family="Times New Roman,serif" font-size="14.00">c[10]</text>
<polygon fill="white" stroke="none" points="209.76,-691.85 209.76,-716.35 238.76,-716.35 238.76,-691.85 209.76,-691.85"/>
<text text-anchor="start" x="213.76" y="-699.05" font-family="Times New Roman,serif" font-size="14.00" fill="darkmagenta">3, 0</text>
</g>
<!-- 19 -->
<g id="node15" class="node">
<title>19</title>
<ellipse fill="none" stroke="black" cx="393.81" cy="-604.61" rx="80.79" ry="28.99"/>
<text text-anchor="middle" x="393.81" y="-599.56" font-family="Times New Roman,serif" font-size="14.00">19. month_length = 5</text>
<text text-anchor="start" x="295.77" y="-562.32" font-family="Times New Roman,serif" font-size="14.00" fill="darkorange">0,9</text>
</g>
<!-- 14&#45;&gt;19 -->
<g id="edge15" class="edge">
<title>14&#45;&gt;19</title>
<path fill="none" stroke="red" stroke-width="4.3" d="M314.23,-727.7C309.86,-705.65 307.45,-674.81 320.31,-651.6 323.18,-646.42 326.9,-641.75 331.14,-637.55"/>
<polygon fill="red" stroke="red" stroke-width="4.3" points="333.31,-640.64 338.65,-631.39 328.53,-634.83 333.31,-640.64"/>
<text text-anchor="middle" x="367.56" y="-692.04" font-family="Times New Roman,serif" font-size="14.00">&quot;(not leap_year)&quot;</text>
<text text-anchor="middle" x="367.56" y="-675.54" font-family="Times New Roman,serif" font-size="14.00">c[11]</text>
<text text-anchor="middle" x="367.56" y="-659.04" font-family="Times New Roman,serif" font-size="14.00"> Score: 0.75</text>
<polygon fill="white" stroke="none" points="289.68,-647.98 289.68,-672.48 318.68,-672.48 318.68,-647.98 289.68,-647.98"/>
<text text-anchor="start" x="293.68" y="-655.18" font-family="Times New Roman,serif" font-size="14.00" fill="darkmagenta">0, 9</text>
</g>
<!-- 16&#45;&gt;12 -->
<g id="edge18" class="edge">
<title>16&#45;&gt;12</title>
<path fill="none" stroke="blue" stroke-width="1.75" d="M506.72,-651.24C503.42,-629.48 496.81,-599.26 483.81,-575.62 468.9,-548.48 462.08,-541.52 435.81,-525.12 425.03,-518.39 412.85,-512.85 400.6,-508.33"/>
<polygon fill="blue" stroke="blue" stroke-width="1.75" points="401.98,-505.1 391.38,-505.16 399.7,-511.72 401.98,-505.1"/>
<text text-anchor="middle" x="536.28" y="-591.56" font-family="Times New Roman,serif" font-size="14.00"> Score: 0.17</text>
<polygon fill="white" stroke="none" points="442.64,-531.97 442.64,-556.47 471.64,-556.47 471.64,-531.97 442.64,-531.97"/>
<text text-anchor="start" x="446.64" y="-539.17" font-family="Times New Roman,serif" font-size="14.00" fill="darkmagenta">6, 2</text>
</g>
<!-- 17&#45;&gt;12 -->
<g id="edge16" class="edge">
<title>17&#45;&gt;12</title>
<path fill="none" stroke="#429e6a" d="M237.06,-576.71C255.96,-558.07 280.94,-533.41 299.41,-515.18"/>
<polygon fill="#429e6a" stroke="#429e6a" points="301.66,-517.88 306.32,-508.36 296.75,-512.9 301.66,-517.88"/>
<polygon fill="white" stroke="none" points="241.23,-544.01 241.23,-568.51 270.23,-568.51 270.23,-544.01 241.23,-544.01"/>
<text text-anchor="start" x="245.23" y="-551.21" font-family="Times New Roman,serif" font-size="14.00" fill="darkmagenta">3, 0</text>
</g>
<!-- 19&#45;&gt;12 -->
<g id="edge17" class="edge">
<title>19&#45;&gt;12</title>
<path fill="none" stroke="red" stroke-width="4.3" d="M376.93,-575.85C366.82,-559.22 353.95,-538.05 343.53,-520.9"/>
<polygon fill="red" stroke="red" stroke-width="4.3" points="346.88,-519.18 338.47,-512.58 340.45,-523.08 346.88,-519.18"/>
<text text-anchor="middle" x="398.49" y="-528.32" font-family="Times New Roman,serif" font-size="14.00"> Score: 0.75</text>
<polygon fill="white" stroke="none" points="325.28,-543.88 325.28,-568.38 354.28,-568.38 354.28,-543.88 325.28,-543.88"/>
<text text-anchor="start" x="329.28" y="-551.08" font-family="Times New Roman,serif" font-size="14.00" fill="darkmagenta">0, 9</text>
</g>
<!-- 8 -->
<g id="node17" class="node">
<title>8</title>
<ellipse fill="none" stroke="black" cx="129.81" cy="-1156.52" rx="77.08" ry="28.99"/>
<text text-anchor="middle" x="129.81" y="-1151.47" font-family="Times New Roman,serif" font-size="14.00">8. leap_year = True</text>
<text text-anchor="start" x="35.49" y="-1172.21" font-family="Times New Roman,serif" font-size="14.00" fill="darkorange">4,1</text>
</g>
<!-- 7&#45;&gt;8 -->
<g id="edge20" class="edge">
<title>7&#45;&gt;8</title>
<path fill="none" stroke="blue" stroke-width="1.53" d="M190.59,-1272.33C185.28,-1266.24 179.97,-1259.61 175.56,-1253.01 163.83,-1235.46 153.42,-1214.44 145.5,-1196.59"/>
<polygon fill="blue" stroke="blue" stroke-width="1.53" points="148.76,-1195.31 141.59,-1187.52 142.34,-1198.08 148.76,-1195.31"/>
<text text-anchor="middle" x="221.69" y="-1239.71" font-family="Times New Roman,serif" font-size="14.00">&quot;year % 4 == 0&quot;</text>
<text text-anchor="middle" x="221.69" y="-1223.21" font-family="Times New Roman,serif" font-size="14.00">c[5]</text>
<text text-anchor="middle" x="221.69" y="-1206.71" font-family="Times New Roman,serif" font-size="14.00"> Score: 0.12</text>
<polygon fill="white" stroke="none" points="131.24,-1232.8 131.24,-1257.3 160.24,-1257.3 160.24,-1232.8 131.24,-1232.8"/>
<text text-anchor="start" x="135.24" y="-1240" font-family="Times New Roman,serif" font-size="14.00" fill="darkmagenta">4, 1</text>
</g>
<!-- 10 -->
<g id="node18" class="node">
<title>10</title>
<ellipse fill="none" stroke="black" cx="304.81" cy="-1156.52" rx="79.73" ry="28.99"/>
<text text-anchor="middle" x="304.81" y="-1151.47" font-family="Times New Roman,serif" font-size="14.00">10. leap_year = False</text>
<text text-anchor="start" x="194.34" y="-1172.21" font-family="Times New Roman,serif" font-size="14.00" fill="darkorange">13,16</text>
</g>
<!-- 7&#45;&gt;10 -->
<g id="edge21" class="edge">
<title>7&#45;&gt;10</title>
<path fill="none" stroke="blue" stroke-width="3.64" d="M249.9,-1273.34C256.43,-1267.19 262.81,-1260.28 267.81,-1253.01 278.76,-1237.13 287.07,-1217.56 293.02,-1200.27"/>
<polygon fill="blue" stroke="blue" stroke-width="3.64" points="296.35,-1201.36 296.06,-1190.77 289.68,-1199.23 296.35,-1201.36"/>
<text text-anchor="middle" x="339.85" y="-1239.71" font-family="Times New Roman,serif" font-size="14.00">&quot;(year % 4 != 0)&quot;</text>
<text text-anchor="middle" x="339.85" y="-1223.21" font-family="Times New Roman,serif" font-size="14.00">c[6]</text>
<text text-anchor="middle" x="339.85" y="-1206.71" font-family="Times New Roman,serif" font-size="14.00"> Score: 0.6</text>
<polygon fill="white" stroke="none" points="270.03,-1206.15 270.03,-1230.65 312.53,-1230.65 312.53,-1206.15 270.03,-1206.15"/>
<text text-anchor="start" x="274.03" y="-1213.35" font-family="Times New Roman,serif" font-size="14.00" fill="darkmagenta">13, 16</text>
</g>
<!-- 8&#45;&gt;3 -->
<g id="edge22" class="edge">
<title>8&#45;&gt;3</title>
<path fill="none" stroke="blue" stroke-width="1.53" d="M150.65,-1128.34C164.5,-1110.27 182.6,-1086.67 196.36,-1068.71"/>
<polygon fill="blue" stroke="blue" stroke-width="1.53" points="198.99,-1071.03 202.3,-1060.96 193.44,-1066.77 198.99,-1071.03"/>
<text text-anchor="middle" x="221.67" y="-1080.23" font-family="Times New Roman,serif" font-size="14.00"> Score: 0.12</text>
<polygon fill="white" stroke="none" points="146.27,-1095.61 146.27,-1120.11 175.27,-1120.11 175.27,-1095.61 146.27,-1095.61"/>
<text text-anchor="start" x="150.27" y="-1102.81" font-family="Times New Roman,serif" font-size="14.00" fill="darkmagenta">4, 1</text>
</g>
<!-- 10&#45;&gt;3 -->
<g id="edge23" class="edge">
<title>10&#45;&gt;3</title>
<path fill="none" stroke="blue" stroke-width="3.64" d="M291.42,-1127.47C283.2,-1111.77 271.78,-1092.33 258.81,-1077.03 256.62,-1074.44 254.22,-1071.9 251.71,-1069.43"/>
<polygon fill="blue" stroke="blue" stroke-width="3.64" points="254.23,-1066.99 244.45,-1062.91 249.56,-1072.2 254.23,-1066.99"/>
<text text-anchor="middle" x="309.9" y="-1080.23" font-family="Times New Roman,serif" font-size="14.00"> Score: 0.6</text>
<polygon fill="white" stroke="none" points="236.76,-1064.65 236.76,-1089.15 279.26,-1089.15 279.26,-1064.65 236.76,-1064.65"/>
<text text-anchor="start" x="240.76" y="-1071.85" font-family="Times New Roman,serif" font-size="14.00" fill="darkmagenta">13, 16</text>
</g>
</g>
</svg>
