<?xml version="1.0" encoding="UTF-8" standalone="no"?>
<!DOCTYPE svg PUBLIC "-//W3C//DTD SVG 1.1//EN"
 "http://www.w3.org/Graphics/SVG/1.1/DTD/svg11.dtd">
<!-- Generated by graphviz version 10.0.1 (20240210.2158)
 -->
<!-- Title: clusterget_next_date Pages: 1 -->
<svg width="570pt" height="1395pt"
 viewBox="0.00 0.00 570.37 1395.38" xmlns="http://www.w3.org/2000/svg" xmlns:xlink="http://www.w3.org/1999/xlink">
<g id="graph0" class="graph" transform="scale(1 1) rotate(0) translate(4 1391.38)">
<title>clusterget_next_date</title>
<polygon fill="white" stroke="none" points="-4,4 -4,-1391.38 566.37,-1391.38 566.37,4 -4,4"/>
<text text-anchor="middle" x="281.19" y="-6.9" font-family="Times New Roman,serif" font-size="8.00">get_next_date</text>
<!-- 1 -->
<g id="node1" class="node">
<title>1</title>
<ellipse fill="none" stroke="black" cx="178.81" cy="-1348.95" rx="87.68" ry="27.93"/>
<text text-anchor="middle" x="178.81" y="-1346.6" font-family="Times New Roman,serif" font-size="8.00">1. if year % 400 == 0:</text>
<text text-anchor="start" x="70.88" y="-1369.28" font-family="Times New Roman,serif" font-size="8.00" fill="darkorange">17,17</text>
</g>
<!-- 4 -->
<g id="node2" class="node">
<title>4</title>
<ellipse fill="none" stroke="black" cx="178.81" cy="-1236.09" rx="87.68" ry="27.93"/>
<text text-anchor="middle" x="178.81" y="-1233.74" font-family="Times New Roman,serif" font-size="8.00">4. if year % 100 == 0:</text>
<text text-anchor="start" x="70.88" y="-1256.42" font-family="Times New Roman,serif" font-size="8.00" fill="darkorange">17,17</text>
</g>
<!-- 1&#45;&gt;4 -->
<g id="edge1" class="edge">
<title>1&#45;&gt;4</title>
<path fill="none" stroke="blue" d="M178.81,-1320.55C178.81,-1306.99 178.81,-1290.39 178.81,-1275.58"/>
<polygon fill="blue" stroke="blue" points="182.31,-1275.69 178.81,-1265.69 175.31,-1275.69 182.31,-1275.69"/>
<text text-anchor="middle" x="213.69" y="-1295.42" font-family="Times New Roman,serif" font-size="8.00">&quot;(year % 400 != 0)&quot;</text>
<text text-anchor="middle" x="213.69" y="-1284.92" font-family="Times New Roman,serif" font-size="8.00">c[2]</text>
<text text-anchor="start" x="147.31" y="-1284.78" font-family="Times New Roman,serif" font-size="8.00" fill="darkmagenta"> &#160;17,17 &#160;&#160;</text>
</g>
<!-- 7 -->
<g id="node16" class="node">
<title>7</title>
<ellipse fill="none" stroke="black" cx="178.81" cy="-1123.23" rx="78.13" ry="27.93"/>
<text text-anchor="middle" x="178.81" y="-1120.88" font-family="Times New Roman,serif" font-size="8.00">7. if year % 4 == 0:</text>
<text text-anchor="start" x="80.43" y="-1143.56" font-family="Times New Roman,serif" font-size="8.00" fill="darkorange">17,17</text>
</g>
<!-- 4&#45;&gt;7 -->
<g id="edge19" class="edge">
<title>4&#45;&gt;7</title>
<path fill="none" stroke="blue" d="M178.81,-1207.69C178.81,-1194.13 178.81,-1177.53 178.81,-1162.72"/>
<polygon fill="blue" stroke="blue" points="182.31,-1162.83 178.81,-1152.83 175.31,-1162.83 182.31,-1162.83"/>
<text text-anchor="middle" x="213.69" y="-1182.56" font-family="Times New Roman,serif" font-size="8.00">&quot;(year % 100 != 0)&quot;</text>
<text text-anchor="middle" x="213.69" y="-1172.06" font-family="Times New Roman,serif" font-size="8.00">c[4]</text>
<text text-anchor="start" x="147.31" y="-1171.92" font-family="Times New Roman,serif" font-size="8.00" fill="darkmagenta"> &#160;17,17 &#160;&#160;</text>
</g>
<!-- 3 -->
<g id="node3" class="node">
<title>3</title>
<ellipse fill="none" stroke="black" cx="178.81" cy="-916.94" rx="131.4" ry="18"/>
<text text-anchor="middle" x="178.81" y="-914.59" font-family="Times New Roman,serif" font-size="8.00">3. if month in (1, 3, 5, 7, 8, 10, 12):</text>
<text text-anchor="start" x="27.16" y="-927.34" font-family="Times New Roman,serif" font-size="8.00" fill="darkorange">17,17</text>
</g>
<!-- 11 -->
<g id="node4" class="node">
<title>11</title>
<ellipse fill="none" stroke="black" cx="96.81" cy="-729.64" rx="85.56" ry="27.93"/>
<text text-anchor="middle" x="96.81" y="-727.29" font-family="Times New Roman,serif" font-size="8.00">11. month_length = 15</text>
<text text-anchor="start" x="0" y="-749.97" font-family="Times New Roman,serif" font-size="8.00" fill="darkorange">8,6</text>
</g>
<!-- 3&#45;&gt;11 -->
<g id="edge2" class="edge">
<title>3&#45;&gt;11</title>
<path fill="none" stroke="blue" d="M131.51,-899.83C123.25,-894.99 115.62,-888.79 110.31,-880.94 88.18,-848.16 87.45,-801.78 90.59,-769.23"/>
<polygon fill="blue" stroke="blue" points="94.05,-769.76 91.71,-759.42 87.09,-768.96 94.05,-769.76"/>
<text text-anchor="middle" x="168.56" y="-868.09" font-family="Times New Roman,serif" font-size="8.00">&quot;month in (1, 3, 5, 7, 8, 10, 12)&quot;</text>
<text text-anchor="middle" x="168.56" y="-857.59" font-family="Times New Roman,serif" font-size="8.00">c[7]</text>
<text text-anchor="start" x="69.51" y="-824.34" font-family="Times New Roman,serif" font-size="8.00" fill="darkmagenta"> &#160;8,6 &#160;&#160;</text>
</g>
<!-- 13 -->
<g id="node5" class="node">
<title>13</title>
<ellipse fill="none" stroke="black" cx="274.81" cy="-803.51" rx="68.06" ry="27.93"/>
<text text-anchor="middle" x="274.81" y="-801.16" font-family="Times New Roman,serif" font-size="8.00">13. if month == 2:</text>
<text text-anchor="start" x="191" y="-823.84" font-family="Times New Roman,serif" font-size="8.00" fill="darkorange">9,11</text>
</g>
<!-- 3&#45;&gt;13 -->
<g id="edge3" class="edge">
<title>3&#45;&gt;13</title>
<path fill="none" stroke="blue" stroke-width="3.08" d="M208.08,-899.07C215.69,-893.85 223.51,-887.69 229.81,-880.94 239.95,-870.07 248.83,-856.54 255.97,-843.9"/>
<polygon fill="blue" stroke="blue" stroke-width="3.08" points="258.94,-845.77 260.57,-835.3 252.77,-842.47 258.94,-845.77"/>
<text text-anchor="middle" x="319.69" y="-873.34" font-family="Times New Roman,serif" font-size="8.00">&quot;(month not in (1, 3, 5, 7, 8, 10, 12))&quot;</text>
<text text-anchor="middle" x="319.69" y="-862.84" font-family="Times New Roman,serif" font-size="8.00">c[8]</text>
<text text-anchor="middle" x="319.69" y="-852.34" font-family="Times New Roman,serif" font-size="8.00">Score: 0.52</text>
<text text-anchor="start" x="226.73" y="-850.26" font-family="Times New Roman,serif" font-size="8.00" fill="darkmagenta"> &#160;9,11 &#160;&#160;</text>
</g>
<!-- 12 -->
<g id="node6" class="node">
<title>12</title>
<ellipse fill="none" stroke="black" cx="309.81" cy="-425.13" rx="94.47" ry="18"/>
<text text-anchor="middle" x="309.81" y="-422.78" font-family="Times New Roman,serif" font-size="8.00">12. if day &lt; month_length:</text>
<text text-anchor="start" x="195.09" y="-435.53" font-family="Times New Roman,serif" font-size="8.00" fill="darkorange">17,17</text>
</g>
<!-- 11&#45;&gt;12 -->
<g id="edge4" class="edge">
<title>11&#45;&gt;12</title>
<path fill="none" stroke="blue" d="M87.57,-701.64C72.42,-651.94 48.79,-545.12 99.81,-480.13 115.29,-460.41 171.5,-446.6 221.87,-437.88"/>
<polygon fill="blue" stroke="blue" points="222.4,-441.34 231.68,-436.24 221.24,-434.43 222.4,-441.34"/>
<text text-anchor="start" x="77.31" y="-472.53" font-family="Times New Roman,serif" font-size="8.00" fill="darkmagenta"> &#160;8,6 &#160;&#160;</text>
</g>
<!-- 14 -->
<g id="node12" class="node">
<title>14</title>
<ellipse fill="none" stroke="black" cx="274.81" cy="-655.78" rx="59.04" ry="27.93"/>
<text text-anchor="middle" x="274.81" y="-653.43" font-family="Times New Roman,serif" font-size="8.00">14. if leap_year:</text>
<text text-anchor="start" x="204.52" y="-676.11" font-family="Times New Roman,serif" font-size="8.00" fill="darkorange">3,9</text>
</g>
<!-- 13&#45;&gt;14 -->
<g id="edge12" class="edge">
<title>13&#45;&gt;14</title>
<path fill="none" stroke="blue" stroke-width="3.76" d="M274.81,-775.1C274.81,-753.83 274.81,-723.95 274.81,-699.55"/>
<polygon fill="blue" stroke="blue" stroke-width="3.76" points="278.31,-699.76 274.81,-689.76 271.31,-699.76 278.31,-699.76"/>
<text text-anchor="middle" x="299.19" y="-737.79" font-family="Times New Roman,serif" font-size="8.00">&quot;month == 2&quot;</text>
<text text-anchor="middle" x="299.19" y="-727.29" font-family="Times New Roman,serif" font-size="8.00">c[9]</text>
<text text-anchor="middle" x="299.19" y="-716.79" font-family="Times New Roman,serif" font-size="8.00">Score: 0.69</text>
<text text-anchor="start" x="252.31" y="-721.59" font-family="Times New Roman,serif" font-size="8.00" fill="darkmagenta"> &#160;3,9 &#160;&#160;</text>
</g>
<!-- 16 -->
<g id="node13" class="node">
<title>16</title>
<ellipse fill="none" stroke="black" cx="476.81" cy="-581.92" rx="85.56" ry="27.93"/>
<text text-anchor="middle" x="476.81" y="-579.57" font-family="Times New Roman,serif" font-size="8.00">16. month_length = 30</text>
<text text-anchor="start" x="380" y="-602.25" font-family="Times New Roman,serif" font-size="8.00" fill="darkorange">6,2</text>
</g>
<!-- 13&#45;&gt;16 -->
<g id="edge13" class="edge">
<title>13&#45;&gt;16</title>
<path fill="none" stroke="blue" d="M305.27,-778.13C312.85,-771.68 320.81,-764.56 327.81,-757.57 373.35,-712.18 420.67,-654.64 449.43,-618.29"/>
<polygon fill="blue" stroke="blue" points="451.96,-620.73 455.4,-610.71 446.46,-616.4 451.96,-620.73"/>
<text text-anchor="middle" x="403.44" y="-732.54" font-family="Times New Roman,serif" font-size="8.00">&quot;(month != 2)&quot;</text>
<text text-anchor="middle" x="403.44" y="-722.04" font-family="Times New Roman,serif" font-size="8.00">c[12]</text>
<text text-anchor="start" x="361.86" y="-689.12" font-family="Times New Roman,serif" font-size="8.00" fill="darkmagenta"> &#160;6,2 &#160;&#160;</text>
</g>
<!-- 20 -->
<g id="node7" class="node">
<title>20</title>
<ellipse fill="none" stroke="black" cx="259.81" cy="-215.56" rx="53.74" ry="27.93"/>
<text text-anchor="middle" x="259.81" y="-213.22" font-family="Times New Roman,serif" font-size="8.00">20. day += 1</text>
<text text-anchor="start" x="190.32" y="-235.9" font-family="Times New Roman,serif" font-size="8.00" fill="darkorange">17,3</text>
</g>
<!-- 12&#45;&gt;20 -->
<g id="edge5" class="edge">
<title>12&#45;&gt;20</title>
<path fill="none" stroke="blue" d="M274.76,-408.07C267.57,-403.07 260.94,-396.8 256.81,-389.13 234.3,-347.28 240.83,-291.06 249.06,-254.33"/>
<polygon fill="blue" stroke="blue" points="252.35,-255.6 251.29,-245.06 245.55,-253.97 252.35,-255.6"/>
<text text-anchor="middle" x="295.81" y="-376.28" font-family="Times New Roman,serif" font-size="8.00">&quot;day &lt; month_length&quot;</text>
<text text-anchor="middle" x="295.81" y="-365.78" font-family="Times New Roman,serif" font-size="8.00">c[13]</text>
<text text-anchor="start" x="214.55" y="-318.94" font-family="Times New Roman,serif" font-size="8.00" fill="darkmagenta"> &#160;17,3 &#160;&#160;</text>
</g>
<!-- 22 -->
<g id="node8" class="node">
<title>22</title>
<ellipse fill="none" stroke="black" cx="360.81" cy="-300.56" rx="72.83" ry="39.07"/>
<text text-anchor="middle" x="360.81" y="-303.46" font-family="Times New Roman,serif" font-size="8.00">22. day = 1</text>
<text text-anchor="middle" x="360.81" y="-292.96" font-family="Times New Roman,serif" font-size="8.00">if month == 12:</text>
<text text-anchor="start" x="272.23" y="-332.03" font-family="Times New Roman,serif" font-size="8.00" fill="darkorange">0,14</text>
</g>
<!-- 12&#45;&gt;22 -->
<g id="edge6" class="edge">
<title>12&#45;&gt;22</title>
<path fill="none" stroke="red" stroke-width="4.64" d="M326.53,-407.06C331.06,-401.67 335.6,-395.47 338.81,-389.13 344.12,-378.65 348.21,-366.8 351.33,-355.29"/>
<polygon fill="red" stroke="red" stroke-width="4.64" points="355.19,-356.62 353.58,-345.94 347.29,-354.72 355.19,-356.62"/>
<text text-anchor="middle" x="394.06" y="-381.53" font-family="Times New Roman,serif" font-size="8.00">&quot;(day &gt;= month_length)&quot;</text>
<text text-anchor="middle" x="394.06" y="-371.03" font-family="Times New Roman,serif" font-size="8.00">c[14]</text>
<text text-anchor="middle" x="394.06" y="-360.53" font-family="Times New Roman,serif" font-size="8.00">Score: 0.91</text>
<text text-anchor="start" x="324.65" y="-357.17" font-family="Times New Roman,serif" font-size="8.00" fill="darkmagenta"> &#160;0,14 &#160;&#160;</text>
</g>
<!-- 21 -->
<g id="node9" class="node">
<title>21</title>
<ellipse fill="none" stroke="black" cx="341.81" cy="-36.5" rx="96.97" ry="18"/>
<text text-anchor="middle" x="341.81" y="-34.15" font-family="Times New Roman,serif" font-size="8.00">21. return day, month, year</text>
<text text-anchor="start" x="224.59" y="-46.9" font-family="Times New Roman,serif" font-size="8.00" fill="darkorange">17,17</text>
</g>
<!-- 20&#45;&gt;21 -->
<g id="edge7" class="edge">
<title>20&#45;&gt;21</title>
<path fill="none" stroke="blue" d="M258.73,-187.39C258.86,-161.23 262.21,-121.35 278.81,-91.5 285.31,-79.82 295.38,-69.51 305.57,-61.11"/>
<polygon fill="blue" stroke="blue" points="307.5,-64.04 313.28,-55.16 303.22,-58.5 307.5,-64.04"/>
<text text-anchor="start" x="241.81" y="-107.41" font-family="Times New Roman,serif" font-size="8.00" fill="darkmagenta"> &#160;17,3 &#160;&#160;</text>
</g>
<!-- 23 -->
<g id="node10" class="node">
<title>23</title>
<ellipse fill="none" stroke="black" cx="341.81" cy="-130.57" rx="53.74" ry="39.07"/>
<text text-anchor="middle" x="341.81" y="-133.47" font-family="Times New Roman,serif" font-size="8.00">23. month = 1</text>
<text text-anchor="middle" x="341.81" y="-122.97" font-family="Times New Roman,serif" font-size="8.00">year += 1</text>
<text text-anchor="start" x="276.82" y="-162.03" font-family="Times New Roman,serif" font-size="8.00" fill="darkorange">0,1</text>
</g>
<!-- 22&#45;&gt;23 -->
<g id="edge8" class="edge">
<title>22&#45;&gt;23</title>
<path fill="none" stroke="red" stroke-width="2.8" d="M356.5,-261.44C353.9,-238.43 350.55,-208.8 347.7,-183.65"/>
<polygon fill="red" stroke="red" stroke-width="2.8" points="351.22,-183.58 346.61,-174.04 344.26,-184.37 351.22,-183.58"/>
<text text-anchor="middle" x="380.44" y="-223.72" font-family="Times New Roman,serif" font-size="8.00">&quot;month == 12&quot;</text>
<text text-anchor="middle" x="380.44" y="-213.22" font-family="Times New Roman,serif" font-size="8.00">c[15]</text>
<text text-anchor="middle" x="380.44" y="-202.72" font-family="Times New Roman,serif" font-size="8.00">Score: 0.45</text>
<text text-anchor="start" x="328.8" y="-207.86" font-family="Times New Roman,serif" font-size="8.00" fill="darkmagenta"> &#160;0,1 &#160;&#160;</text>
</g>
<!-- 25 -->
<g id="node11" class="node">
<title>25</title>
<ellipse fill="none" stroke="black" cx="471.81" cy="-130.57" rx="57.98" ry="27.93"/>
<text text-anchor="middle" x="471.81" y="-128.22" font-family="Times New Roman,serif" font-size="8.00">25. month += 1</text>
<text text-anchor="start" x="398.08" y="-150.9" font-family="Times New Roman,serif" font-size="8.00" fill="darkorange">0,13</text>
</g>
<!-- 22&#45;&gt;25 -->
<g id="edge9" class="edge">
<title>22&#45;&gt;25</title>
<path fill="none" stroke="red" stroke-width="4.84" d="M393.58,-265.3C399.61,-258.32 405.63,-250.85 410.81,-243.5 426.58,-221.11 441.35,-194.22 452.41,-172.41"/>
<polygon fill="red" stroke="red" stroke-width="4.84" points="456.2,-174.3 456.85,-163.46 448.61,-170.54 456.2,-174.3"/>
<text text-anchor="middle" x="471.69" y="-223.72" font-family="Times New Roman,serif" font-size="8.00">&quot;(month != 12)&quot;</text>
<text text-anchor="middle" x="471.69" y="-213.22" font-family="Times New Roman,serif" font-size="8.00">c[16]</text>
<text text-anchor="middle" x="471.69" y="-202.72" font-family="Times New Roman,serif" font-size="8.00">Score: 0.96</text>
<text text-anchor="start" x="416.53" y="-195.38" font-family="Times New Roman,serif" font-size="8.00" fill="darkmagenta"> &#160;0,13 &#160;&#160;</text>
</g>
<!-- 23&#45;&gt;21 -->
<g id="edge10" class="edge">
<title>23&#45;&gt;21</title>
<path fill="none" stroke="red" d="M341.81,-91.06C341.81,-82.68 341.81,-73.96 341.81,-66.05"/>
<polygon fill="red" stroke="red" points="345.31,-66.33 341.81,-56.33 338.31,-66.33 345.31,-66.33"/>
<text text-anchor="start" x="319.31" y="-65.29" font-family="Times New Roman,serif" font-size="8.00" fill="darkmagenta"> &#160;0,1 &#160;&#160;</text>
</g>
<!-- 25&#45;&gt;21 -->
<g id="edge11" class="edge">
<title>25&#45;&gt;21</title>
<path fill="none" stroke="red" d="M440.01,-107.05C420.24,-93.05 394.88,-75.08 374.88,-60.92"/>
<polygon fill="red" stroke="red" points="376.96,-58.1 366.77,-55.18 372.91,-63.81 376.96,-58.1"/>
<text text-anchor="start" x="375.76" y="-73.06" font-family="Times New Roman,serif" font-size="8.00" fill="darkmagenta"> &#160;0,13 &#160;&#160;</text>
</g>
<!-- 17 -->
<g id="node14" class="node">
<title>17</title>
<ellipse fill="none" stroke="black" cx="194.81" cy="-508.06" rx="85.56" ry="27.93"/>
<text text-anchor="middle" x="194.81" y="-505.71" font-family="Times New Roman,serif" font-size="8.00">17. month_length = 29</text>
<text text-anchor="start" x="98" y="-528.39" font-family="Times New Roman,serif" font-size="8.00" fill="darkorange">3,0</text>
</g>
<!-- 14&#45;&gt;17 -->
<g id="edge14" class="edge">
<title>14&#45;&gt;17</title>
<path fill="none" stroke="#429e6a" d="M259.03,-628.78C255.36,-622.61 251.53,-616.03 248.06,-609.85 236.29,-588.88 223.7,-565.12 213.72,-545.93"/>
<polygon fill="#429e6a" stroke="#429e6a" points="216.86,-544.4 209.16,-537.13 210.65,-547.62 216.86,-544.4"/>
<text text-anchor="middle" x="264.69" y="-584.82" font-family="Times New Roman,serif" font-size="8.00">leap_year</text>
<text text-anchor="middle" x="264.69" y="-574.32" font-family="Times New Roman,serif" font-size="8.00">c[10]</text>
<text text-anchor="start" x="210.76" y="-575.29" font-family="Times New Roman,serif" font-size="8.00" fill="darkmagenta"> &#160;3,0 &#160;&#160;</text>
</g>
<!-- 19 -->
<g id="node15" class="node">
<title>19</title>
<ellipse fill="none" stroke="black" cx="378.81" cy="-508.06" rx="80.79" ry="27.93"/>
<text text-anchor="middle" x="378.81" y="-505.71" font-family="Times New Roman,serif" font-size="8.00">19. month_length = 5</text>
<text text-anchor="start" x="286.77" y="-528.39" font-family="Times New Roman,serif" font-size="8.00" fill="darkorange">0,9</text>
</g>
<!-- 14&#45;&gt;19 -->
<g id="edge15" class="edge">
<title>14&#45;&gt;19</title>
<path fill="none" stroke="red" stroke-width="5" d="M282.85,-627.99C290.22,-606.47 302.67,-576.26 320.31,-553.99 323.14,-550.42 326.32,-546.96 329.69,-543.67"/>
<polygon fill="red" stroke="red" stroke-width="5" points="332.37,-547.15 336.99,-537.26 326.59,-540.57 332.37,-547.15"/>
<text text-anchor="middle" x="350.56" y="-590.07" font-family="Times New Roman,serif" font-size="8.00">&quot;(not leap_year)&quot;</text>
<text text-anchor="middle" x="350.56" y="-579.57" font-family="Times New Roman,serif" font-size="8.00">c[11]</text>
<text text-anchor="middle" x="350.56" y="-569.07" font-family="Times New Roman,serif" font-size="8.00">Score: 1.0</text>
<text text-anchor="start" x="282.79" y="-569.09" font-family="Times New Roman,serif" font-size="8.00" fill="darkmagenta"> &#160;0,9 &#160;&#160;</text>
</g>
<!-- 16&#45;&gt;12 -->
<g id="edge18" class="edge">
<title>16&#45;&gt;12</title>
<path fill="none" stroke="blue" d="M482.21,-553.63C484.95,-531.53 484.87,-500.77 468.81,-480.13 452.21,-458.79 426.76,-445.83 401.06,-437.97"/>
<polygon fill="blue" stroke="blue" points="402.09,-434.62 391.52,-435.31 400.21,-441.36 402.09,-434.62"/>
<text text-anchor="start" x="437.01" y="-462.25" font-family="Times New Roman,serif" font-size="8.00" fill="darkmagenta"> &#160;6,2 &#160;&#160;</text>
</g>
<!-- 17&#45;&gt;12 -->
<g id="edge16" class="edge">
<title>17&#45;&gt;12</title>
<path fill="none" stroke="#429e6a" d="M229.94,-482.34C244.79,-471.89 261.99,-459.78 276.62,-449.49"/>
<polygon fill="#429e6a" stroke="#429e6a" points="278.41,-452.51 284.58,-443.89 274.38,-446.78 278.41,-452.51"/>
<text text-anchor="start" x="235.35" y="-455.1" font-family="Times New Roman,serif" font-size="8.00" fill="darkmagenta"> &#160;3,0 &#160;&#160;</text>
</g>
<!-- 19&#45;&gt;12 -->
<g id="edge17" class="edge">
<title>19&#45;&gt;12</title>
<path fill="none" stroke="red" d="M356.6,-481.01C348.6,-471.62 339.58,-461.05 331.62,-451.71"/>
<polygon fill="red" stroke="red" points="334.5,-449.69 325.35,-444.36 329.17,-454.24 334.5,-449.69"/>
<text text-anchor="start" x="318.02" y="-454.54" font-family="Times New Roman,serif" font-size="8.00" fill="darkmagenta"> &#160;0,9 &#160;&#160;</text>
</g>
<!-- 8 -->
<g id="node17" class="node">
<title>8</title>
<ellipse fill="none" stroke="black" cx="90.81" cy="-999.87" rx="78.67" ry="27.93"/>
<text text-anchor="middle" x="90.81" y="-997.52" font-family="Times New Roman,serif" font-size="8.00">8. leap_year = True</text>
<text text-anchor="start" x="0.89" y="-1020.2" font-family="Times New Roman,serif" font-size="8.00" fill="darkorange">4,1</text>
</g>
<!-- 7&#45;&gt;8 -->
<g id="edge20" class="edge">
<title>7&#45;&gt;8</title>
<path fill="none" stroke="blue" d="M159.72,-1095.89C147.09,-1078.48 130.38,-1055.44 116.58,-1036.41"/>
<polygon fill="blue" stroke="blue" points="119.46,-1034.42 110.76,-1028.37 113.79,-1038.52 119.46,-1034.42"/>
<text text-anchor="middle" x="173.94" y="-1064.45" font-family="Times New Roman,serif" font-size="8.00">&quot;year % 4 == 0&quot;</text>
<text text-anchor="middle" x="173.94" y="-1053.95" font-family="Times New Roman,serif" font-size="8.00">c[5]</text>
<text text-anchor="start" x="112.22" y="-1053.83" font-family="Times New Roman,serif" font-size="8.00" fill="darkmagenta"> &#160;4,1 &#160;&#160;</text>
</g>
<!-- 10 -->
<g id="node18" class="node">
<title>10</title>
<ellipse fill="none" stroke="black" cx="267.81" cy="-999.87" rx="80.79" ry="27.93"/>
<text text-anchor="middle" x="267.81" y="-997.52" font-family="Times New Roman,serif" font-size="8.00">10. leap_year = False</text>
<text text-anchor="start" x="166.77" y="-1020.2" font-family="Times New Roman,serif" font-size="8.00" fill="darkorange">13,16</text>
</g>
<!-- 7&#45;&gt;10 -->
<g id="edge21" class="edge">
<title>7&#45;&gt;10</title>
<path fill="none" stroke="blue" stroke-width="3.4" d="M198.12,-1095.89C210.25,-1079.35 226.1,-1057.74 239.62,-1039.3"/>
<polygon fill="blue" stroke="blue" stroke-width="3.4" points="242.4,-1041.43 245.49,-1031.3 236.76,-1037.29 242.4,-1041.43"/>
<text text-anchor="middle" x="264.19" y="-1069.7" font-family="Times New Roman,serif" font-size="8.00">&quot;(year % 4 != 0)&quot;</text>
<text text-anchor="middle" x="264.19" y="-1059.2" font-family="Times New Roman,serif" font-size="8.00">c[6]</text>
<text text-anchor="middle" x="264.19" y="-1048.7" font-family="Times New Roman,serif" font-size="8.00">Score: 0.6</text>
<text text-anchor="start" x="199.79" y="-1043.31" font-family="Times New Roman,serif" font-size="8.00" fill="darkmagenta"> &#160;13,16 &#160;&#160;</text>
</g>
<!-- 8&#45;&gt;3 -->
<g id="edge22" class="edge">
<title>8&#45;&gt;3</title>
<path fill="none" stroke="blue" d="M118.65,-973.26C129.2,-963.56 141.18,-952.55 151.66,-942.91"/>
<polygon fill="blue" stroke="blue" points="153.94,-945.57 158.93,-936.22 149.2,-940.42 153.94,-945.57"/>
<text text-anchor="start" x="116.89" y="-946.59" font-family="Times New Roman,serif" font-size="8.00" fill="darkmagenta"> &#160;4,1 &#160;&#160;</text>
</g>
<!-- 10&#45;&gt;3 -->
<g id="edge23" class="edge">
<title>10&#45;&gt;3</title>
<path fill="none" stroke="blue" d="M239.65,-973.26C228.99,-963.56 216.87,-952.55 206.27,-942.91"/>
<polygon fill="blue" stroke="blue" points="208.67,-940.35 198.91,-936.22 203.96,-945.53 208.67,-940.35"/>
<text text-anchor="start" x="187.18" y="-946.59" font-family="Times New Roman,serif" font-size="8.00" fill="darkmagenta"> &#160;13,16 &#160;&#160;</text>
</g>
</g>
</svg>
