<?xml version="1.0" encoding="UTF-8" standalone="no"?>
<!DOCTYPE svg PUBLIC "-//W3C//DTD SVG 1.1//EN"
 "http://www.w3.org/Graphics/SVG/1.1/DTD/svg11.dtd">
<!-- Generated by graphviz version 10.0.1 (20240210.2158)
 -->
<!-- Pages: 1 -->
<svg width="211pt" height="156pt"
 viewBox="0.00 0.00 210.91 155.72" xmlns="http://www.w3.org/2000/svg" xmlns:xlink="http://www.w3.org/1999/xlink">
<g id="graph0" class="graph" transform="scale(1 1) rotate(0) translate(4 151.72)">
<polygon fill="white" stroke="none" points="-4,4 -4,-151.72 206.91,-151.72 206.91,4 -4,4"/>
<!-- mergesort.mergesort -->
<g id="node1" class="node">
<title>mergesort.mergesort</title>
<g id="a_node1"><a xlink:href="fault_report.html#mergesort" xlink:title="mergesort.mergesort\nMax Score: 0.5">
<ellipse fill="none" stroke="red" stroke-width="2" cx="92.45" cy="-119.79" rx="92.45" ry="27.93"/>
<text text-anchor="middle" x="92.45" y="-122.24" font-family="Times New Roman,serif" font-size="14.00">mergesort.mergesort</text>
<text text-anchor="middle" x="92.45" y="-106.49" font-family="Times New Roman,serif" font-size="14.00">Max Score: 0.5</text>
</a>
</g>
</g>
<!-- mergesort.mergesort&#45;&gt;mergesort.mergesort -->
<g id="edge1" class="edge">
<title>mergesort.mergesort&#45;&gt;mergesort.mergesort</title>
<path fill="none" stroke="black" d="M167.83,-136.86C187.79,-135.89 202.91,-130.2 202.91,-119.79 202.91,-111.42 193.12,-106.1 178.89,-103.83"/>
<polygon fill="black" stroke="black" points="179.63,-100.39 169.33,-102.87 178.93,-107.35 179.63,-100.39"/>
</g>
<!-- mergesort.merge -->
<g id="node2" class="node">
<title>mergesort.merge</title>
<g id="a_node2"><a xlink:href="fault_report.html#merge" xlink:title="mergesort.merge\nMax Score: 0.48">
<ellipse fill="none" stroke="black" stroke-width="2" cx="92.45" cy="-27.93" rx="77.07" ry="27.93"/>
<text text-anchor="middle" x="92.45" y="-30.38" font-family="Times New Roman,serif" font-size="14.00">mergesort.merge</text>
<text text-anchor="middle" x="92.45" y="-14.63" font-family="Times New Roman,serif" font-size="14.00">Max Score: 0.48</text>
</a>
</g>
</g>
<!-- mergesort.mergesort&#45;&gt;mergesort.merge -->
<g id="edge2" class="edge">
<title>mergesort.mergesort&#45;&gt;mergesort.merge</title>
<path fill="none" stroke="black" d="M92.45,-91.34C92.45,-84.08 92.45,-76.09 92.45,-68.32"/>
<polygon fill="black" stroke="black" points="95.95,-68.35 92.45,-58.35 88.95,-68.35 95.95,-68.35"/>
</g>
</g>
</svg>
