<?xml version="1.0" encoding="UTF-8" standalone="no"?>
<!DOCTYPE svg PUBLIC "-//W3C//DTD SVG 1.1//EN"
 "http://www.w3.org/Graphics/SVG/1.1/DTD/svg11.dtd">
<!-- Generated by graphviz version 2.46.0 (20210118.1747)
 -->
<!-- Title: clustermerge Pages: 1 -->
<svg width="887pt" height="535pt"
 viewBox="0.00 0.00 886.60 534.80" xmlns="http://www.w3.org/2000/svg" xmlns:xlink="http://www.w3.org/1999/xlink">
<g id="graph0" class="graph" transform="scale(1 1) rotate(0) translate(4 530.8)">
<title>clustermerge</title>
<polygon fill="white" stroke="transparent" points="-4,4 -4,-530.8 882.6,-530.8 882.6,4 -4,4"/>
<text text-anchor="middle" x="439.3" y="-7.8" font-family="Times New Roman,serif" font-size="14.00">merge</text>
<!-- 1 -->
<g id="node1" class="node">
<title>1</title>
<ellipse fill="none" stroke="black" cx="454.6" cy="-443.4" rx="114.5" ry="18"/>
<text text-anchor="middle" x="454.6" y="-439.7" font-family="Times New Roman,serif" font-size="14.00">1. </text>
<text text-anchor="start" x="309.1" y="-467" font-family="Times New Roman,serif" font-size="14.00" fill="darkorange">83,65</text>
</g>
<!-- 2 -->
<g id="node2" class="node">
<title>2</title>
<ellipse fill="none" stroke="black" cx="454.6" cy="-340.4" rx="144.87" ry="18"/>
<text text-anchor="middle" x="454.6" y="-336.7" font-family="Times New Roman,serif" font-size="14.00">2. while i &lt; len(left) and j &lt; len(right):</text>
<text text-anchor="start" x="264.66" y="-364" font-family="Times New Roman,serif" font-size="14.00" fill="darkorange">249,174</text>
</g>
<!-- 1&#45;&gt;2 -->
<g id="edge1" class="edge">
<title>1&#45;&gt;2</title>
<path fill="none" stroke="blue" stroke-width="4.93" d="M454.6,-425.27C454.6,-409.81 454.6,-386.82 454.6,-368.81"/>
<polygon fill="blue" stroke="blue" stroke-width="4.93" points="458.91,-368.62 454.6,-358.62 450.29,-368.62 458.91,-368.62"/>
<text text-anchor="middle" x="488.6" y="-380.2" font-family="Times New Roman,serif" font-size="14.00"> Score: 0.53</text>
<text text-anchor="start" x="423.6" y="-395.72" font-family="Times New Roman,serif" font-size="14.00" fill="darkmagenta">83,65</text>
</g>
<!-- 3 -->
<g id="node3" class="node">
<title>3</title>
<ellipse fill="none" stroke="black" cx="644.6" cy="-223.4" rx="113" ry="18"/>
<text text-anchor="middle" x="644.6" y="-219.7" font-family="Times New Roman,serif" font-size="14.00">3. </text>
<text text-anchor="start" x="599.6" y="-145.6" font-family="Times New Roman,serif" font-size="14.00" fill="darkorange">166,109</text>
</g>
<!-- 2&#45;&gt;3 -->
<g id="edge2" class="edge">
<title>2&#45;&gt;3</title>
<path fill="none" stroke="blue" stroke-width="4.19" d="M507.84,-323.46C521.87,-318.29 536.68,-311.91 549.6,-304.4 576.19,-288.95 602.64,-265.88 620.85,-248.48"/>
<polygon fill="blue" stroke="blue" stroke-width="4.19" points="623.51,-251.01 628.13,-241.41 618.4,-245.75 623.51,-251.01"/>
<text text-anchor="middle" x="693.1" y="-293.2" font-family="Times New Roman,serif" font-size="14.00">&quot;i &lt; len(left) and j &lt; len(right)&quot;</text>
<text text-anchor="middle" x="693.1" y="-278.2" font-family="Times New Roman,serif" font-size="14.00">c[1]</text>
<text text-anchor="middle" x="693.1" y="-263.2" font-family="Times New Roman,serif" font-size="14.00"> Score: 0.43</text>
<text text-anchor="start" x="561.48" y="-277.99" font-family="Times New Roman,serif" font-size="14.00" fill="darkmagenta">166,109</text>
</g>
<!-- 4 -->
<g id="node4" class="node">
<title>4</title>
<ellipse fill="none" stroke="black" cx="300.6" cy="-223.4" rx="213.36" ry="18"/>
<text text-anchor="middle" x="300.6" y="-219.7" font-family="Times New Roman,serif" font-size="14.00">4. result.extend(left[i:])result.extend(right[j:])return result</text>
<text text-anchor="start" x="56.42" y="-247" font-family="Times New Roman,serif" font-size="14.00" fill="darkorange">83,65</text>
</g>
<!-- 2&#45;&gt;4 -->
<g id="edge3" class="edge">
<title>2&#45;&gt;4</title>
<path fill="none" stroke="blue" stroke-width="3.96" d="M377.54,-325.1C364.23,-320.13 351.26,-313.43 340.6,-304.4 324.35,-290.64 314.03,-268.68 307.95,-251.24"/>
<polygon fill="blue" stroke="blue" stroke-width="3.96" points="311.25,-250.04 304.85,-241.59 304.58,-252.19 311.25,-250.04"/>
<text text-anchor="middle" x="445.1" y="-285.7" font-family="Times New Roman,serif" font-size="14.00">&quot;(not (i &lt; len(left) and j &lt; len(right)))&quot;</text>
<text text-anchor="middle" x="445.1" y="-270.7" font-family="Times New Roman,serif" font-size="14.00"> Score: 0.4</text>
<text text-anchor="start" x="298.66" y="-296.74" font-family="Times New Roman,serif" font-size="14.00" fill="darkmagenta">83,65</text>
</g>
<!-- 5 -->
<g id="node5" class="node">
<title>5</title>
<ellipse fill="none" stroke="black" cx="178.6" cy="-106.4" rx="141" ry="18"/>
<text text-anchor="middle" x="178.6" y="-102.7" font-family="Times New Roman,serif" font-size="14.00">5. </text>
<text text-anchor="start" x="6.6" y="-130" font-family="Times New Roman,serif" font-size="14.00" fill="darkorange">96,53</text>
</g>
<!-- 3&#45;&gt;5 -->
<g id="edge4" class="edge">
<title>3&#45;&gt;5</title>
<path fill="none" stroke="blue" stroke-width="3.81" d="M586.05,-207.95C500.67,-186.88 342.17,-147.77 250.04,-125.03"/>
<polygon fill="blue" stroke="blue" stroke-width="3.81" points="250.78,-121.61 240.24,-122.61 249.11,-128.41 250.78,-121.61"/>
<text text-anchor="middle" x="546.1" y="-176.2" font-family="Times New Roman,serif" font-size="14.00">&quot;left[i] &lt;= right[j]&quot;</text>
<text text-anchor="middle" x="546.1" y="-161.2" font-family="Times New Roman,serif" font-size="14.00">c[2]</text>
<text text-anchor="middle" x="546.1" y="-146.2" font-family="Times New Roman,serif" font-size="14.00"> Score: 0.38</text>
<text text-anchor="start" x="381.97" y="-169.04" font-family="Times New Roman,serif" font-size="14.00" fill="darkmagenta">96,53</text>
</g>
<!-- 7 -->
<g id="node6" class="node">
<title>7</title>
<ellipse fill="none" stroke="black" cx="726.6" cy="-106.4" rx="145.5" ry="18"/>
<text text-anchor="middle" x="726.6" y="-102.7" font-family="Times New Roman,serif" font-size="14.00">7. </text>
<text text-anchor="start" x="550.1" y="-28.6" font-family="Times New Roman,serif" font-size="14.00" fill="darkorange">70,56</text>
</g>
<!-- 3&#45;&gt;7 -->
<g id="edge5" class="edge">
<title>3&#45;&gt;7</title>
<path fill="none" stroke="blue" stroke-width="4.33" d="M648.37,-205.32C652.84,-188.05 661.64,-161.27 676.6,-142.4 680.05,-138.04 684.2,-134 688.6,-130.32"/>
<polygon fill="blue" stroke="blue" stroke-width="4.33" points="691.06,-133.21 696.7,-124.12 686.46,-127.19 691.06,-133.21"/>
<text text-anchor="middle" x="728.1" y="-176.2" font-family="Times New Roman,serif" font-size="14.00">&quot;(left[i] &gt; right[j])&quot;</text>
<text text-anchor="middle" x="728.1" y="-161.2" font-family="Times New Roman,serif" font-size="14.00">c[3]</text>
<text text-anchor="middle" x="728.1" y="-146.2" font-family="Times New Roman,serif" font-size="14.00"> Score: 0.45</text>
<text text-anchor="start" x="641.6" y="-149.64" font-family="Times New Roman,serif" font-size="14.00" fill="darkmagenta">70,56</text>
</g>
<!-- 5&#45;&gt;2 -->
<g id="edge6" class="edge">
<title>5&#45;&gt;2</title>
<path fill="none" stroke="blue" stroke-width="4.63" d="M128.12,-123.29C64.84,-145.82 -30.64,-190.06 10.6,-241.4 49.72,-290.1 210.16,-316.04 326.97,-328.75"/>
<polygon fill="blue" stroke="blue" stroke-width="4.63" points="326.69,-332.79 337.07,-329.83 327.55,-324.74 326.69,-332.79"/>
<text text-anchor="middle" x="44.6" y="-211.7" font-family="Times New Roman,serif" font-size="14.00"> Score: 0.49</text>
<text text-anchor="start" x="186.97" y="-317.86" font-family="Times New Roman,serif" font-size="14.00" fill="darkmagenta">96,53</text>
</g>
<!-- 7&#45;&gt;2 -->
<g id="edge7" class="edge">
<title>7&#45;&gt;2</title>
<path fill="none" stroke="blue" stroke-width="5" d="M762.47,-124.03C769.34,-128.94 775.63,-135.02 779.6,-142.4 813.71,-205.81 827.71,-250.83 779.6,-304.4 766.96,-318.47 679.37,-327.38 598.3,-332.68"/>
<polygon fill="blue" stroke="blue" stroke-width="5" points="597.65,-328.34 587.95,-333.34 598.2,-337.07 597.65,-328.34"/>
<text text-anchor="middle" x="844.6" y="-211.7" font-family="Times New Roman,serif" font-size="14.00"> Score: 0.54</text>
<text text-anchor="start" x="683.62" y="-325.63" font-family="Times New Roman,serif" font-size="14.00" fill="darkmagenta">70,56</text>
</g>
</g>
</svg>
