<?xml version="1.0" encoding="UTF-8" standalone="no"?>
<!DOCTYPE svg PUBLIC "-//W3C//DTD SVG 1.1//EN"
 "http://www.w3.org/Graphics/SVG/1.1/DTD/svg11.dtd">
<!-- Generated by graphviz version 10.0.1 (20240210.2158)
 -->
<!-- Title: clustermerge Pages: 1 -->
<svg width="537pt" height="493pt"
 viewBox="0.00 0.00 537.34 492.68" xmlns="http://www.w3.org/2000/svg" xmlns:xlink="http://www.w3.org/1999/xlink">
<g id="graph0" class="graph" transform="scale(1 1) rotate(0) translate(4 488.68)">
<title>clustermerge</title>
<polygon fill="white" stroke="none" points="-4,4 -4,-488.68 533.34,-488.68 533.34,4 -4,4"/>
<text text-anchor="middle" x="264.67" y="-5.75" font-family="Times New Roman,serif" font-size="10.00">merge</text>
<!-- 1 -->
<g id="node1" class="node">
<title>1</title>
<ellipse fill="none" stroke="black" cx="263.64" cy="-423.22" rx="50.03" ry="50.21"/>
<text text-anchor="middle" x="263.64" y="-430.6" font-family="Times New Roman,serif" font-size="10.00">1. result = []</text>
<text text-anchor="middle" x="263.64" y="-419.35" font-family="Times New Roman,serif" font-size="10.00">i = 0</text>
<text text-anchor="middle" x="263.64" y="-408.1" font-family="Times New Roman,serif" font-size="10.00">j = 0</text>
<text text-anchor="start" x="193.36" y="-463.93" font-family="Times New Roman,serif" font-size="10.00" fill="darkorange">83,65</text>
</g>
<!-- 2 -->
<g id="node2" class="node">
<title>2</title>
<ellipse fill="none" stroke="black" cx="263.64" cy="-318.02" rx="138.39" ry="18"/>
<text text-anchor="middle" x="263.64" y="-314.14" font-family="Times New Roman,serif" font-size="10.00">2. while i &lt; len(left) and j &lt; len(right):</text>
<text text-anchor="start" x="96.01" y="-326.52" font-family="Times New Roman,serif" font-size="10.00" fill="darkorange">249,174</text>
</g>
<!-- 1&#45;&gt;2 -->
<g id="edge1" class="edge">
<title>1&#45;&gt;2</title>
<path fill="none" stroke="blue" d="M263.64,-372.74C263.64,-364.18 263.64,-355.55 263.64,-347.78"/>
<polygon fill="blue" stroke="blue" points="267.14,-347.94 263.64,-337.94 260.14,-347.94 267.14,-347.94"/>
<text text-anchor="start" x="227.64" y="-346.92" font-family="Times New Roman,serif" font-size="8.00" fill="darkmagenta"> &#160;&#160;&#160;&#160;83,65 &#160;</text>
</g>
<!-- 3 -->
<g id="node3" class="node">
<title>3</title>
<ellipse fill="none" stroke="black" cx="368.64" cy="-203.95" rx="85.03" ry="27.93"/>
<text text-anchor="middle" x="368.64" y="-200.08" font-family="Times New Roman,serif" font-size="10.00">3. if left[i] &lt;= right[j]:</text>
<text text-anchor="start" x="283.61" y="-222.38" font-family="Times New Roman,serif" font-size="10.00" fill="darkorange">166,109</text>
</g>
<!-- 2&#45;&gt;3 -->
<g id="edge2" class="edge">
<title>2&#45;&gt;3</title>
<path fill="none" stroke="blue" d="M294.42,-300.16C302.48,-294.95 310.82,-288.78 317.64,-282.02 329.57,-270.21 340.26,-255.18 348.74,-241.54"/>
<polygon fill="blue" stroke="blue" points="351.59,-243.59 353.73,-233.21 345.59,-239.99 351.59,-243.59"/>
<text text-anchor="middle" x="388.64" y="-274.42" font-family="Times New Roman,serif" font-size="8.00">&quot;i &lt; len(left) and j &lt; len(right)&quot;</text>
<text text-anchor="middle" x="388.64" y="-263.92" font-family="Times New Roman,serif" font-size="8.00">c[1]</text>
<text text-anchor="start" x="283.95" y="-251.42" font-family="Times New Roman,serif" font-size="8.00" fill="darkmagenta"> &#160;&#160;&#160;&#160;166,109 &#160;</text>
</g>
<!-- 4 -->
<g id="node4" class="node">
<title>4</title>
<ellipse fill="none" stroke="black" cx="169.64" cy="-203.95" rx="95.64" ry="39.07"/>
<text text-anchor="middle" x="169.64" y="-211.33" font-family="Times New Roman,serif" font-size="10.00">4. result.extend(left[i:])</text>
<text text-anchor="middle" x="169.64" y="-200.08" font-family="Times New Roman,serif" font-size="10.00">result.extend(right[j:])</text>
<text text-anchor="middle" x="169.64" y="-188.83" font-family="Times New Roman,serif" font-size="10.00">return result</text>
<text text-anchor="start" x="53.76" y="-155.38" font-family="Times New Roman,serif" font-size="10.00" fill="darkorange">83,65</text>
</g>
<!-- 2&#45;&gt;4 -->
<g id="edge3" class="edge">
<title>2&#45;&gt;4</title>
<path fill="none" stroke="blue" d="M214.94,-300.77C205.95,-295.92 197.36,-289.76 190.89,-282.02 184.23,-274.04 179.65,-264.13 176.5,-254.11"/>
<polygon fill="blue" stroke="blue" points="179.96,-253.49 174,-244.73 173.19,-255.29 179.96,-253.49"/>
<text text-anchor="middle" x="255.02" y="-269.17" font-family="Times New Roman,serif" font-size="8.00">(not (i &lt; len(left) and j &lt; len(right)))</text>
<text text-anchor="start" x="151.08" y="-269.33" font-family="Times New Roman,serif" font-size="8.00" fill="darkmagenta"> &#160;&#160;&#160;&#160;83,65 &#160;</text>
</g>
<!-- 5 -->
<g id="node5" class="node">
<title>5</title>
<ellipse fill="none" stroke="black" cx="111.64" cy="-58.32" rx="91.39" ry="39.07"/>
<text text-anchor="middle" x="111.64" y="-60.07" font-family="Times New Roman,serif" font-size="10.00">5. result.append(left[i])</text>
<text text-anchor="middle" x="111.64" y="-48.82" font-family="Times New Roman,serif" font-size="10.00">i += 1</text>
<text text-anchor="start" x="0" y="-87.88" font-family="Times New Roman,serif" font-size="10.00" fill="darkorange">96,53</text>
</g>
<!-- 3&#45;&gt;5 -->
<g id="edge4" class="edge">
<title>3&#45;&gt;5</title>
<path fill="none" stroke="blue" d="M326.49,-179.39C285.68,-156.58 223.23,-121.68 176.16,-95.38"/>
<polygon fill="blue" stroke="blue" points="178.12,-92.46 167.69,-90.64 174.71,-98.57 178.12,-92.46"/>
<text text-anchor="middle" x="296.64" y="-134.03" font-family="Times New Roman,serif" font-size="8.00">&quot;left[i] &lt;= right[j]&quot;</text>
<text text-anchor="middle" x="296.64" y="-123.53" font-family="Times New Roman,serif" font-size="8.00">c[2]</text>
<text text-anchor="start" x="210.49" y="-127.08" font-family="Times New Roman,serif" font-size="8.00" fill="darkmagenta"> &#160;&#160;&#160;&#160;96,53 &#160;</text>
</g>
<!-- 7 -->
<g id="node6" class="node">
<title>7</title>
<ellipse fill="none" stroke="black" cx="432.64" cy="-58.32" rx="96.7" ry="39.07"/>
<text text-anchor="middle" x="432.64" y="-60.07" font-family="Times New Roman,serif" font-size="10.00">7. result.append(right[j])</text>
<text text-anchor="middle" x="432.64" y="-48.82" font-family="Times New Roman,serif" font-size="10.00">j += 1</text>
<text text-anchor="start" x="315.7" y="-87.88" font-family="Times New Roman,serif" font-size="10.00" fill="darkorange">70,56</text>
</g>
<!-- 3&#45;&gt;7 -->
<g id="edge5" class="edge">
<title>3&#45;&gt;7</title>
<path fill="none" stroke="blue" stroke-width="5" d="M376.94,-176.01C382.69,-158.43 390.95,-135.16 400.14,-115.38 400.87,-113.83 401.62,-112.26 402.4,-110.68"/>
<polygon fill="blue" stroke="blue" stroke-width="5" points="406.16,-112.93 406.94,-102.04 398.41,-108.86 406.16,-112.93"/>
<text text-anchor="middle" x="434.39" y="-139.28" font-family="Times New Roman,serif" font-size="8.00">&quot;(left[i] &gt; right[j])&quot;</text>
<text text-anchor="middle" x="434.39" y="-128.78" font-family="Times New Roman,serif" font-size="8.00">c[3]</text>
<text text-anchor="middle" x="434.39" y="-118.28" font-family="Times New Roman,serif" font-size="8.00"> &#160;Score: 0.48</text>
<text text-anchor="start" x="355.45" y="-128.06" font-family="Times New Roman,serif" font-size="8.00" fill="darkmagenta"> &#160;&#160;&#160;&#160;70,56 &#160;</text>
</g>
<!-- 5&#45;&gt;2 -->
<g id="edge6" class="edge">
<title>5&#45;&gt;2</title>
<path fill="none" stroke="blue" d="M85.86,-96.26C61.79,-135.76 33.83,-198.69 64.64,-243.02 85.71,-273.33 120.75,-291.25 155.6,-301.83"/>
<polygon fill="blue" stroke="blue" points="154.36,-305.12 164.94,-304.48 156.27,-298.39 154.36,-305.12"/>
<text text-anchor="start" x="29.14" y="-236.13" font-family="Times New Roman,serif" font-size="8.00" fill="darkmagenta"> &#160;&#160;&#160;&#160;96,53 &#160;</text>
</g>
<!-- 7&#45;&gt;2 -->
<g id="edge7" class="edge">
<title>7&#45;&gt;2</title>
<path fill="none" stroke="blue" d="M459.61,-96.26C462.91,-102.39 465.78,-108.88 467.64,-115.38 488.2,-187.14 504.44,-234.78 446.64,-282.02 435.1,-291.45 408.14,-298.63 378.37,-303.96"/>
<polygon fill="blue" stroke="blue" points="378.06,-300.46 368.79,-305.58 379.23,-307.36 378.06,-300.46"/>
<text text-anchor="start" x="486.53" y="-200.34" font-family="Times New Roman,serif" font-size="8.00" fill="darkmagenta"> &#160;&#160;&#160;&#160;70,56 &#160;</text>
</g>
</g>
</svg>
