<?xml version="1.0" encoding="UTF-8" standalone="no"?>
<!DOCTYPE svg PUBLIC "-//W3C//DTD SVG 1.1//EN"
 "http://www.w3.org/Graphics/SVG/1.1/DTD/svg11.dtd">
<!-- Generated by graphviz version 2.46.0 (20210118.1747)
 -->
<!-- Title: clustermergesort Pages: 1 -->
<svg width="1823pt" height="432pt"
 viewBox="0.00 0.00 1822.50 431.80" xmlns="http://www.w3.org/2000/svg" xmlns:xlink="http://www.w3.org/1999/xlink">
<g id="graph0" class="graph" transform="scale(1 1) rotate(0) translate(4 427.8)">
<title>clustermergesort</title>
<polygon fill="white" stroke="transparent" points="-4,4 -4,-427.8 1818.5,-427.8 1818.5,4 -4,4"/>
<text text-anchor="middle" x="907.25" y="-7.8" font-family="Times New Roman,serif" font-size="14.00">mergesort</text>
<!-- 1 -->
<g id="node1" class="node">
<title>1</title>
<ellipse fill="none" stroke="black" cx="739.5" cy="-340.4" rx="100.5" ry="18"/>
<text text-anchor="middle" x="739.5" y="-336.7" font-family="Times New Roman,serif" font-size="14.00">1. </text>
<text text-anchor="start" x="594" y="-364" font-family="Times New Roman,serif" font-size="14.00" fill="darkorange">182,146</text>
</g>
<!-- 2 -->
<g id="node2" class="node">
<title>2</title>
<ellipse fill="none" stroke="black" cx="686.5" cy="-223.4" rx="78.5" ry="18"/>
<text text-anchor="middle" x="686.5" y="-219.7" font-family="Times New Roman,serif" font-size="14.00">2. </text>
<text text-anchor="start" x="577" y="-247" font-family="Times New Roman,serif" font-size="14.00" fill="darkorange">99,81</text>
</g>
<!-- 1&#45;&gt;2 -->
<g id="edge1" class="edge">
<title>1&#45;&gt;2</title>
<path fill="none" stroke="blue" stroke-width="4.67" d="M731.68,-322.43C722.95,-303.49 708.72,-272.61 698.56,-250.57"/>
<polygon fill="blue" stroke="blue" stroke-width="4.67" points="702.25,-248.81 694.35,-241.44 694.83,-252.23 702.25,-248.81"/>
<text text-anchor="middle" x="764" y="-293.2" font-family="Times New Roman,serif" font-size="14.00">&quot;len(arr) &lt;= 1&quot;</text>
<text text-anchor="middle" x="764" y="-278.2" font-family="Times New Roman,serif" font-size="14.00">c[4]</text>
<text text-anchor="middle" x="764" y="-263.2" font-family="Times New Roman,serif" font-size="14.00"> Score: 0.44</text>
<text text-anchor="start" x="682.15" y="-286.03" font-family="Times New Roman,serif" font-size="14.00" fill="darkmagenta">99,81</text>
</g>
<!-- 4 -->
<g id="node3" class="node">
<title>4</title>
<ellipse fill="none" stroke="black" cx="900.5" cy="-223.4" rx="117.5" ry="18"/>
<text text-anchor="middle" x="900.5" y="-219.7" font-family="Times New Roman,serif" font-size="14.00">4. </text>
<text text-anchor="start" x="1018" y="-247" font-family="Times New Roman,serif" font-size="14.00" fill="darkorange">83,65</text>
</g>
<!-- 1&#45;&gt;4 -->
<g id="edge2" class="edge">
<title>1&#45;&gt;4</title>
<path fill="none" stroke="blue" stroke-width="4.33" d="M775.75,-323.48C786.91,-318 799.02,-311.46 809.5,-304.4 833.86,-288 858.72,-265.69 876.28,-248.8"/>
<polygon fill="blue" stroke="blue" stroke-width="4.33" points="879.3,-251.16 883.81,-241.46 874.01,-245.73 879.3,-251.16"/>
<text text-anchor="middle" x="905.5" y="-293.2" font-family="Times New Roman,serif" font-size="14.00">&quot;(len(arr) &gt; 1)&quot;</text>
<text text-anchor="middle" x="905.5" y="-278.2" font-family="Times New Roman,serif" font-size="14.00">c[5]</text>
<text text-anchor="middle" x="905.5" y="-263.2" font-family="Times New Roman,serif" font-size="14.00"> Score: 0.4</text>
<text text-anchor="start" x="825.62" y="-275.55" font-family="Times New Roman,serif" font-size="14.00" fill="darkmagenta">83,65</text>
</g>
<!-- 5 -->
<g id="node4" class="node">
<title>5</title>
<ellipse fill="none" stroke="black" cx="449.5" cy="-106.4" rx="418.5" ry="18"/>
<text text-anchor="middle" x="449.5" y="-102.7" font-family="Times New Roman,serif" font-size="14.00">5. </text>
<text text-anchor="start" x="0" y="-130" font-family="Times New Roman,serif" font-size="14.00" fill="darkorange">65,39</text>
</g>
<!-- 4&#45;&gt;5 -->
<g id="edge3" class="edge">
<title>4&#45;&gt;5</title>
<path fill="none" stroke="blue" stroke-width="4.33" d="M842.46,-207.6C761.52,-186.96 614.62,-149.5 525.17,-126.69"/>
<polygon fill="blue" stroke="blue" stroke-width="4.33" points="525.98,-122.99 515.36,-124.19 524.11,-130.34 525.98,-122.99"/>
<text text-anchor="middle" x="810" y="-176.2" font-family="Times New Roman,serif" font-size="14.00">&quot;len(arr) % 2 == 0&quot;</text>
<text text-anchor="middle" x="810" y="-161.2" font-family="Times New Roman,serif" font-size="14.00">c[6]</text>
<text text-anchor="middle" x="810" y="-146.2" font-family="Times New Roman,serif" font-size="14.00"> Score: 0.4</text>
<text text-anchor="start" x="647.84" y="-169.68" font-family="Times New Roman,serif" font-size="14.00" fill="darkmagenta">65,39</text>
</g>
<!-- 7 -->
<g id="node5" class="node">
<title>7</title>
<ellipse fill="none" stroke="black" cx="1350.5" cy="-106.4" rx="464" ry="18"/>
<text text-anchor="middle" x="1350.5" y="-102.7" font-family="Times New Roman,serif" font-size="14.00">7. </text>
<text text-anchor="start" x="855.5" y="-28.6" font-family="Times New Roman,serif" font-size="14.00" fill="darkorange">18,26</text>
</g>
<!-- 4&#45;&gt;7 -->
<g id="edge4" class="edge">
<title>4&#45;&gt;7</title>
<path fill="none" stroke="blue" stroke-width="5" d="M958.41,-207.6C1039.06,-186.99 1185.33,-149.61 1274.62,-126.79"/>
<polygon fill="blue" stroke="blue" stroke-width="5" points="1275.81,-131 1284.42,-124.29 1273.64,-122.53 1275.81,-131"/>
<text text-anchor="middle" x="1263" y="-176.2" font-family="Times New Roman,serif" font-size="14.00">&quot;(len(arr) % 2 != 0)&quot;</text>
<text text-anchor="middle" x="1263" y="-161.2" font-family="Times New Roman,serif" font-size="14.00">c[7]</text>
<text text-anchor="middle" x="1263" y="-146.2" font-family="Times New Roman,serif" font-size="14.00"> Score: 0.48</text>
<text text-anchor="start" x="1090.41" y="-169.74" font-family="Times New Roman,serif" font-size="14.00" fill="darkmagenta">18,26</text>
</g>
</g>
</svg>
