<?xml version="1.0" encoding="UTF-8" standalone="no"?>
<!DOCTYPE svg PUBLIC "-//W3C//DTD SVG 1.1//EN"
 "http://www.w3.org/Graphics/SVG/1.1/DTD/svg11.dtd">
<!-- Generated by graphviz version 10.0.1 (20240210.2158)
 -->
<!-- Title: clustercircle_overlap_status Pages: 1 -->
<svg width="966pt" height="588pt"
 viewBox="0.00 0.00 966.18 587.58" xmlns="http://www.w3.org/2000/svg" xmlns:xlink="http://www.w3.org/1999/xlink">
<g id="graph0" class="graph" transform="scale(1 1) rotate(0) translate(4 583.58)">
<title>clustercircle_overlap_status</title>
<polygon fill="white" stroke="none" points="-4,4 -4,-583.58 962.18,-583.58 962.18,4 -4,4"/>
<text text-anchor="middle" x="479.09" y="-6.9" font-family="Times New Roman,serif" font-size="8.00">circle_overlap_status</text>
<!-- 1 -->
<g id="node1" class="node">
<title>1</title>
<ellipse fill="none" stroke="black" cx="200.75" cy="-530.01" rx="189.5" ry="39.07"/>
<text text-anchor="middle" x="200.75" y="-532.91" font-family="Times New Roman,serif" font-size="8.00">1. d = math.sqrt((x1 &#45; x2) ** 2 + (y1 &#45; y2) ** 2)</text>
<text text-anchor="middle" x="200.75" y="-522.41" font-family="Times New Roman,serif" font-size="8.00">if d &lt;= r1 &#45; r2:</text>
<text text-anchor="start" x="0" y="-561.48" font-family="Times New Roman,serif" font-size="8.00" fill="darkorange">1,1</text>
</g>
<!-- 2 -->
<g id="node2" class="node">
<title>2</title>
<ellipse fill="none" stroke="black" cx="165.75" cy="-406.01" rx="85.56" ry="27.93"/>
<text text-anchor="middle" x="165.75" y="-403.66" font-family="Times New Roman,serif" font-size="8.00">2. return &#39;C2 is in C1&#39;</text>
<text text-anchor="start" x="68.94" y="-426.34" font-family="Times New Roman,serif" font-size="8.00" fill="darkorange">0,0</text>
</g>
<!-- 1&#45;&gt;2 -->
<g id="edge1" class="edge">
<title>1&#45;&gt;2</title>
<path fill="none" stroke="black" d="M189.78,-490.75C185.59,-476.16 180.82,-459.54 176.65,-444.98"/>
<polygon fill="black" stroke="black" points="180.13,-444.42 174,-435.77 173.4,-446.35 180.13,-444.42"/>
<text text-anchor="middle" x="208.38" y="-465.34" font-family="Times New Roman,serif" font-size="8.00">&quot;d &lt;= r1 &#45; r2&quot;</text>
<text text-anchor="middle" x="208.38" y="-454.84" font-family="Times New Roman,serif" font-size="8.00">c[1]</text>
<text text-anchor="start" x="159.24" y="-455.14" font-family="Times New Roman,serif" font-size="8.00" fill="darkmagenta"> &#160;0,0 &#160;&#160;</text>
</g>
<!-- 4 -->
<g id="node3" class="node">
<title>4</title>
<ellipse fill="none" stroke="black" cx="337.75" cy="-406.01" rx="68.06" ry="27.93"/>
<text text-anchor="middle" x="337.75" y="-403.66" font-family="Times New Roman,serif" font-size="8.00">4. if d &lt;= r2 &#45; r1:</text>
<text text-anchor="start" x="258.45" y="-426.34" font-family="Times New Roman,serif" font-size="8.00" fill="darkorange">1,1</text>
</g>
<!-- 1&#45;&gt;4 -->
<g id="edge2" class="edge">
<title>1&#45;&gt;4</title>
<path fill="none" stroke="blue" d="M242.6,-491.75C261.4,-475 283.37,-455.44 301.47,-439.33"/>
<polygon fill="blue" stroke="blue" points="303.73,-442 308.87,-432.73 299.08,-436.77 303.73,-442"/>
<text text-anchor="middle" x="310.13" y="-465.34" font-family="Times New Roman,serif" font-size="8.00">&quot;(d &gt; r1 &#45; r2)&quot;</text>
<text text-anchor="middle" x="310.13" y="-454.84" font-family="Times New Roman,serif" font-size="8.00">c[2]</text>
<text text-anchor="start" x="254.06" y="-453.91" font-family="Times New Roman,serif" font-size="8.00" fill="darkmagenta"> &#160;1,1 &#160;&#160;</text>
</g>
<!-- 5 -->
<g id="node4" class="node">
<title>5</title>
<ellipse fill="none" stroke="black" cx="277.75" cy="-293.15" rx="85.56" ry="27.93"/>
<text text-anchor="middle" x="277.75" y="-290.8" font-family="Times New Roman,serif" font-size="8.00">5. return &#39;C1 is in C2&#39;</text>
<text text-anchor="start" x="180.94" y="-313.48" font-family="Times New Roman,serif" font-size="8.00" fill="darkorange">0,0</text>
</g>
<!-- 4&#45;&gt;5 -->
<g id="edge3" class="edge">
<title>4&#45;&gt;5</title>
<path fill="none" stroke="black" d="M323.38,-378.46C315.65,-364.17 305.99,-346.32 297.55,-330.73"/>
<polygon fill="black" stroke="black" points="300.77,-329.33 292.94,-322.21 294.62,-332.67 300.77,-329.33"/>
<text text-anchor="middle" x="337.38" y="-352.48" font-family="Times New Roman,serif" font-size="8.00">&quot;d &lt;= r2 &#45; r1&quot;</text>
<text text-anchor="middle" x="337.38" y="-341.98" font-family="Times New Roman,serif" font-size="8.00">c[3]</text>
<text text-anchor="start" x="285.31" y="-342.09" font-family="Times New Roman,serif" font-size="8.00" fill="darkmagenta"> &#160;0,0 &#160;&#160;</text>
</g>
<!-- 7 -->
<g id="node5" class="node">
<title>7</title>
<ellipse fill="none" stroke="black" cx="445.75" cy="-293.15" rx="64.88" ry="27.93"/>
<text text-anchor="middle" x="445.75" y="-290.8" font-family="Times New Roman,serif" font-size="8.00">7. if d &lt; r1 + r2:</text>
<text text-anchor="start" x="369.63" y="-313.48" font-family="Times New Roman,serif" font-size="8.00" fill="darkorange">1,1</text>
</g>
<!-- 4&#45;&gt;7 -->
<g id="edge4" class="edge">
<title>4&#45;&gt;7</title>
<path fill="none" stroke="blue" d="M362.53,-379.58C377.62,-364.09 397.07,-344.12 413.38,-327.39"/>
<polygon fill="blue" stroke="blue" points="415.56,-330.16 420.04,-320.55 410.55,-325.27 415.56,-330.16"/>
<text text-anchor="middle" x="426.13" y="-352.48" font-family="Times New Roman,serif" font-size="8.00">&quot;(d &gt; r2 &#45; r1)&quot;</text>
<text text-anchor="middle" x="426.13" y="-341.98" font-family="Times New Roman,serif" font-size="8.00">c[4]</text>
<text text-anchor="start" x="369.54" y="-341.69" font-family="Times New Roman,serif" font-size="8.00" fill="darkmagenta"> &#160;1,1 &#160;&#160;</text>
</g>
<!-- 8 -->
<g id="node6" class="node">
<title>8</title>
<ellipse fill="none" stroke="black" cx="360.75" cy="-169.79" rx="191.1" ry="27.93"/>
<text text-anchor="middle" x="360.75" y="-167.44" font-family="Times New Roman,serif" font-size="8.00">8. return &#39;Circumference of C1 and C2 intersect&#39;</text>
<text text-anchor="start" x="158.41" y="-190.12" font-family="Times New Roman,serif" font-size="8.00" fill="darkorange">1,0</text>
</g>
<!-- 7&#45;&gt;8 -->
<g id="edge5" class="edge">
<title>7&#45;&gt;8</title>
<path fill="none" stroke="#429e6a" d="M427.52,-266.12C415.5,-248.96 399.59,-226.24 386.31,-207.29"/>
<polygon fill="#429e6a" stroke="#429e6a" points="389.31,-205.47 380.71,-199.29 383.58,-209.48 389.31,-205.47"/>
<text text-anchor="middle" x="435.88" y="-234.37" font-family="Times New Roman,serif" font-size="8.00">&quot;d &lt; r1 + r2&quot;</text>
<text text-anchor="middle" x="435.88" y="-223.87" font-family="Times New Roman,serif" font-size="8.00">c[5]</text>
<text text-anchor="start" x="381.2" y="-224.5" font-family="Times New Roman,serif" font-size="8.00" fill="darkmagenta"> &#160;1,0 &#160;&#160;</text>
</g>
<!-- 10 -->
<g id="node7" class="node">
<title>10</title>
<ellipse fill="none" stroke="black" cx="634.75" cy="-169.79" rx="64.88" ry="27.93"/>
<text text-anchor="middle" x="634.75" y="-167.44" font-family="Times New Roman,serif" font-size="8.00">10. if d &gt; r1 + r2:</text>
<text text-anchor="start" x="558.63" y="-190.12" font-family="Times New Roman,serif" font-size="8.00" fill="darkorange">0,1</text>
</g>
<!-- 7&#45;&gt;10 -->
<g id="edge6" class="edge">
<title>7&#45;&gt;10</title>
<path fill="none" stroke="red" stroke-width="5" d="M481.3,-269.33C510.87,-250.34 553.25,-223.12 585.99,-202.1"/>
<polygon fill="red" stroke="red" stroke-width="5" points="588.06,-205.97 594.12,-196.89 583.34,-198.61 588.06,-205.97"/>
<text text-anchor="middle" x="590.13" y="-239.62" font-family="Times New Roman,serif" font-size="8.00">&quot;(d &gt;= r1 + r2)&quot;</text>
<text text-anchor="middle" x="590.13" y="-229.12" font-family="Times New Roman,serif" font-size="8.00">c[6]</text>
<text text-anchor="middle" x="590.13" y="-218.62" font-family="Times New Roman,serif" font-size="8.00">Score: 1.0</text>
<text text-anchor="start" x="517.73" y="-223.89" font-family="Times New Roman,serif" font-size="8.00" fill="darkmagenta"> &#160;0,1 &#160;&#160;</text>
</g>
<!-- 11 -->
<g id="node8" class="node">
<title>11</title>
<ellipse fill="none" stroke="black" cx="454.75" cy="-46.43" rx="196.4" ry="27.93"/>
<text text-anchor="middle" x="454.75" y="-44.08" font-family="Times New Roman,serif" font-size="8.00">11. return &#39;Circumference of C1 and C2 will touch&#39;</text>
<text text-anchor="start" x="247.11" y="-66.76" font-family="Times New Roman,serif" font-size="8.00" fill="darkorange">0,1</text>
</g>
<!-- 10&#45;&gt;11 -->
<g id="edge7" class="edge">
<title>10&#45;&gt;11</title>
<path fill="none" stroke="red" stroke-width="5" d="M600.47,-145.68C574.29,-128.03 537.74,-103.38 507.79,-83.19"/>
<polygon fill="red" stroke="red" stroke-width="5" points="510.46,-79.72 499.73,-77.75 505.57,-86.97 510.46,-79.72"/>
<text text-anchor="middle" x="588.88" y="-116.26" font-family="Times New Roman,serif" font-size="8.00">&quot;d &gt; r1 + r2&quot;</text>
<text text-anchor="middle" x="588.88" y="-105.76" font-family="Times New Roman,serif" font-size="8.00">c[7]</text>
<text text-anchor="middle" x="588.88" y="-95.26" font-family="Times New Roman,serif" font-size="8.00">Score: 1.0</text>
<text text-anchor="start" x="525.06" y="-102.4" font-family="Times New Roman,serif" font-size="8.00" fill="darkmagenta"> &#160;0,1 &#160;&#160;</text>
</g>
<!-- 13 -->
<g id="node9" class="node">
<title>13</title>
<ellipse fill="none" stroke="black" cx="813.75" cy="-46.43" rx="144.42" ry="27.93"/>
<text text-anchor="middle" x="813.75" y="-44.08" font-family="Times New Roman,serif" font-size="8.00">13. return &#39;C1 and C2 do not overlap&#39;</text>
<text text-anchor="start" x="658.08" y="-66.76" font-family="Times New Roman,serif" font-size="8.00" fill="darkorange">0,0</text>
</g>
<!-- 10&#45;&gt;13 -->
<g id="edge8" class="edge">
<title>10&#45;&gt;13</title>
<path fill="none" stroke="black" d="M668.84,-145.68C696.33,-127.04 735.31,-100.61 765.92,-79.86"/>
<polygon fill="black" stroke="black" points="767.56,-82.98 773.88,-74.47 763.64,-77.18 767.56,-82.98"/>
<text text-anchor="middle" x="773.13" y="-111.01" font-family="Times New Roman,serif" font-size="8.00">&quot;(d &lt;= r1 + r2)&quot;</text>
<text text-anchor="middle" x="773.13" y="-100.51" font-family="Times New Roman,serif" font-size="8.00">c[8]</text>
<text text-anchor="start" x="699.3" y="-102.17" font-family="Times New Roman,serif" font-size="8.00" fill="darkmagenta"> &#160;0,0 &#160;&#160;</text>
</g>
</g>
</svg>
