<?xml version="1.0" encoding="UTF-8" standalone="no"?>
<!DOCTYPE svg PUBLIC "-//W3C//DTD SVG 1.1//EN"
 "http://www.w3.org/Graphics/SVG/1.1/DTD/svg11.dtd">
<!-- Generated by graphviz version 10.0.1 (20240210.2158)
 -->
<!-- Title: clustercircle_overlap_status Pages: 1 -->
<svg width="966pt" height="589pt"
 viewBox="0.00 0.00 966.18 589.08" xmlns="http://www.w3.org/2000/svg" xmlns:xlink="http://www.w3.org/1999/xlink">
<g id="graph0" class="graph" transform="scale(1 1) rotate(0) translate(4 585.08)">
<title>clustercircle_overlap_status</title>
<polygon fill="white" stroke="none" points="-4,4 -4,-585.08 962.18,-585.08 962.18,4 -4,4"/>
<text text-anchor="middle" x="479.09" y="-5.75" font-family="Times New Roman,serif" font-size="10.00">circle_overlap_status</text>
<!-- 1 -->
<g id="node1" class="node">
<title>1</title>
<ellipse fill="none" stroke="black" cx="200.75" cy="-530.76" rx="189.5" ry="39.07"/>
<text text-anchor="middle" x="200.75" y="-532.51" font-family="Times New Roman,serif" font-size="10.00">1. d = math.sqrt((x1 &#45; x2) ** 2 + (y1 &#45; y2) ** 2)</text>
<text text-anchor="middle" x="200.75" y="-521.26" font-family="Times New Roman,serif" font-size="10.00">if d &lt;= r1 &#45; r2:</text>
<text text-anchor="start" x="0" y="-560.33" font-family="Times New Roman,serif" font-size="10.00" fill="darkorange">1,1</text>
</g>
<!-- 2 -->
<g id="node2" class="node">
<title>2</title>
<ellipse fill="none" stroke="black" cx="165.75" cy="-406.76" rx="85.56" ry="27.93"/>
<text text-anchor="middle" x="165.75" y="-402.89" font-family="Times New Roman,serif" font-size="10.00">2. return &#39;C2 is in C1&#39;</text>
<text text-anchor="start" x="68.94" y="-425.19" font-family="Times New Roman,serif" font-size="10.00" fill="darkorange">0,0</text>
</g>
<!-- 1&#45;&gt;2 -->
<g id="edge1" class="edge">
<title>1&#45;&gt;2</title>
<path fill="none" stroke="black" d="M189.78,-491.5C185.59,-476.91 180.82,-460.29 176.65,-445.73"/>
<polygon fill="black" stroke="black" points="180.13,-445.17 174,-436.52 173.4,-447.1 180.13,-445.17"/>
<text text-anchor="middle" x="208.38" y="-466.09" font-family="Times New Roman,serif" font-size="8.00">&quot;d &lt;= r1 &#45; r2&quot;</text>
<text text-anchor="middle" x="208.38" y="-455.59" font-family="Times New Roman,serif" font-size="8.00">c[1]</text>
<text text-anchor="start" x="154.74" y="-455.89" font-family="Times New Roman,serif" font-size="8.00" fill="darkmagenta"> &#160;&#160;&#160;&#160;0,0 &#160;</text>
</g>
<!-- 4 -->
<g id="node3" class="node">
<title>4</title>
<ellipse fill="none" stroke="black" cx="337.75" cy="-406.76" rx="68.06" ry="27.93"/>
<text text-anchor="middle" x="337.75" y="-402.89" font-family="Times New Roman,serif" font-size="10.00">4. if d &lt;= r2 &#45; r1:</text>
<text text-anchor="start" x="258.45" y="-425.19" font-family="Times New Roman,serif" font-size="10.00" fill="darkorange">1,1</text>
</g>
<!-- 1&#45;&gt;4 -->
<g id="edge2" class="edge">
<title>1&#45;&gt;4</title>
<path fill="none" stroke="blue" d="M242.6,-492.5C261.4,-475.75 283.37,-456.19 301.47,-440.08"/>
<polygon fill="blue" stroke="blue" points="303.73,-442.75 308.87,-433.48 299.08,-437.52 303.73,-442.75"/>
<text text-anchor="middle" x="310.13" y="-466.09" font-family="Times New Roman,serif" font-size="8.00">&quot;(d &gt; r1 &#45; r2)&quot;</text>
<text text-anchor="middle" x="310.13" y="-455.59" font-family="Times New Roman,serif" font-size="8.00">c[2]</text>
<text text-anchor="start" x="249.56" y="-454.66" font-family="Times New Roman,serif" font-size="8.00" fill="darkmagenta"> &#160;&#160;&#160;&#160;1,1 &#160;</text>
</g>
<!-- 5 -->
<g id="node4" class="node">
<title>5</title>
<ellipse fill="none" stroke="black" cx="277.75" cy="-293.9" rx="85.56" ry="27.93"/>
<text text-anchor="middle" x="277.75" y="-290.03" font-family="Times New Roman,serif" font-size="10.00">5. return &#39;C1 is in C2&#39;</text>
<text text-anchor="start" x="180.94" y="-312.33" font-family="Times New Roman,serif" font-size="10.00" fill="darkorange">0,0</text>
</g>
<!-- 4&#45;&gt;5 -->
<g id="edge3" class="edge">
<title>4&#45;&gt;5</title>
<path fill="none" stroke="black" d="M323.38,-379.21C315.65,-364.92 305.99,-347.07 297.55,-331.48"/>
<polygon fill="black" stroke="black" points="300.77,-330.08 292.94,-322.96 294.62,-333.42 300.77,-330.08"/>
<text text-anchor="middle" x="337.38" y="-353.23" font-family="Times New Roman,serif" font-size="8.00">&quot;d &lt;= r2 &#45; r1&quot;</text>
<text text-anchor="middle" x="337.38" y="-342.73" font-family="Times New Roman,serif" font-size="8.00">c[3]</text>
<text text-anchor="start" x="280.81" y="-342.84" font-family="Times New Roman,serif" font-size="8.00" fill="darkmagenta"> &#160;&#160;&#160;&#160;0,0 &#160;</text>
</g>
<!-- 7 -->
<g id="node5" class="node">
<title>7</title>
<ellipse fill="none" stroke="black" cx="445.75" cy="-293.9" rx="64.88" ry="27.93"/>
<text text-anchor="middle" x="445.75" y="-290.03" font-family="Times New Roman,serif" font-size="10.00">7. if d &lt; r1 + r2:</text>
<text text-anchor="start" x="369.63" y="-312.33" font-family="Times New Roman,serif" font-size="10.00" fill="darkorange">1,1</text>
</g>
<!-- 4&#45;&gt;7 -->
<g id="edge4" class="edge">
<title>4&#45;&gt;7</title>
<path fill="none" stroke="blue" d="M362.53,-380.33C377.62,-364.84 397.07,-344.87 413.38,-328.14"/>
<polygon fill="blue" stroke="blue" points="415.56,-330.91 420.04,-321.3 410.55,-326.02 415.56,-330.91"/>
<text text-anchor="middle" x="426.13" y="-353.23" font-family="Times New Roman,serif" font-size="8.00">&quot;(d &gt; r2 &#45; r1)&quot;</text>
<text text-anchor="middle" x="426.13" y="-342.73" font-family="Times New Roman,serif" font-size="8.00">c[4]</text>
<text text-anchor="start" x="365.04" y="-342.44" font-family="Times New Roman,serif" font-size="8.00" fill="darkmagenta"> &#160;&#160;&#160;&#160;1,1 &#160;</text>
</g>
<!-- 8 -->
<g id="node6" class="node">
<title>8</title>
<ellipse fill="none" stroke="black" cx="360.75" cy="-170.54" rx="191.1" ry="27.93"/>
<text text-anchor="middle" x="360.75" y="-166.67" font-family="Times New Roman,serif" font-size="10.00">8. return &#39;Circumference of C1 and C2 intersect&#39;</text>
<text text-anchor="start" x="158.41" y="-188.97" font-family="Times New Roman,serif" font-size="10.00" fill="darkorange">1,0</text>
</g>
<!-- 7&#45;&gt;8 -->
<g id="edge5" class="edge">
<title>7&#45;&gt;8</title>
<path fill="none" stroke="#429e6a" d="M427.52,-266.87C415.5,-249.71 399.59,-226.99 386.31,-208.04"/>
<polygon fill="#429e6a" stroke="#429e6a" points="389.31,-206.22 380.71,-200.04 383.58,-210.23 389.31,-206.22"/>
<text text-anchor="middle" x="435.88" y="-235.12" font-family="Times New Roman,serif" font-size="8.00">&quot;d &lt; r1 + r2&quot;</text>
<text text-anchor="middle" x="435.88" y="-224.62" font-family="Times New Roman,serif" font-size="8.00">c[5]</text>
<text text-anchor="start" x="376.7" y="-225.25" font-family="Times New Roman,serif" font-size="8.00" fill="darkmagenta"> &#160;&#160;&#160;&#160;1,0 &#160;</text>
</g>
<!-- 10 -->
<g id="node7" class="node">
<title>10</title>
<ellipse fill="none" stroke="black" cx="634.75" cy="-170.54" rx="64.88" ry="27.93"/>
<text text-anchor="middle" x="634.75" y="-166.67" font-family="Times New Roman,serif" font-size="10.00">10. if d &gt; r1 + r2:</text>
<text text-anchor="start" x="558.63" y="-188.97" font-family="Times New Roman,serif" font-size="10.00" fill="darkorange">0,1</text>
</g>
<!-- 7&#45;&gt;10 -->
<g id="edge6" class="edge">
<title>7&#45;&gt;10</title>
<path fill="none" stroke="red" stroke-width="5" d="M481.3,-270.08C510.87,-251.09 553.25,-223.87 585.99,-202.85"/>
<polygon fill="red" stroke="red" stroke-width="5" points="588.06,-206.72 594.12,-197.64 583.34,-199.36 588.06,-206.72"/>
<text text-anchor="middle" x="590.13" y="-240.37" font-family="Times New Roman,serif" font-size="8.00">&quot;(d &gt;= r1 + r2)&quot;</text>
<text text-anchor="middle" x="590.13" y="-229.87" font-family="Times New Roman,serif" font-size="8.00">c[6]</text>
<text text-anchor="middle" x="590.13" y="-219.37" font-family="Times New Roman,serif" font-size="8.00"> &#160;Score: 1.0</text>
<text text-anchor="start" x="513.23" y="-224.64" font-family="Times New Roman,serif" font-size="8.00" fill="darkmagenta"> &#160;&#160;&#160;&#160;0,1 &#160;</text>
</g>
<!-- 11 -->
<g id="node8" class="node">
<title>11</title>
<ellipse fill="none" stroke="black" cx="454.75" cy="-47.18" rx="196.4" ry="27.93"/>
<text text-anchor="middle" x="454.75" y="-43.31" font-family="Times New Roman,serif" font-size="10.00">11. return &#39;Circumference of C1 and C2 will touch&#39;</text>
<text text-anchor="start" x="247.11" y="-65.61" font-family="Times New Roman,serif" font-size="10.00" fill="darkorange">0,1</text>
</g>
<!-- 10&#45;&gt;11 -->
<g id="edge7" class="edge">
<title>10&#45;&gt;11</title>
<path fill="none" stroke="red" stroke-width="5" d="M600.47,-146.43C574.29,-128.78 537.74,-104.13 507.79,-83.94"/>
<polygon fill="red" stroke="red" stroke-width="5" points="510.46,-80.47 499.73,-78.5 505.57,-87.72 510.46,-80.47"/>
<text text-anchor="middle" x="588.88" y="-117.01" font-family="Times New Roman,serif" font-size="8.00">&quot;d &gt; r1 + r2&quot;</text>
<text text-anchor="middle" x="588.88" y="-106.51" font-family="Times New Roman,serif" font-size="8.00">c[7]</text>
<text text-anchor="middle" x="588.88" y="-96.01" font-family="Times New Roman,serif" font-size="8.00"> &#160;Score: 1.0</text>
<text text-anchor="start" x="520.56" y="-103.15" font-family="Times New Roman,serif" font-size="8.00" fill="darkmagenta"> &#160;&#160;&#160;&#160;0,1 &#160;</text>
</g>
<!-- 13 -->
<g id="node9" class="node">
<title>13</title>
<ellipse fill="none" stroke="black" cx="813.75" cy="-47.18" rx="144.42" ry="27.93"/>
<text text-anchor="middle" x="813.75" y="-43.31" font-family="Times New Roman,serif" font-size="10.00">13. return &#39;C1 and C2 do not overlap&#39;</text>
<text text-anchor="start" x="658.08" y="-65.61" font-family="Times New Roman,serif" font-size="10.00" fill="darkorange">0,0</text>
</g>
<!-- 10&#45;&gt;13 -->
<g id="edge8" class="edge">
<title>10&#45;&gt;13</title>
<path fill="none" stroke="black" d="M668.84,-146.43C696.33,-127.79 735.31,-101.36 765.92,-80.61"/>
<polygon fill="black" stroke="black" points="767.56,-83.73 773.88,-75.22 763.64,-77.93 767.56,-83.73"/>
<text text-anchor="middle" x="773.13" y="-111.76" font-family="Times New Roman,serif" font-size="8.00">&quot;(d &lt;= r1 + r2)&quot;</text>
<text text-anchor="middle" x="773.13" y="-101.26" font-family="Times New Roman,serif" font-size="8.00">c[8]</text>
<text text-anchor="start" x="694.8" y="-102.92" font-family="Times New Roman,serif" font-size="8.00" fill="darkmagenta"> &#160;&#160;&#160;&#160;0,0 &#160;</text>
</g>
</g>
</svg>
