<?xml version="1.0" encoding="UTF-8" standalone="no"?>
<!DOCTYPE svg PUBLIC "-//W3C//DTD SVG 1.1//EN"
 "http://www.w3.org/Graphics/SVG/1.1/DTD/svg11.dtd">
<!-- Generated by graphviz version 10.0.1 (20240210.2158)
 -->
<!-- Title: clustercircle_overlap_status Pages: 1 -->
<svg width="942pt" height="682pt"
 viewBox="0.00 0.00 942.18 682.08" xmlns="http://www.w3.org/2000/svg" xmlns:xlink="http://www.w3.org/1999/xlink">
<g id="graph0" class="graph" transform="scale(1 1) rotate(0) translate(4 678.08)">
<title>clustercircle_overlap_status</title>
<polygon fill="white" stroke="none" points="-4,4 -4,-678.08 938.18,-678.08 938.18,4 -4,4"/>
<text text-anchor="middle" x="467.09" y="-6.45" font-family="Times New Roman,serif" font-size="14.00">circle_overlap_status</text>
<!-- 1 -->
<g id="node1" class="node">
<title>1</title>
<ellipse fill="none" stroke="black" cx="206.75" cy="-619.26" rx="189.5" ry="39.07"/>
<text text-anchor="middle" x="206.75" y="-621.71" font-family="Times New Roman,serif" font-size="14.00">1. d = math.sqrt((x1 &#45; x2) ** 2 + (y1 &#45; y2) ** 2)</text>
<text text-anchor="middle" x="206.75" y="-605.96" font-family="Times New Roman,serif" font-size="14.00">if d &lt;= r1 &#45; r2:</text>
<text text-anchor="start" x="0" y="-645.03" font-family="Times New Roman,serif" font-size="14.00" fill="darkorange">1,1</text>
</g>
<!-- 2 -->
<g id="node2" class="node">
<title>2</title>
<ellipse fill="none" stroke="black" cx="156.75" cy="-469.01" rx="85.56" ry="27.93"/>
<text text-anchor="middle" x="156.75" y="-463.59" font-family="Times New Roman,serif" font-size="14.00">2. return &#39;C2 is in C1&#39;</text>
<text text-anchor="start" x="53.94" y="-483.64" font-family="Times New Roman,serif" font-size="14.00" fill="darkorange">0,0</text>
</g>
<!-- 1&#45;&gt;2 -->
<g id="edge1" class="edge">
<title>1&#45;&gt;2</title>
<path fill="none" stroke="black" d="M193.88,-580.08C186.35,-557.77 176.89,-529.73 169.41,-507.53"/>
<polygon fill="black" stroke="black" points="172.8,-506.63 166.29,-498.27 166.16,-508.87 172.8,-506.63"/>
<text text-anchor="middle" x="226.75" y="-541.02" font-family="Times New Roman,serif" font-size="14.00">&quot;d &lt;= r1 &#45; r2&quot;</text>
<text text-anchor="middle" x="226.75" y="-525.27" font-family="Times New Roman,serif" font-size="14.00">c[1]</text>
<polygon fill="white" stroke="none" points="148.84,-540.47 148.84,-564.22 177.84,-564.22 177.84,-540.47 148.84,-540.47"/>
<text text-anchor="start" x="152.84" y="-546.92" font-family="Times New Roman,serif" font-size="14.00" fill="darkmagenta">0, 0</text>
</g>
<!-- 4 -->
<g id="node3" class="node">
<title>4</title>
<ellipse fill="none" stroke="black" cx="328.75" cy="-469.01" rx="68.06" ry="27.93"/>
<text text-anchor="middle" x="328.75" y="-463.59" font-family="Times New Roman,serif" font-size="14.00">4. if d &lt;= r2 &#45; r1:</text>
<text text-anchor="start" x="243.45" y="-483.64" font-family="Times New Roman,serif" font-size="14.00" fill="darkorange">1,1</text>
</g>
<!-- 1&#45;&gt;4 -->
<g id="edge2" class="edge">
<title>1&#45;&gt;4</title>
<path fill="none" stroke="blue" stroke-width="3.28" d="M251.62,-581.12C257.99,-575.07 264.24,-568.65 269.75,-562.19 283.54,-546.03 296.54,-526.41 306.81,-509.42"/>
<polygon fill="blue" stroke="blue" stroke-width="3.28" points="309.69,-511.44 311.74,-501.05 303.65,-507.89 309.69,-511.44"/>
<text text-anchor="middle" x="342.13" y="-548.89" font-family="Times New Roman,serif" font-size="14.00">&quot;(d &gt; r1 &#45; r2)&quot;</text>
<text text-anchor="middle" x="342.13" y="-533.14" font-family="Times New Roman,serif" font-size="14.00">c[2]</text>
<text text-anchor="middle" x="342.13" y="-517.39" font-family="Times New Roman,serif" font-size="14.00"> Score: 0.57</text>
<polygon fill="white" stroke="none" points="271.54,-515.44 271.54,-539.19 300.54,-539.19 300.54,-515.44 271.54,-515.44"/>
<text text-anchor="start" x="275.54" y="-521.89" font-family="Times New Roman,serif" font-size="14.00" fill="darkmagenta">1, 1</text>
</g>
<!-- 5 -->
<g id="node4" class="node">
<title>5</title>
<ellipse fill="none" stroke="black" cx="261.75" cy="-329.9" rx="85.56" ry="27.93"/>
<text text-anchor="middle" x="261.75" y="-324.48" font-family="Times New Roman,serif" font-size="14.00">5. return &#39;C1 is in C2&#39;</text>
<text text-anchor="start" x="158.94" y="-344.53" font-family="Times New Roman,serif" font-size="14.00" fill="darkorange">0,0</text>
</g>
<!-- 4&#45;&gt;5 -->
<g id="edge3" class="edge">
<title>4&#45;&gt;5</title>
<path fill="none" stroke="black" d="M307.92,-442.22C303.56,-436.15 299.24,-429.56 295.75,-423.08 286.54,-405.95 278.79,-385.8 273.03,-368.71"/>
<polygon fill="black" stroke="black" points="276.43,-367.84 270,-359.42 269.77,-370.01 276.43,-367.84"/>
<text text-anchor="middle" x="334.75" y="-401.91" font-family="Times New Roman,serif" font-size="14.00">&quot;d &lt;= r2 &#45; r1&quot;</text>
<text text-anchor="middle" x="334.75" y="-386.16" font-family="Times New Roman,serif" font-size="14.00">c[3]</text>
<polygon fill="white" stroke="none" points="254.47,-403.55 254.47,-427.3 283.47,-427.3 283.47,-403.55 254.47,-403.55"/>
<text text-anchor="start" x="258.47" y="-410" font-family="Times New Roman,serif" font-size="14.00" fill="darkmagenta">0, 0</text>
</g>
<!-- 7 -->
<g id="node5" class="node">
<title>7</title>
<ellipse fill="none" stroke="black" cx="429.75" cy="-329.9" rx="64.88" ry="27.93"/>
<text text-anchor="middle" x="429.75" y="-324.48" font-family="Times New Roman,serif" font-size="14.00">7. if d &lt; r1 + r2:</text>
<text text-anchor="start" x="347.63" y="-344.53" font-family="Times New Roman,serif" font-size="14.00" fill="darkorange">1,1</text>
</g>
<!-- 4&#45;&gt;7 -->
<g id="edge4" class="edge">
<title>4&#45;&gt;7</title>
<path fill="none" stroke="blue" stroke-width="3.28" d="M355.58,-443.35C361.86,-437.02 368.3,-430.03 373.75,-423.08 386.63,-406.7 398.89,-387.15 408.64,-370.28"/>
<polygon fill="blue" stroke="blue" stroke-width="3.28" points="411.58,-372.18 413.44,-361.75 405.48,-368.74 411.58,-372.18"/>
<text text-anchor="middle" x="445.13" y="-409.78" font-family="Times New Roman,serif" font-size="14.00">&quot;(d &gt; r2 &#45; r1)&quot;</text>
<text text-anchor="middle" x="445.13" y="-394.03" font-family="Times New Roman,serif" font-size="14.00">c[4]</text>
<text text-anchor="middle" x="445.13" y="-378.28" font-family="Times New Roman,serif" font-size="14.00"> Score: 0.57</text>
<polygon fill="white" stroke="none" points="374.23,-376.61 374.23,-400.36 403.23,-400.36 403.23,-376.61 374.23,-376.61"/>
<text text-anchor="start" x="378.23" y="-383.06" font-family="Times New Roman,serif" font-size="14.00" fill="darkmagenta">1, 1</text>
</g>
<!-- 8 -->
<g id="node6" class="node">
<title>8</title>
<ellipse fill="none" stroke="black" cx="336.75" cy="-190.79" rx="191.1" ry="27.93"/>
<text text-anchor="middle" x="336.75" y="-185.37" font-family="Times New Roman,serif" font-size="14.00">8. return &#39;Circumference of C1 and C2 intersect&#39;</text>
<text text-anchor="start" x="128.41" y="-205.42" font-family="Times New Roman,serif" font-size="14.00" fill="darkorange">1,0</text>
</g>
<!-- 7&#45;&gt;8 -->
<g id="edge5" class="edge">
<title>7&#45;&gt;8</title>
<path fill="none" stroke="#429e6a" d="M412.04,-302.79C397.68,-281.62 377.29,-251.55 361.34,-228.04"/>
<polygon fill="#429e6a" stroke="#429e6a" points="364.39,-226.31 355.88,-220 358.6,-230.24 364.39,-226.31"/>
<text text-anchor="middle" x="434.5" y="-262.8" font-family="Times New Roman,serif" font-size="14.00">&quot;d &lt; r1 + r2&quot;</text>
<text text-anchor="middle" x="434.5" y="-247.05" font-family="Times New Roman,serif" font-size="14.00">c[5]</text>
<polygon fill="white" stroke="none" points="352.53,-262.75 352.53,-286.5 381.53,-286.5 381.53,-262.75 352.53,-262.75"/>
<text text-anchor="start" x="356.53" y="-269.2" font-family="Times New Roman,serif" font-size="14.00" fill="darkmagenta">1, 0</text>
</g>
<!-- 10 -->
<g id="node7" class="node">
<title>10</title>
<ellipse fill="none" stroke="black" cx="610.75" cy="-190.79" rx="64.88" ry="27.93"/>
<text text-anchor="middle" x="610.75" y="-185.37" font-family="Times New Roman,serif" font-size="14.00">10. if d &gt; r1 + r2:</text>
<text text-anchor="start" x="528.63" y="-205.42" font-family="Times New Roman,serif" font-size="14.00" fill="darkorange">0,1</text>
</g>
<!-- 7&#45;&gt;10 -->
<g id="edge6" class="edge">
<title>7&#45;&gt;10</title>
<path fill="none" stroke="red" stroke-width="5" d="M461.28,-305.02C490.39,-282.97 533.92,-250 566.5,-225.31"/>
<polygon fill="red" stroke="red" stroke-width="5" points="568.98,-228.92 574.31,-219.4 563.7,-221.95 568.98,-228.92"/>
<text text-anchor="middle" x="593.13" y="-270.67" font-family="Times New Roman,serif" font-size="14.00">&quot;(d &gt;= r1 + r2)&quot;</text>
<text text-anchor="middle" x="593.13" y="-254.92" font-family="Times New Roman,serif" font-size="14.00">c[6]</text>
<text text-anchor="middle" x="593.13" y="-239.17" font-family="Times New Roman,serif" font-size="14.00"> Score: 1.0</text>
<polygon fill="white" stroke="none" points="489.45,-262.2 489.45,-285.95 518.45,-285.95 518.45,-262.2 489.45,-262.2"/>
<text text-anchor="start" x="493.45" y="-268.65" font-family="Times New Roman,serif" font-size="14.00" fill="darkmagenta">0, 1</text>
</g>
<!-- 11 -->
<g id="node8" class="node">
<title>11</title>
<ellipse fill="none" stroke="black" cx="430.75" cy="-51.68" rx="196.4" ry="27.93"/>
<text text-anchor="middle" x="430.75" y="-46.26" font-family="Times New Roman,serif" font-size="14.00">11. return &#39;Circumference of C1 and C2 will touch&#39;</text>
<text text-anchor="start" x="217.11" y="-66.31" font-family="Times New Roman,serif" font-size="14.00" fill="darkorange">0,1</text>
</g>
<!-- 10&#45;&gt;11 -->
<g id="edge7" class="edge">
<title>10&#45;&gt;11</title>
<path fill="none" stroke="red" stroke-width="5" d="M579.4,-165.91C551.6,-144.73 510.58,-113.49 478.67,-89.18"/>
<polygon fill="red" stroke="red" stroke-width="5" points="481.63,-85.93 471.02,-83.35 476.33,-92.89 481.63,-85.93"/>
<text text-anchor="middle" x="584.5" y="-131.56" font-family="Times New Roman,serif" font-size="14.00">&quot;d &gt; r1 + r2&quot;</text>
<text text-anchor="middle" x="584.5" y="-115.81" font-family="Times New Roman,serif" font-size="14.00">c[7]</text>
<text text-anchor="middle" x="584.5" y="-100.06" font-family="Times New Roman,serif" font-size="14.00"> Score: 1.0</text>
<polygon fill="white" stroke="none" points="491.66,-124.69 491.66,-148.44 520.66,-148.44 520.66,-124.69 491.66,-124.69"/>
<text text-anchor="start" x="495.66" y="-131.14" font-family="Times New Roman,serif" font-size="14.00" fill="darkmagenta">0, 1</text>
</g>
<!-- 13 -->
<g id="node9" class="node">
<title>13</title>
<ellipse fill="none" stroke="black" cx="789.75" cy="-51.68" rx="144.42" ry="27.93"/>
<text text-anchor="middle" x="789.75" y="-46.26" font-family="Times New Roman,serif" font-size="14.00">13. return &#39;C1 and C2 do not overlap&#39;</text>
<text text-anchor="start" x="628.08" y="-66.31" font-family="Times New Roman,serif" font-size="14.00" fill="darkorange">0,0</text>
</g>
<!-- 10&#45;&gt;13 -->
<g id="edge8" class="edge">
<title>10&#45;&gt;13</title>
<path fill="none" stroke="black" d="M641.93,-165.91C670.87,-143.75 714.2,-110.55 746.48,-85.83"/>
<polygon fill="black" stroke="black" points="748.26,-88.88 754.07,-80.02 744,-83.32 748.26,-88.88"/>
<text text-anchor="middle" x="771.13" y="-123.69" font-family="Times New Roman,serif" font-size="14.00">&quot;(d &lt;= r1 + r2)&quot;</text>
<text text-anchor="middle" x="771.13" y="-107.94" font-family="Times New Roman,serif" font-size="14.00">c[8]</text>
<polygon fill="white" stroke="none" points="667.59,-124.51 667.59,-148.26 696.59,-148.26 696.59,-124.51 667.59,-124.51"/>
<text text-anchor="start" x="671.59" y="-130.96" font-family="Times New Roman,serif" font-size="14.00" fill="darkmagenta">0, 0</text>
</g>
</g>
</svg>
