<?xml version="1.0" encoding="UTF-8" standalone="no"?>
<!DOCTYPE svg PUBLIC "-//W3C//DTD SVG 1.1//EN"
 "http://www.w3.org/Graphics/SVG/1.1/DTD/svg11.dtd">
<!-- Generated by graphviz version 10.0.1 (20240210.2158)
 -->
<!-- Title: clustercircle_overlap_status Pages: 1 -->
<svg width="681pt" height="588pt"
 viewBox="0.00 0.00 680.74 587.58" xmlns="http://www.w3.org/2000/svg" xmlns:xlink="http://www.w3.org/1999/xlink">
<g id="graph0" class="graph" transform="scale(1 1) rotate(0) translate(4 583.58)">
<title>clustercircle_overlap_status</title>
<polygon fill="white" stroke="none" points="-4,4 -4,-583.58 676.74,-583.58 676.74,4 -4,4"/>
<text text-anchor="middle" x="336.37" y="-6.9" font-family="Times New Roman,serif" font-size="8.00">circle_overlap_status</text>
<!-- 1 -->
<g id="node1" class="node">
<title>1</title>
<ellipse fill="none" stroke="black" cx="235.35" cy="-530.01" rx="189.5" ry="39.07"/>
<text text-anchor="middle" x="235.35" y="-532.91" font-family="Times New Roman,serif" font-size="8.00">1. d = math.sqrt((x1 &#45; x2) ** 2 + (y1 &#45; y2) ** 2)</text>
<text text-anchor="middle" x="235.35" y="-522.41" font-family="Times New Roman,serif" font-size="8.00">if d &lt;= r1 &#45; r2:</text>
<text text-anchor="start" x="34.59" y="-561.48" font-family="Times New Roman,serif" font-size="8.00" fill="darkorange">1,1</text>
</g>
<!-- 4 -->
<g id="node2" class="node">
<title>4</title>
<ellipse fill="none" stroke="black" cx="235.35" cy="-406.01" rx="68.06" ry="27.93"/>
<text text-anchor="middle" x="235.35" y="-403.66" font-family="Times New Roman,serif" font-size="8.00">4. if d &lt;= r2 &#45; r1:</text>
<text text-anchor="start" x="156.04" y="-426.34" font-family="Times New Roman,serif" font-size="8.00" fill="darkorange">1,1</text>
</g>
<!-- 1&#45;&gt;4 -->
<g id="edge1" class="edge">
<title>1&#45;&gt;4</title>
<path fill="none" stroke="blue" d="M235.35,-490.75C235.35,-476.3 235.35,-459.87 235.35,-445.41"/>
<polygon fill="blue" stroke="blue" points="238.85,-445.83 235.35,-435.83 231.85,-445.83 238.85,-445.83"/>
<text text-anchor="middle" x="259.72" y="-465.34" font-family="Times New Roman,serif" font-size="8.00">&quot;(d &gt; r1 &#45; r2)&quot;</text>
<text text-anchor="middle" x="259.72" y="-454.84" font-family="Times New Roman,serif" font-size="8.00">c[2]</text>
<text text-anchor="start" x="212.85" y="-455.06" font-family="Times New Roman,serif" font-size="8.00" fill="darkmagenta"> &#160;1,1 &#160;&#160;</text>
</g>
<!-- 7 -->
<g id="node3" class="node">
<title>7</title>
<ellipse fill="none" stroke="black" cx="235.35" cy="-293.15" rx="64.88" ry="27.93"/>
<text text-anchor="middle" x="235.35" y="-290.8" font-family="Times New Roman,serif" font-size="8.00">7. if d &lt; r1 + r2:</text>
<text text-anchor="start" x="159.22" y="-313.48" font-family="Times New Roman,serif" font-size="8.00" fill="darkorange">1,1</text>
</g>
<!-- 4&#45;&gt;7 -->
<g id="edge2" class="edge">
<title>4&#45;&gt;7</title>
<path fill="none" stroke="blue" d="M235.35,-377.61C235.35,-364.05 235.35,-347.46 235.35,-332.64"/>
<polygon fill="blue" stroke="blue" points="238.85,-332.76 235.35,-322.76 231.85,-332.76 238.85,-332.76"/>
<text text-anchor="middle" x="259.72" y="-352.48" font-family="Times New Roman,serif" font-size="8.00">&quot;(d &gt; r2 &#45; r1)&quot;</text>
<text text-anchor="middle" x="259.72" y="-341.98" font-family="Times New Roman,serif" font-size="8.00">c[4]</text>
<text text-anchor="start" x="212.85" y="-341.84" font-family="Times New Roman,serif" font-size="8.00" fill="darkmagenta"> &#160;1,1 &#160;&#160;</text>
</g>
<!-- 8 -->
<g id="node4" class="node">
<title>8</title>
<ellipse fill="none" stroke="black" cx="202.35" cy="-169.79" rx="191.1" ry="27.93"/>
<text text-anchor="middle" x="202.35" y="-167.44" font-family="Times New Roman,serif" font-size="8.00">8. return &#39;Circumference of C1 and C2 intersect&#39;</text>
<text text-anchor="start" x="0" y="-190.12" font-family="Times New Roman,serif" font-size="8.00" fill="darkorange">1,0</text>
</g>
<!-- 7&#45;&gt;8 -->
<g id="edge3" class="edge">
<title>7&#45;&gt;8</title>
<path fill="none" stroke="#429e6a" d="M227.94,-264.92C223.46,-248.44 217.68,-227.19 212.75,-209.04"/>
<polygon fill="#429e6a" stroke="#429e6a" points="216.12,-208.13 210.12,-199.4 209.37,-209.97 216.12,-208.13"/>
<text text-anchor="middle" x="245.47" y="-234.37" font-family="Times New Roman,serif" font-size="8.00">&quot;d &lt; r1 + r2&quot;</text>
<text text-anchor="middle" x="245.47" y="-223.87" font-family="Times New Roman,serif" font-size="8.00">c[5]</text>
<text text-anchor="start" x="196.29" y="-223.66" font-family="Times New Roman,serif" font-size="8.00" fill="darkmagenta"> &#160;1,0 &#160;&#160;</text>
</g>
<!-- 10 -->
<g id="node5" class="node">
<title>10</title>
<ellipse fill="none" stroke="black" cx="476.35" cy="-169.79" rx="64.88" ry="27.93"/>
<text text-anchor="middle" x="476.35" y="-167.44" font-family="Times New Roman,serif" font-size="8.00">10. if d &gt; r1 + r2:</text>
<text text-anchor="start" x="400.22" y="-190.12" font-family="Times New Roman,serif" font-size="8.00" fill="darkorange">0,1</text>
</g>
<!-- 7&#45;&gt;10 -->
<g id="edge4" class="edge">
<title>7&#45;&gt;10</title>
<path fill="none" stroke="red" stroke-width="5" d="M276.77,-271.29C316.47,-251.3 376.66,-220.99 420.56,-198.89"/>
<polygon fill="red" stroke="red" stroke-width="5" points="422.52,-202.8 429.48,-194.39 418.58,-194.98 422.52,-202.8"/>
<text text-anchor="middle" x="411.72" y="-239.62" font-family="Times New Roman,serif" font-size="8.00">&quot;(d &gt;= r1 + r2)&quot;</text>
<text text-anchor="middle" x="411.72" y="-229.12" font-family="Times New Roman,serif" font-size="8.00">c[6]</text>
<text text-anchor="middle" x="411.72" y="-218.62" font-family="Times New Roman,serif" font-size="8.00">Score: 1.0</text>
<text text-anchor="start" x="333.57" y="-223.76" font-family="Times New Roman,serif" font-size="8.00" fill="darkmagenta"> &#160;0,1 &#160;&#160;</text>
</g>
<!-- 11 -->
<g id="node6" class="node">
<title>11</title>
<ellipse fill="none" stroke="black" cx="476.35" cy="-46.43" rx="196.4" ry="27.93"/>
<text text-anchor="middle" x="476.35" y="-44.08" font-family="Times New Roman,serif" font-size="8.00">11. return &#39;Circumference of C1 and C2 will touch&#39;</text>
<text text-anchor="start" x="268.7" y="-66.76" font-family="Times New Roman,serif" font-size="8.00" fill="darkorange">0,1</text>
</g>
<!-- 10&#45;&gt;11 -->
<g id="edge5" class="edge">
<title>10&#45;&gt;11</title>
<path fill="none" stroke="red" stroke-width="5" d="M476.35,-141.56C476.35,-126.57 476.35,-107.62 476.35,-90.65"/>
<polygon fill="red" stroke="red" stroke-width="5" points="480.72,-90.81 476.35,-80.81 471.97,-90.81 480.72,-90.81"/>
<text text-anchor="middle" x="498.47" y="-116.26" font-family="Times New Roman,serif" font-size="8.00">&quot;d &gt; r1 + r2&quot;</text>
<text text-anchor="middle" x="498.47" y="-105.76" font-family="Times New Roman,serif" font-size="8.00">c[7]</text>
<text text-anchor="middle" x="498.47" y="-95.26" font-family="Times New Roman,serif" font-size="8.00">Score: 1.0</text>
<text text-anchor="start" x="453.85" y="-100.18" font-family="Times New Roman,serif" font-size="8.00" fill="darkmagenta"> &#160;0,1 &#160;&#160;</text>
</g>
</g>
</svg>
