<?xml version="1.0" encoding="UTF-8" standalone="no"?>
<!DOCTYPE svg PUBLIC "-//W3C//DTD SVG 1.1//EN"
 "http://www.w3.org/Graphics/SVG/1.1/DTD/svg11.dtd">
<!-- Generated by graphviz version 10.0.1 (20240210.2158)
 -->
<!-- Title: clustercircle_overlap_status Pages: 1 -->
<svg width="687pt" height="682pt"
 viewBox="0.00 0.00 686.74 682.08" xmlns="http://www.w3.org/2000/svg" xmlns:xlink="http://www.w3.org/1999/xlink">
<g id="graph0" class="graph" transform="scale(1 1) rotate(0) translate(4 678.08)">
<title>clustercircle_overlap_status</title>
<polygon fill="white" stroke="none" points="-4,4 -4,-678.08 682.74,-678.08 682.74,4 -4,4"/>
<text text-anchor="middle" x="339.37" y="-6.45" font-family="Times New Roman,serif" font-size="14.00">circle_overlap_status</text>
<!-- 1 -->
<g id="node1" class="node">
<title>1</title>
<ellipse fill="none" stroke="black" cx="256.35" cy="-619.26" rx="189.5" ry="39.07"/>
<text text-anchor="middle" x="256.35" y="-621.71" font-family="Times New Roman,serif" font-size="14.00">1. d = math.sqrt((x1 &#45; x2) ** 2 + (y1 &#45; y2) ** 2)</text>
<text text-anchor="middle" x="256.35" y="-605.96" font-family="Times New Roman,serif" font-size="14.00">if d &lt;= r1 &#45; r2:</text>
<text text-anchor="start" x="49.59" y="-645.03" font-family="Times New Roman,serif" font-size="14.00" fill="darkorange">1,1</text>
</g>
<!-- 4 -->
<g id="node2" class="node">
<title>4</title>
<ellipse fill="none" stroke="black" cx="256.35" cy="-469.01" rx="68.06" ry="27.93"/>
<text text-anchor="middle" x="256.35" y="-463.59" font-family="Times New Roman,serif" font-size="14.00">4. if d &lt;= r2 &#45; r1:</text>
<text text-anchor="start" x="171.04" y="-483.64" font-family="Times New Roman,serif" font-size="14.00" fill="darkorange">1,1</text>
</g>
<!-- 1&#45;&gt;4 -->
<g id="edge1" class="edge">
<title>1&#45;&gt;4</title>
<path fill="none" stroke="blue" stroke-width="3.28" d="M256.35,-579.7C256.35,-558.95 256.35,-533.33 256.35,-512.07"/>
<polygon fill="blue" stroke="blue" stroke-width="3.28" points="259.85,-512.12 256.35,-502.12 252.85,-512.12 259.85,-512.12"/>
<text text-anchor="middle" x="295.72" y="-548.89" font-family="Times New Roman,serif" font-size="14.00">&quot;(d &gt; r1 &#45; r2)&quot;</text>
<text text-anchor="middle" x="295.72" y="-533.14" font-family="Times New Roman,serif" font-size="14.00">c[2]</text>
<text text-anchor="middle" x="295.72" y="-517.39" font-family="Times New Roman,serif" font-size="14.00"> Score: 0.57</text>
<polygon fill="white" stroke="none" points="225.35,-540.43 225.35,-564.18 254.35,-564.18 254.35,-540.43 225.35,-540.43"/>
<text text-anchor="start" x="229.35" y="-546.88" font-family="Times New Roman,serif" font-size="14.00" fill="darkmagenta">1, 1</text>
</g>
<!-- 7 -->
<g id="node3" class="node">
<title>7</title>
<ellipse fill="none" stroke="black" cx="256.35" cy="-329.9" rx="64.88" ry="27.93"/>
<text text-anchor="middle" x="256.35" y="-324.48" font-family="Times New Roman,serif" font-size="14.00">7. if d &lt; r1 + r2:</text>
<text text-anchor="start" x="174.22" y="-344.53" font-family="Times New Roman,serif" font-size="14.00" fill="darkorange">1,1</text>
</g>
<!-- 4&#45;&gt;7 -->
<g id="edge2" class="edge">
<title>4&#45;&gt;7</title>
<path fill="none" stroke="blue" stroke-width="3.28" d="M256.35,-440.6C256.35,-421.26 256.35,-395 256.35,-373.01"/>
<polygon fill="blue" stroke="blue" stroke-width="3.28" points="259.85,-373.24 256.35,-363.24 252.85,-373.24 259.85,-373.24"/>
<text text-anchor="middle" x="295.72" y="-409.78" font-family="Times New Roman,serif" font-size="14.00">&quot;(d &gt; r2 &#45; r1)&quot;</text>
<text text-anchor="middle" x="295.72" y="-394.03" font-family="Times New Roman,serif" font-size="14.00">c[4]</text>
<text text-anchor="middle" x="295.72" y="-378.28" font-family="Times New Roman,serif" font-size="14.00"> Score: 0.57</text>
<polygon fill="white" stroke="none" points="225.35,-401.51 225.35,-425.26 254.35,-425.26 254.35,-401.51 225.35,-401.51"/>
<text text-anchor="start" x="229.35" y="-407.96" font-family="Times New Roman,serif" font-size="14.00" fill="darkmagenta">1, 1</text>
</g>
<!-- 8 -->
<g id="node4" class="node">
<title>8</title>
<ellipse fill="none" stroke="black" cx="208.35" cy="-190.79" rx="191.1" ry="27.93"/>
<text text-anchor="middle" x="208.35" y="-185.37" font-family="Times New Roman,serif" font-size="14.00">8. return &#39;Circumference of C1 and C2 intersect&#39;</text>
<text text-anchor="start" x="0" y="-205.42" font-family="Times New Roman,serif" font-size="14.00" fill="darkorange">1,0</text>
</g>
<!-- 7&#45;&gt;8 -->
<g id="edge3" class="edge">
<title>7&#45;&gt;8</title>
<path fill="none" stroke="#429e6a" d="M246.86,-301.81C239.63,-281.16 229.58,-252.45 221.56,-229.54"/>
<polygon fill="#429e6a" stroke="#429e6a" points="224.92,-228.53 218.31,-220.25 218.31,-230.85 224.92,-228.53"/>
<text text-anchor="middle" x="277.1" y="-262.8" font-family="Times New Roman,serif" font-size="14.00">&quot;d &lt; r1 + r2&quot;</text>
<text text-anchor="middle" x="277.1" y="-247.05" font-family="Times New Roman,serif" font-size="14.00">c[5]</text>
<polygon fill="white" stroke="none" points="201.22,-262 201.22,-285.75 230.22,-285.75 230.22,-262 201.22,-262"/>
<text text-anchor="start" x="205.22" y="-268.45" font-family="Times New Roman,serif" font-size="14.00" fill="darkmagenta">1, 0</text>
</g>
<!-- 10 -->
<g id="node5" class="node">
<title>10</title>
<ellipse fill="none" stroke="black" cx="482.35" cy="-190.79" rx="64.88" ry="27.93"/>
<text text-anchor="middle" x="482.35" y="-185.37" font-family="Times New Roman,serif" font-size="14.00">10. if d &gt; r1 + r2:</text>
<text text-anchor="start" x="400.22" y="-205.42" font-family="Times New Roman,serif" font-size="14.00" fill="darkorange">0,1</text>
</g>
<!-- 7&#45;&gt;10 -->
<g id="edge4" class="edge">
<title>7&#45;&gt;10</title>
<path fill="none" stroke="red" stroke-width="5" d="M293.16,-306.57C330.83,-283.71 389.66,-248.02 431.71,-222.51"/>
<polygon fill="red" stroke="red" stroke-width="5" points="433.93,-226.28 440.21,-217.35 429.4,-218.8 433.93,-226.28"/>
<text text-anchor="middle" x="447.72" y="-270.67" font-family="Times New Roman,serif" font-size="14.00">&quot;(d &gt;= r1 + r2)&quot;</text>
<text text-anchor="middle" x="447.72" y="-254.92" font-family="Times New Roman,serif" font-size="14.00">c[6]</text>
<text text-anchor="middle" x="447.72" y="-239.17" font-family="Times New Roman,serif" font-size="14.00"> Score: 1.0</text>
<polygon fill="white" stroke="none" points="338.48,-262.26 338.48,-286.01 367.48,-286.01 367.48,-262.26 338.48,-262.26"/>
<text text-anchor="start" x="342.48" y="-268.71" font-family="Times New Roman,serif" font-size="14.00" fill="darkmagenta">0, 1</text>
</g>
<!-- 11 -->
<g id="node6" class="node">
<title>11</title>
<ellipse fill="none" stroke="black" cx="482.35" cy="-51.68" rx="196.4" ry="27.93"/>
<text text-anchor="middle" x="482.35" y="-46.26" font-family="Times New Roman,serif" font-size="14.00">11. return &#39;Circumference of C1 and C2 will touch&#39;</text>
<text text-anchor="start" x="268.7" y="-66.31" font-family="Times New Roman,serif" font-size="14.00" fill="darkorange">0,1</text>
</g>
<!-- 10&#45;&gt;11 -->
<g id="edge5" class="edge">
<title>10&#45;&gt;11</title>
<path fill="none" stroke="red" stroke-width="5" d="M482.35,-162.37C482.35,-143.41 482.35,-117.79 482.35,-96.07"/>
<polygon fill="red" stroke="red" stroke-width="5" points="486.72,-96.29 482.35,-86.29 477.97,-96.29 486.72,-96.29"/>
<text text-anchor="middle" x="519.1" y="-131.56" font-family="Times New Roman,serif" font-size="14.00">&quot;d &gt; r1 + r2&quot;</text>
<text text-anchor="middle" x="519.1" y="-115.81" font-family="Times New Roman,serif" font-size="14.00">c[7]</text>
<text text-anchor="middle" x="519.1" y="-100.06" font-family="Times New Roman,serif" font-size="14.00"> Score: 1.0</text>
<polygon fill="white" stroke="none" points="451.35,-123.05 451.35,-146.8 480.35,-146.8 480.35,-123.05 451.35,-123.05"/>
<text text-anchor="start" x="455.35" y="-129.5" font-family="Times New Roman,serif" font-size="14.00" fill="darkmagenta">0, 1</text>
</g>
</g>
</svg>
