<?xml version="1.0" encoding="UTF-8" standalone="no"?>
<!DOCTYPE svg PUBLIC "-//W3C//DTD SVG 1.1//EN"
 "http://www.w3.org/Graphics/SVG/1.1/DTD/svg11.dtd">
<!-- Generated by graphviz version 10.0.1 (20240210.2158)
 -->
<!-- Title: clusterap_gp_sequence Pages: 1 -->
<svg width="1122pt" height="404pt"
 viewBox="0.00 0.00 1121.99 403.86" xmlns="http://www.w3.org/2000/svg" xmlns:xlink="http://www.w3.org/1999/xlink">
<g id="graph0" class="graph" transform="scale(1 1) rotate(0) translate(4 399.86)">
<title>clusterap_gp_sequence</title>
<polygon fill="white" stroke="none" points="-4,4 -4,-399.86 1117.99,-399.86 1117.99,4 -4,4"/>
<text text-anchor="middle" x="556.99" y="-6.45" font-family="Times New Roman,serif" font-size="14.00">ap_gp_sequence</text>
<!-- 1 -->
<g id="node1" class="node">
<title>1</title>
<ellipse fill="none" stroke="black" cx="402.4" cy="-352.18" rx="142.3" ry="27.93"/>
<text text-anchor="middle" x="402.4" y="-346.75" font-family="Times New Roman,serif" font-size="14.00">1. if arr[0] == arr[1] == arr[2] == 0:</text>
<text text-anchor="start" x="229.35" y="-366.81" font-family="Times New Roman,serif" font-size="14.00" fill="darkorange">19,19</text>
</g>
<!-- 2 -->
<g id="node2" class="node">
<title>2</title>
<ellipse fill="none" stroke="black" cx="299.4" cy="-213.06" rx="107.31" ry="27.93"/>
<text text-anchor="middle" x="299.4" y="-207.64" font-family="Times New Roman,serif" font-size="14.00">2. return &#39;Wrong Numbers&#39;</text>
<text text-anchor="start" x="174.85" y="-227.7" font-family="Times New Roman,serif" font-size="14.00" fill="darkorange">1,0</text>
</g>
<!-- 1&#45;&gt;2 -->
<g id="edge1" class="edge">
<title>1&#45;&gt;2</title>
<path fill="none" stroke="#429e6a" d="M352.28,-325.61C344.54,-320.03 337.2,-313.56 331.4,-306.25 319.14,-290.78 311.42,-270.31 306.63,-252.58"/>
<polygon fill="#429e6a" stroke="#429e6a" points="310.04,-251.76 304.26,-242.88 303.24,-253.43 310.04,-251.76"/>
<text text-anchor="middle" x="422.9" y="-285.07" font-family="Times New Roman,serif" font-size="14.00">&quot;arr[0] == arr[1] == arr[2] == 0&quot;</text>
<text text-anchor="middle" x="422.9" y="-269.32" font-family="Times New Roman,serif" font-size="14.00">c[1]</text>
<polygon fill="white" stroke="none" points="288.87,-289.99 288.87,-313.74 317.87,-313.74 317.87,-289.99 288.87,-289.99"/>
<text text-anchor="start" x="292.87" y="-296.44" font-family="Times New Roman,serif" font-size="14.00" fill="darkmagenta">1, 0</text>
</g>
<!-- 4 -->
<g id="node3" class="node">
<title>4</title>
<ellipse fill="none" stroke="black" cx="567.4" cy="-213.06" rx="142.3" ry="27.93"/>
<text text-anchor="middle" x="567.4" y="-207.64" font-family="Times New Roman,serif" font-size="14.00">4. if arr[1] &#45; arr[0] == arr[2] &#45; arr[1]:</text>
<text text-anchor="start" x="394.35" y="-227.7" font-family="Times New Roman,serif" font-size="14.00" fill="darkorange">18,19</text>
</g>
<!-- 1&#45;&gt;4 -->
<g id="edge2" class="edge">
<title>1&#45;&gt;4</title>
<path fill="none" stroke="blue" stroke-width="3.39" d="M479.24,-328.38C491.84,-322.47 504.12,-315.18 514.4,-306.25 530.35,-292.39 542.63,-272.51 551.33,-254.75"/>
<polygon fill="blue" stroke="blue" stroke-width="3.39" points="554.45,-256.35 555.42,-245.8 548.08,-253.44 554.45,-256.35"/>
<text text-anchor="middle" x="600.78" y="-292.95" font-family="Times New Roman,serif" font-size="14.00">&quot;(arr[0] != arr[1])&quot;</text>
<text text-anchor="middle" x="600.78" y="-277.2" font-family="Times New Roman,serif" font-size="14.00">c[2]</text>
<text text-anchor="middle" x="600.78" y="-261.45" font-family="Times New Roman,serif" font-size="14.00"> Score: 0.58</text>
<polygon fill="white" stroke="none" points="483.14,-294.53 483.14,-318.28 525.64,-318.28 525.64,-294.53 483.14,-294.53"/>
<text text-anchor="start" x="487.14" y="-300.98" font-family="Times New Roman,serif" font-size="14.00" fill="darkmagenta">18, 19</text>
</g>
<!-- 5 -->
<g id="node4" class="node">
<title>5</title>
<ellipse fill="none" stroke="black" cx="290.4" cy="-62.82" rx="266.4" ry="39.07"/>
<text text-anchor="middle" x="290.4" y="-65.27" font-family="Times New Roman,serif" font-size="14.00">5. n = 2 * arr[2] &#45; arr[1]</text>
<text text-anchor="middle" x="290.4" y="-49.52" font-family="Times New Roman,serif" font-size="14.00">return &#39;AP sequence, &#39; + &#39;Next number of the sequence: &#39; + str(n)</text>
<text text-anchor="start" x="0" y="-88.58" font-family="Times New Roman,serif" font-size="14.00" fill="darkorange">18,1</text>
</g>
<!-- 4&#45;&gt;5 -->
<g id="edge3" class="edge">
<title>4&#45;&gt;5</title>
<path fill="none" stroke="blue" stroke-width="1.16" d="M519.47,-186.41C478.34,-164.4 418.24,-132.23 369.92,-106.37"/>
<polygon fill="blue" stroke="blue" stroke-width="1.16" points="371.82,-103.42 361.35,-101.79 368.52,-109.59 371.82,-103.42"/>
<text text-anchor="middle" x="569.9" y="-153.83" font-family="Times New Roman,serif" font-size="14.00">&quot;arr[1] &#45; arr[0] == arr[2] &#45; arr[1]&quot;</text>
<text text-anchor="middle" x="569.9" y="-138.08" font-family="Times New Roman,serif" font-size="14.00">c[3]</text>
<text text-anchor="middle" x="569.9" y="-122.33" font-family="Times New Roman,serif" font-size="14.00"> Score: 0.04</text>
<polygon fill="white" stroke="none" points="401.63,-145.55 401.63,-169.3 437.38,-169.3 437.38,-145.55 401.63,-145.55"/>
<text text-anchor="start" x="405.63" y="-152" font-family="Times New Roman,serif" font-size="14.00" fill="darkmagenta">18, 1</text>
</g>
<!-- 7 -->
<g id="node5" class="node">
<title>7</title>
<ellipse fill="none" stroke="black" cx="844.4" cy="-62.82" rx="269.59" ry="39.07"/>
<text text-anchor="middle" x="844.4" y="-65.27" font-family="Times New Roman,serif" font-size="14.00">7. n = arr[2] ** 2 / arr[2]</text>
<text text-anchor="middle" x="844.4" y="-49.52" font-family="Times New Roman,serif" font-size="14.00">return &#39;GP sequence, &#39; + &#39;Next number of the sequence: &#160;&#39; + str(n)</text>
<text text-anchor="start" x="550.82" y="-88.58" font-family="Times New Roman,serif" font-size="14.00" fill="darkorange">0,18</text>
</g>
<!-- 4&#45;&gt;7 -->
<g id="edge4" class="edge">
<title>4&#45;&gt;7</title>
<path fill="none" stroke="red" stroke-width="5" d="M624.32,-187.06C637.9,-180.79 652.27,-173.92 665.4,-167.13 700.12,-149.21 737.69,-127.84 769.4,-109.2"/>
<polygon fill="red" stroke="red" stroke-width="5" points="771.31,-113.15 777.69,-104.3 766.86,-105.62 771.31,-113.15"/>
<text text-anchor="middle" x="843.53" y="-153.83" font-family="Times New Roman,serif" font-size="14.00">&quot;(arr[1] &#45; arr[0] != arr[2] &#45; arr[1])&quot;</text>
<text text-anchor="middle" x="843.53" y="-138.08" font-family="Times New Roman,serif" font-size="14.00">c[4]</text>
<text text-anchor="middle" x="843.53" y="-122.33" font-family="Times New Roman,serif" font-size="14.00"> Score: 0.97</text>
<polygon fill="white" stroke="none" points="667.03,-148.07 667.03,-171.82 702.78,-171.82 702.78,-148.07 667.03,-148.07"/>
<text text-anchor="start" x="671.03" y="-154.52" font-family="Times New Roman,serif" font-size="14.00" fill="darkmagenta">0, 18</text>
</g>
</g>
</svg>
