<?xml version="1.0" encoding="UTF-8" standalone="no"?>
<!DOCTYPE svg PUBLIC "-//W3C//DTD SVG 1.1//EN"
 "http://www.w3.org/Graphics/SVG/1.1/DTD/svg11.dtd">
<!-- Generated by graphviz version 10.0.1 (20240210.2158)
 -->
<!-- Title: clusternext_palindrome Pages: 1 -->
<svg width="692pt" height="949pt"
 viewBox="0.00 0.00 692.04 948.81" xmlns="http://www.w3.org/2000/svg" xmlns:xlink="http://www.w3.org/1999/xlink">
<g id="graph0" class="graph" transform="scale(1 1) rotate(0) translate(4 944.81)">
<title>clusternext_palindrome</title>
<polygon fill="white" stroke="none" points="-4,4 -4,-944.81 688.04,-944.81 688.04,4 -4,4"/>
<text text-anchor="middle" x="342.02" y="-5.75" font-family="Times New Roman,serif" font-size="10.00">next_palindrome</text>
<!-- 1 -->
<g id="node1" class="node">
<title>1</title>
<ellipse fill="none" stroke="black" cx="483.85" cy="-868.22" rx="120.56" ry="61.34"/>
<text text-anchor="middle" x="483.85" y="-881.22" font-family="Times New Roman,serif" font-size="10.00">1. digit_list = sorted(digit_list)</text>
<text text-anchor="middle" x="483.85" y="-869.97" font-family="Times New Roman,serif" font-size="10.00">n = len(digit_list)</text>
<text text-anchor="middle" x="483.85" y="-858.72" font-family="Times New Roman,serif" font-size="10.00">mid = n // 2</text>
<text text-anchor="middle" x="483.85" y="-847.47" font-family="Times New Roman,serif" font-size="10.00">if n % 2 == 0:</text>
<text text-anchor="start" x="343.04" y="-920.06" font-family="Times New Roman,serif" font-size="10.00" fill="darkorange">15,15</text>
</g>
<!-- 2 -->
<g id="node2" class="node">
<title>2</title>
<ellipse fill="none" stroke="black" cx="353.85" cy="-689.17" rx="171.47" ry="50.21"/>
<text text-anchor="middle" x="353.85" y="-696.55" font-family="Times New Roman,serif" font-size="10.00">2. left_side = digit_list[:mid]</text>
<text text-anchor="middle" x="353.85" y="-685.3" font-family="Times New Roman,serif" font-size="10.00">left_side_reverse = left_side[::&#45;1]</text>
<text text-anchor="middle" x="353.85" y="-674.05" font-family="Times New Roman,serif" font-size="10.00">candidate = left_side + left_side_reverse</text>
<text text-anchor="start" x="166.63" y="-729.88" font-family="Times New Roman,serif" font-size="10.00" fill="darkorange">15,1</text>
</g>
<!-- 1&#45;&gt;2 -->
<g id="edge1" class="edge">
<title>1&#45;&gt;2</title>
<path fill="none" stroke="blue" d="M442.01,-810.23C427.33,-790.24 410.84,-767.79 396.13,-747.75"/>
<polygon fill="blue" stroke="blue" points="399.15,-745.94 390.41,-739.96 393.51,-750.09 399.15,-745.94"/>
<text text-anchor="middle" x="445.73" y="-776.03" font-family="Times New Roman,serif" font-size="8.00">&quot;n % 2 == 0&quot;</text>
<text text-anchor="middle" x="445.73" y="-765.53" font-family="Times New Roman,serif" font-size="8.00">c[1]</text>
<text text-anchor="start" x="384.3" y="-766.93" font-family="Times New Roman,serif" font-size="8.00" fill="darkmagenta"> &#160;&#160;&#160;&#160;15,1 &#160;</text>
</g>
<!-- 4 -->
<g id="node3" class="node">
<title>4</title>
<ellipse fill="none" stroke="black" cx="613.85" cy="-689.17" rx="70.18" ry="27.93"/>
<text text-anchor="middle" x="613.85" y="-685.3" font-family="Times New Roman,serif" font-size="10.00">4. return digit_list</text>
<text text-anchor="start" x="527.92" y="-707.6" font-family="Times New Roman,serif" font-size="10.00" fill="darkorange">0,14</text>
</g>
<!-- 1&#45;&gt;4 -->
<g id="edge2" class="edge">
<title>1&#45;&gt;4</title>
<path fill="none" stroke="red" stroke-width="5" d="M525.7,-810.23C545.15,-783.74 567.78,-752.92 585.24,-729.14"/>
<polygon fill="red" stroke="red" stroke-width="5" points="588.53,-732.06 590.92,-721.41 581.47,-726.88 588.53,-732.06"/>
<text text-anchor="middle" x="589.98" y="-781.28" font-family="Times New Roman,serif" font-size="8.00">&quot;(n % 2 != 0)&quot;</text>
<text text-anchor="middle" x="589.98" y="-770.78" font-family="Times New Roman,serif" font-size="8.00">c[2]</text>
<text text-anchor="middle" x="589.98" y="-760.28" font-family="Times New Roman,serif" font-size="8.00"> &#160;Score: 0.97</text>
<text text-anchor="start" x="528.8" y="-755.51" font-family="Times New Roman,serif" font-size="8.00" fill="darkmagenta"> &#160;&#160;&#160;&#160;0,14 &#160;</text>
</g>
<!-- 3 -->
<g id="node4" class="node">
<title>3</title>
<ellipse fill="none" stroke="black" cx="353.85" cy="-583.97" rx="97.47" ry="18"/>
<text text-anchor="middle" x="353.85" y="-580.09" font-family="Times New Roman,serif" font-size="10.00">3. if candidate &gt; digit_list:</text>
<text text-anchor="start" x="240.63" y="-592.47" font-family="Times New Roman,serif" font-size="10.00" fill="darkorange">15,1</text>
</g>
<!-- 2&#45;&gt;3 -->
<g id="edge3" class="edge">
<title>2&#45;&gt;3</title>
<path fill="none" stroke="blue" d="M353.85,-638.69C353.85,-630.13 353.85,-621.5 353.85,-613.73"/>
<polygon fill="blue" stroke="blue" points="357.35,-613.88 353.85,-603.89 350.35,-613.89 357.35,-613.88"/>
<text text-anchor="start" x="322.35" y="-612.87" font-family="Times New Roman,serif" font-size="8.00" fill="darkmagenta"> &#160;&#160;&#160;&#160;15,1 &#160;</text>
</g>
<!-- 6 -->
<g id="node5" class="node">
<title>6</title>
<ellipse fill="none" stroke="black" cx="302.85" cy="-481.04" rx="74.42" ry="27.93"/>
<text text-anchor="middle" x="302.85" y="-477.16" font-family="Times New Roman,serif" font-size="10.00">6. return candidate</text>
<text text-anchor="start" x="217.18" y="-499.47" font-family="Times New Roman,serif" font-size="10.00" fill="darkorange">0,0</text>
</g>
<!-- 3&#45;&gt;6 -->
<g id="edge4" class="edge">
<title>3&#45;&gt;6</title>
<path fill="none" stroke="black" d="M345.2,-565.85C338.72,-553.02 329.61,-534.99 321.5,-518.94"/>
<polygon fill="black" stroke="black" points="324.67,-517.45 317.04,-510.11 318.42,-520.61 324.67,-517.45"/>
<text text-anchor="middle" x="376.23" y="-540.37" font-family="Times New Roman,serif" font-size="8.00">&quot;candidate &gt; digit_list&quot;</text>
<text text-anchor="middle" x="376.23" y="-529.87" font-family="Times New Roman,serif" font-size="8.00">c[3]</text>
<text text-anchor="start" x="303.66" y="-529.47" font-family="Times New Roman,serif" font-size="8.00" fill="darkmagenta"> &#160;&#160;&#160;&#160;0,0 &#160;</text>
</g>
<!-- 7 -->
<g id="node6" class="node">
<title>7</title>
<ellipse fill="none" stroke="black" cx="511.85" cy="-481.04" rx="116.93" ry="18"/>
<text text-anchor="middle" x="511.85" y="-477.16" font-family="Times New Roman,serif" font-size="10.00">7. for i in range(mid &#45; 1, &#45;1, &#45;1):</text>
<text text-anchor="start" x="379.17" y="-489.54" font-family="Times New Roman,serif" font-size="10.00" fill="darkorange">15,1</text>
</g>
<!-- 3&#45;&gt;7 -->
<g id="edge5" class="edge">
<title>3&#45;&gt;7</title>
<path fill="none" stroke="blue" d="M386.57,-566.73C397.34,-561.09 409.27,-554.53 419.85,-547.97 440.71,-535.04 463.11,-519.04 480.59,-506.04"/>
<polygon fill="blue" stroke="blue" points="482.64,-508.87 488.54,-500.07 478.44,-503.27 482.64,-508.87"/>
<text text-anchor="middle" x="492.73" y="-535.12" font-family="Times New Roman,serif" font-size="8.00">(candidate &lt;= digit_list)</text>
<text text-anchor="start" x="416.04" y="-517.04" font-family="Times New Roman,serif" font-size="8.00" fill="darkmagenta"> &#160;&#160;&#160;&#160;15,1 &#160;</text>
</g>
<!-- 9 -->
<g id="node7" class="node">
<title>9</title>
<ellipse fill="none" stroke="black" cx="294.85" cy="-368.18" rx="79.2" ry="27.93"/>
<text text-anchor="middle" x="294.85" y="-364.3" font-family="Times New Roman,serif" font-size="10.00">9. if digit_list[i] &lt; 9:</text>
<text text-anchor="start" x="199.91" y="-386.61" font-family="Times New Roman,serif" font-size="10.00" fill="darkorange">15,1</text>
</g>
<!-- 7&#45;&gt;9 -->
<g id="edge6" class="edge">
<title>7&#45;&gt;9</title>
<path fill="none" stroke="blue" d="M479.37,-463.44C444.92,-445.84 389.94,-417.76 348.95,-396.81"/>
<polygon fill="blue" stroke="blue" points="350.69,-393.77 340.19,-392.34 347.51,-400.01 350.69,-393.77"/>
<text text-anchor="middle" x="463.35" y="-427.51" font-family="Times New Roman,serif" font-size="8.00">&quot;range(mid &#45; 1, &#45;1, &#45;1)&quot;</text>
<text text-anchor="middle" x="463.35" y="-417.01" font-family="Times New Roman,serif" font-size="8.00">c[4]</text>
<text text-anchor="start" x="377.49" y="-419.88" font-family="Times New Roman,serif" font-size="8.00" fill="darkmagenta"> &#160;&#160;&#160;&#160;15,1 &#160;</text>
</g>
<!-- 10 -->
<g id="node8" class="node">
<title>10</title>
<ellipse fill="none" stroke="black" cx="511.85" cy="-368.18" rx="119.43" ry="18"/>
<text text-anchor="middle" x="511.85" y="-364.3" font-family="Times New Roman,serif" font-size="10.00">10. return [1] + [0] * (n &#45; 1) + [1]</text>
<text text-anchor="start" x="381.18" y="-376.68" font-family="Times New Roman,serif" font-size="10.00" fill="darkorange">0,0</text>
</g>
<!-- 7&#45;&gt;10 -->
<g id="edge7" class="edge">
<title>7&#45;&gt;10</title>
<path fill="none" stroke="black" d="M511.85,-462.72C511.85,-445.31 511.85,-418.17 511.85,-397.61"/>
<polygon fill="black" stroke="black" points="515.35,-397.89 511.85,-387.89 508.35,-397.89 515.35,-397.89"/>
<text text-anchor="start" x="511.85" y="-416.69" font-family="Times New Roman,serif" font-size="8.00" fill="darkmagenta"> &#160;&#160;&#160;&#160;0,0 &#160;</text>
</g>
<!-- 11 -->
<g id="node9" class="node">
<title>11</title>
<ellipse fill="none" stroke="black" cx="294.85" cy="-244.18" rx="74.95" ry="39.07"/>
<text text-anchor="middle" x="294.85" y="-245.93" font-family="Times New Roman,serif" font-size="10.00">11. digit_list[i] += 1</text>
<text text-anchor="middle" x="294.85" y="-234.68" font-family="Times New Roman,serif" font-size="10.00">if i != n &#45; i &#45; 1:</text>
<text text-anchor="start" x="204.15" y="-273.75" font-family="Times New Roman,serif" font-size="10.00" fill="darkorange">15,1</text>
</g>
<!-- 9&#45;&gt;11 -->
<g id="edge8" class="edge">
<title>9&#45;&gt;11</title>
<path fill="none" stroke="blue" d="M294.85,-339.8C294.85,-326.59 294.85,-310.31 294.85,-295.01"/>
<polygon fill="blue" stroke="blue" points="298.35,-295.08 294.85,-285.08 291.35,-295.08 298.35,-295.08"/>
<text text-anchor="middle" x="324.48" y="-314.65" font-family="Times New Roman,serif" font-size="8.00">&quot;digit_list[i] &lt; 9&quot;</text>
<text text-anchor="middle" x="324.48" y="-304.15" font-family="Times New Roman,serif" font-size="8.00">c[5]</text>
<text text-anchor="start" x="263.35" y="-304.1" font-family="Times New Roman,serif" font-size="8.00" fill="darkmagenta"> &#160;&#160;&#160;&#160;15,1 &#160;</text>
</g>
<!-- 12 -->
<g id="node10" class="node">
<title>12</title>
<ellipse fill="none" stroke="black" cx="571.85" cy="-244.18" rx="95.64" ry="27.93"/>
<text text-anchor="middle" x="571.85" y="-245.93" font-family="Times New Roman,serif" font-size="10.00">12. digit_list[i] = 0</text>
<text text-anchor="middle" x="571.85" y="-234.68" font-family="Times New Roman,serif" font-size="10.00">digit_list[n &#45; i &#45; 1] = 0</text>
<text text-anchor="start" x="464.97" y="-262.61" font-family="Times New Roman,serif" font-size="10.00" fill="darkorange">0,0</text>
</g>
<!-- 9&#45;&gt;12 -->
<g id="edge9" class="edge">
<title>9&#45;&gt;12</title>
<path fill="none" stroke="black" d="M343.42,-345.79C389.63,-325.43 459.37,-294.72 509.63,-272.58"/>
<polygon fill="black" stroke="black" points="510.92,-275.84 518.66,-268.61 508.1,-269.43 510.92,-275.84"/>
<text text-anchor="middle" x="472.98" y="-309.4" font-family="Times New Roman,serif" font-size="8.00">(digit_list[i] &gt;= 9)</text>
<text text-anchor="start" x="404.58" y="-299.36" font-family="Times New Roman,serif" font-size="8.00" fill="darkmagenta"> &#160;&#160;&#160;&#160;0,0 &#160;</text>
</g>
<!-- 13 -->
<g id="node11" class="node">
<title>13</title>
<ellipse fill="none" stroke="black" cx="210.85" cy="-120.18" rx="132.76" ry="27.93"/>
<text text-anchor="middle" x="210.85" y="-116.31" font-family="Times New Roman,serif" font-size="10.00">13. digit_list[n &#45; i &#45; 1] = digit_list[i]</text>
<text text-anchor="start" x="62.34" y="-138.61" font-family="Times New Roman,serif" font-size="10.00" fill="darkorange">15,1</text>
</g>
<!-- 11&#45;&gt;13 -->
<g id="edge10" class="edge">
<title>11&#45;&gt;13</title>
<path fill="none" stroke="blue" d="M269.88,-206.91C259.15,-191.32 246.63,-173.14 235.89,-157.54"/>
<polygon fill="blue" stroke="blue" points="238.87,-155.7 230.32,-149.45 233.11,-159.67 238.87,-155.7"/>
<text text-anchor="middle" x="279.85" y="-179.51" font-family="Times New Roman,serif" font-size="8.00">&quot;i != n &#45; i &#45; 1&quot;</text>
<text text-anchor="middle" x="279.85" y="-169.01" font-family="Times New Roman,serif" font-size="8.00">c[6]</text>
<text text-anchor="start" x="218.12" y="-169.88" font-family="Times New Roman,serif" font-size="8.00" fill="darkmagenta"> &#160;&#160;&#160;&#160;15,1 &#160;</text>
</g>
<!-- 14 -->
<g id="node12" class="node">
<title>14</title>
<ellipse fill="none" stroke="black" cx="294.85" cy="-37.25" rx="279.1" ry="18"/>
<text text-anchor="middle" x="294.85" y="-33.38" font-family="Times New Roman,serif" font-size="10.00">14. return digit_list[:mid] + [digit_list[mid]] * (n % 2) + digit_list[mid &#45; 1::&#45;1]</text>
<text text-anchor="start" x="0" y="-45.75" font-family="Times New Roman,serif" font-size="10.00" fill="darkorange">15,1</text>
</g>
<!-- 11&#45;&gt;14 -->
<g id="edge11" class="edge">
<title>11&#45;&gt;14</title>
<path fill="none" stroke="black" d="M322.78,-207.91C334.53,-190.87 346.84,-169.52 352.85,-148.11 359.57,-124.21 362.76,-115.01 352.85,-92.25 347.94,-80.97 339.39,-70.98 330.33,-62.76"/>
<polygon fill="black" stroke="black" points="332.67,-60.15 322.76,-56.4 328.17,-65.51 332.67,-60.15"/>
<text text-anchor="middle" x="383.85" y="-117.83" font-family="Times New Roman,serif" font-size="8.00">(i == n &#45; i &#45; 1)</text>
<text text-anchor="start" x="354.92" y="-133.16" font-family="Times New Roman,serif" font-size="8.00" fill="darkmagenta"> &#160;&#160;&#160;&#160;0,0 &#160;</text>
</g>
<!-- 12&#45;&gt;7 -->
<g id="edge13" class="edge">
<title>12&#45;&gt;7</title>
<path fill="none" stroke="black" d="M598.57,-271.36C626.34,-301.9 662.8,-353.62 639.85,-396.11 624.23,-425.03 593.82,-445.6 566.56,-459.13"/>
<polygon fill="black" stroke="black" points="565.22,-455.89 557.68,-463.33 568.21,-462.22 565.22,-455.89"/>
<text text-anchor="start" x="605.44" y="-400.22" font-family="Times New Roman,serif" font-size="8.00" fill="darkmagenta"> &#160;&#160;&#160;&#160;0,0 &#160;</text>
</g>
<!-- 13&#45;&gt;14 -->
<g id="edge12" class="edge">
<title>13&#45;&gt;14</title>
<path fill="none" stroke="blue" d="M238.36,-92.68C248.13,-83.27 259.09,-72.71 268.74,-63.41"/>
<polygon fill="blue" stroke="blue" points="270.96,-66.13 275.73,-56.67 266.1,-61.09 270.96,-66.13"/>
<text text-anchor="start" x="226.2" y="-66.44" font-family="Times New Roman,serif" font-size="8.00" fill="darkmagenta"> &#160;&#160;&#160;&#160;15,1 &#160;</text>
</g>
</g>
</svg>
