<?xml version="1.0" encoding="UTF-8" standalone="no"?>
<!DOCTYPE svg PUBLIC "-//W3C//DTD SVG 1.1//EN"
 "http://www.w3.org/Graphics/SVG/1.1/DTD/svg11.dtd">
<!-- Generated by graphviz version 10.0.1 (20240210.2158)
 -->
<!-- Title: clusternext_palindrome Pages: 1 -->
<svg width="633pt" height="918pt"
 viewBox="0.00 0.00 633.04 918.45" xmlns="http://www.w3.org/2000/svg" xmlns:xlink="http://www.w3.org/1999/xlink">
<g id="graph0" class="graph" transform="scale(1 1) rotate(0) translate(4 914.45)">
<title>clusternext_palindrome</title>
<polygon fill="white" stroke="none" points="-4,4 -4,-914.45 629.04,-914.45 629.04,4 -4,4"/>
<text text-anchor="middle" x="312.52" y="-5.75" font-family="Times New Roman,serif" font-size="10.00">next_palindrome</text>
<!-- 1 -->
<g id="node1" class="node">
<title>1</title>
<ellipse fill="none" stroke="black" cx="424.85" cy="-837.86" rx="120.56" ry="61.34"/>
<text text-anchor="middle" x="424.85" y="-850.86" font-family="Times New Roman,serif" font-size="10.00">1. digit_list = sorted(digit_list)</text>
<text text-anchor="middle" x="424.85" y="-839.61" font-family="Times New Roman,serif" font-size="10.00">n = len(digit_list)</text>
<text text-anchor="middle" x="424.85" y="-828.36" font-family="Times New Roman,serif" font-size="10.00">mid = n // 2</text>
<text text-anchor="middle" x="424.85" y="-817.11" font-family="Times New Roman,serif" font-size="10.00">if n % 2 == 0:</text>
<text text-anchor="start" x="284.04" y="-889.7" font-family="Times New Roman,serif" font-size="10.00" fill="darkorange">15,15</text>
</g>
<!-- 2 -->
<g id="node2" class="node">
<title>2</title>
<ellipse fill="none" stroke="black" cx="294.85" cy="-658.81" rx="171.47" ry="50.21"/>
<text text-anchor="middle" x="294.85" y="-666.19" font-family="Times New Roman,serif" font-size="10.00">2. left_side = digit_list[:mid]</text>
<text text-anchor="middle" x="294.85" y="-654.94" font-family="Times New Roman,serif" font-size="10.00">left_side_reverse = left_side[::&#45;1]</text>
<text text-anchor="middle" x="294.85" y="-643.69" font-family="Times New Roman,serif" font-size="10.00">candidate = left_side + left_side_reverse</text>
<text text-anchor="start" x="107.63" y="-699.52" font-family="Times New Roman,serif" font-size="10.00" fill="darkorange">15,1</text>
</g>
<!-- 1&#45;&gt;2 -->
<g id="edge1" class="edge">
<title>1&#45;&gt;2</title>
<path fill="none" stroke="blue" d="M383.01,-779.87C368.33,-759.88 351.84,-737.43 337.13,-717.39"/>
<polygon fill="blue" stroke="blue" points="340.15,-715.58 331.41,-709.59 334.51,-719.73 340.15,-715.58"/>
<text text-anchor="middle" x="386.73" y="-745.67" font-family="Times New Roman,serif" font-size="8.00">&quot;n % 2 == 0&quot;</text>
<text text-anchor="middle" x="386.73" y="-735.17" font-family="Times New Roman,serif" font-size="8.00">c[1]</text>
<text text-anchor="start" x="325.3" y="-736.57" font-family="Times New Roman,serif" font-size="8.00" fill="darkmagenta"> &#160;&#160;&#160;&#160;15,1 &#160;</text>
</g>
<!-- 4 -->
<g id="node3" class="node">
<title>4</title>
<ellipse fill="none" stroke="black" cx="554.85" cy="-658.81" rx="70.18" ry="27.93"/>
<text text-anchor="middle" x="554.85" y="-654.94" font-family="Times New Roman,serif" font-size="10.00">4. return digit_list</text>
<text text-anchor="start" x="468.92" y="-677.24" font-family="Times New Roman,serif" font-size="10.00" fill="darkorange">0,14</text>
</g>
<!-- 1&#45;&gt;4 -->
<g id="edge2" class="edge">
<title>1&#45;&gt;4</title>
<path fill="none" stroke="red" stroke-width="5" d="M466.7,-779.87C486.15,-753.38 508.78,-722.56 526.24,-698.78"/>
<polygon fill="red" stroke="red" stroke-width="5" points="529.53,-701.7 531.92,-691.05 522.47,-696.52 529.53,-701.7"/>
<text text-anchor="middle" x="529.98" y="-750.92" font-family="Times New Roman,serif" font-size="8.00">&quot;(n % 2 != 0)&quot;</text>
<text text-anchor="middle" x="529.98" y="-740.42" font-family="Times New Roman,serif" font-size="8.00">c[2]</text>
<text text-anchor="middle" x="529.98" y="-729.92" font-family="Times New Roman,serif" font-size="8.00"> &#160;Score: 0.97</text>
<text text-anchor="start" x="469.8" y="-725.15" font-family="Times New Roman,serif" font-size="8.00" fill="darkmagenta"> &#160;&#160;&#160;&#160;0,14 &#160;</text>
</g>
<!-- 3 -->
<g id="node4" class="node">
<title>3</title>
<ellipse fill="none" stroke="black" cx="294.85" cy="-553.61" rx="97.47" ry="18"/>
<text text-anchor="middle" x="294.85" y="-549.73" font-family="Times New Roman,serif" font-size="10.00">3. if candidate &gt; digit_list:</text>
<text text-anchor="start" x="181.63" y="-562.11" font-family="Times New Roman,serif" font-size="10.00" fill="darkorange">15,1</text>
</g>
<!-- 2&#45;&gt;3 -->
<g id="edge3" class="edge">
<title>2&#45;&gt;3</title>
<path fill="none" stroke="blue" d="M294.85,-608.33C294.85,-599.77 294.85,-591.14 294.85,-583.37"/>
<polygon fill="blue" stroke="blue" points="298.35,-583.52 294.85,-573.52 291.35,-583.52 298.35,-583.52"/>
<text text-anchor="start" x="263.35" y="-582.51" font-family="Times New Roman,serif" font-size="8.00" fill="darkmagenta"> &#160;&#160;&#160;&#160;15,1 &#160;</text>
</g>
<!-- 7 -->
<g id="node5" class="node">
<title>7</title>
<ellipse fill="none" stroke="black" cx="294.85" cy="-471.11" rx="116.93" ry="18"/>
<text text-anchor="middle" x="294.85" y="-467.23" font-family="Times New Roman,serif" font-size="10.00">7. for i in range(mid &#45; 1, &#45;1, &#45;1):</text>
<text text-anchor="start" x="162.17" y="-479.61" font-family="Times New Roman,serif" font-size="10.00" fill="darkorange">15,1</text>
</g>
<!-- 3&#45;&gt;7 -->
<g id="edge4" class="edge">
<title>3&#45;&gt;7</title>
<path fill="none" stroke="blue" d="M294.85,-535.14C294.85,-525.12 294.85,-512.29 294.85,-500.82"/>
<polygon fill="blue" stroke="blue" points="298.35,-501.05 294.85,-491.05 291.35,-501.05 298.35,-501.05"/>
<text text-anchor="middle" x="335.73" y="-510.01" font-family="Times New Roman,serif" font-size="8.00">(candidate &lt;= digit_list)</text>
<text text-anchor="start" x="263.35" y="-504.8" font-family="Times New Roman,serif" font-size="8.00" fill="darkmagenta"> &#160;&#160;&#160;&#160;15,1 &#160;</text>
</g>
<!-- 9 -->
<g id="node6" class="node">
<title>9</title>
<ellipse fill="none" stroke="black" cx="294.85" cy="-368.18" rx="79.2" ry="27.93"/>
<text text-anchor="middle" x="294.85" y="-364.3" font-family="Times New Roman,serif" font-size="10.00">9. if digit_list[i] &lt; 9:</text>
<text text-anchor="start" x="199.91" y="-386.61" font-family="Times New Roman,serif" font-size="10.00" fill="darkorange">15,1</text>
</g>
<!-- 7&#45;&gt;9 -->
<g id="edge5" class="edge">
<title>7&#45;&gt;9</title>
<path fill="none" stroke="blue" d="M294.85,-452.99C294.85,-440.49 294.85,-423.07 294.85,-407.34"/>
<polygon fill="blue" stroke="blue" points="298.35,-407.8 294.85,-397.8 291.35,-407.8 298.35,-407.8"/>
<text text-anchor="middle" x="335.35" y="-427.51" font-family="Times New Roman,serif" font-size="8.00">&quot;range(mid &#45; 1, &#45;1, &#45;1)&quot;</text>
<text text-anchor="middle" x="335.35" y="-417.01" font-family="Times New Roman,serif" font-size="8.00">c[4]</text>
<text text-anchor="start" x="263.35" y="-417.05" font-family="Times New Roman,serif" font-size="8.00" fill="darkmagenta"> &#160;&#160;&#160;&#160;15,1 &#160;</text>
</g>
<!-- 11 -->
<g id="node7" class="node">
<title>11</title>
<ellipse fill="none" stroke="black" cx="294.85" cy="-244.18" rx="74.95" ry="39.07"/>
<text text-anchor="middle" x="294.85" y="-245.93" font-family="Times New Roman,serif" font-size="10.00">11. digit_list[i] += 1</text>
<text text-anchor="middle" x="294.85" y="-234.68" font-family="Times New Roman,serif" font-size="10.00">if i != n &#45; i &#45; 1:</text>
<text text-anchor="start" x="204.15" y="-273.75" font-family="Times New Roman,serif" font-size="10.00" fill="darkorange">15,1</text>
</g>
<!-- 9&#45;&gt;11 -->
<g id="edge6" class="edge">
<title>9&#45;&gt;11</title>
<path fill="none" stroke="blue" d="M294.85,-339.8C294.85,-326.59 294.85,-310.31 294.85,-295.01"/>
<polygon fill="blue" stroke="blue" points="298.35,-295.08 294.85,-285.08 291.35,-295.08 298.35,-295.08"/>
<text text-anchor="middle" x="324.48" y="-314.65" font-family="Times New Roman,serif" font-size="8.00">&quot;digit_list[i] &lt; 9&quot;</text>
<text text-anchor="middle" x="324.48" y="-304.15" font-family="Times New Roman,serif" font-size="8.00">c[5]</text>
<text text-anchor="start" x="263.35" y="-304.1" font-family="Times New Roman,serif" font-size="8.00" fill="darkmagenta"> &#160;&#160;&#160;&#160;15,1 &#160;</text>
</g>
<!-- 13 -->
<g id="node8" class="node">
<title>13</title>
<ellipse fill="none" stroke="black" cx="294.85" cy="-120.18" rx="132.76" ry="27.93"/>
<text text-anchor="middle" x="294.85" y="-116.31" font-family="Times New Roman,serif" font-size="10.00">13. digit_list[n &#45; i &#45; 1] = digit_list[i]</text>
<text text-anchor="start" x="146.34" y="-138.61" font-family="Times New Roman,serif" font-size="10.00" fill="darkorange">15,1</text>
</g>
<!-- 11&#45;&gt;13 -->
<g id="edge7" class="edge">
<title>11&#45;&gt;13</title>
<path fill="none" stroke="blue" d="M294.85,-204.91C294.85,-190.47 294.85,-174.03 294.85,-159.58"/>
<polygon fill="blue" stroke="blue" points="298.35,-159.99 294.85,-149.99 291.35,-159.99 298.35,-159.99"/>
<text text-anchor="middle" x="318.85" y="-179.51" font-family="Times New Roman,serif" font-size="8.00">&quot;i != n &#45; i &#45; 1&quot;</text>
<text text-anchor="middle" x="318.85" y="-169.01" font-family="Times New Roman,serif" font-size="8.00">c[6]</text>
<text text-anchor="start" x="263.35" y="-169.23" font-family="Times New Roman,serif" font-size="8.00" fill="darkmagenta"> &#160;&#160;&#160;&#160;15,1 &#160;</text>
</g>
<!-- 14 -->
<g id="node9" class="node">
<title>14</title>
<ellipse fill="none" stroke="black" cx="294.85" cy="-37.25" rx="279.1" ry="18"/>
<text text-anchor="middle" x="294.85" y="-33.38" font-family="Times New Roman,serif" font-size="10.00">14. return digit_list[:mid] + [digit_list[mid]] * (n % 2) + digit_list[mid &#45; 1::&#45;1]</text>
<text text-anchor="start" x="0" y="-45.75" font-family="Times New Roman,serif" font-size="10.00" fill="darkorange">15,1</text>
</g>
<!-- 13&#45;&gt;14 -->
<g id="edge8" class="edge">
<title>13&#45;&gt;14</title>
<path fill="none" stroke="blue" d="M294.85,-91.78C294.85,-83.86 294.85,-75.2 294.85,-67.19"/>
<polygon fill="blue" stroke="blue" points="298.35,-67.24 294.85,-57.24 291.35,-67.24 298.35,-67.24"/>
<text text-anchor="start" x="263.35" y="-66.47" font-family="Times New Roman,serif" font-size="8.00" fill="darkmagenta"> &#160;&#160;&#160;&#160;15,1 &#160;</text>
</g>
</g>
</svg>
