<?xml version="1.0" encoding="UTF-8" standalone="no"?>
<!DOCTYPE svg PUBLIC "-//W3C//DTD SVG 1.1//EN"
 "http://www.w3.org/Graphics/SVG/1.1/DTD/svg11.dtd">
<!-- Generated by graphviz version 10.0.1 (20240210.2158)
 -->
<!-- Pages: 1 -->
<svg width="994pt" height="228pt"
 viewBox="0.00 0.00 994.12 227.72" xmlns="http://www.w3.org/2000/svg" xmlns:xlink="http://www.w3.org/1999/xlink">
<g id="graph0" class="graph" transform="scale(1 1) rotate(0) translate(4 223.72)">
<polygon fill="white" stroke="none" points="-4,4 -4,-223.72 990.12,-223.72 990.12,4 -4,4"/>
<!-- complex_math.euclidean_distance -->
<g id="node1" class="node">
<title>complex_math.euclidean_distance</title>
<ellipse fill="none" stroke="black" stroke-width="2" cx="137.89" cy="-99.93" rx="137.89" ry="18"/>
<text text-anchor="middle" x="137.89" y="-94.51" font-family="Times New Roman,serif" font-size="14.00">complex_math.euclidean_distance</text>
</g>
<!-- math.sqrt -->
<g id="node2" class="node">
<title>math.sqrt</title>
<ellipse fill="none" stroke="black" stroke-width="2" cx="137.89" cy="-18" rx="45.57" ry="18"/>
<text text-anchor="middle" x="137.89" y="-12.57" font-family="Times New Roman,serif" font-size="14.00">math.sqrt</text>
</g>
<!-- complex_math.euclidean_distance&#45;&gt;math.sqrt -->
<g id="edge1" class="edge">
<title>complex_math.euclidean_distance&#45;&gt;math.sqrt</title>
<path fill="none" stroke="black" d="M137.89,-81.19C137.89,-71.53 137.89,-59.33 137.89,-48.3"/>
<polygon fill="black" stroke="black" points="141.39,-48.48 137.89,-38.48 134.39,-48.48 141.39,-48.48"/>
</g>
<!-- complex_math.factorial -->
<g id="node3" class="node">
<title>complex_math.factorial</title>
<ellipse fill="none" stroke="red" stroke-width="2" cx="397.89" cy="-99.93" rx="104.12" ry="27.93"/>
<text text-anchor="middle" x="397.89" y="-102.38" font-family="Times New Roman,serif" font-size="14.00">complex_math.factorial</text>
<text text-anchor="middle" x="397.89" y="-86.63" font-family="Times New Roman,serif" font-size="14.00">Max Score: 1.27</text>
</g>
<!-- complex_math.factorial&#45;&gt;complex_math.factorial -->
<g id="edge2" class="edge">
<title>complex_math.factorial&#45;&gt;complex_math.factorial</title>
<path fill="none" stroke="black" d="M488.16,-114.73C506.7,-113.14 520.01,-108.21 520.01,-99.93 520.01,-93.46 511.89,-89.03 499.49,-86.65"/>
<polygon fill="black" stroke="black" points="500.03,-83.19 489.66,-85.33 499.1,-90.13 500.03,-83.19"/>
</g>
<!-- complex_math.fibonacci -->
<g id="node4" class="node">
<title>complex_math.fibonacci</title>
<ellipse fill="none" stroke="black" stroke-width="2" cx="646.89" cy="-99.93" rx="108.89" ry="27.93"/>
<text text-anchor="middle" x="646.89" y="-102.38" font-family="Times New Roman,serif" font-size="14.00">complex_math.fibonacci</text>
<text text-anchor="middle" x="646.89" y="-86.63" font-family="Times New Roman,serif" font-size="14.00">Max Score: 1.22</text>
</g>
<!-- complex_math.fibonacci&#45;&gt;complex_math.fibonacci -->
<g id="edge3" class="edge">
<title>complex_math.fibonacci&#45;&gt;complex_math.fibonacci</title>
<path fill="none" stroke="black" d="M741.24,-114.68C760.22,-113.05 773.78,-108.13 773.78,-99.93 773.78,-93.46 765.34,-89.03 752.45,-86.65"/>
<polygon fill="black" stroke="black" points="753.11,-83.21 742.74,-85.38 752.2,-90.15 753.11,-83.21"/>
</g>
<!-- complex_math.multiply2 -->
<g id="node5" class="node">
<title>complex_math.multiply2</title>
<ellipse fill="none" stroke="black" stroke-width="2" cx="521.89" cy="-191.79" rx="108.36" ry="27.93"/>
<text text-anchor="middle" x="521.89" y="-194.24" font-family="Times New Roman,serif" font-size="14.00">complex_math.multiply2</text>
<text text-anchor="middle" x="521.89" y="-178.49" font-family="Times New Roman,serif" font-size="14.00">Max Score: 0.77</text>
</g>
<!-- complex_math.multiply2&#45;&gt;complex_math.euclidean_distance -->
<g id="edge4" class="edge">
<title>complex_math.multiply2&#45;&gt;complex_math.euclidean_distance</title>
<path fill="none" stroke="black" d="M442.32,-172.17C375.87,-156.62 281.67,-134.58 215.71,-119.14"/>
<polygon fill="black" stroke="black" points="216.57,-115.75 206.03,-116.88 214.97,-122.56 216.57,-115.75"/>
</g>
<!-- complex_math.multiply2&#45;&gt;complex_math.factorial -->
<g id="edge6" class="edge">
<title>complex_math.multiply2&#45;&gt;complex_math.factorial</title>
<path fill="none" stroke="black" d="M485.69,-164.56C472.32,-154.87 457,-143.77 442.94,-133.58"/>
<polygon fill="black" stroke="black" points="445.3,-130.96 435.14,-127.93 441.19,-136.63 445.3,-130.96"/>
</g>
<!-- complex_math.multiply2&#45;&gt;complex_math.fibonacci -->
<g id="edge5" class="edge">
<title>complex_math.multiply2&#45;&gt;complex_math.fibonacci</title>
<path fill="none" stroke="black" d="M558.38,-164.56C571.86,-154.87 587.3,-143.77 601.47,-133.58"/>
<polygon fill="black" stroke="black" points="603.26,-136.6 609.34,-127.92 599.18,-130.92 603.26,-136.6"/>
</g>
<!-- complex_math.power -->
<g id="node6" class="node">
<title>complex_math.power</title>
<ellipse fill="none" stroke="black" stroke-width="2" cx="888.89" cy="-99.93" rx="97.23" ry="27.93"/>
<text text-anchor="middle" x="888.89" y="-102.38" font-family="Times New Roman,serif" font-size="14.00">complex_math.power</text>
<text text-anchor="middle" x="888.89" y="-86.63" font-family="Times New Roman,serif" font-size="14.00">Max Score: 0.72</text>
</g>
<!-- complex_math.multiply2&#45;&gt;complex_math.power -->
<g id="edge7" class="edge">
<title>complex_math.multiply2&#45;&gt;complex_math.power</title>
<path fill="none" stroke="black" d="M601.05,-171.97C652.82,-159.6 721.92,-142.96 782.89,-127.86 790.2,-126.05 797.78,-124.16 805.38,-122.25"/>
<polygon fill="black" stroke="black" points="806.19,-125.65 815.04,-119.82 804.48,-118.87 806.19,-125.65"/>
</g>
</g>
</svg>
