<?xml version="1.0" encoding="UTF-8" standalone="no"?>
<!DOCTYPE svg PUBLIC "-//W3C//DTD SVG 1.1//EN"
 "http://www.w3.org/Graphics/SVG/1.1/DTD/svg11.dtd">
<!-- Generated by graphviz version 10.0.1 (20240210.2158)
 -->
<!-- Title: clusters_euclidean_distance_split Pages: 1 -->
<svg width="754pt" height="280pt"
 viewBox="0.00 0.00 754.46 279.86" xmlns="http://www.w3.org/2000/svg" xmlns:xlink="http://www.w3.org/1999/xlink">
<g id="graph0" class="graph" transform="scale(1 1) rotate(0) translate(4 275.86)">
<title>clusters_euclidean_distance_split</title>
<polygon fill="white" stroke="none" points="-4,4 -4,-275.86 750.46,-275.86 750.46,4 -4,4"/>
<text text-anchor="middle" x="373.23" y="-6.45" font-family="Times New Roman,serif" font-size="14.00">s_euclidean_distance_split</text>
<!-- 1 -->
<g id="node1" class="node">
<title>1</title>
<ellipse fill="none" stroke="black" cx="365.59" cy="-238.11" rx="96.97" ry="18"/>
<text text-anchor="middle" x="365.59" y="-232.69" font-family="Times New Roman,serif" font-size="14.00">1. sum_of_squares = 0</text>
<text text-anchor="start" x="224.37" y="-242.81" font-family="Times New Roman,serif" font-size="14.00" fill="darkorange">114,114</text>
</g>
<!-- 2 -->
<g id="node2" class="node">
<title>2</title>
<ellipse fill="none" stroke="black" cx="365.59" cy="-165.11" rx="114.94" ry="18"/>
<text text-anchor="middle" x="365.59" y="-159.69" font-family="Times New Roman,serif" font-size="14.00">2. for i in range(len(point1)):</text>
<text text-anchor="start" x="206.4" y="-169.81" font-family="Times New Roman,serif" font-size="14.00" fill="darkorange">342,342</text>
</g>
<!-- 1&#45;&gt;2 -->
<g id="edge1" class="edge">
<title>1&#45;&gt;2</title>
<path fill="none" stroke="blue" d="M365.59,-219.92C365.59,-212.34 365.59,-203.21 365.59,-194.65"/>
<polygon fill="blue" stroke="blue" points="369.09,-194.65 365.59,-184.65 362.09,-194.65 369.09,-194.65"/>
<text text-anchor="start" x="321.34" y="-204" font-family="Times New Roman,serif" font-size="14.00" fill="darkmagenta">114,114</text>
</g>
<!-- 3 -->
<g id="node3" class="node">
<title>3</title>
<ellipse fill="none" stroke="black" cx="239.59" cy="-51.68" rx="195.34" ry="27.93"/>
<text text-anchor="middle" x="239.59" y="-46.26" font-family="Times New Roman,serif" font-size="14.00">3. sum_of_squares += (point1[i] &#45; point2[i]) ** 2</text>
<text text-anchor="start" x="0" y="-66.31" font-family="Times New Roman,serif" font-size="14.00" fill="darkorange">228,228</text>
</g>
<!-- 2&#45;&gt;3 -->
<g id="edge2" class="edge">
<title>2&#45;&gt;3</title>
<path fill="none" stroke="blue" stroke-width="5" d="M291.24,-151.08C268.45,-145.48 247.53,-138.13 240.59,-129.11 233.44,-119.82 231.11,-107.83 231.12,-96.12"/>
<polygon fill="blue" stroke="blue" stroke-width="5" points="235.47,-96.6 231.93,-86.28 226.75,-95.89 235.47,-96.6"/>
<text text-anchor="middle" x="296.09" y="-115.81" font-family="Times New Roman,serif" font-size="14.00">&quot;range(len(point1))&quot;</text>
<text text-anchor="middle" x="296.09" y="-100.06" font-family="Times New Roman,serif" font-size="14.00">c[2]:(228,228) 0.72</text>
<text text-anchor="start" x="196.3" y="-131.51" font-family="Times New Roman,serif" font-size="14.00" fill="darkmagenta">228,228</text>
</g>
<!-- 4 -->
<g id="node4" class="node">
<title>4</title>
<ellipse fill="none" stroke="black" cx="599.59" cy="-51.68" rx="146.87" ry="18"/>
<text text-anchor="middle" x="599.59" y="-46.26" font-family="Times New Roman,serif" font-size="14.00">4. return math.sqrt(sum_of_squares)</text>
<text text-anchor="start" x="452.72" y="-56.38" font-family="Times New Roman,serif" font-size="14.00" fill="darkorange">114,114</text>
</g>
<!-- 2&#45;&gt;4 -->
<g id="edge3" class="edge">
<title>2&#45;&gt;4</title>
<path fill="none" stroke="blue" d="M400.37,-147.55C441.15,-128.13 508.88,-95.88 553.88,-74.45"/>
<polygon fill="blue" stroke="blue" points="555.35,-77.63 562.87,-70.17 552.34,-71.31 555.35,-77.63"/>
<text text-anchor="start" x="438.11" y="-110.96" font-family="Times New Roman,serif" font-size="14.00" fill="darkmagenta">114,114</text>
</g>
<!-- 3&#45;&gt;2 -->
<g id="edge4" class="edge">
<title>3&#45;&gt;2</title>
<path fill="none" stroke="blue" d="M326.53,-77.07C335.97,-82.59 344.65,-89.35 351.59,-97.61 360.36,-108.06 364.06,-122.63 365.49,-135.47"/>
<polygon fill="blue" stroke="blue" points="361.97,-135.36 366.14,-145.1 368.96,-134.89 361.97,-135.36"/>
<text text-anchor="start" x="357.11" y="-108.29" font-family="Times New Roman,serif" font-size="14.00" fill="darkmagenta">228,228</text>
</g>
</g>
</svg>
