<?xml version="1.0" encoding="UTF-8" standalone="no"?>
<!DOCTYPE svg PUBLIC "-//W3C//DTD SVG 1.1//EN"
 "http://www.w3.org/Graphics/SVG/1.1/DTD/svg11.dtd">
<!-- Generated by graphviz version 10.0.1 (20240210.2158)
 -->
<!-- Title: clusters_factorial_split Pages: 1 -->
<svg width="384pt" height="207pt"
 viewBox="0.00 0.00 384.05 206.86" xmlns="http://www.w3.org/2000/svg" xmlns:xlink="http://www.w3.org/1999/xlink">
<g id="graph0" class="graph" transform="scale(1 1) rotate(0) translate(4 202.86)">
<title>clusters_factorial_split</title>
<polygon fill="white" stroke="none" points="-4,4 -4,-202.86 380.05,-202.86 380.05,4 -4,4"/>
<text text-anchor="middle" x="188.03" y="-6.45" font-family="Times New Roman,serif" font-size="14.00">s_factorial_split</text>
<!-- 1 -->
<g id="node1" class="node">
<title>1</title>
<ellipse fill="none" stroke="black" cx="180.22" cy="-165.11" rx="54.56" ry="18"/>
<text text-anchor="middle" x="180.22" y="-159.69" font-family="Times New Roman,serif" font-size="14.00">1. if n == 0:</text>
<text text-anchor="start" x="81.41" y="-169.81" font-family="Times New Roman,serif" font-size="14.00" fill="darkorange">114,114</text>
</g>
<!-- 2 -->
<g id="node2" class="node">
<title>2</title>
<ellipse fill="none" stroke="black" cx="93.22" cy="-51.68" rx="48.97" ry="27.93"/>
<text text-anchor="middle" x="93.22" y="-46.26" font-family="Times New Roman,serif" font-size="14.00">2. return 1</text>
<text text-anchor="start" x="0" y="-66.31" font-family="Times New Roman,serif" font-size="14.00" fill="darkorange">114,114</text>
</g>
<!-- 1&#45;&gt;2 -->
<g id="edge1" class="edge">
<title>1&#45;&gt;2</title>
<path fill="none" stroke="blue" stroke-width="2.8" d="M159.29,-148.17C152.62,-142.55 145.48,-135.92 139.72,-129.11 129.93,-117.55 120.86,-103.71 113.37,-91"/>
<polygon fill="blue" stroke="blue" stroke-width="2.8" points="116.51,-89.45 108.53,-82.48 110.42,-92.9 116.51,-89.45"/>
<text text-anchor="middle" x="192.47" y="-115.81" font-family="Times New Roman,serif" font-size="14.00">&quot;n == 0&quot;</text>
<text text-anchor="middle" x="192.47" y="-100.06" font-family="Times New Roman,serif" font-size="14.00">c[3]:(114,114) 0.57</text>
<text text-anchor="start" x="85.23" y="-118.37" font-family="Times New Roman,serif" font-size="14.00" fill="darkmagenta">114,114</text>
</g>
<!-- 4 -->
<g id="node3" class="node">
<title>4</title>
<ellipse fill="none" stroke="black" cx="268.22" cy="-51.68" rx="107.83" ry="27.93"/>
<text text-anchor="middle" x="268.22" y="-46.26" font-family="Times New Roman,serif" font-size="14.00">4. return n * factorial(n &#45; 1)</text>
<text text-anchor="start" x="116.13" y="-66.31" font-family="Times New Roman,serif" font-size="14.00" fill="darkorange">195,450</text>
</g>
<!-- 1&#45;&gt;4 -->
<g id="edge2" class="edge">
<title>1&#45;&gt;4</title>
<path fill="none" stroke="blue" stroke-width="5" d="M216.48,-151.35C227.36,-145.96 238.45,-138.68 246.22,-129.11 253.99,-119.53 259.02,-107.32 262.27,-95.49"/>
<polygon fill="blue" stroke="blue" stroke-width="5" points="266.49,-96.67 264.36,-85.96 257.95,-94.8 266.49,-96.67"/>
<text text-anchor="middle" x="314.47" y="-115.81" font-family="Times New Roman,serif" font-size="14.00">&quot;(n != 0)&quot;</text>
<text text-anchor="middle" x="314.47" y="-100.06" font-family="Times New Roman,serif" font-size="14.00">c[4]:(195,450) 1.27</text>
<text text-anchor="start" x="251.24" y="-124.43" font-family="Times New Roman,serif" font-size="14.00" fill="darkmagenta">195,450</text>
</g>
</g>
</svg>
