<?xml version="1.0" encoding="UTF-8" standalone="no"?>
<!DOCTYPE svg PUBLIC "-//W3C//DTD SVG 1.1//EN"
 "http://www.w3.org/Graphics/SVG/1.1/DTD/svg11.dtd">
<!-- Generated by graphviz version 10.0.1 (20240210.2158)
 -->
<!-- Title: clusters_fibonacci_split Pages: 1 -->
<svg width="508pt" height="207pt"
 viewBox="0.00 0.00 508.10 206.86" xmlns="http://www.w3.org/2000/svg" xmlns:xlink="http://www.w3.org/1999/xlink">
<g id="graph0" class="graph" transform="scale(1 1) rotate(0) translate(4 202.86)">
<title>clusters_fibonacci_split</title>
<polygon fill="white" stroke="none" points="-4,4 -4,-202.86 504.1,-202.86 504.1,4 -4,4"/>
<text text-anchor="middle" x="250.05" y="-6.45" font-family="Times New Roman,serif" font-size="14.00">s_fibonacci_split</text>
<!-- 1 -->
<g id="node1" class="node">
<title>1</title>
<ellipse fill="none" stroke="black" cx="211.22" cy="-165.11" rx="54.56" ry="18"/>
<text text-anchor="middle" x="211.22" y="-159.69" font-family="Times New Roman,serif" font-size="14.00">1. if n &lt;= 1:</text>
<text text-anchor="start" x="112.41" y="-169.81" font-family="Times New Roman,serif" font-size="14.00" fill="darkorange">114,114</text>
</g>
<!-- 2 -->
<g id="node2" class="node">
<title>2</title>
<ellipse fill="none" stroke="black" cx="93.22" cy="-51.68" rx="48.97" ry="27.93"/>
<text text-anchor="middle" x="93.22" y="-46.26" font-family="Times New Roman,serif" font-size="14.00">2. return n</text>
<text text-anchor="start" x="0" y="-66.31" font-family="Times New Roman,serif" font-size="14.00" fill="darkorange">505,714</text>
</g>
<!-- 1&#45;&gt;2 -->
<g id="edge1" class="edge">
<title>1&#45;&gt;2</title>
<path fill="none" stroke="blue" stroke-width="5" d="M193.81,-147.67C177.01,-131.81 151.06,-107.3 129.72,-87.15"/>
<polygon fill="blue" stroke="blue" stroke-width="5" points="132.92,-84.16 122.65,-80.48 126.92,-90.52 132.92,-84.16"/>
<text text-anchor="middle" x="226.47" y="-115.81" font-family="Times New Roman,serif" font-size="14.00">&quot;n &lt;= 1&quot;</text>
<text text-anchor="middle" x="226.47" y="-100.06" font-family="Times New Roman,serif" font-size="14.00">c[5]:(505,714) 1.22</text>
<text text-anchor="start" x="111.77" y="-114.43" font-family="Times New Roman,serif" font-size="14.00" fill="darkmagenta">505,714</text>
</g>
<!-- 4 -->
<g id="node3" class="node">
<title>4</title>
<ellipse fill="none" stroke="black" cx="330.22" cy="-51.68" rx="169.88" ry="27.93"/>
<text text-anchor="middle" x="330.22" y="-46.26" font-family="Times New Roman,serif" font-size="14.00">4. return fibonacci(n &#45; 1) + fibonacci(n &#45; 2)</text>
<text text-anchor="start" x="116.08" y="-66.31" font-family="Times New Roman,serif" font-size="14.00" fill="darkorange">391,600</text>
</g>
<!-- 1&#45;&gt;4 -->
<g id="edge2" class="edge">
<title>1&#45;&gt;4</title>
<path fill="none" stroke="blue" stroke-width="4.93" d="M247.92,-151.5C260.41,-145.98 273.82,-138.57 284.22,-129.11 295,-119.3 304.08,-106.37 311.24,-93.93"/>
<polygon fill="blue" stroke="blue" stroke-width="4.93" points="314.96,-96.14 315.84,-85.29 307.33,-92.09 314.96,-96.14"/>
<text text-anchor="middle" x="358.09" y="-115.81" font-family="Times New Roman,serif" font-size="14.00">&quot;(n &gt; 1)&quot;</text>
<text text-anchor="middle" x="358.09" y="-100.06" font-family="Times New Roman,serif" font-size="14.00">c[6]:(391,600) 1.2</text>
<text text-anchor="start" x="290.58" y="-125.23" font-family="Times New Roman,serif" font-size="14.00" fill="darkmagenta">391,600</text>
</g>
</g>
</svg>
