<?xml version="1.0" encoding="UTF-8" standalone="no"?>
<!DOCTYPE svg PUBLIC "-//W3C//DTD SVG 1.1//EN"
 "http://www.w3.org/Graphics/SVG/1.1/DTD/svg11.dtd">
<!-- Generated by graphviz version 10.0.1 (20240210.2158)
 -->
<!-- Title: clusters_multiply2_split Pages: 1 -->
<svg width="656pt" height="889pt"
 viewBox="0.00 0.00 656.48 888.82" xmlns="http://www.w3.org/2000/svg" xmlns:xlink="http://www.w3.org/1999/xlink">
<g id="graph0" class="graph" transform="scale(1 1) rotate(0) translate(4 884.82)">
<title>clusters_multiply2_split</title>
<polygon fill="white" stroke="none" points="-4,4 -4,-884.82 652.48,-884.82 652.48,4 -4,4"/>
<text text-anchor="middle" x="324.24" y="-6.45" font-family="Times New Roman,serif" font-size="14.00">s_multiply2_split</text>
<!-- 1 -->
<g id="node1" class="node">
<title>1</title>
<ellipse fill="none" stroke="black" cx="373.23" cy="-803.73" rx="227.69" ry="61.34"/>
<text text-anchor="middle" x="373.23" y="-798.3" font-family="Times New Roman,serif" font-size="14.00">1. rxy = 0</text>
<text text-anchor="start" x="101.29" y="-851.77" font-family="Times New Roman,serif" font-size="14.00" fill="darkorange">114,114</text>
</g>
<!-- 2 -->
<g id="node2" class="node">
<title>2</title>
<ellipse fill="none" stroke="black" cx="373.23" cy="-687.39" rx="97.97" ry="18"/>
<text text-anchor="middle" x="373.23" y="-681.96" font-family="Times New Roman,serif" font-size="14.00">2. for j in range(abs(z)):</text>
<text text-anchor="start" x="231.01" y="-692.09" font-family="Times New Roman,serif" font-size="14.00" fill="darkorange">278,321</text>
</g>
<!-- 1&#45;&gt;2 -->
<g id="edge1" class="edge">
<title>1&#45;&gt;2</title>
<path fill="none" stroke="blue" d="M373.23,-742.21C373.23,-733.35 373.23,-724.6 373.23,-716.81"/>
<polygon fill="blue" stroke="blue" points="376.73,-717 373.23,-707 369.73,-717 376.73,-717"/>
<text text-anchor="start" x="328.98" y="-726.04" font-family="Times New Roman,serif" font-size="14.00" fill="darkmagenta">114,114</text>
</g>
<!-- 3 -->
<g id="node3" class="node">
<title>3</title>
<ellipse fill="none" stroke="black" cx="103.23" cy="-484.86" rx="48.97" ry="27.93"/>
<text text-anchor="middle" x="103.23" y="-479.43" font-family="Times New Roman,serif" font-size="14.00">3. if z &gt;= 0:</text>
<text text-anchor="start" x="10.01" y="-499.49" font-family="Times New Roman,serif" font-size="14.00" fill="darkorange">164,207</text>
</g>
<!-- 2&#45;&gt;3 -->
<g id="edge2" class="edge">
<title>2&#45;&gt;3</title>
<path fill="none" stroke="blue" stroke-width="5" d="M305.88,-673.98C259.93,-662.37 200.51,-640.78 161.23,-601.89 140.59,-581.45 126.02,-552.15 116.65,-528.11"/>
<polygon fill="blue" stroke="blue" stroke-width="5" points="120.76,-526.61 113.24,-518.71 112.54,-529.6 120.76,-526.61"/>
<text text-anchor="middle" x="286.48" y="-638.09" font-family="Times New Roman,serif" font-size="14.00">&quot;range(abs(z))&quot;</text>
<text text-anchor="middle" x="286.48" y="-622.34" font-family="Times New Roman,serif" font-size="14.00">c[8]:(164,207) 0.77</text>
<text text-anchor="start" x="116.98" y="-604.33" font-family="Times New Roman,serif" font-size="14.00" fill="darkmagenta">164,207</text>
</g>
<!-- 4 -->
<g id="node4" class="node">
<title>4</title>
<ellipse fill="none" stroke="black" cx="373.23" cy="-484.86" rx="203.29" ry="117.03"/>
<text text-anchor="middle" x="373.23" y="-550.31" font-family="Times New Roman,serif" font-size="14.00">4. print(&#39;multiply done&#39;, rxyz)</text>
<text text-anchor="middle" x="373.23" y="-534.56" font-family="Times New Roman,serif" font-size="14.00">power_result = power(rxyz, 2)</text>
<text text-anchor="middle" x="373.23" y="-518.81" font-family="Times New Roman,serif" font-size="14.00">print(&#39;Power result:&#39;, power_result)</text>
<text text-anchor="middle" x="373.23" y="-503.06" font-family="Times New Roman,serif" font-size="14.00">distance = euclidean_distance((x, y), (rxy, rxyz))</text>
<text text-anchor="middle" x="373.23" y="-487.31" font-family="Times New Roman,serif" font-size="14.00">print(&#39;Euclidean distance:&#39;, distance)</text>
<text text-anchor="middle" x="373.23" y="-471.56" font-family="Times New Roman,serif" font-size="14.00">fact_result = factorial(abs(rxyz))</text>
<text text-anchor="middle" x="373.23" y="-455.81" font-family="Times New Roman,serif" font-size="14.00">print(&#39;Factorial result:&#39;, fact_result)</text>
<text text-anchor="middle" x="373.23" y="-440.06" font-family="Times New Roman,serif" font-size="14.00">fib_result = fibonacci(abs(rxy))</text>
<text text-anchor="middle" x="373.23" y="-424.31" font-family="Times New Roman,serif" font-size="14.00">print(&#39;Fibonacci result:&#39;, fib_result)</text>
<text text-anchor="middle" x="373.23" y="-408.56" font-family="Times New Roman,serif" font-size="14.00">return rxyz</text>
<text text-anchor="start" x="169.94" y="-588.59" font-family="Times New Roman,serif" font-size="14.00" fill="darkorange">114,114</text>
</g>
<!-- 2&#45;&gt;4 -->
<g id="edge3" class="edge">
<title>2&#45;&gt;4</title>
<path fill="none" stroke="blue" d="M373.23,-668.94C373.23,-655.41 373.23,-635.3 373.23,-613.3"/>
<polygon fill="blue" stroke="blue" points="376.73,-613.53 373.23,-603.53 369.73,-613.53 376.73,-613.53"/>
<text text-anchor="start" x="373.23" y="-638.05" font-family="Times New Roman,serif" font-size="14.00" fill="darkmagenta">114,114</text>
</g>
<!-- 5 -->
<g id="node5" class="node">
<title>5</title>
<ellipse fill="none" stroke="black" cx="103.23" cy="-272.4" rx="48.97" ry="27.93"/>
<text text-anchor="middle" x="103.23" y="-266.98" font-family="Times New Roman,serif" font-size="14.00">5. if z &lt; 0:</text>
<text text-anchor="start" x="23.51" y="-287.03" font-family="Times New Roman,serif" font-size="14.00" fill="darkorange">36,63</text>
</g>
<!-- 3&#45;&gt;5 -->
<g id="edge4" class="edge">
<title>3&#45;&gt;5</title>
<path fill="none" stroke="blue" stroke-width="3.86" d="M103.23,-456.78C103.23,-421.28 103.23,-358.6 103.23,-316.53"/>
<polygon fill="blue" stroke="blue" stroke-width="3.86" points="106.73,-316.55 103.23,-306.55 99.73,-316.55 106.73,-316.55"/>
<text text-anchor="middle" x="149.73" y="-336.53" font-family="Times New Roman,serif" font-size="14.00">&quot;z &gt;= 0&quot;</text>
<text text-anchor="middle" x="149.73" y="-320.78" font-family="Times New Roman,serif" font-size="14.00">c[9]:(36,63) 0.55</text>
<text text-anchor="start" x="72.48" y="-381.43" font-family="Times New Roman,serif" font-size="14.00" fill="darkmagenta">36,63</text>
</g>
<!-- 7 -->
<g id="node6" class="node">
<title>7</title>
<ellipse fill="none" stroke="black" cx="241.23" cy="-198.54" rx="55.33" ry="27.93"/>
<text text-anchor="middle" x="241.23" y="-193.12" font-family="Times New Roman,serif" font-size="14.00">7. rxyz &#45;= rxy</text>
<text text-anchor="start" x="141.65" y="-213.17" font-family="Times New Roman,serif" font-size="14.00" fill="darkorange">128,144</text>
</g>
<!-- 3&#45;&gt;7 -->
<g id="edge5" class="edge">
<title>3&#45;&gt;7</title>
<path fill="none" stroke="blue" stroke-width="4.38" d="M110.83,-457.24C119.37,-431.48 135.52,-392.76 161.23,-367.83 174.94,-354.55 187.9,-364.41 200.23,-349.83 225.6,-319.86 235.38,-275.54 239.1,-242.79"/>
<polygon fill="blue" stroke="blue" stroke-width="4.38" points="242.9,-243.26 239.98,-232.95 235.27,-242.57 242.9,-243.26"/>
<text text-anchor="middle" x="275.86" y="-336.53" font-family="Times New Roman,serif" font-size="14.00">&quot;(z &lt; 0)&quot;</text>
<text text-anchor="middle" x="275.86" y="-320.78" font-family="Times New Roman,serif" font-size="14.00">c[11]:(128,144) 0.65</text>
<text text-anchor="start" x="137.07" y="-361.75" font-family="Times New Roman,serif" font-size="14.00" fill="darkmagenta">128,144</text>
</g>
<!-- 8 -->
<g id="node7" class="node">
<title>8</title>
<ellipse fill="none" stroke="black" cx="75.23" cy="-124.68" rx="57.98" ry="27.93"/>
<text text-anchor="middle" x="75.23" y="-119.26" font-family="Times New Roman,serif" font-size="14.00">8. rxyz += rxy</text>
<text text-anchor="start" x="0" y="-139.31" font-family="Times New Roman,serif" font-size="14.00" fill="darkorange">0,0</text>
</g>
<!-- 5&#45;&gt;8 -->
<g id="edge6" class="edge">
<title>5&#45;&gt;8</title>
<path fill="none" stroke="black" d="M92.03,-245.14C89.81,-239.1 87.71,-232.64 86.23,-226.47 81.4,-206.3 78.68,-183.33 77.16,-164.43"/>
<polygon fill="black" stroke="black" points="80.65,-164.19 76.45,-154.46 73.67,-164.68 80.65,-164.19"/>
<text text-anchor="middle" x="120.73" y="-200.99" font-family="Times New Roman,serif" font-size="14.00">&quot;z &lt; 0&quot;</text>
<text text-anchor="middle" x="120.73" y="-185.24" font-family="Times New Roman,serif" font-size="14.00">c[10]:(0,0) 0</text>
<text text-anchor="start" x="63.85" y="-201.91" font-family="Times New Roman,serif" font-size="14.00" fill="darkmagenta">0,0</text>
</g>
<!-- 6 -->
<g id="node8" class="node">
<title>6</title>
<ellipse fill="none" stroke="black" cx="206.23" cy="-41.75" rx="88.49" ry="18"/>
<text text-anchor="middle" x="206.23" y="-36.33" font-family="Times New Roman,serif" font-size="14.00">6. print(&#39;rxyz: &#39;, rxyz)</text>
<text text-anchor="start" x="73.49" y="-46.45" font-family="Times New Roman,serif" font-size="14.00" fill="darkorange">164,207</text>
</g>
<!-- 5&#45;&gt;6 -->
<g id="edge7" class="edge">
<title>5&#45;&gt;6</title>
<path fill="none" stroke="blue" d="M134.71,-250.76C142.68,-243.98 150.35,-235.77 155.23,-226.47 182.21,-175.13 149.4,-151.17 169.48,-96.75 173.13,-86.86 178.98,-77.02 184.95,-68.51"/>
<polygon fill="blue" stroke="blue" points="187.56,-70.86 190.72,-60.75 181.95,-66.69 187.56,-70.86"/>
<text text-anchor="middle" x="193.11" y="-119.26" font-family="Times New Roman,serif" font-size="14.00">(z &gt;= 0)</text>
<text text-anchor="start" x="133.26" y="-157.52" font-family="Times New Roman,serif" font-size="14.00" fill="darkmagenta">36,63</text>
</g>
<!-- 7&#45;&gt;6 -->
<g id="edge10" class="edge">
<title>7&#45;&gt;6</title>
<path fill="none" stroke="blue" d="M235.5,-170.56C231.15,-150.24 224.96,-121.71 219.23,-96.75 217.3,-88.32 215.12,-79.16 213.11,-70.83"/>
<polygon fill="blue" stroke="blue" points="216.54,-70.12 210.78,-61.22 209.74,-71.77 216.54,-70.12"/>
<text text-anchor="start" x="179.19" y="-102.05" font-family="Times New Roman,serif" font-size="14.00" fill="darkmagenta">128,144</text>
</g>
<!-- 8&#45;&gt;6 -->
<g id="edge8" class="edge">
<title>8&#45;&gt;6</title>
<path fill="none" stroke="black" d="M110.34,-101.99C128.71,-90.64 151.18,-76.76 169.76,-65.28"/>
<polygon fill="black" stroke="black" points="171.39,-68.39 178.06,-60.16 167.71,-62.43 171.39,-68.39"/>
<text text-anchor="start" x="127.52" y="-83.17" font-family="Times New Roman,serif" font-size="14.00" fill="darkmagenta">0,0</text>
</g>
<!-- 6&#45;&gt;2 -->
<g id="edge9" class="edge">
<title>6&#45;&gt;2</title>
<path fill="none" stroke="blue" d="M294.56,-43.23C411.81,-46.31 604.23,-60.93 604.23,-123.68 604.23,-485.86 604.23,-485.86 604.23,-485.86 604.23,-538.11 617.96,-561.15 585.23,-601.89 554.4,-640.25 503.57,-661.28 459.41,-672.76"/>
<polygon fill="blue" stroke="blue" points="458.69,-669.34 449.82,-675.12 460.36,-676.14 458.69,-669.34"/>
<text text-anchor="start" x="604.23" y="-443.04" font-family="Times New Roman,serif" font-size="14.00" fill="darkmagenta">164,207</text>
</g>
</g>
</svg>
