<?xml version="1.0" encoding="UTF-8" standalone="no"?>
<!DOCTYPE svg PUBLIC "-//W3C//DTD SVG 1.1//EN"
 "http://www.w3.org/Graphics/SVG/1.1/DTD/svg11.dtd">
<!-- Generated by graphviz version 10.0.1 (20240210.2158)
 -->
<!-- Title: clusters_power_split Pages: 1 -->
<svg width="353pt" height="286pt"
 viewBox="0.00 0.00 352.66 285.68" xmlns="http://www.w3.org/2000/svg" xmlns:xlink="http://www.w3.org/1999/xlink">
<g id="graph0" class="graph" transform="scale(1 1) rotate(0) translate(4 281.68)">
<title>clusters_power_split</title>
<polygon fill="white" stroke="none" points="-4,4 -4,-281.68 348.66,-281.68 348.66,4 -4,4"/>
<text text-anchor="middle" x="172.33" y="-6.45" font-family="Times New Roman,serif" font-size="14.00">s_power_split</text>
<!-- 1 -->
<g id="node1" class="node">
<title>1</title>
<ellipse fill="none" stroke="black" cx="232.72" cy="-243.93" rx="55.06" ry="18"/>
<text text-anchor="middle" x="232.72" y="-238.51" font-family="Times New Roman,serif" font-size="14.00">1. result = 1</text>
<text text-anchor="start" x="133.41" y="-248.63" font-family="Times New Roman,serif" font-size="14.00" fill="darkorange">114,114</text>
</g>
<!-- 2 -->
<g id="node2" class="node">
<title>2</title>
<ellipse fill="none" stroke="black" cx="232.72" cy="-170.93" rx="111.94" ry="18"/>
<text text-anchor="middle" x="232.72" y="-165.51" font-family="Times New Roman,serif" font-size="14.00">2. for _ in range(exponent):</text>
<text text-anchor="start" x="76.53" y="-175.63" font-family="Times New Roman,serif" font-size="14.00" fill="darkorange">342,342</text>
</g>
<!-- 1&#45;&gt;2 -->
<g id="edge1" class="edge">
<title>1&#45;&gt;2</title>
<path fill="none" stroke="blue" d="M232.72,-225.74C232.72,-218.16 232.72,-209.03 232.72,-200.47"/>
<polygon fill="blue" stroke="blue" points="236.22,-200.47 232.72,-190.47 229.22,-200.47 236.22,-200.47"/>
<text text-anchor="start" x="188.47" y="-209.82" font-family="Times New Roman,serif" font-size="14.00" fill="darkmagenta">114,114</text>
</g>
<!-- 3 -->
<g id="node3" class="node">
<title>3</title>
<ellipse fill="none" stroke="black" cx="110.72" cy="-57.5" rx="66.47" ry="27.93"/>
<text text-anchor="middle" x="110.72" y="-52.08" font-family="Times New Roman,serif" font-size="14.00">3. result *= base</text>
<text text-anchor="start" x="0" y="-72.13" font-family="Times New Roman,serif" font-size="14.00" fill="darkorange">228,228</text>
</g>
<!-- 2&#45;&gt;3 -->
<g id="edge2" class="edge">
<title>2&#45;&gt;3</title>
<path fill="none" stroke="blue" stroke-width="5" d="M145.96,-159.32C132.84,-153.96 120.83,-146.17 112.22,-134.93 105.03,-125.55 102.66,-113.45 102.63,-101.66"/>
<polygon fill="blue" stroke="blue" stroke-width="5" points="106.99,-102.03 103.4,-91.72 98.26,-101.35 106.99,-102.03"/>
<text text-anchor="middle" x="164.97" y="-121.63" font-family="Times New Roman,serif" font-size="14.00">&quot;range(exponent)&quot;</text>
<text text-anchor="middle" x="164.97" y="-105.88" font-family="Times New Roman,serif" font-size="14.00">c[1]:(228,228) 0.72</text>
<text text-anchor="start" x="65.78" y="-134.21" font-family="Times New Roman,serif" font-size="14.00" fill="darkmagenta">228,228</text>
</g>
<!-- 4 -->
<g id="node4" class="node">
<title>4</title>
<ellipse fill="none" stroke="black" cx="259.72" cy="-57.5" rx="64.04" ry="18"/>
<text text-anchor="middle" x="259.72" y="-52.08" font-family="Times New Roman,serif" font-size="14.00">4. return result</text>
<text text-anchor="start" x="195.68" y="-10.45" font-family="Times New Roman,serif" font-size="14.00" fill="darkorange">114,114</text>
</g>
<!-- 2&#45;&gt;4 -->
<g id="edge3" class="edge">
<title>2&#45;&gt;4</title>
<path fill="none" stroke="blue" d="M239.8,-152.68C241.92,-147.08 244.1,-140.81 245.72,-134.93 250.02,-119.28 253.37,-101.46 255.71,-86.97"/>
<polygon fill="blue" stroke="blue" points="259.16,-87.6 257.21,-77.19 252.24,-86.54 259.16,-87.6"/>
<text text-anchor="start" x="250.65" y="-116.83" font-family="Times New Roman,serif" font-size="14.00" fill="darkmagenta">114,114</text>
</g>
<!-- 3&#45;&gt;2 -->
<g id="edge4" class="edge">
<title>3&#45;&gt;2</title>
<path fill="none" stroke="blue" d="M160.09,-76.63C186.51,-86.75 214.49,-98.33 218.72,-103.43 227.42,-113.93 231.12,-128.51 232.56,-141.34"/>
<polygon fill="blue" stroke="blue" points="229.04,-141.22 233.22,-150.96 236.02,-140.74 229.04,-141.22"/>
<text text-anchor="start" x="205.7" y="-82.28" font-family="Times New Roman,serif" font-size="14.00" fill="darkmagenta">228,228</text>
</g>
</g>
</svg>
