<?xml version="1.0" encoding="UTF-8" standalone="no"?>
<!DOCTYPE svg PUBLIC "-//W3C//DTD SVG 1.1//EN"
 "http://www.w3.org/Graphics/SVG/1.1/DTD/svg11.dtd">
<!-- Generated by graphviz version 10.0.1 (20240210.2158)
 -->
<!-- Title: clusters_multiply2_split Pages: 1 -->
<svg width="625pt" height="756pt"
 viewBox="0.00 0.00 625.32 755.84" xmlns="http://www.w3.org/2000/svg" xmlns:xlink="http://www.w3.org/1999/xlink">
<g id="graph0" class="graph" transform="scale(1 1) rotate(0) translate(4 751.84)">
<title>clusters_multiply2_split</title>
<polygon fill="white" stroke="none" points="-4,4 -4,-751.84 621.32,-751.84 621.32,4 -4,4"/>
<text text-anchor="middle" x="308.66" y="-6.45" font-family="Times New Roman,serif" font-size="14.00">s_multiply2_split</text>
<!-- 1 -->
<g id="node1" class="node">
<title>1</title>
<ellipse fill="none" stroke="black" cx="363.22" cy="-670.75" rx="227.69" ry="61.34"/>
<text text-anchor="middle" x="363.22" y="-665.33" font-family="Times New Roman,serif" font-size="14.00">1. rxy = 0</text>
<text text-anchor="start" x="91.28" y="-718.79" font-family="Times New Roman,serif" font-size="14.00" fill="darkorange">114,114</text>
</g>
<!-- 2 -->
<g id="node2" class="node">
<title>2</title>
<ellipse fill="none" stroke="black" cx="363.22" cy="-554.41" rx="97.97" ry="18"/>
<text text-anchor="middle" x="363.22" y="-548.99" font-family="Times New Roman,serif" font-size="14.00">2. for j in range(abs(z)):</text>
<text text-anchor="start" x="221" y="-559.11" font-family="Times New Roman,serif" font-size="14.00" fill="darkorange">278,321</text>
</g>
<!-- 1&#45;&gt;2 -->
<g id="edge1" class="edge">
<title>1&#45;&gt;2</title>
<path fill="none" stroke="blue" d="M363.22,-609.24C363.22,-600.38 363.22,-591.63 363.22,-583.84"/>
<polygon fill="blue" stroke="blue" points="366.72,-584.03 363.22,-574.03 359.72,-584.03 366.72,-584.03"/>
<text text-anchor="start" x="318.97" y="-593.07" font-family="Times New Roman,serif" font-size="14.00" fill="darkmagenta">114,114</text>
</g>
<!-- 3 -->
<g id="node3" class="node">
<title>3</title>
<ellipse fill="none" stroke="black" cx="93.22" cy="-351.89" rx="48.97" ry="27.93"/>
<text text-anchor="middle" x="93.22" y="-346.46" font-family="Times New Roman,serif" font-size="14.00">3. if z &gt;= 0:</text>
<text text-anchor="start" x="0" y="-366.52" font-family="Times New Roman,serif" font-size="14.00" fill="darkorange">164,207</text>
</g>
<!-- 2&#45;&gt;3 -->
<g id="edge2" class="edge">
<title>2&#45;&gt;3</title>
<path fill="none" stroke="blue" stroke-width="5" d="M295.86,-541C249.91,-529.4 190.49,-507.8 151.22,-468.91 130.58,-448.47 116.01,-419.17 106.64,-395.13"/>
<polygon fill="blue" stroke="blue" stroke-width="5" points="110.75,-393.64 103.22,-385.73 102.53,-396.63 110.75,-393.64"/>
<text text-anchor="middle" x="276.47" y="-505.11" font-family="Times New Roman,serif" font-size="14.00">&quot;range(abs(z))&quot;</text>
<text text-anchor="middle" x="276.47" y="-489.36" font-family="Times New Roman,serif" font-size="14.00">c[8]:(164,207) 0.77</text>
<text text-anchor="start" x="106.96" y="-471.36" font-family="Times New Roman,serif" font-size="14.00" fill="darkmagenta">164,207</text>
</g>
<!-- 4 -->
<g id="node4" class="node">
<title>4</title>
<ellipse fill="none" stroke="black" cx="363.22" cy="-351.89" rx="203.29" ry="117.03"/>
<text text-anchor="middle" x="363.22" y="-417.34" font-family="Times New Roman,serif" font-size="14.00">4. print(&#39;multiply done&#39;, rxyz)</text>
<text text-anchor="middle" x="363.22" y="-401.59" font-family="Times New Roman,serif" font-size="14.00">power_result = power(rxyz, 2)</text>
<text text-anchor="middle" x="363.22" y="-385.84" font-family="Times New Roman,serif" font-size="14.00">print(&#39;Power result:&#39;, power_result)</text>
<text text-anchor="middle" x="363.22" y="-370.09" font-family="Times New Roman,serif" font-size="14.00">distance = euclidean_distance((x, y), (rxy, rxyz))</text>
<text text-anchor="middle" x="363.22" y="-354.34" font-family="Times New Roman,serif" font-size="14.00">print(&#39;Euclidean distance:&#39;, distance)</text>
<text text-anchor="middle" x="363.22" y="-338.59" font-family="Times New Roman,serif" font-size="14.00">fact_result = factorial(abs(rxyz))</text>
<text text-anchor="middle" x="363.22" y="-322.84" font-family="Times New Roman,serif" font-size="14.00">print(&#39;Factorial result:&#39;, fact_result)</text>
<text text-anchor="middle" x="363.22" y="-307.09" font-family="Times New Roman,serif" font-size="14.00">fib_result = fibonacci(abs(rxy))</text>
<text text-anchor="middle" x="363.22" y="-291.34" font-family="Times New Roman,serif" font-size="14.00">print(&#39;Fibonacci result:&#39;, fib_result)</text>
<text text-anchor="middle" x="363.22" y="-275.59" font-family="Times New Roman,serif" font-size="14.00">return rxyz</text>
<text text-anchor="start" x="159.92" y="-455.61" font-family="Times New Roman,serif" font-size="14.00" fill="darkorange">114,114</text>
</g>
<!-- 2&#45;&gt;4 -->
<g id="edge3" class="edge">
<title>2&#45;&gt;4</title>
<path fill="none" stroke="blue" d="M363.22,-535.97C363.22,-522.44 363.22,-502.33 363.22,-480.33"/>
<polygon fill="blue" stroke="blue" points="366.72,-480.56 363.22,-470.56 359.72,-480.56 366.72,-480.56"/>
<text text-anchor="start" x="363.22" y="-505.08" font-family="Times New Roman,serif" font-size="14.00" fill="darkmagenta">114,114</text>
</g>
<!-- 5 -->
<g id="node5" class="node">
<title>5</title>
<ellipse fill="none" stroke="black" cx="93.22" cy="-139.43" rx="48.97" ry="27.93"/>
<text text-anchor="middle" x="93.22" y="-134.01" font-family="Times New Roman,serif" font-size="14.00">5. if z &lt; 0:</text>
<text text-anchor="start" x="13.5" y="-154.06" font-family="Times New Roman,serif" font-size="14.00" fill="darkorange">36,63</text>
</g>
<!-- 3&#45;&gt;5 -->
<g id="edge4" class="edge">
<title>3&#45;&gt;5</title>
<path fill="none" stroke="blue" stroke-width="3.86" d="M93.22,-323.8C93.22,-288.31 93.22,-225.63 93.22,-183.56"/>
<polygon fill="blue" stroke="blue" stroke-width="3.86" points="96.72,-183.58 93.22,-173.58 89.72,-183.58 96.72,-183.58"/>
<text text-anchor="middle" x="139.72" y="-203.56" font-family="Times New Roman,serif" font-size="14.00">&quot;z &gt;= 0&quot;</text>
<text text-anchor="middle" x="139.72" y="-187.81" font-family="Times New Roman,serif" font-size="14.00">c[9]:(36,63) 0.55</text>
<text text-anchor="start" x="62.47" y="-248.46" font-family="Times New Roman,serif" font-size="14.00" fill="darkmagenta">36,63</text>
</g>
<!-- 7 -->
<g id="node6" class="node">
<title>7</title>
<ellipse fill="none" stroke="black" cx="215.22" cy="-139.43" rx="55.33" ry="27.93"/>
<text text-anchor="middle" x="215.22" y="-134.01" font-family="Times New Roman,serif" font-size="14.00">7. rxyz &#45;= rxy</text>
<text text-anchor="start" x="115.64" y="-154.06" font-family="Times New Roman,serif" font-size="14.00" fill="darkorange">128,144</text>
</g>
<!-- 3&#45;&gt;7 -->
<g id="edge5" class="edge">
<title>3&#45;&gt;7</title>
<path fill="none" stroke="blue" stroke-width="4.38" d="M100.81,-324.27C109.36,-298.51 125.51,-259.78 151.22,-234.86 164.92,-221.57 177.53,-231.12 190.22,-216.86 198.67,-207.36 204.27,-194.95 207.98,-182.89"/>
<polygon fill="blue" stroke="blue" stroke-width="4.38" points="211.63,-184.1 210.36,-173.46 204.2,-182.23 211.63,-184.1"/>
<text text-anchor="middle" x="263.84" y="-203.56" font-family="Times New Roman,serif" font-size="14.00">&quot;(z &lt; 0)&quot;</text>
<text text-anchor="middle" x="263.84" y="-187.81" font-family="Times New Roman,serif" font-size="14.00">c[11]:(128,144) 0.65</text>
<text text-anchor="start" x="107.01" y="-237.27" font-family="Times New Roman,serif" font-size="14.00" fill="darkmagenta">128,144</text>
</g>
<!-- 6 -->
<g id="node7" class="node">
<title>6</title>
<ellipse fill="none" stroke="black" cx="215.22" cy="-41.75" rx="88.49" ry="18"/>
<text text-anchor="middle" x="215.22" y="-36.33" font-family="Times New Roman,serif" font-size="14.00">6. print(&#39;rxyz: &#39;, rxyz)</text>
<text text-anchor="start" x="82.48" y="-46.45" font-family="Times New Roman,serif" font-size="14.00" fill="darkorange">164,207</text>
</g>
<!-- 5&#45;&gt;6 -->
<g id="edge6" class="edge">
<title>5&#45;&gt;6</title>
<path fill="none" stroke="blue" d="M119.53,-115.4C133.04,-103.82 149.89,-89.74 165.47,-77.75 170.61,-73.79 176.16,-69.71 181.61,-65.8"/>
<polygon fill="blue" stroke="blue" points="183.24,-68.94 189.39,-60.3 179.2,-63.22 183.24,-68.94"/>
<text text-anchor="middle" x="189.09" y="-80.2" font-family="Times New Roman,serif" font-size="14.00">(z &gt;= 0)</text>
<text text-anchor="start" x="123.61" y="-88.91" font-family="Times New Roman,serif" font-size="14.00" fill="darkmagenta">36,63</text>
</g>
<!-- 7&#45;&gt;6 -->
<g id="edge8" class="edge">
<title>7&#45;&gt;6</title>
<path fill="none" stroke="blue" d="M215.22,-111.01C215.22,-98.63 215.22,-83.99 215.22,-71.45"/>
<polygon fill="blue" stroke="blue" points="218.72,-71.73 215.22,-61.73 211.72,-71.73 218.72,-71.73"/>
<text text-anchor="start" x="215.22" y="-88.03" font-family="Times New Roman,serif" font-size="14.00" fill="darkmagenta">128,144</text>
</g>
<!-- 6&#45;&gt;2 -->
<g id="edge7" class="edge">
<title>6&#45;&gt;2</title>
<path fill="none" stroke="blue" d="M276.34,-55.09C360.81,-75.8 510.17,-126.42 575.22,-234.86 628.73,-324.07 633.59,-382.81 575.22,-468.91 548.11,-508.9 498.74,-529.96 454.46,-541.06"/>
<polygon fill="blue" stroke="blue" points="453.74,-537.63 444.8,-543.33 455.34,-544.45 453.74,-537.63"/>
<text text-anchor="start" x="418.03" y="-130.75" font-family="Times New Roman,serif" font-size="14.00" fill="darkmagenta">164,207</text>
</g>
</g>
</svg>
