<?xml version="1.0" encoding="UTF-8" standalone="no"?>
<!DOCTYPE svg PUBLIC "-//W3C//DTD SVG 1.1//EN"
 "http://www.w3.org/Graphics/SVG/1.1/DTD/svg11.dtd">
<!-- Generated by graphviz version 10.0.1 (20240210.2158)
 -->
<!-- Title: clusterlist_to_hex Pages: 1 -->
<svg width="607pt" height="404pt"
 viewBox="0.00 0.00 607.18 403.58" xmlns="http://www.w3.org/2000/svg" xmlns:xlink="http://www.w3.org/1999/xlink">
<g id="graph0" class="graph" transform="scale(1 1) rotate(0) translate(4 399.58)">
<title>clusterlist_to_hex</title>
<polygon fill="white" stroke="none" points="-4,4 -4,-399.58 603.18,-399.58 603.18,4 -4,4"/>
<text text-anchor="middle" x="299.59" y="-5.75" font-family="Times New Roman,serif" font-size="10.00">list_to_hex</text>
<!-- 1 -->
<g id="node1" class="node">
<title>1</title>
<ellipse fill="none" stroke="black" cx="305.84" cy="-356.4" rx="54.27" ry="27.93"/>
<text text-anchor="middle" x="305.84" y="-352.53" font-family="Times New Roman,serif" font-size="10.00">1. results = []</text>
<text text-anchor="start" x="231.32" y="-374.83" font-family="Times New Roman,serif" font-size="10.00" fill="darkorange">11,11</text>
</g>
<!-- 2 -->
<g id="node2" class="node">
<title>2</title>
<ellipse fill="none" stroke="black" cx="305.84" cy="-273.47" rx="106.95" ry="18"/>
<text text-anchor="middle" x="305.84" y="-269.6" font-family="Times New Roman,serif" font-size="10.00">2. for num in decimal_nums:</text>
<text text-anchor="start" x="178.64" y="-281.97" font-family="Times New Roman,serif" font-size="10.00" fill="darkorange">55,55</text>
</g>
<!-- 1&#45;&gt;2 -->
<g id="edge1" class="edge">
<title>1&#45;&gt;2</title>
<path fill="none" stroke="blue" d="M305.84,-328C305.84,-320.09 305.84,-311.42 305.84,-303.41"/>
<polygon fill="blue" stroke="blue" points="309.34,-303.46 305.84,-293.46 302.34,-303.46 309.34,-303.46"/>
<text text-anchor="start" x="269.84" y="-302.69" font-family="Times New Roman,serif" font-size="8.00" fill="darkmagenta"> &#160;&#160;&#160;&#160;11,11 &#160;</text>
</g>
<!-- 3 -->
<g id="node3" class="node">
<title>3</title>
<ellipse fill="none" stroke="black" cx="383.84" cy="-170.54" rx="78.67" ry="27.93"/>
<text text-anchor="middle" x="383.84" y="-166.67" font-family="Times New Roman,serif" font-size="10.00">3. if num % 2 == 0:</text>
<text text-anchor="start" x="284.93" y="-188.97" font-family="Times New Roman,serif" font-size="10.00" fill="darkorange">44,44</text>
</g>
<!-- 2&#45;&gt;3 -->
<g id="edge2" class="edge">
<title>2&#45;&gt;3</title>
<path fill="none" stroke="blue" d="M319.07,-255.35C329.34,-242.06 343.93,-223.19 356.65,-206.72"/>
<polygon fill="blue" stroke="blue" points="359.22,-209.12 362.57,-199.07 353.69,-204.84 359.22,-209.12"/>
<text text-anchor="middle" x="371.22" y="-229.87" font-family="Times New Roman,serif" font-size="8.00">decimal_nums</text>
<text text-anchor="middle" x="371.22" y="-219.37" font-family="Times New Roman,serif" font-size="8.00">c[3]</text>
<text text-anchor="start" x="305.26" y="-219.05" font-family="Times New Roman,serif" font-size="8.00" fill="darkmagenta"> &#160;&#160;&#160;&#160;44,44 &#160;</text>
</g>
<!-- 4 -->
<g id="node4" class="node">
<title>4</title>
<ellipse fill="none" stroke="black" cx="228.84" cy="-170.54" rx="58.55" ry="18"/>
<text text-anchor="middle" x="228.84" y="-166.67" font-family="Times New Roman,serif" font-size="10.00">4. return results</text>
<text text-anchor="start" x="150.04" y="-143.04" font-family="Times New Roman,serif" font-size="10.00" fill="darkorange">11,11</text>
</g>
<!-- 2&#45;&gt;4 -->
<g id="edge3" class="edge">
<title>2&#45;&gt;4</title>
<path fill="none" stroke="blue" d="M292.78,-255.35C280.65,-239.45 262.42,-215.56 248.53,-197.34"/>
<polygon fill="blue" stroke="blue" points="251.48,-195.44 242.63,-189.61 245.91,-199.69 251.48,-195.44"/>
<text text-anchor="start" x="231.28" y="-214.32" font-family="Times New Roman,serif" font-size="8.00" fill="darkmagenta"> &#160;&#160;&#160;&#160;11,11 &#160;</text>
</g>
<!-- 5 -->
<g id="node5" class="node">
<title>5</title>
<ellipse fill="none" stroke="black" cx="158.84" cy="-47.18" rx="138.59" ry="27.93"/>
<text text-anchor="middle" x="158.84" y="-43.31" font-family="Times New Roman,serif" font-size="10.00">5. results.append(to_hex(num &#45; 1))</text>
<text text-anchor="start" x="0" y="-65.61" font-family="Times New Roman,serif" font-size="10.00" fill="darkorange">26,43</text>
</g>
<!-- 3&#45;&gt;5 -->
<g id="edge4" class="edge">
<title>3&#45;&gt;5</title>
<path fill="none" stroke="blue" stroke-width="5" d="M341.52,-146.71C307.43,-128.33 259.03,-102.22 220.61,-81.5"/>
<polygon fill="blue" stroke="blue" stroke-width="5" points="222.79,-77.7 211.92,-76.81 218.64,-85.41 222.79,-77.7"/>
<text text-anchor="middle" x="326.97" y="-117.01" font-family="Times New Roman,serif" font-size="8.00">&quot;num % 2 == 0&quot;</text>
<text text-anchor="middle" x="326.97" y="-106.51" font-family="Times New Roman,serif" font-size="8.00">c[4]</text>
<text text-anchor="middle" x="326.97" y="-96.01" font-family="Times New Roman,serif" font-size="8.00"> &#160;Score: 0.67</text>
<text text-anchor="start" x="238.24" y="-102.82" font-family="Times New Roman,serif" font-size="8.00" fill="darkmagenta"> &#160;&#160;&#160;&#160;26,43 &#160;</text>
</g>
<!-- 7 -->
<g id="node6" class="node">
<title>7</title>
<ellipse fill="none" stroke="black" cx="473.84" cy="-47.18" rx="125.33" ry="27.93"/>
<text text-anchor="middle" x="473.84" y="-43.31" font-family="Times New Roman,serif" font-size="10.00">7. results.append(to_hex(num))</text>
<text text-anchor="start" x="332.76" y="-65.61" font-family="Times New Roman,serif" font-size="10.00" fill="darkorange">18,1</text>
</g>
<!-- 3&#45;&gt;7 -->
<g id="edge5" class="edge">
<title>3&#45;&gt;7</title>
<path fill="none" stroke="blue" d="M391.55,-142.3C396.81,-126.84 404.87,-107.74 416.09,-93.11 419.13,-89.15 422.6,-85.34 426.29,-81.74"/>
<polygon fill="blue" stroke="blue" points="428.45,-84.51 433.54,-75.21 423.77,-79.31 428.45,-84.51"/>
<text text-anchor="middle" x="446.22" y="-111.76" font-family="Times New Roman,serif" font-size="8.00">&quot;(num % 2 != 0)&quot;</text>
<text text-anchor="middle" x="446.22" y="-101.26" font-family="Times New Roman,serif" font-size="8.00">c[5]</text>
<text text-anchor="start" x="376.54" y="-97.58" font-family="Times New Roman,serif" font-size="8.00" fill="darkmagenta"> &#160;&#160;&#160;&#160;18,1 &#160;</text>
</g>
<!-- 5&#45;&gt;2 -->
<g id="edge6" class="edge">
<title>5&#45;&gt;2</title>
<path fill="none" stroke="blue" d="M151.31,-75.48C144.15,-107.52 137.56,-161.02 160.84,-198.47 177.58,-225.4 207.49,-242.93 235.81,-254.14"/>
<polygon fill="blue" stroke="blue" points="234.54,-257.4 245.14,-257.61 236.98,-250.84 234.54,-257.4"/>
<text text-anchor="start" x="124.86" y="-190.89" font-family="Times New Roman,serif" font-size="8.00" fill="darkmagenta"> &#160;&#160;&#160;&#160;26,43 &#160;</text>
</g>
<!-- 7&#45;&gt;2 -->
<g id="edge7" class="edge">
<title>7&#45;&gt;2</title>
<path fill="none" stroke="blue" d="M481.5,-75.32C488.87,-107.44 495.75,-161.26 471.84,-198.47 453,-227.81 419.49,-245.61 387.49,-256.36"/>
<polygon fill="blue" stroke="blue" points="386.65,-252.96 378.16,-259.29 388.75,-259.64 386.65,-252.96"/>
<text text-anchor="start" x="440.32" y="-190.92" font-family="Times New Roman,serif" font-size="8.00" fill="darkmagenta"> &#160;&#160;&#160;&#160;18,1 &#160;</text>
</g>
</g>
</svg>
