<?xml version="1.0" encoding="UTF-8" standalone="no"?>
<!DOCTYPE svg PUBLIC "-//W3C//DTD SVG 1.1//EN"
 "http://www.w3.org/Graphics/SVG/1.1/DTD/svg11.dtd">
<!-- Generated by graphviz version 10.0.1 (20240210.2158)
 -->
<!-- Title: clusterhex_conversion Pages: 1 -->
<svg width="565pt" height="393pt"
 viewBox="0.00 0.00 564.82 393.08" xmlns="http://www.w3.org/2000/svg" xmlns:xlink="http://www.w3.org/1999/xlink">
<g id="graph0" class="graph" transform="scale(1 1) rotate(0) translate(4 389.08)">
<title>clusterhex_conversion</title>
<polygon fill="white" stroke="none" points="-4,4 -4,-389.08 560.82,-389.08 560.82,4 -4,4"/>
<text text-anchor="middle" x="278.41" y="-5.75" font-family="Times New Roman,serif" font-size="10.00">hex_conversion</text>
<!-- 1 -->
<g id="node1" class="node">
<title>1</title>
<ellipse fill="none" stroke="black" cx="398.73" cy="-345.9" rx="90.33" ry="27.93"/>
<text text-anchor="middle" x="398.73" y="-342.03" font-family="Times New Roman,serif" font-size="10.00">1. validated_nums = []</text>
<text text-anchor="start" x="288.15" y="-364.33" font-family="Times New Roman,serif" font-size="10.00" fill="darkorange">11,11</text>
</g>
<!-- 2 -->
<g id="node2" class="node">
<title>2</title>
<ellipse fill="none" stroke="black" cx="398.73" cy="-262.97" rx="106.95" ry="18"/>
<text text-anchor="middle" x="398.73" y="-259.1" font-family="Times New Roman,serif" font-size="10.00">2. for num in decimal_nums:</text>
<text text-anchor="start" x="271.53" y="-271.47" font-family="Times New Roman,serif" font-size="10.00" fill="darkorange">55,55</text>
</g>
<!-- 1&#45;&gt;2 -->
<g id="edge1" class="edge">
<title>1&#45;&gt;2</title>
<path fill="none" stroke="blue" d="M398.73,-317.5C398.73,-309.59 398.73,-300.92 398.73,-292.91"/>
<polygon fill="blue" stroke="blue" points="402.23,-292.96 398.73,-282.96 395.23,-292.96 402.23,-292.96"/>
<text text-anchor="start" x="362.73" y="-292.19" font-family="Times New Roman,serif" font-size="8.00" fill="darkmagenta"> &#160;&#160;&#160;&#160;11,11 &#160;</text>
</g>
<!-- 3 -->
<g id="node3" class="node">
<title>3</title>
<ellipse fill="none" stroke="black" cx="130.73" cy="-160.04" rx="110.48" ry="27.93"/>
<text text-anchor="middle" x="130.73" y="-156.17" font-family="Times New Roman,serif" font-size="10.00">3. if 0 &lt;= num &lt;= 1000000:</text>
<text text-anchor="start" x="0" y="-178.47" font-family="Times New Roman,serif" font-size="10.00" fill="darkorange">44,44</text>
</g>
<!-- 2&#45;&gt;3 -->
<g id="edge2" class="edge">
<title>2&#45;&gt;3</title>
<path fill="none" stroke="blue" d="M356.27,-245.98C314.81,-230.37 250.96,-206.32 201.77,-187.79"/>
<polygon fill="blue" stroke="blue" points="203.2,-184.59 192.6,-184.34 200.73,-191.14 203.2,-184.59"/>
<text text-anchor="middle" x="329.11" y="-219.37" font-family="Times New Roman,serif" font-size="8.00">decimal_nums</text>
<text text-anchor="middle" x="329.11" y="-208.87" font-family="Times New Roman,serif" font-size="8.00">c[6]</text>
<text text-anchor="start" x="237.58" y="-207.24" font-family="Times New Roman,serif" font-size="8.00" fill="darkmagenta"> &#160;&#160;&#160;&#160;44,44 &#160;</text>
</g>
<!-- 4 -->
<g id="node4" class="node">
<title>4</title>
<ellipse fill="none" stroke="black" cx="398.73" cy="-160.04" rx="139.38" ry="18"/>
<text text-anchor="middle" x="398.73" y="-156.17" font-family="Times New Roman,serif" font-size="10.00">4. return list_to_hex(validated_nums)</text>
<text text-anchor="start" x="259.35" y="-168.54" font-family="Times New Roman,serif" font-size="10.00" fill="darkorange">11,11</text>
</g>
<!-- 2&#45;&gt;4 -->
<g id="edge3" class="edge">
<title>2&#45;&gt;4</title>
<path fill="none" stroke="blue" d="M398.73,-244.85C398.73,-229.77 398.73,-207.5 398.73,-189.71"/>
<polygon fill="blue" stroke="blue" points="402.23,-189.76 398.73,-179.76 395.23,-189.76 402.23,-189.76"/>
<text text-anchor="start" x="362.73" y="-203.86" font-family="Times New Roman,serif" font-size="8.00" fill="darkmagenta"> &#160;&#160;&#160;&#160;11,11 &#160;</text>
</g>
<!-- 5 -->
<g id="node5" class="node">
<title>5</title>
<ellipse fill="none" stroke="black" cx="347.73" cy="-47.18" rx="127.99" ry="27.93"/>
<text text-anchor="middle" x="347.73" y="-43.31" font-family="Times New Roman,serif" font-size="10.00">5. validated_nums.append(num)</text>
<text text-anchor="start" x="199.5" y="-65.61" font-family="Times New Roman,serif" font-size="10.00" fill="darkorange">44,44</text>
</g>
<!-- 3&#45;&gt;5 -->
<g id="edge4" class="edge">
<title>3&#45;&gt;5</title>
<path fill="none" stroke="blue" d="M178.89,-134.44C211.28,-117.89 254.19,-95.97 288.64,-78.37"/>
<polygon fill="blue" stroke="blue" points="289.92,-81.65 297.23,-73.98 286.74,-75.41 289.92,-81.65"/>
<text text-anchor="middle" x="301.48" y="-106.51" font-family="Times New Roman,serif" font-size="8.00">&quot;0 &lt;= num &lt;= 1000000&quot;</text>
<text text-anchor="middle" x="301.48" y="-96.01" font-family="Times New Roman,serif" font-size="8.00">c[7]</text>
<text text-anchor="start" x="202.81" y="-96.23" font-family="Times New Roman,serif" font-size="8.00" fill="darkmagenta"> &#160;&#160;&#160;&#160;44,44 &#160;</text>
</g>
<!-- 5&#45;&gt;2 -->
<g id="edge5" class="edge">
<title>5&#45;&gt;2</title>
<path fill="none" stroke="blue" d="M445.83,-65.4C483.98,-77.41 523.93,-97.74 546.73,-132.11 560.46,-152.8 559.79,-166.85 546.73,-187.97 529.85,-215.29 499.5,-232.86 470.66,-243.98"/>
<polygon fill="blue" stroke="blue" points="469.76,-240.59 461.55,-247.28 472.14,-247.17 469.76,-240.59"/>
<text text-anchor="start" x="455.95" y="-76.94" font-family="Times New Roman,serif" font-size="8.00" fill="darkmagenta"> &#160;&#160;&#160;&#160;44,44 &#160;</text>
</g>
</g>
</svg>
