<?xml version="1.0" encoding="UTF-8" standalone="no"?>
<!DOCTYPE svg PUBLIC "-//W3C//DTD SVG 1.1//EN"
 "http://www.w3.org/Graphics/SVG/1.1/DTD/svg11.dtd">
<!-- Generated by graphviz version 10.0.1 (20240210.2158)
 -->
<!-- Title: clusterto_hex Pages: 1 -->
<svg width="479pt" height="418pt"
 viewBox="0.00 0.00 479.17 417.77" xmlns="http://www.w3.org/2000/svg" xmlns:xlink="http://www.w3.org/1999/xlink">
<g id="graph0" class="graph" transform="scale(1 1) rotate(0) translate(4 413.77)">
<title>clusterto_hex</title>
<polygon fill="white" stroke="none" points="-4,4 -4,-413.77 475.17,-413.77 475.17,4 -4,4"/>
<text text-anchor="middle" x="235.59" y="-5.75" font-family="Times New Roman,serif" font-size="10.00">to_hex</text>
<!-- 1 -->
<g id="node1" class="node">
<title>1</title>
<ellipse fill="none" stroke="black" cx="236.13" cy="-370.59" rx="48.97" ry="27.93"/>
<text text-anchor="middle" x="236.13" y="-366.72" font-family="Times New Roman,serif" font-size="10.00">1. if n == 0:</text>
<text text-anchor="start" x="166.91" y="-389.02" font-family="Times New Roman,serif" font-size="10.00" fill="darkorange">44,44</text>
</g>
<!-- 3 -->
<g id="node2" class="node">
<title>3</title>
<ellipse fill="none" stroke="black" cx="236.13" cy="-278.16" rx="52.56" ry="18"/>
<text text-anchor="middle" x="236.13" y="-274.29" font-family="Times New Roman,serif" font-size="10.00">3. hex_str = &#39;&#39;</text>
<text text-anchor="start" x="163.32" y="-286.66" font-family="Times New Roman,serif" font-size="10.00" fill="darkorange">44,44</text>
</g>
<!-- 1&#45;&gt;3 -->
<g id="edge1" class="edge">
<title>1&#45;&gt;3</title>
<path fill="none" stroke="blue" d="M236.13,-342.46C236.13,-331.53 236.13,-318.92 236.13,-307.84"/>
<polygon fill="blue" stroke="blue" points="239.63,-308.09 236.13,-298.09 232.63,-308.09 239.63,-308.09"/>
<text text-anchor="middle" x="249.63" y="-317.06" font-family="Times New Roman,serif" font-size="8.00">(n != 0)</text>
<text text-anchor="start" x="200.13" y="-312.08" font-family="Times New Roman,serif" font-size="8.00" fill="darkmagenta"> &#160;&#160;&#160;&#160;44,44 &#160;</text>
</g>
<!-- 5 -->
<g id="node3" class="node">
<title>5</title>
<ellipse fill="none" stroke="black" cx="236.13" cy="-205.16" rx="53.56" ry="18"/>
<text text-anchor="middle" x="236.13" y="-201.29" font-family="Times New Roman,serif" font-size="10.00">5. while n &gt; 0:</text>
<text text-anchor="start" x="153.32" y="-213.66" font-family="Times New Roman,serif" font-size="10.00" fill="darkorange">117,150</text>
</g>
<!-- 3&#45;&gt;5 -->
<g id="edge2" class="edge">
<title>3&#45;&gt;5</title>
<path fill="none" stroke="blue" d="M236.13,-259.97C236.13,-252.39 236.13,-243.26 236.13,-234.7"/>
<polygon fill="blue" stroke="blue" points="239.63,-234.7 236.13,-224.7 232.63,-234.7 239.63,-234.7"/>
<text text-anchor="start" x="200.13" y="-234" font-family="Times New Roman,serif" font-size="8.00" fill="darkmagenta"> &#160;&#160;&#160;&#160;44,44 &#160;</text>
</g>
<!-- 6 -->
<g id="node4" class="node">
<title>6</title>
<ellipse fill="none" stroke="black" cx="177.13" cy="-69.46" rx="152.38" ry="50.21"/>
<text text-anchor="middle" x="177.13" y="-76.83" font-family="Times New Roman,serif" font-size="10.00">6. x = n % 16</text>
<text text-anchor="middle" x="177.13" y="-65.58" font-family="Times New Roman,serif" font-size="10.00">hex_str = to_hex_digit(x) + hex_str</text>
<text text-anchor="middle" x="177.13" y="-54.33" font-family="Times New Roman,serif" font-size="10.00">n = n // 16</text>
<text text-anchor="start" x="0" y="-110.16" font-family="Times New Roman,serif" font-size="10.00" fill="darkorange">73,106</text>
</g>
<!-- 5&#45;&gt;6 -->
<g id="edge3" class="edge">
<title>5&#45;&gt;6</title>
<path fill="none" stroke="blue" stroke-width="5" d="M202.14,-190.96C192.9,-185.64 183.97,-178.49 178.63,-169.16 172.93,-159.2 170.11,-147.7 169.06,-136.15"/>
<polygon fill="blue" stroke="blue" stroke-width="5" points="173.43,-136.04 168.79,-126.16 164.68,-136.28 173.43,-136.04"/>
<text text-anchor="middle" x="200.88" y="-161.56" font-family="Times New Roman,serif" font-size="8.00">&quot;n &gt; 0&quot;</text>
<text text-anchor="middle" x="200.88" y="-151.06" font-family="Times New Roman,serif" font-size="8.00">c[2]</text>
<text text-anchor="middle" x="200.88" y="-140.56" font-family="Times New Roman,serif" font-size="8.00"> &#160;Score: 0.53</text>
<text text-anchor="start" x="133.79" y="-152.32" font-family="Times New Roman,serif" font-size="8.00" fill="darkmagenta"> &#160;&#160;&#160;&#160;73,106 &#160;</text>
</g>
<!-- 7 -->
<g id="node5" class="node">
<title>7</title>
<ellipse fill="none" stroke="black" cx="409.13" cy="-69.46" rx="62.04" ry="18"/>
<text text-anchor="middle" x="409.13" y="-65.58" font-family="Times New Roman,serif" font-size="10.00">7. return hex_str</text>
<text text-anchor="start" x="347.09" y="-77.96" font-family="Times New Roman,serif" font-size="10.00" fill="darkorange">44,44</text>
</g>
<!-- 5&#45;&gt;7 -->
<g id="edge4" class="edge">
<title>5&#45;&gt;7</title>
<path fill="none" stroke="blue" d="M256.66,-188.3C287.06,-164.8 344.22,-120.62 379.26,-93.54"/>
<polygon fill="blue" stroke="blue" points="381.12,-96.52 386.9,-87.64 376.84,-90.99 381.12,-96.52"/>
<text text-anchor="middle" x="331.38" y="-151.06" font-family="Times New Roman,serif" font-size="8.00">(n &lt;= 0)</text>
<text text-anchor="start" x="286.29" y="-129.98" font-family="Times New Roman,serif" font-size="8.00" fill="darkmagenta"> &#160;&#160;&#160;&#160;44,44 &#160;</text>
</g>
<!-- 6&#45;&gt;5 -->
<g id="edge5" class="edge">
<title>6&#45;&gt;5</title>
<path fill="none" stroke="blue" d="M212.36,-118.4C216.03,-124.68 219.4,-131.19 222.13,-137.66 227.18,-149.65 230.48,-163.64 232.6,-175.7"/>
<polygon fill="blue" stroke="blue" points="229.12,-176.11 234.11,-185.46 236.04,-175.04 229.12,-176.11"/>
<text text-anchor="start" x="227.01" y="-143.88" font-family="Times New Roman,serif" font-size="8.00" fill="darkmagenta"> &#160;&#160;&#160;&#160;73,106 &#160;</text>
</g>
</g>
</svg>
