<?xml version="1.0" encoding="UTF-8" standalone="no"?>
<!DOCTYPE svg PUBLIC "-//W3C//DTD SVG 1.1//EN"
 "http://www.w3.org/Graphics/SVG/1.1/DTD/svg11.dtd">
<!-- Generated by graphviz version 10.0.1 (20240210.2158)
 -->
<!-- Title: clusterto_hex Pages: 1 -->
<svg width="479pt" height="448pt"
 viewBox="0.00 0.00 479.17 448.13" xmlns="http://www.w3.org/2000/svg" xmlns:xlink="http://www.w3.org/1999/xlink">
<g id="graph0" class="graph" transform="scale(1 1) rotate(0) translate(4 444.13)">
<title>clusterto_hex</title>
<polygon fill="white" stroke="none" points="-4,4 -4,-444.13 475.17,-444.13 475.17,4 -4,4"/>
<text text-anchor="middle" x="235.59" y="-5.75" font-family="Times New Roman,serif" font-size="10.00">to_hex</text>
<!-- 1 -->
<g id="node1" class="node">
<title>1</title>
<ellipse fill="none" stroke="black" cx="142.13" cy="-400.95" rx="48.97" ry="27.93"/>
<text text-anchor="middle" x="142.13" y="-397.08" font-family="Times New Roman,serif" font-size="10.00">1. if n == 0:</text>
<text text-anchor="start" x="72.91" y="-419.38" font-family="Times New Roman,serif" font-size="10.00" fill="darkorange">44,44</text>
</g>
<!-- 2 -->
<g id="node2" class="node">
<title>2</title>
<ellipse fill="none" stroke="black" cx="116.13" cy="-288.09" rx="48.97" ry="27.93"/>
<text text-anchor="middle" x="116.13" y="-284.22" font-family="Times New Roman,serif" font-size="10.00">2. return &#39;0&#39;</text>
<text text-anchor="start" x="55.91" y="-306.52" font-family="Times New Roman,serif" font-size="10.00" fill="darkorange">0,0</text>
</g>
<!-- 1&#45;&gt;2 -->
<g id="edge1" class="edge">
<title>1&#45;&gt;2</title>
<path fill="none" stroke="black" d="M135.77,-372.83C132.54,-359.04 128.55,-342.05 125.02,-326.99"/>
<polygon fill="black" stroke="black" points="128.46,-326.34 122.77,-317.41 121.65,-327.94 128.46,-326.34"/>
<text text-anchor="middle" x="147.13" y="-347.42" font-family="Times New Roman,serif" font-size="8.00">&quot;n == 0&quot;</text>
<text text-anchor="middle" x="147.13" y="-336.92" font-family="Times New Roman,serif" font-size="8.00">c[1]</text>
<text text-anchor="start" x="102.03" y="-336.51" font-family="Times New Roman,serif" font-size="8.00" fill="darkmagenta"> &#160;&#160;&#160;&#160;0,0 &#160;</text>
</g>
<!-- 3 -->
<g id="node3" class="node">
<title>3</title>
<ellipse fill="none" stroke="black" cx="236.13" cy="-288.09" rx="52.56" ry="18"/>
<text text-anchor="middle" x="236.13" y="-284.22" font-family="Times New Roman,serif" font-size="10.00">3. hex_str = &#39;&#39;</text>
<text text-anchor="start" x="183.57" y="-296.59" font-family="Times New Roman,serif" font-size="10.00" fill="darkorange">44,44</text>
</g>
<!-- 1&#45;&gt;3 -->
<g id="edge2" class="edge">
<title>1&#45;&gt;3</title>
<path fill="none" stroke="blue" d="M162.99,-375.35C178.35,-357.23 199.18,-332.67 214.68,-314.39"/>
<polygon fill="blue" stroke="blue" points="217.25,-316.77 221.05,-306.88 211.91,-312.24 217.25,-316.77"/>
<text text-anchor="middle" x="211.63" y="-342.17" font-family="Times New Roman,serif" font-size="8.00">(n != 0)</text>
<text text-anchor="start" x="165.6" y="-322.33" font-family="Times New Roman,serif" font-size="8.00" fill="darkmagenta"> &#160;&#160;&#160;&#160;44,44 &#160;</text>
</g>
<!-- 5 -->
<g id="node4" class="node">
<title>5</title>
<ellipse fill="none" stroke="black" cx="236.13" cy="-205.16" rx="53.56" ry="18"/>
<text text-anchor="middle" x="236.13" y="-201.29" font-family="Times New Roman,serif" font-size="10.00">5. while n &gt; 0:</text>
<text text-anchor="start" x="153.32" y="-213.66" font-family="Times New Roman,serif" font-size="10.00" fill="darkorange">117,150</text>
</g>
<!-- 3&#45;&gt;5 -->
<g id="edge3" class="edge">
<title>3&#45;&gt;5</title>
<path fill="none" stroke="blue" d="M236.13,-269.93C236.13,-259.8 236.13,-246.73 236.13,-235.05"/>
<polygon fill="blue" stroke="blue" points="239.63,-235.09 236.13,-225.09 232.63,-235.09 239.63,-235.09"/>
<text text-anchor="start" x="200.13" y="-239.24" font-family="Times New Roman,serif" font-size="8.00" fill="darkmagenta"> &#160;&#160;&#160;&#160;44,44 &#160;</text>
</g>
<!-- 6 -->
<g id="node5" class="node">
<title>6</title>
<ellipse fill="none" stroke="black" cx="177.13" cy="-69.46" rx="152.38" ry="50.21"/>
<text text-anchor="middle" x="177.13" y="-76.83" font-family="Times New Roman,serif" font-size="10.00">6. x = n % 16</text>
<text text-anchor="middle" x="177.13" y="-65.58" font-family="Times New Roman,serif" font-size="10.00">hex_str = to_hex_digit(x) + hex_str</text>
<text text-anchor="middle" x="177.13" y="-54.33" font-family="Times New Roman,serif" font-size="10.00">n = n // 16</text>
<text text-anchor="start" x="0" y="-110.16" font-family="Times New Roman,serif" font-size="10.00" fill="darkorange">73,106</text>
</g>
<!-- 5&#45;&gt;6 -->
<g id="edge4" class="edge">
<title>5&#45;&gt;6</title>
<path fill="none" stroke="blue" stroke-width="5" d="M202.14,-190.96C192.9,-185.64 183.97,-178.49 178.63,-169.16 172.93,-159.2 170.11,-147.7 169.06,-136.15"/>
<polygon fill="blue" stroke="blue" stroke-width="5" points="173.43,-136.04 168.79,-126.16 164.68,-136.28 173.43,-136.04"/>
<text text-anchor="middle" x="200.88" y="-161.56" font-family="Times New Roman,serif" font-size="8.00">&quot;n &gt; 0&quot;</text>
<text text-anchor="middle" x="200.88" y="-151.06" font-family="Times New Roman,serif" font-size="8.00">c[2]</text>
<text text-anchor="middle" x="200.88" y="-140.56" font-family="Times New Roman,serif" font-size="8.00"> &#160;Score: 0.53</text>
<text text-anchor="start" x="133.79" y="-152.32" font-family="Times New Roman,serif" font-size="8.00" fill="darkmagenta"> &#160;&#160;&#160;&#160;73,106 &#160;</text>
</g>
<!-- 7 -->
<g id="node6" class="node">
<title>7</title>
<ellipse fill="none" stroke="black" cx="409.13" cy="-69.46" rx="62.04" ry="18"/>
<text text-anchor="middle" x="409.13" y="-65.58" font-family="Times New Roman,serif" font-size="10.00">7. return hex_str</text>
<text text-anchor="start" x="347.09" y="-77.96" font-family="Times New Roman,serif" font-size="10.00" fill="darkorange">44,44</text>
</g>
<!-- 5&#45;&gt;7 -->
<g id="edge5" class="edge">
<title>5&#45;&gt;7</title>
<path fill="none" stroke="blue" d="M256.66,-188.3C287.06,-164.8 344.22,-120.62 379.26,-93.54"/>
<polygon fill="blue" stroke="blue" points="381.12,-96.52 386.9,-87.64 376.84,-90.99 381.12,-96.52"/>
<text text-anchor="middle" x="331.38" y="-151.06" font-family="Times New Roman,serif" font-size="8.00">(n &lt;= 0)</text>
<text text-anchor="start" x="286.29" y="-129.98" font-family="Times New Roman,serif" font-size="8.00" fill="darkmagenta"> &#160;&#160;&#160;&#160;44,44 &#160;</text>
</g>
<!-- 6&#45;&gt;5 -->
<g id="edge6" class="edge">
<title>6&#45;&gt;5</title>
<path fill="none" stroke="blue" d="M212.36,-118.4C216.03,-124.68 219.4,-131.19 222.13,-137.66 227.18,-149.65 230.48,-163.64 232.6,-175.7"/>
<polygon fill="blue" stroke="blue" points="229.12,-176.11 234.11,-185.46 236.04,-175.04 229.12,-176.11"/>
<text text-anchor="start" x="227.01" y="-143.88" font-family="Times New Roman,serif" font-size="8.00" fill="darkmagenta"> &#160;&#160;&#160;&#160;73,106 &#160;</text>
</g>
</g>
</svg>
