<?xml version="1.0" encoding="UTF-8" standalone="no"?>
<!DOCTYPE svg PUBLIC "-//W3C//DTD SVG 1.1//EN"
 "http://www.w3.org/Graphics/SVG/1.1/DTD/svg11.dtd">
<!-- Generated by graphviz version 12.1.0 (20240811.2233)
 -->
<!-- Title: clusterpower Pages: 1 -->
<svg width="1151pt" height="1058pt"
 viewBox="0.00 0.00 1150.56 1058.27" xmlns="http://www.w3.org/2000/svg" xmlns:xlink="http://www.w3.org/1999/xlink">
<g id="graph0" class="graph" transform="scale(1 1) rotate(0) translate(4 1054.27)">
<title>clusterpower</title>
<polygon fill="white" stroke="none" points="-4,4 -4,-1054.27 1146.56,-1054.27 1146.56,4 -4,4"/>
<text text-anchor="middle" x="571.28" y="-7.2" font-family="Times New Roman,serif" font-size="14.00">power</text>
<!-- 1 -->
<g id="node1" class="node">
<title>1</title>
<ellipse fill="none" stroke="black" cx="149.44" cy="-958.11" rx="107.83" ry="75.66"/>
<text text-anchor="middle" x="149.44" y="-986.06" font-family="Times New Roman,serif" font-size="14.00">1. uMinusOne = u &#45; 1</text>
<text text-anchor="middle" x="149.44" y="-969.56" font-family="Times New Roman,serif" font-size="14.00">numerator = uMinusOne</text>
<text text-anchor="middle" x="149.44" y="-953.06" font-family="Times New Roman,serif" font-size="14.00">lnTerm = uMinusOne</text>
<text text-anchor="middle" x="149.44" y="-936.56" font-family="Times New Roman,serif" font-size="14.00">result = uMinusOne</text>
<text text-anchor="middle" x="149.44" y="-920.06" font-family="Times New Roman,serif" font-size="14.00">if v == 0:</text>
<text text-anchor="start" x="10.85" y="-1020.47" font-family="Times New Roman,serif" font-size="14.00" fill="darkorange">64,64</text>
</g>
<!-- 2 -->
<g id="node2" class="node">
<title>2</title>
<ellipse fill="none" stroke="black" cx="72.44" cy="-668.64" rx="48.44" ry="28.99"/>
<text text-anchor="middle" x="72.44" y="-663.59" font-family="Times New Roman,serif" font-size="14.00">2. result = 1</text>
<text text-anchor="start" x="0" y="-684.33" font-family="Times New Roman,serif" font-size="14.00" fill="darkorange">31,5</text>
</g>
<!-- 1&#45;&gt;2 -->
<g id="edge1" class="edge">
<title>1&#45;&gt;2</title>
<path fill="none" stroke="blue" stroke-width="1.6" d="M129.71,-883.45C114.88,-828.1 95.14,-754.4 83.13,-709.57"/>
<polygon fill="blue" stroke="blue" stroke-width="1.6" points="86.56,-708.81 80.59,-700.06 79.79,-710.63 86.56,-708.81"/>
<text text-anchor="middle" x="153.53" y="-851.14" font-family="Times New Roman,serif" font-size="14.00">&quot;v == 0&quot;</text>
<text text-anchor="middle" x="153.53" y="-834.64" font-family="Times New Roman,serif" font-size="14.00">c[1]</text>
<text text-anchor="middle" x="153.53" y="-818.14" font-family="Times New Roman,serif" font-size="14.00"> Score: 0.1</text>
<polygon fill="white" stroke="none" points="67.03,-792.39 67.03,-816.89 102.78,-816.89 102.78,-792.39 67.03,-792.39"/>
<text text-anchor="start" x="71.03" y="-799.59" font-family="Times New Roman,serif" font-size="14.00" fill="darkmagenta">31, 5</text>
</g>
<!-- 4 -->
<g id="node3" class="node">
<title>4</title>
<ellipse fill="none" stroke="black" cx="259.44" cy="-756.29" rx="105.18" ry="40.66"/>
<text text-anchor="middle" x="259.44" y="-759.49" font-family="Times New Roman,serif" font-size="14.00">4. lista = [0, 0]</text>
<text text-anchor="middle" x="259.44" y="-742.99" font-family="Times New Roman,serif" font-size="14.00">if int(v) == v and v &gt; 0:</text>
<text text-anchor="start" x="123.51" y="-783.64" font-family="Times New Roman,serif" font-size="14.00" fill="darkorange">33,59</text>
</g>
<!-- 1&#45;&gt;4 -->
<g id="edge2" class="edge">
<title>1&#45;&gt;4</title>
<path fill="none" stroke="blue" stroke-width="5" d="M187.91,-887.22C201.76,-862.05 217.16,-834.09 230.11,-810.57"/>
<polygon fill="blue" stroke="blue" stroke-width="5" points="233.82,-812.9 234.81,-802.03 226.15,-808.68 233.82,-812.9"/>
<text text-anchor="middle" x="259.93" y="-851.14" font-family="Times New Roman,serif" font-size="14.00">&quot;(v != 0)&quot;</text>
<text text-anchor="middle" x="259.93" y="-834.64" font-family="Times New Roman,serif" font-size="14.00">c[2]</text>
<text text-anchor="middle" x="259.93" y="-818.14" font-family="Times New Roman,serif" font-size="14.00"> Score: 0.67</text>
<polygon fill="white" stroke="none" points="180,-815.36 180,-839.86 222.5,-839.86 222.5,-815.36 180,-815.36"/>
<text text-anchor="start" x="184" y="-822.56" font-family="Times New Roman,serif" font-size="14.00" fill="darkmagenta">33, 59</text>
</g>
<!-- 3 -->
<g id="node4" class="node">
<title>3</title>
<ellipse fill="none" stroke="black" cx="100.44" cy="-42.5" rx="65.68" ry="18"/>
<text text-anchor="middle" x="100.44" y="-37.45" font-family="Times New Roman,serif" font-size="14.00">3. return result</text>
<text text-anchor="start" x="4.01" y="-47.2" font-family="Times New Roman,serif" font-size="14.00" fill="darkorange">64,64</text>
</g>
<!-- 2&#45;&gt;3 -->
<g id="edge3" class="edge">
<title>2&#45;&gt;3</title>
<path fill="none" stroke="blue" stroke-width="1.6" d="M68.8,-639.3C63.54,-595.85 54.44,-510.15 54.44,-437.07 54.44,-437.07 54.44,-437.07 54.44,-203.66 54.44,-155.95 73.53,-103.24 87.12,-71.77"/>
<polygon fill="blue" stroke="blue" stroke-width="1.6" points="90.14,-73.57 91.02,-63.01 83.75,-70.72 90.14,-73.57"/>
<text text-anchor="middle" x="84.06" y="-370.77" font-family="Times New Roman,serif" font-size="14.00"> Score: 0.1</text>
<polygon fill="white" stroke="none" points="16.69,-409.9 16.69,-434.4 52.44,-434.4 52.44,-409.9 16.69,-409.9"/>
<text text-anchor="start" x="20.69" y="-417.1" font-family="Times New Roman,serif" font-size="14.00" fill="darkmagenta">31, 5</text>
</g>
<!-- 5 -->
<g id="node5" class="node">
<title>5</title>
<ellipse fill="none" stroke="black" cx="259.44" cy="-545.98" rx="48.44" ry="28.99"/>
<text text-anchor="middle" x="259.44" y="-540.93" font-family="Times New Roman,serif" font-size="14.00">5. result = 1</text>
<text text-anchor="start" x="180.25" y="-561.68" font-family="Times New Roman,serif" font-size="14.00" fill="darkorange">16,14</text>
</g>
<!-- 4&#45;&gt;5 -->
<g id="edge4" class="edge">
<title>4&#45;&gt;5</title>
<path fill="none" stroke="blue" stroke-width="2.91" d="M259.44,-715.62C259.44,-679.62 259.44,-626.67 259.44,-589.74"/>
<polygon fill="blue" stroke="blue" stroke-width="2.91" points="262.94,-589.88 259.44,-579.88 255.94,-589.88 262.94,-589.88"/>
<text text-anchor="middle" x="323.94" y="-680.09" font-family="Times New Roman,serif" font-size="14.00">&quot;int(v) == v and v &gt; 0&quot;</text>
<text text-anchor="middle" x="323.94" y="-663.59" font-family="Times New Roman,serif" font-size="14.00">c[3]</text>
<text text-anchor="middle" x="323.94" y="-647.09" font-family="Times New Roman,serif" font-size="14.00"> Score: 0.32</text>
<polygon fill="white" stroke="none" points="214.94,-647.69 214.94,-672.19 257.44,-672.19 257.44,-647.69 214.94,-647.69"/>
<text text-anchor="start" x="218.94" y="-654.89" font-family="Times New Roman,serif" font-size="14.00" fill="darkmagenta">16, 14</text>
</g>
<!-- 7 -->
<g id="node6" class="node">
<title>7</title>
<ellipse fill="none" stroke="black" cx="499.44" cy="-545.98" rx="125.33" ry="75.66"/>
<text text-anchor="middle" x="499.44" y="-573.93" font-family="Times New Roman,serif" font-size="14.00">7. uMinusOne = Decimal(u &#45; 1)</text>
<text text-anchor="middle" x="499.44" y="-557.43" font-family="Times New Roman,serif" font-size="14.00">numerator = uMinusOne</text>
<text text-anchor="middle" x="499.44" y="-540.93" font-family="Times New Roman,serif" font-size="14.00">lnTerm = uMinusOne</text>
<text text-anchor="middle" x="499.44" y="-524.43" font-family="Times New Roman,serif" font-size="14.00">result = uMinusOne</text>
<text text-anchor="middle" x="499.44" y="-507.93" font-family="Times New Roman,serif" font-size="14.00">i = 1</text>
<text text-anchor="start" x="343.35" y="-608.34" font-family="Times New Roman,serif" font-size="14.00" fill="darkorange">17,45</text>
</g>
<!-- 4&#45;&gt;7 -->
<g id="edge5" class="edge">
<title>4&#45;&gt;7</title>
<path fill="none" stroke="blue" stroke-width="5" d="M338.72,-729.29C357.47,-720.95 376.6,-710.46 392.44,-697.63 414.94,-679.39 434.88,-655.28 451.26,-631.71"/>
<polygon fill="blue" stroke="blue" stroke-width="5" points="454.83,-634.25 456.76,-623.51 447.56,-629.37 454.83,-634.25"/>
<text text-anchor="middle" x="527.69" y="-680.09" font-family="Times New Roman,serif" font-size="14.00">&quot;(not (int(v) == v and v &gt; 0))&quot;</text>
<text text-anchor="middle" x="527.69" y="-663.59" font-family="Times New Roman,serif" font-size="14.00">c[5]</text>
<text text-anchor="middle" x="527.69" y="-647.09" font-family="Times New Roman,serif" font-size="14.00"> Score: 0.67</text>
<polygon fill="white" stroke="none" points="398.94,-656.69 398.94,-681.19 441.44,-681.19 441.44,-656.69 398.94,-656.69"/>
<text text-anchor="start" x="402.94" y="-663.89" font-family="Times New Roman,serif" font-size="14.00" fill="darkmagenta">17, 45</text>
</g>
<!-- 11 -->
<g id="node7" class="node">
<title>11</title>
<ellipse fill="none" stroke="black" cx="259.44" cy="-383.82" rx="128.12" ry="18"/>
<text text-anchor="middle" x="259.44" y="-378.77" font-family="Times New Roman,serif" font-size="14.00">11. for i in range(1, int(v) + 1):</text>
<text text-anchor="start" x="100.57" y="-388.52" font-family="Times New Roman,serif" font-size="14.00" fill="darkorange">42,35</text>
</g>
<!-- 5&#45;&gt;11 -->
<g id="edge6" class="edge">
<title>5&#45;&gt;11</title>
<path fill="none" stroke="blue" stroke-width="2.91" d="M259.44,-516.72C259.44,-488.55 259.44,-445.4 259.44,-416.19"/>
<polygon fill="blue" stroke="blue" stroke-width="2.91" points="262.94,-416.37 259.44,-406.37 255.94,-416.37 262.94,-416.37"/>
<text text-anchor="middle" x="292.44" y="-423.02" font-family="Times New Roman,serif" font-size="14.00"> Score: 0.32</text>
<polygon fill="white" stroke="none" points="214.94,-461.27 214.94,-485.77 257.44,-485.77 257.44,-461.27 214.94,-461.27"/>
<text text-anchor="start" x="218.94" y="-468.47" font-family="Times New Roman,serif" font-size="14.00" fill="darkmagenta">16, 14</text>
</g>
<!-- 8 -->
<g id="node9" class="node">
<title>8</title>
<ellipse fill="none" stroke="black" cx="596.44" cy="-383.82" rx="142.97" ry="18"/>
<text text-anchor="middle" x="596.44" y="-378.77" font-family="Times New Roman,serif" font-size="14.00">8. while lnTerm &gt; Decimal(1e&#45;16):</text>
<text text-anchor="start" x="422.72" y="-388.52" font-family="Times New Roman,serif" font-size="14.00" fill="darkorange">17,51</text>
</g>
<!-- 7&#45;&gt;8 -->
<g id="edge10" class="edge">
<title>7&#45;&gt;8</title>
<path fill="none" stroke="blue" stroke-width="5" d="M541.98,-474.73C554.44,-454.17 567.43,-432.72 577.6,-415.93"/>
<polygon fill="blue" stroke="blue" stroke-width="5" points="581.21,-418.41 582.65,-407.59 573.73,-413.88 581.21,-418.41"/>
<text text-anchor="middle" x="606" y="-423.02" font-family="Times New Roman,serif" font-size="14.00"> Score: 0.67</text>
<polygon fill="white" stroke="none" points="519.25,-440.79 519.25,-465.29 561.75,-465.29 561.75,-440.79 519.25,-440.79"/>
<text text-anchor="start" x="523.25" y="-447.99" font-family="Times New Roman,serif" font-size="14.00" fill="darkmagenta">17, 45</text>
</g>
<!-- 11&#45;&gt;3 -->
<g id="edge7" class="edge">
<title>11&#45;&gt;3</title>
<path fill="none" stroke="blue" stroke-width="2.91" d="M214.19,-366.56C178.01,-350.78 130.05,-322.91 109.44,-280.32 76.83,-212.97 86.01,-121.78 94.06,-74.62"/>
<polygon fill="blue" stroke="blue" stroke-width="2.91" points="97.46,-75.48 95.84,-65.01 90.58,-74.21 97.46,-75.48"/>
<text text-anchor="middle" x="142.44" y="-191.61" font-family="Times New Roman,serif" font-size="14.00"> Score: 0.32</text>
<polygon fill="white" stroke="none" points="47.69,-228.62 47.69,-253.12 90.19,-253.12 90.19,-228.62 47.69,-228.62"/>
<text text-anchor="start" x="51.69" y="-235.82" font-family="Times New Roman,serif" font-size="14.00" fill="darkmagenta">16, 14</text>
</g>
<!-- 12 -->
<g id="node8" class="node">
<title>12</title>
<ellipse fill="none" stroke="black" cx="237.44" cy="-204.66" rx="53.21" ry="28.99"/>
<text text-anchor="middle" x="237.44" y="-199.61" font-family="Times New Roman,serif" font-size="14.00">12. result *= u</text>
<text text-anchor="start" x="153.48" y="-220.35" font-family="Times New Roman,serif" font-size="14.00" fill="darkorange">26,21</text>
</g>
<!-- 11&#45;&gt;12 -->
<g id="edge8" class="edge">
<title>11&#45;&gt;12</title>
<path fill="none" stroke="blue" stroke-width="3.09" d="M218.86,-366.29C211.59,-361.44 204.97,-355.36 200.69,-347.82 182.48,-315.77 196.56,-274.57 212.27,-244.78"/>
<polygon fill="blue" stroke="blue" stroke-width="3.09" points="215.11,-246.88 216.96,-236.45 209.01,-243.45 215.11,-246.88"/>
<text text-anchor="middle" x="259.56" y="-334.52" font-family="Times New Roman,serif" font-size="14.00">&quot;range(1, int(v) + 1)&quot;</text>
<text text-anchor="middle" x="259.56" y="-318.02" font-family="Times New Roman,serif" font-size="14.00">c[4]</text>
<text text-anchor="middle" x="259.56" y="-301.52" font-family="Times New Roman,serif" font-size="14.00"> Score: 0.35</text>
<polygon fill="white" stroke="none" points="149.22,-297.67 149.22,-322.17 191.72,-322.17 191.72,-297.67 149.22,-297.67"/>
<text text-anchor="start" x="153.22" y="-304.87" font-family="Times New Roman,serif" font-size="14.00" fill="darkmagenta">26, 21</text>
</g>
<!-- 12&#45;&gt;11 -->
<g id="edge9" class="edge">
<title>12&#45;&gt;11</title>
<path fill="none" stroke="blue" stroke-width="3.09" d="M257.94,-231.88C269.68,-246.5 284.93,-264.83 299.44,-280.32 307.39,-288.81 313.84,-287.64 318.44,-298.32 327.13,-318.53 329.33,-328.71 318.44,-347.82 316.49,-351.25 314.06,-354.37 311.3,-357.21"/>
<polygon fill="blue" stroke="blue" stroke-width="3.09" points="309.32,-354.31 303.8,-363.36 313.76,-359.73 309.32,-354.31"/>
<text text-anchor="middle" x="358.8" y="-310.02" font-family="Times New Roman,serif" font-size="14.00"> Score: 0.35</text>
<polygon fill="white" stroke="none" points="255.12,-254.02 255.12,-278.52 297.62,-278.52 297.62,-254.02 255.12,-254.02"/>
<text text-anchor="start" x="259.12" y="-261.22" font-family="Times New Roman,serif" font-size="14.00" fill="darkmagenta">26, 21</text>
</g>
<!-- 9 -->
<g id="node10" class="node">
<title>9</title>
<ellipse fill="none" stroke="black" cx="523.44" cy="-204.66" rx="214.96" ry="75.66"/>
<text text-anchor="middle" x="523.44" y="-232.61" font-family="Times New Roman,serif" font-size="14.00">9. i += 1</text>
<text text-anchor="middle" x="523.44" y="-216.11" font-family="Times New Roman,serif" font-size="14.00">lnTerm *= uMinusOne * Decimal(&#45;1) / Decimal(i)</text>
<text text-anchor="middle" x="523.44" y="-199.61" font-family="Times New Roman,serif" font-size="14.00">numerator = numerator * Decimal(&#45;1) * uMinusOne</text>
<text text-anchor="middle" x="523.44" y="-183.11" font-family="Times New Roman,serif" font-size="14.00">lnTerm = numerator / Decimal(i)</text>
<text text-anchor="middle" x="523.44" y="-166.61" font-family="Times New Roman,serif" font-size="14.00">result += lnTerm</text>
<text text-anchor="start" x="291.23" y="-115.7" font-family="Times New Roman,serif" font-size="14.00" fill="darkorange">0,6</text>
</g>
<!-- 8&#45;&gt;9 -->
<g id="edge11" class="edge">
<title>8&#45;&gt;9</title>
<path fill="none" stroke="red" stroke-width="3.81" d="M508.22,-369.25C485.62,-363.9 465.69,-356.83 458.69,-347.82 445.56,-330.94 446.66,-310.97 454.48,-291.41"/>
<polygon fill="red" stroke="red" stroke-width="3.81" points="457.59,-293.02 458.75,-282.49 451.27,-290 457.59,-293.02"/>
<text text-anchor="middle" x="535.56" y="-334.52" font-family="Times New Roman,serif" font-size="14.00">&quot;lnTerm &gt; Decimal(1e&#45;16)&quot;</text>
<text text-anchor="middle" x="535.56" y="-318.02" font-family="Times New Roman,serif" font-size="14.00">c[6]</text>
<text text-anchor="middle" x="535.56" y="-301.52" font-family="Times New Roman,serif" font-size="14.00"> Score: 0.47</text>
<polygon fill="white" stroke="none" points="421.04,-338.34 421.04,-362.84 450.04,-362.84 450.04,-338.34 421.04,-338.34"/>
<text text-anchor="start" x="425.04" y="-345.54" font-family="Times New Roman,serif" font-size="14.00" fill="darkmagenta">0, 6</text>
</g>
<!-- 10 -->
<g id="node11" class="node">
<title>10</title>
<ellipse fill="none" stroke="black" cx="949.44" cy="-204.66" rx="193.12" ry="18"/>
<text text-anchor="middle" x="949.44" y="-199.61" font-family="Times New Roman,serif" font-size="14.00">10. result = Decimal(math.exp(v * float(result)))</text>
<text text-anchor="start" x="756.32" y="-209.36" font-family="Times New Roman,serif" font-size="14.00" fill="darkorange">17,45</text>
</g>
<!-- 8&#45;&gt;10 -->
<g id="edge12" class="edge">
<title>8&#45;&gt;10</title>
<path fill="none" stroke="blue" stroke-width="5" d="M642.75,-366.34C657.23,-360.84 673.14,-354.42 687.44,-347.82 766.95,-311.15 855.8,-260.85 906.92,-230.96"/>
<polygon fill="blue" stroke="blue" stroke-width="5" points="908.82,-234.92 915.23,-226.08 904.39,-227.38 908.82,-234.92"/>
<text text-anchor="middle" x="868.25" y="-326.27" font-family="Times New Roman,serif" font-size="14.00">&quot;(lnTerm &lt;= Decimal(1e&#45;16))&quot;</text>
<text text-anchor="middle" x="868.25" y="-309.77" font-family="Times New Roman,serif" font-size="14.00"> Score: 0.67</text>
<polygon fill="white" stroke="none" points="739.92,-272.9 739.92,-297.4 782.42,-297.4 782.42,-272.9 739.92,-272.9"/>
<text text-anchor="start" x="743.92" y="-280.1" font-family="Times New Roman,serif" font-size="14.00" fill="darkmagenta">17, 45</text>
</g>
<!-- 9&#45;&gt;8 -->
<g id="edge13" class="edge">
<title>9&#45;&gt;8</title>
<path fill="none" stroke="red" stroke-width="3.81" d="M600.25,-275.7C605.09,-282.89 609.27,-290.46 612.44,-298.32 620.65,-318.73 617.12,-326.33 612.44,-347.82 612.21,-348.85 611.96,-349.89 611.67,-350.93"/>
<polygon fill="red" stroke="red" stroke-width="3.81" points="608.45,-349.55 608.16,-360.15 614.99,-352.04 608.45,-349.55"/>
<text text-anchor="middle" x="650.36" y="-310.02" font-family="Times New Roman,serif" font-size="14.00"> Score: 0.47</text>
<polygon fill="white" stroke="none" points="619.35,-294.16 619.35,-318.66 648.35,-318.66 648.35,-294.16 619.35,-294.16"/>
<text text-anchor="start" x="623.35" y="-301.36" font-family="Times New Roman,serif" font-size="14.00" fill="darkmagenta">0, 6</text>
</g>
<!-- 10&#45;&gt;3 -->
<g id="edge14" class="edge">
<title>10&#45;&gt;3</title>
<path fill="none" stroke="blue" stroke-width="5" d="M911.14,-186.58C871.1,-169.43 806.05,-143.51 747.44,-129 546.66,-79.29 303.23,-57 180.07,-48.3"/>
<polygon fill="blue" stroke="blue" stroke-width="5" points="180.72,-43.96 170.44,-47.64 180.12,-52.69 180.72,-43.96"/>
<text text-anchor="middle" x="693.9" y="-81.7" font-family="Times New Roman,serif" font-size="14.00"> Score: 0.67</text>
<polygon fill="white" stroke="none" points="497.89,-90.53 497.89,-115.03 540.39,-115.03 540.39,-90.53 497.89,-90.53"/>
<text text-anchor="start" x="501.89" y="-97.73" font-family="Times New Roman,serif" font-size="14.00" fill="darkmagenta">17, 45</text>
</g>
</g>
</svg>
