<?xml version="1.0" encoding="UTF-8" standalone="no"?>
<!DOCTYPE svg PUBLIC "-//W3C//DTD SVG 1.1//EN"
 "http://www.w3.org/Graphics/SVG/1.1/DTD/svg11.dtd">
<!-- Generated by graphviz version 10.0.1 (20240210.2158)
 -->
<!-- Title: clusterpower Pages: 1 -->
<svg width="1088pt" height="923pt"
 viewBox="0.00 0.00 1088.40 922.87" xmlns="http://www.w3.org/2000/svg" xmlns:xlink="http://www.w3.org/1999/xlink">
<g id="graph0" class="graph" transform="scale(1 1) rotate(0) translate(4 918.87)">
<title>clusterpower</title>
<polygon fill="white" stroke="none" points="-4,4 -4,-918.87 1084.4,-918.87 1084.4,4 -4,4"/>
<text text-anchor="middle" x="540.2" y="-6.9" font-family="Times New Roman,serif" font-size="8.00">power</text>
<!-- 1 -->
<g id="node1" class="node">
<title>1</title>
<ellipse fill="none" stroke="black" cx="128.08" cy="-831.89" rx="107.83" ry="72.48"/>
<text text-anchor="middle" x="128.08" y="-850.54" font-family="Times New Roman,serif" font-size="8.00">1. uMinusOne = u &#45; 1</text>
<text text-anchor="middle" x="128.08" y="-840.04" font-family="Times New Roman,serif" font-size="8.00">numerator = uMinusOne</text>
<text text-anchor="middle" x="128.08" y="-829.54" font-family="Times New Roman,serif" font-size="8.00">lnTerm = uMinusOne</text>
<text text-anchor="middle" x="128.08" y="-819.04" font-family="Times New Roman,serif" font-size="8.00">result = uMinusOne</text>
<text text-anchor="middle" x="128.08" y="-808.54" font-family="Times New Roman,serif" font-size="8.00">if v == 0:</text>
<text text-anchor="start" x="0" y="-896.77" font-family="Times New Roman,serif" font-size="8.00" fill="darkorange">64,64</text>
</g>
<!-- 2 -->
<g id="node2" class="node">
<title>2</title>
<ellipse fill="none" stroke="black" cx="100.08" cy="-567.85" rx="48.97" ry="27.93"/>
<text text-anchor="middle" x="100.08" y="-565.5" font-family="Times New Roman,serif" font-size="8.00">2. result = 1</text>
<text text-anchor="start" x="35.37" y="-588.18" font-family="Times New Roman,serif" font-size="8.00" fill="darkorange">31,5</text>
</g>
<!-- 1&#45;&gt;2 -->
<g id="edge1" class="edge">
<title>1&#45;&gt;2</title>
<path fill="none" stroke="blue" d="M120.43,-759.28C115.2,-710.29 108.46,-647.23 104.21,-607.41"/>
<polygon fill="blue" stroke="blue" points="107.7,-607.16 103.16,-597.59 100.74,-607.91 107.7,-607.16"/>
<text text-anchor="middle" x="134.08" y="-728.56" font-family="Times New Roman,serif" font-size="8.00">&quot;v == 0&quot;</text>
<text text-anchor="middle" x="134.08" y="-718.06" font-family="Times New Roman,serif" font-size="8.00">c[1]</text>
<text text-anchor="start" x="84.75" y="-670.42" font-family="Times New Roman,serif" font-size="8.00" fill="darkmagenta"> &#160;31,5 &#160;&#160;</text>
</g>
<!-- 4 -->
<g id="node3" class="node">
<title>4</title>
<ellipse fill="none" stroke="black" cx="235.08" cy="-652.84" rx="104.12" ry="39.07"/>
<text text-anchor="middle" x="235.08" y="-655.74" font-family="Times New Roman,serif" font-size="8.00">4. lista = [0, 0]</text>
<text text-anchor="middle" x="235.08" y="-645.24" font-family="Times New Roman,serif" font-size="8.00">if int(v) == v and v &gt; 0:</text>
<text text-anchor="start" x="110.71" y="-684.31" font-family="Times New Roman,serif" font-size="8.00" fill="darkorange">33,59</text>
</g>
<!-- 1&#45;&gt;4 -->
<g id="edge2" class="edge">
<title>1&#45;&gt;4</title>
<path fill="none" stroke="blue" stroke-width="5" d="M168.38,-764.21C180.18,-744.7 192.88,-723.68 204,-705.27"/>
<polygon fill="blue" stroke="blue" stroke-width="5" points="207.69,-707.62 209.12,-696.8 200.21,-703.1 207.69,-707.62"/>
<text text-anchor="middle" x="219.58" y="-733.81" font-family="Times New Roman,serif" font-size="8.00">&quot;(v != 0)&quot;</text>
<text text-anchor="middle" x="219.58" y="-723.31" font-family="Times New Roman,serif" font-size="8.00">c[2]</text>
<text text-anchor="middle" x="219.58" y="-712.81" font-family="Times New Roman,serif" font-size="8.00">Score: 0.67</text>
<text text-anchor="start" x="158.89" y="-720.19" font-family="Times New Roman,serif" font-size="8.00" fill="darkmagenta"> &#160;33,59 &#160;&#160;</text>
</g>
<!-- 3 -->
<g id="node4" class="node">
<title>3</title>
<ellipse fill="none" stroke="black" cx="136.08" cy="-36.5" rx="54.56" ry="18"/>
<text text-anchor="middle" x="136.08" y="-34.15" font-family="Times New Roman,serif" font-size="8.00">3. return result</text>
<text text-anchor="start" x="61.28" y="-46.9" font-family="Times New Roman,serif" font-size="8.00" fill="darkorange">64,64</text>
</g>
<!-- 2&#45;&gt;3 -->
<g id="edge3" class="edge">
<title>2&#45;&gt;3</title>
<path fill="none" stroke="blue" d="M99.66,-539.6C99.07,-499.88 98.08,-423.75 98.08,-358.96 98.08,-358.96 98.08,-358.96 98.08,-162.98 98.08,-127.88 111.87,-89.55 122.83,-64.6"/>
<polygon fill="blue" stroke="blue" points="125.86,-66.39 126.83,-55.84 119.5,-63.48 125.86,-66.39"/>
<text text-anchor="start" x="71.08" y="-326.86" font-family="Times New Roman,serif" font-size="8.00" fill="darkmagenta"> &#160;31,5 &#160;&#160;</text>
</g>
<!-- 5 -->
<g id="node5" class="node">
<title>5</title>
<ellipse fill="none" stroke="black" cx="235.08" cy="-449.44" rx="48.97" ry="27.93"/>
<text text-anchor="middle" x="235.08" y="-447.09" font-family="Times New Roman,serif" font-size="8.00">5. result = 1</text>
<text text-anchor="start" x="165.87" y="-469.77" font-family="Times New Roman,serif" font-size="8.00" fill="darkorange">16,14</text>
</g>
<!-- 4&#45;&gt;5 -->
<g id="edge4" class="edge">
<title>4&#45;&gt;5</title>
<path fill="none" stroke="blue" d="M235.08,-613.49C235.08,-577.8 235.08,-524.9 235.08,-489.11"/>
<polygon fill="blue" stroke="blue" points="238.58,-489.19 235.08,-479.19 231.58,-489.19 238.58,-489.19"/>
<text text-anchor="middle" x="275.21" y="-570.75" font-family="Times New Roman,serif" font-size="8.00">&quot;int(v) == v and v &gt; 0&quot;</text>
<text text-anchor="middle" x="275.21" y="-560.25" font-family="Times New Roman,serif" font-size="8.00">c[3]</text>
<text text-anchor="start" x="203.58" y="-538.03" font-family="Times New Roman,serif" font-size="8.00" fill="darkmagenta"> &#160;16,14 &#160;&#160;</text>
</g>
<!-- 7 -->
<g id="node6" class="node">
<title>7</title>
<ellipse fill="none" stroke="black" cx="464.08" cy="-449.44" rx="124.28" ry="72.48"/>
<text text-anchor="middle" x="464.08" y="-468.09" font-family="Times New Roman,serif" font-size="8.00">7. uMinusOne = Decimal(u &#45; 1)</text>
<text text-anchor="middle" x="464.08" y="-457.59" font-family="Times New Roman,serif" font-size="8.00">numerator = uMinusOne</text>
<text text-anchor="middle" x="464.08" y="-447.09" font-family="Times New Roman,serif" font-size="8.00">lnTerm = uMinusOne</text>
<text text-anchor="middle" x="464.08" y="-436.59" font-family="Times New Roman,serif" font-size="8.00">result = uMinusOne</text>
<text text-anchor="middle" x="464.08" y="-426.09" font-family="Times New Roman,serif" font-size="8.00">i = 1</text>
<text text-anchor="start" x="319.56" y="-514.32" font-family="Times New Roman,serif" font-size="8.00" fill="darkorange">17,45</text>
</g>
<!-- 4&#45;&gt;7 -->
<g id="edge5" class="edge">
<title>4&#45;&gt;7</title>
<path fill="none" stroke="blue" stroke-width="4.52" d="M287.77,-619C298.42,-611.73 309.33,-603.79 319.08,-595.78 345.24,-574.3 371.94,-548.75 395.19,-525.12"/>
<polygon fill="blue" stroke="blue" stroke-width="4.52" points="397.88,-528.02 402.02,-518.1 392.21,-522.5 397.88,-528.02"/>
<text text-anchor="middle" x="430.33" y="-576" font-family="Times New Roman,serif" font-size="8.00">&quot;(not (int(v) == v and v &gt; 0))&quot;</text>
<text text-anchor="middle" x="430.33" y="-565.5" font-family="Times New Roman,serif" font-size="8.00">c[5]</text>
<text text-anchor="middle" x="430.33" y="-555" font-family="Times New Roman,serif" font-size="8.00">Score: 0.59</text>
<text text-anchor="start" x="318.25" y="-561.5" font-family="Times New Roman,serif" font-size="8.00" fill="darkmagenta"> &#160;17,45 &#160;&#160;</text>
</g>
<!-- 11 -->
<g id="node7" class="node">
<title>11</title>
<ellipse fill="none" stroke="black" cx="235.08" cy="-321.96" rx="109.45" ry="18"/>
<text text-anchor="middle" x="235.08" y="-319.61" font-family="Times New Roman,serif" font-size="8.00">11. for i in range(1, int(v) + 1):</text>
<text text-anchor="start" x="105.39" y="-332.36" font-family="Times New Roman,serif" font-size="8.00" fill="darkorange">42,35</text>
</g>
<!-- 5&#45;&gt;11 -->
<g id="edge6" class="edge">
<title>5&#45;&gt;11</title>
<path fill="none" stroke="blue" d="M235.08,-421.21C235.08,-400.6 235.08,-372.38 235.08,-351.46"/>
<polygon fill="blue" stroke="blue" points="238.58,-351.62 235.08,-341.62 231.58,-351.62 238.58,-351.62"/>
<text text-anchor="start" x="203.58" y="-373.11" font-family="Times New Roman,serif" font-size="8.00" fill="darkmagenta"> &#160;16,14 &#160;&#160;</text>
</g>
<!-- 8 -->
<g id="node9" class="node">
<title>8</title>
<ellipse fill="none" stroke="black" cx="552.08" cy="-321.96" rx="127.41" ry="18"/>
<text text-anchor="middle" x="552.08" y="-319.61" font-family="Times New Roman,serif" font-size="8.00">8. while lnTerm &gt; Decimal(1e&#45;16):</text>
<text text-anchor="start" x="404.42" y="-332.36" font-family="Times New Roman,serif" font-size="8.00" fill="darkorange">17,51</text>
</g>
<!-- 7&#45;&gt;8 -->
<g id="edge10" class="edge">
<title>7&#45;&gt;8</title>
<path fill="none" stroke="blue" d="M510.66,-382.02C518.74,-370.5 526.7,-359.15 533.45,-349.52"/>
<polygon fill="blue" stroke="blue" points="536.26,-351.62 539.14,-341.42 530.53,-347.6 536.26,-351.62"/>
<text text-anchor="start" x="493.73" y="-353.65" font-family="Times New Roman,serif" font-size="8.00" fill="darkmagenta"> &#160;17,45 &#160;&#160;</text>
</g>
<!-- 11&#45;&gt;3 -->
<g id="edge7" class="edge">
<title>11&#45;&gt;3</title>
<path fill="none" stroke="blue" d="M205.16,-304.24C197.39,-299.03 189.44,-292.83 183.08,-285.96 165.92,-267.4 162.67,-260.57 155.08,-236.46 136.66,-177.95 134.62,-105.36 135.13,-66.05"/>
<polygon fill="blue" stroke="blue" points="138.62,-66.32 135.32,-56.26 131.62,-66.18 138.62,-66.32"/>
<text text-anchor="start" x="111.5" y="-176.47" font-family="Times New Roman,serif" font-size="8.00" fill="darkmagenta"> &#160;16,14 &#160;&#160;</text>
</g>
<!-- 12 -->
<g id="node8" class="node">
<title>12</title>
<ellipse fill="none" stroke="black" cx="217.08" cy="-163.98" rx="53.21" ry="27.93"/>
<text text-anchor="middle" x="217.08" y="-161.63" font-family="Times New Roman,serif" font-size="8.00">12. result *= u</text>
<text text-anchor="start" x="143.63" y="-184.31" font-family="Times New Roman,serif" font-size="8.00" fill="darkorange">26,21</text>
</g>
<!-- 11&#45;&gt;12 -->
<g id="edge8" class="edge">
<title>11&#45;&gt;12</title>
<path fill="none" stroke="blue" d="M208.46,-304.09C202.66,-299.02 197.3,-292.93 194.08,-285.96 181.76,-259.24 189.34,-226.28 198.98,-201.52"/>
<polygon fill="blue" stroke="blue" points="202.12,-203.08 202.75,-192.5 195.66,-200.38 202.12,-203.08"/>
<text text-anchor="middle" x="231.58" y="-273.11" font-family="Times New Roman,serif" font-size="8.00">&quot;range(1, int(v) + 1)&quot;</text>
<text text-anchor="middle" x="231.58" y="-262.61" font-family="Times New Roman,serif" font-size="8.00">c[4]</text>
<text text-anchor="start" x="156.48" y="-238.85" font-family="Times New Roman,serif" font-size="8.00" fill="darkmagenta"> &#160;26,21 &#160;&#160;</text>
</g>
<!-- 12&#45;&gt;11 -->
<g id="edge9" class="edge">
<title>12&#45;&gt;11</title>
<path fill="none" stroke="blue" d="M236.72,-190.36C248.66,-207.43 262.77,-231.04 269.08,-254.46 272.73,-267.98 274.35,-272.98 269.08,-285.96 267.76,-289.23 265.96,-292.36 263.89,-295.31"/>
<polygon fill="blue" stroke="blue" points="261.25,-293.01 257.5,-302.92 266.61,-297.51 261.25,-293.01"/>
<text text-anchor="start" x="232.86" y="-232.62" font-family="Times New Roman,serif" font-size="8.00" fill="darkmagenta"> &#160;26,21 &#160;&#160;</text>
</g>
<!-- 9 -->
<g id="node10" class="node">
<title>9</title>
<ellipse fill="none" stroke="black" cx="502.08" cy="-163.98" rx="213.9" ry="72.48"/>
<text text-anchor="middle" x="502.08" y="-182.63" font-family="Times New Roman,serif" font-size="8.00">9. i += 1</text>
<text text-anchor="middle" x="502.08" y="-172.13" font-family="Times New Roman,serif" font-size="8.00">lnTerm *= uMinusOne * Decimal(&#45;1) / Decimal(i)</text>
<text text-anchor="middle" x="502.08" y="-161.63" font-family="Times New Roman,serif" font-size="8.00">numerator = numerator * Decimal(&#45;1) * uMinusOne</text>
<text text-anchor="middle" x="502.08" y="-151.13" font-family="Times New Roman,serif" font-size="8.00">lnTerm = numerator / Decimal(i)</text>
<text text-anchor="middle" x="502.08" y="-140.63" font-family="Times New Roman,serif" font-size="8.00">result += lnTerm</text>
<text text-anchor="start" x="276.93" y="-228.86" font-family="Times New Roman,serif" font-size="8.00" fill="darkorange">0,6</text>
</g>
<!-- 8&#45;&gt;9 -->
<g id="edge11" class="edge">
<title>8&#45;&gt;9</title>
<path fill="none" stroke="red" stroke-width="3.93" d="M473.43,-307.46C462.91,-302.37 453.42,-295.42 446.58,-285.96 438.42,-274.65 437.19,-261.94 440.08,-249.13"/>
<polygon fill="red" stroke="red" stroke-width="3.93" points="443.37,-250.33 443.29,-239.74 436.75,-248.07 443.37,-250.33"/>
<text text-anchor="middle" x="494.83" y="-278.36" font-family="Times New Roman,serif" font-size="8.00">&quot;lnTerm &gt; Decimal(1e&#45;16)&quot;</text>
<text text-anchor="middle" x="494.83" y="-267.86" font-family="Times New Roman,serif" font-size="8.00">c[6]</text>
<text text-anchor="middle" x="494.83" y="-257.36" font-family="Times New Roman,serif" font-size="8.00">Score: 0.49</text>
<text text-anchor="start" x="419.69" y="-270.75" font-family="Times New Roman,serif" font-size="8.00" fill="darkmagenta"> &#160;0,6 &#160;&#160;</text>
</g>
<!-- 10 -->
<g id="node11" class="node">
<title>10</title>
<ellipse fill="none" stroke="black" cx="907.08" cy="-163.98" rx="173.32" ry="18"/>
<text text-anchor="middle" x="907.08" y="-161.63" font-family="Times New Roman,serif" font-size="8.00">10. result = Decimal(math.exp(v * float(result)))</text>
<text text-anchor="start" x="733.77" y="-174.38" font-family="Times New Roman,serif" font-size="8.00" fill="darkorange">17,45</text>
</g>
<!-- 8&#45;&gt;10 -->
<g id="edge12" class="edge">
<title>8&#45;&gt;10</title>
<path fill="none" stroke="blue" d="M589.74,-304.41C654.45,-275.98 786.71,-217.87 858.36,-186.39"/>
<polygon fill="blue" stroke="blue" points="859.34,-189.78 867.09,-182.55 856.52,-183.37 859.34,-189.78"/>
<text text-anchor="middle" x="747.33" y="-267.86" font-family="Times New Roman,serif" font-size="8.00">(lnTerm &lt;= Decimal(1e&#45;16))</text>
<text text-anchor="start" x="697.59" y="-235.59" font-family="Times New Roman,serif" font-size="8.00" fill="darkmagenta"> &#160;17,45 &#160;&#160;</text>
</g>
<!-- 9&#45;&gt;8 -->
<g id="edge13" class="edge">
<title>9&#45;&gt;8</title>
<path fill="none" stroke="red" d="M537.67,-235.49C540.1,-241.81 542.29,-248.19 544.08,-254.46 547.59,-266.7 549.57,-280.63 550.67,-292.57"/>
<polygon fill="red" stroke="red" points="547.16,-292.5 551.4,-302.21 554.14,-291.97 547.16,-292.5"/>
<text text-anchor="start" x="547.53" y="-261.76" font-family="Times New Roman,serif" font-size="8.00" fill="darkmagenta"> &#160;0,6 &#160;&#160;</text>
</g>
<!-- 10&#45;&gt;3 -->
<g id="edge14" class="edge">
<title>10&#45;&gt;3</title>
<path fill="none" stroke="blue" d="M872.47,-145.96C836.54,-129.13 778.26,-104.11 725.08,-91.5 539.08,-47.39 312.13,-38.88 202.14,-37.52"/>
<polygon fill="blue" stroke="blue" points="202.46,-34.02 192.43,-37.41 202.39,-41.02 202.46,-34.02"/>
<text text-anchor="start" x="504.56" y="-51.18" font-family="Times New Roman,serif" font-size="8.00" fill="darkmagenta"> &#160;17,45 &#160;&#160;</text>
</g>
</g>
</svg>
