<?xml version="1.0" encoding="UTF-8" standalone="no"?>
<!DOCTYPE svg PUBLIC "-//W3C//DTD SVG 1.1//EN"
 "http://www.w3.org/Graphics/SVG/1.1/DTD/svg11.dtd">
<!-- Generated by graphviz version 10.0.1 (20240210.2158)
 -->
<!-- Title: clusterpower Pages: 1 -->
<svg width="1088pt" height="924pt"
 viewBox="0.00 0.00 1088.40 924.37" xmlns="http://www.w3.org/2000/svg" xmlns:xlink="http://www.w3.org/1999/xlink">
<g id="graph0" class="graph" transform="scale(1 1) rotate(0) translate(4 920.37)">
<title>clusterpower</title>
<polygon fill="white" stroke="none" points="-4,4 -4,-920.37 1084.4,-920.37 1084.4,4 -4,4"/>
<text text-anchor="middle" x="540.2" y="-5.75" font-family="Times New Roman,serif" font-size="10.00">power</text>
<!-- 1 -->
<g id="node1" class="node">
<title>1</title>
<ellipse fill="none" stroke="black" cx="128.08" cy="-832.64" rx="107.83" ry="72.48"/>
<text text-anchor="middle" x="128.08" y="-851.26" font-family="Times New Roman,serif" font-size="10.00">1. uMinusOne = u &#45; 1</text>
<text text-anchor="middle" x="128.08" y="-840.01" font-family="Times New Roman,serif" font-size="10.00">numerator = uMinusOne</text>
<text text-anchor="middle" x="128.08" y="-828.76" font-family="Times New Roman,serif" font-size="10.00">lnTerm = uMinusOne</text>
<text text-anchor="middle" x="128.08" y="-817.51" font-family="Times New Roman,serif" font-size="10.00">result = uMinusOne</text>
<text text-anchor="middle" x="128.08" y="-806.26" font-family="Times New Roman,serif" font-size="10.00">if v == 0:</text>
<text text-anchor="start" x="0" y="-895.62" font-family="Times New Roman,serif" font-size="10.00" fill="darkorange">64,64</text>
</g>
<!-- 2 -->
<g id="node2" class="node">
<title>2</title>
<ellipse fill="none" stroke="black" cx="100.08" cy="-568.6" rx="48.97" ry="27.93"/>
<text text-anchor="middle" x="100.08" y="-564.72" font-family="Times New Roman,serif" font-size="10.00">2. result = 1</text>
<text text-anchor="start" x="35.37" y="-587.03" font-family="Times New Roman,serif" font-size="10.00" fill="darkorange">31,5</text>
</g>
<!-- 1&#45;&gt;2 -->
<g id="edge1" class="edge">
<title>1&#45;&gt;2</title>
<path fill="none" stroke="blue" d="M120.43,-760.03C115.2,-711.04 108.46,-647.98 104.21,-608.16"/>
<polygon fill="blue" stroke="blue" points="107.7,-607.91 103.16,-598.34 100.74,-608.66 107.7,-607.91"/>
<text text-anchor="middle" x="134.08" y="-729.31" font-family="Times New Roman,serif" font-size="8.00">&quot;v == 0&quot;</text>
<text text-anchor="middle" x="134.08" y="-718.81" font-family="Times New Roman,serif" font-size="8.00">c[1]</text>
<text text-anchor="start" x="80.25" y="-671.17" font-family="Times New Roman,serif" font-size="8.00" fill="darkmagenta"> &#160;&#160;&#160;&#160;31,5 &#160;</text>
</g>
<!-- 4 -->
<g id="node3" class="node">
<title>4</title>
<ellipse fill="none" stroke="black" cx="235.08" cy="-653.59" rx="104.12" ry="39.07"/>
<text text-anchor="middle" x="235.08" y="-655.34" font-family="Times New Roman,serif" font-size="10.00">4. lista = [0, 0]</text>
<text text-anchor="middle" x="235.08" y="-644.09" font-family="Times New Roman,serif" font-size="10.00">if int(v) == v and v &gt; 0:</text>
<text text-anchor="start" x="110.71" y="-683.16" font-family="Times New Roman,serif" font-size="10.00" fill="darkorange">33,59</text>
</g>
<!-- 1&#45;&gt;4 -->
<g id="edge2" class="edge">
<title>1&#45;&gt;4</title>
<path fill="none" stroke="blue" stroke-width="5" d="M168.38,-764.96C180.18,-745.45 192.88,-724.43 204,-706.02"/>
<polygon fill="blue" stroke="blue" stroke-width="5" points="207.69,-708.37 209.12,-697.55 200.21,-703.85 207.69,-708.37"/>
<text text-anchor="middle" x="221.83" y="-734.56" font-family="Times New Roman,serif" font-size="8.00">&quot;(v != 0)&quot;</text>
<text text-anchor="middle" x="221.83" y="-724.06" font-family="Times New Roman,serif" font-size="8.00">c[2]</text>
<text text-anchor="middle" x="221.83" y="-713.56" font-family="Times New Roman,serif" font-size="8.00"> &#160;Score: 0.67</text>
<text text-anchor="start" x="154.39" y="-720.94" font-family="Times New Roman,serif" font-size="8.00" fill="darkmagenta"> &#160;&#160;&#160;&#160;33,59 &#160;</text>
</g>
<!-- 3 -->
<g id="node4" class="node">
<title>3</title>
<ellipse fill="none" stroke="black" cx="136.08" cy="-37.25" rx="54.56" ry="18"/>
<text text-anchor="middle" x="136.08" y="-33.38" font-family="Times New Roman,serif" font-size="10.00">3. return result</text>
<text text-anchor="start" x="61.28" y="-45.75" font-family="Times New Roman,serif" font-size="10.00" fill="darkorange">64,64</text>
</g>
<!-- 2&#45;&gt;3 -->
<g id="edge3" class="edge">
<title>2&#45;&gt;3</title>
<path fill="none" stroke="blue" d="M99.66,-540.35C99.07,-500.63 98.08,-424.5 98.08,-359.71 98.08,-359.71 98.08,-359.71 98.08,-163.73 98.08,-128.63 111.87,-90.3 122.83,-65.35"/>
<polygon fill="blue" stroke="blue" points="125.86,-67.14 126.83,-56.59 119.5,-64.23 125.86,-67.14"/>
<text text-anchor="start" x="66.58" y="-327.61" font-family="Times New Roman,serif" font-size="8.00" fill="darkmagenta"> &#160;&#160;&#160;&#160;31,5 &#160;</text>
</g>
<!-- 5 -->
<g id="node5" class="node">
<title>5</title>
<ellipse fill="none" stroke="black" cx="235.08" cy="-450.19" rx="48.97" ry="27.93"/>
<text text-anchor="middle" x="235.08" y="-446.31" font-family="Times New Roman,serif" font-size="10.00">5. result = 1</text>
<text text-anchor="start" x="165.87" y="-468.62" font-family="Times New Roman,serif" font-size="10.00" fill="darkorange">16,14</text>
</g>
<!-- 4&#45;&gt;5 -->
<g id="edge4" class="edge">
<title>4&#45;&gt;5</title>
<path fill="none" stroke="blue" d="M235.08,-614.24C235.08,-578.55 235.08,-525.65 235.08,-489.86"/>
<polygon fill="blue" stroke="blue" points="238.58,-489.94 235.08,-479.94 231.58,-489.94 238.58,-489.94"/>
<text text-anchor="middle" x="275.21" y="-571.5" font-family="Times New Roman,serif" font-size="8.00">&quot;int(v) == v and v &gt; 0&quot;</text>
<text text-anchor="middle" x="275.21" y="-561" font-family="Times New Roman,serif" font-size="8.00">c[3]</text>
<text text-anchor="start" x="199.08" y="-538.78" font-family="Times New Roman,serif" font-size="8.00" fill="darkmagenta"> &#160;&#160;&#160;&#160;16,14 &#160;</text>
</g>
<!-- 7 -->
<g id="node6" class="node">
<title>7</title>
<ellipse fill="none" stroke="black" cx="464.08" cy="-450.19" rx="124.28" ry="72.48"/>
<text text-anchor="middle" x="464.08" y="-468.81" font-family="Times New Roman,serif" font-size="10.00">7. uMinusOne = Decimal(u &#45; 1)</text>
<text text-anchor="middle" x="464.08" y="-457.56" font-family="Times New Roman,serif" font-size="10.00">numerator = uMinusOne</text>
<text text-anchor="middle" x="464.08" y="-446.31" font-family="Times New Roman,serif" font-size="10.00">lnTerm = uMinusOne</text>
<text text-anchor="middle" x="464.08" y="-435.06" font-family="Times New Roman,serif" font-size="10.00">result = uMinusOne</text>
<text text-anchor="middle" x="464.08" y="-423.81" font-family="Times New Roman,serif" font-size="10.00">i = 1</text>
<text text-anchor="start" x="319.56" y="-513.17" font-family="Times New Roman,serif" font-size="10.00" fill="darkorange">17,45</text>
</g>
<!-- 4&#45;&gt;7 -->
<g id="edge5" class="edge">
<title>4&#45;&gt;7</title>
<path fill="none" stroke="blue" stroke-width="4.52" d="M287.77,-619.75C298.42,-612.48 309.33,-604.54 319.08,-596.53 345.24,-575.05 371.94,-549.5 395.19,-525.87"/>
<polygon fill="blue" stroke="blue" stroke-width="4.52" points="397.88,-528.77 402.02,-518.85 392.21,-523.25 397.88,-528.77"/>
<text text-anchor="middle" x="430.33" y="-576.75" font-family="Times New Roman,serif" font-size="8.00">&quot;(not (int(v) == v and v &gt; 0))&quot;</text>
<text text-anchor="middle" x="430.33" y="-566.25" font-family="Times New Roman,serif" font-size="8.00">c[5]</text>
<text text-anchor="middle" x="430.33" y="-555.75" font-family="Times New Roman,serif" font-size="8.00"> &#160;Score: 0.59</text>
<text text-anchor="start" x="340.75" y="-551.75" font-family="Times New Roman,serif" font-size="8.00" fill="darkmagenta"> &#160;&#160;&#160;&#160;17,45 &#160;</text>
</g>
<!-- 11 -->
<g id="node7" class="node">
<title>11</title>
<ellipse fill="none" stroke="black" cx="235.08" cy="-322.71" rx="109.45" ry="18"/>
<text text-anchor="middle" x="235.08" y="-318.83" font-family="Times New Roman,serif" font-size="10.00">11. for i in range(1, int(v) + 1):</text>
<text text-anchor="start" x="105.39" y="-331.21" font-family="Times New Roman,serif" font-size="10.00" fill="darkorange">42,35</text>
</g>
<!-- 5&#45;&gt;11 -->
<g id="edge6" class="edge">
<title>5&#45;&gt;11</title>
<path fill="none" stroke="blue" d="M235.08,-421.96C235.08,-401.35 235.08,-373.13 235.08,-352.21"/>
<polygon fill="blue" stroke="blue" points="238.58,-352.37 235.08,-342.37 231.58,-352.37 238.58,-352.37"/>
<text text-anchor="start" x="199.08" y="-373.86" font-family="Times New Roman,serif" font-size="8.00" fill="darkmagenta"> &#160;&#160;&#160;&#160;16,14 &#160;</text>
</g>
<!-- 8 -->
<g id="node9" class="node">
<title>8</title>
<ellipse fill="none" stroke="black" cx="552.08" cy="-322.71" rx="127.41" ry="18"/>
<text text-anchor="middle" x="552.08" y="-318.83" font-family="Times New Roman,serif" font-size="10.00">8. while lnTerm &gt; Decimal(1e&#45;16):</text>
<text text-anchor="start" x="404.42" y="-331.21" font-family="Times New Roman,serif" font-size="10.00" fill="darkorange">17,51</text>
</g>
<!-- 7&#45;&gt;8 -->
<g id="edge10" class="edge">
<title>7&#45;&gt;8</title>
<path fill="none" stroke="blue" d="M510.66,-382.77C518.74,-371.25 526.7,-359.9 533.45,-350.27"/>
<polygon fill="blue" stroke="blue" points="536.26,-352.37 539.14,-342.17 530.53,-348.35 536.26,-352.37"/>
<text text-anchor="start" x="489.23" y="-354.4" font-family="Times New Roman,serif" font-size="8.00" fill="darkmagenta"> &#160;&#160;&#160;&#160;17,45 &#160;</text>
</g>
<!-- 11&#45;&gt;3 -->
<g id="edge7" class="edge">
<title>11&#45;&gt;3</title>
<path fill="none" stroke="blue" d="M205.16,-304.99C197.39,-299.78 189.44,-293.58 183.08,-286.71 165.92,-268.15 162.67,-261.32 155.08,-237.21 136.66,-178.7 134.62,-106.11 135.13,-66.8"/>
<polygon fill="blue" stroke="blue" points="138.62,-67.07 135.32,-57.01 131.62,-66.93 138.62,-67.07"/>
<text text-anchor="start" x="107" y="-177.22" font-family="Times New Roman,serif" font-size="8.00" fill="darkmagenta"> &#160;&#160;&#160;&#160;16,14 &#160;</text>
</g>
<!-- 12 -->
<g id="node8" class="node">
<title>12</title>
<ellipse fill="none" stroke="black" cx="217.08" cy="-164.73" rx="53.21" ry="27.93"/>
<text text-anchor="middle" x="217.08" y="-160.85" font-family="Times New Roman,serif" font-size="10.00">12. result *= u</text>
<text text-anchor="start" x="143.63" y="-183.16" font-family="Times New Roman,serif" font-size="10.00" fill="darkorange">26,21</text>
</g>
<!-- 11&#45;&gt;12 -->
<g id="edge8" class="edge">
<title>11&#45;&gt;12</title>
<path fill="none" stroke="blue" d="M208.46,-304.84C202.66,-299.77 197.3,-293.68 194.08,-286.71 181.76,-259.99 189.34,-227.03 198.98,-202.27"/>
<polygon fill="blue" stroke="blue" points="202.12,-203.83 202.75,-193.25 195.66,-201.13 202.12,-203.83"/>
<text text-anchor="middle" x="231.58" y="-273.86" font-family="Times New Roman,serif" font-size="8.00">&quot;range(1, int(v) + 1)&quot;</text>
<text text-anchor="middle" x="231.58" y="-263.36" font-family="Times New Roman,serif" font-size="8.00">c[4]</text>
<text text-anchor="start" x="151.98" y="-239.6" font-family="Times New Roman,serif" font-size="8.00" fill="darkmagenta"> &#160;&#160;&#160;&#160;26,21 &#160;</text>
</g>
<!-- 12&#45;&gt;11 -->
<g id="edge9" class="edge">
<title>12&#45;&gt;11</title>
<path fill="none" stroke="blue" d="M236.72,-191.11C248.66,-208.18 262.77,-231.79 269.08,-255.21 272.73,-268.73 274.35,-273.73 269.08,-286.71 267.76,-289.98 265.96,-293.11 263.89,-296.06"/>
<polygon fill="blue" stroke="blue" points="261.25,-293.76 257.5,-303.67 266.61,-298.26 261.25,-293.76"/>
<text text-anchor="start" x="228.36" y="-233.37" font-family="Times New Roman,serif" font-size="8.00" fill="darkmagenta"> &#160;&#160;&#160;&#160;26,21 &#160;</text>
</g>
<!-- 9 -->
<g id="node10" class="node">
<title>9</title>
<ellipse fill="none" stroke="black" cx="502.08" cy="-164.73" rx="213.9" ry="72.48"/>
<text text-anchor="middle" x="502.08" y="-183.35" font-family="Times New Roman,serif" font-size="10.00">9. i += 1</text>
<text text-anchor="middle" x="502.08" y="-172.1" font-family="Times New Roman,serif" font-size="10.00">lnTerm *= uMinusOne * Decimal(&#45;1) / Decimal(i)</text>
<text text-anchor="middle" x="502.08" y="-160.85" font-family="Times New Roman,serif" font-size="10.00">numerator = numerator * Decimal(&#45;1) * uMinusOne</text>
<text text-anchor="middle" x="502.08" y="-149.6" font-family="Times New Roman,serif" font-size="10.00">lnTerm = numerator / Decimal(i)</text>
<text text-anchor="middle" x="502.08" y="-138.35" font-family="Times New Roman,serif" font-size="10.00">result += lnTerm</text>
<text text-anchor="start" x="276.93" y="-227.71" font-family="Times New Roman,serif" font-size="10.00" fill="darkorange">0,6</text>
</g>
<!-- 8&#45;&gt;9 -->
<g id="edge11" class="edge">
<title>8&#45;&gt;9</title>
<path fill="none" stroke="red" stroke-width="3.93" d="M473.43,-308.21C462.91,-303.12 453.42,-296.17 446.58,-286.71 438.42,-275.4 437.19,-262.69 440.08,-249.88"/>
<polygon fill="red" stroke="red" stroke-width="3.93" points="443.37,-251.08 443.29,-240.49 436.75,-248.82 443.37,-251.08"/>
<text text-anchor="middle" x="494.83" y="-279.11" font-family="Times New Roman,serif" font-size="8.00">&quot;lnTerm &gt; Decimal(1e&#45;16)&quot;</text>
<text text-anchor="middle" x="494.83" y="-268.61" font-family="Times New Roman,serif" font-size="8.00">c[6]</text>
<text text-anchor="middle" x="494.83" y="-258.11" font-family="Times New Roman,serif" font-size="8.00"> &#160;Score: 0.49</text>
<text text-anchor="start" x="415.19" y="-271.5" font-family="Times New Roman,serif" font-size="8.00" fill="darkmagenta"> &#160;&#160;&#160;&#160;0,6 &#160;</text>
</g>
<!-- 10 -->
<g id="node11" class="node">
<title>10</title>
<ellipse fill="none" stroke="black" cx="907.08" cy="-164.73" rx="173.32" ry="18"/>
<text text-anchor="middle" x="907.08" y="-160.85" font-family="Times New Roman,serif" font-size="10.00">10. result = Decimal(math.exp(v * float(result)))</text>
<text text-anchor="start" x="733.77" y="-173.23" font-family="Times New Roman,serif" font-size="10.00" fill="darkorange">17,45</text>
</g>
<!-- 8&#45;&gt;10 -->
<g id="edge12" class="edge">
<title>8&#45;&gt;10</title>
<path fill="none" stroke="blue" d="M589.74,-305.16C654.45,-276.73 786.71,-218.62 858.36,-187.14"/>
<polygon fill="blue" stroke="blue" points="859.34,-190.53 867.09,-183.3 856.52,-184.12 859.34,-190.53"/>
<text text-anchor="middle" x="747.33" y="-268.61" font-family="Times New Roman,serif" font-size="8.00">(lnTerm &lt;= Decimal(1e&#45;16))</text>
<text text-anchor="start" x="693.09" y="-236.34" font-family="Times New Roman,serif" font-size="8.00" fill="darkmagenta"> &#160;&#160;&#160;&#160;17,45 &#160;</text>
</g>
<!-- 9&#45;&gt;8 -->
<g id="edge13" class="edge">
<title>9&#45;&gt;8</title>
<path fill="none" stroke="red" d="M537.67,-236.24C540.1,-242.56 542.29,-248.94 544.08,-255.21 547.59,-267.45 549.57,-281.38 550.67,-293.32"/>
<polygon fill="red" stroke="red" points="547.16,-293.25 551.4,-302.96 554.14,-292.72 547.16,-293.25"/>
<text text-anchor="start" x="547.53" y="-262.51" font-family="Times New Roman,serif" font-size="8.00" fill="darkmagenta"> &#160;&#160;&#160;&#160;0,6 &#160;</text>
</g>
<!-- 10&#45;&gt;3 -->
<g id="edge14" class="edge">
<title>10&#45;&gt;3</title>
<path fill="none" stroke="blue" d="M872.47,-146.71C836.54,-129.88 778.26,-104.86 725.08,-92.25 539.08,-48.14 312.13,-39.63 202.14,-38.27"/>
<polygon fill="blue" stroke="blue" points="202.46,-34.77 192.43,-38.16 202.39,-41.77 202.46,-34.77"/>
<text text-anchor="start" x="500.06" y="-51.93" font-family="Times New Roman,serif" font-size="8.00" fill="darkmagenta"> &#160;&#160;&#160;&#160;17,45 &#160;</text>
</g>
</g>
</svg>
