<?xml version="1.0" encoding="UTF-8" standalone="no"?>
<!DOCTYPE svg PUBLIC "-//W3C//DTD SVG 1.1//EN"
 "http://www.w3.org/Graphics/SVG/1.1/DTD/svg11.dtd">
<!-- Generated by graphviz version 10.0.1 (20240210.2158)
 -->
<!-- Title: clusternext_palindrome Pages: 1 -->
<svg width="742pt" height="1124pt"
 viewBox="0.00 0.00 742.26 1124.31" xmlns="http://www.w3.org/2000/svg" xmlns:xlink="http://www.w3.org/1999/xlink">
<g id="graph0" class="graph" transform="scale(1 1) rotate(0) translate(4 1120.31)">
<title>clusternext_palindrome</title>
<polygon fill="white" stroke="none" points="-4,4 -4,-1120.31 738.26,-1120.31 738.26,4 -4,4"/>
<text text-anchor="middle" x="367.13" y="-6.45" font-family="Times New Roman,serif" font-size="14.00">next_palindrome</text>
<!-- 1 -->
<g id="node1" class="node">
<title>1</title>
<ellipse fill="none" stroke="black" cx="534.08" cy="-1039.22" rx="120.56" ry="61.34"/>
<text text-anchor="middle" x="534.08" y="-1057.42" font-family="Times New Roman,serif" font-size="14.00">1. digit_list = sorted(digit_list)</text>
<text text-anchor="middle" x="534.08" y="-1041.67" font-family="Times New Roman,serif" font-size="14.00">n = len(digit_list)</text>
<text text-anchor="middle" x="534.08" y="-1025.92" font-family="Times New Roman,serif" font-size="14.00">mid = n // 2</text>
<text text-anchor="middle" x="534.08" y="-1010.17" font-family="Times New Roman,serif" font-size="14.00">if n % 2 == 0:</text>
<text text-anchor="start" x="382.77" y="-1087.26" font-family="Times New Roman,serif" font-size="14.00" fill="darkorange">15,15</text>
</g>
<!-- 2 -->
<g id="node2" class="node">
<title>2</title>
<ellipse fill="none" stroke="black" cx="404.08" cy="-844.42" rx="171.47" ry="50.21"/>
<text text-anchor="middle" x="404.08" y="-854.75" font-family="Times New Roman,serif" font-size="14.00">2. left_side = digit_list[:mid]</text>
<text text-anchor="middle" x="404.08" y="-839" font-family="Times New Roman,serif" font-size="14.00">left_side_reverse = left_side[::&#45;1]</text>
<text text-anchor="middle" x="404.08" y="-823.25" font-family="Times New Roman,serif" font-size="14.00">candidate = left_side + left_side_reverse</text>
<text text-anchor="start" x="208.61" y="-881.33" font-family="Times New Roman,serif" font-size="14.00" fill="darkorange">15,1</text>
</g>
<!-- 1&#45;&gt;2 -->
<g id="edge1" class="edge">
<title>1&#45;&gt;2</title>
<path fill="none" stroke="blue" stroke-width="1.21" d="M495.42,-980.9C478.97,-956.5 459.81,-928.08 443.3,-903.59"/>
<polygon fill="blue" stroke="blue" stroke-width="1.21" points="446.38,-901.91 437.89,-895.57 440.58,-905.82 446.38,-901.91"/>
<text text-anchor="middle" x="518.95" y="-946.58" font-family="Times New Roman,serif" font-size="14.00">&quot;n % 2 == 0&quot;</text>
<text text-anchor="middle" x="518.95" y="-930.83" font-family="Times New Roman,serif" font-size="14.00">c[1]</text>
<text text-anchor="middle" x="518.95" y="-915.08" font-family="Times New Roman,serif" font-size="14.00"> Score: 0.05</text>
<polygon fill="white" stroke="none" points="428.5,-939.63 428.5,-963.38 464.25,-963.38 464.25,-939.63 428.5,-939.63"/>
<text text-anchor="start" x="432.5" y="-946.08" font-family="Times New Roman,serif" font-size="14.00" fill="darkmagenta">15, 1</text>
</g>
<!-- 4 -->
<g id="node3" class="node">
<title>4</title>
<ellipse fill="none" stroke="black" cx="664.08" cy="-844.42" rx="70.18" ry="27.93"/>
<text text-anchor="middle" x="664.08" y="-839" font-family="Times New Roman,serif" font-size="14.00">4. return digit_list</text>
<text text-anchor="start" x="593.89" y="-859.05" font-family="Times New Roman,serif" font-size="14.00" fill="darkorange">0,14</text>
</g>
<!-- 1&#45;&gt;4 -->
<g id="edge2" class="edge">
<title>1&#45;&gt;4</title>
<path fill="none" stroke="red" stroke-width="5" d="M572.73,-980.9C593.6,-949.94 618.84,-912.51 637.49,-884.85"/>
<polygon fill="red" stroke="red" stroke-width="5" points="640.88,-887.65 642.84,-876.91 633.62,-882.76 640.88,-887.65"/>
<text text-anchor="middle" x="659.58" y="-946.58" font-family="Times New Roman,serif" font-size="14.00">&quot;(n % 2 != 0)&quot;</text>
<text text-anchor="middle" x="659.58" y="-930.83" font-family="Times New Roman,serif" font-size="14.00">c[2]</text>
<text text-anchor="middle" x="659.58" y="-915.08" font-family="Times New Roman,serif" font-size="14.00"> Score: 0.97</text>
<polygon fill="white" stroke="none" points="571.87,-928.18 571.87,-951.93 607.62,-951.93 607.62,-928.18 571.87,-928.18"/>
<text text-anchor="start" x="575.87" y="-934.63" font-family="Times New Roman,serif" font-size="14.00" fill="darkmagenta">0, 14</text>
</g>
<!-- 3 -->
<g id="node4" class="node">
<title>3</title>
<ellipse fill="none" stroke="black" cx="404.08" cy="-708.47" rx="106.95" ry="18"/>
<text text-anchor="middle" x="404.08" y="-703.04" font-family="Times New Roman,serif" font-size="14.00">3. if candidate &gt; digit_list:</text>
<text text-anchor="start" x="273.13" y="-713.17" font-family="Times New Roman,serif" font-size="14.00" fill="darkorange">15,1</text>
</g>
<!-- 2&#45;&gt;3 -->
<g id="edge3" class="edge">
<title>2&#45;&gt;3</title>
<path fill="none" stroke="blue" stroke-width="1.21" d="M404.08,-793.92C404.08,-775.16 404.08,-754.42 404.08,-738.19"/>
<polygon fill="blue" stroke="blue" stroke-width="1.21" points="407.58,-738.59 404.08,-728.59 400.58,-738.59 407.58,-738.59"/>
<text text-anchor="middle" x="437.83" y="-746.92" font-family="Times New Roman,serif" font-size="14.00"> Score: 0.05</text>
<polygon fill="white" stroke="none" points="366.33,-762.21 366.33,-785.96 402.08,-785.96 402.08,-762.21 366.33,-762.21"/>
<text text-anchor="start" x="370.33" y="-768.66" font-family="Times New Roman,serif" font-size="14.00" fill="darkmagenta">15, 1</text>
</g>
<!-- 6 -->
<g id="node5" class="node">
<title>6</title>
<ellipse fill="none" stroke="black" cx="329.08" cy="-595.04" rx="74.42" ry="27.93"/>
<text text-anchor="middle" x="329.08" y="-589.61" font-family="Times New Roman,serif" font-size="14.00">6. return candidate</text>
<text text-anchor="start" x="237.4" y="-609.67" font-family="Times New Roman,serif" font-size="14.00" fill="darkorange">0,0</text>
</g>
<!-- 3&#45;&gt;6 -->
<g id="edge4" class="edge">
<title>3&#45;&gt;6</title>
<path fill="none" stroke="black" d="M381.12,-690.47C374.98,-685.18 368.7,-679 363.83,-672.47 355.11,-660.78 347.9,-646.57 342.35,-633.58"/>
<polygon fill="black" stroke="black" points="345.65,-632.39 338.65,-624.44 339.16,-635.02 345.65,-632.39"/>
<text text-anchor="middle" x="428.2" y="-659.17" font-family="Times New Roman,serif" font-size="14.00">&quot;candidate &gt; digit_list&quot;</text>
<text text-anchor="middle" x="428.2" y="-643.42" font-family="Times New Roman,serif" font-size="14.00">c[3]</text>
<polygon fill="white" stroke="none" points="324.02,-661.06 324.02,-684.81 353.02,-684.81 353.02,-661.06 324.02,-661.06"/>
<text text-anchor="start" x="328.02" y="-667.51" font-family="Times New Roman,serif" font-size="14.00" fill="darkmagenta">0, 0</text>
</g>
<!-- 7 -->
<g id="node6" class="node">
<title>7</title>
<ellipse fill="none" stroke="black" cx="548.08" cy="-595.04" rx="126.41" ry="18"/>
<text text-anchor="middle" x="548.08" y="-589.61" font-family="Times New Roman,serif" font-size="14.00">7. for i in range(mid &#45; 1, &#45;1, &#45;1):</text>
<text text-anchor="start" x="421.66" y="-599.74" font-family="Times New Roman,serif" font-size="14.00" fill="darkorange">15,1</text>
</g>
<!-- 3&#45;&gt;7 -->
<g id="edge5" class="edge">
<title>3&#45;&gt;7</title>
<path fill="none" stroke="blue" stroke-width="1.21" d="M456,-692.37C468.55,-687.27 481.41,-680.72 492.08,-672.47 509.15,-659.26 523.44,-639.5 533.31,-623.39"/>
<polygon fill="blue" stroke="blue" stroke-width="1.21" points="536.18,-625.4 538.22,-615 530.14,-621.86 536.18,-625.4"/>
<text text-anchor="middle" x="593.83" y="-659.17" font-family="Times New Roman,serif" font-size="14.00">&quot;(candidate &lt;= digit_list)&quot;</text>
<text text-anchor="middle" x="593.83" y="-643.42" font-family="Times New Roman,serif" font-size="14.00"> Score: 0.05</text>
<polygon fill="white" stroke="none" points="487.55,-634.62 487.55,-658.37 523.3,-658.37 523.3,-634.62 487.55,-634.62"/>
<text text-anchor="start" x="491.55" y="-641.07" font-family="Times New Roman,serif" font-size="14.00" fill="darkmagenta">15, 1</text>
</g>
<!-- 9 -->
<g id="node7" class="node">
<title>9</title>
<ellipse fill="none" stroke="black" cx="317.08" cy="-455.93" rx="79.2" ry="27.93"/>
<text text-anchor="middle" x="317.08" y="-450.5" font-family="Times New Roman,serif" font-size="14.00">9. if digit_list[i] &lt; 9:</text>
<text text-anchor="start" x="213.88" y="-470.56" font-family="Times New Roman,serif" font-size="14.00" fill="darkorange">15,1</text>
</g>
<!-- 7&#45;&gt;9 -->
<g id="edge6" class="edge">
<title>7&#45;&gt;9</title>
<path fill="none" stroke="blue" stroke-width="1.21" d="M486.13,-578.92C463.1,-571.81 437.36,-561.99 415.83,-549.11 390.17,-533.75 365.58,-510.84 347.36,-491.69"/>
<polygon fill="blue" stroke="blue" stroke-width="1.21" points="350.07,-489.47 340.69,-484.54 344.95,-494.24 350.07,-489.47"/>
<text text-anchor="middle" x="480.2" y="-535.81" font-family="Times New Roman,serif" font-size="14.00">&quot;range(mid &#45; 1, &#45;1, &#45;1)&quot;</text>
<text text-anchor="middle" x="480.2" y="-520.06" font-family="Times New Roman,serif" font-size="14.00">c[4]</text>
<text text-anchor="middle" x="480.2" y="-504.31" font-family="Times New Roman,serif" font-size="14.00"> Score: 0.05</text>
<polygon fill="white" stroke="none" points="367.33,-516.46 367.33,-540.21 403.08,-540.21 403.08,-516.46 367.33,-516.46"/>
<text text-anchor="start" x="371.33" y="-522.91" font-family="Times New Roman,serif" font-size="14.00" fill="darkmagenta">15, 1</text>
</g>
<!-- 10 -->
<g id="node8" class="node">
<title>10</title>
<ellipse fill="none" stroke="black" cx="548.08" cy="-455.93" rx="133.4" ry="18"/>
<text text-anchor="middle" x="548.08" y="-450.5" font-family="Times New Roman,serif" font-size="14.00">10. return [1] + [0] * (n &#45; 1) + [1]</text>
<text text-anchor="start" x="397.43" y="-460.63" font-family="Times New Roman,serif" font-size="14.00" fill="darkorange">0,0</text>
</g>
<!-- 7&#45;&gt;10 -->
<g id="edge7" class="edge">
<title>7&#45;&gt;10</title>
<path fill="none" stroke="black" d="M548.08,-576.67C548.08,-553.7 548.08,-512.9 548.08,-485.39"/>
<polygon fill="black" stroke="black" points="551.58,-485.66 548.08,-475.66 544.58,-485.66 551.58,-485.66"/>
<polygon fill="white" stroke="none" points="550.08,-527.36 550.08,-551.11 579.08,-551.11 579.08,-527.36 550.08,-527.36"/>
<text text-anchor="start" x="554.08" y="-533.81" font-family="Times New Roman,serif" font-size="14.00" fill="darkmagenta">0, 0</text>
</g>
<!-- 11 -->
<g id="node9" class="node">
<title>11</title>
<ellipse fill="none" stroke="black" cx="317.08" cy="-305.68" rx="74.95" ry="39.07"/>
<text text-anchor="middle" x="317.08" y="-308.13" font-family="Times New Roman,serif" font-size="14.00">11. digit_list[i] += 1</text>
<text text-anchor="middle" x="317.08" y="-292.38" font-family="Times New Roman,serif" font-size="14.00">if i != n &#45; i &#45; 1:</text>
<text text-anchor="start" x="218.12" y="-331.45" font-family="Times New Roman,serif" font-size="14.00" fill="darkorange">15,1</text>
</g>
<!-- 9&#45;&gt;11 -->
<g id="edge8" class="edge">
<title>9&#45;&gt;11</title>
<path fill="none" stroke="blue" stroke-width="1.21" d="M317.08,-427.74C317.08,-407.93 317.08,-380.52 317.08,-356.8"/>
<polygon fill="blue" stroke="blue" stroke-width="1.21" points="320.58,-356.97 317.08,-346.97 313.58,-356.97 320.58,-356.97"/>
<text text-anchor="middle" x="363.95" y="-396.7" font-family="Times New Roman,serif" font-size="14.00">&quot;digit_list[i] &lt; 9&quot;</text>
<text text-anchor="middle" x="363.95" y="-380.95" font-family="Times New Roman,serif" font-size="14.00">c[5]</text>
<text text-anchor="middle" x="363.95" y="-365.2" font-family="Times New Roman,serif" font-size="14.00"> Score: 0.05</text>
<polygon fill="white" stroke="none" points="279.33,-388.2 279.33,-411.95 315.08,-411.95 315.08,-388.2 279.33,-388.2"/>
<text text-anchor="start" x="283.33" y="-394.65" font-family="Times New Roman,serif" font-size="14.00" fill="darkmagenta">15, 1</text>
</g>
<!-- 12 -->
<g id="node10" class="node">
<title>12</title>
<ellipse fill="none" stroke="black" cx="568.08" cy="-305.68" rx="95.64" ry="27.93"/>
<text text-anchor="middle" x="568.08" y="-308.13" font-family="Times New Roman,serif" font-size="14.00">12. digit_list[i] = 0</text>
<text text-anchor="middle" x="568.08" y="-292.38" font-family="Times New Roman,serif" font-size="14.00">digit_list[n &#45; i &#45; 1] = 0</text>
<text text-anchor="start" x="455.19" y="-320.31" font-family="Times New Roman,serif" font-size="14.00" fill="darkorange">0,0</text>
</g>
<!-- 9&#45;&gt;12 -->
<g id="edge9" class="edge">
<title>9&#45;&gt;12</title>
<path fill="none" stroke="black" d="M367.22,-433.85C382.82,-426.78 399.9,-418.52 415.08,-410 453.4,-388.46 494.58,-360.35 524.55,-338.88"/>
<polygon fill="black" stroke="black" points="526.58,-341.73 532.64,-333.05 522.48,-336.06 526.58,-341.73"/>
<text text-anchor="middle" x="537.58" y="-380.95" font-family="Times New Roman,serif" font-size="14.00">(digit_list[i] &gt;= 9)</text>
<polygon fill="white" stroke="none" points="422.23,-389.14 422.23,-412.89 451.23,-412.89 451.23,-389.14 422.23,-389.14"/>
<text text-anchor="start" x="426.23" y="-395.59" font-family="Times New Roman,serif" font-size="14.00" fill="darkmagenta">0, 0</text>
</g>
<!-- 13 -->
<g id="node11" class="node">
<title>13</title>
<ellipse fill="none" stroke="black" cx="233.08" cy="-155.43" rx="132.76" ry="27.93"/>
<text text-anchor="middle" x="233.08" y="-150.01" font-family="Times New Roman,serif" font-size="14.00">13. digit_list[n &#45; i &#45; 1] = digit_list[i]</text>
<text text-anchor="start" x="76.32" y="-170.06" font-family="Times New Roman,serif" font-size="14.00" fill="darkorange">15,1</text>
</g>
<!-- 11&#45;&gt;13 -->
<g id="edge10" class="edge">
<title>11&#45;&gt;13</title>
<path fill="none" stroke="blue" stroke-width="1.21" d="M296.31,-268.03C283.42,-245.28 266.91,-216.13 253.99,-193.33"/>
<polygon fill="blue" stroke="blue" stroke-width="1.21" points="257.2,-191.91 249.23,-184.94 251.11,-195.36 257.2,-191.91"/>
<text text-anchor="middle" x="322.95" y="-235.31" font-family="Times New Roman,serif" font-size="14.00">&quot;i != n &#45; i &#45; 1&quot;</text>
<text text-anchor="middle" x="322.95" y="-219.56" font-family="Times New Roman,serif" font-size="14.00">c[6]</text>
<text text-anchor="middle" x="322.95" y="-203.81" font-family="Times New Roman,serif" font-size="14.00"> Score: 0.05</text>
<polygon fill="white" stroke="none" points="234.48,-227.53 234.48,-251.28 270.23,-251.28 270.23,-227.53 234.48,-227.53"/>
<text text-anchor="start" x="238.48" y="-233.98" font-family="Times New Roman,serif" font-size="14.00" fill="darkmagenta">15, 1</text>
</g>
<!-- 14 -->
<g id="node12" class="node">
<title>14</title>
<ellipse fill="none" stroke="black" cx="317.08" cy="-41.75" rx="293.08" ry="18"/>
<text text-anchor="middle" x="317.08" y="-36.33" font-family="Times New Roman,serif" font-size="14.00">14. return digit_list[:mid] + [digit_list[mid]] * (n % 2) + digit_list[mid &#45; 1::&#45;1]</text>
<text text-anchor="start" x="0" y="-46.45" font-family="Times New Roman,serif" font-size="14.00" fill="darkorange">15,1</text>
</g>
<!-- 11&#45;&gt;14 -->
<g id="edge11" class="edge">
<title>11&#45;&gt;14</title>
<path fill="none" stroke="black" d="M351.32,-270.57C356.65,-263.75 361.55,-256.3 365.08,-248.61 387.59,-199.52 382.46,-181 375.08,-127.5 371.94,-104.75 373.79,-96.88 361.08,-77.75 358.72,-74.21 355.9,-70.86 352.83,-67.74"/>
<polygon fill="black" stroke="black" points="355.18,-65.15 345.41,-61.05 350.49,-70.35 355.18,-65.15"/>
<text text-anchor="middle" x="420.33" y="-150.01" font-family="Times New Roman,serif" font-size="14.00">(i == n &#45; i &#45; 1)</text>
<polygon fill="white" stroke="none" points="381.82,-164.33 381.82,-188.08 410.82,-188.08 410.82,-164.33 381.82,-164.33"/>
<text text-anchor="start" x="385.82" y="-170.78" font-family="Times New Roman,serif" font-size="14.00" fill="darkmagenta">0, 0</text>
</g>
<!-- 12&#45;&gt;7 -->
<g id="edge13" class="edge">
<title>12&#45;&gt;7</title>
<path fill="none" stroke="black" d="M606.41,-331.61C652.03,-364.62 718.66,-425.5 690.08,-483.86 670.42,-523.98 628.33,-553.69 595.05,-572.08"/>
<polygon fill="black" stroke="black" points="593.55,-568.92 586.37,-576.71 596.84,-575.09 593.55,-568.92"/>
<polygon fill="white" stroke="none" points="634.67,-520.79 634.67,-544.54 663.67,-544.54 663.67,-520.79 634.67,-520.79"/>
<text text-anchor="start" x="638.67" y="-527.24" font-family="Times New Roman,serif" font-size="14.00" fill="darkmagenta">0, 0</text>
</g>
<!-- 13&#45;&gt;14 -->
<g id="edge12" class="edge">
<title>13&#45;&gt;14</title>
<path fill="none" stroke="blue" stroke-width="1.21" d="M253.41,-127.4C266.68,-109.75 283.93,-86.81 297.13,-69.27"/>
<polygon fill="blue" stroke="blue" stroke-width="1.21" points="299.68,-71.7 302.89,-61.61 294.09,-67.49 299.68,-71.7"/>
<text text-anchor="middle" x="323.83" y="-80.2" font-family="Times New Roman,serif" font-size="14.00"> Score: 0.05</text>
<polygon fill="white" stroke="none" points="240.76,-96.02 240.76,-119.77 276.51,-119.77 276.51,-96.02 240.76,-96.02"/>
<text text-anchor="start" x="244.76" y="-102.47" font-family="Times New Roman,serif" font-size="14.00" fill="darkmagenta">15, 1</text>
</g>
</g>
</svg>
