<?xml version="1.0" encoding="UTF-8" standalone="no"?>
<!DOCTYPE svg PUBLIC "-//W3C//DTD SVG 1.1//EN"
 "http://www.w3.org/Graphics/SVG/1.1/DTD/svg11.dtd">
<!-- Generated by graphviz version 12.1.0 (20240811.2233)
 -->
<!-- Title: clusternext_palindrome Pages: 1 -->
<svg width="754pt" height="1157pt"
 viewBox="0.00 0.00 753.92 1156.91" xmlns="http://www.w3.org/2000/svg" xmlns:xlink="http://www.w3.org/1999/xlink">
<g id="graph0" class="graph" transform="scale(1 1) rotate(0) translate(4 1152.91)">
<title>clusternext_palindrome</title>
<polygon fill="white" stroke="none" points="-4,4 -4,-1152.91 749.92,-1152.91 749.92,4 -4,4"/>
<text text-anchor="middle" x="372.96" y="-7.2" font-family="Times New Roman,serif" font-size="14.00">next_palindrome</text>
<!-- 1 -->
<g id="node1" class="node">
<title>1</title>
<ellipse fill="none" stroke="black" cx="546.21" cy="-1068.41" rx="120.03" ry="63.99"/>
<text text-anchor="middle" x="546.21" y="-1088.11" font-family="Times New Roman,serif" font-size="14.00">1. digit_list = sorted(digit_list)</text>
<text text-anchor="middle" x="546.21" y="-1071.61" font-family="Times New Roman,serif" font-size="14.00">n = len(digit_list)</text>
<text text-anchor="middle" x="546.21" y="-1055.11" font-family="Times New Roman,serif" font-size="14.00">mid = n // 2</text>
<text text-anchor="middle" x="546.21" y="-1038.61" font-family="Times New Roman,serif" font-size="14.00">if n % 2 == 0:</text>
<text text-anchor="start" x="395.43" y="-1119.11" font-family="Times New Roman,serif" font-size="14.00" fill="darkorange">15,15</text>
</g>
<!-- 2 -->
<g id="node2" class="node">
<title>2</title>
<ellipse fill="none" stroke="black" cx="418.21" cy="-866.59" rx="168.29" ry="52.33"/>
<text text-anchor="middle" x="418.21" y="-878.04" font-family="Times New Roman,serif" font-size="14.00">2. left_side = digit_list[:mid]</text>
<text text-anchor="middle" x="418.21" y="-861.54" font-family="Times New Roman,serif" font-size="14.00">left_side_reverse = left_side[::&#45;1]</text>
<text text-anchor="middle" x="418.21" y="-845.04" font-family="Times New Roman,serif" font-size="14.00">candidate = left_side + left_side_reverse</text>
<text text-anchor="start" x="225.92" y="-905.62" font-family="Times New Roman,serif" font-size="14.00" fill="darkorange">15,1</text>
</g>
<!-- 1&#45;&gt;2 -->
<g id="edge1" class="edge">
<title>1&#45;&gt;2</title>
<path fill="none" stroke="blue" stroke-width="1.21" d="M507.8,-1007.46C491.75,-982.39 473.12,-953.31 457.02,-928.17"/>
<polygon fill="blue" stroke="blue" stroke-width="1.21" points="460.08,-926.46 451.73,-919.93 454.18,-930.24 460.08,-926.46"/>
<text text-anchor="middle" x="531.55" y="-973.12" font-family="Times New Roman,serif" font-size="14.00">&quot;n % 2 == 0&quot;</text>
<text text-anchor="middle" x="531.55" y="-956.62" font-family="Times New Roman,serif" font-size="14.00">c[1]</text>
<text text-anchor="middle" x="531.55" y="-940.12" font-family="Times New Roman,serif" font-size="14.00"> Score: 0.05</text>
<polygon fill="white" stroke="none" points="441.63,-965.08 441.63,-989.58 477.38,-989.58 477.38,-965.08 441.63,-965.08"/>
<text text-anchor="start" x="445.63" y="-972.28" font-family="Times New Roman,serif" font-size="14.00" fill="darkmagenta">15, 1</text>
</g>
<!-- 4 -->
<g id="node3" class="node">
<title>4</title>
<ellipse fill="none" stroke="black" cx="675.21" cy="-866.59" rx="70.71" ry="28.99"/>
<text text-anchor="middle" x="675.21" y="-861.54" font-family="Times New Roman,serif" font-size="14.00">4. return digit_list</text>
<text text-anchor="start" x="604.5" y="-882.28" font-family="Times New Roman,serif" font-size="14.00" fill="darkorange">0,14</text>
</g>
<!-- 1&#45;&gt;4 -->
<g id="edge2" class="edge">
<title>1&#45;&gt;4</title>
<path fill="none" stroke="red" stroke-width="5" d="M584.91,-1007.46C605.55,-975.5 630.4,-937 648.8,-908.5"/>
<polygon fill="red" stroke="red" stroke-width="5" points="652.39,-911 654.14,-900.22 645.04,-906.25 652.39,-911"/>
<text text-anchor="middle" x="670.3" y="-973.12" font-family="Times New Roman,serif" font-size="14.00">&quot;(n % 2 != 0)&quot;</text>
<text text-anchor="middle" x="670.3" y="-956.62" font-family="Times New Roman,serif" font-size="14.00">c[2]</text>
<text text-anchor="middle" x="670.3" y="-940.12" font-family="Times New Roman,serif" font-size="14.00"> Score: 0.97</text>
<polygon fill="white" stroke="none" points="583.57,-953.06 583.57,-977.56 619.32,-977.56 619.32,-953.06 583.57,-953.06"/>
<text text-anchor="start" x="587.57" y="-960.26" font-family="Times New Roman,serif" font-size="14.00" fill="darkmagenta">0, 14</text>
</g>
<!-- 3 -->
<g id="node4" class="node">
<title>3</title>
<ellipse fill="none" stroke="black" cx="418.21" cy="-727.77" rx="110.21" ry="18"/>
<text text-anchor="middle" x="418.21" y="-722.72" font-family="Times New Roman,serif" font-size="14.00">3. if candidate &gt; digit_list:</text>
<text text-anchor="start" x="284" y="-732.47" font-family="Times New Roman,serif" font-size="14.00" fill="darkorange">15,1</text>
</g>
<!-- 2&#45;&gt;3 -->
<g id="edge3" class="edge">
<title>2&#45;&gt;3</title>
<path fill="none" stroke="blue" stroke-width="1.21" d="M418.21,-813.86C418.21,-794.81 418.21,-773.91 418.21,-757.6"/>
<polygon fill="blue" stroke="blue" stroke-width="1.21" points="421.71,-757.94 418.21,-747.94 414.71,-757.94 421.71,-757.94"/>
<text text-anchor="middle" x="451.21" y="-766.97" font-family="Times New Roman,serif" font-size="14.00"> Score: 0.05</text>
<polygon fill="white" stroke="none" points="380.46,-782.21 380.46,-806.71 416.21,-806.71 416.21,-782.21 380.46,-782.21"/>
<text text-anchor="start" x="384.46" y="-789.41" font-family="Times New Roman,serif" font-size="14.00" fill="darkmagenta">15, 1</text>
</g>
<!-- 6 -->
<g id="node5" class="node">
<title>6</title>
<ellipse fill="none" stroke="black" cx="343.21" cy="-611.77" rx="73.36" ry="28.99"/>
<text text-anchor="middle" x="343.21" y="-606.72" font-family="Times New Roman,serif" font-size="14.00">6. return candidate</text>
<text text-anchor="start" x="252.6" y="-627.47" font-family="Times New Roman,serif" font-size="14.00" fill="darkorange">0,0</text>
</g>
<!-- 3&#45;&gt;6 -->
<g id="edge4" class="edge">
<title>3&#45;&gt;6</title>
<path fill="none" stroke="black" d="M397.32,-709.86C391.48,-704.48 385.44,-698.23 380.71,-691.77 371.73,-679.49 364.03,-664.72 357.99,-651.29"/>
<polygon fill="black" stroke="black" points="361.28,-650.07 354.11,-642.27 354.85,-652.84 361.28,-650.07"/>
<text text-anchor="middle" x="444.46" y="-678.47" font-family="Times New Roman,serif" font-size="14.00">&quot;candidate &gt; digit_list&quot;</text>
<text text-anchor="middle" x="444.46" y="-661.97" font-family="Times New Roman,serif" font-size="14.00">c[3]</text>
<polygon fill="white" stroke="none" points="340.54,-679.74 340.54,-704.24 369.54,-704.24 369.54,-679.74 340.54,-679.74"/>
<text text-anchor="start" x="344.54" y="-686.94" font-family="Times New Roman,serif" font-size="14.00" fill="darkmagenta">0, 0</text>
</g>
<!-- 7 -->
<g id="node6" class="node">
<title>7</title>
<ellipse fill="none" stroke="black" cx="566.21" cy="-611.77" rx="131.19" ry="18"/>
<text text-anchor="middle" x="566.21" y="-606.72" font-family="Times New Roman,serif" font-size="14.00">7. for i in range(mid &#45; 1, &#45;1, &#45;1):</text>
<text text-anchor="start" x="435.01" y="-616.47" font-family="Times New Roman,serif" font-size="14.00" fill="darkorange">15,1</text>
</g>
<!-- 3&#45;&gt;7 -->
<g id="edge5" class="edge">
<title>3&#45;&gt;7</title>
<path fill="none" stroke="blue" stroke-width="1.21" d="M471.77,-711.64C484.47,-706.57 497.43,-700.03 508.21,-691.77 526.32,-677.88 541.38,-656.85 551.61,-639.98"/>
<polygon fill="blue" stroke="blue" stroke-width="1.21" points="554.42,-642.1 556.42,-631.7 548.37,-638.59 554.42,-642.1"/>
<text text-anchor="middle" x="611.5" y="-678.47" font-family="Times New Roman,serif" font-size="14.00">&quot;(candidate &lt;= digit_list)&quot;</text>
<text text-anchor="middle" x="611.5" y="-661.97" font-family="Times New Roman,serif" font-size="14.00"> Score: 0.05</text>
<polygon fill="white" stroke="none" points="504.85,-652.1 504.85,-676.6 540.6,-676.6 540.6,-652.1 504.85,-652.1"/>
<text text-anchor="start" x="508.85" y="-659.3" font-family="Times New Roman,serif" font-size="14.00" fill="darkmagenta">15, 1</text>
</g>
<!-- 9 -->
<g id="node7" class="node">
<title>9</title>
<ellipse fill="none" stroke="black" cx="330.21" cy="-468.29" rx="81.32" ry="28.99"/>
<text text-anchor="middle" x="330.21" y="-463.24" font-family="Times New Roman,serif" font-size="14.00">9. if digit_list[i] &lt; 9:</text>
<text text-anchor="start" x="224.89" y="-483.98" font-family="Times New Roman,serif" font-size="14.00" fill="darkorange">15,1</text>
</g>
<!-- 7&#45;&gt;9 -->
<g id="edge6" class="edge">
<title>7&#45;&gt;9</title>
<path fill="none" stroke="blue" stroke-width="1.21" d="M504.94,-595.42C481.54,-588.09 455.21,-577.98 433.21,-564.78 406.43,-548.72 380.67,-524.84 361.61,-504.97"/>
<polygon fill="blue" stroke="blue" stroke-width="1.21" points="364.26,-502.68 354.86,-497.79 359.16,-507.47 364.26,-502.68"/>
<text text-anchor="middle" x="497.71" y="-551.48" font-family="Times New Roman,serif" font-size="14.00">&quot;range(mid &#45; 1, &#45;1, &#45;1)&quot;</text>
<text text-anchor="middle" x="497.71" y="-534.98" font-family="Times New Roman,serif" font-size="14.00">c[4]</text>
<text text-anchor="middle" x="497.71" y="-518.48" font-family="Times New Roman,serif" font-size="14.00"> Score: 0.05</text>
<polygon fill="white" stroke="none" points="383.62,-530.65 383.62,-555.15 419.37,-555.15 419.37,-530.65 383.62,-530.65"/>
<text text-anchor="start" x="387.62" y="-537.85" font-family="Times New Roman,serif" font-size="14.00" fill="darkmagenta">15, 1</text>
</g>
<!-- 10 -->
<g id="node8" class="node">
<title>10</title>
<ellipse fill="none" stroke="black" cx="566.21" cy="-468.29" rx="136.82" ry="18"/>
<text text-anchor="middle" x="566.21" y="-463.24" font-family="Times New Roman,serif" font-size="14.00">10. return [1] + [0] * (n &#45; 1) + [1]</text>
<text text-anchor="start" x="412.13" y="-472.99" font-family="Times New Roman,serif" font-size="14.00" fill="darkorange">0,0</text>
</g>
<!-- 7&#45;&gt;10 -->
<g id="edge7" class="edge">
<title>7&#45;&gt;10</title>
<path fill="none" stroke="black" d="M566.21,-593.43C566.21,-569.67 566.21,-526.69 566.21,-498.07"/>
<polygon fill="black" stroke="black" points="569.71,-498.3 566.21,-488.3 562.71,-498.3 569.71,-498.3"/>
<polygon fill="white" stroke="none" points="568.21,-542.25 568.21,-566.75 597.21,-566.75 597.21,-542.25 568.21,-542.25"/>
<text text-anchor="start" x="572.21" y="-549.45" font-family="Times New Roman,serif" font-size="14.00" fill="darkmagenta">0, 0</text>
</g>
<!-- 11 -->
<g id="node9" class="node">
<title>11</title>
<ellipse fill="none" stroke="black" cx="330.21" cy="-313.14" rx="76.01" ry="40.66"/>
<text text-anchor="middle" x="330.21" y="-316.34" font-family="Times New Roman,serif" font-size="14.00">11. digit_list[i] += 1</text>
<text text-anchor="middle" x="330.21" y="-299.84" font-family="Times New Roman,serif" font-size="14.00">if i != n &#45; i &#45; 1:</text>
<text text-anchor="start" x="230.19" y="-340.5" font-family="Times New Roman,serif" font-size="14.00" fill="darkorange">15,1</text>
</g>
<!-- 9&#45;&gt;11 -->
<g id="edge8" class="edge">
<title>9&#45;&gt;11</title>
<path fill="none" stroke="blue" stroke-width="1.21" d="M330.21,-438.84C330.21,-418.4 330.21,-390.26 330.21,-365.89"/>
<polygon fill="blue" stroke="blue" stroke-width="1.21" points="333.71,-366.1 330.21,-356.1 326.71,-366.1 333.71,-366.1"/>
<text text-anchor="middle" x="377.83" y="-408" font-family="Times New Roman,serif" font-size="14.00">&quot;digit_list[i] &lt; 9&quot;</text>
<text text-anchor="middle" x="377.83" y="-391.5" font-family="Times New Roman,serif" font-size="14.00">c[5]</text>
<text text-anchor="middle" x="377.83" y="-375" font-family="Times New Roman,serif" font-size="14.00"> Score: 0.05</text>
<polygon fill="white" stroke="none" points="292.46,-398.39 292.46,-422.89 328.21,-422.89 328.21,-398.39 292.46,-398.39"/>
<text text-anchor="start" x="296.46" y="-405.59" font-family="Times New Roman,serif" font-size="14.00" fill="darkmagenta">15, 1</text>
</g>
<!-- 12 -->
<g id="node10" class="node">
<title>12</title>
<ellipse fill="none" stroke="black" cx="586.21" cy="-313.14" rx="96.7" ry="28.99"/>
<text text-anchor="middle" x="586.21" y="-316.34" font-family="Times New Roman,serif" font-size="14.00">12. digit_list[i] = 0</text>
<text text-anchor="middle" x="586.21" y="-299.84" font-family="Times New Roman,serif" font-size="14.00">digit_list[n &#45; i &#45; 1] = 0</text>
<text text-anchor="start" x="472.26" y="-328.83" font-family="Times New Roman,serif" font-size="14.00" fill="darkorange">0,0</text>
</g>
<!-- 9&#45;&gt;12 -->
<g id="edge9" class="edge">
<title>9&#45;&gt;12</title>
<path fill="none" stroke="black" d="M381.38,-445.46C397,-438.28 414.05,-429.92 429.21,-421.3 468.73,-398.83 511.17,-369.52 541.96,-347.23"/>
<polygon fill="black" stroke="black" points="543.87,-350.16 549.9,-341.45 539.75,-344.51 543.87,-350.16"/>
<text text-anchor="middle" x="554.2" y="-391.5" font-family="Times New Roman,serif" font-size="14.00">(digit_list[i] &gt;= 9)</text>
<polygon fill="white" stroke="none" points="438.01,-399.16 438.01,-423.66 467.01,-423.66 467.01,-399.16 438.01,-399.16"/>
<text text-anchor="start" x="442.01" y="-406.36" font-family="Times New Roman,serif" font-size="14.00" fill="darkmagenta">0, 0</text>
</g>
<!-- 13 -->
<g id="node11" class="node">
<title>13</title>
<ellipse fill="none" stroke="black" cx="244.21" cy="-157.99" rx="134.88" ry="28.99"/>
<text text-anchor="middle" x="244.21" y="-152.94" font-family="Times New Roman,serif" font-size="14.00">13. digit_list[n &#45; i &#45; 1] = digit_list[i]</text>
<text text-anchor="start" x="85.33" y="-173.68" font-family="Times New Roman,serif" font-size="14.00" fill="darkorange">15,1</text>
</g>
<!-- 11&#45;&gt;13 -->
<g id="edge10" class="edge">
<title>11&#45;&gt;13</title>
<path fill="none" stroke="blue" stroke-width="1.21" d="M308.73,-273.89C295.61,-250.53 278.9,-220.77 265.77,-197.39"/>
<polygon fill="blue" stroke="blue" stroke-width="1.21" points="268.86,-195.73 260.91,-188.73 262.75,-199.16 268.86,-195.73"/>
<text text-anchor="middle" x="336.07" y="-241.18" font-family="Times New Roman,serif" font-size="14.00">&quot;i != n &#45; i &#45; 1&quot;</text>
<text text-anchor="middle" x="336.07" y="-224.68" font-family="Times New Roman,serif" font-size="14.00">c[6]</text>
<text text-anchor="middle" x="336.07" y="-208.18" font-family="Times New Roman,serif" font-size="14.00"> Score: 0.05</text>
<polygon fill="white" stroke="none" points="246.53,-232.36 246.53,-256.86 282.28,-256.86 282.28,-232.36 246.53,-232.36"/>
<text text-anchor="start" x="250.53" y="-239.56" font-family="Times New Roman,serif" font-size="14.00" fill="darkmagenta">15, 1</text>
</g>
<!-- 14 -->
<g id="node12" class="node">
<title>14</title>
<ellipse fill="none" stroke="black" cx="329.21" cy="-42.5" rx="305.21" ry="18"/>
<text text-anchor="middle" x="329.21" y="-37.45" font-family="Times New Roman,serif" font-size="14.00">14. return digit_list[:mid] + [digit_list[mid]] * (n % 2) + digit_list[mid &#45; 1::&#45;1]</text>
<text text-anchor="start" x="0" y="-47.2" font-family="Times New Roman,serif" font-size="14.00" fill="darkorange">15,1</text>
</g>
<!-- 11&#45;&gt;14 -->
<g id="edge11" class="edge">
<title>11&#45;&gt;14</title>
<path fill="none" stroke="black" d="M364.72,-276.65C369.95,-269.73 374.75,-262.21 378.21,-254.48 401.05,-203.41 396.76,-184.29 388.21,-129 384.61,-105.73 385.45,-97.97 372.21,-78.5 369.72,-74.84 366.74,-71.37 363.53,-68.14"/>
<polygon fill="black" stroke="black" points="366.09,-65.73 356.32,-61.63 361.4,-70.93 366.09,-65.73"/>
<text text-anchor="middle" x="434.06" y="-152.94" font-family="Times New Roman,serif" font-size="14.00">(i == n &#45; i &#45; 1)</text>
<polygon fill="white" stroke="none" points="395.49,-166.99 395.49,-191.49 424.49,-191.49 424.49,-166.99 395.49,-166.99"/>
<text text-anchor="start" x="399.49" y="-174.19" font-family="Times New Roman,serif" font-size="14.00" fill="darkmagenta">0, 0</text>
</g>
<!-- 12&#45;&gt;7 -->
<g id="edge13" class="edge">
<title>12&#45;&gt;7</title>
<path fill="none" stroke="black" d="M625.79,-339.91C672.91,-374.03 741.72,-436.96 712.21,-497.28 691.73,-539.15 647.52,-570.03 613.09,-588.92"/>
<polygon fill="black" stroke="black" points="611.74,-585.67 604.55,-593.45 615.02,-591.85 611.74,-585.67"/>
<polygon fill="white" stroke="none" points="655.7,-535.69 655.7,-560.19 684.7,-560.19 684.7,-535.69 655.7,-535.69"/>
<text text-anchor="start" x="659.7" y="-542.89" font-family="Times New Roman,serif" font-size="14.00" fill="darkmagenta">0, 0</text>
</g>
<!-- 13&#45;&gt;14 -->
<g id="edge12" class="edge">
<title>13&#45;&gt;14</title>
<path fill="none" stroke="blue" stroke-width="1.21" d="M265.22,-128.94C278.74,-110.88 296.2,-87.57 309.47,-69.86"/>
<polygon fill="blue" stroke="blue" stroke-width="1.21" points="312.07,-72.23 315.26,-62.12 306.46,-68.03 312.07,-72.23"/>
<text text-anchor="middle" x="334.71" y="-81.7" font-family="Times New Roman,serif" font-size="14.00"> Score: 0.05</text>
<polygon fill="white" stroke="none" points="252.94,-96.93 252.94,-121.43 288.69,-121.43 288.69,-96.93 252.94,-96.93"/>
<text text-anchor="start" x="256.94" y="-104.13" font-family="Times New Roman,serif" font-size="14.00" fill="darkmagenta">15, 1</text>
</g>
</g>
</svg>
