<?xml version="1.0" encoding="UTF-8" standalone="no"?>
<!DOCTYPE svg PUBLIC "-//W3C//DTD SVG 1.1//EN"
 "http://www.w3.org/Graphics/SVG/1.1/DTD/svg11.dtd">
<!-- Generated by graphviz version 12.1.0 (20240811.2233)
 -->
<!-- Title: clusternext_palindrome Pages: 1 -->
<svg width="665pt" height="1135pt"
 viewBox="0.00 0.00 664.92 1134.92" xmlns="http://www.w3.org/2000/svg" xmlns:xlink="http://www.w3.org/1999/xlink">
<g id="graph0" class="graph" transform="scale(1 1) rotate(0) translate(4 1130.92)">
<title>clusternext_palindrome</title>
<polygon fill="white" stroke="none" points="-4,4 -4,-1130.92 660.92,-1130.92 660.92,4 -4,4"/>
<text text-anchor="middle" x="328.46" y="-7.2" font-family="Times New Roman,serif" font-size="14.00">next_palindrome</text>
<!-- 1 -->
<g id="node1" class="node">
<title>1</title>
<ellipse fill="none" stroke="black" cx="457.21" cy="-1046.43" rx="120.03" ry="63.99"/>
<text text-anchor="middle" x="457.21" y="-1066.13" font-family="Times New Roman,serif" font-size="14.00">1. digit_list = sorted(digit_list)</text>
<text text-anchor="middle" x="457.21" y="-1049.63" font-family="Times New Roman,serif" font-size="14.00">n = len(digit_list)</text>
<text text-anchor="middle" x="457.21" y="-1033.13" font-family="Times New Roman,serif" font-size="14.00">mid = n // 2</text>
<text text-anchor="middle" x="457.21" y="-1016.63" font-family="Times New Roman,serif" font-size="14.00">if n % 2 == 0:</text>
<text text-anchor="start" x="306.43" y="-1097.12" font-family="Times New Roman,serif" font-size="14.00" fill="darkorange">15,15</text>
</g>
<!-- 2 -->
<g id="node2" class="node">
<title>2</title>
<ellipse fill="none" stroke="black" cx="329.21" cy="-844.61" rx="168.29" ry="52.33"/>
<text text-anchor="middle" x="329.21" y="-856.06" font-family="Times New Roman,serif" font-size="14.00">2. left_side = digit_list[:mid]</text>
<text text-anchor="middle" x="329.21" y="-839.56" font-family="Times New Roman,serif" font-size="14.00">left_side_reverse = left_side[::&#45;1]</text>
<text text-anchor="middle" x="329.21" y="-823.06" font-family="Times New Roman,serif" font-size="14.00">candidate = left_side + left_side_reverse</text>
<text text-anchor="start" x="136.92" y="-883.63" font-family="Times New Roman,serif" font-size="14.00" fill="darkorange">15,1</text>
</g>
<!-- 1&#45;&gt;2 -->
<g id="edge1" class="edge">
<title>1&#45;&gt;2</title>
<path fill="none" stroke="blue" stroke-width="1.21" d="M418.8,-985.48C402.75,-960.41 384.12,-931.32 368.02,-906.19"/>
<polygon fill="blue" stroke="blue" stroke-width="1.21" points="371.08,-904.48 362.73,-897.95 365.18,-908.25 371.08,-904.48"/>
<text text-anchor="middle" x="442.55" y="-951.13" font-family="Times New Roman,serif" font-size="14.00">&quot;n % 2 == 0&quot;</text>
<text text-anchor="middle" x="442.55" y="-934.63" font-family="Times New Roman,serif" font-size="14.00">c[1]</text>
<text text-anchor="middle" x="442.55" y="-918.13" font-family="Times New Roman,serif" font-size="14.00"> Score: 0.05</text>
<polygon fill="white" stroke="none" points="352.63,-943.1 352.63,-967.6 388.38,-967.6 388.38,-943.1 352.63,-943.1"/>
<text text-anchor="start" x="356.63" y="-950.3" font-family="Times New Roman,serif" font-size="14.00" fill="darkmagenta">15, 1</text>
</g>
<!-- 4 -->
<g id="node3" class="node">
<title>4</title>
<ellipse fill="none" stroke="black" cx="586.21" cy="-844.61" rx="70.71" ry="28.99"/>
<text text-anchor="middle" x="586.21" y="-839.56" font-family="Times New Roman,serif" font-size="14.00">4. return digit_list</text>
<text text-anchor="start" x="515.5" y="-860.3" font-family="Times New Roman,serif" font-size="14.00" fill="darkorange">0,14</text>
</g>
<!-- 1&#45;&gt;4 -->
<g id="edge2" class="edge">
<title>1&#45;&gt;4</title>
<path fill="none" stroke="red" stroke-width="5" d="M495.91,-985.48C516.55,-953.51 541.4,-915.02 559.8,-886.52"/>
<polygon fill="red" stroke="red" stroke-width="5" points="563.39,-889.02 565.14,-878.24 556.04,-884.27 563.39,-889.02"/>
<text text-anchor="middle" x="581.3" y="-951.13" font-family="Times New Roman,serif" font-size="14.00">&quot;(n % 2 != 0)&quot;</text>
<text text-anchor="middle" x="581.3" y="-934.63" font-family="Times New Roman,serif" font-size="14.00">c[2]</text>
<text text-anchor="middle" x="581.3" y="-918.13" font-family="Times New Roman,serif" font-size="14.00"> Score: 0.97</text>
<polygon fill="white" stroke="none" points="494.57,-931.08 494.57,-955.58 530.32,-955.58 530.32,-931.08 494.57,-931.08"/>
<text text-anchor="start" x="498.57" y="-938.28" font-family="Times New Roman,serif" font-size="14.00" fill="darkmagenta">0, 14</text>
</g>
<!-- 3 -->
<g id="node4" class="node">
<title>3</title>
<ellipse fill="none" stroke="black" cx="329.21" cy="-705.78" rx="110.21" ry="18"/>
<text text-anchor="middle" x="329.21" y="-700.73" font-family="Times New Roman,serif" font-size="14.00">3. if candidate &gt; digit_list:</text>
<text text-anchor="start" x="195" y="-710.48" font-family="Times New Roman,serif" font-size="14.00" fill="darkorange">15,1</text>
</g>
<!-- 2&#45;&gt;3 -->
<g id="edge3" class="edge">
<title>2&#45;&gt;3</title>
<path fill="none" stroke="blue" stroke-width="1.21" d="M329.21,-791.88C329.21,-772.82 329.21,-751.93 329.21,-735.61"/>
<polygon fill="blue" stroke="blue" stroke-width="1.21" points="332.71,-735.96 329.21,-725.96 325.71,-735.96 332.71,-735.96"/>
<text text-anchor="middle" x="362.21" y="-744.98" font-family="Times New Roman,serif" font-size="14.00"> Score: 0.05</text>
<polygon fill="white" stroke="none" points="291.46,-760.23 291.46,-784.73 327.21,-784.73 327.21,-760.23 291.46,-760.23"/>
<text text-anchor="start" x="295.46" y="-767.43" font-family="Times New Roman,serif" font-size="14.00" fill="darkmagenta">15, 1</text>
</g>
<!-- 7 -->
<g id="node5" class="node">
<title>7</title>
<ellipse fill="none" stroke="black" cx="329.21" cy="-600.78" rx="131.19" ry="18"/>
<text text-anchor="middle" x="329.21" y="-595.73" font-family="Times New Roman,serif" font-size="14.00">7. for i in range(mid &#45; 1, &#45;1, &#45;1):</text>
<text text-anchor="start" x="174.01" y="-605.48" font-family="Times New Roman,serif" font-size="14.00" fill="darkorange">15,1</text>
</g>
<!-- 3&#45;&gt;7 -->
<g id="edge4" class="edge">
<title>3&#45;&gt;7</title>
<path fill="none" stroke="blue" stroke-width="1.21" d="M329.21,-687.31C329.21,-671.83 329.21,-648.92 329.21,-630.71"/>
<polygon fill="blue" stroke="blue" stroke-width="1.21" points="332.71,-630.82 329.21,-620.82 325.71,-630.82 332.71,-630.82"/>
<text text-anchor="middle" x="401.58" y="-656.48" font-family="Times New Roman,serif" font-size="14.00">&quot;(candidate &lt;= digit_list)&quot;</text>
<text text-anchor="middle" x="401.58" y="-639.98" font-family="Times New Roman,serif" font-size="14.00"> Score: 0.05</text>
<polygon fill="white" stroke="none" points="291.46,-655.01 291.46,-679.51 327.21,-679.51 327.21,-655.01 291.46,-655.01"/>
<text text-anchor="start" x="295.46" y="-662.21" font-family="Times New Roman,serif" font-size="14.00" fill="darkmagenta">15, 1</text>
</g>
<!-- 9 -->
<g id="node6" class="node">
<title>9</title>
<ellipse fill="none" stroke="black" cx="329.21" cy="-468.29" rx="81.32" ry="28.99"/>
<text text-anchor="middle" x="329.21" y="-463.24" font-family="Times New Roman,serif" font-size="14.00">9. if digit_list[i] &lt; 9:</text>
<text text-anchor="start" x="223.89" y="-483.98" font-family="Times New Roman,serif" font-size="14.00" fill="darkorange">15,1</text>
</g>
<!-- 7&#45;&gt;9 -->
<g id="edge5" class="edge">
<title>7&#45;&gt;9</title>
<path fill="none" stroke="blue" stroke-width="1.21" d="M329.21,-582.45C329.21,-563.87 329.21,-533.71 329.21,-509.2"/>
<polygon fill="blue" stroke="blue" stroke-width="1.21" points="332.71,-509.53 329.21,-499.53 325.71,-509.53 332.71,-509.53"/>
<text text-anchor="middle" x="393.71" y="-551.48" font-family="Times New Roman,serif" font-size="14.00">&quot;range(mid &#45; 1, &#45;1, &#45;1)&quot;</text>
<text text-anchor="middle" x="393.71" y="-534.98" font-family="Times New Roman,serif" font-size="14.00">c[4]</text>
<text text-anchor="middle" x="393.71" y="-518.48" font-family="Times New Roman,serif" font-size="14.00"> Score: 0.05</text>
<polygon fill="white" stroke="none" points="291.46,-542.1 291.46,-566.6 327.21,-566.6 327.21,-542.1 291.46,-542.1"/>
<text text-anchor="start" x="295.46" y="-549.3" font-family="Times New Roman,serif" font-size="14.00" fill="darkmagenta">15, 1</text>
</g>
<!-- 11 -->
<g id="node7" class="node">
<title>11</title>
<ellipse fill="none" stroke="black" cx="329.21" cy="-313.14" rx="76.01" ry="40.66"/>
<text text-anchor="middle" x="329.21" y="-316.34" font-family="Times New Roman,serif" font-size="14.00">11. digit_list[i] += 1</text>
<text text-anchor="middle" x="329.21" y="-299.84" font-family="Times New Roman,serif" font-size="14.00">if i != n &#45; i &#45; 1:</text>
<text text-anchor="start" x="229.19" y="-340.5" font-family="Times New Roman,serif" font-size="14.00" fill="darkorange">15,1</text>
</g>
<!-- 9&#45;&gt;11 -->
<g id="edge6" class="edge">
<title>9&#45;&gt;11</title>
<path fill="none" stroke="blue" stroke-width="1.21" d="M329.21,-438.84C329.21,-418.4 329.21,-390.26 329.21,-365.89"/>
<polygon fill="blue" stroke="blue" stroke-width="1.21" points="332.71,-366.1 329.21,-356.1 325.71,-366.1 332.71,-366.1"/>
<text text-anchor="middle" x="376.83" y="-408" font-family="Times New Roman,serif" font-size="14.00">&quot;digit_list[i] &lt; 9&quot;</text>
<text text-anchor="middle" x="376.83" y="-391.5" font-family="Times New Roman,serif" font-size="14.00">c[5]</text>
<text text-anchor="middle" x="376.83" y="-375" font-family="Times New Roman,serif" font-size="14.00"> Score: 0.05</text>
<polygon fill="white" stroke="none" points="291.46,-398.39 291.46,-422.89 327.21,-422.89 327.21,-398.39 291.46,-398.39"/>
<text text-anchor="start" x="295.46" y="-405.59" font-family="Times New Roman,serif" font-size="14.00" fill="darkmagenta">15, 1</text>
</g>
<!-- 13 -->
<g id="node8" class="node">
<title>13</title>
<ellipse fill="none" stroke="black" cx="329.21" cy="-157.99" rx="134.88" ry="28.99"/>
<text text-anchor="middle" x="329.21" y="-152.94" font-family="Times New Roman,serif" font-size="14.00">13. digit_list[n &#45; i &#45; 1] = digit_list[i]</text>
<text text-anchor="start" x="170.33" y="-173.68" font-family="Times New Roman,serif" font-size="14.00" fill="darkorange">15,1</text>
</g>
<!-- 11&#45;&gt;13 -->
<g id="edge7" class="edge">
<title>11&#45;&gt;13</title>
<path fill="none" stroke="blue" stroke-width="1.21" d="M329.21,-272.3C329.21,-249.61 329.21,-221.29 329.21,-198.63"/>
<polygon fill="blue" stroke="blue" stroke-width="1.21" points="332.71,-198.86 329.21,-188.86 325.71,-198.86 332.71,-198.86"/>
<text text-anchor="middle" x="367.83" y="-241.18" font-family="Times New Roman,serif" font-size="14.00">&quot;i != n &#45; i &#45; 1&quot;</text>
<text text-anchor="middle" x="367.83" y="-224.68" font-family="Times New Roman,serif" font-size="14.00">c[6]</text>
<text text-anchor="middle" x="367.83" y="-208.18" font-family="Times New Roman,serif" font-size="14.00"> Score: 0.05</text>
<polygon fill="white" stroke="none" points="291.46,-231.48 291.46,-255.98 327.21,-255.98 327.21,-231.48 291.46,-231.48"/>
<text text-anchor="start" x="295.46" y="-238.68" font-family="Times New Roman,serif" font-size="14.00" fill="darkmagenta">15, 1</text>
</g>
<!-- 14 -->
<g id="node9" class="node">
<title>14</title>
<ellipse fill="none" stroke="black" cx="329.21" cy="-42.5" rx="305.21" ry="18"/>
<text text-anchor="middle" x="329.21" y="-37.45" font-family="Times New Roman,serif" font-size="14.00">14. return digit_list[:mid] + [digit_list[mid]] * (n % 2) + digit_list[mid &#45; 1::&#45;1]</text>
<text text-anchor="start" x="0" y="-47.2" font-family="Times New Roman,serif" font-size="14.00" fill="darkorange">15,1</text>
</g>
<!-- 13&#45;&gt;14 -->
<g id="edge8" class="edge">
<title>13&#45;&gt;14</title>
<path fill="none" stroke="blue" stroke-width="1.21" d="M329.21,-128.65C329.21,-111.53 329.21,-89.77 329.21,-72.53"/>
<polygon fill="blue" stroke="blue" stroke-width="1.21" points="332.71,-72.73 329.21,-62.73 325.71,-72.73 332.71,-72.73"/>
<text text-anchor="middle" x="362.21" y="-81.7" font-family="Times New Roman,serif" font-size="14.00"> Score: 0.05</text>
<polygon fill="white" stroke="none" points="291.46,-96.71 291.46,-121.21 327.21,-121.21 327.21,-96.71 291.46,-96.71"/>
<text text-anchor="start" x="295.46" y="-103.91" font-family="Times New Roman,serif" font-size="14.00" fill="darkmagenta">15, 1</text>
</g>
</g>
</svg>
