<?xml version="1.0" encoding="UTF-8" standalone="no"?>
<!DOCTYPE svg PUBLIC "-//W3C//DTD SVG 1.1//EN"
 "http://www.w3.org/Graphics/SVG/1.1/DTD/svg11.dtd">
<!-- Generated by graphviz version 10.0.1 (20240210.2158)
 -->
<!-- Title: clusternext_palindrome Pages: 1 -->
<svg width="655pt" height="1104pt"
 viewBox="0.00 0.00 655.26 1104.45" xmlns="http://www.w3.org/2000/svg" xmlns:xlink="http://www.w3.org/1999/xlink">
<g id="graph0" class="graph" transform="scale(1 1) rotate(0) translate(4 1100.45)">
<title>clusternext_palindrome</title>
<polygon fill="white" stroke="none" points="-4,4 -4,-1100.45 651.26,-1100.45 651.26,4 -4,4"/>
<text text-anchor="middle" x="323.63" y="-6.45" font-family="Times New Roman,serif" font-size="14.00">next_palindrome</text>
<!-- 1 -->
<g id="node1" class="node">
<title>1</title>
<ellipse fill="none" stroke="black" cx="447.08" cy="-1019.36" rx="120.56" ry="61.34"/>
<text text-anchor="middle" x="447.08" y="-1037.56" font-family="Times New Roman,serif" font-size="14.00">1. digit_list = sorted(digit_list)</text>
<text text-anchor="middle" x="447.08" y="-1021.81" font-family="Times New Roman,serif" font-size="14.00">n = len(digit_list)</text>
<text text-anchor="middle" x="447.08" y="-1006.06" font-family="Times New Roman,serif" font-size="14.00">mid = n // 2</text>
<text text-anchor="middle" x="447.08" y="-990.31" font-family="Times New Roman,serif" font-size="14.00">if n % 2 == 0:</text>
<text text-anchor="start" x="295.77" y="-1067.4" font-family="Times New Roman,serif" font-size="14.00" fill="darkorange">15,15</text>
</g>
<!-- 2 -->
<g id="node2" class="node">
<title>2</title>
<ellipse fill="none" stroke="black" cx="317.08" cy="-824.56" rx="171.47" ry="50.21"/>
<text text-anchor="middle" x="317.08" y="-834.89" font-family="Times New Roman,serif" font-size="14.00">2. left_side = digit_list[:mid]</text>
<text text-anchor="middle" x="317.08" y="-819.14" font-family="Times New Roman,serif" font-size="14.00">left_side_reverse = left_side[::&#45;1]</text>
<text text-anchor="middle" x="317.08" y="-803.39" font-family="Times New Roman,serif" font-size="14.00">candidate = left_side + left_side_reverse</text>
<text text-anchor="start" x="121.61" y="-861.47" font-family="Times New Roman,serif" font-size="14.00" fill="darkorange">15,1</text>
</g>
<!-- 1&#45;&gt;2 -->
<g id="edge1" class="edge">
<title>1&#45;&gt;2</title>
<path fill="none" stroke="blue" stroke-width="1.21" d="M408.42,-961.04C391.97,-936.64 372.81,-908.22 356.3,-883.72"/>
<polygon fill="blue" stroke="blue" stroke-width="1.21" points="359.38,-882.05 350.89,-875.71 353.58,-885.96 359.38,-882.05"/>
<text text-anchor="middle" x="431.95" y="-926.72" font-family="Times New Roman,serif" font-size="14.00">&quot;n % 2 == 0&quot;</text>
<text text-anchor="middle" x="431.95" y="-910.97" font-family="Times New Roman,serif" font-size="14.00">c[1]</text>
<text text-anchor="middle" x="431.95" y="-895.22" font-family="Times New Roman,serif" font-size="14.00"> Score: 0.05</text>
<polygon fill="white" stroke="none" points="341.5,-919.77 341.5,-943.52 377.25,-943.52 377.25,-919.77 341.5,-919.77"/>
<text text-anchor="start" x="345.5" y="-926.22" font-family="Times New Roman,serif" font-size="14.00" fill="darkmagenta">15, 1</text>
</g>
<!-- 4 -->
<g id="node3" class="node">
<title>4</title>
<ellipse fill="none" stroke="black" cx="577.08" cy="-824.56" rx="70.18" ry="27.93"/>
<text text-anchor="middle" x="577.08" y="-819.14" font-family="Times New Roman,serif" font-size="14.00">4. return digit_list</text>
<text text-anchor="start" x="506.89" y="-839.19" font-family="Times New Roman,serif" font-size="14.00" fill="darkorange">0,14</text>
</g>
<!-- 1&#45;&gt;4 -->
<g id="edge2" class="edge">
<title>1&#45;&gt;4</title>
<path fill="none" stroke="red" stroke-width="5" d="M485.73,-961.04C506.6,-930.08 531.84,-892.65 550.49,-864.99"/>
<polygon fill="red" stroke="red" stroke-width="5" points="553.88,-867.79 555.84,-857.05 546.62,-862.9 553.88,-867.79"/>
<text text-anchor="middle" x="571.58" y="-926.72" font-family="Times New Roman,serif" font-size="14.00">&quot;(n % 2 != 0)&quot;</text>
<text text-anchor="middle" x="571.58" y="-910.97" font-family="Times New Roman,serif" font-size="14.00">c[2]</text>
<text text-anchor="middle" x="571.58" y="-895.22" font-family="Times New Roman,serif" font-size="14.00"> Score: 0.97</text>
<polygon fill="white" stroke="none" points="484.87,-908.32 484.87,-932.07 520.62,-932.07 520.62,-908.32 484.87,-908.32"/>
<text text-anchor="start" x="488.87" y="-914.77" font-family="Times New Roman,serif" font-size="14.00" fill="darkmagenta">0, 14</text>
</g>
<!-- 3 -->
<g id="node4" class="node">
<title>3</title>
<ellipse fill="none" stroke="black" cx="317.08" cy="-688.61" rx="106.95" ry="18"/>
<text text-anchor="middle" x="317.08" y="-683.18" font-family="Times New Roman,serif" font-size="14.00">3. if candidate &gt; digit_list:</text>
<text text-anchor="start" x="186.13" y="-693.31" font-family="Times New Roman,serif" font-size="14.00" fill="darkorange">15,1</text>
</g>
<!-- 2&#45;&gt;3 -->
<g id="edge3" class="edge">
<title>2&#45;&gt;3</title>
<path fill="none" stroke="blue" stroke-width="1.21" d="M317.08,-774.06C317.08,-755.3 317.08,-734.56 317.08,-718.33"/>
<polygon fill="blue" stroke="blue" stroke-width="1.21" points="320.58,-718.73 317.08,-708.73 313.58,-718.73 320.58,-718.73"/>
<text text-anchor="middle" x="350.83" y="-727.06" font-family="Times New Roman,serif" font-size="14.00"> Score: 0.05</text>
<polygon fill="white" stroke="none" points="279.33,-742.35 279.33,-766.1 315.08,-766.1 315.08,-742.35 279.33,-742.35"/>
<text text-anchor="start" x="283.33" y="-748.8" font-family="Times New Roman,serif" font-size="14.00" fill="darkmagenta">15, 1</text>
</g>
<!-- 7 -->
<g id="node5" class="node">
<title>7</title>
<ellipse fill="none" stroke="black" cx="317.08" cy="-585.11" rx="126.41" ry="18"/>
<text text-anchor="middle" x="317.08" y="-579.68" font-family="Times New Roman,serif" font-size="14.00">7. for i in range(mid &#45; 1, &#45;1, &#45;1):</text>
<text text-anchor="start" x="166.66" y="-589.81" font-family="Times New Roman,serif" font-size="14.00" fill="darkorange">15,1</text>
</g>
<!-- 3&#45;&gt;7 -->
<g id="edge4" class="edge">
<title>3&#45;&gt;7</title>
<path fill="none" stroke="blue" stroke-width="1.21" d="M317.08,-670.39C317.08,-655.3 317.08,-633.04 317.08,-615.19"/>
<polygon fill="blue" stroke="blue" stroke-width="1.21" points="320.58,-615.23 317.08,-605.23 313.58,-615.24 320.58,-615.23"/>
<text text-anchor="middle" x="389.83" y="-639.31" font-family="Times New Roman,serif" font-size="14.00">&quot;(candidate &lt;= digit_list)&quot;</text>
<text text-anchor="middle" x="389.83" y="-623.56" font-family="Times New Roman,serif" font-size="14.00"> Score: 0.05</text>
<polygon fill="white" stroke="none" points="279.33,-638.98 279.33,-662.73 315.08,-662.73 315.08,-638.98 279.33,-638.98"/>
<text text-anchor="start" x="283.33" y="-645.43" font-family="Times New Roman,serif" font-size="14.00" fill="darkmagenta">15, 1</text>
</g>
<!-- 9 -->
<g id="node6" class="node">
<title>9</title>
<ellipse fill="none" stroke="black" cx="317.08" cy="-455.93" rx="79.2" ry="27.93"/>
<text text-anchor="middle" x="317.08" y="-450.5" font-family="Times New Roman,serif" font-size="14.00">9. if digit_list[i] &lt; 9:</text>
<text text-anchor="start" x="213.88" y="-470.56" font-family="Times New Roman,serif" font-size="14.00" fill="darkorange">15,1</text>
</g>
<!-- 7&#45;&gt;9 -->
<g id="edge5" class="edge">
<title>7&#45;&gt;9</title>
<path fill="none" stroke="blue" stroke-width="1.21" d="M317.08,-566.69C317.08,-548.5 317.08,-519.37 317.08,-495.69"/>
<polygon fill="blue" stroke="blue" stroke-width="1.21" points="320.58,-495.72 317.08,-485.72 313.58,-495.72 320.58,-495.72"/>
<text text-anchor="middle" x="381.2" y="-535.81" font-family="Times New Roman,serif" font-size="14.00">&quot;range(mid &#45; 1, &#45;1, &#45;1)&quot;</text>
<text text-anchor="middle" x="381.2" y="-520.06" font-family="Times New Roman,serif" font-size="14.00">c[4]</text>
<text text-anchor="middle" x="381.2" y="-504.31" font-family="Times New Roman,serif" font-size="14.00"> Score: 0.05</text>
<polygon fill="white" stroke="none" points="279.33,-527.55 279.33,-551.3 315.08,-551.3 315.08,-527.55 279.33,-527.55"/>
<text text-anchor="start" x="283.33" y="-534" font-family="Times New Roman,serif" font-size="14.00" fill="darkmagenta">15, 1</text>
</g>
<!-- 11 -->
<g id="node7" class="node">
<title>11</title>
<ellipse fill="none" stroke="black" cx="317.08" cy="-305.68" rx="74.95" ry="39.07"/>
<text text-anchor="middle" x="317.08" y="-308.13" font-family="Times New Roman,serif" font-size="14.00">11. digit_list[i] += 1</text>
<text text-anchor="middle" x="317.08" y="-292.38" font-family="Times New Roman,serif" font-size="14.00">if i != n &#45; i &#45; 1:</text>
<text text-anchor="start" x="218.12" y="-331.45" font-family="Times New Roman,serif" font-size="14.00" fill="darkorange">15,1</text>
</g>
<!-- 9&#45;&gt;11 -->
<g id="edge6" class="edge">
<title>9&#45;&gt;11</title>
<path fill="none" stroke="blue" stroke-width="1.21" d="M317.08,-427.74C317.08,-407.93 317.08,-380.52 317.08,-356.8"/>
<polygon fill="blue" stroke="blue" stroke-width="1.21" points="320.58,-356.97 317.08,-346.97 313.58,-356.97 320.58,-356.97"/>
<text text-anchor="middle" x="363.95" y="-396.7" font-family="Times New Roman,serif" font-size="14.00">&quot;digit_list[i] &lt; 9&quot;</text>
<text text-anchor="middle" x="363.95" y="-380.95" font-family="Times New Roman,serif" font-size="14.00">c[5]</text>
<text text-anchor="middle" x="363.95" y="-365.2" font-family="Times New Roman,serif" font-size="14.00"> Score: 0.05</text>
<polygon fill="white" stroke="none" points="279.33,-388.2 279.33,-411.95 315.08,-411.95 315.08,-388.2 279.33,-388.2"/>
<text text-anchor="start" x="283.33" y="-394.65" font-family="Times New Roman,serif" font-size="14.00" fill="darkmagenta">15, 1</text>
</g>
<!-- 13 -->
<g id="node8" class="node">
<title>13</title>
<ellipse fill="none" stroke="black" cx="317.08" cy="-155.43" rx="132.76" ry="27.93"/>
<text text-anchor="middle" x="317.08" y="-150.01" font-family="Times New Roman,serif" font-size="14.00">13. digit_list[n &#45; i &#45; 1] = digit_list[i]</text>
<text text-anchor="start" x="160.32" y="-170.06" font-family="Times New Roman,serif" font-size="14.00" fill="darkorange">15,1</text>
</g>
<!-- 11&#45;&gt;13 -->
<g id="edge7" class="edge">
<title>11&#45;&gt;13</title>
<path fill="none" stroke="blue" stroke-width="1.21" d="M317.08,-266.12C317.08,-244.25 317.08,-216.99 317.08,-195.11"/>
<polygon fill="blue" stroke="blue" stroke-width="1.21" points="320.58,-195.4 317.08,-185.4 313.58,-195.4 320.58,-195.4"/>
<text text-anchor="middle" x="354.95" y="-235.31" font-family="Times New Roman,serif" font-size="14.00">&quot;i != n &#45; i &#45; 1&quot;</text>
<text text-anchor="middle" x="354.95" y="-219.56" font-family="Times New Roman,serif" font-size="14.00">c[6]</text>
<text text-anchor="middle" x="354.95" y="-203.81" font-family="Times New Roman,serif" font-size="14.00"> Score: 0.05</text>
<polygon fill="white" stroke="none" points="279.33,-226.86 279.33,-250.61 315.08,-250.61 315.08,-226.86 279.33,-226.86"/>
<text text-anchor="start" x="283.33" y="-233.31" font-family="Times New Roman,serif" font-size="14.00" fill="darkmagenta">15, 1</text>
</g>
<!-- 14 -->
<g id="node9" class="node">
<title>14</title>
<ellipse fill="none" stroke="black" cx="317.08" cy="-41.75" rx="293.08" ry="18"/>
<text text-anchor="middle" x="317.08" y="-36.33" font-family="Times New Roman,serif" font-size="14.00">14. return digit_list[:mid] + [digit_list[mid]] * (n % 2) + digit_list[mid &#45; 1::&#45;1]</text>
<text text-anchor="start" x="0" y="-46.45" font-family="Times New Roman,serif" font-size="14.00" fill="darkorange">15,1</text>
</g>
<!-- 13&#45;&gt;14 -->
<g id="edge8" class="edge">
<title>13&#45;&gt;14</title>
<path fill="none" stroke="blue" stroke-width="1.21" d="M317.08,-127.11C317.08,-110.27 317.08,-88.71 317.08,-71.6"/>
<polygon fill="blue" stroke="blue" stroke-width="1.21" points="320.58,-71.88 317.08,-61.88 313.58,-71.88 320.58,-71.88"/>
<text text-anchor="middle" x="350.83" y="-80.2" font-family="Times New Roman,serif" font-size="14.00"> Score: 0.05</text>
<polygon fill="white" stroke="none" points="279.33,-95.59 279.33,-119.34 315.08,-119.34 315.08,-95.59 279.33,-95.59"/>
<text text-anchor="start" x="283.33" y="-102.04" font-family="Times New Roman,serif" font-size="14.00" fill="darkmagenta">15, 1</text>
</g>
</g>
</svg>
