<?xml version="1.0" encoding="UTF-8" standalone="no"?>
<!DOCTYPE svg PUBLIC "-//W3C//DTD SVG 1.1//EN"
 "http://www.w3.org/Graphics/SVG/1.1/DTD/svg11.dtd">
<!-- Generated by graphviz version 2.46.0 (20210118.1747)
 -->
<!-- Title: clustermergeSort Pages: 1 -->
<svg width="2456pt" height="820pt"
 viewBox="0.00 0.00 2455.50 820.40" xmlns="http://www.w3.org/2000/svg" xmlns:xlink="http://www.w3.org/1999/xlink">
<g id="graph0" class="graph" transform="scale(1 1) rotate(0) translate(4 816.4)">
<title>clustermergeSort</title>
<polygon fill="white" stroke="transparent" points="-4,4 -4,-816.4 2451.5,-816.4 2451.5,4 -4,4"/>
<text text-anchor="middle" x="1223.75" y="-7.8" font-family="Times New Roman,serif" font-size="14.00">mergeSort</text>
<!-- 1 -->
<g id="node1" class="node">
<title>1</title>
<ellipse fill="none" stroke="black" cx="1010" cy="-729" rx="104.5" ry="18"/>
<text text-anchor="middle" x="1010" y="-725.3" font-family="Times New Roman,serif" font-size="14.00">1. </text>
<text text-anchor="start" x="887.5" y="-752.6" font-family="Times New Roman,serif" font-size="14.00" fill="darkorange">9,9</text>
</g>
<!-- 2 -->
<g id="node2" class="node">
<title>2</title>
<ellipse fill="none" stroke="black" cx="915" cy="-612" rx="122" ry="18"/>
<text text-anchor="middle" x="915" y="-608.3" font-family="Times New Roman,serif" font-size="14.00">2. </text>
<text text-anchor="start" x="775" y="-635.6" font-family="Times New Roman,serif" font-size="14.00" fill="darkorange">4,4</text>
</g>
<!-- 1&#45;&gt;2 -->
<g id="edge1" class="edge">
<title>1&#45;&gt;2</title>
<path fill="none" stroke="blue" stroke-width="2.72" d="M995.98,-711.03C980.06,-691.75 953.91,-660.1 935.65,-638"/>
<polygon fill="blue" stroke="blue" stroke-width="2.72" points="938.14,-635.52 929.08,-630.04 932.75,-639.98 938.14,-635.52"/>
<text text-anchor="middle" x="1021" y="-681.8" font-family="Times New Roman,serif" font-size="14.00">&quot;len(nlist) &gt; 1&quot;</text>
<text text-anchor="middle" x="1021" y="-666.8" font-family="Times New Roman,serif" font-size="14.00">c[1]</text>
<text text-anchor="middle" x="1021" y="-651.8" font-family="Times New Roman,serif" font-size="14.00"> Score: 0.43</text>
<text text-anchor="start" x="944.37" y="-674.15" font-family="Times New Roman,serif" font-size="14.00" fill="darkmagenta">4,4</text>
</g>
<!-- 4 -->
<g id="node3" class="node">
<title>4</title>
<ellipse fill="none" stroke="black" cx="1105" cy="-612" rx="50" ry="18"/>
<text text-anchor="middle" x="1105" y="-608.3" font-family="Times New Roman,serif" font-size="14.00">4. </text>
<text text-anchor="start" x="1037" y="-534.2" font-family="Times New Roman,serif" font-size="14.00" fill="darkorange">5,5</text>
</g>
<!-- 1&#45;&gt;4 -->
<g id="edge2" class="edge">
<title>1&#45;&gt;4</title>
<path fill="none" stroke="blue" stroke-width="2.84" d="M1042.56,-711.89C1050.92,-706.68 1059.4,-700.33 1066,-693 1079.87,-677.59 1089.91,-656.36 1096.33,-639.65"/>
<polygon fill="blue" stroke="blue" stroke-width="2.84" points="1099.74,-640.51 1099.86,-629.91 1093.16,-638.12 1099.74,-640.51"/>
<text text-anchor="middle" x="1143" y="-681.8" font-family="Times New Roman,serif" font-size="14.00">&quot;(len(nlist) &lt;= 1)&quot;</text>
<text text-anchor="middle" x="1143" y="-666.8" font-family="Times New Roman,serif" font-size="14.00">c[14]</text>
<text text-anchor="middle" x="1143" y="-651.8" font-family="Times New Roman,serif" font-size="14.00"> Score: 0.46</text>
<text text-anchor="start" x="1074.19" y="-664.69" font-family="Times New Roman,serif" font-size="14.00" fill="darkmagenta">5,5</text>
</g>
<!-- 5 -->
<g id="node4" class="node">
<title>5</title>
<ellipse fill="none" stroke="black" cx="462" cy="-495" rx="444" ry="18"/>
<text text-anchor="middle" x="462" y="-491.3" font-family="Times New Roman,serif" font-size="14.00">5. </text>
<text text-anchor="start" x="0" y="-518.6" font-family="Times New Roman,serif" font-size="14.00" fill="darkorange">2,2</text>
</g>
<!-- 2&#45;&gt;5 -->
<g id="edge3" class="edge">
<title>2&#45;&gt;5</title>
<path fill="none" stroke="blue" stroke-width="2.76" d="M856.24,-596.08C774.9,-575.43 627.91,-538.12 538.21,-515.35"/>
<polygon fill="blue" stroke="blue" stroke-width="2.76" points="538.93,-511.92 528.37,-512.85 537.21,-518.7 538.93,-511.92"/>
<text text-anchor="middle" x="827.5" y="-564.8" font-family="Times New Roman,serif" font-size="14.00">&quot;len(nlist) % 2 == 0&quot;</text>
<text text-anchor="middle" x="827.5" y="-549.8" font-family="Times New Roman,serif" font-size="14.00">c[2]</text>
<text text-anchor="middle" x="827.5" y="-534.8" font-family="Times New Roman,serif" font-size="14.00"> Score: 0.44</text>
<text text-anchor="start" x="674.52" y="-558.32" font-family="Times New Roman,serif" font-size="14.00" fill="darkmagenta">2,2</text>
</g>
<!-- 7 -->
<g id="node5" class="node">
<title>7</title>
<ellipse fill="none" stroke="black" cx="1368" cy="-495" rx="444" ry="18"/>
<text text-anchor="middle" x="1368" y="-491.3" font-family="Times New Roman,serif" font-size="14.00">7. </text>
<text text-anchor="start" x="906" y="-518.6" font-family="Times New Roman,serif" font-size="14.00" fill="darkorange">2,2</text>
</g>
<!-- 2&#45;&gt;7 -->
<g id="edge4" class="edge">
<title>2&#45;&gt;7</title>
<path fill="none" stroke="blue" stroke-width="2.76" d="M973.76,-596.08C1055.1,-575.43 1202.09,-538.12 1291.79,-515.35"/>
<polygon fill="blue" stroke="blue" stroke-width="2.76" points="1292.79,-518.7 1301.63,-512.85 1291.07,-511.92 1292.79,-518.7"/>
<text text-anchor="middle" x="1283" y="-564.8" font-family="Times New Roman,serif" font-size="14.00">&quot;(len(nlist) % 2 != 0)&quot;</text>
<text text-anchor="middle" x="1283" y="-549.8" font-family="Times New Roman,serif" font-size="14.00">c[8]</text>
<text text-anchor="middle" x="1283" y="-534.8" font-family="Times New Roman,serif" font-size="14.00"> Score: 0.44</text>
<text text-anchor="start" x="1119.48" y="-558.32" font-family="Times New Roman,serif" font-size="14.00" fill="darkmagenta">2,2</text>
</g>
<!-- 18 -->
<g id="node6" class="node">
<title>18</title>
<ellipse fill="none" stroke="black" cx="462" cy="-392" rx="175.47" ry="18"/>
<text text-anchor="middle" x="462" y="-388.3" font-family="Times New Roman,serif" font-size="14.00">18. while i &lt; len(lefthalf) and j &lt; len(righthalf):</text>
<text text-anchor="start" x="268.52" y="-415.6" font-family="Times New Roman,serif" font-size="14.00" fill="darkorange">4,4</text>
</g>
<!-- 5&#45;&gt;18 -->
<g id="edge5" class="edge">
<title>5&#45;&gt;18</title>
<path fill="none" stroke="blue" stroke-width="3.28" d="M462,-476.87C462,-461.41 462,-438.42 462,-420.41"/>
<polygon fill="blue" stroke="blue" stroke-width="3.28" points="465.5,-420.22 462,-410.22 458.5,-420.22 465.5,-420.22"/>
<text text-anchor="middle" x="496" y="-431.8" font-family="Times New Roman,serif" font-size="14.00"> Score: 0.57</text>
<text text-anchor="start" x="444" y="-447.32" font-family="Times New Roman,serif" font-size="14.00" fill="darkmagenta">2,2</text>
</g>
<!-- 8 -->
<g id="node15" class="node">
<title>8</title>
<ellipse fill="none" stroke="black" cx="1368" cy="-392" rx="170.87" ry="18"/>
<text text-anchor="middle" x="1368" y="-388.3" font-family="Times New Roman,serif" font-size="14.00">8. while i &lt; len(lefthalf) and j &lt; len(righthalf):</text>
<text text-anchor="start" x="1179.07" y="-415.6" font-family="Times New Roman,serif" font-size="14.00" fill="darkorange">7,7</text>
</g>
<!-- 7&#45;&gt;8 -->
<g id="edge18" class="edge">
<title>7&#45;&gt;8</title>
<path fill="none" stroke="blue" stroke-width="3.28" d="M1368,-476.87C1368,-461.41 1368,-438.42 1368,-420.41"/>
<polygon fill="blue" stroke="blue" stroke-width="3.28" points="1371.5,-420.22 1368,-410.22 1364.5,-420.22 1371.5,-420.22"/>
<text text-anchor="middle" x="1402" y="-431.8" font-family="Times New Roman,serif" font-size="14.00"> Score: 0.57</text>
<text text-anchor="start" x="1350" y="-447.32" font-family="Times New Roman,serif" font-size="14.00" fill="darkmagenta">2,2</text>
</g>
<!-- 19 -->
<g id="node7" class="node">
<title>19</title>
<ellipse fill="none" stroke="black" cx="462" cy="-275" rx="134" ry="18"/>
<text text-anchor="middle" x="462" y="-271.3" font-family="Times New Roman,serif" font-size="14.00">19. </text>
<text text-anchor="start" x="310" y="-298.6" font-family="Times New Roman,serif" font-size="14.00" fill="darkorange">2,2</text>
</g>
<!-- 18&#45;&gt;19 -->
<g id="edge6" class="edge">
<title>18&#45;&gt;19</title>
<path fill="none" stroke="blue" stroke-width="2.76" d="M462,-373.53C462,-354.94 462,-325.24 462,-303.5"/>
<polygon fill="blue" stroke="blue" stroke-width="2.76" points="465.5,-303.25 462,-293.25 458.5,-303.25 465.5,-303.25"/>
<text text-anchor="middle" x="567" y="-344.8" font-family="Times New Roman,serif" font-size="14.00">&quot;i &lt; len(lefthalf) and j &lt; len(righthalf)&quot;</text>
<text text-anchor="middle" x="567" y="-329.8" font-family="Times New Roman,serif" font-size="14.00">c[3]</text>
<text text-anchor="middle" x="567" y="-314.8" font-family="Times New Roman,serif" font-size="14.00"> Score: 0.44</text>
<text text-anchor="start" x="444" y="-337.05" font-family="Times New Roman,serif" font-size="14.00" fill="darkmagenta">2,2</text>
</g>
<!-- 20 -->
<g id="node8" class="node">
<title>20</title>
<ellipse fill="none" stroke="black" cx="805" cy="-275" rx="100.18" ry="18"/>
<text text-anchor="middle" x="805" y="-271.3" font-family="Times New Roman,serif" font-size="14.00">20. while i &lt; len(lefthalf):</text>
<text text-anchor="start" x="686.91" y="-262.6" font-family="Times New Roman,serif" font-size="14.00" fill="darkorange">4,3</text>
</g>
<!-- 18&#45;&gt;20 -->
<g id="edge7" class="edge">
<title>18&#45;&gt;20</title>
<path fill="none" stroke="blue" stroke-width="2.76" d="M585.82,-379.2C615.93,-374.04 647.62,-366.64 676,-356 712.86,-342.18 750.63,-317.25 775.7,-298.88"/>
<polygon fill="blue" stroke="blue" stroke-width="2.76" points="778.08,-301.47 784.01,-292.68 773.9,-295.85 778.08,-301.47"/>
<text text-anchor="middle" x="884" y="-337.3" font-family="Times New Roman,serif" font-size="14.00">&quot;(not (i &lt; len(lefthalf) and j &lt; len(righthalf)))&quot;</text>
<text text-anchor="middle" x="884" y="-322.3" font-family="Times New Roman,serif" font-size="14.00"> Score: 0.44</text>
<text text-anchor="start" x="673.14" y="-353.55" font-family="Times New Roman,serif" font-size="14.00" fill="darkmagenta">2,2</text>
</g>
<!-- 21 -->
<g id="node9" class="node">
<title>21</title>
<ellipse fill="none" stroke="black" cx="172" cy="-158" rx="134.5" ry="18"/>
<text text-anchor="middle" x="172" y="-154.3" font-family="Times New Roman,serif" font-size="14.00">21. </text>
<text text-anchor="start" x="19.5" y="-181.6" font-family="Times New Roman,serif" font-size="14.00" fill="darkorange">0,1</text>
</g>
<!-- 19&#45;&gt;21 -->
<g id="edge8" class="edge">
<title>19&#45;&gt;21</title>
<path fill="none" stroke="red" stroke-width="5" d="M391.86,-259.6C369.8,-254.18 345.58,-247.28 324,-239 282.62,-223.12 238.06,-198.71 207.95,-181.03"/>
<polygon fill="red" stroke="red" stroke-width="5" points="209.93,-177.12 199.09,-175.78 205.46,-184.64 209.93,-177.12"/>
<text text-anchor="middle" x="391.5" y="-227.8" font-family="Times New Roman,serif" font-size="14.00">&quot;lefthalf[i] &lt; righthalf[j]&quot;</text>
<text text-anchor="middle" x="391.5" y="-212.8" font-family="Times New Roman,serif" font-size="14.00">c[4]</text>
<text text-anchor="middle" x="391.5" y="-197.8" font-family="Times New Roman,serif" font-size="14.00"> Score: 1</text>
<text text-anchor="start" x="274.15" y="-229.3" font-family="Times New Roman,serif" font-size="14.00" fill="darkmagenta">0,1</text>
</g>
<!-- 23 -->
<g id="node10" class="node">
<title>23</title>
<ellipse fill="none" stroke="black" cx="464" cy="-158" rx="139.5" ry="18"/>
<text text-anchor="middle" x="464" y="-154.3" font-family="Times New Roman,serif" font-size="14.00">23. </text>
<text text-anchor="start" x="324.5" y="-80.2" font-family="Times New Roman,serif" font-size="14.00" fill="darkorange">2,1</text>
</g>
<!-- 19&#45;&gt;23 -->
<g id="edge9" class="edge">
<title>19&#45;&gt;23</title>
<path fill="none" stroke="blue" stroke-width="2.32" d="M462.3,-256.53C462.63,-237.94 463.14,-208.24 463.52,-186.5"/>
<polygon fill="blue" stroke="blue" stroke-width="2.32" points="467.03,-186.31 463.7,-176.25 460.03,-186.19 467.03,-186.31"/>
<text text-anchor="middle" x="540" y="-227.8" font-family="Times New Roman,serif" font-size="14.00">&quot;(lefthalf[i] &gt;= righthalf[j])&quot;</text>
<text text-anchor="middle" x="540" y="-212.8" font-family="Times New Roman,serif" font-size="14.00">c[5]</text>
<text text-anchor="middle" x="540" y="-197.8" font-family="Times New Roman,serif" font-size="14.00"> Score: 0.33</text>
<text text-anchor="start" x="445" y="-220.05" font-family="Times New Roman,serif" font-size="14.00" fill="darkmagenta">2,1</text>
</g>
<!-- 24 -->
<g id="node12" class="node">
<title>24</title>
<ellipse fill="none" stroke="black" cx="781" cy="-158" rx="159" ry="18"/>
<text text-anchor="middle" x="781" y="-154.3" font-family="Times New Roman,serif" font-size="14.00">24. </text>
<text text-anchor="start" x="604" y="-80.2" font-family="Times New Roman,serif" font-size="14.00" fill="darkorange">2,1</text>
</g>
<!-- 20&#45;&gt;24 -->
<g id="edge13" class="edge">
<title>20&#45;&gt;24</title>
<path fill="none" stroke="blue" stroke-width="2.24" d="M807.53,-256.72C809.31,-240.22 810.38,-214.85 804,-194 803.07,-190.97 801.79,-187.96 800.31,-185.04"/>
<polygon fill="blue" stroke="blue" stroke-width="2.24" points="803.16,-182.99 795.06,-176.17 797.14,-186.56 803.16,-182.99"/>
<text text-anchor="middle" x="856" y="-227.8" font-family="Times New Roman,serif" font-size="14.00">&quot;i &lt; len(lefthalf)&quot;</text>
<text text-anchor="middle" x="856" y="-212.8" font-family="Times New Roman,serif" font-size="14.00">c[6]</text>
<text text-anchor="middle" x="856" y="-197.8" font-family="Times New Roman,serif" font-size="14.00"> Score: 0.31</text>
<text text-anchor="start" x="790.16" y="-219.84" font-family="Times New Roman,serif" font-size="14.00" fill="darkmagenta">2,1</text>
</g>
<!-- 25 -->
<g id="node13" class="node">
<title>25</title>
<ellipse fill="none" stroke="black" cx="1063" cy="-158" rx="104.78" ry="18"/>
<text text-anchor="middle" x="1063" y="-154.3" font-family="Times New Roman,serif" font-size="14.00">25. while j &lt; len(righthalf):</text>
<text text-anchor="start" x="940.36" y="-145.6" font-family="Times New Roman,serif" font-size="14.00" fill="darkorange">0,1</text>
</g>
<!-- 20&#45;&gt;25 -->
<g id="edge14" class="edge">
<title>20&#45;&gt;25</title>
<path fill="none" stroke="blue" stroke-width="3.08" d="M853.02,-259.1C870.25,-253.34 889.69,-246.37 907,-239 948.55,-221.32 994.33,-197.27 1025.49,-180.16"/>
<polygon fill="blue" stroke="blue" stroke-width="3.08" points="1027.21,-183.21 1034.27,-175.31 1023.82,-177.08 1027.21,-183.21"/>
<text text-anchor="middle" x="1052.5" y="-220.3" font-family="Times New Roman,serif" font-size="14.00">&quot;(i &gt;= len(lefthalf))&quot;</text>
<text text-anchor="middle" x="1052.5" y="-205.3" font-family="Times New Roman,serif" font-size="14.00"> Score: 0.52</text>
<text text-anchor="start" x="927.63" y="-225.24" font-family="Times New Roman,serif" font-size="14.00" fill="darkmagenta">2,2</text>
</g>
<!-- 22 -->
<g id="node11" class="node">
<title>22</title>
<ellipse fill="none" stroke="black" cx="172" cy="-41" rx="48.99" ry="18"/>
<text text-anchor="middle" x="172" y="-37.3" font-family="Times New Roman,serif" font-size="14.00">22. k += 1</text>
<text text-anchor="start" x="105.25" y="-64.6" font-family="Times New Roman,serif" font-size="14.00" fill="darkorange">2,2</text>
</g>
<!-- 21&#45;&gt;22 -->
<g id="edge10" class="edge">
<title>21&#45;&gt;22</title>
<path fill="none" stroke="red" stroke-width="5" d="M172,-139.53C172,-120.94 172,-91.24 172,-69.5"/>
<polygon fill="red" stroke="red" stroke-width="5" points="176.38,-69.25 172,-59.25 167.63,-69.25 176.38,-69.25"/>
<text text-anchor="middle" x="197.5" y="-87.8" font-family="Times New Roman,serif" font-size="14.00"> Score: 1</text>
<text text-anchor="start" x="154" y="-103.05" font-family="Times New Roman,serif" font-size="14.00" fill="darkmagenta">0,1</text>
</g>
<!-- 23&#45;&gt;22 -->
<g id="edge12" class="edge">
<title>23&#45;&gt;22</title>
<path fill="none" stroke="blue" stroke-width="2.88" d="M422.78,-140.77C367.32,-118.92 269.21,-80.28 213.57,-58.37"/>
<polygon fill="blue" stroke="blue" stroke-width="2.88" points="214.61,-55.02 204.02,-54.61 212.04,-61.53 214.61,-55.02"/>
<text text-anchor="middle" x="404" y="-87.8" font-family="Times New Roman,serif" font-size="14.00"> Score: 0.47</text>
<text text-anchor="start" x="295.29" y="-101.45" font-family="Times New Roman,serif" font-size="14.00" fill="darkmagenta">2,1</text>
</g>
<!-- 22&#45;&gt;18 -->
<g id="edge11" class="edge">
<title>22&#45;&gt;18</title>
<path fill="none" stroke="blue" stroke-width="3.28" d="M138.5,-54.3C86.19,-75.5 -5.58,-121.88 28,-176 101.66,-294.7 262.51,-349.89 366.35,-374"/>
<polygon fill="blue" stroke="blue" stroke-width="3.28" points="365.69,-377.44 376.21,-376.24 367.24,-370.61 365.69,-377.44"/>
<text text-anchor="middle" x="113" y="-204.8" font-family="Times New Roman,serif" font-size="14.00"> Score: 0.57</text>
<text text-anchor="start" x="190.66" y="-325.25" font-family="Times New Roman,serif" font-size="14.00" fill="darkmagenta">2,2</text>
</g>
<!-- 24&#45;&gt;20 -->
<g id="edge15" class="edge">
<title>24&#45;&gt;20</title>
<path fill="none" stroke="blue" stroke-width="2.88" d="M748.29,-175.72C741.74,-180.67 735.73,-186.75 732,-194 722.85,-211.78 721.34,-222.07 732,-239 735.67,-244.83 740.62,-249.72 746.21,-253.8"/>
<polygon fill="blue" stroke="blue" stroke-width="2.88" points="744.48,-256.84 754.8,-259.23 748.22,-250.93 744.48,-256.84"/>
<text text-anchor="middle" x="766" y="-204.8" font-family="Times New Roman,serif" font-size="14.00"> Score: 0.47</text>
<text text-anchor="start" x="714.01" y="-242.82" font-family="Times New Roman,serif" font-size="14.00" fill="darkmagenta">2,1</text>
</g>
<!-- 26 -->
<g id="node14" class="node">
<title>26</title>
<ellipse fill="none" stroke="black" cx="1036" cy="-41" rx="164" ry="18"/>
<text text-anchor="middle" x="1036" y="-37.3" font-family="Times New Roman,serif" font-size="14.00">26. </text>
<text text-anchor="start" x="854" y="-64.6" font-family="Times New Roman,serif" font-size="14.00" fill="darkorange">0,1</text>
</g>
<!-- 25&#45;&gt;26 -->
<g id="edge16" class="edge">
<title>25&#45;&gt;26</title>
<path fill="none" stroke="red" stroke-width="5" d="M1000.93,-143.29C990.7,-138.26 981.37,-131.39 975,-122 963.77,-105.45 964.98,-94.31 975,-77 977.68,-72.36 981.24,-68.29 985.29,-64.72"/>
<polygon fill="red" stroke="red" stroke-width="5" points="988.24,-67.98 993.59,-58.46 982.97,-60.99 988.24,-67.98"/>
<text text-anchor="middle" x="1025.5" y="-110.8" font-family="Times New Roman,serif" font-size="14.00">&quot;j &lt; len(righthalf)&quot;</text>
<text text-anchor="middle" x="1025.5" y="-95.8" font-family="Times New Roman,serif" font-size="14.00">c[7]</text>
<text text-anchor="middle" x="1025.5" y="-80.8" font-family="Times New Roman,serif" font-size="14.00"> Score: 1</text>
<text text-anchor="start" x="950.73" y="-113.88" font-family="Times New Roman,serif" font-size="14.00" fill="darkmagenta">0,1</text>
</g>
<!-- 26&#45;&gt;25 -->
<g id="edge17" class="edge">
<title>26&#45;&gt;25</title>
<path fill="none" stroke="red" stroke-width="5" d="M1061.98,-58.98C1067.65,-64.04 1072.87,-70.11 1076,-77 1083.58,-93.71 1080.07,-114.16 1074.79,-130.2"/>
<polygon fill="red" stroke="red" stroke-width="5" points="1070.52,-129.13 1071.17,-140.02 1078.73,-132.15 1070.52,-129.13"/>
<text text-anchor="middle" x="1106.5" y="-87.8" font-family="Times New Roman,serif" font-size="14.00"> Score: 1</text>
<text text-anchor="start" x="1062.37" y="-103.34" font-family="Times New Roman,serif" font-size="14.00" fill="darkmagenta">0,1</text>
</g>
<!-- 9 -->
<g id="node16" class="node">
<title>9</title>
<ellipse fill="none" stroke="black" cx="1368" cy="-275" rx="134" ry="18"/>
<text text-anchor="middle" x="1368" y="-271.3" font-family="Times New Roman,serif" font-size="14.00">9. </text>
<text text-anchor="start" x="1216" y="-298.6" font-family="Times New Roman,serif" font-size="14.00" fill="darkorange">5,5</text>
</g>
<!-- 8&#45;&gt;9 -->
<g id="edge19" class="edge">
<title>8&#45;&gt;9</title>
<path fill="none" stroke="blue" stroke-width="3.04" d="M1368,-373.53C1368,-354.94 1368,-325.24 1368,-303.5"/>
<polygon fill="blue" stroke="blue" stroke-width="3.04" points="1371.5,-303.25 1368,-293.25 1364.5,-303.25 1371.5,-303.25"/>
<text text-anchor="middle" x="1473" y="-344.8" font-family="Times New Roman,serif" font-size="14.00">&quot;i &lt; len(lefthalf) and j &lt; len(righthalf)&quot;</text>
<text text-anchor="middle" x="1473" y="-329.8" font-family="Times New Roman,serif" font-size="14.00">c[9]</text>
<text text-anchor="middle" x="1473" y="-314.8" font-family="Times New Roman,serif" font-size="14.00"> Score: 0.51</text>
<text text-anchor="start" x="1350" y="-337.05" font-family="Times New Roman,serif" font-size="14.00" fill="darkmagenta">5,5</text>
</g>
<!-- 10 -->
<g id="node17" class="node">
<title>10</title>
<ellipse fill="none" stroke="black" cx="1992" cy="-275" rx="100.18" ry="18"/>
<text text-anchor="middle" x="1992" y="-271.3" font-family="Times New Roman,serif" font-size="14.00">10. while i &lt; len(lefthalf):</text>
<text text-anchor="start" x="1873.91" y="-197.2" font-family="Times New Roman,serif" font-size="14.00" fill="darkorange">5,2</text>
</g>
<!-- 8&#45;&gt;10 -->
<g id="edge20" class="edge">
<title>8&#45;&gt;10</title>
<path fill="none" stroke="blue" stroke-width="2.48" d="M1458.96,-376.75C1497.02,-370.63 1541.7,-363.23 1582,-356 1700.04,-334.84 1836.64,-307.64 1918.59,-291.03"/>
<polygon fill="blue" stroke="blue" stroke-width="2.48" points="1919.44,-294.42 1928.55,-289.01 1918.05,-287.56 1919.44,-294.42"/>
<text text-anchor="middle" x="1940" y="-337.3" font-family="Times New Roman,serif" font-size="14.00">&quot;(not (i &lt; len(lefthalf) and j &lt; len(righthalf)))&quot;</text>
<text text-anchor="middle" x="1940" y="-322.3" font-family="Times New Roman,serif" font-size="14.00"> Score: 0.37</text>
<text text-anchor="start" x="1676.07" y="-339.04" font-family="Times New Roman,serif" font-size="14.00" fill="darkmagenta">2,2</text>
</g>
<!-- 11 -->
<g id="node18" class="node">
<title>11</title>
<ellipse fill="none" stroke="black" cx="1367" cy="-158" rx="139" ry="18"/>
<text text-anchor="middle" x="1367" y="-154.3" font-family="Times New Roman,serif" font-size="14.00">11. </text>
<text text-anchor="start" x="1210" y="-80.2" font-family="Times New Roman,serif" font-size="14.00" fill="darkorange">0,3</text>
</g>
<!-- 9&#45;&gt;11 -->
<g id="edge21" class="edge">
<title>9&#45;&gt;11</title>
<path fill="none" stroke="red" stroke-width="5" d="M1367.85,-256.53C1367.69,-237.94 1367.43,-208.24 1367.24,-186.5"/>
<polygon fill="red" stroke="red" stroke-width="5" points="1371.61,-186.22 1367.15,-176.25 1362.86,-186.29 1371.61,-186.22"/>
<text text-anchor="middle" x="1435.5" y="-227.8" font-family="Times New Roman,serif" font-size="14.00">&quot;lefthalf[i] &lt; righthalf[j]&quot;</text>
<text text-anchor="middle" x="1435.5" y="-212.8" font-family="Times New Roman,serif" font-size="14.00">c[10]</text>
<text text-anchor="middle" x="1435.5" y="-197.8" font-family="Times New Roman,serif" font-size="14.00"> Score: 1</text>
<text text-anchor="start" x="1349.5" y="-220.05" font-family="Times New Roman,serif" font-size="14.00" fill="darkmagenta">0,3</text>
</g>
<!-- 13 -->
<g id="node19" class="node">
<title>13</title>
<ellipse fill="none" stroke="black" cx="1668" cy="-158" rx="143.5" ry="18"/>
<text text-anchor="middle" x="1668" y="-154.3" font-family="Times New Roman,serif" font-size="14.00">13. </text>
<text text-anchor="start" x="1506.5" y="-145.6" font-family="Times New Roman,serif" font-size="14.00" fill="darkorange">5,2</text>
</g>
<!-- 9&#45;&gt;13 -->
<g id="edge22" class="edge">
<title>9&#45;&gt;13</title>
<path fill="none" stroke="blue" stroke-width="2.12" d="M1437.47,-259.6C1459.97,-254.13 1484.82,-247.19 1507,-239 1550.7,-222.85 1598.18,-198.34 1630.17,-180.7"/>
<polygon fill="blue" stroke="blue" stroke-width="2.12" points="1632.13,-183.62 1639.17,-175.7 1628.73,-177.5 1632.13,-183.62"/>
<text text-anchor="middle" x="1681" y="-227.8" font-family="Times New Roman,serif" font-size="14.00">&quot;(lefthalf[i] &gt;= righthalf[j])&quot;</text>
<text text-anchor="middle" x="1681" y="-212.8" font-family="Times New Roman,serif" font-size="14.00">c[11]</text>
<text text-anchor="middle" x="1681" y="-197.8" font-family="Times New Roman,serif" font-size="14.00"> Score: 0.28</text>
<text text-anchor="start" x="1523.74" y="-228.68" font-family="Times New Roman,serif" font-size="14.00" fill="darkmagenta">5,2</text>
</g>
<!-- 14 -->
<g id="node21" class="node">
<title>14</title>
<ellipse fill="none" stroke="black" cx="1993" cy="-158" rx="163" ry="18"/>
<text text-anchor="middle" x="1993" y="-154.3" font-family="Times New Roman,serif" font-size="14.00">14. </text>
<text text-anchor="start" x="1812" y="-181.6" font-family="Times New Roman,serif" font-size="14.00" fill="darkorange">3,0</text>
</g>
<!-- 10&#45;&gt;14 -->
<g id="edge26" class="edge">
<title>10&#45;&gt;14</title>
<path fill="none" stroke="green" d="M1992.15,-256.53C1992.31,-237.94 1992.57,-208.24 1992.76,-186.5"/>
<polygon fill="green" stroke="green" points="1996.26,-186.28 1992.85,-176.25 1989.26,-186.22 1996.26,-186.28"/>
<text text-anchor="middle" x="2039" y="-220.3" font-family="Times New Roman,serif" font-size="14.00">&quot;i &lt; len(lefthalf)&quot;</text>
<text text-anchor="middle" x="2039" y="-205.3" font-family="Times New Roman,serif" font-size="14.00">c[12]</text>
<text text-anchor="start" x="1974.5" y="-205.05" font-family="Times New Roman,serif" font-size="14.00" fill="darkmagenta">3,0</text>
</g>
<!-- 15 -->
<g id="node22" class="node">
<title>15</title>
<ellipse fill="none" stroke="black" cx="2279" cy="-158" rx="104.78" ry="18"/>
<text text-anchor="middle" x="2279" y="-154.3" font-family="Times New Roman,serif" font-size="14.00">15. while j &lt; len(righthalf):</text>
<text text-anchor="start" x="2156.36" y="-181.6" font-family="Times New Roman,serif" font-size="14.00" fill="darkorange">0,3</text>
</g>
<!-- 10&#45;&gt;15 -->
<g id="edge27" class="edge">
<title>10&#45;&gt;15</title>
<path fill="none" stroke="blue" stroke-width="3.56" d="M2036.59,-258.68C2053.41,-252.74 2072.66,-245.76 2090,-239 2139.58,-219.67 2195.63,-195.67 2233.73,-179.02"/>
<polygon fill="blue" stroke="blue" stroke-width="3.56" points="2235.26,-182.17 2243.02,-174.96 2232.46,-175.76 2235.26,-182.17"/>
<text text-anchor="middle" x="2253.5" y="-220.3" font-family="Times New Roman,serif" font-size="14.00">&quot;(i &gt;= len(lefthalf))&quot;</text>
<text text-anchor="middle" x="2253.5" y="-205.3" font-family="Times New Roman,serif" font-size="14.00"> Score: 0.64</text>
<text text-anchor="start" x="2122.63" y="-222.44" font-family="Times New Roman,serif" font-size="14.00" fill="darkmagenta">2,2</text>
</g>
<!-- 12 -->
<g id="node20" class="node">
<title>12</title>
<ellipse fill="none" stroke="black" cx="1367" cy="-41" rx="48.99" ry="18"/>
<text text-anchor="middle" x="1367" y="-37.3" font-family="Times New Roman,serif" font-size="14.00">12. k += 1</text>
<text text-anchor="start" x="1300.25" y="-64.6" font-family="Times New Roman,serif" font-size="14.00" fill="darkorange">5,5</text>
</g>
<!-- 11&#45;&gt;12 -->
<g id="edge23" class="edge">
<title>11&#45;&gt;12</title>
<path fill="none" stroke="red" stroke-width="5" d="M1367,-139.53C1367,-120.94 1367,-91.24 1367,-69.5"/>
<polygon fill="red" stroke="red" stroke-width="5" points="1371.38,-69.25 1367,-59.25 1362.63,-69.25 1371.38,-69.25"/>
<text text-anchor="middle" x="1392.5" y="-87.8" font-family="Times New Roman,serif" font-size="14.00"> Score: 1</text>
<text text-anchor="start" x="1349" y="-103.05" font-family="Times New Roman,serif" font-size="14.00" fill="darkmagenta">0,3</text>
</g>
<!-- 13&#45;&gt;12 -->
<g id="edge25" class="edge">
<title>13&#45;&gt;12</title>
<path fill="none" stroke="blue" stroke-width="2.76" d="M1625.51,-140.77C1568.07,-118.82 1466.24,-79.92 1409.03,-58.06"/>
<polygon fill="blue" stroke="blue" stroke-width="2.76" points="1410.16,-54.74 1399.57,-54.44 1407.66,-61.28 1410.16,-54.74"/>
<text text-anchor="middle" x="1605" y="-87.8" font-family="Times New Roman,serif" font-size="14.00"> Score: 0.44</text>
<text text-anchor="start" x="1494.52" y="-101.4" font-family="Times New Roman,serif" font-size="14.00" fill="darkmagenta">5,2</text>
</g>
<!-- 12&#45;&gt;8 -->
<g id="edge24" class="edge">
<title>12&#45;&gt;8</title>
<path fill="none" stroke="blue" stroke-width="3.28" d="M1332.33,-53.75C1296.6,-67.95 1242.84,-95.61 1219,-140 1211.43,-154.09 1218.59,-160.01 1219,-176 1220.33,-228.05 1199.55,-247.57 1225,-293 1244.95,-328.61 1283.89,-353.99 1316.11,-369.99"/>
<polygon fill="blue" stroke="blue" stroke-width="3.28" points="1314.89,-373.29 1325.42,-374.46 1317.92,-366.98 1314.89,-373.29"/>
<text text-anchor="middle" x="1253" y="-204.8" font-family="Times New Roman,serif" font-size="14.00"> Score: 0.57</text>
<text text-anchor="start" x="1199.84" y="-206.28" font-family="Times New Roman,serif" font-size="14.00" fill="darkmagenta">5,5</text>
</g>
<!-- 14&#45;&gt;10 -->
<g id="edge28" class="edge">
<title>14&#45;&gt;10</title>
<path fill="none" stroke="green" d="M1991.24,-176.07C1990.73,-181.77 1990.25,-188.15 1990,-194 1989.15,-213.98 1989.43,-219.01 1990,-239 1990.07,-241.56 1990.18,-244.21 1990.3,-246.87"/>
<polygon fill="green" stroke="green" points="1986.8,-247.12 1990.83,-256.92 1993.79,-246.75 1986.8,-247.12"/>
<text text-anchor="start" x="1971.47" y="-220.3" font-family="Times New Roman,serif" font-size="14.00" fill="darkmagenta">3,0</text>
</g>
<!-- 16 -->
<g id="node23" class="node">
<title>16</title>
<ellipse fill="none" stroke="black" cx="2279" cy="-41" rx="168.5" ry="18"/>
<text text-anchor="middle" x="2279" y="-37.3" font-family="Times New Roman,serif" font-size="14.00">16. </text>
<text text-anchor="start" x="2092.5" y="-64.6" font-family="Times New Roman,serif" font-size="14.00" fill="darkorange">0,3</text>
</g>
<!-- 15&#45;&gt;16 -->
<g id="edge29" class="edge">
<title>15&#45;&gt;16</title>
<path fill="none" stroke="red" stroke-width="5" d="M2237.83,-141.33C2229.92,-136.38 2222.65,-130.03 2218,-122 2207.98,-104.69 2207.98,-94.31 2218,-77 2220.68,-72.36 2224.24,-68.29 2228.29,-64.72"/>
<polygon fill="red" stroke="red" stroke-width="5" points="2231.24,-67.98 2236.59,-58.46 2225.97,-60.99 2231.24,-67.98"/>
<text text-anchor="middle" x="2268.5" y="-110.8" font-family="Times New Roman,serif" font-size="14.00">&quot;j &lt; len(righthalf)&quot;</text>
<text text-anchor="middle" x="2268.5" y="-95.8" font-family="Times New Roman,serif" font-size="14.00">c[13]</text>
<text text-anchor="middle" x="2268.5" y="-80.8" font-family="Times New Roman,serif" font-size="14.00"> Score: 1</text>
<text text-anchor="start" x="2192.75" y="-107.21" font-family="Times New Roman,serif" font-size="14.00" fill="darkmagenta">0,3</text>
</g>
<!-- 16&#45;&gt;15 -->
<g id="edge30" class="edge">
<title>16&#45;&gt;15</title>
<path fill="none" stroke="red" stroke-width="5" d="M2304.98,-58.98C2310.65,-64.04 2315.87,-70.11 2319,-77 2327.26,-95.21 2327.26,-103.79 2319,-122 2317.2,-125.97 2314.7,-129.67 2311.82,-133.06"/>
<polygon fill="red" stroke="red" stroke-width="5" points="2308.49,-130.2 2304.57,-140.39 2314.71,-136.36 2308.49,-130.2"/>
<text text-anchor="middle" x="2350.5" y="-87.8" font-family="Times New Roman,serif" font-size="14.00"> Score: 1</text>
<text text-anchor="start" x="2307.19" y="-103.93" font-family="Times New Roman,serif" font-size="14.00" fill="darkmagenta">0,3</text>
</g>
</g>
</svg>
