<?xml version="1.0" encoding="UTF-8" standalone="no"?>
<!DOCTYPE svg PUBLIC "-//W3C//DTD SVG 1.1//EN"
 "http://www.w3.org/Graphics/SVG/1.1/DTD/svg11.dtd">
<!-- Generated by graphviz version 12.1.0 (20240811.2233)
 -->
<!-- Pages: 1 -->
<svg width="1022pt" height="254pt"
 viewBox="0.00 0.00 1022.12 253.95" xmlns="http://www.w3.org/2000/svg" xmlns:xlink="http://www.w3.org/1999/xlink">
<g id="graph0" class="graph" transform="scale(1 1) rotate(0) translate(4 249.95)">
<polygon fill="white" stroke="none" points="-4,4 -4,-249.95 1018.12,-249.95 1018.12,4 -4,4"/>
<!-- trityp -->
<g id="node1" class="node">
<title>trityp</title>
<g id="a_node1"><a xlink:href="fault_report.html#trityp" xlink:title="trityp\nMax Score: 1.0">
<ellipse fill="none" stroke="red" stroke-width="2" cx="505.58" cy="-216.96" rx="71.24" ry="28.99"/>
<text text-anchor="middle" x="505.58" y="-220.16" font-family="Times New Roman,serif" font-size="14.00">trityp</text>
<text text-anchor="middle" x="505.58" y="-203.66" font-family="Times New Roman,serif" font-size="14.00">Max Score: 1.0</text>
</a>
</g>
</g>
<!-- trityp.trityp -->
<g id="node2" class="node">
<title>trityp.trityp</title>
<g id="a_node2"><a xlink:href="fault_report.html#trityp" xlink:title="trityp.trityp\nMax Score: 1.0">
<ellipse fill="none" stroke="red" stroke-width="2" cx="505.58" cy="-122.97" rx="71.24" ry="28.99"/>
<text text-anchor="middle" x="505.58" y="-126.17" font-family="Times New Roman,serif" font-size="14.00">trityp.trityp</text>
<text text-anchor="middle" x="505.58" y="-109.67" font-family="Times New Roman,serif" font-size="14.00">Max Score: 1.0</text>
</a>
</g>
</g>
<!-- trityp&#45;&gt;trityp.trityp -->
<g id="edge1" class="edge">
<title>trityp&#45;&gt;trityp.trityp</title>
<path fill="none" stroke="black" d="M505.58,-187.11C505.58,-179.83 505.58,-171.88 505.58,-164.16"/>
<polygon fill="black" stroke="black" points="509.08,-164.24 505.58,-154.24 502.08,-164.24 509.08,-164.24"/>
</g>
<!-- trityp.is_side_two_equal_three -->
<g id="node3" class="node">
<title>trityp.is_side_two_equal_three</title>
<g id="a_node3"><a xlink:href="fault_report.html#is_side_two_equal_three" xlink:title="trityp.is_side_two_equal_three\nMax Score: 1.0">
<ellipse fill="none" stroke="red" stroke-width="2" cx="129.58" cy="-28.99" rx="129.58" ry="28.99"/>
<text text-anchor="middle" x="129.58" y="-32.19" font-family="Times New Roman,serif" font-size="14.00">trityp.is_side_two_equal_three</text>
<text text-anchor="middle" x="129.58" y="-15.69" font-family="Times New Roman,serif" font-size="14.00">Max Score: 1.0</text>
</a>
</g>
</g>
<!-- trityp.trityp&#45;&gt;trityp.is_side_two_equal_three -->
<g id="edge2" class="edge">
<title>trityp.trityp&#45;&gt;trityp.is_side_two_equal_three</title>
<path fill="none" stroke="black" d="M444.75,-107.09C386.05,-92.73 296.23,-70.76 227.47,-53.94"/>
<polygon fill="black" stroke="black" points="228.64,-50.62 218.09,-51.65 226.97,-57.42 228.64,-50.62"/>
</g>
<!-- trityp.display_type_code -->
<g id="node4" class="node">
<title>trityp.display_type_code</title>
<g id="a_node4"><a xlink:href="fault_report.html#display_type_code" xlink:title="trityp.display_type_code\nMax Score: 0.57">
<ellipse fill="none" stroke="black" stroke-width="2" cx="383.58" cy="-28.99" rx="106.24" ry="28.99"/>
<text text-anchor="middle" x="383.58" y="-32.19" font-family="Times New Roman,serif" font-size="14.00">trityp.display_type_code</text>
<text text-anchor="middle" x="383.58" y="-15.69" font-family="Times New Roman,serif" font-size="14.00">Max Score: 0.57</text>
</a>
</g>
</g>
<!-- trityp.trityp&#45;&gt;trityp.display_type_code -->
<g id="edge3" class="edge">
<title>trityp.trityp&#45;&gt;trityp.display_type_code</title>
<path fill="none" stroke="black" d="M471.92,-96.6C458.61,-86.56 443.11,-74.88 428.85,-64.13"/>
<polygon fill="black" stroke="black" points="430.99,-61.36 420.9,-58.13 426.78,-66.94 430.99,-61.36"/>
</g>
<!-- trityp.is_side_one_equal_two -->
<g id="node5" class="node">
<title>trityp.is_side_one_equal_two</title>
<g id="a_node5"><a xlink:href="fault_report.html#is_side_one_equal_two" xlink:title="trityp.is_side_one_equal_two">
<ellipse fill="none" stroke="black" stroke-width="2" cx="627.58" cy="-28.99" rx="119.93" ry="18"/>
<text text-anchor="middle" x="627.58" y="-23.94" font-family="Times New Roman,serif" font-size="14.00">trityp.is_side_one_equal_two</text>
</a>
</g>
</g>
<!-- trityp.trityp&#45;&gt;trityp.is_side_one_equal_two -->
<g id="edge4" class="edge">
<title>trityp.trityp&#45;&gt;trityp.is_side_one_equal_two</title>
<path fill="none" stroke="black" d="M539.24,-96.6C556.73,-83.4 578.01,-67.36 595.3,-54.33"/>
<polygon fill="black" stroke="black" points="597.36,-57.16 603.24,-48.34 593.15,-51.57 597.36,-57.16"/>
</g>
<!-- trityp.is_side_one_equal_three -->
<g id="node6" class="node">
<title>trityp.is_side_one_equal_three</title>
<g id="a_node6"><a xlink:href="fault_report.html#is_side_one_equal_three" xlink:title="trityp.is_side_one_equal_three">
<ellipse fill="none" stroke="black" stroke-width="2" cx="889.58" cy="-28.99" rx="124.54" ry="18"/>
<text text-anchor="middle" x="889.58" y="-23.94" font-family="Times New Roman,serif" font-size="14.00">trityp.is_side_one_equal_three</text>
</a>
</g>
</g>
<!-- trityp.trityp&#45;&gt;trityp.is_side_one_equal_three -->
<g id="edge5" class="edge">
<title>trityp.trityp&#45;&gt;trityp.is_side_one_equal_three</title>
<path fill="none" stroke="black" d="M566.85,-107.3C634.22,-91.16 742.48,-65.23 814.8,-47.9"/>
<polygon fill="black" stroke="black" points="815.26,-51.39 824.17,-45.66 813.63,-44.58 815.26,-51.39"/>
</g>
</g>
</svg>
