<?xml version="1.0" encoding="UTF-8" standalone="no"?>
<!DOCTYPE svg PUBLIC "-//W3C//DTD SVG 1.1//EN"
 "http://www.w3.org/Graphics/SVG/1.1/DTD/svg11.dtd">
<!-- Generated by graphviz version 10.0.1 (20240210.2158)
 -->
<!-- Pages: 1 -->
<svg width="1024pt" height="156pt"
 viewBox="0.00 0.00 1023.87 155.72" xmlns="http://www.w3.org/2000/svg" xmlns:xlink="http://www.w3.org/1999/xlink">
<g id="graph0" class="graph" transform="scale(1 1) rotate(0) translate(4 151.72)">
<polygon fill="white" stroke="none" points="-4,4 -4,-151.72 1019.87,-151.72 1019.87,4 -4,4"/>
<!-- trityp.trityp -->
<g id="node1" class="node">
<title>trityp.trityp</title>
<g id="a_node1"><a xlink:href="fault_report.html#trityp" xlink:title="trityp.trityp\nMax Score: 1.0">
<ellipse fill="none" stroke="red" stroke-width="2" cx="522.42" cy="-119.79" rx="71.77" ry="27.93"/>
<text text-anchor="middle" x="522.42" y="-122.24" font-family="Times New Roman,serif" font-size="14.00">trityp.trityp</text>
<text text-anchor="middle" x="522.42" y="-106.49" font-family="Times New Roman,serif" font-size="14.00">Max Score: 1.0</text>
</a>
</g>
</g>
<!-- trityp.is_side_one_equal_three -->
<g id="node2" class="node">
<title>trityp.is_side_one_equal_three</title>
<g id="a_node2"><a xlink:href="fault_report.html#is_side_one_equal_three" xlink:title="trityp.is_side_one_equal_three">
<ellipse fill="none" stroke="black" stroke-width="2" cx="124.42" cy="-27.93" rx="124.42" ry="18"/>
<text text-anchor="middle" x="124.42" y="-22.51" font-family="Times New Roman,serif" font-size="14.00">trityp.is_side_one_equal_three</text>
</a>
</g>
</g>
<!-- trityp.trityp&#45;&gt;trityp.is_side_one_equal_three -->
<g id="edge1" class="edge">
<title>trityp.trityp&#45;&gt;trityp.is_side_one_equal_three</title>
<path fill="none" stroke="black" d="M460.67,-104.85C390.95,-89.11 277.42,-63.48 201.83,-46.41"/>
<polygon fill="black" stroke="black" points="202.97,-43.08 192.44,-44.29 201.42,-49.91 202.97,-43.08"/>
</g>
<!-- trityp.is_side_one_equal_two -->
<g id="node3" class="node">
<title>trityp.is_side_one_equal_two</title>
<g id="a_node3"><a xlink:href="fault_report.html#is_side_one_equal_two" xlink:title="trityp.is_side_one_equal_two">
<ellipse fill="none" stroke="black" stroke-width="2" cx="387.42" cy="-27.93" rx="120.42" ry="18"/>
<text text-anchor="middle" x="387.42" y="-22.51" font-family="Times New Roman,serif" font-size="14.00">trityp.is_side_one_equal_two</text>
</a>
</g>
</g>
<!-- trityp.trityp&#45;&gt;trityp.is_side_one_equal_two -->
<g id="edge2" class="edge">
<title>trityp.trityp&#45;&gt;trityp.is_side_one_equal_two</title>
<path fill="none" stroke="black" d="M486.24,-94.71C466.6,-81.64 442.4,-65.53 422.87,-52.53"/>
<polygon fill="black" stroke="black" points="424.94,-49.7 414.68,-47.08 421.06,-55.53 424.94,-49.7"/>
</g>
<!-- trityp.is_side_two_equal_three -->
<g id="node4" class="node">
<title>trityp.is_side_two_equal_three</title>
<g id="a_node4"><a xlink:href="fault_report.html#is_side_two_equal_three" xlink:title="trityp.is_side_two_equal_three\nMax Score: 1.0">
<ellipse fill="none" stroke="red" stroke-width="2" cx="658.42" cy="-27.93" rx="132.76" ry="27.93"/>
<text text-anchor="middle" x="658.42" y="-30.38" font-family="Times New Roman,serif" font-size="14.00">trityp.is_side_two_equal_three</text>
<text text-anchor="middle" x="658.42" y="-14.63" font-family="Times New Roman,serif" font-size="14.00">Max Score: 1.0</text>
</a>
</g>
</g>
<!-- trityp.trityp&#45;&gt;trityp.is_side_two_equal_three -->
<g id="edge3" class="edge">
<title>trityp.trityp&#45;&gt;trityp.is_side_two_equal_three</title>
<path fill="none" stroke="black" d="M558.5,-94.95C573.9,-84.78 592.11,-72.74 608.75,-61.75"/>
<polygon fill="black" stroke="black" points="610.65,-64.69 617.06,-56.26 606.79,-58.85 610.65,-64.69"/>
</g>
<!-- trityp.display_type_code -->
<g id="node5" class="node">
<title>trityp.display_type_code</title>
<g id="a_node5"><a xlink:href="fault_report.html#display_type_code" xlink:title="trityp.display_type_code">
<ellipse fill="none" stroke="black" stroke-width="2" cx="912.42" cy="-27.93" rx="103.46" ry="18"/>
<text text-anchor="middle" x="912.42" y="-22.51" font-family="Times New Roman,serif" font-size="14.00">trityp.display_type_code</text>
</a>
</g>
</g>
<!-- trityp.trityp&#45;&gt;trityp.display_type_code -->
<g id="edge4" class="edge">
<title>trityp.trityp&#45;&gt;trityp.display_type_code</title>
<path fill="none" stroke="black" d="M584.58,-104.97C640.95,-92.37 726.32,-73.15 800.42,-55.86 813.79,-52.74 828.04,-49.36 841.74,-46.08"/>
<polygon fill="black" stroke="black" points="842.2,-49.56 851.11,-43.83 840.57,-42.76 842.2,-49.56"/>
</g>
</g>
</svg>
