<?xml version="1.0" encoding="UTF-8" standalone="no"?>
<!DOCTYPE svg PUBLIC "-//W3C//DTD SVG 1.1//EN"
 "http://www.w3.org/Graphics/SVG/1.1/DTD/svg11.dtd">
<!-- Generated by graphviz version 12.1.0 (20240811.2233)
 -->
<!-- Title: clusterprocess_multiple_triangles Pages: 1 -->
<svg width="223pt" height="332pt"
 viewBox="0.00 0.00 223.15 331.65" xmlns="http://www.w3.org/2000/svg" xmlns:xlink="http://www.w3.org/1999/xlink">
<g id="graph0" class="graph" transform="scale(1 1) rotate(0) translate(4 327.65)">
<title>clusterprocess_multiple_triangles</title>
<polygon fill="white" stroke="none" points="-4,4 -4,-327.65 219.15,-327.65 219.15,4 -4,4"/>
<text text-anchor="middle" x="107.57" y="-7.2" font-family="Times New Roman,serif" font-size="14.00">process_multiple_triangles</text>
<!-- 1 -->
<g id="node1" class="node">
<title>1</title>
<ellipse fill="none" stroke="black" cx="116.2" cy="-289.15" rx="51.35" ry="18"/>
<text text-anchor="middle" x="116.2" y="-284.1" font-family="Times New Roman,serif" font-size="14.00">1. </text>
<text text-anchor="start" x="47.6" y="-293.85" font-family="Times New Roman,serif" font-size="14.00" fill="darkorange">0,0</text>
</g>
<!-- 2 -->
<g id="node2" class="node">
<title>2</title>
<ellipse fill="none" stroke="black" cx="116.2" cy="-216.15" rx="98.95" ry="18"/>
<text text-anchor="middle" x="116.2" y="-211.1" font-family="Times New Roman,serif" font-size="14.00">2. for sides in triangles:</text>
<text text-anchor="start" x="0" y="-220.85" font-family="Times New Roman,serif" font-size="14.00" fill="darkorange">0,0</text>
</g>
<!-- 1&#45;&gt;2 -->
<g id="edge1" class="edge">
<title>1&#45;&gt;2</title>
<path fill="none" stroke="black" d="M116.2,-270.96C116.2,-263.38 116.2,-254.25 116.2,-245.69"/>
<polygon fill="black" stroke="black" points="119.7,-245.69 116.2,-235.69 112.7,-245.69 119.7,-245.69"/>
<polygon fill="white" stroke="none" points="109.95,-226.09 109.95,-250.59 138.95,-250.59 138.95,-226.09 109.95,-226.09"/>
<text text-anchor="start" x="113.95" y="-233.29" font-family="Times New Roman,serif" font-size="14.00" fill="darkmagenta">0, 0</text>
</g>
<!-- 3 -->
<g id="node3" class="node">
<title>3</title>
<ellipse fill="none" stroke="black" cx="116.2" cy="-76.83" rx="91.39" ry="52.33"/>
<text text-anchor="middle" x="116.2" y="-88.28" font-family="Times New Roman,serif" font-size="14.00">3. i, j, k = sides</text>
<text text-anchor="middle" x="116.2" y="-71.78" font-family="Times New Roman,serif" font-size="14.00">result = trityp(i, j, k)</text>
<text text-anchor="middle" x="116.2" y="-55.28" font-family="Times New Roman,serif" font-size="14.00">print(f&#39;{result}&#39;)</text>
<text text-anchor="start" x="7.56" y="-115.85" font-family="Times New Roman,serif" font-size="14.00" fill="darkorange">0,0</text>
</g>
<!-- 2&#45;&gt;3 -->
<g id="edge2" class="edge">
<title>2&#45;&gt;3</title>
<path fill="none" stroke="black" d="M97.86,-198.2C93.33,-192.91 89.1,-186.72 86.7,-180.15 81.8,-166.72 82.55,-152.07 85.98,-138.16"/>
<polygon fill="black" stroke="black" points="89.31,-139.23 88.82,-128.65 82.61,-137.23 89.31,-139.23"/>
<text text-anchor="middle" x="109.95" y="-166.85" font-family="Times New Roman,serif" font-size="14.00">triangles</text>
<text text-anchor="middle" x="109.95" y="-150.35" font-family="Times New Roman,serif" font-size="14.00">c[18]</text>
<polygon fill="white" stroke="none" points="52.32,-165.31 52.32,-189.81 81.32,-189.81 81.32,-165.31 52.32,-165.31"/>
<text text-anchor="start" x="56.32" y="-172.51" font-family="Times New Roman,serif" font-size="14.00" fill="darkmagenta">0, 0</text>
</g>
<!-- 3&#45;&gt;2 -->
<g id="edge3" class="edge">
<title>3&#45;&gt;2</title>
<path fill="none" stroke="black" d="M132.46,-128.55C135.68,-145.09 137.03,-163.48 133.2,-180.15 132.63,-182.61 131.87,-185.1 130.98,-187.56"/>
<polygon fill="black" stroke="black" points="127.85,-185.97 127.08,-196.53 134.27,-188.76 127.85,-185.97"/>
<polygon fill="white" stroke="none" points="137.42,-165.31 137.42,-189.81 166.42,-189.81 166.42,-165.31 137.42,-165.31"/>
<text text-anchor="start" x="141.42" y="-172.51" font-family="Times New Roman,serif" font-size="14.00" fill="darkmagenta">0, 0</text>
</g>
</g>
</svg>
