<?xml version="1.0" encoding="UTF-8" standalone="no"?>
<!DOCTYPE svg PUBLIC "-//W3C//DTD SVG 1.1//EN"
 "http://www.w3.org/Graphics/SVG/1.1/DTD/svg11.dtd">
<!-- Generated by graphviz version 10.0.1 (20240210.2158)
 -->
<!-- Title: clustertrityp Pages: 1 -->
<svg width="1076pt" height="1480pt"
 viewBox="0.00 0.00 1075.76 1479.89" xmlns="http://www.w3.org/2000/svg" xmlns:xlink="http://www.w3.org/1999/xlink">
<g id="graph0" class="graph" transform="scale(1 1) rotate(0) translate(4 1475.89)">
<title>clustertrityp</title>
<polygon fill="white" stroke="none" points="-4,4 -4,-1475.89 1071.76,-1475.89 1071.76,4 -4,4"/>
<text text-anchor="middle" x="533.88" y="-5.75" font-family="Times New Roman,serif" font-size="10.00">trityp</text>
<!-- 1 -->
<g id="node1" class="node">
<title>1</title>
<ellipse fill="none" stroke="black" cx="345.97" cy="-1432.7" rx="123.21" ry="27.93"/>
<text text-anchor="middle" x="345.97" y="-1428.83" font-family="Times New Roman,serif" font-size="10.00">1. if i == 0 or j == 0 or k == 0:</text>
<text text-anchor="start" x="211.51" y="-1451.14" font-family="Times New Roman,serif" font-size="10.00" fill="darkorange">4,4</text>
</g>
<!-- 4 -->
<g id="node2" class="node">
<title>4</title>
<ellipse fill="none" stroke="black" cx="345.97" cy="-1308.71" rx="69.12" ry="39.07"/>
<text text-anchor="middle" x="345.97" y="-1310.46" font-family="Times New Roman,serif" font-size="10.00">4. type_code = 0</text>
<text text-anchor="middle" x="345.97" y="-1299.21" font-family="Times New Roman,serif" font-size="10.00">if i == j:</text>
<text text-anchor="start" x="265.6" y="-1338.27" font-family="Times New Roman,serif" font-size="10.00" fill="darkorange">4,4</text>
</g>
<!-- 1&#45;&gt;4 -->
<g id="edge1" class="edge">
<title>1&#45;&gt;4</title>
<path fill="none" stroke="blue" d="M345.97,-1404.33C345.97,-1391.11 345.97,-1374.84 345.97,-1359.54"/>
<polygon fill="blue" stroke="blue" points="349.47,-1359.61 345.97,-1349.61 342.47,-1359.61 349.47,-1359.61"/>
<text text-anchor="middle" x="406.34" y="-1379.17" font-family="Times New Roman,serif" font-size="8.00">&quot;(not (i == 0 or j == 0 or k == 0))&quot;</text>
<text text-anchor="middle" x="406.34" y="-1368.67" font-family="Times New Roman,serif" font-size="8.00">c[6]</text>
<text text-anchor="start" x="318.97" y="-1368.63" font-family="Times New Roman,serif" font-size="8.00" fill="darkmagenta"> &#160;&#160;&#160;&#160;4,4 &#160;</text>
</g>
<!-- 5 -->
<g id="node4" class="node">
<title>5</title>
<ellipse fill="none" stroke="black" cx="224.97" cy="-1184.71" rx="205.95" ry="27.93"/>
<text text-anchor="middle" x="224.97" y="-1180.83" font-family="Times New Roman,serif" font-size="10.00">5. type_code = is_side_one_equal_two(type_code)</text>
<text text-anchor="start" x="7.77" y="-1203.14" font-family="Times New Roman,serif" font-size="10.00" fill="darkorange">1,0</text>
</g>
<!-- 4&#45;&gt;5 -->
<g id="edge2" class="edge">
<title>4&#45;&gt;5</title>
<path fill="none" stroke="#429e6a" d="M312.58,-1274.05C296.11,-1257.44 276.26,-1237.42 259.62,-1220.65"/>
<polygon fill="#429e6a" stroke="#429e6a" points="262.33,-1218.41 252.81,-1213.77 257.36,-1223.34 262.33,-1218.41"/>
<text text-anchor="middle" x="302.72" y="-1244.04" font-family="Times New Roman,serif" font-size="8.00">&quot;i == j&quot;</text>
<text text-anchor="middle" x="302.72" y="-1233.54" font-family="Times New Roman,serif" font-size="8.00">c[7]</text>
<text text-anchor="start" x="255.33" y="-1235.94" font-family="Times New Roman,serif" font-size="8.00" fill="darkmagenta"> &#160;&#160;&#160;&#160;1,0 &#160;</text>
</g>
<!-- 6 -->
<g id="node5" class="node">
<title>6</title>
<ellipse fill="none" stroke="black" cx="345.97" cy="-1101.78" rx="42.58" ry="18"/>
<text text-anchor="middle" x="345.97" y="-1097.9" font-family="Times New Roman,serif" font-size="10.00">6. if i == k:</text>
<text text-anchor="start" x="292.14" y="-1110.28" font-family="Times New Roman,serif" font-size="10.00" fill="darkorange">4,4</text>
</g>
<!-- 4&#45;&gt;6 -->
<g id="edge3" class="edge">
<title>4&#45;&gt;6</title>
<path fill="none" stroke="blue" d="M388.41,-1277.54C408.07,-1260.9 429.38,-1238.4 439.97,-1212.64 449.4,-1189.68 452.41,-1178.27 439.97,-1156.78 429.2,-1138.17 409.33,-1125.42 390.62,-1117"/>
<polygon fill="blue" stroke="blue" points="392.09,-1113.82 381.51,-1113.23 389.41,-1120.29 392.09,-1113.82"/>
<text text-anchor="middle" x="460.22" y="-1182.36" font-family="Times New Roman,serif" font-size="8.00">(i != j)</text>
<text text-anchor="start" x="412.98" y="-1205.01" font-family="Times New Roman,serif" font-size="8.00" fill="darkmagenta"> &#160;&#160;&#160;&#160;3,4 &#160;</text>
</g>
<!-- 3 -->
<g id="node3" class="node">
<title>3</title>
<ellipse fill="none" stroke="black" cx="417.97" cy="-37.25" rx="74.02" ry="18"/>
<text text-anchor="middle" x="417.97" y="-33.38" font-family="Times New Roman,serif" font-size="10.00">3. return type_code</text>
<text text-anchor="start" x="332.7" y="-45.75" font-family="Times New Roman,serif" font-size="10.00" fill="darkorange">4,4</text>
</g>
<!-- 5&#45;&gt;6 -->
<g id="edge4" class="edge">
<title>5&#45;&gt;6</title>
<path fill="none" stroke="#429e6a" d="M264.92,-1156.99C281.07,-1146.18 299.44,-1133.9 314.6,-1123.76"/>
<polygon fill="#429e6a" stroke="#429e6a" points="316.42,-1126.75 322.79,-1118.28 312.53,-1120.93 316.42,-1126.75"/>
<text text-anchor="start" x="267.5" y="-1129.6" font-family="Times New Roman,serif" font-size="8.00" fill="darkmagenta"> &#160;&#160;&#160;&#160;1,0 &#160;</text>
</g>
<!-- 7 -->
<g id="node6" class="node">
<title>7</title>
<ellipse fill="none" stroke="black" cx="222.97" cy="-998.85" rx="210.19" ry="27.93"/>
<text text-anchor="middle" x="222.97" y="-994.97" font-family="Times New Roman,serif" font-size="10.00">7. type_code = is_side_one_equal_three(type_code)</text>
<text text-anchor="start" x="1.53" y="-1017.28" font-family="Times New Roman,serif" font-size="10.00" fill="darkorange">1,0</text>
</g>
<!-- 6&#45;&gt;7 -->
<g id="edge5" class="edge">
<title>6&#45;&gt;7</title>
<path fill="none" stroke="#429e6a" d="M327.02,-1085.23C310.39,-1071.58 285.62,-1051.26 264.42,-1033.87"/>
<polygon fill="#429e6a" stroke="#429e6a" points="266.71,-1031.21 256.76,-1027.58 262.27,-1036.63 266.71,-1031.21"/>
<text text-anchor="middle" x="316.84" y="-1058.18" font-family="Times New Roman,serif" font-size="8.00">&quot;i == k&quot;</text>
<text text-anchor="middle" x="316.84" y="-1047.68" font-family="Times New Roman,serif" font-size="8.00">c[8]</text>
<text text-anchor="start" x="264.24" y="-1048.27" font-family="Times New Roman,serif" font-size="8.00" fill="darkmagenta"> &#160;&#160;&#160;&#160;1,0 &#160;</text>
</g>
<!-- 8 -->
<g id="node7" class="node">
<title>8</title>
<ellipse fill="none" stroke="black" cx="345.97" cy="-915.92" rx="42.58" ry="18"/>
<text text-anchor="middle" x="345.97" y="-912.04" font-family="Times New Roman,serif" font-size="10.00">8. if j == k:</text>
<text text-anchor="start" x="292.14" y="-924.42" font-family="Times New Roman,serif" font-size="10.00" fill="darkorange">4,4</text>
</g>
<!-- 6&#45;&gt;8 -->
<g id="edge6" class="edge">
<title>6&#45;&gt;8</title>
<path fill="none" stroke="blue" d="M374.09,-1088.03C397.07,-1075.91 427.95,-1055.29 441.97,-1026.78 452.93,-1004.5 454.5,-992.35 441.97,-970.92 430.89,-951.98 410.46,-939.17 391.28,-930.8"/>
<polygon fill="blue" stroke="blue" points="392.81,-927.64 382.22,-927.16 390.2,-934.13 392.81,-927.64"/>
<text text-anchor="middle" x="462.34" y="-996.5" font-family="Times New Roman,serif" font-size="8.00">(i != k)</text>
<text text-anchor="start" x="414.98" y="-1019.16" font-family="Times New Roman,serif" font-size="8.00" fill="darkmagenta"> &#160;&#160;&#160;&#160;3,4 &#160;</text>
</g>
<!-- 7&#45;&gt;8 -->
<g id="edge7" class="edge">
<title>7&#45;&gt;8</title>
<path fill="none" stroke="#429e6a" d="M263.58,-971.12C280,-960.32 298.67,-948.04 314.08,-937.9"/>
<polygon fill="#429e6a" stroke="#429e6a" points="315.99,-940.83 322.42,-932.41 312.14,-934.99 315.99,-940.83"/>
<text text-anchor="start" x="266.65" y="-943.74" font-family="Times New Roman,serif" font-size="8.00" fill="darkmagenta"> &#160;&#160;&#160;&#160;1,0 &#160;</text>
</g>
<!-- 9 -->
<g id="node8" class="node">
<title>9</title>
<ellipse fill="none" stroke="black" cx="221.97" cy="-802.49" rx="210.72" ry="27.93"/>
<text text-anchor="middle" x="221.97" y="-798.61" font-family="Times New Roman,serif" font-size="10.00">9. type_code = is_side_two_equal_three(type_code)</text>
<text text-anchor="start" x="0" y="-820.92" font-family="Times New Roman,serif" font-size="10.00" fill="darkorange">0,4</text>
</g>
<!-- 8&#45;&gt;9 -->
<g id="edge8" class="edge">
<title>8&#45;&gt;9</title>
<path fill="none" stroke="red" stroke-width="5" d="M328.47,-899.19C311.68,-884.1 285.7,-860.75 263.6,-840.9"/>
<polygon fill="red" stroke="red" stroke-width="5" points="266.81,-837.9 256.44,-834.47 260.96,-844.4 266.81,-837.9"/>
<text text-anchor="middle" x="325.47" y="-872.32" font-family="Times New Roman,serif" font-size="8.00">&quot;j == k&quot;</text>
<text text-anchor="middle" x="325.47" y="-861.82" font-family="Times New Roman,serif" font-size="8.00">c[9]</text>
<text text-anchor="middle" x="325.47" y="-851.32" font-family="Times New Roman,serif" font-size="8.00"> &#160;Score: 1.0</text>
<text text-anchor="start" x="262.95" y="-856.98" font-family="Times New Roman,serif" font-size="8.00" fill="darkmagenta"> &#160;&#160;&#160;&#160;0,4 &#160;</text>
</g>
<!-- 10 -->
<g id="node9" class="node">
<title>10</title>
<ellipse fill="none" stroke="black" cx="344.97" cy="-719.56" rx="80.01" ry="18"/>
<text text-anchor="middle" x="344.97" y="-715.68" font-family="Times New Roman,serif" font-size="10.00">10. if type_code == 0:</text>
<text text-anchor="start" x="253.71" y="-728.06" font-family="Times New Roman,serif" font-size="10.00" fill="darkorange">4,4</text>
</g>
<!-- 8&#45;&gt;10 -->
<g id="edge9" class="edge">
<title>8&#45;&gt;10</title>
<path fill="none" stroke="#429e6a" d="M371.49,-901.03C394.76,-886.77 427.61,-862.18 441.97,-830.42 452.19,-807.79 454.55,-795.96 441.97,-774.56 432.88,-759.09 417.57,-747.73 401.76,-739.53"/>
<polygon fill="#429e6a" stroke="#429e6a" points="403.27,-736.37 392.74,-735.24 400.27,-742.7 403.27,-736.37"/>
<text text-anchor="middle" x="462.34" y="-800.14" font-family="Times New Roman,serif" font-size="8.00">(j != k)</text>
<text text-anchor="start" x="414.98" y="-822.8" font-family="Times New Roman,serif" font-size="8.00" fill="darkmagenta"> &#160;&#160;&#160;&#160;4,0 &#160;</text>
</g>
<!-- 9&#45;&gt;10 -->
<g id="edge10" class="edge">
<title>9&#45;&gt;10</title>
<path fill="none" stroke="red" d="M262.58,-774.76C278.08,-764.57 295.59,-753.05 310.47,-743.26"/>
<polygon fill="red" stroke="red" points="312.12,-746.36 318.55,-737.94 308.27,-740.51 312.12,-746.36"/>
<text text-anchor="start" x="263.96" y="-748.49" font-family="Times New Roman,serif" font-size="8.00" fill="darkmagenta"> &#160;&#160;&#160;&#160;0,4 &#160;</text>
</g>
<!-- 11 -->
<g id="node10" class="node">
<title>11</title>
<ellipse fill="none" stroke="black" cx="218.97" cy="-616.63" rx="160.34" ry="27.93"/>
<text text-anchor="middle" x="218.97" y="-612.75" font-family="Times New Roman,serif" font-size="10.00">11. if i + j &lt;= k or j + k &lt;= i or i + k &lt;= j:</text>
<text text-anchor="start" x="47.38" y="-635.06" font-family="Times New Roman,serif" font-size="10.00" fill="darkorange">2,0</text>
</g>
<!-- 10&#45;&gt;11 -->
<g id="edge11" class="edge">
<title>10&#45;&gt;11</title>
<path fill="none" stroke="#429e6a" d="M324.16,-701.89C307.04,-688.17 282.21,-668.29 260.98,-651.28"/>
<polygon fill="#429e6a" stroke="#429e6a" points="263.31,-648.66 253.32,-645.14 258.93,-654.12 263.31,-648.66"/>
<text text-anchor="middle" x="331.72" y="-675.96" font-family="Times New Roman,serif" font-size="8.00">&quot;type_code == 0&quot;</text>
<text text-anchor="middle" x="331.72" y="-665.46" font-family="Times New Roman,serif" font-size="8.00">c[10]</text>
<text text-anchor="start" x="261.4" y="-665.64" font-family="Times New Roman,serif" font-size="8.00" fill="darkmagenta"> &#160;&#160;&#160;&#160;2,0 &#160;</text>
</g>
<!-- 13 -->
<g id="node11" class="node">
<title>13</title>
<ellipse fill="none" stroke="black" cx="471.97" cy="-616.63" rx="74.52" ry="18"/>
<text text-anchor="middle" x="471.97" y="-612.75" font-family="Times New Roman,serif" font-size="10.00">13. if type_code &gt; 3:</text>
<text text-anchor="start" x="386.2" y="-625.13" font-family="Times New Roman,serif" font-size="10.00" fill="darkorange">2,4</text>
</g>
<!-- 10&#45;&gt;13 -->
<g id="edge12" class="edge">
<title>10&#45;&gt;13</title>
<path fill="none" stroke="blue" d="M365.94,-701.89C386.71,-685.38 418.73,-659.94 442.14,-641.33"/>
<polygon fill="blue" stroke="blue" points="444.13,-644.22 449.78,-635.26 439.77,-638.74 444.13,-644.22"/>
<text text-anchor="middle" x="442.22" y="-670.71" font-family="Times New Roman,serif" font-size="8.00">(type_code != 0)</text>
<text text-anchor="start" x="381.45" y="-660.5" font-family="Times New Roman,serif" font-size="8.00" fill="darkmagenta"> &#160;&#160;&#160;&#160;2,4 &#160;</text>
</g>
<!-- 26 -->
<g id="node12" class="node">
<title>26</title>
<ellipse fill="none" stroke="black" cx="218.97" cy="-449.76" rx="150.79" ry="27.93"/>
<text text-anchor="middle" x="218.97" y="-445.89" font-family="Times New Roman,serif" font-size="10.00">26. type_code = display_type_code(4)</text>
<text text-anchor="start" x="56.93" y="-468.19" font-family="Times New Roman,serif" font-size="10.00" fill="darkorange">2,0</text>
</g>
<!-- 11&#45;&gt;26 -->
<g id="edge13" class="edge">
<title>11&#45;&gt;26</title>
<path fill="none" stroke="#429e6a" d="M218.97,-588.4C218.97,-561.44 218.97,-519.88 218.97,-489.48"/>
<polygon fill="#429e6a" stroke="#429e6a" points="222.47,-489.54 218.97,-479.54 215.47,-489.54 222.47,-489.54"/>
<text text-anchor="middle" x="281.97" y="-563.09" font-family="Times New Roman,serif" font-size="8.00">&quot;i + j &lt;= k or j + k &lt;= i or i + k &lt;= j&quot;</text>
<text text-anchor="middle" x="281.97" y="-552.59" font-family="Times New Roman,serif" font-size="8.00">c[11]</text>
<text text-anchor="start" x="191.97" y="-525.62" font-family="Times New Roman,serif" font-size="8.00" fill="darkmagenta"> &#160;&#160;&#160;&#160;2,0 &#160;</text>
</g>
<!-- 16 -->
<g id="node13" class="node">
<title>16</title>
<ellipse fill="none" stroke="black" cx="471.97" cy="-513.69" rx="127.91" ry="18"/>
<text text-anchor="middle" x="471.97" y="-509.82" font-family="Times New Roman,serif" font-size="10.00">16. if type_code == 1 and i + j &gt; k:</text>
<text text-anchor="start" x="332.81" y="-522.19" font-family="Times New Roman,serif" font-size="10.00" fill="darkorange">2,4</text>
</g>
<!-- 13&#45;&gt;16 -->
<g id="edge15" class="edge">
<title>13&#45;&gt;16</title>
<path fill="none" stroke="blue" d="M471.97,-598.5C471.97,-583.42 471.97,-561.15 471.97,-543.36"/>
<polygon fill="blue" stroke="blue" points="475.47,-543.41 471.97,-533.41 468.47,-543.41 475.47,-543.41"/>
<text text-anchor="middle" x="501.97" y="-557.84" font-family="Times New Roman,serif" font-size="8.00">(type_code &lt;= 3)</text>
<text text-anchor="start" x="444.97" y="-557.51" font-family="Times New Roman,serif" font-size="8.00" fill="darkmagenta"> &#160;&#160;&#160;&#160;2,4 &#160;</text>
</g>
<!-- 26&#45;&gt;3 -->
<g id="edge14" class="edge">
<title>26&#45;&gt;3</title>
<path fill="none" stroke="#429e6a" d="M218.97,-421.76C218.97,-396.27 218.97,-356.99 218.97,-322.9 218.97,-322.9 218.97,-322.9 218.97,-119.18 218.97,-66.86 278.72,-47.58 332.73,-40.84"/>
<polygon fill="#429e6a" stroke="#429e6a" points="333.09,-44.32 342.65,-39.75 332.32,-37.36 333.09,-44.32"/>
<text text-anchor="start" x="191.97" y="-289.84" font-family="Times New Roman,serif" font-size="8.00" fill="darkmagenta"> &#160;&#160;&#160;&#160;2,0 &#160;</text>
</g>
<!-- 17 -->
<g id="node14" class="node">
<title>17</title>
<ellipse fill="none" stroke="black" cx="384.97" cy="-321.9" rx="150.79" ry="27.93"/>
<text text-anchor="middle" x="384.97" y="-318.03" font-family="Times New Roman,serif" font-size="10.00">17. type_code = display_type_code(2)</text>
<text text-anchor="start" x="222.93" y="-340.33" font-family="Times New Roman,serif" font-size="10.00" fill="darkorange">1,0</text>
</g>
<!-- 16&#45;&gt;17 -->
<g id="edge16" class="edge">
<title>16&#45;&gt;17</title>
<path fill="none" stroke="#429e6a" d="M420.14,-496.85C411.51,-492.01 403.56,-485.75 397.97,-477.69 374.46,-443.8 374.4,-395.14 378.17,-361.47"/>
<polygon fill="#429e6a" stroke="#429e6a" points="381.61,-362.1 379.43,-351.73 374.67,-361.2 381.61,-362.1"/>
<text text-anchor="middle" x="450.47" y="-452.66" font-family="Times New Roman,serif" font-size="8.00">&quot;type_code == 1 and i + j &gt; k&quot;</text>
<text text-anchor="middle" x="450.47" y="-442.16" font-family="Times New Roman,serif" font-size="8.00">c[14]</text>
<text text-anchor="start" x="378.86" y="-419.14" font-family="Times New Roman,serif" font-size="8.00" fill="darkmagenta"> &#160;&#160;&#160;&#160;1,0 &#160;</text>
</g>
<!-- 19 -->
<g id="node15" class="node">
<title>19</title>
<ellipse fill="none" stroke="black" cx="558.97" cy="-385.83" rx="127.91" ry="18"/>
<text text-anchor="middle" x="558.97" y="-381.96" font-family="Times New Roman,serif" font-size="10.00">19. if type_code == 2 and i + k &gt; j:</text>
<text text-anchor="start" x="419.81" y="-394.33" font-family="Times New Roman,serif" font-size="10.00" fill="darkorange">1,4</text>
</g>
<!-- 16&#45;&gt;19 -->
<g id="edge17" class="edge">
<title>16&#45;&gt;19</title>
<path fill="none" stroke="blue" d="M490.75,-495.74C496.3,-490.26 502.17,-483.98 506.97,-477.69 522.19,-457.78 536.11,-432.95 545.7,-414.28"/>
<polygon fill="blue" stroke="blue" points="548.78,-415.94 550.15,-405.43 542.53,-412.8 548.78,-415.94"/>
<text text-anchor="middle" x="602.84" y="-447.41" font-family="Times New Roman,serif" font-size="8.00">(not (type_code == 1 and i + j &gt; k))</text>
<text text-anchor="start" x="510.85" y="-434.15" font-family="Times New Roman,serif" font-size="8.00" fill="darkmagenta"> &#160;&#160;&#160;&#160;1,4 &#160;</text>
</g>
<!-- 17&#45;&gt;3 -->
<g id="edge18" class="edge">
<title>17&#45;&gt;3</title>
<path fill="none" stroke="#429e6a" d="M385.5,-293.69C386.35,-262.7 388.52,-210.6 393.97,-166.11 398.19,-131.66 405.99,-92.5 411.55,-66.7"/>
<polygon fill="#429e6a" stroke="#429e6a" points="414.96,-67.51 413.68,-56.99 408.12,-66.01 414.96,-67.51"/>
<text text-anchor="start" x="366.97" y="-158.49" font-family="Times New Roman,serif" font-size="8.00" fill="darkmagenta"> &#160;&#160;&#160;&#160;1,0 &#160;</text>
</g>
<!-- 20 -->
<g id="node16" class="node">
<title>20</title>
<ellipse fill="none" stroke="black" cx="545.97" cy="-194.04" rx="150.79" ry="27.93"/>
<text text-anchor="middle" x="545.97" y="-190.17" font-family="Times New Roman,serif" font-size="10.00">20. type_code = display_type_code(2)</text>
<text text-anchor="start" x="383.93" y="-212.47" font-family="Times New Roman,serif" font-size="10.00" fill="darkorange">1,0</text>
</g>
<!-- 19&#45;&gt;20 -->
<g id="edge19" class="edge">
<title>19&#45;&gt;20</title>
<path fill="none" stroke="#429e6a" d="M557.79,-367.66C555.73,-337.59 551.43,-274.74 548.62,-233.75"/>
<polygon fill="#429e6a" stroke="#429e6a" points="552.11,-233.55 547.94,-223.81 545.13,-234.03 552.11,-233.55"/>
<text text-anchor="middle" x="608.47" y="-324.8" font-family="Times New Roman,serif" font-size="8.00">&quot;type_code == 2 and i + k &gt; j&quot;</text>
<text text-anchor="middle" x="608.47" y="-314.3" font-family="Times New Roman,serif" font-size="8.00">c[15]</text>
<text text-anchor="start" x="552.81" y="-287.34" font-family="Times New Roman,serif" font-size="8.00" fill="darkmagenta"> &#160;&#160;&#160;&#160;1,0 &#160;</text>
</g>
<!-- 22 -->
<g id="node17" class="node">
<title>22</title>
<ellipse fill="none" stroke="black" cx="719.97" cy="-257.97" rx="127.91" ry="18"/>
<text text-anchor="middle" x="719.97" y="-254.1" font-family="Times New Roman,serif" font-size="10.00">22. if type_code == 3 and j + k &gt; i:</text>
<text text-anchor="start" x="580.81" y="-266.47" font-family="Times New Roman,serif" font-size="10.00" fill="darkorange">0,4</text>
</g>
<!-- 19&#45;&gt;22 -->
<g id="edge20" class="edge">
<title>19&#45;&gt;22</title>
<path fill="none" stroke="red" d="M630,-370.44C643.55,-365.46 656.93,-358.78 667.97,-349.83 688.13,-333.5 701.98,-307.12 710.28,-286.99"/>
<polygon fill="red" stroke="red" points="713.54,-288.26 713.89,-277.67 707.02,-285.73 713.54,-288.26"/>
<text text-anchor="middle" x="767.84" y="-319.55" font-family="Times New Roman,serif" font-size="8.00">(not (type_code == 2 and i + k &gt; j))</text>
<text text-anchor="start" x="657.28" y="-325.46" font-family="Times New Roman,serif" font-size="8.00" fill="darkmagenta"> &#160;&#160;&#160;&#160;0,4 &#160;</text>
</g>
<!-- 20&#45;&gt;3 -->
<g id="edge21" class="edge">
<title>20&#45;&gt;3</title>
<path fill="none" stroke="#429e6a" d="M464,-170.31C453.71,-164.49 444.26,-157.22 436.97,-148.11 418.64,-125.24 415.35,-90.99 415.71,-66.82"/>
<polygon fill="#429e6a" stroke="#429e6a" points="419.2,-67.18 416.1,-57.05 412.21,-66.91 419.2,-67.18"/>
<text text-anchor="start" x="394.89" y="-110.45" font-family="Times New Roman,serif" font-size="8.00" fill="darkmagenta"> &#160;&#160;&#160;&#160;1,0 &#160;</text>
</g>
<!-- 23 -->
<g id="node18" class="node">
<title>23</title>
<ellipse fill="none" stroke="black" cx="596.97" cy="-120.18" rx="150.79" ry="27.93"/>
<text text-anchor="middle" x="596.97" y="-116.31" font-family="Times New Roman,serif" font-size="10.00">23. type_code = display_type_code(2)</text>
<text text-anchor="start" x="434.93" y="-138.61" font-family="Times New Roman,serif" font-size="10.00" fill="darkorange">0,2</text>
</g>
<!-- 22&#45;&gt;23 -->
<g id="edge22" class="edge">
<title>22&#45;&gt;23</title>
<path fill="none" stroke="red" stroke-width="3.96" d="M720.15,-239.57C719.45,-219.64 715.43,-187.06 697.97,-166.11 694.04,-161.4 689.51,-157.16 684.6,-153.35"/>
<polygon fill="red" stroke="red" stroke-width="3.96" points="686.96,-150.72 676.71,-148.08 683.08,-156.54 686.96,-150.72"/>
<text text-anchor="middle" x="770.47" y="-202.19" font-family="Times New Roman,serif" font-size="8.00">&quot;type_code == 3 and j + k &gt; i&quot;</text>
<text text-anchor="middle" x="770.47" y="-191.69" font-family="Times New Roman,serif" font-size="8.00">c[16]</text>
<text text-anchor="middle" x="770.47" y="-181.19" font-family="Times New Roman,serif" font-size="8.00"> &#160;Score: 0.74</text>
<text text-anchor="start" x="696.48" y="-168.51" font-family="Times New Roman,serif" font-size="8.00" fill="darkmagenta"> &#160;&#160;&#160;&#160;0,2 &#160;</text>
</g>
<!-- 25 -->
<g id="node19" class="node">
<title>25</title>
<ellipse fill="none" stroke="black" cx="916.97" cy="-120.18" rx="150.79" ry="27.93"/>
<text text-anchor="middle" x="916.97" y="-116.31" font-family="Times New Roman,serif" font-size="10.00">25. type_code = display_type_code(4)</text>
<text text-anchor="start" x="754.93" y="-138.61" font-family="Times New Roman,serif" font-size="10.00" fill="darkorange">0,2</text>
</g>
<!-- 22&#45;&gt;25 -->
<g id="edge23" class="edge">
<title>22&#45;&gt;25</title>
<path fill="none" stroke="red" stroke-width="3.96" d="M784.15,-242.03C798.91,-236.99 814.05,-230.42 826.97,-221.97 851.41,-206 873.35,-181.73 889.46,-161.01"/>
<polygon fill="red" stroke="red" stroke-width="3.96" points="892.15,-163.26 895.34,-153.16 886.55,-159.06 892.15,-163.26"/>
<text text-anchor="middle" x="949.59" y="-202.19" font-family="Times New Roman,serif" font-size="8.00">&quot;(not (type_code == 3 and j + k &gt; i))&quot;</text>
<text text-anchor="middle" x="949.59" y="-191.69" font-family="Times New Roman,serif" font-size="8.00">c[17]</text>
<text text-anchor="middle" x="949.59" y="-181.19" font-family="Times New Roman,serif" font-size="8.00"> &#160;Score: 0.74</text>
<text text-anchor="start" x="849.58" y="-196.86" font-family="Times New Roman,serif" font-size="8.00" fill="darkmagenta"> &#160;&#160;&#160;&#160;0,2 &#160;</text>
</g>
<!-- 23&#45;&gt;3 -->
<g id="edge24" class="edge">
<title>23&#45;&gt;3</title>
<path fill="none" stroke="red" d="M540.82,-93.8C515.57,-82.38 486.19,-69.09 462.49,-58.38"/>
<polygon fill="red" stroke="red" points="463.97,-55.21 453.41,-54.28 461.08,-61.59 463.97,-55.21"/>
<text text-anchor="start" x="469.66" y="-66.23" font-family="Times New Roman,serif" font-size="8.00" fill="darkmagenta"> &#160;&#160;&#160;&#160;0,2 &#160;</text>
</g>
<!-- 25&#45;&gt;3 -->
<g id="edge25" class="edge">
<title>25&#45;&gt;3</title>
<path fill="none" stroke="red" d="M807.68,-100.65C790.71,-97.82 773.37,-94.94 756.97,-92.25 664.91,-77.17 558.68,-60.34 490.03,-49.54"/>
<polygon fill="red" stroke="red" points="490.85,-46.13 480.42,-48.03 489.76,-53.04 490.85,-46.13"/>
<text text-anchor="start" x="616.45" y="-66.28" font-family="Times New Roman,serif" font-size="8.00" fill="darkmagenta"> &#160;&#160;&#160;&#160;0,2 &#160;</text>
</g>
</g>
</svg>
