<?xml version="1.0" encoding="UTF-8" standalone="no"?>
<!DOCTYPE svg PUBLIC "-//W3C//DTD SVG 1.1//EN"
 "http://www.w3.org/Graphics/SVG/1.1/DTD/svg11.dtd">
<!-- Generated by graphviz version 10.0.1 (20240210.2158)
 -->
<!-- Title: clustertrityp Pages: 1 -->
<svg width="1076pt" height="1478pt"
 viewBox="0.00 0.00 1075.76 1478.39" xmlns="http://www.w3.org/2000/svg" xmlns:xlink="http://www.w3.org/1999/xlink">
<g id="graph0" class="graph" transform="scale(1 1) rotate(0) translate(4 1474.39)">
<title>clustertrityp</title>
<polygon fill="white" stroke="none" points="-4,4 -4,-1474.39 1071.76,-1474.39 1071.76,4 -4,4"/>
<text text-anchor="middle" x="533.88" y="-6.9" font-family="Times New Roman,serif" font-size="8.00">trityp</text>
<!-- 1 -->
<g id="node1" class="node">
<title>1</title>
<ellipse fill="none" stroke="black" cx="345.97" cy="-1431.95" rx="123.21" ry="27.93"/>
<text text-anchor="middle" x="345.97" y="-1429.6" font-family="Times New Roman,serif" font-size="8.00">1. if i == 0 or j == 0 or k == 0:</text>
<text text-anchor="start" x="211.51" y="-1452.29" font-family="Times New Roman,serif" font-size="8.00" fill="darkorange">4,4</text>
</g>
<!-- 4 -->
<g id="node2" class="node">
<title>4</title>
<ellipse fill="none" stroke="black" cx="345.97" cy="-1307.96" rx="69.12" ry="39.07"/>
<text text-anchor="middle" x="345.97" y="-1310.86" font-family="Times New Roman,serif" font-size="8.00">4. type_code = 0</text>
<text text-anchor="middle" x="345.97" y="-1300.36" font-family="Times New Roman,serif" font-size="8.00">if i == j:</text>
<text text-anchor="start" x="265.6" y="-1339.42" font-family="Times New Roman,serif" font-size="8.00" fill="darkorange">4,4</text>
</g>
<!-- 1&#45;&gt;4 -->
<g id="edge1" class="edge">
<title>1&#45;&gt;4</title>
<path fill="none" stroke="blue" d="M345.97,-1403.58C345.97,-1390.36 345.97,-1374.09 345.97,-1358.79"/>
<polygon fill="blue" stroke="blue" points="349.47,-1358.86 345.97,-1348.86 342.47,-1358.86 349.47,-1358.86"/>
<text text-anchor="middle" x="406.34" y="-1378.42" font-family="Times New Roman,serif" font-size="8.00">&quot;(not (i == 0 or j == 0 or k == 0))&quot;</text>
<text text-anchor="middle" x="406.34" y="-1367.92" font-family="Times New Roman,serif" font-size="8.00">c[6]</text>
<text text-anchor="start" x="323.47" y="-1367.88" font-family="Times New Roman,serif" font-size="8.00" fill="darkmagenta"> &#160;4,4 &#160;&#160;</text>
</g>
<!-- 5 -->
<g id="node4" class="node">
<title>5</title>
<ellipse fill="none" stroke="black" cx="224.97" cy="-1183.96" rx="205.95" ry="27.93"/>
<text text-anchor="middle" x="224.97" y="-1181.61" font-family="Times New Roman,serif" font-size="8.00">5. type_code = is_side_one_equal_two(type_code)</text>
<text text-anchor="start" x="7.77" y="-1204.29" font-family="Times New Roman,serif" font-size="8.00" fill="darkorange">1,0</text>
</g>
<!-- 4&#45;&gt;5 -->
<g id="edge2" class="edge">
<title>4&#45;&gt;5</title>
<path fill="none" stroke="#429e6a" d="M312.58,-1273.3C296.11,-1256.69 276.26,-1236.67 259.62,-1219.9"/>
<polygon fill="#429e6a" stroke="#429e6a" points="262.33,-1217.66 252.81,-1213.02 257.36,-1222.59 262.33,-1217.66"/>
<text text-anchor="middle" x="302.72" y="-1243.29" font-family="Times New Roman,serif" font-size="8.00">&quot;i == j&quot;</text>
<text text-anchor="middle" x="302.72" y="-1232.79" font-family="Times New Roman,serif" font-size="8.00">c[7]</text>
<text text-anchor="start" x="259.83" y="-1235.19" font-family="Times New Roman,serif" font-size="8.00" fill="darkmagenta"> &#160;1,0 &#160;&#160;</text>
</g>
<!-- 6 -->
<g id="node5" class="node">
<title>6</title>
<ellipse fill="none" stroke="black" cx="345.97" cy="-1101.03" rx="42.58" ry="18"/>
<text text-anchor="middle" x="345.97" y="-1098.68" font-family="Times New Roman,serif" font-size="8.00">6. if i == k:</text>
<text text-anchor="start" x="292.14" y="-1111.43" font-family="Times New Roman,serif" font-size="8.00" fill="darkorange">4,4</text>
</g>
<!-- 4&#45;&gt;6 -->
<g id="edge3" class="edge">
<title>4&#45;&gt;6</title>
<path fill="none" stroke="blue" d="M388.41,-1276.79C408.07,-1260.15 429.38,-1237.65 439.97,-1211.89 449.4,-1188.93 452.41,-1177.52 439.97,-1156.03 429.2,-1137.42 409.33,-1124.67 390.62,-1116.25"/>
<polygon fill="blue" stroke="blue" points="392.09,-1113.07 381.51,-1112.48 389.41,-1119.54 392.09,-1113.07"/>
<text text-anchor="middle" x="460.22" y="-1181.61" font-family="Times New Roman,serif" font-size="8.00">(i != j)</text>
<text text-anchor="start" x="417.48" y="-1204.26" font-family="Times New Roman,serif" font-size="8.00" fill="darkmagenta"> &#160;3,4 &#160;&#160;</text>
</g>
<!-- 3 -->
<g id="node3" class="node">
<title>3</title>
<ellipse fill="none" stroke="black" cx="417.97" cy="-36.5" rx="74.02" ry="18"/>
<text text-anchor="middle" x="417.97" y="-34.15" font-family="Times New Roman,serif" font-size="8.00">3. return type_code</text>
<text text-anchor="start" x="332.7" y="-46.9" font-family="Times New Roman,serif" font-size="8.00" fill="darkorange">4,4</text>
</g>
<!-- 5&#45;&gt;6 -->
<g id="edge4" class="edge">
<title>5&#45;&gt;6</title>
<path fill="none" stroke="#429e6a" d="M264.92,-1156.24C281.07,-1145.43 299.44,-1133.15 314.6,-1123.01"/>
<polygon fill="#429e6a" stroke="#429e6a" points="316.42,-1126 322.79,-1117.53 312.53,-1120.18 316.42,-1126"/>
<text text-anchor="start" x="272" y="-1128.85" font-family="Times New Roman,serif" font-size="8.00" fill="darkmagenta"> &#160;1,0 &#160;&#160;</text>
</g>
<!-- 7 -->
<g id="node6" class="node">
<title>7</title>
<ellipse fill="none" stroke="black" cx="222.97" cy="-998.1" rx="210.19" ry="27.93"/>
<text text-anchor="middle" x="222.97" y="-995.75" font-family="Times New Roman,serif" font-size="8.00">7. type_code = is_side_one_equal_three(type_code)</text>
<text text-anchor="start" x="1.53" y="-1018.43" font-family="Times New Roman,serif" font-size="8.00" fill="darkorange">1,0</text>
</g>
<!-- 6&#45;&gt;7 -->
<g id="edge5" class="edge">
<title>6&#45;&gt;7</title>
<path fill="none" stroke="#429e6a" d="M327.02,-1084.48C310.39,-1070.83 285.62,-1050.51 264.42,-1033.12"/>
<polygon fill="#429e6a" stroke="#429e6a" points="266.71,-1030.46 256.76,-1026.83 262.27,-1035.88 266.71,-1030.46"/>
<text text-anchor="middle" x="316.84" y="-1057.43" font-family="Times New Roman,serif" font-size="8.00">&quot;i == k&quot;</text>
<text text-anchor="middle" x="316.84" y="-1046.93" font-family="Times New Roman,serif" font-size="8.00">c[8]</text>
<text text-anchor="start" x="268.74" y="-1047.52" font-family="Times New Roman,serif" font-size="8.00" fill="darkmagenta"> &#160;1,0 &#160;&#160;</text>
</g>
<!-- 8 -->
<g id="node7" class="node">
<title>8</title>
<ellipse fill="none" stroke="black" cx="345.97" cy="-915.17" rx="42.58" ry="18"/>
<text text-anchor="middle" x="345.97" y="-912.82" font-family="Times New Roman,serif" font-size="8.00">8. if j == k:</text>
<text text-anchor="start" x="292.14" y="-925.57" font-family="Times New Roman,serif" font-size="8.00" fill="darkorange">4,4</text>
</g>
<!-- 6&#45;&gt;8 -->
<g id="edge6" class="edge">
<title>6&#45;&gt;8</title>
<path fill="none" stroke="blue" d="M374.09,-1087.28C397.07,-1075.16 427.95,-1054.54 441.97,-1026.03 452.93,-1003.75 454.5,-991.6 441.97,-970.17 430.89,-951.23 410.46,-938.42 391.28,-930.05"/>
<polygon fill="blue" stroke="blue" points="392.81,-926.89 382.22,-926.41 390.2,-933.38 392.81,-926.89"/>
<text text-anchor="middle" x="462.34" y="-995.75" font-family="Times New Roman,serif" font-size="8.00">(i != k)</text>
<text text-anchor="start" x="419.48" y="-1018.41" font-family="Times New Roman,serif" font-size="8.00" fill="darkmagenta"> &#160;3,4 &#160;&#160;</text>
</g>
<!-- 7&#45;&gt;8 -->
<g id="edge7" class="edge">
<title>7&#45;&gt;8</title>
<path fill="none" stroke="#429e6a" d="M263.58,-970.37C280,-959.57 298.67,-947.29 314.08,-937.15"/>
<polygon fill="#429e6a" stroke="#429e6a" points="315.99,-940.08 322.42,-931.66 312.14,-934.24 315.99,-940.08"/>
<text text-anchor="start" x="271.15" y="-942.99" font-family="Times New Roman,serif" font-size="8.00" fill="darkmagenta"> &#160;1,0 &#160;&#160;</text>
</g>
<!-- 9 -->
<g id="node8" class="node">
<title>9</title>
<ellipse fill="none" stroke="black" cx="221.97" cy="-801.74" rx="210.72" ry="27.93"/>
<text text-anchor="middle" x="221.97" y="-799.39" font-family="Times New Roman,serif" font-size="8.00">9. type_code = is_side_two_equal_three(type_code)</text>
<text text-anchor="start" x="0" y="-822.07" font-family="Times New Roman,serif" font-size="8.00" fill="darkorange">0,4</text>
</g>
<!-- 8&#45;&gt;9 -->
<g id="edge8" class="edge">
<title>8&#45;&gt;9</title>
<path fill="none" stroke="red" stroke-width="5" d="M328.47,-898.44C311.68,-883.35 285.7,-860 263.6,-840.15"/>
<polygon fill="red" stroke="red" stroke-width="5" points="266.81,-837.15 256.44,-833.72 260.96,-843.65 266.81,-837.15"/>
<text text-anchor="middle" x="323.22" y="-871.57" font-family="Times New Roman,serif" font-size="8.00">&quot;j == k&quot;</text>
<text text-anchor="middle" x="323.22" y="-861.07" font-family="Times New Roman,serif" font-size="8.00">c[9]</text>
<text text-anchor="middle" x="323.22" y="-850.57" font-family="Times New Roman,serif" font-size="8.00">Score: 1.0</text>
<text text-anchor="start" x="267.45" y="-856.23" font-family="Times New Roman,serif" font-size="8.00" fill="darkmagenta"> &#160;0,4 &#160;&#160;</text>
</g>
<!-- 10 -->
<g id="node9" class="node">
<title>10</title>
<ellipse fill="none" stroke="black" cx="344.97" cy="-718.81" rx="80.01" ry="18"/>
<text text-anchor="middle" x="344.97" y="-716.46" font-family="Times New Roman,serif" font-size="8.00">10. if type_code == 0:</text>
<text text-anchor="start" x="253.71" y="-729.21" font-family="Times New Roman,serif" font-size="8.00" fill="darkorange">4,4</text>
</g>
<!-- 8&#45;&gt;10 -->
<g id="edge9" class="edge">
<title>8&#45;&gt;10</title>
<path fill="none" stroke="#429e6a" d="M371.49,-900.28C394.76,-886.02 427.61,-861.43 441.97,-829.67 452.19,-807.04 454.55,-795.21 441.97,-773.81 432.88,-758.34 417.57,-746.98 401.76,-738.78"/>
<polygon fill="#429e6a" stroke="#429e6a" points="403.27,-735.62 392.74,-734.49 400.27,-741.95 403.27,-735.62"/>
<text text-anchor="middle" x="462.34" y="-799.39" font-family="Times New Roman,serif" font-size="8.00">(j != k)</text>
<text text-anchor="start" x="419.48" y="-822.05" font-family="Times New Roman,serif" font-size="8.00" fill="darkmagenta"> &#160;4,0 &#160;&#160;</text>
</g>
<!-- 9&#45;&gt;10 -->
<g id="edge10" class="edge">
<title>9&#45;&gt;10</title>
<path fill="none" stroke="red" d="M262.58,-774.01C278.08,-763.82 295.59,-752.3 310.47,-742.51"/>
<polygon fill="red" stroke="red" points="312.12,-745.61 318.55,-737.19 308.27,-739.76 312.12,-745.61"/>
<text text-anchor="start" x="268.46" y="-747.74" font-family="Times New Roman,serif" font-size="8.00" fill="darkmagenta"> &#160;0,4 &#160;&#160;</text>
</g>
<!-- 11 -->
<g id="node10" class="node">
<title>11</title>
<ellipse fill="none" stroke="black" cx="218.97" cy="-615.88" rx="160.34" ry="27.93"/>
<text text-anchor="middle" x="218.97" y="-613.53" font-family="Times New Roman,serif" font-size="8.00">11. if i + j &lt;= k or j + k &lt;= i or i + k &lt;= j:</text>
<text text-anchor="start" x="47.38" y="-636.21" font-family="Times New Roman,serif" font-size="8.00" fill="darkorange">2,0</text>
</g>
<!-- 10&#45;&gt;11 -->
<g id="edge11" class="edge">
<title>10&#45;&gt;11</title>
<path fill="none" stroke="#429e6a" d="M324.16,-701.14C307.04,-687.42 282.21,-667.54 260.98,-650.53"/>
<polygon fill="#429e6a" stroke="#429e6a" points="263.31,-647.91 253.32,-644.39 258.93,-653.37 263.31,-647.91"/>
<text text-anchor="middle" x="331.72" y="-675.21" font-family="Times New Roman,serif" font-size="8.00">&quot;type_code == 0&quot;</text>
<text text-anchor="middle" x="331.72" y="-664.71" font-family="Times New Roman,serif" font-size="8.00">c[10]</text>
<text text-anchor="start" x="265.9" y="-664.89" font-family="Times New Roman,serif" font-size="8.00" fill="darkmagenta"> &#160;2,0 &#160;&#160;</text>
</g>
<!-- 13 -->
<g id="node11" class="node">
<title>13</title>
<ellipse fill="none" stroke="black" cx="471.97" cy="-615.88" rx="74.52" ry="18"/>
<text text-anchor="middle" x="471.97" y="-613.53" font-family="Times New Roman,serif" font-size="8.00">13. if type_code &gt; 3:</text>
<text text-anchor="start" x="386.2" y="-626.28" font-family="Times New Roman,serif" font-size="8.00" fill="darkorange">2,4</text>
</g>
<!-- 10&#45;&gt;13 -->
<g id="edge12" class="edge">
<title>10&#45;&gt;13</title>
<path fill="none" stroke="blue" d="M365.94,-701.14C386.71,-684.63 418.73,-659.19 442.14,-640.58"/>
<polygon fill="blue" stroke="blue" points="444.13,-643.47 449.78,-634.51 439.77,-637.99 444.13,-643.47"/>
<text text-anchor="middle" x="442.22" y="-669.96" font-family="Times New Roman,serif" font-size="8.00">(type_code != 0)</text>
<text text-anchor="start" x="385.95" y="-659.75" font-family="Times New Roman,serif" font-size="8.00" fill="darkmagenta"> &#160;2,4 &#160;&#160;</text>
</g>
<!-- 26 -->
<g id="node12" class="node">
<title>26</title>
<ellipse fill="none" stroke="black" cx="218.97" cy="-449.01" rx="150.79" ry="27.93"/>
<text text-anchor="middle" x="218.97" y="-446.66" font-family="Times New Roman,serif" font-size="8.00">26. type_code = display_type_code(4)</text>
<text text-anchor="start" x="56.93" y="-469.34" font-family="Times New Roman,serif" font-size="8.00" fill="darkorange">2,0</text>
</g>
<!-- 11&#45;&gt;26 -->
<g id="edge13" class="edge">
<title>11&#45;&gt;26</title>
<path fill="none" stroke="#429e6a" d="M218.97,-587.65C218.97,-560.69 218.97,-519.13 218.97,-488.73"/>
<polygon fill="#429e6a" stroke="#429e6a" points="222.47,-488.79 218.97,-478.79 215.47,-488.79 222.47,-488.79"/>
<text text-anchor="middle" x="281.97" y="-562.34" font-family="Times New Roman,serif" font-size="8.00">&quot;i + j &lt;= k or j + k &lt;= i or i + k &lt;= j&quot;</text>
<text text-anchor="middle" x="281.97" y="-551.84" font-family="Times New Roman,serif" font-size="8.00">c[11]</text>
<text text-anchor="start" x="196.47" y="-524.87" font-family="Times New Roman,serif" font-size="8.00" fill="darkmagenta"> &#160;2,0 &#160;&#160;</text>
</g>
<!-- 16 -->
<g id="node13" class="node">
<title>16</title>
<ellipse fill="none" stroke="black" cx="471.97" cy="-512.94" rx="127.91" ry="18"/>
<text text-anchor="middle" x="471.97" y="-510.59" font-family="Times New Roman,serif" font-size="8.00">16. if type_code == 1 and i + j &gt; k:</text>
<text text-anchor="start" x="332.81" y="-523.34" font-family="Times New Roman,serif" font-size="8.00" fill="darkorange">2,4</text>
</g>
<!-- 13&#45;&gt;16 -->
<g id="edge15" class="edge">
<title>13&#45;&gt;16</title>
<path fill="none" stroke="blue" d="M471.97,-597.75C471.97,-582.67 471.97,-560.4 471.97,-542.61"/>
<polygon fill="blue" stroke="blue" points="475.47,-542.66 471.97,-532.66 468.47,-542.66 475.47,-542.66"/>
<text text-anchor="middle" x="501.97" y="-557.09" font-family="Times New Roman,serif" font-size="8.00">(type_code &lt;= 3)</text>
<text text-anchor="start" x="449.47" y="-556.76" font-family="Times New Roman,serif" font-size="8.00" fill="darkmagenta"> &#160;2,4 &#160;&#160;</text>
</g>
<!-- 26&#45;&gt;3 -->
<g id="edge14" class="edge">
<title>26&#45;&gt;3</title>
<path fill="none" stroke="#429e6a" d="M218.97,-421.01C218.97,-395.52 218.97,-356.24 218.97,-322.15 218.97,-322.15 218.97,-322.15 218.97,-118.43 218.97,-66.11 278.72,-46.83 332.73,-40.09"/>
<polygon fill="#429e6a" stroke="#429e6a" points="333.09,-43.57 342.65,-39 332.32,-36.61 333.09,-43.57"/>
<text text-anchor="start" x="196.47" y="-289.09" font-family="Times New Roman,serif" font-size="8.00" fill="darkmagenta"> &#160;2,0 &#160;&#160;</text>
</g>
<!-- 17 -->
<g id="node14" class="node">
<title>17</title>
<ellipse fill="none" stroke="black" cx="384.97" cy="-321.15" rx="150.79" ry="27.93"/>
<text text-anchor="middle" x="384.97" y="-318.8" font-family="Times New Roman,serif" font-size="8.00">17. type_code = display_type_code(2)</text>
<text text-anchor="start" x="222.93" y="-341.48" font-family="Times New Roman,serif" font-size="8.00" fill="darkorange">1,0</text>
</g>
<!-- 16&#45;&gt;17 -->
<g id="edge16" class="edge">
<title>16&#45;&gt;17</title>
<path fill="none" stroke="#429e6a" d="M420.14,-496.1C411.51,-491.26 403.56,-485 397.97,-476.94 374.46,-443.05 374.4,-394.39 378.17,-360.72"/>
<polygon fill="#429e6a" stroke="#429e6a" points="381.61,-361.35 379.43,-350.98 374.67,-360.45 381.61,-361.35"/>
<text text-anchor="middle" x="450.47" y="-451.91" font-family="Times New Roman,serif" font-size="8.00">&quot;type_code == 1 and i + j &gt; k&quot;</text>
<text text-anchor="middle" x="450.47" y="-441.41" font-family="Times New Roman,serif" font-size="8.00">c[14]</text>
<text text-anchor="start" x="378.86" y="-418.39" font-family="Times New Roman,serif" font-size="8.00" fill="darkmagenta"> &#160;1,0 &#160;&#160;</text>
</g>
<!-- 19 -->
<g id="node15" class="node">
<title>19</title>
<ellipse fill="none" stroke="black" cx="558.97" cy="-385.08" rx="127.91" ry="18"/>
<text text-anchor="middle" x="558.97" y="-382.73" font-family="Times New Roman,serif" font-size="8.00">19. if type_code == 2 and i + k &gt; j:</text>
<text text-anchor="start" x="419.81" y="-395.48" font-family="Times New Roman,serif" font-size="8.00" fill="darkorange">1,4</text>
</g>
<!-- 16&#45;&gt;19 -->
<g id="edge17" class="edge">
<title>16&#45;&gt;19</title>
<path fill="none" stroke="blue" d="M490.75,-494.99C496.3,-489.51 502.17,-483.23 506.97,-476.94 522.19,-457.03 536.11,-432.2 545.7,-413.53"/>
<polygon fill="blue" stroke="blue" points="548.78,-415.19 550.15,-404.68 542.53,-412.05 548.78,-415.19"/>
<text text-anchor="middle" x="602.84" y="-446.66" font-family="Times New Roman,serif" font-size="8.00">(not (type_code == 1 and i + j &gt; k))</text>
<text text-anchor="start" x="518.73" y="-433.4" font-family="Times New Roman,serif" font-size="8.00" fill="darkmagenta"> &#160;1,4 &#160;&#160;</text>
</g>
<!-- 17&#45;&gt;3 -->
<g id="edge18" class="edge">
<title>17&#45;&gt;3</title>
<path fill="none" stroke="#429e6a" d="M385.5,-292.94C386.35,-261.95 388.52,-209.85 393.97,-165.36 398.19,-130.91 405.99,-91.75 411.55,-65.95"/>
<polygon fill="#429e6a" stroke="#429e6a" points="414.96,-66.76 413.68,-56.24 408.12,-65.26 414.96,-66.76"/>
<text text-anchor="start" x="371.47" y="-157.74" font-family="Times New Roman,serif" font-size="8.00" fill="darkmagenta"> &#160;1,0 &#160;&#160;</text>
</g>
<!-- 20 -->
<g id="node16" class="node">
<title>20</title>
<ellipse fill="none" stroke="black" cx="545.97" cy="-193.29" rx="150.79" ry="27.93"/>
<text text-anchor="middle" x="545.97" y="-190.94" font-family="Times New Roman,serif" font-size="8.00">20. type_code = display_type_code(2)</text>
<text text-anchor="start" x="383.93" y="-213.62" font-family="Times New Roman,serif" font-size="8.00" fill="darkorange">1,0</text>
</g>
<!-- 19&#45;&gt;20 -->
<g id="edge19" class="edge">
<title>19&#45;&gt;20</title>
<path fill="none" stroke="#429e6a" d="M557.79,-366.91C555.73,-336.84 551.43,-273.99 548.62,-233"/>
<polygon fill="#429e6a" stroke="#429e6a" points="552.11,-232.8 547.94,-223.06 545.13,-233.28 552.11,-232.8"/>
<text text-anchor="middle" x="608.47" y="-324.05" font-family="Times New Roman,serif" font-size="8.00">&quot;type_code == 2 and i + k &gt; j&quot;</text>
<text text-anchor="middle" x="608.47" y="-313.55" font-family="Times New Roman,serif" font-size="8.00">c[15]</text>
<text text-anchor="start" x="552.81" y="-286.59" font-family="Times New Roman,serif" font-size="8.00" fill="darkmagenta"> &#160;1,0 &#160;&#160;</text>
</g>
<!-- 22 -->
<g id="node17" class="node">
<title>22</title>
<ellipse fill="none" stroke="black" cx="719.97" cy="-257.22" rx="127.91" ry="18"/>
<text text-anchor="middle" x="719.97" y="-254.87" font-family="Times New Roman,serif" font-size="8.00">22. if type_code == 3 and j + k &gt; i:</text>
<text text-anchor="start" x="580.81" y="-267.62" font-family="Times New Roman,serif" font-size="8.00" fill="darkorange">0,4</text>
</g>
<!-- 19&#45;&gt;22 -->
<g id="edge20" class="edge">
<title>19&#45;&gt;22</title>
<path fill="none" stroke="red" d="M630,-369.69C643.55,-364.71 656.93,-358.03 667.97,-349.08 688.13,-332.75 701.98,-306.37 710.28,-286.24"/>
<polygon fill="red" stroke="red" points="713.54,-287.51 713.89,-276.92 707.02,-284.98 713.54,-287.51"/>
<text text-anchor="middle" x="767.84" y="-318.8" font-family="Times New Roman,serif" font-size="8.00">(not (type_code == 2 and i + k &gt; j))</text>
<text text-anchor="start" x="661.78" y="-324.71" font-family="Times New Roman,serif" font-size="8.00" fill="darkmagenta"> &#160;0,4 &#160;&#160;</text>
</g>
<!-- 20&#45;&gt;3 -->
<g id="edge21" class="edge">
<title>20&#45;&gt;3</title>
<path fill="none" stroke="#429e6a" d="M464,-169.56C453.71,-163.74 444.26,-156.47 436.97,-147.36 418.64,-124.49 415.35,-90.24 415.71,-66.07"/>
<polygon fill="#429e6a" stroke="#429e6a" points="419.2,-66.43 416.1,-56.3 412.21,-66.16 419.2,-66.43"/>
<text text-anchor="start" x="399.39" y="-109.7" font-family="Times New Roman,serif" font-size="8.00" fill="darkmagenta"> &#160;1,0 &#160;&#160;</text>
</g>
<!-- 23 -->
<g id="node18" class="node">
<title>23</title>
<ellipse fill="none" stroke="black" cx="596.97" cy="-119.43" rx="150.79" ry="27.93"/>
<text text-anchor="middle" x="596.97" y="-117.08" font-family="Times New Roman,serif" font-size="8.00">23. type_code = display_type_code(2)</text>
<text text-anchor="start" x="434.93" y="-139.76" font-family="Times New Roman,serif" font-size="8.00" fill="darkorange">0,2</text>
</g>
<!-- 22&#45;&gt;23 -->
<g id="edge22" class="edge">
<title>22&#45;&gt;23</title>
<path fill="none" stroke="red" stroke-width="3.96" d="M720.15,-238.82C719.45,-218.89 715.43,-186.31 697.97,-165.36 694.04,-160.65 689.51,-156.41 684.6,-152.6"/>
<polygon fill="red" stroke="red" stroke-width="3.96" points="686.96,-149.97 676.71,-147.33 683.08,-155.79 686.96,-149.97"/>
<text text-anchor="middle" x="770.47" y="-201.44" font-family="Times New Roman,serif" font-size="8.00">&quot;type_code == 3 and j + k &gt; i&quot;</text>
<text text-anchor="middle" x="770.47" y="-190.94" font-family="Times New Roman,serif" font-size="8.00">c[16]</text>
<text text-anchor="middle" x="770.47" y="-180.44" font-family="Times New Roman,serif" font-size="8.00">Score: 0.74</text>
<text text-anchor="start" x="698.73" y="-167.76" font-family="Times New Roman,serif" font-size="8.00" fill="darkmagenta"> &#160;0,2 &#160;&#160;</text>
</g>
<!-- 25 -->
<g id="node19" class="node">
<title>25</title>
<ellipse fill="none" stroke="black" cx="916.97" cy="-119.43" rx="150.79" ry="27.93"/>
<text text-anchor="middle" x="916.97" y="-117.08" font-family="Times New Roman,serif" font-size="8.00">25. type_code = display_type_code(4)</text>
<text text-anchor="start" x="754.93" y="-139.76" font-family="Times New Roman,serif" font-size="8.00" fill="darkorange">0,2</text>
</g>
<!-- 22&#45;&gt;25 -->
<g id="edge23" class="edge">
<title>22&#45;&gt;25</title>
<path fill="none" stroke="red" stroke-width="3.96" d="M784.15,-241.28C798.91,-236.24 814.05,-229.67 826.97,-221.22 851.41,-205.25 873.35,-180.98 889.46,-160.26"/>
<polygon fill="red" stroke="red" stroke-width="3.96" points="892.15,-162.51 895.34,-152.41 886.55,-158.31 892.15,-162.51"/>
<text text-anchor="middle" x="949.59" y="-201.44" font-family="Times New Roman,serif" font-size="8.00">&quot;(not (type_code == 3 and j + k &gt; i))&quot;</text>
<text text-anchor="middle" x="949.59" y="-190.94" font-family="Times New Roman,serif" font-size="8.00">c[17]</text>
<text text-anchor="middle" x="949.59" y="-180.44" font-family="Times New Roman,serif" font-size="8.00">Score: 0.74</text>
<text text-anchor="start" x="827.08" y="-196.11" font-family="Times New Roman,serif" font-size="8.00" fill="darkmagenta"> &#160;0,2 &#160;&#160;</text>
</g>
<!-- 23&#45;&gt;3 -->
<g id="edge24" class="edge">
<title>23&#45;&gt;3</title>
<path fill="none" stroke="red" d="M540.82,-93.05C515.57,-81.63 486.19,-68.34 462.49,-57.63"/>
<polygon fill="red" stroke="red" points="463.97,-54.46 453.41,-53.53 461.08,-60.84 463.97,-54.46"/>
<text text-anchor="start" x="474.16" y="-65.48" font-family="Times New Roman,serif" font-size="8.00" fill="darkmagenta"> &#160;0,2 &#160;&#160;</text>
</g>
<!-- 25&#45;&gt;3 -->
<g id="edge25" class="edge">
<title>25&#45;&gt;3</title>
<path fill="none" stroke="red" d="M807.68,-99.9C790.71,-97.07 773.37,-94.19 756.97,-91.5 664.91,-76.42 558.68,-59.59 490.03,-48.79"/>
<polygon fill="red" stroke="red" points="490.85,-45.38 480.42,-47.28 489.76,-52.29 490.85,-45.38"/>
<text text-anchor="start" x="620.95" y="-65.53" font-family="Times New Roman,serif" font-size="8.00" fill="darkmagenta"> &#160;0,2 &#160;&#160;</text>
</g>
</g>
</svg>
