<?xml version="1.0" encoding="UTF-8" standalone="no"?>
<!DOCTYPE svg PUBLIC "-//W3C//DTD SVG 1.1//EN"
 "http://www.w3.org/Graphics/SVG/1.1/DTD/svg11.dtd">
<!-- Generated by graphviz version 12.1.0 (20240811.2233)
 -->
<!-- Title: clusteris_side_one_equal_three Pages: 1 -->
<svg width="259pt" height="257pt"
 viewBox="0.00 0.00 258.95 257.30" xmlns="http://www.w3.org/2000/svg" xmlns:xlink="http://www.w3.org/1999/xlink">
<g id="graph0" class="graph" transform="scale(1 1) rotate(0) translate(4 253.3)">
<title>clusteris_side_one_equal_three</title>
<polygon fill="white" stroke="none" points="-4,4 -4,-253.3 254.95,-253.3 254.95,4 -4,4"/>
<text text-anchor="middle" x="125.47" y="-7.2" font-family="Times New Roman,serif" font-size="14.00">is_side_one_equal_three</text>
<!-- 1 -->
<g id="node1" class="node">
<title>1</title>
<ellipse fill="none" stroke="black" cx="134.1" cy="-203.81" rx="83.44" ry="28.99"/>
<text text-anchor="middle" x="134.1" y="-198.76" font-family="Times New Roman,serif" font-size="14.00">1. if type_code &gt;= 0:</text>
<text text-anchor="start" x="33.41" y="-219.5" font-family="Times New Roman,serif" font-size="14.00" fill="darkorange">1,0</text>
</g>
<!-- 2 -->
<g id="node2" class="node">
<title>2</title>
<ellipse fill="none" stroke="black" cx="134.1" cy="-65.16" rx="116.85" ry="40.66"/>
<text text-anchor="middle" x="134.1" y="-68.36" font-family="Times New Roman,serif" font-size="14.00">2. type_code = type_code + 2</text>
<text text-anchor="middle" x="134.1" y="-51.86" font-family="Times New Roman,serif" font-size="14.00">return type_code</text>
<text text-anchor="start" x="0" y="-92.52" font-family="Times New Roman,serif" font-size="14.00" fill="darkorange">1,0</text>
</g>
<!-- 1&#45;&gt;2 -->
<g id="edge1" class="edge">
<title>1&#45;&gt;2</title>
<path fill="none" stroke="#429e6a" d="M134.1,-174.49C134.1,-158.04 134.1,-136.8 134.1,-117.5"/>
<polygon fill="#429e6a" stroke="#429e6a" points="137.6,-117.61 134.1,-107.61 130.6,-117.61 137.6,-117.61"/>
<text text-anchor="middle" x="183.22" y="-143.52" font-family="Times New Roman,serif" font-size="14.00">&quot;type_code &gt;= 0&quot;</text>
<text text-anchor="middle" x="183.22" y="-127.02" font-family="Times New Roman,serif" font-size="14.00">c[4]</text>
<polygon fill="white" stroke="none" points="103.1,-142.14 103.1,-166.64 132.1,-166.64 132.1,-142.14 103.1,-142.14"/>
<text text-anchor="start" x="107.1" y="-149.34" font-family="Times New Roman,serif" font-size="14.00" fill="darkmagenta">1, 0</text>
</g>
</g>
</svg>
