<?xml version="1.0" encoding="UTF-8" standalone="no"?>
<!DOCTYPE svg PUBLIC "-//W3C//DTD SVG 1.1//EN"
 "http://www.w3.org/Graphics/SVG/1.1/DTD/svg11.dtd">
<!-- Generated by graphviz version 12.1.0 (20240811.2233)
 -->
<!-- Title: clusteris_side_two_equal_three Pages: 1 -->
<svg width="259pt" height="274pt"
 viewBox="0.00 0.00 258.95 273.80" xmlns="http://www.w3.org/2000/svg" xmlns:xlink="http://www.w3.org/1999/xlink">
<g id="graph0" class="graph" transform="scale(1 1) rotate(0) translate(4 269.8)">
<title>clusteris_side_two_equal_three</title>
<polygon fill="white" stroke="none" points="-4,4 -4,-269.8 254.95,-269.8 254.95,4 -4,4"/>
<text text-anchor="middle" x="125.47" y="-7.2" font-family="Times New Roman,serif" font-size="14.00">is_side_two_equal_three</text>
<!-- 1 -->
<g id="node1" class="node">
<title>1</title>
<ellipse fill="none" stroke="black" cx="134.1" cy="-220.31" rx="83.44" ry="28.99"/>
<text text-anchor="middle" x="134.1" y="-215.26" font-family="Times New Roman,serif" font-size="14.00">1. if type_code &gt;= 0:</text>
<text text-anchor="start" x="33.41" y="-236" font-family="Times New Roman,serif" font-size="14.00" fill="darkorange">0,4</text>
</g>
<!-- 2 -->
<g id="node2" class="node">
<title>2</title>
<ellipse fill="none" stroke="black" cx="134.1" cy="-65.16" rx="116.85" ry="40.66"/>
<text text-anchor="middle" x="134.1" y="-68.36" font-family="Times New Roman,serif" font-size="14.00">2. type_code = type_code + 3</text>
<text text-anchor="middle" x="134.1" y="-51.86" font-family="Times New Roman,serif" font-size="14.00">return type_code</text>
<text text-anchor="start" x="0" y="-92.52" font-family="Times New Roman,serif" font-size="14.00" fill="darkorange">0,4</text>
</g>
<!-- 1&#45;&gt;2 -->
<g id="edge1" class="edge">
<title>1&#45;&gt;2</title>
<path fill="none" stroke="red" stroke-width="5" d="M134.1,-190.86C134.1,-171.63 134.1,-145.58 134.1,-122.26"/>
<polygon fill="red" stroke="red" stroke-width="5" points="138.47,-122.53 134.1,-112.53 129.72,-122.53 138.47,-122.53"/>
<text text-anchor="middle" x="183.22" y="-160.02" font-family="Times New Roman,serif" font-size="14.00">&quot;type_code &gt;= 0&quot;</text>
<text text-anchor="middle" x="183.22" y="-143.52" font-family="Times New Roman,serif" font-size="14.00">c[2]</text>
<text text-anchor="middle" x="183.22" y="-127.02" font-family="Times New Roman,serif" font-size="14.00"> Score: 1.0</text>
<polygon fill="white" stroke="none" points="103.1,-150.58 103.1,-175.08 132.1,-175.08 132.1,-150.58 103.1,-150.58"/>
<text text-anchor="start" x="107.1" y="-157.78" font-family="Times New Roman,serif" font-size="14.00" fill="darkmagenta">0, 4</text>
</g>
</g>
</svg>
