<?xml version="1.0" encoding="UTF-8" standalone="no"?>
<!DOCTYPE svg PUBLIC "-//W3C//DTD SVG 1.1//EN"
 "http://www.w3.org/Graphics/SVG/1.1/DTD/svg11.dtd">
<!-- Generated by graphviz version 12.1.0 (20240811.2233)
 -->
<!-- Title: clusterdisplay_type_code Pages: 1 -->
<svg width="144pt" height="250pt"
 viewBox="0.00 0.00 144.46 250.47" xmlns="http://www.w3.org/2000/svg" xmlns:xlink="http://www.w3.org/1999/xlink">
<g id="graph0" class="graph" transform="scale(1 1) rotate(0) translate(4 246.47)">
<title>clusterdisplay_type_code</title>
<polygon fill="white" stroke="none" points="-4,4 -4,-246.47 140.46,-246.47 140.46,4 -4,4"/>
<text text-anchor="middle" x="68.23" y="-7.2" font-family="Times New Roman,serif" font-size="14.00">display_type_code</text>
<!-- 1 -->
<g id="node1" class="node">
<title>1</title>
<ellipse fill="none" stroke="black" cx="70.46" cy="-196.97" rx="53.21" ry="28.99"/>
<text text-anchor="middle" x="70.46" y="-191.92" font-family="Times New Roman,serif" font-size="14.00">1. if n:</text>
<text text-anchor="start" x="0" y="-212.67" font-family="Times New Roman,serif" font-size="14.00" fill="darkorange">4,4</text>
</g>
<!-- 2 -->
<g id="node2" class="node">
<title>2</title>
<ellipse fill="none" stroke="black" cx="70.46" cy="-53.49" rx="48.44" ry="28.99"/>
<text text-anchor="middle" x="70.46" y="-48.44" font-family="Times New Roman,serif" font-size="14.00">2. return n</text>
<text text-anchor="start" x="4.77" y="-69.18" font-family="Times New Roman,serif" font-size="14.00" fill="darkorange">4,4</text>
</g>
<!-- 1&#45;&gt;2 -->
<g id="edge1" class="edge">
<title>1&#45;&gt;2</title>
<path fill="none" stroke="blue" stroke-width="5" d="M70.46,-167.68C70.46,-148.02 70.46,-121.41 70.46,-98.93"/>
<polygon fill="blue" stroke="blue" stroke-width="5" points="74.83,-98.97 70.46,-88.97 66.08,-98.97 74.83,-98.97"/>
<text text-anchor="middle" x="103.46" y="-136.68" font-family="Times New Roman,serif" font-size="14.00">n</text>
<text text-anchor="middle" x="103.46" y="-120.18" font-family="Times New Roman,serif" font-size="14.00">c[1]</text>
<text text-anchor="middle" x="103.46" y="-103.68" font-family="Times New Roman,serif" font-size="14.00"> Score: 0.57</text>
<polygon fill="white" stroke="none" points="39.46,-126.82 39.46,-151.32 68.46,-151.32 68.46,-126.82 39.46,-126.82"/>
<text text-anchor="start" x="43.46" y="-134.02" font-family="Times New Roman,serif" font-size="14.00" fill="darkmagenta">4, 4</text>
</g>
</g>
</svg>
