<?xml version="1.0" encoding="UTF-8" standalone="no"?>
<!DOCTYPE svg PUBLIC "-//W3C//DTD SVG 1.1//EN"
 "http://www.w3.org/Graphics/SVG/1.1/DTD/svg11.dtd">
<!-- Generated by graphviz version 12.1.0 (20240811.2233)
 -->
<!-- Title: clustertrityp Pages: 1 -->
<svg width="1107pt" height="1670pt"
 viewBox="0.00 0.00 1107.05 1670.16" xmlns="http://www.w3.org/2000/svg" xmlns:xlink="http://www.w3.org/1999/xlink">
<g id="graph0" class="graph" transform="scale(1 1) rotate(0) translate(4 1666.16)">
<title>clustertrityp</title>
<polygon fill="white" stroke="none" points="-4,4 -4,-1666.16 1103.05,-1666.16 1103.05,4 -4,4"/>
<text text-anchor="middle" x="549.52" y="-7.2" font-family="Times New Roman,serif" font-size="14.00">trityp</text>
<!-- 1 -->
<g id="node1" class="node">
<title>1</title>
<ellipse fill="none" stroke="black" cx="338.48" cy="-1616.67" rx="124.28" ry="28.99"/>
<text text-anchor="middle" x="338.48" y="-1611.62" font-family="Times New Roman,serif" font-size="14.00">1. if i == 0 or j == 0 or k == 0:</text>
<text text-anchor="start" x="196.96" y="-1632.36" font-family="Times New Roman,serif" font-size="14.00" fill="darkorange">4,4</text>
</g>
<!-- 4 -->
<g id="node2" class="node">
<title>4</title>
<ellipse fill="none" stroke="black" cx="338.48" cy="-1461.52" rx="66.47" ry="40.66"/>
<text text-anchor="middle" x="338.48" y="-1464.72" font-family="Times New Roman,serif" font-size="14.00">4. type_code = 0</text>
<text text-anchor="middle" x="338.48" y="-1448.22" font-family="Times New Roman,serif" font-size="14.00">if i == j:</text>
<text text-anchor="start" x="254.77" y="-1488.88" font-family="Times New Roman,serif" font-size="14.00" fill="darkorange">4,4</text>
</g>
<!-- 1&#45;&gt;4 -->
<g id="edge1" class="edge">
<title>1&#45;&gt;4</title>
<path fill="none" stroke="blue" stroke-width="3.28" d="M338.48,-1587.23C338.48,-1567.71 338.48,-1541.18 338.48,-1517.61"/>
<polygon fill="blue" stroke="blue" stroke-width="3.28" points="341.98,-1517.62 338.48,-1507.62 334.98,-1517.62 341.98,-1517.62"/>
<text text-anchor="middle" x="435.98" y="-1556.38" font-family="Times New Roman,serif" font-size="14.00">&quot;(not (i == 0 or j == 0 or k == 0))&quot;</text>
<text text-anchor="middle" x="435.98" y="-1539.88" font-family="Times New Roman,serif" font-size="14.00">c[6]</text>
<text text-anchor="middle" x="435.98" y="-1523.38" font-family="Times New Roman,serif" font-size="14.00"> Score: 0.57</text>
<polygon fill="white" stroke="none" points="307.48,-1547.14 307.48,-1571.64 336.48,-1571.64 336.48,-1547.14 307.48,-1547.14"/>
<text text-anchor="start" x="311.48" y="-1554.34" font-family="Times New Roman,serif" font-size="14.00" fill="darkmagenta">4, 4</text>
</g>
<!-- 5 -->
<g id="node4" class="node">
<title>5</title>
<ellipse fill="none" stroke="black" cx="222.48" cy="-1322.87" rx="196.93" ry="28.99"/>
<text text-anchor="middle" x="222.48" y="-1317.82" font-family="Times New Roman,serif" font-size="14.00">5. type_code = is_side_one_equal_two(type_code)</text>
<text text-anchor="start" x="8.3" y="-1338.56" font-family="Times New Roman,serif" font-size="14.00" fill="darkorange">1,0</text>
</g>
<!-- 4&#45;&gt;5 -->
<g id="edge2" class="edge">
<title>4&#45;&gt;5</title>
<path fill="none" stroke="#429e6a" d="M308.31,-1424.98C291.47,-1405.14 270.52,-1380.47 253.54,-1360.46"/>
<polygon fill="#429e6a" stroke="#429e6a" points="256.41,-1358.43 247.27,-1353.07 251.07,-1362.96 256.41,-1358.43"/>
<text text-anchor="middle" x="309.18" y="-1389.56" font-family="Times New Roman,serif" font-size="14.00">&quot;i == j&quot;</text>
<text text-anchor="middle" x="309.18" y="-1373.06" font-family="Times New Roman,serif" font-size="14.00">c[7]</text>
<polygon fill="white" stroke="none" points="246.21,-1390.34 246.21,-1414.84 275.21,-1414.84 275.21,-1390.34 246.21,-1390.34"/>
<text text-anchor="start" x="250.21" y="-1397.54" font-family="Times New Roman,serif" font-size="14.00" fill="darkmagenta">1, 0</text>
</g>
<!-- 6 -->
<g id="node5" class="node">
<title>6</title>
<ellipse fill="none" stroke="black" cx="338.48" cy="-1238.88" rx="54.93" ry="18"/>
<text text-anchor="middle" x="338.48" y="-1233.83" font-family="Times New Roman,serif" font-size="14.00">6. if i == k:</text>
<text text-anchor="start" x="266.3" y="-1207.58" font-family="Times New Roman,serif" font-size="14.00" fill="darkorange">4,4</text>
</g>
<!-- 4&#45;&gt;6 -->
<g id="edge3" class="edge">
<title>4&#45;&gt;6</title>
<path fill="none" stroke="blue" stroke-width="3.52" d="M375.98,-1427.85C395.7,-1408.1 417.94,-1381.13 428.48,-1351.86 437.22,-1327.62 441.18,-1316.31 428.48,-1293.88 419.8,-1278.55 404.84,-1267.1 389.59,-1258.78"/>
<polygon fill="blue" stroke="blue" stroke-width="3.52" points="391.56,-1255.85 381.04,-1254.6 388.48,-1262.14 391.56,-1255.85"/>
<text text-anchor="middle" x="469.59" y="-1326.07" font-family="Times New Roman,serif" font-size="14.00">&quot;(i != j)&quot;</text>
<text text-anchor="middle" x="469.59" y="-1309.57" font-family="Times New Roman,serif" font-size="14.00"> Score: 0.63</text>
<polygon fill="white" stroke="none" points="397.49,-1353.85 397.49,-1378.35 426.49,-1378.35 426.49,-1353.85 397.49,-1353.85"/>
<text text-anchor="start" x="401.49" y="-1361.05" font-family="Times New Roman,serif" font-size="14.00" fill="darkmagenta">3, 4</text>
</g>
<!-- 3 -->
<g id="node3" class="node">
<title>3</title>
<ellipse fill="none" stroke="black" cx="409.48" cy="-42.5" rx="83.08" ry="18"/>
<text text-anchor="middle" x="409.48" y="-37.45" font-family="Times New Roman,serif" font-size="14.00">3. return type_code</text>
<text text-anchor="start" x="309.15" y="-47.2" font-family="Times New Roman,serif" font-size="14.00" fill="darkorange">4,4</text>
</g>
<!-- 5&#45;&gt;6 -->
<g id="edge4" class="edge">
<title>5&#45;&gt;6</title>
<path fill="none" stroke="#429e6a" d="M261.76,-1294.11C276.5,-1283.7 293.04,-1272 306.99,-1262.14"/>
<polygon fill="#429e6a" stroke="#429e6a" points="308.79,-1265.16 314.93,-1256.53 304.75,-1259.44 308.79,-1265.16"/>
<polygon fill="white" stroke="none" points="258,-1248.36 258,-1272.86 287,-1272.86 287,-1248.36 258,-1248.36"/>
<text text-anchor="start" x="262" y="-1255.56" font-family="Times New Roman,serif" font-size="14.00" fill="darkmagenta">1, 0</text>
</g>
<!-- 7 -->
<g id="node6" class="node">
<title>7</title>
<ellipse fill="none" stroke="black" cx="219.48" cy="-1122.89" rx="201.7" ry="28.99"/>
<text text-anchor="middle" x="219.48" y="-1117.84" font-family="Times New Roman,serif" font-size="14.00">7. type_code = is_side_one_equal_three(type_code)</text>
<text text-anchor="start" x="0.53" y="-1138.58" font-family="Times New Roman,serif" font-size="14.00" fill="darkorange">1,0</text>
</g>
<!-- 6&#45;&gt;7 -->
<g id="edge5" class="edge">
<title>6&#45;&gt;7</title>
<path fill="none" stroke="#429e6a" d="M321.18,-1221.31C304.45,-1205.28 278.55,-1180.47 257.07,-1159.9"/>
<polygon fill="#429e6a" stroke="#429e6a" points="259.52,-1157.4 249.88,-1153.01 254.68,-1162.45 259.52,-1157.4"/>
<text text-anchor="middle" x="323.24" y="-1189.58" font-family="Times New Roman,serif" font-size="14.00">&quot;i == k&quot;</text>
<text text-anchor="middle" x="323.24" y="-1173.08" font-family="Times New Roman,serif" font-size="14.00">c[8]</text>
<polygon fill="white" stroke="none" points="254.06,-1188.71 254.06,-1213.21 283.06,-1213.21 283.06,-1188.71 254.06,-1188.71"/>
<text text-anchor="start" x="258.06" y="-1195.91" font-family="Times New Roman,serif" font-size="14.00" fill="darkmagenta">1, 0</text>
</g>
<!-- 8 -->
<g id="node7" class="node">
<title>8</title>
<ellipse fill="none" stroke="black" cx="338.48" cy="-1038.9" rx="54.93" ry="18"/>
<text text-anchor="middle" x="338.48" y="-1033.85" font-family="Times New Roman,serif" font-size="14.00">8. if j == k:</text>
<text text-anchor="start" x="266.3" y="-1007.6" font-family="Times New Roman,serif" font-size="14.00" fill="darkorange">4,4</text>
</g>
<!-- 6&#45;&gt;8 -->
<g id="edge6" class="edge">
<title>6&#45;&gt;8</title>
<path fill="none" stroke="blue" stroke-width="3.52" d="M364.28,-1222.51C386.51,-1207.62 417.08,-1182.77 430.48,-1151.88 440.75,-1128.24 443.29,-1116.26 430.48,-1093.9 421.59,-1078.36 406.29,-1066.86 390.69,-1058.56"/>
<polygon fill="blue" stroke="blue" stroke-width="3.52" points="392.41,-1055.5 381.87,-1054.36 389.4,-1061.82 392.41,-1055.5"/>
<text text-anchor="middle" x="472.16" y="-1126.09" font-family="Times New Roman,serif" font-size="14.00">&quot;(i != k)&quot;</text>
<text text-anchor="middle" x="472.16" y="-1109.59" font-family="Times New Roman,serif" font-size="14.00"> Score: 0.63</text>
<polygon fill="white" stroke="none" points="399.49,-1153.86 399.49,-1178.36 428.49,-1178.36 428.49,-1153.86 399.49,-1153.86"/>
<text text-anchor="start" x="403.49" y="-1161.06" font-family="Times New Roman,serif" font-size="14.00" fill="darkmagenta">3, 4</text>
</g>
<!-- 7&#45;&gt;8 -->
<g id="edge7" class="edge">
<title>7&#45;&gt;8</title>
<path fill="none" stroke="#429e6a" d="M259.77,-1094.13C274.89,-1083.71 291.87,-1072.02 306.17,-1062.16"/>
<polygon fill="#429e6a" stroke="#429e6a" points="308.1,-1065.09 314.35,-1056.53 304.13,-1059.32 308.1,-1065.09"/>
<polygon fill="white" stroke="none" points="256.72,-1048.38 256.72,-1072.88 285.72,-1072.88 285.72,-1048.38 256.72,-1048.38"/>
<text text-anchor="start" x="260.72" y="-1055.58" font-family="Times New Roman,serif" font-size="14.00" fill="darkmagenta">1, 0</text>
</g>
<!-- 9 -->
<g id="node8" class="node">
<title>9</title>
<ellipse fill="none" stroke="black" cx="219.48" cy="-906.41" rx="202.23" ry="28.99"/>
<text text-anchor="middle" x="219.48" y="-901.36" font-family="Times New Roman,serif" font-size="14.00">9. type_code = is_side_two_equal_three(type_code)</text>
<text text-anchor="start" x="0" y="-922.1" font-family="Times New Roman,serif" font-size="14.00" fill="darkorange">0,4</text>
</g>
<!-- 8&#45;&gt;9 -->
<g id="edge8" class="edge">
<title>8&#45;&gt;9</title>
<path fill="none" stroke="red" stroke-width="5" d="M323.41,-1021.37C306.43,-1002.75 278.22,-971.82 255.48,-946.88"/>
<polygon fill="red" stroke="red" stroke-width="5" points="259,-944.25 249.03,-939.8 252.53,-950.14 259,-944.25"/>
<text text-anchor="middle" x="332.95" y="-989.6" font-family="Times New Roman,serif" font-size="14.00">&quot;j == k&quot;</text>
<text text-anchor="middle" x="332.95" y="-973.1" font-family="Times New Roman,serif" font-size="14.00">c[9]</text>
<text text-anchor="middle" x="332.95" y="-956.6" font-family="Times New Roman,serif" font-size="14.00"> Score: 1.0</text>
<polygon fill="white" stroke="none" points="253.21,-980.38 253.21,-1004.88 282.21,-1004.88 282.21,-980.38 253.21,-980.38"/>
<text text-anchor="start" x="257.21" y="-987.58" font-family="Times New Roman,serif" font-size="14.00" fill="darkmagenta">0, 4</text>
</g>
<!-- 10 -->
<g id="node9" class="node">
<title>10</title>
<ellipse fill="none" stroke="black" cx="338.48" cy="-790.92" rx="94.86" ry="18"/>
<text text-anchor="middle" x="338.48" y="-785.87" font-family="Times New Roman,serif" font-size="14.00">10. if type_code == 0:</text>
<text text-anchor="start" x="226.38" y="-795.62" font-family="Times New Roman,serif" font-size="14.00" fill="darkorange">4,4</text>
</g>
<!-- 8&#45;&gt;10 -->
<g id="edge9" class="edge">
<title>8&#45;&gt;10</title>
<path fill="none" stroke="#429e6a" d="M360.16,-1021.89C382.65,-1003.79 416.46,-972.02 430.48,-935.4 439.7,-911.33 440.78,-901.04 430.48,-877.42 419.2,-851.53 395.79,-829.96 375.41,-814.95"/>
<polygon fill="#429e6a" stroke="#429e6a" points="377.45,-812.1 367.26,-809.2 373.41,-817.83 377.45,-812.1"/>
<text text-anchor="middle" x="457.68" y="-901.36" font-family="Times New Roman,serif" font-size="14.00">(j != k)</text>
<polygon fill="white" stroke="none" points="399.5,-937.36 399.5,-961.86 428.5,-961.86 428.5,-937.36 399.5,-937.36"/>
<text text-anchor="start" x="403.5" y="-944.56" font-family="Times New Roman,serif" font-size="14.00" fill="darkmagenta">4, 0</text>
</g>
<!-- 9&#45;&gt;10 -->
<g id="edge10" class="edge">
<title>9&#45;&gt;10</title>
<path fill="none" stroke="red" stroke-width="5" d="M248.9,-877.35C267.13,-859.97 290.47,-837.7 308.76,-820.26"/>
<polygon fill="red" stroke="red" stroke-width="5" points="311.76,-823.45 315.98,-813.38 305.72,-817.12 311.76,-823.45"/>
<text text-anchor="middle" x="329.62" y="-830.12" font-family="Times New Roman,serif" font-size="14.00"> Score: 1.0</text>
<polygon fill="white" stroke="none" points="253.65,-845.26 253.65,-869.76 282.65,-869.76 282.65,-845.26 253.65,-845.26"/>
<text text-anchor="start" x="257.65" y="-852.46" font-family="Times New Roman,serif" font-size="14.00" fill="darkmagenta">0, 4</text>
</g>
<!-- 11 -->
<g id="node10" class="node">
<title>11</title>
<ellipse fill="none" stroke="black" cx="203.48" cy="-674.92" rx="163.52" ry="28.99"/>
<text text-anchor="middle" x="203.48" y="-669.87" font-family="Times New Roman,serif" font-size="14.00">11. if i + j &lt;= k or j + k &lt;= i or i + k &lt;= j:</text>
<text text-anchor="start" x="22.71" y="-690.62" font-family="Times New Roman,serif" font-size="14.00" fill="darkorange">2,0</text>
</g>
<!-- 10&#45;&gt;11 -->
<g id="edge11" class="edge">
<title>10&#45;&gt;11</title>
<path fill="none" stroke="#429e6a" d="M318.27,-772.85C299.01,-756.59 269.43,-731.61 245.12,-711.08"/>
<polygon fill="#429e6a" stroke="#429e6a" points="247.49,-708.5 237.59,-704.72 242.97,-713.85 247.49,-708.5"/>
<text text-anchor="middle" x="343.94" y="-741.62" font-family="Times New Roman,serif" font-size="14.00">&quot;type_code == 0&quot;</text>
<text text-anchor="middle" x="343.94" y="-725.12" font-family="Times New Roman,serif" font-size="14.00">c[10]</text>
<polygon fill="white" stroke="none" points="246.23,-740.19 246.23,-764.69 275.23,-764.69 275.23,-740.19 246.23,-740.19"/>
<text text-anchor="start" x="250.23" y="-747.39" font-family="Times New Roman,serif" font-size="14.00" fill="darkmagenta">2, 0</text>
</g>
<!-- 13 -->
<g id="node11" class="node">
<title>13</title>
<ellipse fill="none" stroke="black" cx="474.48" cy="-674.92" rx="89.23" ry="18"/>
<text text-anchor="middle" x="474.48" y="-669.87" font-family="Times New Roman,serif" font-size="14.00">13. if type_code &gt; 3:</text>
<text text-anchor="start" x="368.01" y="-679.62" font-family="Times New Roman,serif" font-size="14.00" fill="darkorange">2,4</text>
</g>
<!-- 10&#45;&gt;13 -->
<g id="edge12" class="edge">
<title>10&#45;&gt;13</title>
<path fill="none" stroke="blue" stroke-width="3.88" d="M369.5,-773.57C378.83,-768.12 388.87,-761.69 397.48,-754.92 416.48,-739.96 435.47,-720.55 449.84,-704.71"/>
<polygon fill="blue" stroke="blue" stroke-width="3.88" points="452.37,-707.12 456.38,-697.32 447.13,-702.48 452.37,-707.12"/>
<text text-anchor="middle" x="484.94" y="-741.62" font-family="Times New Roman,serif" font-size="14.00">&quot;(type_code != 0)&quot;</text>
<text text-anchor="middle" x="484.94" y="-725.12" font-family="Times New Roman,serif" font-size="14.00"> Score: 0.72</text>
<polygon fill="white" stroke="none" points="395.43,-710.54 395.43,-735.04 424.43,-735.04 424.43,-710.54 395.43,-710.54"/>
<text text-anchor="start" x="399.43" y="-717.74" font-family="Times New Roman,serif" font-size="14.00" fill="darkmagenta">2, 4</text>
</g>
<!-- 26 -->
<g id="node12" class="node">
<title>26</title>
<ellipse fill="none" stroke="black" cx="203.48" cy="-493.94" rx="144.42" ry="28.99"/>
<text text-anchor="middle" x="203.48" y="-488.89" font-family="Times New Roman,serif" font-size="14.00">26. type_code = display_type_code(4)</text>
<text text-anchor="start" x="41.81" y="-509.63" font-family="Times New Roman,serif" font-size="14.00" fill="darkorange">2,0</text>
</g>
<!-- 11&#45;&gt;26 -->
<g id="edge13" class="edge">
<title>11&#45;&gt;26</title>
<path fill="none" stroke="#429e6a" d="M203.48,-645.56C203.48,-615.58 203.48,-568.07 203.48,-534.44"/>
<polygon fill="#429e6a" stroke="#429e6a" points="206.98,-534.68 203.48,-524.68 199.98,-534.68 206.98,-534.68"/>
<text text-anchor="middle" x="309.23" y="-614.63" font-family="Times New Roman,serif" font-size="14.00">&quot;i + j &lt;= k or j + k &lt;= i or i + k &lt;= j&quot;</text>
<text text-anchor="middle" x="309.23" y="-598.13" font-family="Times New Roman,serif" font-size="14.00">c[11]</text>
<polygon fill="white" stroke="none" points="172.48,-586.39 172.48,-610.89 201.48,-610.89 201.48,-586.39 172.48,-586.39"/>
<text text-anchor="start" x="176.48" y="-593.59" font-family="Times New Roman,serif" font-size="14.00" fill="darkmagenta">2, 0</text>
</g>
<!-- 16 -->
<g id="node13" class="node">
<title>16</title>
<ellipse fill="none" stroke="black" cx="474.48" cy="-558.93" rx="144.5" ry="18"/>
<text text-anchor="middle" x="474.48" y="-553.88" font-family="Times New Roman,serif" font-size="14.00">16. if type_code == 1 and i + j &gt; k:</text>
<text text-anchor="start" x="312.73" y="-563.63" font-family="Times New Roman,serif" font-size="14.00" fill="darkorange">2,4</text>
</g>
<!-- 13&#45;&gt;16 -->
<g id="edge15" class="edge">
<title>13&#45;&gt;16</title>
<path fill="none" stroke="blue" stroke-width="3.88" d="M474.48,-656.61C474.48,-639.79 474.48,-613.81 474.48,-593.02"/>
<polygon fill="blue" stroke="blue" stroke-width="3.88" points="477.98,-593.28 474.48,-583.28 470.98,-593.28 477.98,-593.28"/>
<text text-anchor="middle" x="528.11" y="-614.63" font-family="Times New Roman,serif" font-size="14.00">&quot;(type_code &lt;= 3)&quot;</text>
<text text-anchor="middle" x="528.11" y="-598.13" font-family="Times New Roman,serif" font-size="14.00"> Score: 0.72</text>
<polygon fill="white" stroke="none" points="443.48,-618.78 443.48,-643.28 472.48,-643.28 472.48,-618.78 443.48,-618.78"/>
<text text-anchor="start" x="447.48" y="-625.98" font-family="Times New Roman,serif" font-size="14.00" fill="darkmagenta">2, 4</text>
</g>
<!-- 26&#45;&gt;3 -->
<g id="edge14" class="edge">
<title>26&#45;&gt;3</title>
<path fill="none" stroke="#429e6a" d="M204.18,-464.48C204.76,-438.54 205.48,-399.18 205.48,-364.96 205.48,-364.96 205.48,-364.96 205.48,-156.99 205.48,-97.5 272.56,-68.92 329.78,-55.36"/>
<polygon fill="#429e6a" stroke="#429e6a" points="330.23,-58.85 339.23,-53.25 328.7,-52.01 330.23,-58.85"/>
<polygon fill="white" stroke="none" points="174.48,-158.99 174.48,-183.49 203.48,-183.49 203.48,-158.99 174.48,-158.99"/>
<text text-anchor="start" x="178.48" y="-166.19" font-family="Times New Roman,serif" font-size="14.00" fill="darkmagenta">2, 0</text>
</g>
<!-- 17 -->
<g id="node14" class="node">
<title>17</title>
<ellipse fill="none" stroke="black" cx="368.48" cy="-363.96" rx="144.42" ry="28.99"/>
<text text-anchor="middle" x="368.48" y="-358.91" font-family="Times New Roman,serif" font-size="14.00">17. type_code = display_type_code(2)</text>
<text text-anchor="start" x="206.81" y="-379.65" font-family="Times New Roman,serif" font-size="14.00" fill="darkorange">1,0</text>
</g>
<!-- 16&#45;&gt;17 -->
<g id="edge16" class="edge">
<title>16&#45;&gt;17</title>
<path fill="none" stroke="#429e6a" d="M392.89,-543.72C382.95,-538.69 374.02,-531.95 367.48,-522.93 342.82,-488.92 348.03,-439.05 356.2,-404.48"/>
<polygon fill="#429e6a" stroke="#429e6a" points="359.57,-405.4 358.66,-394.85 352.79,-403.67 359.57,-405.4"/>
<text text-anchor="middle" x="452.98" y="-497.14" font-family="Times New Roman,serif" font-size="14.00">&quot;type_code == 1 and i + j &gt; k&quot;</text>
<text text-anchor="middle" x="452.98" y="-480.64" font-family="Times New Roman,serif" font-size="14.00">c[14]</text>
<polygon fill="white" stroke="none" points="351.93,-444.31 351.93,-468.81 380.93,-468.81 380.93,-444.31 351.93,-444.31"/>
<text text-anchor="start" x="355.93" y="-451.51" font-family="Times New Roman,serif" font-size="14.00" fill="darkmagenta">1, 0</text>
</g>
<!-- 19 -->
<g id="node15" class="node">
<title>19</title>
<ellipse fill="none" stroke="black" cx="564.48" cy="-428.95" rx="144.5" ry="18"/>
<text text-anchor="middle" x="564.48" y="-423.9" font-family="Times New Roman,serif" font-size="14.00">19. if type_code == 2 and i + k &gt; j:</text>
<text text-anchor="start" x="402.73" y="-433.65" font-family="Times New Roman,serif" font-size="14.00" fill="darkorange">1,4</text>
</g>
<!-- 16&#45;&gt;19 -->
<g id="edge17" class="edge">
<title>16&#45;&gt;19</title>
<path fill="none" stroke="blue" stroke-width="4.32" d="M519.89,-541.55C528.42,-536.69 536.51,-530.57 542.48,-522.93 555.71,-506.03 561.19,-482.46 563.37,-463.28"/>
<polygon fill="blue" stroke="blue" stroke-width="4.32" points="567.14,-463.56 564.12,-453.31 559.6,-463 567.14,-463.56"/>
<text text-anchor="middle" x="668.01" y="-497.14" font-family="Times New Roman,serif" font-size="14.00">&quot;(not (type_code == 1 and i + j &gt; k))&quot;</text>
<text text-anchor="middle" x="668.01" y="-480.64" font-family="Times New Roman,serif" font-size="14.00"> Score: 0.83</text>
<polygon fill="white" stroke="none" points="524.24,-501.29 524.24,-525.79 553.24,-525.79 553.24,-501.29 524.24,-501.29"/>
<text text-anchor="start" x="528.24" y="-508.49" font-family="Times New Roman,serif" font-size="14.00" fill="darkmagenta">1, 4</text>
</g>
<!-- 17&#45;&gt;3 -->
<g id="edge18" class="edge">
<title>17&#45;&gt;3</title>
<path fill="none" stroke="#429e6a" d="M370.07,-334.86C373.3,-283.53 382,-171.35 400.48,-78.5 400.92,-76.33 401.4,-74.1 401.91,-71.85"/>
<polygon fill="#429e6a" stroke="#429e6a" points="405.26,-72.88 404.25,-62.33 398.47,-71.2 405.26,-72.88"/>
<polygon fill="white" stroke="none" points="351.31,-199.53 351.31,-224.03 380.31,-224.03 380.31,-199.53 351.31,-199.53"/>
<text text-anchor="start" x="355.31" y="-206.73" font-family="Times New Roman,serif" font-size="14.00" fill="darkmagenta">1, 0</text>
</g>
<!-- 20 -->
<g id="node16" class="node">
<title>20</title>
<ellipse fill="none" stroke="black" cx="527.48" cy="-233.97" rx="144.42" ry="28.99"/>
<text text-anchor="middle" x="527.48" y="-228.92" font-family="Times New Roman,serif" font-size="14.00">20. type_code = display_type_code(2)</text>
<text text-anchor="start" x="365.81" y="-249.67" font-family="Times New Roman,serif" font-size="14.00" fill="darkorange">1,0</text>
</g>
<!-- 19&#45;&gt;20 -->
<g id="edge19" class="edge">
<title>19&#45;&gt;20</title>
<path fill="none" stroke="#429e6a" d="M544.42,-410.82C539.64,-405.61 535.15,-399.51 532.48,-392.95 517.07,-355.03 517.92,-307.66 521.32,-274.73"/>
<polygon fill="#429e6a" stroke="#429e6a" points="524.79,-275.14 522.48,-264.8 517.84,-274.32 524.79,-275.14"/>
<text text-anchor="middle" x="617.98" y="-367.16" font-family="Times New Roman,serif" font-size="14.00">&quot;type_code == 2 and i + k &gt; j&quot;</text>
<text text-anchor="middle" x="617.98" y="-350.66" font-family="Times New Roman,serif" font-size="14.00">c[15]</text>
<polygon fill="white" stroke="none" points="522.31,-311.79 522.31,-336.29 551.31,-336.29 551.31,-311.79 522.31,-311.79"/>
<text text-anchor="start" x="526.31" y="-318.99" font-family="Times New Roman,serif" font-size="14.00" fill="darkmagenta">1, 0</text>
</g>
<!-- 22 -->
<g id="node17" class="node">
<title>22</title>
<ellipse fill="none" stroke="black" cx="729.48" cy="-298.97" rx="144.5" ry="18"/>
<text text-anchor="middle" x="729.48" y="-293.92" font-family="Times New Roman,serif" font-size="14.00">22. if type_code == 3 and j + k &gt; i:</text>
<text text-anchor="start" x="567.73" y="-303.67" font-family="Times New Roman,serif" font-size="14.00" fill="darkorange">0,4</text>
</g>
<!-- 19&#45;&gt;22 -->
<g id="edge20" class="edge">
<title>19&#45;&gt;22</title>
<path fill="none" stroke="red" stroke-width="5" d="M652.11,-414.23C676.57,-408.76 698.84,-401.66 707.48,-392.95 722.94,-377.38 728.3,-353.08 729.86,-333.22"/>
<polygon fill="red" stroke="red" stroke-width="5" points="734.23,-333.63 730.21,-323.49 725.48,-333.33 734.23,-333.63"/>
<text text-anchor="middle" x="834.7" y="-367.16" font-family="Times New Roman,serif" font-size="14.00">&quot;(not (type_code == 2 and i + k &gt; j))&quot;</text>
<text text-anchor="middle" x="834.7" y="-350.66" font-family="Times New Roman,serif" font-size="14.00"> Score: 1.0</text>
<polygon fill="white" stroke="none" points="685.77,-382.73 685.77,-407.23 714.77,-407.23 714.77,-382.73 685.77,-382.73"/>
<text text-anchor="start" x="689.77" y="-389.93" font-family="Times New Roman,serif" font-size="14.00" fill="darkmagenta">0, 4</text>
</g>
<!-- 20&#45;&gt;3 -->
<g id="edge21" class="edge">
<title>20&#45;&gt;3</title>
<path fill="none" stroke="#429e6a" d="M453.11,-208.89C443.63,-203.04 434.99,-195.84 428.48,-186.98 403.92,-153.56 403.13,-103.57 405.68,-72.29"/>
<polygon fill="#429e6a" stroke="#429e6a" points="409.15,-72.7 406.67,-62.41 402.19,-72.01 409.15,-72.7"/>
<polygon fill="white" stroke="none" points="377.75,-141.45 377.75,-165.95 406.75,-165.95 406.75,-141.45 377.75,-141.45"/>
<text text-anchor="start" x="381.75" y="-148.65" font-family="Times New Roman,serif" font-size="14.00" fill="darkmagenta">1, 0</text>
</g>
<!-- 23 -->
<g id="node18" class="node">
<title>23</title>
<ellipse fill="none" stroke="black" cx="581.48" cy="-157.99" rx="144.42" ry="28.99"/>
<text text-anchor="middle" x="581.48" y="-152.94" font-family="Times New Roman,serif" font-size="14.00">23. type_code = display_type_code(3)</text>
<text text-anchor="start" x="419.81" y="-173.68" font-family="Times New Roman,serif" font-size="14.00" fill="darkorange">0,2</text>
</g>
<!-- 22&#45;&gt;23 -->
<g id="edge22" class="edge">
<title>22&#45;&gt;23</title>
<path fill="none" stroke="red" stroke-width="3.96" d="M710.36,-280.98C705.06,-275.59 699.63,-269.37 695.48,-262.97 680.42,-239.69 691.18,-225.45 672.48,-204.98 668.55,-200.68 664.12,-196.72 659.4,-193.09"/>
<polygon fill="red" stroke="red" stroke-width="3.96" points="661.51,-190.3 651.27,-187.59 657.59,-196.1 661.51,-190.3"/>
<text text-anchor="middle" x="780.98" y="-245.42" font-family="Times New Roman,serif" font-size="14.00">&quot;type_code == 3 and j + k &gt; i&quot;</text>
<text text-anchor="middle" x="780.98" y="-228.92" font-family="Times New Roman,serif" font-size="14.00">c[16]</text>
<text text-anchor="middle" x="780.98" y="-212.42" font-family="Times New Roman,serif" font-size="14.00"> Score: 0.74</text>
<polygon fill="white" stroke="none" points="670.63,-205.15 670.63,-229.65 699.63,-229.65 699.63,-205.15 670.63,-205.15"/>
<text text-anchor="start" x="674.63" y="-212.35" font-family="Times New Roman,serif" font-size="14.00" fill="darkmagenta">0, 2</text>
</g>
<!-- 25 -->
<g id="node19" class="node">
<title>25</title>
<ellipse fill="none" stroke="black" cx="888.48" cy="-157.99" rx="144.42" ry="28.99"/>
<text text-anchor="middle" x="888.48" y="-152.94" font-family="Times New Roman,serif" font-size="14.00">25. type_code = display_type_code(4)</text>
<text text-anchor="start" x="726.81" y="-173.68" font-family="Times New Roman,serif" font-size="14.00" fill="darkorange">0,2</text>
</g>
<!-- 22&#45;&gt;25 -->
<g id="edge23" class="edge">
<title>22&#45;&gt;25</title>
<path fill="none" stroke="red" stroke-width="3.96" d="M813.58,-284.01C837.02,-278.52 858.33,-271.47 866.48,-262.97 881.6,-247.21 887.44,-223.79 889.35,-203.17"/>
<polygon fill="red" stroke="red" stroke-width="3.96" points="892.84,-203.58 889.84,-193.42 885.85,-203.23 892.84,-203.58"/>
<text text-anchor="middle" x="994.05" y="-245.42" font-family="Times New Roman,serif" font-size="14.00">&quot;(not (type_code == 3 and j + k &gt; i))&quot;</text>
<text text-anchor="middle" x="994.05" y="-228.92" font-family="Times New Roman,serif" font-size="14.00">c[17]</text>
<text text-anchor="middle" x="994.05" y="-212.42" font-family="Times New Roman,serif" font-size="14.00"> Score: 0.74</text>
<polygon fill="white" stroke="none" points="878.04,-252.1 878.04,-276.6 907.04,-276.6 907.04,-252.1 878.04,-252.1"/>
<text text-anchor="start" x="882.04" y="-259.3" font-family="Times New Roman,serif" font-size="14.00" fill="darkmagenta">0, 2</text>
</g>
<!-- 23&#45;&gt;3 -->
<g id="edge24" class="edge">
<title>23&#45;&gt;3</title>
<path fill="none" stroke="red" stroke-width="3.96" d="M540.29,-129.81C512.14,-111.24 475.12,-86.81 447.65,-68.68"/>
<polygon fill="red" stroke="red" stroke-width="3.96" points="449.91,-65.98 439.64,-63.4 446.05,-71.82 449.91,-65.98"/>
<text text-anchor="middle" x="543.89" y="-81.7" font-family="Times New Roman,serif" font-size="14.00"> Score: 0.74</text>
<polygon fill="white" stroke="none" points="456.27,-96.83 456.27,-121.33 485.27,-121.33 485.27,-96.83 456.27,-96.83"/>
<text text-anchor="start" x="460.27" y="-104.03" font-family="Times New Roman,serif" font-size="14.00" fill="darkmagenta">0, 2</text>
</g>
<!-- 25&#45;&gt;3 -->
<g id="edge25" class="edge">
<title>25&#45;&gt;3</title>
<path fill="none" stroke="red" stroke-width="3.96" d="M803.44,-134.16C741.74,-117.88 656.18,-95.88 580.48,-78.5 549.57,-71.4 515.34,-64.25 485.68,-58.29"/>
<polygon fill="red" stroke="red" stroke-width="3.96" points="486.55,-54.89 476.05,-56.37 485.18,-61.76 486.55,-54.89"/>
<text text-anchor="middle" x="740.73" y="-81.7" font-family="Times New Roman,serif" font-size="14.00"> Score: 0.74</text>
<polygon fill="white" stroke="none" points="606.66,-94.02 606.66,-118.52 635.66,-118.52 635.66,-94.02 606.66,-94.02"/>
<text text-anchor="start" x="610.66" y="-101.22" font-family="Times New Roman,serif" font-size="14.00" fill="darkmagenta">0, 2</text>
</g>
</g>
</svg>
