<?xml version="1.0" encoding="UTF-8" standalone="no"?>
<!DOCTYPE svg PUBLIC "-//W3C//DTD SVG 1.1//EN"
 "http://www.w3.org/Graphics/SVG/1.1/DTD/svg11.dtd">
<!-- Generated by graphviz version 10.0.1 (20240210.2158)
 -->
<!-- Title: clustertrityp Pages: 1 -->
<svg width="1544pt" height="1503pt"
 viewBox="0.00 0.00 1543.83 1502.75" xmlns="http://www.w3.org/2000/svg" xmlns:xlink="http://www.w3.org/1999/xlink">
<g id="graph0" class="graph" transform="scale(1 1) rotate(0) translate(4 1498.75)">
<title>clustertrityp</title>
<polygon fill="white" stroke="none" points="-4,4 -4,-1498.75 1539.83,-1498.75 1539.83,4 -4,4"/>
<text text-anchor="middle" x="767.91" y="-6.9" font-family="Times New Roman,serif" font-size="8.00">trityp</text>
<!-- 1 -->
<g id="node1" class="node">
<title>1</title>
<ellipse fill="none" stroke="black" cx="249.04" cy="-1456.32" rx="123.21" ry="27.93"/>
<text text-anchor="middle" x="249.04" y="-1453.97" font-family="Times New Roman,serif" font-size="8.00">1. if i == 0 or j == 0 or k == 0:</text>
<text text-anchor="start" x="114.58" y="-1476.65" font-family="Times New Roman,serif" font-size="8.00" fill="darkorange">4,4</text>
</g>
<!-- 2 -->
<g id="node2" class="node">
<title>2</title>
<ellipse fill="none" stroke="black" cx="162.04" cy="-1247.32" rx="150.79" ry="27.93"/>
<text text-anchor="middle" x="162.04" y="-1244.97" font-family="Times New Roman,serif" font-size="8.00">2. type_code = display_type_code(3)</text>
<text text-anchor="start" x="0" y="-1267.65" font-family="Times New Roman,serif" font-size="8.00" fill="darkorange">0,0</text>
</g>
<!-- 1&#45;&gt;2 -->
<g id="edge1" class="edge">
<title>1&#45;&gt;2</title>
<path fill="none" stroke="black" d="M210.69,-1429.53C204.51,-1423.87 198.76,-1417.43 194.54,-1410.39 171.75,-1372.34 164.63,-1321.17 162.57,-1286.59"/>
<polygon fill="black" stroke="black" points="166.09,-1286.87 162.12,-1277.05 159.1,-1287.2 166.09,-1286.87"/>
<text text-anchor="middle" x="242.29" y="-1402.79" font-family="Times New Roman,serif" font-size="8.00">&quot;i == 0 or j == 0 or k == 0&quot;</text>
<text text-anchor="middle" x="242.29" y="-1392.29" font-family="Times New Roman,serif" font-size="8.00">c[5]</text>
<text text-anchor="start" x="150.37" y="-1348.32" font-family="Times New Roman,serif" font-size="8.00" fill="darkmagenta"> &#160;0,0 &#160;&#160;</text>
</g>
<!-- 4 -->
<g id="node3" class="node">
<title>4</title>
<ellipse fill="none" stroke="black" cx="366.04" cy="-1332.32" rx="69.12" ry="39.07"/>
<text text-anchor="middle" x="366.04" y="-1335.22" font-family="Times New Roman,serif" font-size="8.00">4. type_code = 0</text>
<text text-anchor="middle" x="366.04" y="-1324.72" font-family="Times New Roman,serif" font-size="8.00">if i == j:</text>
<text text-anchor="start" x="285.67" y="-1363.79" font-family="Times New Roman,serif" font-size="8.00" fill="darkorange">4,4</text>
</g>
<!-- 1&#45;&gt;4 -->
<g id="edge2" class="edge">
<title>1&#45;&gt;4</title>
<path fill="none" stroke="blue" d="M274.72,-1428.54C289.77,-1412.85 309.1,-1392.69 326.1,-1374.96"/>
<polygon fill="blue" stroke="blue" points="328.28,-1377.74 332.68,-1368.1 323.23,-1372.9 328.28,-1377.74"/>
<text text-anchor="middle" x="371.41" y="-1402.79" font-family="Times New Roman,serif" font-size="8.00">&quot;(not (i == 0 or j == 0 or k == 0))&quot;</text>
<text text-anchor="middle" x="371.41" y="-1392.29" font-family="Times New Roman,serif" font-size="8.00">c[6]</text>
<text text-anchor="start" x="287.38" y="-1379.64" font-family="Times New Roman,serif" font-size="8.00" fill="darkmagenta"> &#160;4,4 &#160;&#160;</text>
</g>
<!-- 3 -->
<g id="node4" class="node">
<title>3</title>
<ellipse fill="none" stroke="black" cx="829.04" cy="-36.5" rx="74.02" ry="18"/>
<text text-anchor="middle" x="829.04" y="-34.15" font-family="Times New Roman,serif" font-size="8.00">3. return type_code</text>
<text text-anchor="start" x="743.77" y="-46.9" font-family="Times New Roman,serif" font-size="8.00" fill="darkorange">4,4</text>
</g>
<!-- 2&#45;&gt;3 -->
<g id="edge3" class="edge">
<title>2&#45;&gt;3</title>
<path fill="none" stroke="black" d="M151.04,-1218.97C142.48,-1195.21 132.04,-1159.65 132.04,-1127.53 132.04,-1127.53 132.04,-1127.53 132.04,-118.43 132.04,-103.78 138.31,-98.75 151.04,-91.5 201.47,-62.77 574.34,-46.32 744.64,-40.23"/>
<polygon fill="black" stroke="black" points="744.66,-43.73 754.53,-39.88 744.42,-36.74 744.66,-43.73"/>
<text text-anchor="start" x="109.54" y="-993.79" font-family="Times New Roman,serif" font-size="8.00" fill="darkmagenta"> &#160;0,0 &#160;&#160;</text>
</g>
<!-- 5 -->
<g id="node5" class="node">
<title>5</title>
<ellipse fill="none" stroke="black" cx="366.04" cy="-1173.46" rx="205.95" ry="27.93"/>
<text text-anchor="middle" x="366.04" y="-1171.11" font-family="Times New Roman,serif" font-size="8.00">5. type_code = is_side_one_equal_two(type_code)</text>
<text text-anchor="start" x="148.84" y="-1193.79" font-family="Times New Roman,serif" font-size="8.00" fill="darkorange">1,0</text>
</g>
<!-- 4&#45;&gt;5 -->
<g id="edge4" class="edge">
<title>4&#45;&gt;5</title>
<path fill="none" stroke="#429e6a" d="M366.04,-1292.95C366.04,-1268.63 366.04,-1237.28 366.04,-1212.94"/>
<polygon fill="#429e6a" stroke="#429e6a" points="369.54,-1213.13 366.04,-1203.13 362.54,-1213.13 369.54,-1213.13"/>
<text text-anchor="middle" x="378.79" y="-1250.22" font-family="Times New Roman,serif" font-size="8.00">&quot;i == j&quot;</text>
<text text-anchor="middle" x="378.79" y="-1239.72" font-family="Times New Roman,serif" font-size="8.00">c[7]</text>
<text text-anchor="start" x="343.54" y="-1239.49" font-family="Times New Roman,serif" font-size="8.00" fill="darkmagenta"> &#160;1,0 &#160;&#160;</text>
</g>
<!-- 6 -->
<g id="node6" class="node">
<title>6</title>
<ellipse fill="none" stroke="black" cx="607.04" cy="-1090.53" rx="42.58" ry="18"/>
<text text-anchor="middle" x="607.04" y="-1088.18" font-family="Times New Roman,serif" font-size="8.00">6. if i == k:</text>
<text text-anchor="start" x="553.21" y="-1100.93" font-family="Times New Roman,serif" font-size="8.00" fill="darkorange">4,4</text>
</g>
<!-- 4&#45;&gt;6 -->
<g id="edge5" class="edge">
<title>4&#45;&gt;6</title>
<path fill="none" stroke="blue" d="M424.33,-1310.94C473.52,-1290.72 542,-1254.96 581.04,-1201.39 598.34,-1177.65 604.3,-1144.05 606.26,-1120.28"/>
<polygon fill="blue" stroke="blue" points="609.75,-1120.55 606.87,-1110.35 602.76,-1120.12 609.75,-1120.55"/>
<text text-anchor="middle" x="613.29" y="-1171.11" font-family="Times New Roman,serif" font-size="8.00">(i != j)</text>
<text text-anchor="start" x="520.3" y="-1234.3" font-family="Times New Roman,serif" font-size="8.00" fill="darkmagenta"> &#160;3,4 &#160;&#160;</text>
</g>
<!-- 5&#45;&gt;6 -->
<g id="edge6" class="edge">
<title>5&#45;&gt;6</title>
<path fill="none" stroke="#429e6a" d="M441.63,-1147.07C481.87,-1133.56 529.89,-1117.44 563.8,-1106.05"/>
<polygon fill="#429e6a" stroke="#429e6a" points="564.49,-1109.51 572.85,-1103.01 562.26,-1102.87 564.49,-1109.51"/>
<text text-anchor="start" x="485.58" y="-1117.16" font-family="Times New Roman,serif" font-size="8.00" fill="darkmagenta"> &#160;1,0 &#160;&#160;</text>
</g>
<!-- 7 -->
<g id="node7" class="node">
<title>7</title>
<ellipse fill="none" stroke="black" cx="396.04" cy="-987.6" rx="210.19" ry="27.93"/>
<text text-anchor="middle" x="396.04" y="-985.25" font-family="Times New Roman,serif" font-size="8.00">7. type_code = is_side_one_equal_three(type_code)</text>
<text text-anchor="start" x="174.6" y="-1007.93" font-family="Times New Roman,serif" font-size="8.00" fill="darkorange">1,0</text>
</g>
<!-- 6&#45;&gt;7 -->
<g id="edge7" class="edge">
<title>6&#45;&gt;7</title>
<path fill="none" stroke="#429e6a" d="M579.46,-1076.33C549.55,-1062.03 500.78,-1038.7 461.04,-1019.69"/>
<polygon fill="#429e6a" stroke="#429e6a" points="462.78,-1016.65 452.25,-1015.49 459.76,-1022.96 462.78,-1016.65"/>
<text text-anchor="middle" x="545.91" y="-1046.93" font-family="Times New Roman,serif" font-size="8.00">&quot;i == k&quot;</text>
<text text-anchor="middle" x="545.91" y="-1036.43" font-family="Times New Roman,serif" font-size="8.00">c[8]</text>
<text text-anchor="start" x="492.56" y="-1037.93" font-family="Times New Roman,serif" font-size="8.00" fill="darkmagenta"> &#160;1,0 &#160;&#160;</text>
</g>
<!-- 8 -->
<g id="node8" class="node">
<title>8</title>
<ellipse fill="none" stroke="black" cx="639.04" cy="-904.67" rx="42.58" ry="18"/>
<text text-anchor="middle" x="639.04" y="-902.32" font-family="Times New Roman,serif" font-size="8.00">8. if j == k:</text>
<text text-anchor="start" x="585.21" y="-915.07" font-family="Times New Roman,serif" font-size="8.00" fill="darkorange">4,4</text>
</g>
<!-- 6&#45;&gt;8 -->
<g id="edge8" class="edge">
<title>6&#45;&gt;8</title>
<path fill="none" stroke="blue" d="M610.05,-1072.23C615.57,-1040.54 627.34,-972.89 634.06,-934.26"/>
<polygon fill="blue" stroke="blue" points="637.49,-935 635.75,-924.54 630.59,-933.8 637.49,-935"/>
<text text-anchor="middle" x="641.41" y="-985.25" font-family="Times New Roman,serif" font-size="8.00">(i != k)</text>
<text text-anchor="start" x="622.97" y="-990.4" font-family="Times New Roman,serif" font-size="8.00" fill="darkmagenta"> &#160;3,4 &#160;&#160;</text>
</g>
<!-- 7&#45;&gt;8 -->
<g id="edge9" class="edge">
<title>7&#45;&gt;8</title>
<path fill="none" stroke="#429e6a" d="M472.26,-961.21C512.95,-947.66 561.55,-931.47 595.76,-920.08"/>
<polygon fill="#429e6a" stroke="#429e6a" points="596.52,-923.52 604.9,-917.04 594.3,-916.88 596.52,-923.52"/>
<text text-anchor="start" x="516.96" y="-931.23" font-family="Times New Roman,serif" font-size="8.00" fill="darkmagenta"> &#160;1,0 &#160;&#160;</text>
</g>
<!-- 9 -->
<g id="node9" class="node">
<title>9</title>
<ellipse fill="none" stroke="black" cx="393.04" cy="-791.24" rx="210.72" ry="27.93"/>
<text text-anchor="middle" x="393.04" y="-788.89" font-family="Times New Roman,serif" font-size="8.00">9. type_code = is_side_two_equal_three(type_code)</text>
<text text-anchor="start" x="171.07" y="-811.57" font-family="Times New Roman,serif" font-size="8.00" fill="darkorange">0,4</text>
</g>
<!-- 8&#45;&gt;9 -->
<g id="edge10" class="edge">
<title>8&#45;&gt;9</title>
<path fill="none" stroke="red" stroke-width="5" d="M610.82,-890.88C575.59,-874.93 514.05,-847.05 465.35,-824.99"/>
<polygon fill="red" stroke="red" stroke-width="5" points="467.29,-821.07 456.38,-820.93 463.68,-829.04 467.29,-821.07"/>
<text text-anchor="middle" x="576.29" y="-861.07" font-family="Times New Roman,serif" font-size="8.00">&quot;j == k&quot;</text>
<text text-anchor="middle" x="576.29" y="-850.57" font-family="Times New Roman,serif" font-size="8.00">c[9]</text>
<text text-anchor="middle" x="576.29" y="-840.07" font-family="Times New Roman,serif" font-size="8.00">Score: 1.0</text>
<text text-anchor="start" x="508.1" y="-846.95" font-family="Times New Roman,serif" font-size="8.00" fill="darkmagenta"> &#160;0,4 &#160;&#160;</text>
</g>
<!-- 10 -->
<g id="node10" class="node">
<title>10</title>
<ellipse fill="none" stroke="black" cx="635.04" cy="-708.31" rx="80.01" ry="18"/>
<text text-anchor="middle" x="635.04" y="-705.96" font-family="Times New Roman,serif" font-size="8.00">10. if type_code == 0:</text>
<text text-anchor="start" x="543.78" y="-718.71" font-family="Times New Roman,serif" font-size="8.00" fill="darkorange">4,4</text>
</g>
<!-- 8&#45;&gt;10 -->
<g id="edge11" class="edge">
<title>8&#45;&gt;10</title>
<path fill="none" stroke="#429e6a" d="M638.68,-886.42C638,-853.01 636.48,-779.14 635.63,-738.14"/>
<polygon fill="#429e6a" stroke="#429e6a" points="639.14,-738.23 635.43,-728.31 632.14,-738.38 639.14,-738.23"/>
<text text-anchor="middle" x="649.41" y="-788.89" font-family="Times New Roman,serif" font-size="8.00">(j != k)</text>
<text text-anchor="start" x="614.54" y="-799.05" font-family="Times New Roman,serif" font-size="8.00" fill="darkmagenta"> &#160;4,0 &#160;&#160;</text>
</g>
<!-- 9&#45;&gt;10 -->
<g id="edge12" class="edge">
<title>9&#45;&gt;10</title>
<path fill="none" stroke="red" d="M469.28,-764.74C505.5,-752.63 547.95,-738.43 580.83,-727.44"/>
<polygon fill="red" stroke="red" points="581.78,-730.81 590.15,-724.32 579.56,-724.17 581.78,-730.81"/>
<text text-anchor="start" x="507.86" y="-736.71" font-family="Times New Roman,serif" font-size="8.00" fill="darkmagenta"> &#160;0,4 &#160;&#160;</text>
</g>
<!-- 11 -->
<g id="node11" class="node">
<title>11</title>
<ellipse fill="none" stroke="black" cx="622.04" cy="-267.15" rx="160.34" ry="27.93"/>
<text text-anchor="middle" x="622.04" y="-264.8" font-family="Times New Roman,serif" font-size="8.00">11. if i + j &lt;= k or j + k &lt;= i or i + k &lt;= j:</text>
<text text-anchor="start" x="450.45" y="-287.48" font-family="Times New Roman,serif" font-size="8.00" fill="darkorange">2,0</text>
</g>
<!-- 10&#45;&gt;11 -->
<g id="edge13" class="edge">
<title>10&#45;&gt;11</title>
<path fill="none" stroke="#429e6a" d="M634.36,-690.04C633.78,-673.74 633.04,-648.61 633.04,-626.81 633.04,-626.81 633.04,-626.81 633.04,-403.94 633.04,-371.08 629.8,-333.89 626.84,-306.75"/>
<polygon fill="#429e6a" stroke="#429e6a" points="630.33,-306.46 625.72,-296.91 623.37,-307.24 630.33,-306.46"/>
<text text-anchor="middle" x="663.79" y="-535.71" font-family="Times New Roman,serif" font-size="8.00">&quot;type_code == 0&quot;</text>
<text text-anchor="middle" x="663.79" y="-525.21" font-family="Times New Roman,serif" font-size="8.00">c[10]</text>
<text text-anchor="start" x="610.54" y="-396.34" font-family="Times New Roman,serif" font-size="8.00" fill="darkmagenta"> &#160;2,0 &#160;&#160;</text>
</g>
<!-- 13 -->
<g id="node12" class="node">
<title>13</title>
<ellipse fill="none" stroke="black" cx="806.04" cy="-625.81" rx="74.52" ry="18"/>
<text text-anchor="middle" x="806.04" y="-623.46" font-family="Times New Roman,serif" font-size="8.00">13. if type_code &gt; 3:</text>
<text text-anchor="start" x="720.27" y="-636.21" font-family="Times New Roman,serif" font-size="8.00" fill="darkorange">2,4</text>
</g>
<!-- 10&#45;&gt;13 -->
<g id="edge14" class="edge">
<title>10&#45;&gt;13</title>
<path fill="none" stroke="blue" d="M668.42,-691.59C695.34,-678.92 733.41,-661 762.69,-647.21"/>
<polygon fill="blue" stroke="blue" points="764.11,-650.41 771.67,-642.99 761.13,-644.08 764.11,-650.41"/>
<text text-anchor="middle" x="759.29" y="-664.71" font-family="Times New Roman,serif" font-size="8.00">(type_code != 0)</text>
<text text-anchor="start" x="697.99" y="-659.48" font-family="Times New Roman,serif" font-size="8.00" fill="darkmagenta"> &#160;2,4 &#160;&#160;</text>
</g>
<!-- 26 -->
<g id="node13" class="node">
<title>26</title>
<ellipse fill="none" stroke="black" cx="311.04" cy="-119.43" rx="150.79" ry="27.93"/>
<text text-anchor="middle" x="311.04" y="-117.08" font-family="Times New Roman,serif" font-size="8.00">26. type_code = display_type_code(4)</text>
<text text-anchor="start" x="149" y="-139.76" font-family="Times New Roman,serif" font-size="8.00" fill="darkorange">2,0</text>
</g>
<!-- 11&#45;&gt;26 -->
<g id="edge15" class="edge">
<title>11&#45;&gt;26</title>
<path fill="none" stroke="#429e6a" d="M546.77,-242.07C529.24,-235.82 510.81,-228.72 494.04,-221.22 448.64,-200.92 399.38,-173.45 363.41,-152.32"/>
<polygon fill="#429e6a" stroke="#429e6a" points="365.33,-149.39 354.94,-147.31 361.77,-155.41 365.33,-149.39"/>
<text text-anchor="middle" x="557.04" y="-196.19" font-family="Times New Roman,serif" font-size="8.00">&quot;i + j &lt;= k or j + k &lt;= i or i + k &lt;= j&quot;</text>
<text text-anchor="middle" x="557.04" y="-185.69" font-family="Times New Roman,serif" font-size="8.00">c[11]</text>
<text text-anchor="start" x="425.67" y="-191.52" font-family="Times New Roman,serif" font-size="8.00" fill="darkmagenta"> &#160;2,0 &#160;&#160;</text>
</g>
<!-- 28 -->
<g id="node14" class="node">
<title>28</title>
<ellipse fill="none" stroke="black" cx="631.04" cy="-119.43" rx="150.79" ry="27.93"/>
<text text-anchor="middle" x="631.04" y="-117.08" font-family="Times New Roman,serif" font-size="8.00">28. type_code = display_type_code(1)</text>
<text text-anchor="start" x="469" y="-139.76" font-family="Times New Roman,serif" font-size="8.00" fill="darkorange">0,0</text>
</g>
<!-- 11&#45;&gt;28 -->
<g id="edge16" class="edge">
<title>11&#45;&gt;28</title>
<path fill="none" stroke="black" d="M623.73,-238.74C625.12,-216.25 627.1,-184.14 628.65,-159.05"/>
<polygon fill="black" stroke="black" points="632.14,-159.42 629.26,-149.23 625.15,-158.99 632.14,-159.42"/>
<text text-anchor="middle" x="704.16" y="-196.19" font-family="Times New Roman,serif" font-size="8.00">&quot;(not (i + j &lt;= k or j + k &lt;= i or i + k &lt;= j))&quot;</text>
<text text-anchor="middle" x="704.16" y="-185.69" font-family="Times New Roman,serif" font-size="8.00">c[12]</text>
<text text-anchor="start" x="620.91" y="-175.2" font-family="Times New Roman,serif" font-size="8.00" fill="darkmagenta"> &#160;0,0 &#160;&#160;</text>
</g>
<!-- 14 -->
<g id="node15" class="node">
<title>14</title>
<ellipse fill="none" stroke="black" cx="806.04" cy="-468.88" rx="150.79" ry="27.93"/>
<text text-anchor="middle" x="806.04" y="-466.53" font-family="Times New Roman,serif" font-size="8.00">14. type_code = display_type_code(3)</text>
<text text-anchor="start" x="644" y="-489.21" font-family="Times New Roman,serif" font-size="8.00" fill="darkorange">0,0</text>
</g>
<!-- 13&#45;&gt;14 -->
<g id="edge19" class="edge">
<title>13&#45;&gt;14</title>
<path fill="none" stroke="black" d="M806.04,-607.33C806.04,-583.55 806.04,-540.31 806.04,-508.66"/>
<polygon fill="black" stroke="black" points="809.54,-508.68 806.04,-498.68 802.54,-508.68 809.54,-508.68"/>
<text text-anchor="middle" x="834.54" y="-582.21" font-family="Times New Roman,serif" font-size="8.00">&quot;type_code &gt; 3&quot;</text>
<text text-anchor="middle" x="834.54" y="-571.71" font-family="Times New Roman,serif" font-size="8.00">c[13]</text>
<text text-anchor="start" x="783.54" y="-544.55" font-family="Times New Roman,serif" font-size="8.00" fill="darkmagenta"> &#160;0,0 &#160;&#160;</text>
</g>
<!-- 16 -->
<g id="node16" class="node">
<title>16</title>
<ellipse fill="none" stroke="black" cx="980.04" cy="-532.81" rx="127.91" ry="18"/>
<text text-anchor="middle" x="980.04" y="-530.46" font-family="Times New Roman,serif" font-size="8.00">16. if type_code == 1 and i + j &gt; k:</text>
<text text-anchor="start" x="840.88" y="-543.21" font-family="Times New Roman,serif" font-size="8.00" fill="darkorange">2,4</text>
</g>
<!-- 13&#45;&gt;16 -->
<g id="edge20" class="edge">
<title>13&#45;&gt;16</title>
<path fill="none" stroke="blue" d="M836.35,-608.96C864.34,-594.31 906.2,-572.42 937.53,-556.04"/>
<polygon fill="blue" stroke="blue" points="939.14,-559.15 946.38,-551.41 935.89,-552.94 939.14,-559.15"/>
<text text-anchor="middle" x="938.04" y="-576.96" font-family="Times New Roman,serif" font-size="8.00">(type_code &lt;= 3)</text>
<text text-anchor="start" x="869.49" y="-572.26" font-family="Times New Roman,serif" font-size="8.00" fill="darkmagenta"> &#160;2,4 &#160;&#160;</text>
</g>
<!-- 26&#45;&gt;3 -->
<g id="edge17" class="edge">
<title>26&#45;&gt;3</title>
<path fill="none" stroke="#429e6a" d="M420.31,-99.78C437.28,-96.96 454.63,-94.12 471.04,-91.5 569.43,-75.8 683.24,-58.84 755.65,-48.2"/>
<polygon fill="#429e6a" stroke="#429e6a" points="756.02,-51.68 765.4,-46.76 755,-44.75 756.02,-51.68"/>
<text text-anchor="start" x="571.09" y="-64.83" font-family="Times New Roman,serif" font-size="8.00" fill="darkmagenta"> &#160;2,0 &#160;&#160;</text>
</g>
<!-- 28&#45;&gt;3 -->
<g id="edge18" class="edge">
<title>28&#45;&gt;3</title>
<path fill="none" stroke="black" d="M692.06,-93.49C721.05,-81.64 755.16,-67.7 782.09,-56.69"/>
<polygon fill="black" stroke="black" points="783.08,-60.07 791.01,-53.05 780.43,-53.59 783.08,-60.07"/>
<text text-anchor="start" x="719.71" y="-65.39" font-family="Times New Roman,serif" font-size="8.00" fill="darkmagenta"> &#160;0,0 &#160;&#160;</text>
</g>
<!-- 14&#45;&gt;3 -->
<g id="edge21" class="edge">
<title>14&#45;&gt;3</title>
<path fill="none" stroke="black" d="M807.39,-440.88C808.55,-415.4 810.04,-376.12 810.04,-342.01 810.04,-342.01 810.04,-342.01 810.04,-118.43 810.04,-100.6 814.46,-81.14 819.04,-65.77"/>
<polygon fill="black" stroke="black" points="822.34,-66.94 822.04,-56.35 815.67,-64.81 822.34,-66.94"/>
<text text-anchor="start" x="787.54" y="-306.47" font-family="Times New Roman,serif" font-size="8.00" fill="darkmagenta"> &#160;0,0 &#160;&#160;</text>
</g>
<!-- 17 -->
<g id="node17" class="node">
<title>17</title>
<ellipse fill="none" stroke="black" cx="976.04" cy="-341.01" rx="150.79" ry="27.93"/>
<text text-anchor="middle" x="976.04" y="-338.66" font-family="Times New Roman,serif" font-size="8.00">17. type_code = display_type_code(2)</text>
<text text-anchor="start" x="814" y="-361.34" font-family="Times New Roman,serif" font-size="8.00" fill="darkorange">1,0</text>
</g>
<!-- 16&#45;&gt;17 -->
<g id="edge22" class="edge">
<title>16&#45;&gt;17</title>
<path fill="none" stroke="#429e6a" d="M979.68,-514.63C979.04,-484.56 977.72,-421.71 976.86,-380.72"/>
<polygon fill="#429e6a" stroke="#429e6a" points="980.36,-380.71 976.65,-370.79 973.36,-380.86 980.36,-380.71"/>
<text text-anchor="middle" x="1031.54" y="-471.78" font-family="Times New Roman,serif" font-size="8.00">&quot;type_code == 1 and i + j &gt; k&quot;</text>
<text text-anchor="middle" x="1031.54" y="-461.28" font-family="Times New Roman,serif" font-size="8.00">c[14]</text>
<text text-anchor="start" x="978.15" y="-434.32" font-family="Times New Roman,serif" font-size="8.00" fill="darkmagenta"> &#160;1,0 &#160;&#160;</text>
</g>
<!-- 19 -->
<g id="node18" class="node">
<title>19</title>
<ellipse fill="none" stroke="black" cx="1150.04" cy="-404.94" rx="127.91" ry="18"/>
<text text-anchor="middle" x="1150.04" y="-402.59" font-family="Times New Roman,serif" font-size="8.00">19. if type_code == 2 and i + k &gt; j:</text>
<text text-anchor="start" x="1010.88" y="-415.34" font-family="Times New Roman,serif" font-size="8.00" fill="darkorange">1,4</text>
</g>
<!-- 16&#45;&gt;19 -->
<g id="edge23" class="edge">
<title>16&#45;&gt;19</title>
<path fill="none" stroke="blue" d="M1049.16,-517.3C1063.22,-512.31 1077.29,-505.65 1089.04,-496.81 1110.92,-480.34 1127.49,-453.62 1137.8,-433.41"/>
<polygon fill="blue" stroke="blue" points="1140.86,-435.13 1142.09,-424.6 1134.57,-432.06 1140.86,-435.13"/>
<text text-anchor="middle" x="1193.91" y="-466.53" font-family="Times New Roman,serif" font-size="8.00">(not (type_code == 1 and i + j &gt; k))</text>
<text text-anchor="start" x="1084.38" y="-472.52" font-family="Times New Roman,serif" font-size="8.00" fill="darkmagenta"> &#160;1,4 &#160;&#160;</text>
</g>
<!-- 17&#45;&gt;3 -->
<g id="edge24" class="edge">
<title>17&#45;&gt;3</title>
<path fill="none" stroke="#429e6a" d="M941.57,-313.34C915.79,-291.44 881.86,-258.11 863.04,-221.22 837.24,-170.64 830.82,-103.33 829.35,-65.82"/>
<polygon fill="#429e6a" stroke="#429e6a" points="832.86,-66.15 829.07,-56.26 825.86,-66.36 832.86,-66.15"/>
<text text-anchor="start" x="829.57" y="-188.22" font-family="Times New Roman,serif" font-size="8.00" fill="darkmagenta"> &#160;1,0 &#160;&#160;</text>
</g>
<!-- 20 -->
<g id="node19" class="node">
<title>20</title>
<ellipse fill="none" stroke="black" cx="1023.04" cy="-193.29" rx="150.79" ry="27.93"/>
<text text-anchor="middle" x="1023.04" y="-190.94" font-family="Times New Roman,serif" font-size="8.00">20. type_code = display_type_code(2)</text>
<text text-anchor="start" x="861" y="-213.62" font-family="Times New Roman,serif" font-size="8.00" fill="darkorange">1,0</text>
</g>
<!-- 19&#45;&gt;20 -->
<g id="edge25" class="edge">
<title>19&#45;&gt;20</title>
<path fill="none" stroke="#429e6a" d="M1148.37,-386.67C1145.98,-367.71 1140.42,-336.83 1128.04,-313.08 1111.38,-281.13 1084.29,-250.79 1061.81,-228.77"/>
<polygon fill="#429e6a" stroke="#429e6a" points="1064.49,-226.49 1054.85,-222.1 1059.64,-231.55 1064.49,-226.49"/>
<text text-anchor="middle" x="1197.54" y="-343.91" font-family="Times New Roman,serif" font-size="8.00">&quot;type_code == 2 and i + k &gt; j&quot;</text>
<text text-anchor="middle" x="1197.54" y="-333.41" font-family="Times New Roman,serif" font-size="8.00">c[15]</text>
<text text-anchor="start" x="1093.98" y="-285.91" font-family="Times New Roman,serif" font-size="8.00" fill="darkmagenta"> &#160;1,0 &#160;&#160;</text>
</g>
<!-- 22 -->
<g id="node20" class="node">
<title>22</title>
<ellipse fill="none" stroke="black" cx="1306.04" cy="-267.15" rx="127.91" ry="18"/>
<text text-anchor="middle" x="1306.04" y="-264.8" font-family="Times New Roman,serif" font-size="8.00">22. if type_code == 3 and j + k &gt; i:</text>
<text text-anchor="start" x="1166.88" y="-277.55" font-family="Times New Roman,serif" font-size="8.00" fill="darkorange">0,4</text>
</g>
<!-- 19&#45;&gt;22 -->
<g id="edge26" class="edge">
<title>19&#45;&gt;22</title>
<path fill="none" stroke="red" d="M1222.8,-389.83C1235.91,-384.83 1248.68,-378.08 1259.04,-368.94 1280.62,-349.92 1293,-318.89 1299.58,-296.28"/>
<polygon fill="red" stroke="red" points="1302.92,-297.36 1302.12,-286.79 1296.16,-295.55 1302.92,-297.36"/>
<text text-anchor="middle" x="1354.91" y="-338.66" font-family="Times New Roman,serif" font-size="8.00">(not (type_code == 2 and i + k &gt; j))</text>
<text text-anchor="start" x="1254.93" y="-339.46" font-family="Times New Roman,serif" font-size="8.00" fill="darkmagenta"> &#160;0,4 &#160;&#160;</text>
</g>
<!-- 20&#45;&gt;3 -->
<g id="edge27" class="edge">
<title>20&#45;&gt;3</title>
<path fill="none" stroke="#429e6a" d="M940.87,-169.47C928.02,-163.6 915.54,-156.33 905.04,-147.36 875.86,-122.45 884.91,-103.31 862.04,-72.5 859.55,-69.15 856.78,-65.78 853.93,-62.52"/>
<polygon fill="#429e6a" stroke="#429e6a" points="856.7,-60.36 847.36,-55.35 851.54,-65.09 856.7,-60.36"/>
<text text-anchor="start" x="860.11" y="-108.37" font-family="Times New Roman,serif" font-size="8.00" fill="darkmagenta"> &#160;1,0 &#160;&#160;</text>
</g>
<!-- 23 -->
<g id="node21" class="node">
<title>23</title>
<ellipse fill="none" stroke="black" cx="1065.04" cy="-119.43" rx="150.79" ry="27.93"/>
<text text-anchor="middle" x="1065.04" y="-117.08" font-family="Times New Roman,serif" font-size="8.00">23. type_code = display_type_code(2)</text>
<text text-anchor="start" x="903" y="-139.76" font-family="Times New Roman,serif" font-size="8.00" fill="darkorange">0,2</text>
</g>
<!-- 22&#45;&gt;23 -->
<g id="edge28" class="edge">
<title>22&#45;&gt;23</title>
<path fill="none" stroke="red" stroke-width="3.96" d="M1266.39,-249.73C1251.49,-242.38 1235.02,-232.75 1222.04,-221.22 1199.4,-201.12 1206.91,-183.99 1183.04,-165.36 1175.84,-159.75 1167.87,-154.77 1159.55,-150.37"/>
<polygon fill="red" stroke="red" stroke-width="3.96" points="1161.25,-147.3 1150.72,-146.11 1158.2,-153.61 1161.25,-147.3"/>
<text text-anchor="middle" x="1274.54" y="-201.44" font-family="Times New Roman,serif" font-size="8.00">&quot;type_code == 3 and j + k &gt; i&quot;</text>
<text text-anchor="middle" x="1274.54" y="-190.94" font-family="Times New Roman,serif" font-size="8.00">c[16]</text>
<text text-anchor="middle" x="1274.54" y="-180.44" font-family="Times New Roman,serif" font-size="8.00">Score: 0.74</text>
<text text-anchor="start" x="1182.37" y="-189.43" font-family="Times New Roman,serif" font-size="8.00" fill="darkmagenta"> &#160;0,2 &#160;&#160;</text>
</g>
<!-- 25 -->
<g id="node22" class="node">
<title>25</title>
<ellipse fill="none" stroke="black" cx="1385.04" cy="-119.43" rx="150.79" ry="27.93"/>
<text text-anchor="middle" x="1385.04" y="-117.08" font-family="Times New Roman,serif" font-size="8.00">25. type_code = display_type_code(4)</text>
<text text-anchor="start" x="1223" y="-139.76" font-family="Times New Roman,serif" font-size="8.00" fill="darkorange">0,2</text>
</g>
<!-- 22&#45;&gt;25 -->
<g id="edge29" class="edge">
<title>22&#45;&gt;25</title>
<path fill="none" stroke="red" stroke-width="3.96" d="M1315.41,-248.86C1327.02,-227.45 1347.18,-190.27 1362.82,-161.41"/>
<polygon fill="red" stroke="red" stroke-width="3.96" points="1365.76,-163.34 1367.45,-152.88 1359.61,-160 1365.76,-163.34"/>
<text text-anchor="middle" x="1424.66" y="-201.44" font-family="Times New Roman,serif" font-size="8.00">&quot;(not (type_code == 3 and j + k &gt; i))&quot;</text>
<text text-anchor="middle" x="1424.66" y="-190.94" font-family="Times New Roman,serif" font-size="8.00">c[17]</text>
<text text-anchor="middle" x="1424.66" y="-180.44" font-family="Times New Roman,serif" font-size="8.00">Score: 0.74</text>
<text text-anchor="start" x="1337.17" y="-180.25" font-family="Times New Roman,serif" font-size="8.00" fill="darkmagenta"> &#160;0,2 &#160;&#160;</text>
</g>
<!-- 23&#45;&gt;3 -->
<g id="edge30" class="edge">
<title>23&#45;&gt;3</title>
<path fill="none" stroke="red" d="M994.87,-94.37C958.34,-81.84 914.44,-66.78 880.98,-55.31"/>
<polygon fill="red" stroke="red" points="882.54,-52.15 871.94,-52.21 880.27,-58.77 882.54,-52.15"/>
<text text-anchor="start" x="910.12" y="-65.42" font-family="Times New Roman,serif" font-size="8.00" fill="darkmagenta"> &#160;0,2 &#160;&#160;</text>
</g>
<!-- 25&#45;&gt;3 -->
<g id="edge31" class="edge">
<title>25&#45;&gt;3</title>
<path fill="none" stroke="red" d="M1276.67,-99.72C1259.41,-96.88 1241.75,-94.04 1225.04,-91.5 1113.89,-74.57 984.8,-57.44 905.01,-47.14"/>
<polygon fill="red" stroke="red" points="905.47,-43.67 895.1,-45.87 904.58,-50.62 905.47,-43.67"/>
<text text-anchor="start" x="1063.04" y="-63.69" font-family="Times New Roman,serif" font-size="8.00" fill="darkmagenta"> &#160;0,2 &#160;&#160;</text>
</g>
</g>
</svg>
