<?xml version="1.0" encoding="UTF-8" standalone="no"?>
<!DOCTYPE svg PUBLIC "-//W3C//DTD SVG 1.1//EN"
 "http://www.w3.org/Graphics/SVG/1.1/DTD/svg11.dtd">
<!-- Generated by graphviz version 12.1.0 (20240811.2233)
 -->
<!-- Title: clustertrityp Pages: 1 -->
<svg width="1574pt" height="1695pt"
 viewBox="0.00 0.00 1573.89 1695.15" xmlns="http://www.w3.org/2000/svg" xmlns:xlink="http://www.w3.org/1999/xlink">
<g id="graph0" class="graph" transform="scale(1 1) rotate(0) translate(4 1691.15)">
<title>clustertrityp</title>
<polygon fill="white" stroke="none" points="-4,4 -4,-1691.15 1569.89,-1691.15 1569.89,4 -4,4"/>
<text text-anchor="middle" x="782.95" y="-7.2" font-family="Times New Roman,serif" font-size="14.00">trityp</text>
<!-- 1 -->
<g id="node1" class="node">
<title>1</title>
<ellipse fill="none" stroke="black" cx="273.67" cy="-1641.66" rx="124.28" ry="28.99"/>
<text text-anchor="middle" x="273.67" y="-1636.61" font-family="Times New Roman,serif" font-size="14.00">1. if i == 0 or j == 0 or k == 0:</text>
<text text-anchor="start" x="132.15" y="-1657.35" font-family="Times New Roman,serif" font-size="14.00" fill="darkorange">4,4</text>
</g>
<!-- 2 -->
<g id="node2" class="node">
<title>2</title>
<ellipse fill="none" stroke="black" cx="161.67" cy="-1398.86" rx="144.42" ry="28.99"/>
<text text-anchor="middle" x="161.67" y="-1393.81" font-family="Times New Roman,serif" font-size="14.00">2. type_code = display_type_code(3)</text>
<text text-anchor="start" x="0" y="-1414.55" font-family="Times New Roman,serif" font-size="14.00" fill="darkorange">0,0</text>
</g>
<!-- 1&#45;&gt;2 -->
<g id="edge1" class="edge">
<title>1&#45;&gt;2</title>
<path fill="none" stroke="black" d="M208.38,-1616.72C199.2,-1610.8 190.81,-1603.53 184.67,-1594.66 152.86,-1548.73 152.38,-1481.65 156.14,-1439.4"/>
<polygon fill="black" stroke="black" points="159.59,-1439.99 157.13,-1429.69 152.63,-1439.28 159.59,-1439.99"/>
<text text-anchor="middle" x="262.67" y="-1573.11" font-family="Times New Roman,serif" font-size="14.00">&quot;i == 0 or j == 0 or k == 0&quot;</text>
<text text-anchor="middle" x="262.67" y="-1556.61" font-family="Times New Roman,serif" font-size="14.00">c[5]</text>
<polygon fill="white" stroke="none" points="127.76,-1528.73 127.76,-1553.23 156.76,-1553.23 156.76,-1528.73 127.76,-1528.73"/>
<text text-anchor="start" x="131.76" y="-1535.93" font-family="Times New Roman,serif" font-size="14.00" fill="darkmagenta">0, 0</text>
</g>
<!-- 4 -->
<g id="node3" class="node">
<title>4</title>
<ellipse fill="none" stroke="black" cx="380.67" cy="-1486.51" rx="66.47" ry="40.66"/>
<text text-anchor="middle" x="380.67" y="-1489.71" font-family="Times New Roman,serif" font-size="14.00">4. type_code = 0</text>
<text text-anchor="middle" x="380.67" y="-1473.21" font-family="Times New Roman,serif" font-size="14.00">if i == j:</text>
<text text-anchor="start" x="296.96" y="-1513.86" font-family="Times New Roman,serif" font-size="14.00" fill="darkorange">4,4</text>
</g>
<!-- 1&#45;&gt;4 -->
<g id="edge2" class="edge">
<title>1&#45;&gt;4</title>
<path fill="none" stroke="blue" stroke-width="3.28" d="M323.49,-1614.65C331.36,-1608.88 338.82,-1602.21 344.67,-1594.66 356.64,-1579.25 364.74,-1559.65 370.17,-1541.43"/>
<polygon fill="blue" stroke="blue" stroke-width="3.28" points="373.49,-1542.59 372.7,-1532.02 366.73,-1540.78 373.49,-1542.59"/>
<text text-anchor="middle" x="466.44" y="-1581.36" font-family="Times New Roman,serif" font-size="14.00">&quot;(not (i == 0 or j == 0 or k == 0))&quot;</text>
<text text-anchor="middle" x="466.44" y="-1564.86" font-family="Times New Roman,serif" font-size="14.00">c[6]</text>
<text text-anchor="middle" x="466.44" y="-1548.36" font-family="Times New Roman,serif" font-size="14.00"> Score: 0.57</text>
<polygon fill="white" stroke="none" points="326,-1577.02 326,-1601.52 355,-1601.52 355,-1577.02 326,-1577.02"/>
<text text-anchor="start" x="330" y="-1584.22" font-family="Times New Roman,serif" font-size="14.00" fill="darkmagenta">4, 4</text>
</g>
<!-- 3 -->
<g id="node4" class="node">
<title>3</title>
<ellipse fill="none" stroke="black" cx="825.67" cy="-42.5" rx="83.08" ry="18"/>
<text text-anchor="middle" x="825.67" y="-37.45" font-family="Times New Roman,serif" font-size="14.00">3. return type_code</text>
<text text-anchor="start" x="725.34" y="-47.2" font-family="Times New Roman,serif" font-size="14.00" fill="darkorange">4,4</text>
</g>
<!-- 2&#45;&gt;3 -->
<g id="edge3" class="edge">
<title>2&#45;&gt;3</title>
<path fill="none" stroke="black" d="M159.51,-1369.78C157.79,-1345.07 155.67,-1308.11 155.67,-1275.88 155.67,-1275.88 155.67,-1275.88 155.67,-156.99 155.67,-4.02 -192,-172.23 527.67,-78.5 599.86,-69.1 682.03,-59.53 741.78,-52.78"/>
<polygon fill="black" stroke="black" points="742,-56.28 751.54,-51.68 741.21,-49.32 742,-56.28"/>
<polygon fill="white" stroke="none" points="124.67,-158.99 124.67,-183.49 153.67,-183.49 153.67,-158.99 124.67,-158.99"/>
<text text-anchor="start" x="128.67" y="-166.19" font-family="Times New Roman,serif" font-size="14.00" fill="darkmagenta">0, 0</text>
</g>
<!-- 5 -->
<g id="node5" class="node">
<title>5</title>
<ellipse fill="none" stroke="black" cx="380.67" cy="-1322.87" rx="196.93" ry="28.99"/>
<text text-anchor="middle" x="380.67" y="-1317.82" font-family="Times New Roman,serif" font-size="14.00">5. type_code = is_side_one_equal_two(type_code)</text>
<text text-anchor="start" x="166.49" y="-1338.56" font-family="Times New Roman,serif" font-size="14.00" fill="darkorange">1,0</text>
</g>
<!-- 4&#45;&gt;5 -->
<g id="edge4" class="edge">
<title>4&#45;&gt;5</title>
<path fill="none" stroke="#429e6a" d="M380.67,-1445.55C380.67,-1420.53 380.67,-1388.43 380.67,-1363.47"/>
<polygon fill="#429e6a" stroke="#429e6a" points="384.17,-1363.73 380.67,-1353.73 377.17,-1363.73 384.17,-1363.73"/>
<text text-anchor="middle" x="402.42" y="-1402.06" font-family="Times New Roman,serif" font-size="14.00">&quot;i == j&quot;</text>
<text text-anchor="middle" x="402.42" y="-1385.56" font-family="Times New Roman,serif" font-size="14.00">c[7]</text>
<polygon fill="white" stroke="none" points="349.67,-1400.81 349.67,-1425.31 378.67,-1425.31 378.67,-1400.81 349.67,-1400.81"/>
<text text-anchor="start" x="353.67" y="-1408.01" font-family="Times New Roman,serif" font-size="14.00" fill="darkmagenta">1, 0</text>
</g>
<!-- 6 -->
<g id="node6" class="node">
<title>6</title>
<ellipse fill="none" stroke="black" cx="598.67" cy="-1238.88" rx="54.93" ry="18"/>
<text text-anchor="middle" x="598.67" y="-1233.83" font-family="Times New Roman,serif" font-size="14.00">6. if i == k:</text>
<text text-anchor="start" x="526.49" y="-1243.58" font-family="Times New Roman,serif" font-size="14.00" fill="darkorange">4,4</text>
</g>
<!-- 4&#45;&gt;6 -->
<g id="edge5" class="edge">
<title>4&#45;&gt;6</title>
<path fill="none" stroke="blue" stroke-width="3.52" d="M437.3,-1465C485.61,-1444.32 552.53,-1407.44 586.67,-1351.86 601.24,-1328.16 603.32,-1296.2 602.3,-1272.49"/>
<polygon fill="blue" stroke="blue" stroke-width="3.52" points="605.79,-1272.29 601.56,-1262.58 598.81,-1272.81 605.79,-1272.29"/>
<text text-anchor="middle" x="635.22" y="-1326.07" font-family="Times New Roman,serif" font-size="14.00">&quot;(i != j)&quot;</text>
<text text-anchor="middle" x="635.22" y="-1309.57" font-family="Times New Roman,serif" font-size="14.00"> Score: 0.63</text>
<polygon fill="white" stroke="none" points="519.66,-1396.9 519.66,-1421.4 548.66,-1421.4 548.66,-1396.9 519.66,-1396.9"/>
<text text-anchor="start" x="523.66" y="-1404.1" font-family="Times New Roman,serif" font-size="14.00" fill="darkmagenta">3, 4</text>
</g>
<!-- 5&#45;&gt;6 -->
<g id="edge6" class="edge">
<title>5&#45;&gt;6</title>
<path fill="none" stroke="#429e6a" d="M451.15,-1295.37C484.61,-1282.78 523.63,-1268.11 553.13,-1257.01"/>
<polygon fill="#429e6a" stroke="#429e6a" points="554,-1260.42 562.12,-1253.63 551.53,-1253.87 554,-1260.42"/>
<polygon fill="white" stroke="none" points="476.33,-1247.73 476.33,-1272.23 505.33,-1272.23 505.33,-1247.73 476.33,-1247.73"/>
<text text-anchor="start" x="480.33" y="-1254.93" font-family="Times New Roman,serif" font-size="14.00" fill="darkmagenta">1, 0</text>
</g>
<!-- 7 -->
<g id="node7" class="node">
<title>7</title>
<ellipse fill="none" stroke="black" cx="553.67" cy="-1122.89" rx="201.7" ry="28.99"/>
<text text-anchor="middle" x="553.67" y="-1117.84" font-family="Times New Roman,serif" font-size="14.00">7. type_code = is_side_one_equal_three(type_code)</text>
<text text-anchor="start" x="334.72" y="-1138.58" font-family="Times New Roman,serif" font-size="14.00" fill="darkorange">1,0</text>
</g>
<!-- 6&#45;&gt;7 -->
<g id="edge7" class="edge">
<title>6&#45;&gt;7</title>
<path fill="none" stroke="#429e6a" d="M591.84,-1220.57C585.78,-1205.22 576.72,-1182.26 568.94,-1162.56"/>
<polygon fill="#429e6a" stroke="#429e6a" points="572.27,-1161.45 565.34,-1153.43 565.75,-1164.02 572.27,-1161.45"/>
<text text-anchor="middle" x="607.37" y="-1189.58" font-family="Times New Roman,serif" font-size="14.00">&quot;i == k&quot;</text>
<text text-anchor="middle" x="607.37" y="-1173.08" font-family="Times New Roman,serif" font-size="14.00">c[8]</text>
<polygon fill="white" stroke="none" points="547.39,-1188.49 547.39,-1212.99 576.39,-1212.99 576.39,-1188.49 547.39,-1188.49"/>
<text text-anchor="start" x="551.39" y="-1195.69" font-family="Times New Roman,serif" font-size="14.00" fill="darkmagenta">1, 0</text>
</g>
<!-- 8 -->
<g id="node8" class="node">
<title>8</title>
<ellipse fill="none" stroke="black" cx="726.67" cy="-1038.9" rx="54.93" ry="18"/>
<text text-anchor="middle" x="726.67" y="-1033.85" font-family="Times New Roman,serif" font-size="14.00">8. if j == k:</text>
<text text-anchor="start" x="654.49" y="-1043.6" font-family="Times New Roman,serif" font-size="14.00" fill="darkorange">4,4</text>
</g>
<!-- 6&#45;&gt;8 -->
<g id="edge8" class="edge">
<title>6&#45;&gt;8</title>
<path fill="none" stroke="blue" stroke-width="3.52" d="M643.98,-1228.25C683.55,-1217.18 738.62,-1194.73 764.67,-1151.88 778.07,-1129.86 772.45,-1118.47 764.67,-1093.9 761.84,-1084.94 756.92,-1076.18 751.54,-1068.41"/>
<polygon fill="blue" stroke="blue" stroke-width="3.52" points="754.45,-1066.45 745.59,-1060.64 748.89,-1070.7 754.45,-1066.45"/>
<text text-anchor="middle" x="805.75" y="-1126.09" font-family="Times New Roman,serif" font-size="14.00">&quot;(i != k)&quot;</text>
<text text-anchor="middle" x="805.75" y="-1109.59" font-family="Times New Roman,serif" font-size="14.00"> Score: 0.63</text>
<polygon fill="white" stroke="none" points="696.89,-1192.25 696.89,-1216.75 725.89,-1216.75 725.89,-1192.25 696.89,-1192.25"/>
<text text-anchor="start" x="700.89" y="-1199.45" font-family="Times New Roman,serif" font-size="14.00" fill="darkmagenta">3, 4</text>
</g>
<!-- 7&#45;&gt;8 -->
<g id="edge9" class="edge">
<title>7&#45;&gt;8</title>
<path fill="none" stroke="#429e6a" d="M610.8,-1094.82C635.44,-1083.14 663.69,-1069.75 686.12,-1059.12"/>
<polygon fill="#429e6a" stroke="#429e6a" points="687.4,-1062.38 694.94,-1054.94 684.41,-1056.06 687.4,-1062.38"/>
<polygon fill="white" stroke="none" points="622.53,-1048.07 622.53,-1072.57 651.53,-1072.57 651.53,-1048.07 622.53,-1048.07"/>
<text text-anchor="start" x="626.53" y="-1055.27" font-family="Times New Roman,serif" font-size="14.00" fill="darkmagenta">1, 0</text>
</g>
<!-- 9 -->
<g id="node9" class="node">
<title>9</title>
<ellipse fill="none" stroke="black" cx="496.67" cy="-906.41" rx="202.23" ry="28.99"/>
<text text-anchor="middle" x="496.67" y="-901.36" font-family="Times New Roman,serif" font-size="14.00">9. type_code = is_side_two_equal_three(type_code)</text>
<text text-anchor="start" x="277.19" y="-922.1" font-family="Times New Roman,serif" font-size="14.00" fill="darkorange">0,4</text>
</g>
<!-- 8&#45;&gt;9 -->
<g id="edge10" class="edge">
<title>8&#45;&gt;9</title>
<path fill="none" stroke="red" stroke-width="5" d="M698.62,-1023.11C687.06,-1016.95 673.55,-1009.66 661.42,-1002.9 626.62,-983.49 588.07,-961.18 557.01,-943.02"/>
<polygon fill="red" stroke="red" stroke-width="5" points="559.53,-939.42 548.69,-938.14 555.11,-946.97 559.53,-939.42"/>
<text text-anchor="middle" x="691.05" y="-989.6" font-family="Times New Roman,serif" font-size="14.00">&quot;j == k&quot;</text>
<text text-anchor="middle" x="691.05" y="-973.1" font-family="Times New Roman,serif" font-size="14.00">c[9]</text>
<text text-anchor="middle" x="691.05" y="-956.6" font-family="Times New Roman,serif" font-size="14.00"> Score: 1.0</text>
<polygon fill="white" stroke="none" points="589.44,-981.73 589.44,-1006.23 618.44,-1006.23 618.44,-981.73 589.44,-981.73"/>
<text text-anchor="start" x="593.44" y="-988.93" font-family="Times New Roman,serif" font-size="14.00" fill="darkmagenta">0, 4</text>
</g>
<!-- 10 -->
<g id="node10" class="node">
<title>10</title>
<ellipse fill="none" stroke="black" cx="674.67" cy="-790.92" rx="94.86" ry="18"/>
<text text-anchor="middle" x="674.67" y="-785.87" font-family="Times New Roman,serif" font-size="14.00">10. if type_code == 0:</text>
<text text-anchor="start" x="562.57" y="-795.62" font-family="Times New Roman,serif" font-size="14.00" fill="darkorange">4,4</text>
</g>
<!-- 8&#45;&gt;10 -->
<g id="edge11" class="edge">
<title>8&#45;&gt;10</title>
<path fill="none" stroke="#429e6a" d="M725.95,-1020.7C725.11,-1003.59 723.48,-976.61 720.67,-953.4 716.57,-919.38 716.78,-910.44 707.67,-877.42 702.25,-857.72 693.97,-836.28 687.06,-819.79"/>
<polygon fill="#429e6a" stroke="#429e6a" points="690.29,-818.46 683.14,-810.65 683.86,-821.22 690.29,-818.46"/>
<text text-anchor="middle" x="738.4" y="-901.36" font-family="Times New Roman,serif" font-size="14.00">(j != k)</text>
<polygon fill="white" stroke="none" points="717.74,-915.05 717.74,-939.55 746.74,-939.55 746.74,-915.05 717.74,-915.05"/>
<text text-anchor="start" x="721.74" y="-922.25" font-family="Times New Roman,serif" font-size="14.00" fill="darkmagenta">4, 0</text>
</g>
<!-- 9&#45;&gt;10 -->
<g id="edge12" class="edge">
<title>9&#45;&gt;10</title>
<path fill="none" stroke="red" stroke-width="5" d="M540.22,-877.64C569.19,-859.17 606.94,-835.11 635.06,-817.17"/>
<polygon fill="red" stroke="red" stroke-width="5" points="637.06,-821.09 643.14,-812.02 632.36,-813.71 637.06,-821.09"/>
<text text-anchor="middle" x="646.72" y="-830.12" font-family="Times New Roman,serif" font-size="14.00"> Score: 1.0</text>
<polygon fill="white" stroke="none" points="563.55,-845 563.55,-869.5 592.55,-869.5 592.55,-845 563.55,-845"/>
<text text-anchor="start" x="567.55" y="-852.2" font-family="Times New Roman,serif" font-size="14.00" fill="darkmagenta">0, 4</text>
</g>
<!-- 11 -->
<g id="node11" class="node">
<title>11</title>
<ellipse fill="none" stroke="black" cx="540.67" cy="-309.96" rx="163.52" ry="28.99"/>
<text text-anchor="middle" x="540.67" y="-304.91" font-family="Times New Roman,serif" font-size="14.00">11. if i + j &lt;= k or j + k &lt;= i or i + k &lt;= j:</text>
<text text-anchor="start" x="359.91" y="-325.65" font-family="Times New Roman,serif" font-size="14.00" fill="darkorange">2,0</text>
</g>
<!-- 10&#45;&gt;11 -->
<g id="edge13" class="edge">
<title>10&#45;&gt;11</title>
<path fill="none" stroke="#429e6a" d="M661.62,-772.73C648.02,-753.08 628.67,-719.43 628.67,-686.92 628.67,-686.92 628.67,-686.92 628.67,-449.93 628.67,-410.55 603.14,-373.27 579.58,-347.25"/>
<polygon fill="#429e6a" stroke="#429e6a" points="582.14,-344.86 572.74,-339.98 577.04,-349.66 582.14,-344.86"/>
<text text-anchor="middle" x="677.8" y="-584.12" font-family="Times New Roman,serif" font-size="14.00">&quot;type_code == 0&quot;</text>
<text text-anchor="middle" x="677.8" y="-567.62" font-family="Times New Roman,serif" font-size="14.00">c[10]</text>
<polygon fill="white" stroke="none" points="597.67,-451.93 597.67,-476.43 626.67,-476.43 626.67,-451.93 597.67,-451.93"/>
<text text-anchor="start" x="601.67" y="-459.13" font-family="Times New Roman,serif" font-size="14.00" fill="darkmagenta">2, 0</text>
</g>
<!-- 13 -->
<g id="node12" class="node">
<title>13</title>
<ellipse fill="none" stroke="black" cx="793.67" cy="-685.92" rx="89.23" ry="18"/>
<text text-anchor="middle" x="793.67" y="-680.87" font-family="Times New Roman,serif" font-size="14.00">13. if type_code &gt; 3:</text>
<text text-anchor="start" x="687.2" y="-690.62" font-family="Times New Roman,serif" font-size="14.00" fill="darkorange">2,4</text>
</g>
<!-- 10&#45;&gt;13 -->
<g id="edge14" class="edge">
<title>10&#45;&gt;13</title>
<path fill="none" stroke="blue" stroke-width="3.88" d="M694.33,-772.91C712.76,-756.95 740.63,-732.83 762.17,-714.19"/>
<polygon fill="blue" stroke="blue" stroke-width="3.88" points="764.28,-716.98 769.55,-707.79 759.7,-711.69 764.28,-716.98"/>
<text text-anchor="middle" x="803.54" y="-741.62" font-family="Times New Roman,serif" font-size="14.00">&quot;(type_code != 0)&quot;</text>
<text text-anchor="middle" x="803.54" y="-725.12" font-family="Times New Roman,serif" font-size="14.00"> Score: 0.72</text>
<polygon fill="white" stroke="none" points="703.4,-740.22 703.4,-764.72 732.4,-764.72 732.4,-740.22 703.4,-740.22"/>
<text text-anchor="start" x="707.4" y="-747.42" font-family="Times New Roman,serif" font-size="14.00" fill="darkmagenta">2, 4</text>
</g>
<!-- 26 -->
<g id="node13" class="node">
<title>26</title>
<ellipse fill="none" stroke="black" cx="327.67" cy="-157.99" rx="144.42" ry="28.99"/>
<text text-anchor="middle" x="327.67" y="-152.94" font-family="Times New Roman,serif" font-size="14.00">26. type_code = display_type_code(4)</text>
<text text-anchor="start" x="166" y="-173.68" font-family="Times New Roman,serif" font-size="14.00" fill="darkorange">2,0</text>
</g>
<!-- 11&#45;&gt;26 -->
<g id="edge15" class="edge">
<title>11&#45;&gt;26</title>
<path fill="none" stroke="#429e6a" d="M400.14,-294.82C361.69,-287.9 327.24,-277.74 315.17,-262.97 300.58,-245.1 303.53,-219.4 310.21,-198.02"/>
<polygon fill="#429e6a" stroke="#429e6a" points="313.46,-199.33 313.47,-188.73 306.85,-197.01 313.46,-199.33"/>
<text text-anchor="middle" x="420.92" y="-237.17" font-family="Times New Roman,serif" font-size="14.00">&quot;i + j &lt;= k or j + k &lt;= i or i + k &lt;= j&quot;</text>
<text text-anchor="middle" x="420.92" y="-220.67" font-family="Times New Roman,serif" font-size="14.00">c[11]</text>
<polygon fill="white" stroke="none" points="310.67,-281.56 310.67,-306.06 339.67,-306.06 339.67,-281.56 310.67,-281.56"/>
<text text-anchor="start" x="314.67" y="-288.76" font-family="Times New Roman,serif" font-size="14.00" fill="darkmagenta">2, 0</text>
</g>
<!-- 28 -->
<g id="node14" class="node">
<title>28</title>
<ellipse fill="none" stroke="black" cx="634.67" cy="-157.99" rx="144.42" ry="28.99"/>
<text text-anchor="middle" x="634.67" y="-152.94" font-family="Times New Roman,serif" font-size="14.00">28. type_code = display_type_code(1)</text>
<text text-anchor="start" x="473" y="-173.68" font-family="Times New Roman,serif" font-size="14.00" fill="darkorange">0,0</text>
</g>
<!-- 11&#45;&gt;28 -->
<g id="edge16" class="edge">
<title>11&#45;&gt;28</title>
<path fill="none" stroke="black" d="M533.57,-280.67C529.64,-258.39 528.04,-227.44 542.17,-204.98 545.66,-199.44 550.04,-194.54 554.98,-190.22"/>
<polygon fill="black" stroke="black" points="556.76,-193.26 562.56,-184.4 552.5,-187.71 556.76,-193.26"/>
<text text-anchor="middle" x="667.42" y="-237.17" font-family="Times New Roman,serif" font-size="14.00">&quot;(not (i + j &lt;= k or j + k &lt;= i or i + k &lt;= j))&quot;</text>
<text text-anchor="middle" x="667.42" y="-220.67" font-family="Times New Roman,serif" font-size="14.00">c[12]</text>
<polygon fill="white" stroke="none" points="518.49,-202.11 518.49,-226.61 547.49,-226.61 547.49,-202.11 518.49,-202.11"/>
<text text-anchor="start" x="522.49" y="-209.31" font-family="Times New Roman,serif" font-size="14.00" fill="darkmagenta">0, 0</text>
</g>
<!-- 14 -->
<g id="node15" class="node">
<title>14</title>
<ellipse fill="none" stroke="black" cx="795.67" cy="-515.92" rx="144.42" ry="28.99"/>
<text text-anchor="middle" x="795.67" y="-510.87" font-family="Times New Roman,serif" font-size="14.00">14. type_code = display_type_code(3)</text>
<text text-anchor="start" x="634" y="-531.62" font-family="Times New Roman,serif" font-size="14.00" fill="darkorange">0,0</text>
</g>
<!-- 13&#45;&gt;14 -->
<g id="edge19" class="edge">
<title>13&#45;&gt;14</title>
<path fill="none" stroke="black" d="M793.58,-667.59C793.53,-653.84 793.5,-634.15 793.67,-616.92 793.87,-597.12 794.29,-575.12 794.69,-556.81"/>
<polygon fill="black" stroke="black" points="798.19,-556.96 794.92,-546.88 791.19,-556.8 798.19,-556.96"/>
<text text-anchor="middle" x="838.67" y="-636.62" font-family="Times New Roman,serif" font-size="14.00">&quot;type_code &gt; 3&quot;</text>
<text text-anchor="middle" x="838.67" y="-620.12" font-family="Times New Roman,serif" font-size="14.00">c[13]</text>
<polygon fill="white" stroke="none" points="762.8,-608.54 762.8,-633.04 791.8,-633.04 791.8,-608.54 762.8,-608.54"/>
<text text-anchor="start" x="766.8" y="-615.74" font-family="Times New Roman,serif" font-size="14.00" fill="darkmagenta">0, 0</text>
</g>
<!-- 16 -->
<g id="node16" class="node">
<title>16</title>
<ellipse fill="none" stroke="black" cx="966.67" cy="-580.92" rx="144.5" ry="18"/>
<text text-anchor="middle" x="966.67" y="-575.87" font-family="Times New Roman,serif" font-size="14.00">16. if type_code == 1 and i + j &gt; k:</text>
<text text-anchor="start" x="804.92" y="-585.62" font-family="Times New Roman,serif" font-size="14.00" fill="darkorange">2,4</text>
</g>
<!-- 13&#45;&gt;16 -->
<g id="edge20" class="edge">
<title>13&#45;&gt;16</title>
<path fill="none" stroke="blue" stroke-width="3.88" d="M842.51,-670.43C857.51,-665.02 873.73,-658.15 887.67,-649.92 906.3,-638.91 924.75,-623.36 939.14,-609.91"/>
<polygon fill="blue" stroke="blue" stroke-width="3.88" points="941.19,-612.79 945.95,-603.32 936.33,-607.75 941.19,-612.79"/>
<text text-anchor="middle" x="984.33" y="-636.62" font-family="Times New Roman,serif" font-size="14.00">&quot;(type_code &lt;= 3)&quot;</text>
<text text-anchor="middle" x="984.33" y="-620.12" font-family="Times New Roman,serif" font-size="14.00"> Score: 0.72</text>
<polygon fill="white" stroke="none" points="894.87,-614.72 894.87,-639.22 923.87,-639.22 923.87,-614.72 894.87,-614.72"/>
<text text-anchor="start" x="898.87" y="-621.92" font-family="Times New Roman,serif" font-size="14.00" fill="darkmagenta">2, 4</text>
</g>
<!-- 26&#45;&gt;3 -->
<g id="edge17" class="edge">
<title>26&#45;&gt;3</title>
<path fill="none" stroke="#429e6a" d="M421.64,-135.58C520.06,-113.15 672.17,-78.48 758.95,-58.71"/>
<polygon fill="#429e6a" stroke="#429e6a" points="759.53,-62.16 768.5,-56.53 757.98,-55.34 759.53,-62.16"/>
<polygon fill="white" stroke="none" points="564.74,-97.9 564.74,-122.4 593.74,-122.4 593.74,-97.9 564.74,-97.9"/>
<text text-anchor="start" x="568.74" y="-105.1" font-family="Times New Roman,serif" font-size="14.00" fill="darkmagenta">2, 0</text>
</g>
<!-- 28&#45;&gt;3 -->
<g id="edge18" class="edge">
<title>28&#45;&gt;3</title>
<path fill="none" stroke="black" d="M679.94,-130.1C713.09,-110.4 757.52,-84 788.58,-65.54"/>
<polygon fill="black" stroke="black" points="790.05,-68.74 796.86,-60.62 786.48,-62.72 790.05,-68.74"/>
<polygon fill="white" stroke="none" points="708.07,-96.96 708.07,-121.46 737.07,-121.46 737.07,-96.96 708.07,-96.96"/>
<text text-anchor="start" x="712.07" y="-104.16" font-family="Times New Roman,serif" font-size="14.00" fill="darkmagenta">0, 0</text>
</g>
<!-- 14&#45;&gt;3 -->
<g id="edge21" class="edge">
<title>14&#45;&gt;3</title>
<path fill="none" stroke="black" d="M799.52,-486.52C802.69,-460.62 806.67,-421.28 806.67,-386.94 806.67,-386.94 806.67,-386.94 806.67,-156.99 806.67,-127.56 812.97,-94.42 818.31,-71.58"/>
<polygon fill="black" stroke="black" points="821.65,-72.67 820.62,-62.13 814.85,-71.01 821.65,-72.67"/>
<polygon fill="white" stroke="none" points="775.67,-360.2 775.67,-384.7 804.67,-384.7 804.67,-360.2 775.67,-360.2"/>
<text text-anchor="start" x="779.67" y="-367.4" font-family="Times New Roman,serif" font-size="14.00" fill="darkmagenta">0, 0</text>
</g>
<!-- 17 -->
<g id="node17" class="node">
<title>17</title>
<ellipse fill="none" stroke="black" cx="965.67" cy="-385.94" rx="144.42" ry="28.99"/>
<text text-anchor="middle" x="965.67" y="-380.89" font-family="Times New Roman,serif" font-size="14.00">17. type_code = display_type_code(2)</text>
<text text-anchor="start" x="804" y="-401.63" font-family="Times New Roman,serif" font-size="14.00" fill="darkorange">1,0</text>
</g>
<!-- 16&#45;&gt;17 -->
<g id="edge22" class="edge">
<title>16&#45;&gt;17</title>
<path fill="none" stroke="#429e6a" d="M964.29,-562.5C963.63,-556.9 963,-550.65 962.67,-544.92 960.38,-504.55 961.72,-458.29 963.27,-426.32"/>
<polygon fill="#429e6a" stroke="#429e6a" points="966.75,-426.9 963.77,-416.73 959.76,-426.53 966.75,-426.9"/>
<text text-anchor="middle" x="1048.17" y="-519.12" font-family="Times New Roman,serif" font-size="14.00">&quot;type_code == 1 and i + j &gt; k&quot;</text>
<text text-anchor="middle" x="1048.17" y="-502.62" font-family="Times New Roman,serif" font-size="14.00">c[14]</text>
<polygon fill="white" stroke="none" points="963.47,-462.28 963.47,-486.78 992.47,-486.78 992.47,-462.28 963.47,-462.28"/>
<text text-anchor="start" x="967.47" y="-469.48" font-family="Times New Roman,serif" font-size="14.00" fill="darkmagenta">1, 0</text>
</g>
<!-- 19 -->
<g id="node18" class="node">
<title>19</title>
<ellipse fill="none" stroke="black" cx="1159.67" cy="-450.93" rx="144.5" ry="18"/>
<text text-anchor="middle" x="1159.67" y="-445.88" font-family="Times New Roman,serif" font-size="14.00">19. if type_code == 2 and i + k &gt; j:</text>
<text text-anchor="start" x="997.92" y="-455.63" font-family="Times New Roman,serif" font-size="14.00" fill="darkorange">1,4</text>
</g>
<!-- 16&#45;&gt;19 -->
<g id="edge23" class="edge">
<title>16&#45;&gt;19</title>
<path fill="none" stroke="blue" stroke-width="4.32" d="M1070.42,-568.02C1100.02,-562.65 1127.13,-555.15 1137.67,-544.92 1153.42,-529.64 1158.77,-505.33 1160.26,-485.4"/>
<polygon fill="blue" stroke="blue" stroke-width="4.32" points="1164.04,-485.56 1160.56,-475.45 1156.48,-485.33 1164.04,-485.56"/>
<text text-anchor="middle" x="1265.11" y="-519.12" font-family="Times New Roman,serif" font-size="14.00">&quot;(not (type_code == 1 and i + j &gt; k))&quot;</text>
<text text-anchor="middle" x="1265.11" y="-502.62" font-family="Times New Roman,serif" font-size="14.00"> Score: 0.83</text>
<polygon fill="white" stroke="none" points="1143.84,-542.39 1143.84,-566.89 1172.84,-566.89 1172.84,-542.39 1143.84,-542.39"/>
<text text-anchor="start" x="1147.84" y="-549.59" font-family="Times New Roman,serif" font-size="14.00" fill="darkmagenta">1, 4</text>
</g>
<!-- 17&#45;&gt;3 -->
<g id="edge24" class="edge">
<title>17&#45;&gt;3</title>
<path fill="none" stroke="#429e6a" d="M932.98,-357.39C908.36,-334.7 875.99,-300.27 858.67,-262.97 829.22,-199.53 824.95,-115.72 824.95,-72.32"/>
<polygon fill="#429e6a" stroke="#429e6a" points="828.45,-72.5 825.04,-62.47 821.45,-72.43 828.45,-72.5"/>
<polygon fill="white" stroke="none" points="811.86,-221.46 811.86,-245.96 840.86,-245.96 840.86,-221.46 811.86,-221.46"/>
<text text-anchor="start" x="815.86" y="-228.66" font-family="Times New Roman,serif" font-size="14.00" fill="darkmagenta">1, 0</text>
</g>
<!-- 20 -->
<g id="node19" class="node">
<title>20</title>
<ellipse fill="none" stroke="black" cx="1003.67" cy="-233.97" rx="144.42" ry="28.99"/>
<text text-anchor="middle" x="1003.67" y="-228.92" font-family="Times New Roman,serif" font-size="14.00">20. type_code = display_type_code(2)</text>
<text text-anchor="start" x="842" y="-249.67" font-family="Times New Roman,serif" font-size="14.00" fill="darkorange">1,0</text>
</g>
<!-- 19&#45;&gt;20 -->
<g id="edge25" class="edge">
<title>19&#45;&gt;20</title>
<path fill="none" stroke="#429e6a" d="M1142.65,-432.79C1137.96,-427.4 1133.21,-421.21 1129.67,-414.93 1116.37,-391.3 1124.11,-380.5 1110.67,-356.95 1092.28,-324.7 1064.46,-293.32 1041.8,-270.47"/>
<polygon fill="#429e6a" stroke="#429e6a" points="1044.35,-268.07 1034.78,-263.51 1039.42,-273.04 1044.35,-268.07"/>
<text text-anchor="middle" x="1215.17" y="-389.14" font-family="Times New Roman,serif" font-size="14.00">&quot;type_code == 2 and i + k &gt; j&quot;</text>
<text text-anchor="middle" x="1215.17" y="-372.64" font-family="Times New Roman,serif" font-size="14.00">c[15]</text>
<polygon fill="white" stroke="none" points="1068.93,-313.19 1068.93,-337.69 1097.93,-337.69 1097.93,-313.19 1068.93,-313.19"/>
<text text-anchor="start" x="1072.93" y="-320.39" font-family="Times New Roman,serif" font-size="14.00" fill="darkmagenta">1, 0</text>
</g>
<!-- 22 -->
<g id="node20" class="node">
<title>22</title>
<ellipse fill="none" stroke="black" cx="1326.67" cy="-309.96" rx="144.5" ry="18"/>
<text text-anchor="middle" x="1326.67" y="-304.91" font-family="Times New Roman,serif" font-size="14.00">22. if type_code == 3 and j + k &gt; i:</text>
<text text-anchor="start" x="1164.92" y="-314.66" font-family="Times New Roman,serif" font-size="14.00" fill="darkorange">0,4</text>
</g>
<!-- 19&#45;&gt;22 -->
<g id="edge26" class="edge">
<title>19&#45;&gt;22</title>
<path fill="none" stroke="red" stroke-width="5" d="M1249.03,-436.37C1273.69,-430.92 1296.06,-423.8 1304.67,-414.93 1322.62,-396.47 1327.54,-367.23 1328.3,-344.46"/>
<polygon fill="red" stroke="red" stroke-width="5" points="1332.68,-344.46 1328.24,-334.49 1323.93,-344.51 1332.68,-344.46"/>
<text text-anchor="middle" x="1432.33" y="-389.14" font-family="Times New Roman,serif" font-size="14.00">&quot;(not (type_code == 2 and i + k &gt; j))&quot;</text>
<text text-anchor="middle" x="1432.33" y="-372.64" font-family="Times New Roman,serif" font-size="14.00"> Score: 1.0</text>
<polygon fill="white" stroke="none" points="1286.45,-398.09 1286.45,-422.59 1315.45,-422.59 1315.45,-398.09 1286.45,-398.09"/>
<text text-anchor="start" x="1290.45" y="-405.29" font-family="Times New Roman,serif" font-size="14.00" fill="darkmagenta">0, 4</text>
</g>
<!-- 20&#45;&gt;3 -->
<g id="edge27" class="edge">
<title>20&#45;&gt;3</title>
<path fill="none" stroke="#429e6a" d="M932.33,-208.33C921.83,-202.5 911.83,-195.45 903.67,-186.98 867.47,-149.38 887.04,-122.32 858.67,-78.5 856.52,-75.17 854.03,-71.88 851.41,-68.72"/>
<polygon fill="#429e6a" stroke="#429e6a" points="854.1,-66.48 844.82,-61.37 848.89,-71.16 854.1,-66.48"/>
<polygon fill="white" stroke="none" points="847.39,-137.87 847.39,-162.37 876.39,-162.37 876.39,-137.87 847.39,-137.87"/>
<text text-anchor="start" x="851.39" y="-145.07" font-family="Times New Roman,serif" font-size="14.00" fill="darkmagenta">1, 0</text>
</g>
<!-- 23 -->
<g id="node21" class="node">
<title>23</title>
<ellipse fill="none" stroke="black" cx="1056.67" cy="-157.99" rx="144.42" ry="28.99"/>
<text text-anchor="middle" x="1056.67" y="-152.94" font-family="Times New Roman,serif" font-size="14.00">23. type_code = display_type_code(3)</text>
<text text-anchor="start" x="895" y="-173.68" font-family="Times New Roman,serif" font-size="14.00" fill="darkorange">0,2</text>
</g>
<!-- 22&#45;&gt;23 -->
<g id="edge28" class="edge">
<title>22&#45;&gt;23</title>
<path fill="none" stroke="red" stroke-width="3.96" d="M1228.42,-296.4C1206.21,-289.54 1184.32,-279.03 1167.67,-262.97 1148.17,-244.13 1166.39,-225.51 1148.67,-204.98 1144.89,-200.6 1140.6,-196.59 1135.97,-192.93"/>
<polygon fill="red" stroke="red" stroke-width="3.96" points="1138.25,-190.25 1128.04,-187.45 1134.27,-196.01 1138.25,-190.25"/>
<text text-anchor="middle" x="1253.17" y="-245.42" font-family="Times New Roman,serif" font-size="14.00">&quot;type_code == 3 and j + k &gt; i&quot;</text>
<text text-anchor="middle" x="1253.17" y="-228.92" font-family="Times New Roman,serif" font-size="14.00">c[16]</text>
<text text-anchor="middle" x="1253.17" y="-212.42" font-family="Times New Roman,serif" font-size="14.00"> Score: 0.74</text>
<polygon fill="white" stroke="none" points="1143.3,-215.7 1143.3,-240.2 1172.3,-240.2 1172.3,-215.7 1143.3,-215.7"/>
<text text-anchor="start" x="1147.3" y="-222.9" font-family="Times New Roman,serif" font-size="14.00" fill="darkmagenta">0, 2</text>
</g>
<!-- 25 -->
<g id="node22" class="node">
<title>25</title>
<ellipse fill="none" stroke="black" cx="1364.67" cy="-157.99" rx="144.42" ry="28.99"/>
<text text-anchor="middle" x="1364.67" y="-152.94" font-family="Times New Roman,serif" font-size="14.00">25. type_code = display_type_code(4)</text>
<text text-anchor="start" x="1203" y="-173.68" font-family="Times New Roman,serif" font-size="14.00" fill="darkorange">0,2</text>
</g>
<!-- 22&#45;&gt;25 -->
<g id="edge29" class="edge">
<title>22&#45;&gt;25</title>
<path fill="none" stroke="red" stroke-width="3.96" d="M1333.28,-291.65C1336.39,-283.1 1340,-272.58 1342.67,-262.97 1348.15,-243.31 1353,-221.23 1356.74,-202.49"/>
<polygon fill="red" stroke="red" stroke-width="3.96" points="1360.13,-203.39 1358.6,-192.91 1353.26,-202.06 1360.13,-203.39"/>
<text text-anchor="middle" x="1460.89" y="-245.42" font-family="Times New Roman,serif" font-size="14.00">&quot;(not (type_code == 3 and j + k &gt; i))&quot;</text>
<text text-anchor="middle" x="1460.89" y="-228.92" font-family="Times New Roman,serif" font-size="14.00">c[17]</text>
<text text-anchor="middle" x="1460.89" y="-212.42" font-family="Times New Roman,serif" font-size="14.00"> Score: 0.74</text>
<polygon fill="white" stroke="none" points="1317.66,-241.65 1317.66,-266.15 1346.66,-266.15 1346.66,-241.65 1317.66,-241.65"/>
<text text-anchor="start" x="1321.66" y="-248.85" font-family="Times New Roman,serif" font-size="14.00" fill="darkmagenta">0, 2</text>
</g>
<!-- 23&#45;&gt;3 -->
<g id="edge30" class="edge">
<title>23&#45;&gt;3</title>
<path fill="none" stroke="red" stroke-width="3.96" d="M1003.71,-130.75C972.81,-115.46 933.06,-95.83 897.67,-78.5 889.72,-74.6 881.26,-70.48 873.04,-66.47"/>
<polygon fill="red" stroke="red" stroke-width="3.96" points="874.59,-63.33 864.06,-62.11 871.52,-69.63 874.59,-63.33"/>
<text text-anchor="middle" x="996.23" y="-81.7" font-family="Times New Roman,serif" font-size="14.00"> Score: 0.74</text>
<polygon fill="white" stroke="none" points="900.29,-97.01 900.29,-121.51 929.29,-121.51 929.29,-97.01 900.29,-97.01"/>
<text text-anchor="start" x="904.29" y="-104.21" font-family="Times New Roman,serif" font-size="14.00" fill="darkmagenta">0, 2</text>
</g>
<!-- 25&#45;&gt;3 -->
<g id="edge31" class="edge">
<title>25&#45;&gt;3</title>
<path fill="none" stroke="red" stroke-width="3.96" d="M1277.21,-134.58C1210.68,-117.94 1116.74,-95.32 1033.67,-78.5 992.44,-70.15 946.33,-62.25 908.02,-56.07"/>
<polygon fill="red" stroke="red" stroke-width="3.96" points="908.74,-52.64 898.31,-54.52 907.63,-59.55 908.74,-52.64"/>
<text text-anchor="middle" x="1212.45" y="-81.7" font-family="Times New Roman,serif" font-size="14.00"> Score: 0.74</text>
<polygon fill="white" stroke="none" points="1054.82,-91.48 1054.82,-115.98 1083.82,-115.98 1083.82,-91.48 1054.82,-91.48"/>
<text text-anchor="start" x="1058.82" y="-98.68" font-family="Times New Roman,serif" font-size="14.00" fill="darkmagenta">0, 2</text>
</g>
</g>
</svg>
