<?xml version="1.0" encoding="UTF-8" standalone="no"?>
<!DOCTYPE svg PUBLIC "-//W3C//DTD SVG 1.1//EN"
 "http://www.w3.org/Graphics/SVG/1.1/DTD/svg11.dtd">
<!-- Generated by graphviz version 2.46.0 (20210118.1747)
 -->
<!-- Title: clustermergeSort Pages: 1 -->
<svg width="3153pt" height="1209pt"
 viewBox="0.00 0.00 3153.18 1208.80" xmlns="http://www.w3.org/2000/svg" xmlns:xlink="http://www.w3.org/1999/xlink">
<g id="graph0" class="graph" transform="scale(1 1) rotate(0) translate(4 1204.8)">
<title>clustermergeSort</title>
<polygon fill="white" stroke="transparent" points="-4,4 -4,-1204.8 3149.18,-1204.8 3149.18,4 -4,4"/>
<text text-anchor="middle" x="1572.59" y="-7.8" font-family="Times New Roman,serif" font-size="14.00">mergeSort</text>
<!-- 1 -->
<g id="node1" class="node">
<title>1</title>
<ellipse fill="none" stroke="black" cx="1848.09" cy="-1117.4" rx="149" ry="18"/>
<text text-anchor="middle" x="1848.09" y="-1113.7" font-family="Times New Roman,serif" font-size="14.00">1. </text>
<text text-anchor="start" x="1668.09" y="-1141" font-family="Times New Roman,serif" font-size="14.00" fill="darkorange">15,15</text>
</g>
<!-- 2 -->
<g id="node2" class="node">
<title>2</title>
<ellipse fill="none" stroke="black" cx="1848.09" cy="-1014.4" rx="101.28" ry="18"/>
<text text-anchor="middle" x="1848.09" y="-1010.7" font-family="Times New Roman,serif" font-size="14.00">2. while current_size &lt; n:</text>
<text text-anchor="start" x="1715.7" y="-1038" font-family="Times New Roman,serif" font-size="14.00" fill="darkorange">43,42</text>
</g>
<!-- 1&#45;&gt;2 -->
<g id="edge1" class="edge">
<title>1&#45;&gt;2</title>
<path fill="none" stroke="blue" stroke-width="3.28" d="M1848.09,-1099.27C1848.09,-1083.81 1848.09,-1060.82 1848.09,-1042.81"/>
<polygon fill="blue" stroke="blue" stroke-width="3.28" points="1851.59,-1042.62 1848.09,-1032.62 1844.59,-1042.62 1851.59,-1042.62"/>
<text text-anchor="middle" x="1882.09" y="-1054.2" font-family="Times New Roman,serif" font-size="14.00"> Score: 0.57</text>
<text text-anchor="start" x="1817.09" y="-1069.72" font-family="Times New Roman,serif" font-size="14.00" fill="darkmagenta">15,15</text>
</g>
<!-- 3 -->
<g id="node3" class="node">
<title>3</title>
<ellipse fill="none" stroke="black" cx="1848.09" cy="-897.4" rx="96" ry="18"/>
<text text-anchor="middle" x="1848.09" y="-893.7" font-family="Times New Roman,serif" font-size="14.00">3. </text>
<text text-anchor="start" x="1721.09" y="-921" font-family="Times New Roman,serif" font-size="14.00" fill="darkorange">43,42</text>
</g>
<!-- 2&#45;&gt;3 -->
<g id="edge2" class="edge">
<title>2&#45;&gt;3</title>
<path fill="none" stroke="blue" stroke-width="3.24" d="M1848.09,-995.93C1848.09,-977.34 1848.09,-947.64 1848.09,-925.9"/>
<polygon fill="blue" stroke="blue" stroke-width="3.24" points="1851.59,-925.65 1848.09,-915.65 1844.59,-925.65 1851.59,-925.65"/>
<text text-anchor="middle" x="1899.59" y="-967.2" font-family="Times New Roman,serif" font-size="14.00">&quot;current_size &lt; n&quot;</text>
<text text-anchor="middle" x="1899.59" y="-952.2" font-family="Times New Roman,serif" font-size="14.00">c[1]</text>
<text text-anchor="middle" x="1899.59" y="-937.2" font-family="Times New Roman,serif" font-size="14.00"> Score: 0.56</text>
<text text-anchor="start" x="1817.09" y="-959.45" font-family="Times New Roman,serif" font-size="14.00" fill="darkmagenta">43,42</text>
</g>
<!-- 5 -->
<g id="node4" class="node">
<title>5</title>
<ellipse fill="none" stroke="black" cx="2045.09" cy="-780.4" rx="45.5" ry="18"/>
<text text-anchor="middle" x="2045.09" y="-776.7" font-family="Times New Roman,serif" font-size="14.00">5. </text>
<text text-anchor="start" x="1974.59" y="-702.6" font-family="Times New Roman,serif" font-size="14.00" fill="darkorange">37,6</text>
</g>
<!-- 3&#45;&gt;5 -->
<g id="edge3" class="edge">
<title>3&#45;&gt;5</title>
<path fill="none" stroke="blue" stroke-width="1.48" d="M1875.9,-880.17C1911.64,-859.3 1973.63,-823.12 2011.83,-800.82"/>
<polygon fill="blue" stroke="blue" stroke-width="1.48" points="2013.66,-803.8 2020.53,-795.74 2010.13,-797.76 2013.66,-803.8"/>
<text text-anchor="middle" x="2019.09" y="-850.2" font-family="Times New Roman,serif" font-size="14.00">&quot;n % 2 == 0&quot;</text>
<text text-anchor="middle" x="2019.09" y="-835.2" font-family="Times New Roman,serif" font-size="14.00">c[2]</text>
<text text-anchor="middle" x="2019.09" y="-820.2" font-family="Times New Roman,serif" font-size="14.00"> Score: 0.12</text>
<text text-anchor="start" x="1923.16" y="-841.78" font-family="Times New Roman,serif" font-size="14.00" fill="darkmagenta">37,6</text>
</g>
<!-- 7 -->
<g id="node5" class="node">
<title>7</title>
<ellipse fill="none" stroke="black" cx="1651.09" cy="-780.4" rx="45.5" ry="18"/>
<text text-anchor="middle" x="1651.09" y="-776.7" font-family="Times New Roman,serif" font-size="14.00">7. </text>
<text text-anchor="start" x="1580.59" y="-804" font-family="Times New Roman,serif" font-size="14.00" fill="darkorange">6,36</text>
</g>
<!-- 3&#45;&gt;7 -->
<g id="edge4" class="edge">
<title>3&#45;&gt;7</title>
<path fill="none" stroke="blue" stroke-width="4.28" d="M1820.28,-880.17C1784.54,-859.3 1722.56,-823.12 1684.36,-800.82"/>
<polygon fill="blue" stroke="blue" stroke-width="4.28" points="1686.18,-797.54 1675.65,-795.74 1682.4,-804.01 1686.18,-797.54"/>
<text text-anchor="middle" x="1825.09" y="-850.2" font-family="Times New Roman,serif" font-size="14.00">&quot;(n % 2 != 0)&quot;</text>
<text text-anchor="middle" x="1825.09" y="-835.2" font-family="Times New Roman,serif" font-size="14.00">c[9]</text>
<text text-anchor="middle" x="1825.09" y="-820.2" font-family="Times New Roman,serif" font-size="14.00"> Score: 0.82</text>
<text text-anchor="start" x="1723.02" y="-841.78" font-family="Times New Roman,serif" font-size="14.00" fill="darkmagenta">6,36</text>
</g>
<!-- 21 -->
<g id="node6" class="node">
<title>21</title>
<ellipse fill="none" stroke="black" cx="2687.09" cy="-677.4" rx="163.27" ry="18"/>
<text text-anchor="middle" x="2687.09" y="-673.7" font-family="Times New Roman,serif" font-size="14.00">21. for left in range(0, n, 2 * current_size):</text>
<text text-anchor="start" x="2485.96" y="-599.6" font-family="Times New Roman,serif" font-size="14.00" fill="darkorange">114,15</text>
</g>
<!-- 5&#45;&gt;21 -->
<g id="edge5" class="edge">
<title>5&#45;&gt;21</title>
<path fill="none" stroke="blue" stroke-width="2.36" d="M2086.72,-772.85C2187.05,-757.07 2444.47,-716.57 2587.51,-694.07"/>
<polygon fill="blue" stroke="blue" stroke-width="2.36" points="2588.27,-697.49 2597.61,-692.48 2587.18,-690.57 2588.27,-697.49"/>
<text text-anchor="middle" x="2495.09" y="-717.2" font-family="Times New Roman,serif" font-size="14.00"> Score: 0.34</text>
<text text-anchor="start" x="2317.28" y="-736.45" font-family="Times New Roman,serif" font-size="14.00" fill="darkmagenta">37,6</text>
</g>
<!-- 8 -->
<g id="node18" class="node">
<title>8</title>
<ellipse fill="none" stroke="black" cx="369.09" cy="-677.4" rx="159.47" ry="18"/>
<text text-anchor="middle" x="369.09" y="-673.7" font-family="Times New Roman,serif" font-size="14.00">8. for left in range(0, n, 2 * current_size):</text>
<text text-anchor="start" x="171.86" y="-701" font-family="Times New Roman,serif" font-size="14.00" fill="darkorange">18,109</text>
</g>
<!-- 7&#45;&gt;8 -->
<g id="edge23" class="edge">
<title>7&#45;&gt;8</title>
<path fill="none" stroke="blue" stroke-width="4.04" d="M1606.96,-775.92C1433,-762.22 790.33,-711.59 505.97,-689.18"/>
<polygon fill="blue" stroke="blue" stroke-width="4.04" points="505.84,-685.63 495.6,-688.37 505.29,-692.68 505.84,-685.63"/>
<text text-anchor="middle" x="1233.09" y="-717.2" font-family="Times New Roman,serif" font-size="14.00"> Score: 0.76</text>
<text text-anchor="start" x="1026.08" y="-735.93" font-family="Times New Roman,serif" font-size="14.00" fill="darkmagenta">6,36</text>
</g>
<!-- 22 -->
<g id="node7" class="node">
<title>22</title>
<ellipse fill="none" stroke="black" cx="2257.09" cy="-560.4" rx="658" ry="18"/>
<text text-anchor="middle" x="2257.09" y="-556.7" font-family="Times New Roman,serif" font-size="14.00">22. 1]right_subarray = arr[mid + 1:right + 1]i = 0j = 0k = left</text>
<text text-anchor="start" x="1574.09" y="-584" font-family="Times New Roman,serif" font-size="14.00" fill="darkorange">77,9</text>
</g>
<!-- 21&#45;&gt;22 -->
<g id="edge6" class="edge">
<title>21&#45;&gt;22</title>
<path fill="none" stroke="blue" stroke-width="2.08" d="M2627.75,-660.53C2550.08,-639.76 2413.97,-603.36 2330.07,-580.92"/>
<polygon fill="blue" stroke="blue" stroke-width="2.08" points="2330.93,-577.52 2320.36,-578.32 2329.12,-584.29 2330.93,-577.52"/>
<text text-anchor="middle" x="2631.59" y="-630.2" font-family="Times New Roman,serif" font-size="14.00">&quot;range(0, n, 2 * current_size)&quot;</text>
<text text-anchor="middle" x="2631.59" y="-615.2" font-family="Times New Roman,serif" font-size="14.00">c[3]</text>
<text text-anchor="middle" x="2631.59" y="-600.2" font-family="Times New Roman,serif" font-size="14.00"> Score: 0.27</text>
<text text-anchor="start" x="2449.26" y="-623.28" font-family="Times New Roman,serif" font-size="14.00" fill="darkmagenta">77,9</text>
</g>
<!-- 23 -->
<g id="node8" class="node">
<title>23</title>
<ellipse fill="none" stroke="black" cx="3058.09" cy="-560.4" rx="87.18" ry="18"/>
<text text-anchor="middle" x="3058.09" y="-556.7" font-family="Times New Roman,serif" font-size="14.00">23. current_size *= 2</text>
<text text-anchor="start" x="2946" y="-584" font-family="Times New Roman,serif" font-size="14.00" fill="darkorange">37,6</text>
</g>
<!-- 21&#45;&gt;23 -->
<g id="edge7" class="edge">
<title>21&#45;&gt;23</title>
<path fill="none" stroke="blue" stroke-width="2.2" d="M2833.15,-669.32C2885.24,-664.33 2936.19,-655.85 2957.09,-641.4 2975.74,-628.51 2964.57,-611.91 2981.09,-596.4 2987.78,-590.13 2995.78,-584.83 3004.06,-580.41"/>
<polygon fill="blue" stroke="blue" stroke-width="2.2" points="3005.68,-583.51 3013.1,-575.95 3002.59,-577.23 3005.68,-583.51"/>
<text text-anchor="middle" x="3011.59" y="-607.2" font-family="Times New Roman,serif" font-size="14.00"> Score: 0.3</text>
<text text-anchor="start" x="2911.28" y="-654.94" font-family="Times New Roman,serif" font-size="14.00" fill="darkmagenta">37,6</text>
</g>
<!-- 24 -->
<g id="node9" class="node">
<title>24</title>
<ellipse fill="none" stroke="black" cx="2297.09" cy="-457.4" rx="221.76" ry="18"/>
<text text-anchor="middle" x="2297.09" y="-453.7" font-family="Times New Roman,serif" font-size="14.00">24. while i &lt; len(left_subarray) and j &lt; len(right_subarray):</text>
<text text-anchor="start" x="2037.46" y="-481" font-family="Times New Roman,serif" font-size="14.00" fill="darkorange">229,23</text>
</g>
<!-- 22&#45;&gt;24 -->
<g id="edge8" class="edge">
<title>22&#45;&gt;24</title>
<path fill="none" stroke="blue" stroke-width="2.24" d="M2263.88,-542.27C2270.08,-526.6 2279.36,-503.17 2286.54,-485.05"/>
<polygon fill="blue" stroke="blue" stroke-width="2.24" points="2289.85,-486.2 2290.27,-475.62 2283.34,-483.63 2289.85,-486.2"/>
<text text-anchor="middle" x="2316.09" y="-497.2" font-family="Times New Roman,serif" font-size="14.00"> Score: 0.31</text>
<text text-anchor="start" x="2252.1" y="-512.68" font-family="Times New Roman,serif" font-size="14.00" fill="darkmagenta">77,9</text>
</g>
<!-- 23&#45;&gt;2 -->
<g id="edge22" class="edge">
<title>23&#45;&gt;2</title>
<path fill="none" stroke="blue" stroke-width="2.36" d="M3057.61,-578.54C3057.02,-601.01 3056.09,-641.66 3056.09,-676.4 3056.09,-898.4 3056.09,-898.4 3056.09,-898.4 3056.09,-953.41 2251.72,-995.22 1955.73,-1008.74"/>
<polygon fill="blue" stroke="blue" stroke-width="2.36" points="1955.25,-1005.26 1945.41,-1009.21 1955.56,-1012.25 1955.25,-1005.26"/>
<text text-anchor="middle" x="3090.09" y="-768.7" font-family="Times New Roman,serif" font-size="14.00"> Score: 0.34</text>
<text text-anchor="start" x="2591.91" y="-972.93" font-family="Times New Roman,serif" font-size="14.00" fill="darkmagenta">37,6</text>
</g>
<!-- 25 -->
<g id="node10" class="node">
<title>25</title>
<ellipse fill="none" stroke="black" cx="2007.09" cy="-340.4" rx="185" ry="18"/>
<text text-anchor="middle" x="2007.09" y="-336.7" font-family="Times New Roman,serif" font-size="14.00">25. </text>
<text text-anchor="start" x="1784.09" y="-364" font-family="Times New Roman,serif" font-size="14.00" fill="darkorange">152,14</text>
</g>
<!-- 24&#45;&gt;25 -->
<g id="edge9" class="edge">
<title>24&#45;&gt;25</title>
<path fill="none" stroke="blue" stroke-width="2.04" d="M2131.78,-445.36C2072.29,-439.7 2017.4,-431.77 2008.09,-421.4 1995.49,-407.36 1995.98,-385.7 1999.22,-368.46"/>
<polygon fill="blue" stroke="blue" stroke-width="2.04" points="2002.7,-368.93 2001.49,-358.4 1995.87,-367.38 2002.7,-368.93"/>
<text text-anchor="middle" x="2148.09" y="-410.2" font-family="Times New Roman,serif" font-size="14.00">&quot;i &lt; len(left_subarray) and j &lt; len(right_subarray)&quot;</text>
<text text-anchor="middle" x="2148.09" y="-395.2" font-family="Times New Roman,serif" font-size="14.00">c[4]</text>
<text text-anchor="middle" x="2148.09" y="-380.2" font-family="Times New Roman,serif" font-size="14.00"> Score: 0.26</text>
<text text-anchor="start" x="2013.1" y="-438.94" font-family="Times New Roman,serif" font-size="14.00" fill="darkmagenta">152,14</text>
</g>
<!-- 26 -->
<g id="node11" class="node">
<title>26</title>
<ellipse fill="none" stroke="black" cx="2557.09" cy="-340.4" rx="122.68" ry="18"/>
<text text-anchor="middle" x="2557.09" y="-336.7" font-family="Times New Roman,serif" font-size="14.00">26. while i &lt; len(left_subarray):</text>
<text text-anchor="start" x="2396.25" y="-328" font-family="Times New Roman,serif" font-size="14.00" fill="darkorange">124,14</text>
</g>
<!-- 24&#45;&gt;26 -->
<g id="edge10" class="edge">
<title>24&#45;&gt;26</title>
<path fill="none" stroke="blue" stroke-width="2.12" d="M2335.18,-439.55C2381.82,-418.92 2460.78,-384 2510.86,-361.85"/>
<polygon fill="blue" stroke="blue" stroke-width="2.12" points="2512.44,-364.98 2520.17,-357.73 2509.61,-358.58 2512.44,-364.98"/>
<text text-anchor="middle" x="2632.09" y="-402.7" font-family="Times New Roman,serif" font-size="14.00">&quot;(not (i &lt; len(left_subarray) and j &lt; len(right_subarray)))&quot;</text>
<text text-anchor="middle" x="2632.09" y="-387.7" font-family="Times New Roman,serif" font-size="14.00"> Score: 0.28</text>
<text text-anchor="start" x="2402.7" y="-402.43" font-family="Times New Roman,serif" font-size="14.00" fill="darkmagenta">77,9</text>
</g>
<!-- 27 -->
<g id="node12" class="node">
<title>27</title>
<ellipse fill="none" stroke="black" cx="1788.09" cy="-223.4" rx="152.5" ry="18"/>
<text text-anchor="middle" x="1788.09" y="-219.7" font-family="Times New Roman,serif" font-size="14.00">27. </text>
<text text-anchor="start" x="1610.59" y="-247" font-family="Times New Roman,serif" font-size="14.00" fill="darkorange">87,7</text>
</g>
<!-- 25&#45;&gt;27 -->
<g id="edge11" class="edge">
<title>25&#45;&gt;27</title>
<path fill="none" stroke="blue" stroke-width="1.96" d="M1881.25,-327.2C1850.71,-321.97 1823.55,-314.62 1812.09,-304.4 1797.31,-291.21 1791.47,-269.31 1789.24,-251.75"/>
<polygon fill="blue" stroke="blue" stroke-width="1.96" points="1792.69,-251.13 1788.27,-241.5 1785.72,-251.79 1792.69,-251.13"/>
<text text-anchor="middle" x="1919.09" y="-293.2" font-family="Times New Roman,serif" font-size="14.00">&quot;left_subarray[i] &lt;= right_subarray[j]&quot;</text>
<text text-anchor="middle" x="1919.09" y="-278.2" font-family="Times New Roman,serif" font-size="14.00">c[5]</text>
<text text-anchor="middle" x="1919.09" y="-263.2" font-family="Times New Roman,serif" font-size="14.00"> Score: 0.24</text>
<text text-anchor="start" x="1787.05" y="-308.16" font-family="Times New Roman,serif" font-size="14.00" fill="darkmagenta">87,7</text>
</g>
<!-- 29 -->
<g id="node13" class="node">
<title>29</title>
<ellipse fill="none" stroke="black" cx="2116.09" cy="-223.4" rx="157.5" ry="18"/>
<text text-anchor="middle" x="2116.09" y="-219.7" font-family="Times New Roman,serif" font-size="14.00">29. </text>
<text text-anchor="start" x="1958.59" y="-145.6" font-family="Times New Roman,serif" font-size="14.00" fill="darkorange">65,7</text>
</g>
<!-- 25&#45;&gt;29 -->
<g id="edge12" class="edge">
<title>25&#45;&gt;29</title>
<path fill="none" stroke="blue" stroke-width="2.12" d="M2017.42,-322.22C2028.22,-305.11 2046.33,-278.68 2066.09,-259.4 2070.42,-255.18 2075.29,-251.11 2080.27,-247.32"/>
<polygon fill="blue" stroke="blue" stroke-width="2.12" points="2082.6,-249.95 2088.64,-241.24 2078.49,-244.28 2082.6,-249.95"/>
<text text-anchor="middle" x="2173.09" y="-293.2" font-family="Times New Roman,serif" font-size="14.00">&quot;(left_subarray[i] &gt; right_subarray[j])&quot;</text>
<text text-anchor="middle" x="2173.09" y="-278.2" font-family="Times New Roman,serif" font-size="14.00">c[6]</text>
<text text-anchor="middle" x="2173.09" y="-263.2" font-family="Times New Roman,serif" font-size="14.00"> Score: 0.28</text>
<text text-anchor="start" x="2036.15" y="-267.35" font-family="Times New Roman,serif" font-size="14.00" fill="darkmagenta">65,7</text>
</g>
<!-- 30 -->
<g id="node15" class="node">
<title>30</title>
<ellipse fill="none" stroke="black" cx="2549.09" cy="-223.4" rx="177" ry="18"/>
<text text-anchor="middle" x="2549.09" y="-219.7" font-family="Times New Roman,serif" font-size="14.00">30. </text>
<text text-anchor="start" x="2347.09" y="-145.6" font-family="Times New Roman,serif" font-size="14.00" fill="darkorange">47,5</text>
</g>
<!-- 26&#45;&gt;30 -->
<g id="edge16" class="edge">
<title>26&#45;&gt;30</title>
<path fill="none" stroke="blue" stroke-width="2" d="M2569.17,-322.37C2572.39,-316.89 2575.44,-310.62 2577.09,-304.4 2582.23,-285.07 2583.71,-278.27 2577.09,-259.4 2575.92,-256.07 2574.29,-252.82 2572.39,-249.72"/>
<polygon fill="blue" stroke="blue" stroke-width="2" points="2575.17,-247.59 2566.51,-241.49 2569.47,-251.66 2575.17,-247.59"/>
<text text-anchor="middle" x="2645.59" y="-293.2" font-family="Times New Roman,serif" font-size="14.00">&quot;i &lt; len(left_subarray)&quot;</text>
<text text-anchor="middle" x="2645.59" y="-278.2" font-family="Times New Roman,serif" font-size="14.00">c[7]</text>
<text text-anchor="middle" x="2645.59" y="-263.2" font-family="Times New Roman,serif" font-size="14.00"> Score: 0.25</text>
<text text-anchor="start" x="2556.48" y="-286.14" font-family="Times New Roman,serif" font-size="14.00" fill="darkmagenta">47,5</text>
</g>
<!-- 31 -->
<g id="node16" class="node">
<title>31</title>
<ellipse fill="none" stroke="black" cx="2909.09" cy="-223.4" rx="128.08" ry="18"/>
<text text-anchor="middle" x="2909.09" y="-219.7" font-family="Times New Roman,serif" font-size="14.00">31. while j &lt; len(right_subarray):</text>
<text text-anchor="start" x="2743.05" y="-211" font-family="Times New Roman,serif" font-size="14.00" fill="darkorange">122,14</text>
</g>
<!-- 26&#45;&gt;31 -->
<g id="edge17" class="edge">
<title>26&#45;&gt;31</title>
<path fill="none" stroke="blue" stroke-width="2.16" d="M2639.09,-326.9C2663.77,-321.62 2690.54,-314.32 2714.09,-304.4 2747.83,-290.19 2749.73,-274.48 2783.09,-259.4 2798.66,-252.37 2815.96,-246.44 2832.63,-241.59"/>
<polygon fill="blue" stroke="blue" stroke-width="2.16" points="2833.67,-244.93 2842.35,-238.85 2831.78,-238.19 2833.67,-244.93"/>
<text text-anchor="middle" x="2856.09" y="-285.7" font-family="Times New Roman,serif" font-size="14.00">&quot;(i &gt;= len(left_subarray))&quot;</text>
<text text-anchor="middle" x="2856.09" y="-270.7" font-family="Times New Roman,serif" font-size="14.00"> Score: 0.29</text>
<text text-anchor="start" x="2718.69" y="-290.28" font-family="Times New Roman,serif" font-size="14.00" fill="darkmagenta">77,9</text>
</g>
<!-- 28 -->
<g id="node14" class="node">
<title>28</title>
<ellipse fill="none" stroke="black" cx="2116.09" cy="-106.4" rx="48.99" ry="18"/>
<text text-anchor="middle" x="2116.09" y="-102.7" font-family="Times New Roman,serif" font-size="14.00">28. k += 1</text>
<text text-anchor="start" x="2029.35" y="-28.6" font-family="Times New Roman,serif" font-size="14.00" fill="darkorange">152,14</text>
</g>
<!-- 27&#45;&gt;28 -->
<g id="edge13" class="edge">
<title>27&#45;&gt;28</title>
<path fill="none" stroke="blue" stroke-width="2.12" d="M1834.39,-206.17C1897.75,-183.95 2010.65,-144.37 2072.54,-122.67"/>
<polygon fill="blue" stroke="blue" stroke-width="2.12" points="2073.74,-125.96 2082.02,-119.35 2071.43,-119.35 2073.74,-125.96"/>
<text text-anchor="middle" x="2043.09" y="-153.2" font-family="Times New Roman,serif" font-size="14.00"> Score: 0.28</text>
<text text-anchor="start" x="1933.39" y="-166.49" font-family="Times New Roman,serif" font-size="14.00" fill="darkmagenta">87,7</text>
</g>
<!-- 29&#45;&gt;28 -->
<g id="edge15" class="edge">
<title>29&#45;&gt;28</title>
<path fill="none" stroke="blue" stroke-width="2.2" d="M2116.09,-204.93C2116.09,-186.34 2116.09,-156.64 2116.09,-134.9"/>
<polygon fill="blue" stroke="blue" stroke-width="2.2" points="2119.59,-134.65 2116.09,-124.65 2112.59,-134.65 2119.59,-134.65"/>
<text text-anchor="middle" x="2146.59" y="-153.2" font-family="Times New Roman,serif" font-size="14.00"> Score: 0.3</text>
<text text-anchor="start" x="2091.09" y="-168.45" font-family="Times New Roman,serif" font-size="14.00" fill="darkmagenta">65,7</text>
</g>
<!-- 28&#45;&gt;24 -->
<g id="edge14" class="edge">
<title>28&#45;&gt;24</title>
<path fill="none" stroke="blue" stroke-width="2.16" d="M2154.01,-117.79C2193.93,-130.96 2254.82,-157.87 2283.09,-205.4 2325.51,-276.71 2312.65,-380.54 2303.22,-429.26"/>
<polygon fill="blue" stroke="blue" stroke-width="2.16" points="2299.73,-428.83 2301.16,-439.33 2306.59,-430.23 2299.73,-428.83"/>
<text text-anchor="middle" x="2345.09" y="-270.2" font-family="Times New Roman,serif" font-size="14.00"> Score: 0.29</text>
<text text-anchor="start" x="2266.68" y="-249.05" font-family="Times New Roman,serif" font-size="14.00" fill="darkmagenta">152,14</text>
</g>
<!-- 30&#45;&gt;26 -->
<g id="edge18" class="edge">
<title>30&#45;&gt;26</title>
<path fill="none" stroke="blue" stroke-width="2.2" d="M2525.41,-241.33C2520.02,-246.46 2515.03,-252.58 2512.09,-259.4 2504.18,-277.77 2503.31,-286.43 2512.09,-304.4 2514.1,-308.51 2516.86,-312.28 2520.02,-315.7"/>
<polygon fill="blue" stroke="blue" stroke-width="2.2" points="2517.75,-318.37 2527.46,-322.6 2522.51,-313.24 2517.75,-318.37"/>
<text text-anchor="middle" x="2542.59" y="-270.2" font-family="Times New Roman,serif" font-size="14.00"> Score: 0.3</text>
<text text-anchor="start" x="2480.83" y="-286.17" font-family="Times New Roman,serif" font-size="14.00" fill="darkmagenta">47,5</text>
</g>
<!-- 31&#45;&gt;21 -->
<g id="edge19" class="edge">
<title>31&#45;&gt;21</title>
<path fill="none" stroke="blue" stroke-width="2.16" d="M2920.51,-241.63C2923.71,-247.12 2926.91,-253.34 2929.09,-259.4 2941.34,-293.35 2943.09,-303.3 2943.09,-339.4 2943.09,-561.4 2943.09,-561.4 2943.09,-561.4 2943.09,-621.06 2884.52,-649.96 2823.41,-663.87"/>
<polygon fill="blue" stroke="blue" stroke-width="2.16" points="2822.64,-660.46 2813.59,-665.98 2824.1,-667.3 2822.64,-660.46"/>
<text text-anchor="middle" x="3020.09" y="-461.2" font-family="Times New Roman,serif" font-size="14.00">&quot;(j &gt;= len(right_subarray))&quot;</text>
<text text-anchor="middle" x="3020.09" y="-446.2" font-family="Times New Roman,serif" font-size="14.00"> Score: 0.29</text>
<text text-anchor="start" x="2918.09" y="-537.45" font-family="Times New Roman,serif" font-size="14.00" fill="darkmagenta">77,9</text>
</g>
<!-- 32 -->
<g id="node17" class="node">
<title>32</title>
<ellipse fill="none" stroke="black" cx="2908.09" cy="-106.4" rx="182" ry="18"/>
<text text-anchor="middle" x="2908.09" y="-102.7" font-family="Times New Roman,serif" font-size="14.00">32. </text>
<text text-anchor="start" x="2701.09" y="-130" font-family="Times New Roman,serif" font-size="14.00" fill="darkorange">45,5</text>
</g>
<!-- 31&#45;&gt;32 -->
<g id="edge20" class="edge">
<title>31&#45;&gt;32</title>
<path fill="none" stroke="blue" stroke-width="2" d="M2852.46,-207.11C2843.6,-202.24 2835.57,-195.82 2830.09,-187.4 2819.18,-170.64 2819.22,-159.19 2830.09,-142.4 2833.35,-137.37 2837.52,-133.06 2842.23,-129.36"/>
<polygon fill="blue" stroke="blue" stroke-width="2" points="2844.28,-132.2 2850.6,-123.7 2840.36,-126.4 2844.28,-132.2"/>
<text text-anchor="middle" x="2898.09" y="-176.2" font-family="Times New Roman,serif" font-size="14.00">&quot;j &lt; len(right_subarray)&quot;</text>
<text text-anchor="middle" x="2898.09" y="-161.2" font-family="Times New Roman,serif" font-size="14.00">c[8]</text>
<text text-anchor="middle" x="2898.09" y="-146.2" font-family="Times New Roman,serif" font-size="14.00"> Score: 0.25</text>
<text text-anchor="start" x="2798.71" y="-178.77" font-family="Times New Roman,serif" font-size="14.00" fill="darkmagenta">45,5</text>
</g>
<!-- 32&#45;&gt;31 -->
<g id="edge21" class="edge">
<title>32&#45;&gt;31</title>
<path fill="none" stroke="blue" stroke-width="2.24" d="M2948.16,-124.02C2955.34,-128.87 2961.87,-134.92 2966.09,-142.4 2975.92,-159.82 2975.86,-169.95 2966.09,-187.4 2963.5,-192.03 2960.02,-196.13 2956.05,-199.72"/>
<polygon fill="blue" stroke="blue" stroke-width="2.24" points="2953.65,-197.15 2947.9,-206.05 2957.95,-202.68 2953.65,-197.15"/>
<text text-anchor="middle" x="3007.09" y="-153.2" font-family="Times New Roman,serif" font-size="14.00"> Score: 0.31</text>
<text text-anchor="start" x="2948.41" y="-169.98" font-family="Times New Roman,serif" font-size="14.00" fill="darkmagenta">45,5</text>
</g>
<!-- 9 -->
<g id="node19" class="node">
<title>9</title>
<ellipse fill="none" stroke="black" cx="918.09" cy="-560.4" rx="662.5" ry="18"/>
<text text-anchor="middle" x="918.09" y="-556.7" font-family="Times New Roman,serif" font-size="14.00">9. 1]right_subarray = arr[mid + 1:right + 1]i = 0j = 0k = left</text>
<text text-anchor="start" x="224.59" y="-584" font-family="Times New Roman,serif" font-size="14.00" fill="darkorange">12,73</text>
</g>
<!-- 8&#45;&gt;9 -->
<g id="edge24" class="edge">
<title>8&#45;&gt;9</title>
<path fill="none" stroke="blue" stroke-width="3.48" d="M441.15,-661.31C540.45,-640.51 719.33,-603.03 827.55,-580.37"/>
<polygon fill="blue" stroke="blue" stroke-width="3.48" points="828.4,-583.76 837.47,-578.29 826.97,-576.91 828.4,-583.76"/>
<text text-anchor="middle" x="824.59" y="-630.2" font-family="Times New Roman,serif" font-size="14.00">&quot;range(0, n, 2 * current_size)&quot;</text>
<text text-anchor="middle" x="824.59" y="-615.2" font-family="Times New Roman,serif" font-size="14.00">c[10]</text>
<text text-anchor="middle" x="824.59" y="-600.2" font-family="Times New Roman,serif" font-size="14.00"> Score: 0.62</text>
<text text-anchor="start" x="608.29" y="-623.6" font-family="Times New Roman,serif" font-size="14.00" fill="darkmagenta">12,73</text>
</g>
<!-- 10 -->
<g id="node20" class="node">
<title>10</title>
<ellipse fill="none" stroke="black" cx="112.09" cy="-560.4" rx="87.18" ry="18"/>
<text text-anchor="middle" x="112.09" y="-556.7" font-family="Times New Roman,serif" font-size="14.00">10. current_size *= 2</text>
<text text-anchor="start" x="0" y="-584" font-family="Times New Roman,serif" font-size="14.00" fill="darkorange">6,36</text>
</g>
<!-- 8&#45;&gt;10 -->
<g id="edge25" class="edge">
<title>8&#45;&gt;10</title>
<path fill="none" stroke="blue" stroke-width="2.8" d="M239.05,-666.93C198.68,-661.7 160.67,-653.67 145.09,-641.4 136.36,-634.52 126.69,-608.86 120.09,-588.43"/>
<polygon fill="blue" stroke="blue" stroke-width="2.8" points="123.36,-587.14 117.03,-578.64 116.68,-589.23 123.36,-587.14"/>
<text text-anchor="middle" x="179.09" y="-607.2" font-family="Times New Roman,serif" font-size="14.00"> Score: 0.45</text>
<text text-anchor="start" x="142.96" y="-656.3" font-family="Times New Roman,serif" font-size="14.00" fill="darkmagenta">6,36</text>
</g>
<!-- 11 -->
<g id="node21" class="node">
<title>11</title>
<ellipse fill="none" stroke="black" cx="918.09" cy="-457.4" rx="221.76" ry="18"/>
<text text-anchor="middle" x="918.09" y="-453.7" font-family="Times New Roman,serif" font-size="14.00">11. while i &lt; len(left_subarray) and j &lt; len(right_subarray):</text>
<text text-anchor="start" x="658.46" y="-481" font-family="Times New Roman,serif" font-size="14.00" fill="darkorange">22,138</text>
</g>
<!-- 9&#45;&gt;11 -->
<g id="edge26" class="edge">
<title>9&#45;&gt;11</title>
<path fill="none" stroke="blue" stroke-width="4.04" d="M918.09,-542.27C918.09,-526.81 918.09,-503.82 918.09,-485.81"/>
<polygon fill="blue" stroke="blue" stroke-width="4.04" points="921.63,-485.62 918.09,-475.62 914.56,-485.62 921.63,-485.62"/>
<text text-anchor="middle" x="952.09" y="-497.2" font-family="Times New Roman,serif" font-size="14.00"> Score: 0.76</text>
<text text-anchor="start" x="887.09" y="-512.72" font-family="Times New Roman,serif" font-size="14.00" fill="darkmagenta">12,73</text>
</g>
<!-- 10&#45;&gt;2 -->
<g id="edge40" class="edge">
<title>10&#45;&gt;2</title>
<path fill="none" stroke="blue" stroke-width="4.04" d="M111.85,-578.55C111.55,-601.02 111.09,-641.66 111.09,-676.4 111.09,-898.4 111.09,-898.4 111.09,-898.4 111.09,-980.22 1354.43,-1005.91 1737.26,-1011.88"/>
<polygon fill="blue" stroke="blue" stroke-width="4.04" points="1737.46,-1015.42 1747.51,-1012.04 1737.57,-1008.35 1737.46,-1015.42"/>
<text text-anchor="middle" x="145.09" y="-768.7" font-family="Times New Roman,serif" font-size="14.00"> Score: 0.76</text>
<text text-anchor="start" x="755.61" y="-987.38" font-family="Times New Roman,serif" font-size="14.00" fill="darkmagenta">6,36</text>
</g>
<!-- 12 -->
<g id="node22" class="node">
<title>12</title>
<ellipse fill="none" stroke="black" cx="918.09" cy="-340.4" rx="190" ry="18"/>
<text text-anchor="middle" x="918.09" y="-336.7" font-family="Times New Roman,serif" font-size="14.00">12. </text>
<text text-anchor="start" x="728.09" y="-262.6" font-family="Times New Roman,serif" font-size="14.00" fill="darkorange">10,65</text>
</g>
<!-- 11&#45;&gt;12 -->
<g id="edge27" class="edge">
<title>11&#45;&gt;12</title>
<path fill="none" stroke="blue" stroke-width="3.12" d="M918.09,-438.93C918.09,-420.34 918.09,-390.64 918.09,-368.9"/>
<polygon fill="blue" stroke="blue" stroke-width="3.12" points="921.59,-368.65 918.09,-358.65 914.59,-368.65 921.59,-368.65"/>
<text text-anchor="middle" x="1058.09" y="-410.2" font-family="Times New Roman,serif" font-size="14.00">&quot;i &lt; len(left_subarray) and j &lt; len(right_subarray)&quot;</text>
<text text-anchor="middle" x="1058.09" y="-395.2" font-family="Times New Roman,serif" font-size="14.00">c[11]</text>
<text text-anchor="middle" x="1058.09" y="-380.2" font-family="Times New Roman,serif" font-size="14.00"> Score: 0.53</text>
<text text-anchor="start" x="887.09" y="-402.45" font-family="Times New Roman,serif" font-size="14.00" fill="darkmagenta">10,65</text>
</g>
<!-- 13 -->
<g id="node23" class="node">
<title>13</title>
<ellipse fill="none" stroke="black" cx="529.09" cy="-340.4" rx="122.68" ry="18"/>
<text text-anchor="middle" x="529.09" y="-336.7" font-family="Times New Roman,serif" font-size="14.00">13. while i &lt; len(left_subarray):</text>
<text text-anchor="start" x="368.25" y="-364" font-family="Times New Roman,serif" font-size="14.00" fill="darkorange">16,128</text>
</g>
<!-- 11&#45;&gt;13 -->
<g id="edge28" class="edge">
<title>11&#45;&gt;13</title>
<path fill="none" stroke="blue" stroke-width="3.2" d="M728.45,-448.03C671.91,-442.92 618.51,-434.68 594.09,-421.4 571.63,-409.19 554,-385.69 542.8,-367.31"/>
<polygon fill="blue" stroke="blue" stroke-width="3.2" points="545.73,-365.39 537.68,-358.51 539.68,-368.91 545.73,-365.39"/>
<text text-anchor="middle" x="754.09" y="-402.7" font-family="Times New Roman,serif" font-size="14.00">&quot;(not (i &lt; len(left_subarray) and j &lt; len(right_subarray)))&quot;</text>
<text text-anchor="middle" x="754.09" y="-387.7" font-family="Times New Roman,serif" font-size="14.00"> Score: 0.55</text>
<text text-anchor="start" x="594.63" y="-436.47" font-family="Times New Roman,serif" font-size="14.00" fill="darkmagenta">12,73</text>
</g>
<!-- 14 -->
<g id="node24" class="node">
<title>14</title>
<ellipse fill="none" stroke="black" cx="1255.09" cy="-223.4" rx="157.5" ry="18"/>
<text text-anchor="middle" x="1255.09" y="-219.7" font-family="Times New Roman,serif" font-size="14.00">14. </text>
<text text-anchor="start" x="1097.59" y="-145.6" font-family="Times New Roman,serif" font-size="14.00" fill="darkorange">10,40</text>
</g>
<!-- 12&#45;&gt;14 -->
<g id="edge29" class="edge">
<title>12&#45;&gt;14</title>
<path fill="none" stroke="blue" stroke-width="3.16" d="M1049.89,-327.38C1078.6,-322.24 1108.36,-314.89 1135.09,-304.4 1144.59,-300.67 1190.61,-269.28 1222.81,-246.95"/>
<polygon fill="blue" stroke="blue" stroke-width="3.16" points="1224.86,-249.79 1231.08,-241.21 1220.87,-244.04 1224.86,-249.79"/>
<text text-anchor="middle" x="1310.09" y="-293.2" font-family="Times New Roman,serif" font-size="14.00">&quot;left_subarray[i] &lt;= right_subarray[j]&quot;</text>
<text text-anchor="middle" x="1310.09" y="-278.2" font-family="Times New Roman,serif" font-size="14.00">c[12]</text>
<text text-anchor="middle" x="1310.09" y="-263.2" font-family="Times New Roman,serif" font-size="14.00"> Score: 0.54</text>
<text text-anchor="start" x="1147.99" y="-300.97" font-family="Times New Roman,serif" font-size="14.00" fill="darkmagenta">10,40</text>
</g>
<!-- 16 -->
<g id="node25" class="node">
<title>16</title>
<ellipse fill="none" stroke="black" cx="917.09" cy="-223.4" rx="162" ry="18"/>
<text text-anchor="middle" x="917.09" y="-219.7" font-family="Times New Roman,serif" font-size="14.00">16. </text>
<text text-anchor="start" x="730.09" y="-145.6" font-family="Times New Roman,serif" font-size="14.00" fill="darkorange">0,25</text>
</g>
<!-- 12&#45;&gt;16 -->
<g id="edge30" class="edge">
<title>12&#45;&gt;16</title>
<path fill="none" stroke="red" stroke-width="5" d="M917.94,-321.93C917.78,-303.34 917.52,-273.64 917.33,-251.9"/>
<polygon fill="red" stroke="red" stroke-width="5" points="921.7,-251.62 917.24,-241.65 912.95,-251.69 921.7,-251.62"/>
<text text-anchor="middle" x="1024.09" y="-293.2" font-family="Times New Roman,serif" font-size="14.00">&quot;(left_subarray[i] &gt; right_subarray[j])&quot;</text>
<text text-anchor="middle" x="1024.09" y="-278.2" font-family="Times New Roman,serif" font-size="14.00">c[13]</text>
<text text-anchor="middle" x="1024.09" y="-263.2" font-family="Times New Roman,serif" font-size="14.00"> Score: 1</text>
<text text-anchor="start" x="892.59" y="-285.45" font-family="Times New Roman,serif" font-size="14.00" fill="darkmagenta">0,25</text>
</g>
<!-- 17 -->
<g id="node27" class="node">
<title>17</title>
<ellipse fill="none" stroke="black" cx="555.09" cy="-223.4" rx="181.5" ry="18"/>
<text text-anchor="middle" x="555.09" y="-219.7" font-family="Times New Roman,serif" font-size="14.00">17. </text>
<text text-anchor="start" x="684.97" y="-145.6" font-family="Times New Roman,serif" font-size="14.00" fill="darkorange">4,55</text>
</g>
<!-- 13&#45;&gt;17 -->
<g id="edge34" class="edge">
<title>13&#45;&gt;17</title>
<path fill="none" stroke="blue" stroke-width="3.24" d="M567.61,-323.25C575.01,-318.32 581.78,-312.1 586.09,-304.4 595.86,-286.95 593.18,-278.1 586.09,-259.4 584.82,-256.03 583.05,-252.78 581.01,-249.71"/>
<polygon fill="blue" stroke="blue" stroke-width="3.24" points="583.58,-247.31 574.67,-241.57 578.05,-251.61 583.58,-247.31"/>
<text text-anchor="middle" x="656.59" y="-293.2" font-family="Times New Roman,serif" font-size="14.00">&quot;i &lt; len(left_subarray)&quot;</text>
<text text-anchor="middle" x="656.59" y="-278.2" font-family="Times New Roman,serif" font-size="14.00">c[14]</text>
<text text-anchor="middle" x="656.59" y="-263.2" font-family="Times New Roman,serif" font-size="14.00"> Score: 0.56</text>
<text text-anchor="start" x="567.42" y="-286.33" font-family="Times New Roman,serif" font-size="14.00" fill="darkmagenta">4,55</text>
</g>
<!-- 18 -->
<g id="node28" class="node">
<title>18</title>
<ellipse fill="none" stroke="black" cx="227.09" cy="-223.4" rx="128.08" ry="18"/>
<text text-anchor="middle" x="227.09" y="-219.7" font-family="Times New Roman,serif" font-size="14.00">18. while j &lt; len(right_subarray):</text>
<text text-anchor="start" x="61.05" y="-247" font-family="Times New Roman,serif" font-size="14.00" fill="darkorange">22,112</text>
</g>
<!-- 13&#45;&gt;18 -->
<g id="edge35" class="edge">
<title>13&#45;&gt;18</title>
<path fill="none" stroke="blue" stroke-width="3.2" d="M446.81,-326.9C420.52,-321.55 391.62,-314.21 366.09,-304.4 327.4,-289.53 286.69,-264.9 259.41,-246.89"/>
<polygon fill="blue" stroke="blue" stroke-width="3.2" points="261.3,-243.94 251.04,-241.29 257.41,-249.76 261.3,-243.94"/>
<text text-anchor="middle" x="439.09" y="-285.7" font-family="Times New Roman,serif" font-size="14.00">&quot;(i &gt;= len(left_subarray))&quot;</text>
<text text-anchor="middle" x="439.09" y="-270.7" font-family="Times New Roman,serif" font-size="14.00"> Score: 0.55</text>
<text text-anchor="start" x="312.76" y="-298.7" font-family="Times New Roman,serif" font-size="14.00" fill="darkmagenta">12,73</text>
</g>
<!-- 15 -->
<g id="node26" class="node">
<title>15</title>
<ellipse fill="none" stroke="black" cx="1255.09" cy="-106.4" rx="48.99" ry="18"/>
<text text-anchor="middle" x="1255.09" y="-102.7" font-family="Times New Roman,serif" font-size="14.00">15. k += 1</text>
<text text-anchor="start" x="1175.35" y="-28.6" font-family="Times New Roman,serif" font-size="14.00" fill="darkorange">10,65</text>
</g>
<!-- 14&#45;&gt;15 -->
<g id="edge31" class="edge">
<title>14&#45;&gt;15</title>
<path fill="none" stroke="blue" stroke-width="3.92" d="M1255.09,-204.93C1255.09,-186.34 1255.09,-156.64 1255.09,-134.9"/>
<polygon fill="blue" stroke="blue" stroke-width="3.92" points="1258.59,-134.65 1255.09,-124.65 1251.59,-134.65 1258.59,-134.65"/>
<text text-anchor="middle" x="1289.09" y="-153.2" font-family="Times New Roman,serif" font-size="14.00"> Score: 0.73</text>
<text text-anchor="start" x="1224.09" y="-168.45" font-family="Times New Roman,serif" font-size="14.00" fill="darkmagenta">10,40</text>
</g>
<!-- 16&#45;&gt;15 -->
<g id="edge33" class="edge">
<title>16&#45;&gt;15</title>
<path fill="none" stroke="red" stroke-width="5" d="M964.8,-206.17C1030.27,-183.89 1147.05,-144.16 1210.72,-122.5"/>
<polygon fill="red" stroke="red" stroke-width="5" points="1212.41,-126.54 1220.47,-119.18 1209.59,-118.26 1212.41,-126.54"/>
<text text-anchor="middle" x="1170.59" y="-153.2" font-family="Times New Roman,serif" font-size="14.00"> Score: 1</text>
<text text-anchor="start" x="1067.69" y="-166.46" font-family="Times New Roman,serif" font-size="14.00" fill="darkmagenta">0,25</text>
</g>
<!-- 15&#45;&gt;11 -->
<g id="edge32" class="edge">
<title>15&#45;&gt;11</title>
<path fill="none" stroke="blue" stroke-width="4.08" d="M1293.82,-117.34C1334.44,-130.11 1395.94,-156.68 1422.09,-205.4 1442.91,-244.19 1442.55,-267.15 1419.09,-304.4 1360.71,-397.12 1306.49,-388.13 1202.09,-421.4 1169.35,-431.84 1133.57,-439.19 1098.78,-444.36"/>
<polygon fill="blue" stroke="blue" stroke-width="4.08" points="1097.9,-440.88 1088.51,-445.83 1098.91,-447.95 1097.9,-440.88"/>
<text text-anchor="middle" x="1470.09" y="-270.2" font-family="Times New Roman,serif" font-size="14.00"> Score: 0.77</text>
<text text-anchor="start" x="1171.09" y="-425.2" font-family="Times New Roman,serif" font-size="14.00" fill="darkmagenta">10,65</text>
</g>
<!-- 17&#45;&gt;13 -->
<g id="edge36" class="edge">
<title>17&#45;&gt;13</title>
<path fill="none" stroke="blue" stroke-width="4.2" d="M533.3,-241.64C528.35,-246.77 523.77,-252.81 521.09,-259.4 514.29,-276.16 516.43,-296.46 520.19,-312.41"/>
<polygon fill="blue" stroke="blue" stroke-width="4.2" points="516.68,-313.49 522.83,-322.19 523.77,-311.58 516.68,-313.49"/>
<text text-anchor="middle" x="551.59" y="-270.2" font-family="Times New Roman,serif" font-size="14.00"> Score: 0.8</text>
<text text-anchor="start" x="504.22" y="-270.28" font-family="Times New Roman,serif" font-size="14.00" fill="darkmagenta">4,55</text>
</g>
<!-- 18&#45;&gt;8 -->
<g id="edge37" class="edge">
<title>18&#45;&gt;8</title>
<path fill="none" stroke="blue" stroke-width="3.52" d="M227.09,-241.55C227.09,-264.02 227.09,-304.66 227.09,-339.4 227.09,-561.4 227.09,-561.4 227.09,-561.4 227.09,-607.22 272.29,-637.94 311.68,-656.02"/>
<polygon fill="blue" stroke="blue" stroke-width="3.52" points="310.45,-659.3 321.02,-660.12 313.27,-652.89 310.45,-659.3"/>
<text text-anchor="middle" x="304.09" y="-461.2" font-family="Times New Roman,serif" font-size="14.00">&quot;(j &gt;= len(right_subarray))&quot;</text>
<text text-anchor="middle" x="304.09" y="-446.2" font-family="Times New Roman,serif" font-size="14.00"> Score: 0.63</text>
<text text-anchor="start" x="196.09" y="-522.45" font-family="Times New Roman,serif" font-size="14.00" fill="darkmagenta">12,73</text>
</g>
<!-- 19 -->
<g id="node29" class="node">
<title>19</title>
<ellipse fill="none" stroke="black" cx="228.09" cy="-106.4" rx="186.5" ry="18"/>
<text text-anchor="middle" x="228.09" y="-102.7" font-family="Times New Roman,serif" font-size="14.00">19. </text>
<text text-anchor="start" x="10.59" y="-130" font-family="Times New Roman,serif" font-size="14.00" fill="darkorange">10,39</text>
</g>
<!-- 18&#45;&gt;19 -->
<g id="edge38" class="edge">
<title>18&#45;&gt;19</title>
<path fill="none" stroke="blue" stroke-width="2.72" d="M241.8,-205.33C245.58,-199.94 249.13,-193.73 251.09,-187.4 257.01,-168.3 256.82,-161.56 251.09,-142.4 250.18,-139.36 248.92,-136.35 247.44,-133.43"/>
<polygon fill="blue" stroke="blue" stroke-width="2.72" points="250.3,-131.38 242.2,-124.56 244.27,-134.95 250.3,-131.38"/>
<text text-anchor="middle" x="323.09" y="-176.2" font-family="Times New Roman,serif" font-size="14.00">&quot;j &lt; len(right_subarray)&quot;</text>
<text text-anchor="middle" x="323.09" y="-161.2" font-family="Times New Roman,serif" font-size="14.00">c[15]</text>
<text text-anchor="middle" x="323.09" y="-146.2" font-family="Times New Roman,serif" font-size="14.00"> Score: 0.43</text>
<text text-anchor="start" x="224.46" y="-169.02" font-family="Times New Roman,serif" font-size="14.00" fill="darkmagenta">10,39</text>
</g>
<!-- 19&#45;&gt;18 -->
<g id="edge39" class="edge">
<title>19&#45;&gt;18</title>
<path fill="none" stroke="blue" stroke-width="3.92" d="M195.13,-124.31C188.68,-129.22 182.78,-135.24 179.09,-142.4 169.94,-160.18 170.03,-169.57 179.09,-187.4 181.31,-191.77 184.36,-195.72 187.86,-199.26"/>
<polygon fill="blue" stroke="blue" stroke-width="3.92" points="185.69,-202.01 195.53,-205.95 190.29,-196.74 185.69,-202.01"/>
<text text-anchor="middle" x="213.09" y="-153.2" font-family="Times New Roman,serif" font-size="14.00"> Score: 0.73</text>
<text text-anchor="start" x="141.29" y="-169.96" font-family="Times New Roman,serif" font-size="14.00" fill="darkmagenta">10,39</text>
</g>
</g>
</svg>
