<?xml version="1.0" encoding="UTF-8" standalone="no"?>
<!DOCTYPE svg PUBLIC "-//W3C//DTD SVG 1.1//EN"
 "http://www.w3.org/Graphics/SVG/1.1/DTD/svg11.dtd">
<!-- Generated by graphviz version 2.46.0 (20210118.1747)
 -->
<!-- Title: clustersortMultipleArrays Pages: 1 -->
<svg width="398pt" height="307pt"
 viewBox="0.00 0.00 397.64 307.40" xmlns="http://www.w3.org/2000/svg" xmlns:xlink="http://www.w3.org/1999/xlink">
<g id="graph0" class="graph" transform="scale(1 1) rotate(0) translate(4 303.4)">
<title>clustersortMultipleArrays</title>
<polygon fill="white" stroke="transparent" points="-4,4 -4,-303.4 393.64,-303.4 393.64,4 -4,4"/>
<text text-anchor="middle" x="194.82" y="-7.8" font-family="Times New Roman,serif" font-size="14.00">sortMultipleArrays</text>
<!-- 1 -->
<g id="node1" class="node">
<title>1</title>
<ellipse fill="none" stroke="black" cx="178" cy="-216" rx="50" ry="18"/>
<text text-anchor="middle" x="178" y="-212.3" font-family="Times New Roman,serif" font-size="14.00">1. </text>
<text text-anchor="start" x="110" y="-239.6" font-family="Times New Roman,serif" font-size="14.00" fill="darkorange">0,0</text>
</g>
<!-- 2 -->
<g id="node2" class="node">
<title>2</title>
<ellipse fill="none" stroke="black" cx="178" cy="-143" rx="86.38" ry="18"/>
<text text-anchor="middle" x="178" y="-139.3" font-family="Times New Roman,serif" font-size="14.00">2. for array in arrays:</text>
<text text-anchor="start" x="73.56" y="-166.6" font-family="Times New Roman,serif" font-size="14.00" fill="darkorange">0,0</text>
</g>
<!-- 1&#45;&gt;2 -->
<g id="edge1" class="edge">
<title>1&#45;&gt;2</title>
<path fill="none" stroke="black" d="M178,-197.81C178,-189.79 178,-180.05 178,-171.07"/>
<polygon fill="black" stroke="black" points="181.5,-171.03 178,-161.03 174.5,-171.03 181.5,-171.03"/>
<text text-anchor="start" x="160" y="-183" font-family="Times New Roman,serif" font-size="14.00" fill="darkmagenta">0,0</text>
</g>
<!-- 3 -->
<g id="node3" class="node">
<title>3</title>
<ellipse fill="none" stroke="black" cx="129" cy="-41" rx="111" ry="18"/>
<text text-anchor="middle" x="129" y="-37.3" font-family="Times New Roman,serif" font-size="14.00">3. </text>
<text text-anchor="start" x="0" y="-64.6" font-family="Times New Roman,serif" font-size="14.00" fill="darkorange">0,0</text>
</g>
<!-- 2&#45;&gt;3 -->
<g id="edge2" class="edge">
<title>2&#45;&gt;3</title>
<path fill="none" stroke="black" d="M147.01,-125.88C140.21,-120.8 133.89,-114.51 130,-107 124.06,-95.53 123.23,-81.32 124.13,-69.12"/>
<polygon fill="black" stroke="black" points="127.62,-69.36 125.28,-59.03 120.67,-68.56 127.62,-69.36"/>
<text text-anchor="middle" x="147" y="-95.8" font-family="Times New Roman,serif" font-size="14.00">arrays</text>
<text text-anchor="middle" x="147" y="-80.8" font-family="Times New Roman,serif" font-size="14.00">c[16]</text>
<text text-anchor="start" x="107.68" y="-98.79" font-family="Times New Roman,serif" font-size="14.00" fill="darkmagenta">0,0</text>
</g>
<!-- 4 -->
<g id="node4" class="node">
<title>4</title>
<ellipse fill="none" stroke="black" cx="324" cy="-41" rx="65.79" ry="18"/>
<text text-anchor="middle" x="324" y="-37.3" font-family="Times New Roman,serif" font-size="14.00">4. return arrays</text>
<text text-anchor="start" x="240.36" y="-28.6" font-family="Times New Roman,serif" font-size="14.00" fill="darkorange">0,0</text>
</g>
<!-- 2&#45;&gt;4 -->
<g id="edge3" class="edge">
<title>2&#45;&gt;4</title>
<path fill="none" stroke="black" d="M202.11,-125.49C226.81,-108.57 265.34,-82.18 292.45,-63.61"/>
<polygon fill="black" stroke="black" points="294.55,-66.41 300.82,-57.88 290.59,-60.64 294.55,-66.41"/>
<text text-anchor="start" x="233.67" y="-95.34" font-family="Times New Roman,serif" font-size="14.00" fill="darkmagenta">0,0</text>
</g>
<!-- 3&#45;&gt;2 -->
<g id="edge4" class="edge">
<title>3&#45;&gt;2</title>
<path fill="none" stroke="black" d="M149.76,-58.86C155.12,-64.15 160.38,-70.36 164,-77 170.28,-88.53 173.74,-102.63 175.65,-114.76"/>
<polygon fill="black" stroke="black" points="172.2,-115.33 176.96,-124.79 179.14,-114.42 172.2,-115.33"/>
<text text-anchor="start" x="169.53" y="-93.42" font-family="Times New Roman,serif" font-size="14.00" fill="darkmagenta">0,0</text>
</g>
</g>
</svg>
