<?xml version="1.0" encoding="UTF-8" standalone="no"?>
<!DOCTYPE svg PUBLIC "-//W3C//DTD SVG 1.1//EN"
 "http://www.w3.org/Graphics/SVG/1.1/DTD/svg11.dtd">
<!-- Generated by graphviz version 10.0.1 (20240210.2158)
 -->
<!-- Pages: 1 -->
<svg width="278pt" height="136pt"
 viewBox="0.00 0.00 277.76 135.86" xmlns="http://www.w3.org/2000/svg" xmlns:xlink="http://www.w3.org/1999/xlink">
<g id="graph0" class="graph" transform="scale(1 1) rotate(0) translate(4 131.86)">
<polygon fill="white" stroke="none" points="-4,4 -4,-131.86 273.76,-131.86 273.76,4 -4,4"/>
<!-- equilateral_area.equilateral_area -->
<g id="node1" class="node">
<title>equilateral_area.equilateral_area</title>
<g id="a_node1"><a xlink:href="fault_report.html#equilateral_area" xlink:title="equilateral_area.equilateral_area\nMax Score: 0.62">
<ellipse fill="none" stroke="red" stroke-width="2" cx="134.88" cy="-99.93" rx="134.88" ry="27.93"/>
<text text-anchor="middle" x="134.88" y="-102.38" font-family="Times New Roman,serif" font-size="14.00">equilateral_area.equilateral_area</text>
<text text-anchor="middle" x="134.88" y="-86.63" font-family="Times New Roman,serif" font-size="14.00">Max Score: 0.62</text>
</a>
</g>
</g>
<!-- math.pow -->
<g id="node2" class="node">
<title>math.pow</title>
<g id="a_node2"><a xlink:href="fault_report.html#pow" xlink:title="math.pow">
<ellipse fill="none" stroke="black" stroke-width="2" cx="79.88" cy="-18" rx="47.57" ry="18"/>
<text text-anchor="middle" x="79.88" y="-12.57" font-family="Times New Roman,serif" font-size="14.00">math.pow</text>
</a>
</g>
</g>
<!-- equilateral_area.equilateral_area&#45;&gt;math.pow -->
<g id="edge1" class="edge">
<title>equilateral_area.equilateral_area&#45;&gt;math.pow</title>
<path fill="none" stroke="black" d="M115.95,-71.42C110.15,-62.98 103.77,-53.72 98.02,-45.36"/>
<polygon fill="black" stroke="black" points="101.03,-43.57 92.48,-37.31 95.27,-47.53 101.03,-43.57"/>
</g>
<!-- math.sqrt -->
<g id="node3" class="node">
<title>math.sqrt</title>
<g id="a_node3"><a xlink:href="fault_report.html#sqrt" xlink:title="math.sqrt">
<ellipse fill="none" stroke="black" stroke-width="2" cx="190.88" cy="-18" rx="45.57" ry="18"/>
<text text-anchor="middle" x="190.88" y="-12.57" font-family="Times New Roman,serif" font-size="14.00">math.sqrt</text>
</a>
</g>
</g>
<!-- equilateral_area.equilateral_area&#45;&gt;math.sqrt -->
<g id="edge2" class="edge">
<title>equilateral_area.equilateral_area&#45;&gt;math.sqrt</title>
<path fill="none" stroke="black" d="M154.15,-71.42C160.07,-62.98 166.55,-53.72 172.41,-45.36"/>
<polygon fill="black" stroke="black" points="175.19,-47.5 178.06,-37.3 169.45,-43.49 175.19,-47.5"/>
</g>
</g>
</svg>
