<?xml version="1.0" encoding="UTF-8" standalone="no"?>
<!DOCTYPE svg PUBLIC "-//W3C//DTD SVG 1.1//EN"
 "http://www.w3.org/Graphics/SVG/1.1/DTD/svg11.dtd">
<!-- Generated by graphviz version 10.0.1 (20240210.2158)
 -->
<!-- Title: clusterequilateral_area Pages: 1 -->
<svg width="377pt" height="335pt"
 viewBox="0.00 0.00 377.31 335.27" xmlns="http://www.w3.org/2000/svg" xmlns:xlink="http://www.w3.org/1999/xlink">
<g id="graph0" class="graph" transform="scale(1 1) rotate(0) translate(4 331.27)">
<title>clusterequilateral_area</title>
<polygon fill="white" stroke="none" points="-4,4 -4,-331.27 373.31,-331.27 373.31,4 -4,4"/>
<text text-anchor="middle" x="184.66" y="-5.75" font-family="Times New Roman,serif" font-size="10.00">equilateral_area</text>
<!-- 1 -->
<g id="node1" class="node">
<title>1</title>
<ellipse fill="none" stroke="black" cx="131.76" cy="-276.95" rx="105.18" ry="39.07"/>
<text text-anchor="middle" x="131.76" y="-278.7" font-family="Times New Roman,serif" font-size="10.00">1. const = math.sqrt(3) / 4</text>
<text text-anchor="middle" x="131.76" y="-267.45" font-family="Times New Roman,serif" font-size="10.00">if side == 1:</text>
<text text-anchor="start" x="6.33" y="-306.52" font-family="Times New Roman,serif" font-size="10.00" fill="darkorange">10,10</text>
</g>
<!-- 2 -->
<g id="node2" class="node">
<title>2</title>
<ellipse fill="none" stroke="black" cx="69.76" cy="-131.32" rx="58.51" ry="27.93"/>
<text text-anchor="middle" x="69.76" y="-127.44" font-family="Times New Roman,serif" font-size="10.00">2. return const</text>
<text text-anchor="start" x="0" y="-149.75" font-family="Times New Roman,serif" font-size="10.00" fill="darkorange">2,0</text>
</g>
<!-- 1&#45;&gt;2 -->
<g id="edge1" class="edge">
<title>1&#45;&gt;2</title>
<path fill="none" stroke="#429e6a" d="M115.47,-238.21C106.31,-216.98 94.91,-190.57 85.79,-169.44"/>
<polygon fill="#429e6a" stroke="#429e6a" points="89.03,-168.11 81.85,-160.31 82.6,-170.88 89.03,-168.11"/>
<text text-anchor="middle" x="124.89" y="-207.03" font-family="Times New Roman,serif" font-size="8.00">&quot;side == 1&quot;</text>
<text text-anchor="middle" x="124.89" y="-196.53" font-family="Times New Roman,serif" font-size="8.00">c[1]</text>
<text text-anchor="start" x="71.45" y="-191.17" font-family="Times New Roman,serif" font-size="8.00" fill="darkmagenta"> &#160;&#160;&#160;&#160;2,0 &#160;</text>
</g>
<!-- 4 -->
<g id="node3" class="node">
<title>4</title>
<ellipse fill="none" stroke="black" cx="257.76" cy="-131.32" rx="111.55" ry="39.07"/>
<text text-anchor="middle" x="257.76" y="-133.07" font-family="Times New Roman,serif" font-size="10.00">4. term = math.pow(side, 2)</text>
<text text-anchor="middle" x="257.76" y="-121.82" font-family="Times New Roman,serif" font-size="10.00">area = const + term</text>
<text text-anchor="start" x="130.47" y="-160.88" font-family="Times New Roman,serif" font-size="10.00" fill="darkorange">8,10</text>
</g>
<!-- 1&#45;&gt;4 -->
<g id="edge2" class="edge">
<title>1&#45;&gt;4</title>
<path fill="none" stroke="blue" stroke-width="5" d="M163.89,-239.33C179.44,-221.61 198.32,-200.08 215.06,-180.99"/>
<polygon fill="blue" stroke="blue" stroke-width="5" points="218.28,-183.96 221.59,-173.56 211.71,-178.19 218.28,-183.96"/>
<text text-anchor="middle" x="227.51" y="-212.28" font-family="Times New Roman,serif" font-size="8.00">&quot;(side != 1)&quot;</text>
<text text-anchor="middle" x="227.51" y="-201.78" font-family="Times New Roman,serif" font-size="8.00">c[2]</text>
<text text-anchor="middle" x="227.51" y="-191.28" font-family="Times New Roman,serif" font-size="8.00"> &#160;Score: 0.62</text>
<text text-anchor="start" x="163.29" y="-196.51" font-family="Times New Roman,serif" font-size="8.00" fill="darkmagenta"> &#160;&#160;&#160;&#160;8,10 &#160;</text>
</g>
<!-- 3 -->
<g id="node4" class="node">
<title>3</title>
<ellipse fill="none" stroke="black" cx="257.76" cy="-37.25" rx="49.57" ry="18"/>
<text text-anchor="middle" x="257.76" y="-33.38" font-family="Times New Roman,serif" font-size="10.00">3. return area</text>
<text text-anchor="start" x="192.45" y="-45.75" font-family="Times New Roman,serif" font-size="10.00" fill="darkorange">8,10</text>
</g>
<!-- 4&#45;&gt;3 -->
<g id="edge3" class="edge">
<title>4&#45;&gt;3</title>
<path fill="none" stroke="blue" d="M257.76,-91.81C257.76,-83.43 257.76,-74.71 257.76,-66.8"/>
<polygon fill="blue" stroke="blue" points="261.26,-67.08 257.76,-57.08 254.26,-67.08 261.26,-67.08"/>
<text text-anchor="start" x="226.26" y="-66.04" font-family="Times New Roman,serif" font-size="8.00" fill="darkmagenta"> &#160;&#160;&#160;&#160;8,10 &#160;</text>
</g>
</g>
</svg>
