<?xml version="1.0" encoding="UTF-8" standalone="no"?>
<!DOCTYPE svg PUBLIC "-//W3C//DTD SVG 1.1//EN"
 "http://www.w3.org/Graphics/SVG/1.1/DTD/svg11.dtd">
<!-- Generated by graphviz version 10.0.1 (20240210.2158)
 -->
<!-- Title: clusterdisplay_type_code Pages: 1 -->
<svg width="146pt" height="242pt"
 viewBox="0.00 0.00 146.49 242.47" xmlns="http://www.w3.org/2000/svg" xmlns:xlink="http://www.w3.org/1999/xlink">
<g id="graph0" class="graph" transform="scale(1 1) rotate(0) translate(4 238.47)">
<title>clusterdisplay_type_code</title>
<polygon fill="white" stroke="none" points="-4,4 -4,-238.47 142.49,-238.47 142.49,4 -4,4"/>
<text text-anchor="middle" x="69.25" y="-6.45" font-family="Times New Roman,serif" font-size="14.00">display_type_code</text>
<!-- 1 -->
<g id="node1" class="node">
<title>1</title>
<ellipse fill="none" stroke="black" cx="70.99" cy="-190.79" rx="53.74" ry="27.93"/>
<text text-anchor="middle" x="70.99" y="-185.37" font-family="Times New Roman,serif" font-size="14.00">1. if n:</text>
<text text-anchor="start" x="0" y="-205.42" font-family="Times New Roman,serif" font-size="14.00" fill="darkorange">2,4</text>
</g>
<!-- 2 -->
<g id="node2" class="node">
<title>2</title>
<ellipse fill="none" stroke="black" cx="70.99" cy="-51.68" rx="48.97" ry="27.93"/>
<text text-anchor="middle" x="70.99" y="-46.26" font-family="Times New Roman,serif" font-size="14.00">2. return n</text>
<text text-anchor="start" x="4.77" y="-66.31" font-family="Times New Roman,serif" font-size="14.00" fill="darkorange">2,4</text>
</g>
<!-- 1&#45;&gt;2 -->
<g id="edge1" class="edge">
<title>1&#45;&gt;2</title>
<path fill="none" stroke="blue" stroke-width="5" d="M70.99,-162.37C70.99,-143.41 70.99,-117.79 70.99,-96.07"/>
<polygon fill="blue" stroke="blue" stroke-width="5" points="75.37,-96.29 70.99,-86.29 66.62,-96.29 75.37,-96.29"/>
<text text-anchor="middle" x="104.74" y="-131.56" font-family="Times New Roman,serif" font-size="14.00">n</text>
<text text-anchor="middle" x="104.74" y="-115.81" font-family="Times New Roman,serif" font-size="14.00">c[1]</text>
<text text-anchor="middle" x="104.74" y="-100.06" font-family="Times New Roman,serif" font-size="14.00"> Score: 0.72</text>
<polygon fill="white" stroke="none" points="39.99,-123.05 39.99,-146.8 68.99,-146.8 68.99,-123.05 39.99,-123.05"/>
<text text-anchor="start" x="43.99" y="-129.5" font-family="Times New Roman,serif" font-size="14.00" fill="darkmagenta">2, 4</text>
</g>
</g>
</svg>
