<?xml version="1.0" encoding="UTF-8" standalone="no"?>
<!DOCTYPE svg PUBLIC "-//W3C//DTD SVG 1.1//EN"
 "http://www.w3.org/Graphics/SVG/1.1/DTD/svg11.dtd">
<!-- Generated by graphviz version 10.0.1 (20240210.2158)
 -->
<!-- Title: clusteris_side_two_equal_three Pages: 1 -->
<svg width="400pt" height="346pt"
 viewBox="0.00 0.00 400.15 346.22" xmlns="http://www.w3.org/2000/svg" xmlns:xlink="http://www.w3.org/1999/xlink">
<g id="graph0" class="graph" transform="scale(1 1) rotate(0) translate(4 342.22)">
<title>clusteris_side_two_equal_three</title>
<polygon fill="white" stroke="none" points="-4,4 -4,-342.22 396.15,-342.22 396.15,4 -4,4"/>
<text text-anchor="middle" x="196.08" y="-6.45" font-family="Times New Roman,serif" font-size="14.00">is_side_two_equal_three</text>
<!-- 1 -->
<g id="node1" class="node">
<title>1</title>
<ellipse fill="none" stroke="black" cx="218.4" cy="-294.54" rx="85.03" ry="27.93"/>
<text text-anchor="middle" x="218.4" y="-289.12" font-family="Times New Roman,serif" font-size="14.00">1. if type_code &gt;= 0:</text>
<text text-anchor="start" x="116.12" y="-309.17" font-family="Times New Roman,serif" font-size="14.00" fill="darkorange">0,4</text>
</g>
<!-- 2 -->
<g id="node2" class="node">
<title>2</title>
<ellipse fill="none" stroke="black" cx="139.4" cy="-155.43" rx="122.15" ry="27.93"/>
<text text-anchor="middle" x="139.4" y="-150.01" font-family="Times New Roman,serif" font-size="14.00">2. type_code = type_code + 3</text>
<text text-anchor="start" x="0" y="-170.06" font-family="Times New Roman,serif" font-size="14.00" fill="darkorange">0,4</text>
</g>
<!-- 1&#45;&gt;2 -->
<g id="edge1" class="edge">
<title>1&#45;&gt;2</title>
<path fill="none" stroke="red" stroke-width="5" d="M194.89,-267.32C190.12,-261.38 185.36,-254.95 181.4,-248.61 171.64,-232.98 162.83,-214.7 155.83,-198.56"/>
<polygon fill="red" stroke="red" stroke-width="5" points="159.88,-196.9 151.99,-189.36 151.81,-200.27 159.88,-196.9"/>
<text text-anchor="middle" x="232.4" y="-235.31" font-family="Times New Roman,serif" font-size="14.00">&quot;type_code &gt;= 0&quot;</text>
<text text-anchor="middle" x="232.4" y="-219.56" font-family="Times New Roman,serif" font-size="14.00">c[2]</text>
<text text-anchor="middle" x="232.4" y="-203.81" font-family="Times New Roman,serif" font-size="14.00"> Score: 1.0</text>
<polygon fill="white" stroke="none" points="138.21,-228.97 138.21,-252.72 167.21,-252.72 167.21,-228.97 138.21,-228.97"/>
<text text-anchor="start" x="142.21" y="-235.42" font-family="Times New Roman,serif" font-size="14.00" fill="darkmagenta">0, 4</text>
</g>
<!-- 3 -->
<g id="node3" class="node">
<title>3</title>
<ellipse fill="none" stroke="black" cx="218.4" cy="-41.75" rx="83.5" ry="18"/>
<text text-anchor="middle" x="218.4" y="-36.33" font-family="Times New Roman,serif" font-size="14.00">3. return type_code</text>
<text text-anchor="start" x="117.65" y="-46.45" font-family="Times New Roman,serif" font-size="14.00" fill="darkorange">0,4</text>
</g>
<!-- 1&#45;&gt;3 -->
<g id="edge2" class="edge">
<title>1&#45;&gt;3</title>
<path fill="none" stroke="black" d="M264.09,-270.58C271.86,-264.53 278.88,-257.24 283.4,-248.61 319.04,-180.64 298.14,-143.41 258.4,-77.75 256.1,-73.95 253.25,-70.34 250.14,-66.99"/>
<polygon fill="black" stroke="black" points="252.77,-64.66 243.13,-60.26 247.92,-69.71 252.77,-64.66"/>
<text text-anchor="middle" x="346.78" y="-150.01" font-family="Times New Roman,serif" font-size="14.00">(type_code &lt; 0)</text>
<polygon fill="white" stroke="none" points="265.2,-153.34 265.2,-177.09 294.2,-177.09 294.2,-153.34 265.2,-153.34"/>
<text text-anchor="start" x="269.2" y="-159.79" font-family="Times New Roman,serif" font-size="14.00" fill="darkmagenta">0, 0</text>
</g>
<!-- 2&#45;&gt;3 -->
<g id="edge3" class="edge">
<title>2&#45;&gt;3</title>
<path fill="none" stroke="red" stroke-width="5" d="M158.53,-127.4C170.16,-110.95 185.03,-89.93 197.05,-72.94"/>
<polygon fill="red" stroke="red" stroke-width="5" points="200.53,-75.6 202.73,-64.91 193.38,-70.54 200.53,-75.6"/>
<text text-anchor="middle" x="223.78" y="-80.2" font-family="Times New Roman,serif" font-size="14.00"> Score: 1.0</text>
<polygon fill="white" stroke="none" points="151.33,-95.74 151.33,-119.49 180.33,-119.49 180.33,-95.74 151.33,-95.74"/>
<text text-anchor="start" x="155.33" y="-102.19" font-family="Times New Roman,serif" font-size="14.00" fill="darkmagenta">0, 4</text>
</g>
</g>
</svg>
