<?xml version="1.0" encoding="UTF-8" standalone="no"?>
<!DOCTYPE svg PUBLIC "-//W3C//DTD SVG 1.1//EN"
 "http://www.w3.org/Graphics/SVG/1.1/DTD/svg11.dtd">
<!-- Generated by graphviz version 10.0.1 (20240210.2158)
 -->
<!-- Title: clusteris_side_one_equal_two Pages: 1 -->
<svg width="333pt" height="279pt"
 viewBox="0.00 0.00 332.90 278.72" xmlns="http://www.w3.org/2000/svg" xmlns:xlink="http://www.w3.org/1999/xlink">
<g id="graph0" class="graph" transform="scale(1 1) rotate(0) translate(4 274.72)">
<title>clusteris_side_one_equal_two</title>
<polygon fill="white" stroke="none" points="-4,4 -4,-274.72 328.9,-274.72 328.9,4 -4,4"/>
<text text-anchor="middle" x="162.45" y="-6.9" font-family="Times New Roman,serif" font-size="8.00">is_side_one_equal_two</text>
<!-- 1 -->
<g id="node1" class="node">
<title>1</title>
<ellipse fill="none" stroke="black" cx="212.4" cy="-232.29" rx="85.03" ry="27.93"/>
<text text-anchor="middle" x="212.4" y="-229.94" font-family="Times New Roman,serif" font-size="8.00">1. if type_code &gt;= 0:</text>
<text text-anchor="start" x="116.12" y="-252.62" font-family="Times New Roman,serif" font-size="8.00" fill="darkorange">1,0</text>
</g>
<!-- 2 -->
<g id="node2" class="node">
<title>2</title>
<ellipse fill="none" stroke="black" cx="133.4" cy="-119.43" rx="122.15" ry="27.93"/>
<text text-anchor="middle" x="133.4" y="-117.08" font-family="Times New Roman,serif" font-size="8.00">2. type_code = type_code + 1</text>
<text text-anchor="start" x="0" y="-139.76" font-family="Times New Roman,serif" font-size="8.00" fill="darkorange">1,0</text>
</g>
<!-- 1&#45;&gt;2 -->
<g id="edge1" class="edge">
<title>1&#45;&gt;2</title>
<path fill="none" stroke="#429e6a" d="M193.48,-204.74C183.1,-190.17 170.09,-171.92 158.84,-156.12"/>
<polygon fill="#429e6a" stroke="#429e6a" points="161.98,-154.5 153.32,-148.38 156.27,-158.56 161.98,-154.5"/>
<text text-anchor="middle" x="211.15" y="-178.76" font-family="Times New Roman,serif" font-size="8.00">&quot;type_code &gt;= 0&quot;</text>
<text text-anchor="middle" x="211.15" y="-168.26" font-family="Times New Roman,serif" font-size="8.00">c[3]</text>
<text text-anchor="start" x="150.35" y="-168.18" font-family="Times New Roman,serif" font-size="8.00" fill="darkmagenta"> &#160;1,0 &#160;&#160;</text>
</g>
<!-- 3 -->
<g id="node3" class="node">
<title>3</title>
<ellipse fill="none" stroke="black" cx="212.4" cy="-36.5" rx="74.02" ry="18"/>
<text text-anchor="middle" x="212.4" y="-34.15" font-family="Times New Roman,serif" font-size="8.00">3. return type_code</text>
<text text-anchor="start" x="127.14" y="-46.9" font-family="Times New Roman,serif" font-size="8.00" fill="darkorange">1,0</text>
</g>
<!-- 1&#45;&gt;3 -->
<g id="edge2" class="edge">
<title>1&#45;&gt;3</title>
<path fill="none" stroke="black" d="M235.15,-205.03C246.9,-189.45 259.73,-168.62 264.4,-147.36 269.73,-123.11 273.69,-114.53 264.4,-91.5 259.91,-80.36 251.91,-70.24 243.5,-61.85"/>
<polygon fill="black" stroke="black" points="245.91,-59.31 236.19,-55.09 241.15,-64.45 245.91,-59.31"/>
<text text-anchor="middle" x="297.15" y="-117.08" font-family="Times New Roman,serif" font-size="8.00">(type_code &lt; 0)</text>
<text text-anchor="start" x="266.86" y="-128.96" font-family="Times New Roman,serif" font-size="8.00" fill="darkmagenta"> &#160;0,0 &#160;&#160;</text>
</g>
<!-- 2&#45;&gt;3 -->
<g id="edge3" class="edge">
<title>2&#45;&gt;3</title>
<path fill="none" stroke="#429e6a" d="M159.27,-91.93C168.5,-82.47 178.87,-71.85 187.98,-62.52"/>
<polygon fill="#429e6a" stroke="#429e6a" points="190.38,-65.07 194.86,-55.47 185.37,-60.18 190.38,-65.07"/>
<text text-anchor="start" x="155.28" y="-65.37" font-family="Times New Roman,serif" font-size="8.00" fill="darkmagenta"> &#160;1,0 &#160;&#160;</text>
</g>
</g>
</svg>
