<?xml version="1.0" encoding="UTF-8" standalone="no"?>
<!DOCTYPE svg PUBLIC "-//W3C//DTD SVG 1.1//EN"
 "http://www.w3.org/Graphics/SVG/1.1/DTD/svg11.dtd">
<!-- Generated by graphviz version 12.1.0 (20240811.2233)
 -->
<!-- Title: clusteris_side_one_equal_three Pages: 1 -->
<svg width="367pt" height="307pt"
 viewBox="0.00 0.00 367.09 306.97" xmlns="http://www.w3.org/2000/svg" xmlns:xlink="http://www.w3.org/1999/xlink">
<g id="graph0" class="graph" transform="scale(1 1) rotate(0) translate(4 302.97)">
<title>clusteris_side_one_equal_three</title>
<polygon fill="white" stroke="none" points="-4,4 -4,-302.97 363.09,-302.97 363.09,4 -4,4"/>
<text text-anchor="middle" x="179.54" y="-7.2" font-family="Times New Roman,serif" font-size="14.00">is_side_one_equal_three</text>
<!-- 1 -->
<g id="node1" class="node">
<title>1</title>
<ellipse fill="none" stroke="black" cx="210.1" cy="-253.47" rx="83.44" ry="28.99"/>
<text text-anchor="middle" x="210.1" y="-248.42" font-family="Times New Roman,serif" font-size="14.00">1. if type_code &gt;= 0:</text>
<text text-anchor="start" x="109.41" y="-269.17" font-family="Times New Roman,serif" font-size="14.00" fill="darkorange">1,0</text>
</g>
<!-- 2 -->
<g id="node2" class="node">
<title>2</title>
<ellipse fill="none" stroke="black" cx="134.1" cy="-126.49" rx="116.85" ry="28.99"/>
<text text-anchor="middle" x="134.1" y="-121.44" font-family="Times New Roman,serif" font-size="14.00">2. type_code = type_code + 2</text>
<text text-anchor="start" x="0" y="-142.18" font-family="Times New Roman,serif" font-size="14.00" fill="darkorange">1,0</text>
</g>
<!-- 1&#45;&gt;2 -->
<g id="edge1" class="edge">
<title>1&#45;&gt;2</title>
<path fill="none" stroke="#429e6a" d="M188.03,-225.32C183.46,-219.27 178.84,-212.77 174.85,-206.48 166.7,-193.63 158.78,-178.95 152.12,-165.77"/>
<polygon fill="#429e6a" stroke="#429e6a" points="155.32,-164.34 147.75,-156.93 149.05,-167.45 155.32,-164.34"/>
<text text-anchor="middle" x="223.97" y="-193.18" font-family="Times New Roman,serif" font-size="14.00">&quot;type_code &gt;= 0&quot;</text>
<text text-anchor="middle" x="223.97" y="-176.68" font-family="Times New Roman,serif" font-size="14.00">c[4]</text>
<polygon fill="white" stroke="none" points="134.83,-193.43 134.83,-217.93 163.83,-217.93 163.83,-193.43 134.83,-193.43"/>
<text text-anchor="start" x="138.83" y="-200.63" font-family="Times New Roman,serif" font-size="14.00" fill="darkmagenta">1, 0</text>
</g>
<!-- 3 -->
<g id="node3" class="node">
<title>3</title>
<ellipse fill="none" stroke="black" cx="210.1" cy="-42.5" rx="83.08" ry="18"/>
<text text-anchor="middle" x="210.1" y="-37.45" font-family="Times New Roman,serif" font-size="14.00">3. return type_code</text>
<text text-anchor="start" x="109.77" y="-47.2" font-family="Times New Roman,serif" font-size="14.00" fill="darkorange">1,0</text>
</g>
<!-- 1&#45;&gt;3 -->
<g id="edge2" class="edge">
<title>1&#45;&gt;3</title>
<path fill="none" stroke="black" d="M254.43,-228.56C261.96,-222.41 268.74,-215.05 273.1,-206.48 279.74,-193.41 274.34,-188.1 273.1,-173.48 270.2,-139.34 275.25,-128.23 260.1,-97.5 254.8,-86.76 246.68,-76.64 238.51,-68.13"/>
<polygon fill="black" stroke="black" points="241.09,-65.77 231.51,-61.26 236.19,-70.76 241.09,-65.77"/>
<text text-anchor="middle" x="315.59" y="-121.44" font-family="Times New Roman,serif" font-size="14.00">(type_code &lt; 0)</text>
<polygon fill="white" stroke="none" points="273.73,-145.08 273.73,-169.58 302.73,-169.58 302.73,-145.08 273.73,-145.08"/>
<text text-anchor="start" x="277.73" y="-152.28" font-family="Times New Roman,serif" font-size="14.00" fill="darkmagenta">0, 0</text>
</g>
<!-- 2&#45;&gt;3 -->
<g id="edge3" class="edge">
<title>2&#45;&gt;3</title>
<path fill="none" stroke="#429e6a" d="M159.83,-97.73C168.57,-88.3 178.29,-77.81 186.83,-68.6"/>
<polygon fill="#429e6a" stroke="#429e6a" points="189.33,-71.05 193.56,-61.34 184.2,-66.29 189.33,-71.05"/>
<polygon fill="white" stroke="none" points="146.27,-80.92 146.27,-105.42 175.27,-105.42 175.27,-80.92 146.27,-80.92"/>
<text text-anchor="start" x="150.27" y="-88.12" font-family="Times New Roman,serif" font-size="14.00" fill="darkmagenta">1, 0</text>
</g>
</g>
</svg>
