<?xml version="1.0" encoding="UTF-8" standalone="no"?>
<!DOCTYPE svg PUBLIC "-//W3C//DTD SVG 1.1//EN"
 "http://www.w3.org/Graphics/SVG/1.1/DTD/svg11.dtd">
<!-- Generated by graphviz version 10.0.1 (20240210.2158)
 -->
<!-- Title: clusteris_side_one_equal_three Pages: 1 -->
<svg width="380pt" height="300pt"
 viewBox="0.00 0.00 380.15 299.72" xmlns="http://www.w3.org/2000/svg" xmlns:xlink="http://www.w3.org/1999/xlink">
<g id="graph0" class="graph" transform="scale(1 1) rotate(0) translate(4 295.72)">
<title>clusteris_side_one_equal_three</title>
<polygon fill="white" stroke="none" points="-4,4 -4,-295.72 376.15,-295.72 376.15,4 -4,4"/>
<text text-anchor="middle" x="186.08" y="-6.45" font-family="Times New Roman,serif" font-size="14.00">is_side_one_equal_three</text>
<!-- 1 -->
<g id="node1" class="node">
<title>1</title>
<ellipse fill="none" stroke="black" cx="238.4" cy="-248.04" rx="85.03" ry="27.93"/>
<text text-anchor="middle" x="238.4" y="-242.62" font-family="Times New Roman,serif" font-size="14.00">1. if type_code &gt;= 0:</text>
<text text-anchor="start" x="136.12" y="-262.67" font-family="Times New Roman,serif" font-size="14.00" fill="darkorange">1,0</text>
</g>
<!-- 2 -->
<g id="node2" class="node">
<title>2</title>
<ellipse fill="none" stroke="black" cx="139.4" cy="-124.68" rx="122.15" ry="27.93"/>
<text text-anchor="middle" x="139.4" y="-119.26" font-family="Times New Roman,serif" font-size="14.00">2. type_code = type_code + 2</text>
<text text-anchor="start" x="0" y="-139.31" font-family="Times New Roman,serif" font-size="14.00" fill="darkorange">1,0</text>
</g>
<!-- 1&#45;&gt;2 -->
<g id="edge1" class="edge">
<title>1&#45;&gt;2</title>
<path fill="none" stroke="#429e6a" d="M202.67,-222.48C195.13,-216.35 187.59,-209.42 181.4,-202.11 171.52,-190.44 162.89,-176.09 156.08,-162.98"/>
<polygon fill="#429e6a" stroke="#429e6a" points="159.28,-161.55 151.68,-154.16 153.01,-164.67 159.28,-161.55"/>
<text text-anchor="middle" x="232.4" y="-188.81" font-family="Times New Roman,serif" font-size="14.00">&quot;type_code &gt;= 0&quot;</text>
<text text-anchor="middle" x="232.4" y="-173.06" font-family="Times New Roman,serif" font-size="14.00">c[4]</text>
<polygon fill="white" stroke="none" points="141.73,-192.81 141.73,-216.56 170.73,-216.56 170.73,-192.81 141.73,-192.81"/>
<text text-anchor="start" x="145.73" y="-199.26" font-family="Times New Roman,serif" font-size="14.00" fill="darkmagenta">1, 0</text>
</g>
<!-- 3 -->
<g id="node3" class="node">
<title>3</title>
<ellipse fill="none" stroke="black" cx="218.4" cy="-41.75" rx="83.5" ry="18"/>
<text text-anchor="middle" x="218.4" y="-36.33" font-family="Times New Roman,serif" font-size="14.00">3. return type_code</text>
<text text-anchor="start" x="117.65" y="-46.45" font-family="Times New Roman,serif" font-size="14.00" fill="darkorange">1,0</text>
</g>
<!-- 1&#45;&gt;3 -->
<g id="edge2" class="edge">
<title>1&#45;&gt;3</title>
<path fill="none" stroke="black" d="M270.23,-221.91C275.6,-216.03 280.4,-209.35 283.4,-202.11 288.76,-189.18 284.62,-184.56 283.4,-170.61 280.5,-137.41 285.51,-126.46 270.4,-96.75 264.92,-85.96 256.55,-75.88 248.13,-67.43"/>
<polygon fill="black" stroke="black" points="250.56,-64.91 240.89,-60.58 245.75,-69.99 250.56,-64.91"/>
<text text-anchor="middle" x="326.78" y="-119.26" font-family="Times New Roman,serif" font-size="14.00">(type_code &lt; 0)</text>
<polygon fill="white" stroke="none" points="283.95,-141.44 283.95,-165.19 312.95,-165.19 312.95,-141.44 283.95,-141.44"/>
<text text-anchor="start" x="287.95" y="-147.89" font-family="Times New Roman,serif" font-size="14.00" fill="darkmagenta">0, 0</text>
</g>
<!-- 2&#45;&gt;3 -->
<g id="edge3" class="edge">
<title>2&#45;&gt;3</title>
<path fill="none" stroke="#429e6a" d="M165.27,-97.18C174.5,-87.72 184.87,-77.1 193.98,-67.77"/>
<polygon fill="#429e6a" stroke="#429e6a" points="196.38,-70.32 200.86,-60.72 191.37,-65.43 196.38,-70.32"/>
<polygon fill="white" stroke="none" points="152.78,-80.22 152.78,-103.97 181.78,-103.97 181.78,-80.22 152.78,-80.22"/>
<text text-anchor="start" x="156.78" y="-86.67" font-family="Times New Roman,serif" font-size="14.00" fill="darkmagenta">1, 0</text>
</g>
</g>
</svg>
