<?xml version="1.0" encoding="UTF-8" standalone="no"?>
<!DOCTYPE svg PUBLIC "-//W3C//DTD SVG 1.1//EN"
 "http://www.w3.org/Graphics/SVG/1.1/DTD/svg11.dtd">
<!-- Generated by graphviz version 10.0.1 (20240210.2158)
 -->
<!-- Title: clusteris_side_two_equal_three Pages: 1 -->
<svg width="336pt" height="289pt"
 viewBox="0.00 0.00 335.90 289.22" xmlns="http://www.w3.org/2000/svg" xmlns:xlink="http://www.w3.org/1999/xlink">
<g id="graph0" class="graph" transform="scale(1 1) rotate(0) translate(4 285.22)">
<title>clusteris_side_two_equal_three</title>
<polygon fill="white" stroke="none" points="-4,4 -4,-285.22 331.9,-285.22 331.9,4 -4,4"/>
<text text-anchor="middle" x="163.95" y="-6.9" font-family="Times New Roman,serif" font-size="8.00">is_side_two_equal_three</text>
<!-- 1 -->
<g id="node1" class="node">
<title>1</title>
<ellipse fill="none" stroke="black" cx="212.4" cy="-242.79" rx="85.03" ry="27.93"/>
<text text-anchor="middle" x="212.4" y="-240.44" font-family="Times New Roman,serif" font-size="8.00">1. if type_code &gt;= 0:</text>
<text text-anchor="start" x="116.12" y="-263.12" font-family="Times New Roman,serif" font-size="8.00" fill="darkorange">0,4</text>
</g>
<!-- 2 -->
<g id="node2" class="node">
<title>2</title>
<ellipse fill="none" stroke="black" cx="133.4" cy="-119.43" rx="122.15" ry="27.93"/>
<text text-anchor="middle" x="133.4" y="-117.08" font-family="Times New Roman,serif" font-size="8.00">2. type_code = type_code + 3</text>
<text text-anchor="start" x="0" y="-139.76" font-family="Times New Roman,serif" font-size="8.00" fill="darkorange">0,4</text>
</g>
<!-- 1&#45;&gt;2 -->
<g id="edge1" class="edge">
<title>1&#45;&gt;2</title>
<path fill="none" stroke="red" stroke-width="5" d="M195.06,-215.16C184.74,-199.3 171.44,-178.86 159.83,-161.03"/>
<polygon fill="red" stroke="red" stroke-width="5" points="163.5,-158.64 154.37,-152.65 156.16,-163.42 163.5,-158.64"/>
<text text-anchor="middle" x="213.15" y="-189.26" font-family="Times New Roman,serif" font-size="8.00">&quot;type_code &gt;= 0&quot;</text>
<text text-anchor="middle" x="213.15" y="-178.76" font-family="Times New Roman,serif" font-size="8.00">c[2]</text>
<text text-anchor="middle" x="213.15" y="-168.26" font-family="Times New Roman,serif" font-size="8.00">Score: 1.0</text>
<text text-anchor="start" x="150.57" y="-173.77" font-family="Times New Roman,serif" font-size="8.00" fill="darkmagenta"> &#160;0,4 &#160;&#160;</text>
</g>
<!-- 3 -->
<g id="node3" class="node">
<title>3</title>
<ellipse fill="none" stroke="black" cx="212.4" cy="-36.5" rx="74.02" ry="18"/>
<text text-anchor="middle" x="212.4" y="-34.15" font-family="Times New Roman,serif" font-size="8.00">3. return type_code</text>
<text text-anchor="start" x="127.14" y="-46.9" font-family="Times New Roman,serif" font-size="8.00" fill="darkorange">0,4</text>
</g>
<!-- 1&#45;&gt;3 -->
<g id="edge2" class="edge">
<title>1&#45;&gt;3</title>
<path fill="none" stroke="black" d="M235.8,-215.83C240.41,-209.87 244.89,-203.37 248.4,-196.86 270.86,-155.16 282.11,-135.43 264.4,-91.5 259.91,-80.36 251.91,-70.24 243.5,-61.85"/>
<polygon fill="black" stroke="black" points="245.91,-59.31 236.19,-55.09 241.15,-64.45 245.91,-59.31"/>
<text text-anchor="middle" x="300.15" y="-117.08" font-family="Times New Roman,serif" font-size="8.00">(type_code &lt; 0)</text>
<text text-anchor="start" x="272.29" y="-133.01" font-family="Times New Roman,serif" font-size="8.00" fill="darkmagenta"> &#160;0,0 &#160;&#160;</text>
</g>
<!-- 2&#45;&gt;3 -->
<g id="edge3" class="edge">
<title>2&#45;&gt;3</title>
<path fill="none" stroke="red" d="M159.27,-91.93C168.5,-82.47 178.87,-71.85 187.98,-62.52"/>
<polygon fill="red" stroke="red" points="190.38,-65.07 194.86,-55.47 185.37,-60.18 190.38,-65.07"/>
<text text-anchor="start" x="155.28" y="-65.37" font-family="Times New Roman,serif" font-size="8.00" fill="darkmagenta"> &#160;0,4 &#160;&#160;</text>
</g>
</g>
</svg>
