<?xml version="1.0" encoding="UTF-8" standalone="no"?>
<!DOCTYPE svg PUBLIC "-//W3C//DTD SVG 1.1//EN"
 "http://www.w3.org/Graphics/SVG/1.1/DTD/svg11.dtd">
<!-- Generated by graphviz version 12.1.0 (20240811.2233)
 -->
<!-- Title: clusteris_side_two_equal_three Pages: 1 -->
<svg width="387pt" height="355pt"
 viewBox="0.00 0.00 386.56 354.97" xmlns="http://www.w3.org/2000/svg" xmlns:xlink="http://www.w3.org/1999/xlink">
<g id="graph0" class="graph" transform="scale(1 1) rotate(0) translate(4 350.97)">
<title>clusteris_side_two_equal_three</title>
<polygon fill="white" stroke="none" points="-4,4 -4,-350.97 382.56,-350.97 382.56,4 -4,4"/>
<text text-anchor="middle" x="189.28" y="-7.2" font-family="Times New Roman,serif" font-size="14.00">is_side_two_equal_three</text>
<!-- 1 -->
<g id="node1" class="node">
<title>1</title>
<ellipse fill="none" stroke="black" cx="210.1" cy="-301.47" rx="83.44" ry="28.99"/>
<text text-anchor="middle" x="210.1" y="-296.42" font-family="Times New Roman,serif" font-size="14.00">1. if type_code &gt;= 0:</text>
<text text-anchor="start" x="109.41" y="-317.17" font-family="Times New Roman,serif" font-size="14.00" fill="darkorange">0,4</text>
</g>
<!-- 2 -->
<g id="node2" class="node">
<title>2</title>
<ellipse fill="none" stroke="black" cx="134.1" cy="-157.99" rx="116.85" ry="28.99"/>
<text text-anchor="middle" x="134.1" y="-152.94" font-family="Times New Roman,serif" font-size="14.00">2. type_code = type_code + 3</text>
<text text-anchor="start" x="0" y="-173.68" font-family="Times New Roman,serif" font-size="14.00" fill="darkorange">0,4</text>
</g>
<!-- 1&#45;&gt;2 -->
<g id="edge1" class="edge">
<title>1&#45;&gt;2</title>
<path fill="none" stroke="red" stroke-width="5" d="M187.68,-273.54C183.13,-267.47 178.6,-260.91 174.85,-254.48 165.22,-238 156.59,-218.82 149.77,-201.99"/>
<polygon fill="red" stroke="red" stroke-width="5" points="153.92,-200.57 146.2,-192.85 145.77,-203.76 153.92,-200.57"/>
<text text-anchor="middle" x="223.97" y="-241.18" font-family="Times New Roman,serif" font-size="14.00">&quot;type_code &gt;= 0&quot;</text>
<text text-anchor="middle" x="223.97" y="-224.68" font-family="Times New Roman,serif" font-size="14.00">c[2]</text>
<text text-anchor="middle" x="223.97" y="-208.18" font-family="Times New Roman,serif" font-size="14.00"> Score: 1.0</text>
<polygon fill="white" stroke="none" points="131.85,-233.73 131.85,-258.23 160.85,-258.23 160.85,-233.73 131.85,-233.73"/>
<text text-anchor="start" x="135.85" y="-240.93" font-family="Times New Roman,serif" font-size="14.00" fill="darkmagenta">0, 4</text>
</g>
<!-- 3 -->
<g id="node3" class="node">
<title>3</title>
<ellipse fill="none" stroke="black" cx="211.1" cy="-42.5" rx="83.08" ry="18"/>
<text text-anchor="middle" x="211.1" y="-37.45" font-family="Times New Roman,serif" font-size="14.00">3. return type_code</text>
<text text-anchor="start" x="110.77" y="-47.2" font-family="Times New Roman,serif" font-size="14.00" fill="darkorange">0,4</text>
</g>
<!-- 1&#45;&gt;3 -->
<g id="edge2" class="edge">
<title>1&#45;&gt;3</title>
<path fill="none" stroke="black" d="M254.43,-276.56C261.96,-270.41 268.74,-263.05 273.1,-254.48 308.86,-184.11 288.35,-146.99 249.1,-78.5 247.01,-74.86 244.42,-71.39 241.58,-68.13"/>
<polygon fill="black" stroke="black" points="244.22,-65.83 234.71,-61.17 239.24,-70.74 244.22,-65.83"/>
<text text-anchor="middle" x="335.06" y="-152.94" font-family="Times New Roman,serif" font-size="14.00">(type_code &lt; 0)</text>
<polygon fill="white" stroke="none" points="255.8,-158.1 255.8,-182.6 284.8,-182.6 284.8,-158.1 255.8,-158.1"/>
<text text-anchor="start" x="259.8" y="-165.3" font-family="Times New Roman,serif" font-size="14.00" fill="darkmagenta">0, 0</text>
</g>
<!-- 2&#45;&gt;3 -->
<g id="edge3" class="edge">
<title>2&#45;&gt;3</title>
<path fill="none" stroke="red" stroke-width="5" d="M153.13,-128.94C164.48,-112.22 178.88,-90.99 190.49,-73.88"/>
<polygon fill="red" stroke="red" stroke-width="5" points="193.96,-76.55 195.95,-65.82 186.72,-71.64 193.96,-76.55"/>
<text text-anchor="middle" x="215.82" y="-81.7" font-family="Times New Roman,serif" font-size="14.00"> Score: 1.0</text>
<polygon fill="white" stroke="none" points="145.25,-96.86 145.25,-121.36 174.25,-121.36 174.25,-96.86 145.25,-96.86"/>
<text text-anchor="start" x="149.25" y="-104.06" font-family="Times New Roman,serif" font-size="14.00" fill="darkmagenta">0, 4</text>
</g>
</g>
</svg>
