<?xml version="1.0" encoding="UTF-8" standalone="no"?>
<!DOCTYPE svg PUBLIC "-//W3C//DTD SVG 1.1//EN"
 "http://www.w3.org/Graphics/SVG/1.1/DTD/svg11.dtd">
<!-- Generated by graphviz version 10.0.1 (20240210.2158)
 -->
<!-- Title: clusteris_side_one_equal_three Pages: 1 -->
<svg width="264pt" height="279pt"
 viewBox="0.00 0.00 263.55 278.72" xmlns="http://www.w3.org/2000/svg" xmlns:xlink="http://www.w3.org/1999/xlink">
<g id="graph0" class="graph" transform="scale(1 1) rotate(0) translate(4 274.72)">
<title>clusteris_side_one_equal_three</title>
<polygon fill="white" stroke="none" points="-4,4 -4,-274.72 259.55,-274.72 259.55,4 -4,4"/>
<text text-anchor="middle" x="127.78" y="-6.9" font-family="Times New Roman,serif" font-size="8.00">is_side_one_equal_three</text>
<!-- 1 -->
<g id="node1" class="node">
<title>1</title>
<ellipse fill="none" stroke="black" cx="133.4" cy="-232.29" rx="85.03" ry="27.93"/>
<text text-anchor="middle" x="133.4" y="-229.94" font-family="Times New Roman,serif" font-size="8.00">1. if type_code &gt;= 0:</text>
<text text-anchor="start" x="37.12" y="-252.62" font-family="Times New Roman,serif" font-size="8.00" fill="darkorange">1,0</text>
</g>
<!-- 2 -->
<g id="node2" class="node">
<title>2</title>
<ellipse fill="none" stroke="black" cx="133.4" cy="-119.43" rx="122.15" ry="27.93"/>
<text text-anchor="middle" x="133.4" y="-117.08" font-family="Times New Roman,serif" font-size="8.00">2. type_code = type_code + 2</text>
<text text-anchor="start" x="0" y="-139.76" font-family="Times New Roman,serif" font-size="8.00" fill="darkorange">1,0</text>
</g>
<!-- 1&#45;&gt;2 -->
<g id="edge1" class="edge">
<title>1&#45;&gt;2</title>
<path fill="none" stroke="#429e6a" d="M133.4,-203.89C133.4,-190.33 133.4,-173.73 133.4,-158.92"/>
<polygon fill="#429e6a" stroke="#429e6a" points="136.9,-159.03 133.4,-149.03 129.9,-159.03 136.9,-159.03"/>
<text text-anchor="middle" x="164.15" y="-178.76" font-family="Times New Roman,serif" font-size="8.00">&quot;type_code &gt;= 0&quot;</text>
<text text-anchor="middle" x="164.15" y="-168.26" font-family="Times New Roman,serif" font-size="8.00">c[4]</text>
<text text-anchor="start" x="110.9" y="-168.12" font-family="Times New Roman,serif" font-size="8.00" fill="darkmagenta"> &#160;1,0 &#160;&#160;</text>
</g>
<!-- 3 -->
<g id="node3" class="node">
<title>3</title>
<ellipse fill="none" stroke="black" cx="133.4" cy="-36.5" rx="74.02" ry="18"/>
<text text-anchor="middle" x="133.4" y="-34.15" font-family="Times New Roman,serif" font-size="8.00">3. return type_code</text>
<text text-anchor="start" x="48.14" y="-46.9" font-family="Times New Roman,serif" font-size="8.00" fill="darkorange">1,0</text>
</g>
<!-- 2&#45;&gt;3 -->
<g id="edge2" class="edge">
<title>2&#45;&gt;3</title>
<path fill="none" stroke="#429e6a" d="M133.4,-91.03C133.4,-83.11 133.4,-74.45 133.4,-66.44"/>
<polygon fill="#429e6a" stroke="#429e6a" points="136.9,-66.49 133.4,-56.49 129.9,-66.49 136.9,-66.49"/>
<text text-anchor="start" x="110.9" y="-65.72" font-family="Times New Roman,serif" font-size="8.00" fill="darkmagenta"> &#160;1,0 &#160;&#160;</text>
</g>
</g>
</svg>
