<?xml version="1.0" encoding="UTF-8" standalone="no"?>
<!DOCTYPE svg PUBLIC "-//W3C//DTD SVG 1.1//EN"
 "http://www.w3.org/Graphics/SVG/1.1/DTD/svg11.dtd">
<!-- Generated by graphviz version 10.0.1 (20240210.2158)
 -->
<!-- Title: clustertrityp Pages: 1 -->
<svg width="1144pt" height="1634pt"
 viewBox="0.00 0.00 1143.72 1634.39" xmlns="http://www.w3.org/2000/svg" xmlns:xlink="http://www.w3.org/1999/xlink">
<g id="graph0" class="graph" transform="scale(1 1) rotate(0) translate(4 1630.39)">
<title>clustertrityp</title>
<polygon fill="white" stroke="none" points="-4,4 -4,-1630.39 1139.72,-1630.39 1139.72,4 -4,4"/>
<text text-anchor="middle" x="567.86" y="-6.45" font-family="Times New Roman,serif" font-size="14.00">trityp</text>
<!-- 1 -->
<g id="node1" class="node">
<title>1</title>
<ellipse fill="none" stroke="black" cx="351.97" cy="-1582.7" rx="123.21" ry="27.93"/>
<text text-anchor="middle" x="351.97" y="-1577.28" font-family="Times New Roman,serif" font-size="14.00">1. if i == 0 or j == 0 or k == 0:</text>
<text text-anchor="start" x="211.51" y="-1597.34" font-family="Times New Roman,serif" font-size="14.00" fill="darkorange">4,4</text>
</g>
<!-- 4 -->
<g id="node2" class="node">
<title>4</title>
<ellipse fill="none" stroke="black" cx="351.97" cy="-1432.46" rx="69.12" ry="39.07"/>
<text text-anchor="middle" x="351.97" y="-1434.91" font-family="Times New Roman,serif" font-size="14.00">4. type_code = 0</text>
<text text-anchor="middle" x="351.97" y="-1419.16" font-family="Times New Roman,serif" font-size="14.00">if i == j:</text>
<text text-anchor="start" x="265.6" y="-1458.22" font-family="Times New Roman,serif" font-size="14.00" fill="darkorange">4,4</text>
</g>
<!-- 1&#45;&gt;4 -->
<g id="edge1" class="edge">
<title>1&#45;&gt;4</title>
<path fill="none" stroke="blue" stroke-width="3.28" d="M351.97,-1554.51C351.97,-1535.61 351.97,-1509.79 351.97,-1486.85"/>
<polygon fill="blue" stroke="blue" stroke-width="3.28" points="355.47,-1486.88 351.97,-1476.88 348.47,-1486.89 355.47,-1486.88"/>
<text text-anchor="middle" x="449.84" y="-1523.47" font-family="Times New Roman,serif" font-size="14.00">&quot;(not (i == 0 or j == 0 or k == 0))&quot;</text>
<text text-anchor="middle" x="449.84" y="-1507.72" font-family="Times New Roman,serif" font-size="14.00">c[6]</text>
<text text-anchor="middle" x="449.84" y="-1491.97" font-family="Times New Roman,serif" font-size="14.00"> Score: 0.57</text>
<polygon fill="white" stroke="none" points="320.97,-1514.8 320.97,-1538.55 349.97,-1538.55 349.97,-1514.8 320.97,-1514.8"/>
<text text-anchor="start" x="324.97" y="-1521.25" font-family="Times New Roman,serif" font-size="14.00" fill="darkmagenta">4, 4</text>
</g>
<!-- 5 -->
<g id="node4" class="node">
<title>5</title>
<ellipse fill="none" stroke="black" cx="230.97" cy="-1297.96" rx="205.95" ry="27.93"/>
<text text-anchor="middle" x="230.97" y="-1292.53" font-family="Times New Roman,serif" font-size="14.00">5. type_code = is_side_one_equal_two(type_code)</text>
<text text-anchor="start" x="7.77" y="-1312.59" font-family="Times New Roman,serif" font-size="14.00" fill="darkorange">1,0</text>
</g>
<!-- 4&#45;&gt;5 -->
<g id="edge2" class="edge">
<title>4&#45;&gt;5</title>
<path fill="none" stroke="#429e6a" d="M320.81,-1397.34C303.12,-1377.97 281.02,-1353.76 263.16,-1334.21"/>
<polygon fill="#429e6a" stroke="#429e6a" points="265.89,-1332.01 256.56,-1326.98 260.72,-1336.73 265.89,-1332.01"/>
<text text-anchor="middle" x="319.97" y="-1362.09" font-family="Times New Roman,serif" font-size="14.00">&quot;i == j&quot;</text>
<text text-anchor="middle" x="319.97" y="-1346.34" font-family="Times New Roman,serif" font-size="14.00">c[7]</text>
<polygon fill="white" stroke="none" points="257.08,-1363.49 257.08,-1387.24 286.08,-1387.24 286.08,-1363.49 257.08,-1363.49"/>
<text text-anchor="start" x="261.08" y="-1369.94" font-family="Times New Roman,serif" font-size="14.00" fill="darkmagenta">1, 0</text>
</g>
<!-- 6 -->
<g id="node5" class="node">
<title>6</title>
<ellipse fill="none" stroke="black" cx="351.97" cy="-1215.03" rx="52.06" ry="18"/>
<text text-anchor="middle" x="351.97" y="-1209.6" font-family="Times New Roman,serif" font-size="14.00">6. if i == k:</text>
<text text-anchor="start" x="282.66" y="-1183.73" font-family="Times New Roman,serif" font-size="14.00" fill="darkorange">4,4</text>
</g>
<!-- 4&#45;&gt;6 -->
<g id="edge3" class="edge">
<title>4&#45;&gt;6</title>
<path fill="none" stroke="blue" stroke-width="3.52" d="M391.07,-1400.24C411.66,-1381.23 434.88,-1355.02 445.97,-1325.89 454.8,-1302.69 458.41,-1291.52 445.97,-1270.03 436.61,-1253.87 420.39,-1242.12 404.03,-1233.8"/>
<polygon fill="blue" stroke="blue" stroke-width="3.52" points="405.8,-1230.76 395.25,-1229.8 402.9,-1237.13 405.8,-1230.76"/>
<text text-anchor="middle" x="487.72" y="-1300.41" font-family="Times New Roman,serif" font-size="14.00">&quot;(i != j)&quot;</text>
<text text-anchor="middle" x="487.72" y="-1284.66" font-family="Times New Roman,serif" font-size="14.00"> Score: 0.63</text>
<polygon fill="white" stroke="none" points="414.98,-1327.87 414.98,-1351.62 443.98,-1351.62 443.98,-1327.87 414.98,-1327.87"/>
<text text-anchor="start" x="418.98" y="-1334.32" font-family="Times New Roman,serif" font-size="14.00" fill="darkmagenta">3, 4</text>
</g>
<!-- 3 -->
<g id="node3" class="node">
<title>3</title>
<ellipse fill="none" stroke="black" cx="422.97" cy="-41.75" rx="83.5" ry="18"/>
<text text-anchor="middle" x="422.97" y="-36.33" font-family="Times New Roman,serif" font-size="14.00">3. return type_code</text>
<text text-anchor="start" x="322.22" y="-46.45" font-family="Times New Roman,serif" font-size="14.00" fill="darkorange">4,4</text>
</g>
<!-- 5&#45;&gt;6 -->
<g id="edge4" class="edge">
<title>5&#45;&gt;6</title>
<path fill="none" stroke="#429e6a" d="M270.92,-1270.24C286.74,-1259.66 304.67,-1247.66 319.64,-1237.65"/>
<polygon fill="#429e6a" stroke="#429e6a" points="321.38,-1240.7 327.74,-1232.23 317.48,-1234.88 321.38,-1240.7"/>
<polygon fill="white" stroke="none" points="268.88,-1225.12 268.88,-1248.87 297.88,-1248.87 297.88,-1225.12 268.88,-1225.12"/>
<text text-anchor="start" x="272.88" y="-1231.57" font-family="Times New Roman,serif" font-size="14.00" fill="darkmagenta">1, 0</text>
</g>
<!-- 7 -->
<g id="node6" class="node">
<title>7</title>
<ellipse fill="none" stroke="black" cx="228.97" cy="-1101.6" rx="210.19" ry="27.93"/>
<text text-anchor="middle" x="228.97" y="-1096.17" font-family="Times New Roman,serif" font-size="14.00">7. type_code = is_side_one_equal_three(type_code)</text>
<text text-anchor="start" x="1.53" y="-1116.23" font-family="Times New Roman,serif" font-size="14.00" fill="darkorange">1,0</text>
</g>
<!-- 6&#45;&gt;7 -->
<g id="edge5" class="edge">
<title>6&#45;&gt;7</title>
<path fill="none" stroke="#429e6a" d="M334.08,-1197.83C316.6,-1181.98 289.41,-1157.36 267.07,-1137.12"/>
<polygon fill="#429e6a" stroke="#429e6a" points="269.66,-1134.74 259.9,-1130.62 264.96,-1139.93 269.66,-1134.74"/>
<text text-anchor="middle" x="335.84" y="-1165.73" font-family="Times New Roman,serif" font-size="14.00">&quot;i == k&quot;</text>
<text text-anchor="middle" x="335.84" y="-1149.98" font-family="Times New Roman,serif" font-size="14.00">c[8]</text>
<polygon fill="white" stroke="none" points="265.28,-1165.58 265.28,-1189.33 294.28,-1189.33 294.28,-1165.58 265.28,-1165.58"/>
<text text-anchor="start" x="269.28" y="-1172.03" font-family="Times New Roman,serif" font-size="14.00" fill="darkmagenta">1, 0</text>
</g>
<!-- 8 -->
<g id="node7" class="node">
<title>8</title>
<ellipse fill="none" stroke="black" cx="351.97" cy="-1018.67" rx="52.06" ry="18"/>
<text text-anchor="middle" x="351.97" y="-1013.24" font-family="Times New Roman,serif" font-size="14.00">8. if j == k:</text>
<text text-anchor="start" x="282.66" y="-987.37" font-family="Times New Roman,serif" font-size="14.00" fill="darkorange">4,4</text>
</g>
<!-- 6&#45;&gt;8 -->
<g id="edge6" class="edge">
<title>6&#45;&gt;8</title>
<path fill="none" stroke="blue" stroke-width="3.52" d="M378.84,-1199.31C402.01,-1184.94 433.89,-1160.69 447.97,-1129.53 458.19,-1106.9 460.5,-1095.1 447.97,-1073.67 438.31,-1057.16 421.55,-1045.31 404.71,-1037"/>
<polygon fill="blue" stroke="blue" stroke-width="3.52" points="406.14,-1033.8 395.58,-1032.97 403.32,-1040.21 406.14,-1033.8"/>
<text text-anchor="middle" x="489.72" y="-1104.05" font-family="Times New Roman,serif" font-size="14.00">&quot;(i != k)&quot;</text>
<text text-anchor="middle" x="489.72" y="-1088.3" font-family="Times New Roman,serif" font-size="14.00"> Score: 0.63</text>
<polygon fill="white" stroke="none" points="416.98,-1131.51 416.98,-1155.26 445.98,-1155.26 445.98,-1131.51 416.98,-1131.51"/>
<text text-anchor="start" x="420.98" y="-1137.96" font-family="Times New Roman,serif" font-size="14.00" fill="darkmagenta">3, 4</text>
</g>
<!-- 7&#45;&gt;8 -->
<g id="edge7" class="edge">
<title>7&#45;&gt;8</title>
<path fill="none" stroke="#429e6a" d="M269.58,-1073.87C285.66,-1063.3 303.89,-1051.3 319.11,-1041.29"/>
<polygon fill="#429e6a" stroke="#429e6a" points="320.93,-1044.28 327.36,-1035.86 317.08,-1038.43 320.93,-1044.28"/>
<polygon fill="white" stroke="none" points="268.02,-1028.76 268.02,-1052.51 297.02,-1052.51 297.02,-1028.76 268.02,-1028.76"/>
<text text-anchor="start" x="272.02" y="-1035.21" font-family="Times New Roman,serif" font-size="14.00" fill="darkmagenta">1, 0</text>
</g>
<!-- 9 -->
<g id="node8" class="node">
<title>9</title>
<ellipse fill="none" stroke="black" cx="227.97" cy="-889.49" rx="210.72" ry="27.93"/>
<text text-anchor="middle" x="227.97" y="-884.06" font-family="Times New Roman,serif" font-size="14.00">9. type_code = is_side_two_equal_three(type_code)</text>
<text text-anchor="start" x="0" y="-904.12" font-family="Times New Roman,serif" font-size="14.00" fill="darkorange">0,4</text>
</g>
<!-- 8&#45;&gt;9 -->
<g id="edge8" class="edge">
<title>8&#45;&gt;9</title>
<path fill="none" stroke="red" stroke-width="5" d="M336.01,-1001.3C318.25,-983.08 288.93,-953.02 265.32,-928.79"/>
<polygon fill="red" stroke="red" stroke-width="5" points="268.73,-926.02 258.61,-921.92 262.46,-932.13 268.73,-926.02"/>
<text text-anchor="middle" x="346.34" y="-969.37" font-family="Times New Roman,serif" font-size="14.00">&quot;j == k&quot;</text>
<text text-anchor="middle" x="346.34" y="-953.62" font-family="Times New Roman,serif" font-size="14.00">c[9]</text>
<text text-anchor="middle" x="346.34" y="-937.87" font-family="Times New Roman,serif" font-size="14.00"> Score: 1.0</text>
<polygon fill="white" stroke="none" points="264.17,-961.41 264.17,-985.16 293.17,-985.16 293.17,-961.41 264.17,-961.41"/>
<text text-anchor="start" x="268.17" y="-967.86" font-family="Times New Roman,serif" font-size="14.00" fill="darkmagenta">0, 4</text>
</g>
<!-- 10 -->
<g id="node9" class="node">
<title>10</title>
<ellipse fill="none" stroke="black" cx="351.97" cy="-775.81" rx="93.98" ry="18"/>
<text text-anchor="middle" x="351.97" y="-770.38" font-family="Times New Roman,serif" font-size="14.00">10. if type_code == 0:</text>
<text text-anchor="start" x="240.74" y="-780.51" font-family="Times New Roman,serif" font-size="14.00" fill="darkorange">4,4</text>
</g>
<!-- 8&#45;&gt;10 -->
<g id="edge9" class="edge">
<title>8&#45;&gt;10</title>
<path fill="none" stroke="#429e6a" d="M374.55,-1002.34C397.98,-984.92 433.24,-954.09 447.97,-917.42 457.22,-894.38 458.18,-884.19 447.97,-861.56 436.24,-835.55 412.14,-814.31 391.02,-799.61"/>
<polygon fill="#429e6a" stroke="#429e6a" points="393.11,-796.79 382.85,-794.16 389.22,-802.62 393.11,-796.79"/>
<text text-anchor="middle" x="474.47" y="-884.06" font-family="Times New Roman,serif" font-size="14.00">(j != k)</text>
<polygon fill="white" stroke="none" points="416.98,-919.4 416.98,-943.15 445.98,-943.15 445.98,-919.4 416.98,-919.4"/>
<text text-anchor="start" x="420.98" y="-925.85" font-family="Times New Roman,serif" font-size="14.00" fill="darkmagenta">4, 0</text>
</g>
<!-- 9&#45;&gt;10 -->
<g id="edge10" class="edge">
<title>9&#45;&gt;10</title>
<path fill="none" stroke="red" stroke-width="5" d="M257.99,-861.45C277.06,-844.27 301.7,-822.08 320.97,-804.73"/>
<polygon fill="red" stroke="red" stroke-width="5" points="323.88,-807.99 328.39,-798.04 318.03,-801.49 323.88,-807.99"/>
<text text-anchor="middle" x="342.34" y="-814.26" font-family="Times New Roman,serif" font-size="14.00"> Score: 1.0</text>
<polygon fill="white" stroke="none" points="264.56,-829.61 264.56,-853.36 293.56,-853.36 293.56,-829.61 264.56,-829.61"/>
<text text-anchor="start" x="268.56" y="-836.06" font-family="Times New Roman,serif" font-size="14.00" fill="darkmagenta">0, 4</text>
</g>
<!-- 11 -->
<g id="node10" class="node">
<title>11</title>
<ellipse fill="none" stroke="black" cx="218.97" cy="-662.38" rx="160.34" ry="27.93"/>
<text text-anchor="middle" x="218.97" y="-656.95" font-family="Times New Roman,serif" font-size="14.00">11. if i + j &lt;= k or j + k &lt;= i or i + k &lt;= j:</text>
<text text-anchor="start" x="41.38" y="-677.01" font-family="Times New Roman,serif" font-size="14.00" fill="darkorange">2,0</text>
</g>
<!-- 10&#45;&gt;11 -->
<g id="edge11" class="edge">
<title>10&#45;&gt;11</title>
<path fill="none" stroke="#429e6a" d="M331.77,-757.88C312.68,-741.89 283.48,-717.42 259.57,-697.39"/>
<polygon fill="#429e6a" stroke="#429e6a" points="262.1,-694.95 252.19,-691.21 257.61,-700.31 262.1,-694.95"/>
<text text-anchor="middle" x="359.97" y="-726.51" font-family="Times New Roman,serif" font-size="14.00">&quot;type_code == 0&quot;</text>
<text text-anchor="middle" x="359.97" y="-710.76" font-family="Times New Roman,serif" font-size="14.00">c[10]</text>
<polygon fill="white" stroke="none" points="260.5,-726.14 260.5,-749.89 289.5,-749.89 289.5,-726.14 260.5,-726.14"/>
<text text-anchor="start" x="264.5" y="-732.59" font-family="Times New Roman,serif" font-size="14.00" fill="darkmagenta">2, 0</text>
</g>
<!-- 13 -->
<g id="node11" class="node">
<title>13</title>
<ellipse fill="none" stroke="black" cx="485.97" cy="-662.38" rx="88.49" ry="18"/>
<text text-anchor="middle" x="485.97" y="-656.95" font-family="Times New Roman,serif" font-size="14.00">13. if type_code &gt; 3:</text>
<text text-anchor="start" x="380.23" y="-667.08" font-family="Times New Roman,serif" font-size="14.00" fill="darkorange">2,4</text>
</g>
<!-- 10&#45;&gt;13 -->
<g id="edge12" class="edge">
<title>10&#45;&gt;13</title>
<path fill="none" stroke="blue" stroke-width="3.88" d="M385.58,-758.68C395.46,-753.28 406.01,-746.83 414.97,-739.81 432.57,-726.02 449.7,-707.76 462.73,-692.54"/>
<polygon fill="blue" stroke="blue" stroke-width="3.88" points="465.16,-695.08 468.87,-685.16 459.78,-690.61 465.16,-695.08"/>
<text text-anchor="middle" x="501.59" y="-726.51" font-family="Times New Roman,serif" font-size="14.00">&quot;(type_code != 0)&quot;</text>
<text text-anchor="middle" x="501.59" y="-710.76" font-family="Times New Roman,serif" font-size="14.00"> Score: 0.72</text>
<polygon fill="white" stroke="none" points="418.7,-698.18 418.7,-721.93 447.7,-721.93 447.7,-698.18 418.7,-698.18"/>
<text text-anchor="start" x="422.7" y="-704.63" font-family="Times New Roman,serif" font-size="14.00" fill="darkmagenta">2, 4</text>
</g>
<!-- 26 -->
<g id="node12" class="node">
<title>26</title>
<ellipse fill="none" stroke="black" cx="218.97" cy="-485.01" rx="69.12" ry="27.93"/>
<text text-anchor="middle" x="218.97" y="-479.59" font-family="Times New Roman,serif" font-size="14.00">26. type_code = 4</text>
<text text-anchor="start" x="132.6" y="-499.64" font-family="Times New Roman,serif" font-size="14.00" fill="darkorange">2,0</text>
</g>
<!-- 11&#45;&gt;26 -->
<g id="edge13" class="edge">
<title>11&#45;&gt;26</title>
<path fill="none" stroke="#429e6a" d="M218.97,-633.98C218.97,-604.51 218.97,-557.43 218.97,-524.3"/>
<polygon fill="#429e6a" stroke="#429e6a" points="222.47,-524.74 218.97,-514.74 215.47,-524.74 222.47,-524.74"/>
<text text-anchor="middle" x="323.22" y="-603.14" font-family="Times New Roman,serif" font-size="14.00">&quot;i + j &lt;= k or j + k &lt;= i or i + k &lt;= j&quot;</text>
<text text-anchor="middle" x="323.22" y="-587.39" font-family="Times New Roman,serif" font-size="14.00">c[11]</text>
<polygon fill="white" stroke="none" points="187.97,-575.61 187.97,-599.36 216.97,-599.36 216.97,-575.61 187.97,-575.61"/>
<text text-anchor="start" x="191.97" y="-582.06" font-family="Times New Roman,serif" font-size="14.00" fill="darkmagenta">2, 0</text>
</g>
<!-- 16 -->
<g id="node13" class="node">
<title>16</title>
<ellipse fill="none" stroke="black" cx="485.97" cy="-548.94" rx="141.88" ry="18"/>
<text text-anchor="middle" x="485.97" y="-543.52" font-family="Times New Roman,serif" font-size="14.00">16. if type_code == 1 and i + j &gt; k:</text>
<text text-anchor="start" x="326.84" y="-553.64" font-family="Times New Roman,serif" font-size="14.00" fill="darkorange">2,4</text>
</g>
<!-- 13&#45;&gt;16 -->
<g id="edge15" class="edge">
<title>13&#45;&gt;16</title>
<path fill="none" stroke="blue" stroke-width="3.88" d="M485.97,-643.96C485.97,-627.69 485.97,-602.97 485.97,-582.96"/>
<polygon fill="blue" stroke="blue" stroke-width="3.88" points="489.47,-583.11 485.97,-573.11 482.47,-583.11 489.47,-583.11"/>
<text text-anchor="middle" x="541.47" y="-603.14" font-family="Times New Roman,serif" font-size="14.00">&quot;(type_code &lt;= 3)&quot;</text>
<text text-anchor="middle" x="541.47" y="-587.39" font-family="Times New Roman,serif" font-size="14.00"> Score: 0.72</text>
<polygon fill="white" stroke="none" points="454.97,-607.75 454.97,-631.5 483.97,-631.5 483.97,-607.75 454.97,-607.75"/>
<text text-anchor="start" x="458.97" y="-614.2" font-family="Times New Roman,serif" font-size="14.00" fill="darkmagenta">2, 4</text>
</g>
<!-- 26&#45;&gt;3 -->
<g id="edge14" class="edge">
<title>26&#45;&gt;3</title>
<path fill="none" stroke="#429e6a" d="M218.97,-457.01C218.97,-431.52 218.97,-392.24 218.97,-358.15 218.97,-358.15 218.97,-358.15 218.97,-154.43 218.97,-95.66 284.91,-67.62 341.81,-54.36"/>
<polygon fill="#429e6a" stroke="#429e6a" points="342.55,-57.78 351.57,-52.22 341.05,-50.94 342.55,-57.78"/>
<polygon fill="white" stroke="none" points="187.97,-156.43 187.97,-180.18 216.97,-180.18 216.97,-156.43 187.97,-156.43"/>
<text text-anchor="start" x="191.97" y="-162.88" font-family="Times New Roman,serif" font-size="14.00" fill="darkmagenta">2, 0</text>
</g>
<!-- 17 -->
<g id="node14" class="node">
<title>17</title>
<ellipse fill="none" stroke="black" cx="384.97" cy="-357.15" rx="150.79" ry="27.93"/>
<text text-anchor="middle" x="384.97" y="-351.73" font-family="Times New Roman,serif" font-size="14.00">17. type_code = display_type_code(2)</text>
<text text-anchor="start" x="216.93" y="-371.78" font-family="Times New Roman,serif" font-size="14.00" fill="darkorange">1,0</text>
</g>
<!-- 16&#45;&gt;17 -->
<g id="edge16" class="edge">
<title>16&#45;&gt;17</title>
<path fill="none" stroke="#429e6a" d="M407.14,-533.62C397.28,-528.62 388.42,-521.92 381.97,-512.94 357.8,-479.31 363.81,-430.09 372.43,-396.23"/>
<polygon fill="#429e6a" stroke="#429e6a" points="375.74,-397.41 375.01,-386.84 368.99,-395.55 375.74,-397.41"/>
<text text-anchor="middle" x="468.97" y="-487.46" font-family="Times New Roman,serif" font-size="14.00">&quot;type_code == 1 and i + j &gt; k&quot;</text>
<text text-anchor="middle" x="468.97" y="-471.71" font-family="Times New Roman,serif" font-size="14.00">c[14]</text>
<polygon fill="white" stroke="none" points="334.2,-463.47 334.2,-487.22 363.2,-487.22 363.2,-463.47 334.2,-463.47"/>
<text text-anchor="start" x="338.2" y="-469.92" font-family="Times New Roman,serif" font-size="14.00" fill="darkmagenta">1, 0</text>
</g>
<!-- 19 -->
<g id="node15" class="node">
<title>19</title>
<ellipse fill="none" stroke="black" cx="581.97" cy="-421.08" rx="141.88" ry="18"/>
<text text-anchor="middle" x="581.97" y="-415.66" font-family="Times New Roman,serif" font-size="14.00">19. if type_code == 2 and i + k &gt; j:</text>
<text text-anchor="start" x="422.84" y="-425.78" font-family="Times New Roman,serif" font-size="14.00" fill="darkorange">1,4</text>
</g>
<!-- 16&#45;&gt;19 -->
<g id="edge17" class="edge">
<title>16&#45;&gt;19</title>
<path fill="none" stroke="blue" stroke-width="4.32" d="M536.07,-531.79C545.07,-526.95 553.6,-520.77 559.97,-512.94 573.08,-496.84 578.58,-474.13 580.8,-455.44"/>
<polygon fill="blue" stroke="blue" stroke-width="4.32" points="584.57,-455.77 581.58,-445.51 577.03,-455.18 584.57,-455.77"/>
<text text-anchor="middle" x="686.84" y="-487.46" font-family="Times New Roman,serif" font-size="14.00">&quot;(not (type_code == 1 and i + j &gt; k))&quot;</text>
<text text-anchor="middle" x="686.84" y="-471.71" font-family="Times New Roman,serif" font-size="14.00"> Score: 0.83</text>
<polygon fill="white" stroke="none" points="541.47,-492.76 541.47,-516.51 570.47,-516.51 570.47,-492.76 541.47,-492.76"/>
<text text-anchor="start" x="545.47" y="-499.21" font-family="Times New Roman,serif" font-size="14.00" fill="darkmagenta">1, 4</text>
</g>
<!-- 17&#45;&gt;3 -->
<g id="edge18" class="edge">
<title>17&#45;&gt;3</title>
<path fill="none" stroke="#429e6a" d="M386.63,-329.1C389.98,-279.14 398.65,-169.16 414.97,-77.75 415.36,-75.59 415.79,-73.36 416.24,-71.12"/>
<polygon fill="#429e6a" stroke="#429e6a" points="419.61,-72.13 418.33,-61.61 412.77,-70.63 419.61,-72.13"/>
<polygon fill="white" stroke="none" points="367.59,-196.18 367.59,-219.93 396.59,-219.93 396.59,-196.18 367.59,-196.18"/>
<text text-anchor="start" x="371.59" y="-202.63" font-family="Times New Roman,serif" font-size="14.00" fill="darkmagenta">1, 0</text>
</g>
<!-- 20 -->
<g id="node16" class="node">
<title>20</title>
<ellipse fill="none" stroke="black" cx="550.97" cy="-229.29" rx="150.79" ry="27.93"/>
<text text-anchor="middle" x="550.97" y="-223.87" font-family="Times New Roman,serif" font-size="14.00">20. type_code = display_type_code(2)</text>
<text text-anchor="start" x="382.93" y="-243.92" font-family="Times New Roman,serif" font-size="14.00" fill="darkorange">1,0</text>
</g>
<!-- 19&#45;&gt;20 -->
<g id="edge19" class="edge">
<title>19&#45;&gt;20</title>
<path fill="none" stroke="#429e6a" d="M565.91,-402.77C561.92,-397.47 558.16,-391.37 555.97,-385.08 542.72,-347.1 543.25,-300.64 545.98,-268.58"/>
<polygon fill="#429e6a" stroke="#429e6a" points="549.43,-269.27 546.91,-258.98 542.46,-268.59 549.43,-269.27"/>
<text text-anchor="middle" x="642.97" y="-359.6" font-family="Times New Roman,serif" font-size="14.00">&quot;type_code == 2 and i + k &gt; j&quot;</text>
<text text-anchor="middle" x="642.97" y="-343.85" font-family="Times New Roman,serif" font-size="14.00">c[15]</text>
<polygon fill="white" stroke="none" points="547.41,-305.09 547.41,-328.84 576.41,-328.84 576.41,-305.09 547.41,-305.09"/>
<text text-anchor="start" x="551.41" y="-311.54" font-family="Times New Roman,serif" font-size="14.00" fill="darkmagenta">1, 0</text>
</g>
<!-- 22 -->
<g id="node17" class="node">
<title>22</title>
<ellipse fill="none" stroke="black" cx="755.97" cy="-293.22" rx="141.88" ry="18"/>
<text text-anchor="middle" x="755.97" y="-287.8" font-family="Times New Roman,serif" font-size="14.00">22. if type_code == 3 and j + k &gt; i:</text>
<text text-anchor="start" x="596.84" y="-297.92" font-family="Times New Roman,serif" font-size="14.00" fill="darkorange">0,4</text>
</g>
<!-- 19&#45;&gt;22 -->
<g id="edge20" class="edge">
<title>19&#45;&gt;22</title>
<path fill="none" stroke="red" stroke-width="5" d="M674.23,-407.04C700.55,-401.58 724.63,-394.32 733.97,-385.08 748.99,-370.23 754.42,-346.99 756.14,-327.74"/>
<polygon fill="red" stroke="red" stroke-width="5" points="760.51,-327.94 756.56,-317.76 751.76,-327.56 760.51,-327.94"/>
<text text-anchor="middle" x="861.84" y="-359.6" font-family="Times New Roman,serif" font-size="14.00">&quot;(not (type_code == 2 and i + k &gt; j))&quot;</text>
<text text-anchor="middle" x="861.84" y="-343.85" font-family="Times New Roman,serif" font-size="14.00"> Score: 1.0</text>
<polygon fill="white" stroke="none" points="742.89,-378.74 742.89,-402.49 771.89,-402.49 771.89,-378.74 742.89,-378.74"/>
<text text-anchor="start" x="746.89" y="-385.19" font-family="Times New Roman,serif" font-size="14.00" fill="darkmagenta">0, 4</text>
</g>
<!-- 20&#45;&gt;3 -->
<g id="edge21" class="edge">
<title>20&#45;&gt;3</title>
<path fill="none" stroke="#429e6a" d="M468.42,-205.64C458.29,-199.82 449.03,-192.52 441.97,-183.36 417.13,-151.16 416.43,-102.02 419.06,-71.17"/>
<polygon fill="#429e6a" stroke="#429e6a" points="422.52,-71.75 420.08,-61.44 415.55,-71.03 422.52,-71.75"/>
<polygon fill="white" stroke="none" points="391.15,-139.62 391.15,-163.37 420.15,-163.37 420.15,-139.62 391.15,-139.62"/>
<text text-anchor="start" x="395.15" y="-146.07" font-family="Times New Roman,serif" font-size="14.00" fill="darkmagenta">1, 0</text>
</g>
<!-- 23 -->
<g id="node18" class="node">
<title>23</title>
<ellipse fill="none" stroke="black" cx="601.97" cy="-155.43" rx="150.79" ry="27.93"/>
<text text-anchor="middle" x="601.97" y="-150.01" font-family="Times New Roman,serif" font-size="14.00">23. type_code = display_type_code(2)</text>
<text text-anchor="start" x="433.93" y="-170.06" font-family="Times New Roman,serif" font-size="14.00" fill="darkorange">0,2</text>
</g>
<!-- 22&#45;&gt;23 -->
<g id="edge22" class="edge">
<title>22&#45;&gt;23</title>
<path fill="none" stroke="red" stroke-width="3.96" d="M739.23,-274.91C734.56,-269.51 729.73,-263.36 725.97,-257.22 711.94,-234.33 721.69,-220.61 702.97,-201.36 698.38,-196.64 693.2,-192.38 687.68,-188.54"/>
<polygon fill="red" stroke="red" stroke-width="3.96" points="689.75,-185.7 679.4,-183.45 686.09,-191.66 689.75,-185.7"/>
<text text-anchor="middle" x="812.97" y="-239.62" font-family="Times New Roman,serif" font-size="14.00">&quot;type_code == 3 and j + k &gt; i&quot;</text>
<text text-anchor="middle" x="812.97" y="-223.87" font-family="Times New Roman,serif" font-size="14.00">c[16]</text>
<text text-anchor="middle" x="812.97" y="-208.12" font-family="Times New Roman,serif" font-size="14.00"> Score: 0.74</text>
<polygon fill="white" stroke="none" points="701.24,-199.74 701.24,-223.49 730.24,-223.49 730.24,-199.74 701.24,-199.74"/>
<text text-anchor="start" x="705.24" y="-206.19" font-family="Times New Roman,serif" font-size="14.00" fill="darkmagenta">0, 2</text>
</g>
<!-- 25 -->
<g id="node19" class="node">
<title>25</title>
<ellipse fill="none" stroke="black" cx="921.97" cy="-155.43" rx="150.79" ry="27.93"/>
<text text-anchor="middle" x="921.97" y="-150.01" font-family="Times New Roman,serif" font-size="14.00">25. type_code = display_type_code(4)</text>
<text text-anchor="start" x="753.93" y="-170.06" font-family="Times New Roman,serif" font-size="14.00" fill="darkorange">0,2</text>
</g>
<!-- 22&#45;&gt;25 -->
<g id="edge23" class="edge">
<title>22&#45;&gt;25</title>
<path fill="none" stroke="red" stroke-width="3.96" d="M843.91,-278.73C868.7,-273.26 891.29,-266.1 899.97,-257.22 914.73,-242.11 920.56,-219.52 922.55,-199.56"/>
<polygon fill="red" stroke="red" stroke-width="3.96" points="926.05,-199.79 923.11,-189.61 919.06,-199.4 926.05,-199.79"/>
<text text-anchor="middle" x="1028.84" y="-239.62" font-family="Times New Roman,serif" font-size="14.00">&quot;(not (type_code == 3 and j + k &gt; i))&quot;</text>
<text text-anchor="middle" x="1028.84" y="-223.87" font-family="Times New Roman,serif" font-size="14.00">c[17]</text>
<text text-anchor="middle" x="1028.84" y="-208.12" font-family="Times New Roman,serif" font-size="14.00"> Score: 0.74</text>
<polygon fill="white" stroke="none" points="910.17,-248.75 910.17,-272.5 939.17,-272.5 939.17,-248.75 910.17,-248.75"/>
<text text-anchor="start" x="914.17" y="-255.2" font-family="Times New Roman,serif" font-size="14.00" fill="darkmagenta">0, 2</text>
</g>
<!-- 23&#45;&gt;3 -->
<g id="edge24" class="edge">
<title>23&#45;&gt;3</title>
<path fill="none" stroke="red" stroke-width="3.96" d="M560,-128.25C530.61,-109.91 491.58,-85.56 462.69,-67.53"/>
<polygon fill="red" stroke="red" stroke-width="3.96" points="464.84,-64.75 454.5,-62.42 461.13,-70.68 464.84,-64.75"/>
<text text-anchor="middle" x="561.72" y="-80.2" font-family="Times New Roman,serif" font-size="14.00"> Score: 0.74</text>
<polygon fill="white" stroke="none" points="473.38,-95.54 473.38,-119.29 502.38,-119.29 502.38,-95.54 473.38,-95.54"/>
<text text-anchor="start" x="477.38" y="-101.99" font-family="Times New Roman,serif" font-size="14.00" fill="darkmagenta">0, 2</text>
</g>
<!-- 25&#45;&gt;3 -->
<g id="edge25" class="edge">
<title>25&#45;&gt;3</title>
<path fill="none" stroke="red" stroke-width="3.96" d="M833.68,-132.44C769.1,-116.58 679.28,-95.03 599.97,-77.75 567.24,-70.62 530.97,-63.34 499.83,-57.28"/>
<polygon fill="red" stroke="red" stroke-width="3.96" points="500.89,-53.92 490.41,-55.46 499.56,-60.79 500.89,-53.92"/>
<text text-anchor="middle" x="765.72" y="-80.2" font-family="Times New Roman,serif" font-size="14.00"> Score: 0.74</text>
<polygon fill="white" stroke="none" points="628.42,-93.02 628.42,-116.77 657.42,-116.77 657.42,-93.02 628.42,-93.02"/>
<text text-anchor="start" x="632.42" y="-99.47" font-family="Times New Roman,serif" font-size="14.00" fill="darkmagenta">0, 2</text>
</g>
</g>
</svg>
