<?xml version="1.0" encoding="UTF-8" standalone="no"?>
<!DOCTYPE svg PUBLIC "-//W3C//DTD SVG 1.1//EN"
 "http://www.w3.org/Graphics/SVG/1.1/DTD/svg11.dtd">
<!-- Generated by graphviz version 12.1.0 (20240811.2233)
 -->
<!-- Title: clusteris_side_two_equal_three Pages: 1 -->
<svg width="259pt" height="355pt"
 viewBox="0.00 0.00 258.95 354.97" xmlns="http://www.w3.org/2000/svg" xmlns:xlink="http://www.w3.org/1999/xlink">
<g id="graph0" class="graph" transform="scale(1 1) rotate(0) translate(4 350.97)">
<title>clusteris_side_two_equal_three</title>
<polygon fill="white" stroke="none" points="-4,4 -4,-350.97 254.95,-350.97 254.95,4 -4,4"/>
<text text-anchor="middle" x="125.47" y="-7.2" font-family="Times New Roman,serif" font-size="14.00">is_side_two_equal_three</text>
<!-- 1 -->
<g id="node1" class="node">
<title>1</title>
<ellipse fill="none" stroke="black" cx="134.1" cy="-301.47" rx="83.44" ry="28.99"/>
<text text-anchor="middle" x="134.1" y="-296.42" font-family="Times New Roman,serif" font-size="14.00">1. if type_code &gt;= 0:</text>
<text text-anchor="start" x="33.41" y="-317.17" font-family="Times New Roman,serif" font-size="14.00" fill="darkorange">0,4</text>
</g>
<!-- 2 -->
<g id="node2" class="node">
<title>2</title>
<ellipse fill="none" stroke="black" cx="134.1" cy="-157.99" rx="116.85" ry="28.99"/>
<text text-anchor="middle" x="134.1" y="-152.94" font-family="Times New Roman,serif" font-size="14.00">2. type_code = type_code + 3</text>
<text text-anchor="start" x="0" y="-173.68" font-family="Times New Roman,serif" font-size="14.00" fill="darkorange">0,4</text>
</g>
<!-- 1&#45;&gt;2 -->
<g id="edge1" class="edge">
<title>1&#45;&gt;2</title>
<path fill="none" stroke="red" stroke-width="5" d="M134.1,-272.18C134.1,-252.52 134.1,-225.91 134.1,-203.43"/>
<polygon fill="red" stroke="red" stroke-width="5" points="138.47,-203.47 134.1,-193.47 129.72,-203.47 138.47,-203.47"/>
<text text-anchor="middle" x="183.22" y="-241.18" font-family="Times New Roman,serif" font-size="14.00">&quot;type_code &gt;= 0&quot;</text>
<text text-anchor="middle" x="183.22" y="-224.68" font-family="Times New Roman,serif" font-size="14.00">c[2]</text>
<text text-anchor="middle" x="183.22" y="-208.18" font-family="Times New Roman,serif" font-size="14.00"> Score: 1.0</text>
<polygon fill="white" stroke="none" points="103.1,-231.32 103.1,-255.82 132.1,-255.82 132.1,-231.32 103.1,-231.32"/>
<text text-anchor="start" x="107.1" y="-238.52" font-family="Times New Roman,serif" font-size="14.00" fill="darkmagenta">0, 4</text>
</g>
<!-- 3 -->
<g id="node3" class="node">
<title>3</title>
<ellipse fill="none" stroke="black" cx="134.1" cy="-42.5" rx="83.08" ry="18"/>
<text text-anchor="middle" x="134.1" y="-37.45" font-family="Times New Roman,serif" font-size="14.00">3. return type_code</text>
<text text-anchor="start" x="33.77" y="-47.2" font-family="Times New Roman,serif" font-size="14.00" fill="darkorange">0,4</text>
</g>
<!-- 2&#45;&gt;3 -->
<g id="edge2" class="edge">
<title>2&#45;&gt;3</title>
<path fill="none" stroke="red" stroke-width="5" d="M134.1,-128.65C134.1,-112.94 134.1,-93.33 134.1,-76.88"/>
<polygon fill="red" stroke="red" stroke-width="5" points="138.47,-77.14 134.1,-67.14 129.72,-77.14 138.47,-77.14"/>
<text text-anchor="middle" x="163.72" y="-81.7" font-family="Times New Roman,serif" font-size="14.00"> Score: 1.0</text>
<polygon fill="white" stroke="none" points="103.1,-96.68 103.1,-121.18 132.1,-121.18 132.1,-96.68 103.1,-96.68"/>
<text text-anchor="start" x="107.1" y="-103.88" font-family="Times New Roman,serif" font-size="14.00" fill="darkmagenta">0, 4</text>
</g>
</g>
</svg>
