<?xml version="1.0" encoding="UTF-8" standalone="no"?>
<!DOCTYPE svg PUBLIC "-//W3C//DTD SVG 1.1//EN"
 "http://www.w3.org/Graphics/SVG/1.1/DTD/svg11.dtd">
<!-- Generated by graphviz version 10.0.1 (20240210.2158)
 -->
<!-- Title: clusteris_side_two_equal_three Pages: 1 -->
<svg width="270pt" height="346pt"
 viewBox="0.00 0.00 269.55 346.22" xmlns="http://www.w3.org/2000/svg" xmlns:xlink="http://www.w3.org/1999/xlink">
<g id="graph0" class="graph" transform="scale(1 1) rotate(0) translate(4 342.22)">
<title>clusteris_side_two_equal_three</title>
<polygon fill="white" stroke="none" points="-4,4 -4,-342.22 265.55,-342.22 265.55,4 -4,4"/>
<text text-anchor="middle" x="130.78" y="-6.45" font-family="Times New Roman,serif" font-size="14.00">is_side_two_equal_three</text>
<!-- 1 -->
<g id="node1" class="node">
<title>1</title>
<ellipse fill="none" stroke="black" cx="139.4" cy="-294.54" rx="85.03" ry="27.93"/>
<text text-anchor="middle" x="139.4" y="-289.12" font-family="Times New Roman,serif" font-size="14.00">1. if type_code &gt;= 0:</text>
<text text-anchor="start" x="37.12" y="-309.17" font-family="Times New Roman,serif" font-size="14.00" fill="darkorange">0,4</text>
</g>
<!-- 2 -->
<g id="node2" class="node">
<title>2</title>
<ellipse fill="none" stroke="black" cx="139.4" cy="-155.43" rx="122.15" ry="27.93"/>
<text text-anchor="middle" x="139.4" y="-150.01" font-family="Times New Roman,serif" font-size="14.00">2. type_code = type_code + 3</text>
<text text-anchor="start" x="0" y="-170.06" font-family="Times New Roman,serif" font-size="14.00" fill="darkorange">0,4</text>
</g>
<!-- 1&#45;&gt;2 -->
<g id="edge1" class="edge">
<title>1&#45;&gt;2</title>
<path fill="none" stroke="red" stroke-width="5" d="M139.4,-266.12C139.4,-247.16 139.4,-221.54 139.4,-199.82"/>
<polygon fill="red" stroke="red" stroke-width="5" points="143.78,-200.04 139.4,-190.04 135.03,-200.04 143.78,-200.04"/>
<text text-anchor="middle" x="190.4" y="-235.31" font-family="Times New Roman,serif" font-size="14.00">&quot;type_code &gt;= 0&quot;</text>
<text text-anchor="middle" x="190.4" y="-219.56" font-family="Times New Roman,serif" font-size="14.00">c[2]</text>
<text text-anchor="middle" x="190.4" y="-203.81" font-family="Times New Roman,serif" font-size="14.00"> Score: 1.0</text>
<polygon fill="white" stroke="none" points="108.4,-226.8 108.4,-250.55 137.4,-250.55 137.4,-226.8 108.4,-226.8"/>
<text text-anchor="start" x="112.4" y="-233.25" font-family="Times New Roman,serif" font-size="14.00" fill="darkmagenta">0, 4</text>
</g>
<!-- 3 -->
<g id="node3" class="node">
<title>3</title>
<ellipse fill="none" stroke="black" cx="139.4" cy="-41.75" rx="83.5" ry="18"/>
<text text-anchor="middle" x="139.4" y="-36.33" font-family="Times New Roman,serif" font-size="14.00">3. return type_code</text>
<text text-anchor="start" x="38.65" y="-46.45" font-family="Times New Roman,serif" font-size="14.00" fill="darkorange">0,4</text>
</g>
<!-- 2&#45;&gt;3 -->
<g id="edge2" class="edge">
<title>2&#45;&gt;3</title>
<path fill="none" stroke="red" stroke-width="5" d="M139.4,-127.11C139.4,-111.75 139.4,-92.44 139.4,-76.18"/>
<polygon fill="red" stroke="red" stroke-width="5" points="143.78,-76.29 139.4,-66.29 135.03,-76.29 143.78,-76.29"/>
<text text-anchor="middle" x="169.78" y="-80.2" font-family="Times New Roman,serif" font-size="14.00"> Score: 1.0</text>
<polygon fill="white" stroke="none" points="108.4,-95.33 108.4,-119.08 137.4,-119.08 137.4,-95.33 108.4,-95.33"/>
<text text-anchor="start" x="112.4" y="-101.78" font-family="Times New Roman,serif" font-size="14.00" fill="darkmagenta">0, 4</text>
</g>
</g>
</svg>
