<?xml version="1.0" encoding="UTF-8" standalone="no"?>
<!DOCTYPE svg PUBLIC "-//W3C//DTD SVG 1.1//EN"
 "http://www.w3.org/Graphics/SVG/1.1/DTD/svg11.dtd">
<!-- Generated by graphviz version 12.1.0 (20240811.2233)
 -->
<!-- Title: clusteris_side_one_equal_two Pages: 1 -->
<svg width="259pt" height="307pt"
 viewBox="0.00 0.00 258.95 306.97" xmlns="http://www.w3.org/2000/svg" xmlns:xlink="http://www.w3.org/1999/xlink">
<g id="graph0" class="graph" transform="scale(1 1) rotate(0) translate(4 302.97)">
<title>clusteris_side_one_equal_two</title>
<polygon fill="white" stroke="none" points="-4,4 -4,-302.97 254.95,-302.97 254.95,4 -4,4"/>
<text text-anchor="middle" x="125.47" y="-7.2" font-family="Times New Roman,serif" font-size="14.00">is_side_one_equal_two</text>
<!-- 1 -->
<g id="node1" class="node">
<title>1</title>
<ellipse fill="none" stroke="black" cx="134.1" cy="-253.47" rx="83.44" ry="28.99"/>
<text text-anchor="middle" x="134.1" y="-248.42" font-family="Times New Roman,serif" font-size="14.00">1. if type_code &gt;= 0:</text>
<text text-anchor="start" x="33.41" y="-269.17" font-family="Times New Roman,serif" font-size="14.00" fill="darkorange">1,0</text>
</g>
<!-- 2 -->
<g id="node2" class="node">
<title>2</title>
<ellipse fill="none" stroke="black" cx="134.1" cy="-126.49" rx="116.85" ry="28.99"/>
<text text-anchor="middle" x="134.1" y="-121.44" font-family="Times New Roman,serif" font-size="14.00">2. type_code = type_code + 1</text>
<text text-anchor="start" x="0" y="-142.18" font-family="Times New Roman,serif" font-size="14.00" fill="darkorange">1,0</text>
</g>
<!-- 1&#45;&gt;2 -->
<g id="edge1" class="edge">
<title>1&#45;&gt;2</title>
<path fill="none" stroke="#429e6a" d="M134.1,-224.11C134.1,-207.26 134.1,-185.62 134.1,-167.09"/>
<polygon fill="#429e6a" stroke="#429e6a" points="137.6,-167.25 134.1,-157.25 130.6,-167.25 137.6,-167.25"/>
<text text-anchor="middle" x="183.22" y="-193.18" font-family="Times New Roman,serif" font-size="14.00">&quot;type_code &gt;= 0&quot;</text>
<text text-anchor="middle" x="183.22" y="-176.68" font-family="Times New Roman,serif" font-size="14.00">c[3]</text>
<polygon fill="white" stroke="none" points="103.1,-191.75 103.1,-216.25 132.1,-216.25 132.1,-191.75 103.1,-191.75"/>
<text text-anchor="start" x="107.1" y="-198.95" font-family="Times New Roman,serif" font-size="14.00" fill="darkmagenta">1, 0</text>
</g>
<!-- 3 -->
<g id="node3" class="node">
<title>3</title>
<ellipse fill="none" stroke="black" cx="134.1" cy="-42.5" rx="83.08" ry="18"/>
<text text-anchor="middle" x="134.1" y="-37.45" font-family="Times New Roman,serif" font-size="14.00">3. return type_code</text>
<text text-anchor="start" x="33.77" y="-47.2" font-family="Times New Roman,serif" font-size="14.00" fill="darkorange">1,0</text>
</g>
<!-- 2&#45;&gt;3 -->
<g id="edge2" class="edge">
<title>2&#45;&gt;3</title>
<path fill="none" stroke="#429e6a" d="M134.1,-97.27C134.1,-89.06 134.1,-80.08 134.1,-71.86"/>
<polygon fill="#429e6a" stroke="#429e6a" points="137.6,-72.03 134.1,-62.03 130.6,-72.03 137.6,-72.03"/>
<polygon fill="white" stroke="none" points="103.1,-80.94 103.1,-105.44 132.1,-105.44 132.1,-80.94 103.1,-80.94"/>
<text text-anchor="start" x="107.1" y="-88.14" font-family="Times New Roman,serif" font-size="14.00" fill="darkmagenta">1, 0</text>
</g>
</g>
</svg>
