<?xml version="1.0" encoding="UTF-8" standalone="no"?>
<!DOCTYPE svg PUBLIC "-//W3C//DTD SVG 1.1//EN"
 "http://www.w3.org/Graphics/SVG/1.1/DTD/svg11.dtd">
<!-- Generated by graphviz version 10.0.1 (20240210.2158)
 -->
<!-- Title: clusteris_side_one_equal_three Pages: 1 -->
<svg width="270pt" height="300pt"
 viewBox="0.00 0.00 269.55 299.72" xmlns="http://www.w3.org/2000/svg" xmlns:xlink="http://www.w3.org/1999/xlink">
<g id="graph0" class="graph" transform="scale(1 1) rotate(0) translate(4 295.72)">
<title>clusteris_side_one_equal_three</title>
<polygon fill="white" stroke="none" points="-4,4 -4,-295.72 265.55,-295.72 265.55,4 -4,4"/>
<text text-anchor="middle" x="130.78" y="-6.45" font-family="Times New Roman,serif" font-size="14.00">is_side_one_equal_three</text>
<!-- 1 -->
<g id="node1" class="node">
<title>1</title>
<ellipse fill="none" stroke="black" cx="139.4" cy="-248.04" rx="85.03" ry="27.93"/>
<text text-anchor="middle" x="139.4" y="-242.62" font-family="Times New Roman,serif" font-size="14.00">1. if type_code &gt;= 0:</text>
<text text-anchor="start" x="37.12" y="-262.67" font-family="Times New Roman,serif" font-size="14.00" fill="darkorange">1,0</text>
</g>
<!-- 2 -->
<g id="node2" class="node">
<title>2</title>
<ellipse fill="none" stroke="black" cx="139.4" cy="-124.68" rx="122.15" ry="27.93"/>
<text text-anchor="middle" x="139.4" y="-119.26" font-family="Times New Roman,serif" font-size="14.00">2. type_code = type_code + 2</text>
<text text-anchor="start" x="0" y="-139.31" font-family="Times New Roman,serif" font-size="14.00" fill="darkorange">1,0</text>
</g>
<!-- 1&#45;&gt;2 -->
<g id="edge1" class="edge">
<title>1&#45;&gt;2</title>
<path fill="none" stroke="#429e6a" d="M139.4,-219.81C139.4,-203.41 139.4,-182.28 139.4,-164.19"/>
<polygon fill="#429e6a" stroke="#429e6a" points="142.9,-164.34 139.4,-154.34 135.9,-164.34 142.9,-164.34"/>
<text text-anchor="middle" x="190.4" y="-188.81" font-family="Times New Roman,serif" font-size="14.00">&quot;type_code &gt;= 0&quot;</text>
<text text-anchor="middle" x="190.4" y="-173.06" font-family="Times New Roman,serif" font-size="14.00">c[4]</text>
<polygon fill="white" stroke="none" points="108.4,-188.32 108.4,-212.07 137.4,-212.07 137.4,-188.32 108.4,-188.32"/>
<text text-anchor="start" x="112.4" y="-194.77" font-family="Times New Roman,serif" font-size="14.00" fill="darkmagenta">1, 0</text>
</g>
<!-- 3 -->
<g id="node3" class="node">
<title>3</title>
<ellipse fill="none" stroke="black" cx="139.4" cy="-41.75" rx="83.5" ry="18"/>
<text text-anchor="middle" x="139.4" y="-36.33" font-family="Times New Roman,serif" font-size="14.00">3. return type_code</text>
<text text-anchor="start" x="38.65" y="-46.45" font-family="Times New Roman,serif" font-size="14.00" fill="darkorange">1,0</text>
</g>
<!-- 2&#45;&gt;3 -->
<g id="edge2" class="edge">
<title>2&#45;&gt;3</title>
<path fill="none" stroke="#429e6a" d="M139.4,-96.28C139.4,-88.36 139.4,-79.7 139.4,-71.69"/>
<polygon fill="#429e6a" stroke="#429e6a" points="142.9,-71.74 139.4,-61.74 135.9,-71.74 142.9,-71.74"/>
<polygon fill="white" stroke="none" points="133.15,-52.82 133.15,-76.57 162.15,-76.57 162.15,-52.82 133.15,-52.82"/>
<text text-anchor="start" x="137.15" y="-59.27" font-family="Times New Roman,serif" font-size="14.00" fill="darkmagenta">1, 0</text>
</g>
</g>
</svg>
