<?xml version="1.0" encoding="UTF-8" standalone="no"?>
<!DOCTYPE svg PUBLIC "-//W3C//DTD SVG 1.1//EN"
 "http://www.w3.org/Graphics/SVG/1.1/DTD/svg11.dtd">
<!-- Generated by graphviz version 10.0.1 (20240210.2158)
 -->
<!-- Title: clustertrityp Pages: 1 -->
<svg width="1375pt" height="1659pt"
 viewBox="0.00 0.00 1375.12 1658.75" xmlns="http://www.w3.org/2000/svg" xmlns:xlink="http://www.w3.org/1999/xlink">
<g id="graph0" class="graph" transform="scale(1 1) rotate(0) translate(4 1654.75)">
<title>clustertrityp</title>
<polygon fill="white" stroke="none" points="-4,4 -4,-1654.75 1371.12,-1654.75 1371.12,4 -4,4"/>
<text text-anchor="middle" x="683.56" y="-6.45" font-family="Times New Roman,serif" font-size="14.00">trityp</text>
<!-- 1 -->
<g id="node1" class="node">
<title>1</title>
<ellipse fill="none" stroke="black" cx="189.37" cy="-1607.07" rx="123.21" ry="27.93"/>
<text text-anchor="middle" x="189.37" y="-1601.64" font-family="Times New Roman,serif" font-size="14.00">1. if i == 0 or j == 0 or k == 0:</text>
<text text-anchor="start" x="48.91" y="-1621.7" font-family="Times New Roman,serif" font-size="14.00" fill="darkorange">4,4</text>
</g>
<!-- 2 -->
<g id="node2" class="node">
<title>2</title>
<ellipse fill="none" stroke="black" cx="86.37" cy="-1371.82" rx="69.12" ry="27.93"/>
<text text-anchor="middle" x="86.37" y="-1366.4" font-family="Times New Roman,serif" font-size="14.00">2. type_code = 3</text>
<text text-anchor="start" x="0" y="-1386.45" font-family="Times New Roman,serif" font-size="14.00" fill="darkorange">0,0</text>
</g>
<!-- 1&#45;&gt;2 -->
<g id="edge1" class="edge">
<title>1&#45;&gt;2</title>
<path fill="none" stroke="black" d="M123.77,-1583.14C114.62,-1577.3 106.33,-1570.06 100.37,-1561.14 70.63,-1516.59 73.14,-1452.21 78.86,-1411.45"/>
<polygon fill="black" stroke="black" points="82.31,-1412.02 80.39,-1401.6 75.4,-1410.95 82.31,-1412.02"/>
<text text-anchor="middle" x="178.37" y="-1539.96" font-family="Times New Roman,serif" font-size="14.00">&quot;i == 0 or j == 0 or k == 0&quot;</text>
<text text-anchor="middle" x="178.37" y="-1524.21" font-family="Times New Roman,serif" font-size="14.00">c[5]</text>
<polygon fill="white" stroke="none" points="46.42,-1496.92 46.42,-1520.67 75.42,-1520.67 75.42,-1496.92 46.42,-1496.92"/>
<text text-anchor="start" x="50.42" y="-1503.37" font-family="Times New Roman,serif" font-size="14.00" fill="darkmagenta">0, 0</text>
</g>
<!-- 4 -->
<g id="node3" class="node">
<title>4</title>
<ellipse fill="none" stroke="black" cx="293.37" cy="-1456.82" rx="69.12" ry="39.07"/>
<text text-anchor="middle" x="293.37" y="-1459.27" font-family="Times New Roman,serif" font-size="14.00">4. type_code = 0</text>
<text text-anchor="middle" x="293.37" y="-1443.52" font-family="Times New Roman,serif" font-size="14.00">if i == j:</text>
<text text-anchor="start" x="207" y="-1482.59" font-family="Times New Roman,serif" font-size="14.00" fill="darkorange">4,4</text>
</g>
<!-- 1&#45;&gt;4 -->
<g id="edge2" class="edge">
<title>1&#45;&gt;4</title>
<path fill="none" stroke="blue" stroke-width="3.28" d="M238.92,-1581.14C246.91,-1575.43 254.48,-1568.75 260.37,-1561.14 271.65,-1546.54 279.13,-1527.99 284.06,-1510.65"/>
<polygon fill="blue" stroke="blue" stroke-width="3.28" points="287.45,-1511.53 286.49,-1500.98 280.66,-1509.82 287.45,-1511.53"/>
<text text-anchor="middle" x="379.25" y="-1547.84" font-family="Times New Roman,serif" font-size="14.00">&quot;(not (i == 0 or j == 0 or k == 0))&quot;</text>
<text text-anchor="middle" x="379.25" y="-1532.09" font-family="Times New Roman,serif" font-size="14.00">c[6]</text>
<text text-anchor="middle" x="379.25" y="-1516.34" font-family="Times New Roman,serif" font-size="14.00"> Score: 0.57</text>
<polygon fill="white" stroke="none" points="240.72,-1544.93 240.72,-1568.68 269.72,-1568.68 269.72,-1544.93 240.72,-1544.93"/>
<text text-anchor="start" x="244.72" y="-1551.38" font-family="Times New Roman,serif" font-size="14.00" fill="darkmagenta">4, 4</text>
</g>
<!-- 3 -->
<g id="node4" class="node">
<title>3</title>
<ellipse fill="none" stroke="black" cx="606.37" cy="-41.75" rx="83.5" ry="18"/>
<text text-anchor="middle" x="606.37" y="-36.33" font-family="Times New Roman,serif" font-size="14.00">3. return type_code</text>
<text text-anchor="start" x="505.62" y="-46.45" font-family="Times New Roman,serif" font-size="14.00" fill="darkorange">4,4</text>
</g>
<!-- 2&#45;&gt;3 -->
<g id="edge3" class="edge">
<title>2&#45;&gt;3</title>
<path fill="none" stroke="black" d="M76.62,-1343.85C68.89,-1320.03 59.37,-1284.18 59.37,-1252.03 59.37,-1252.03 59.37,-1252.03 59.37,-154.43 59.37,-63.3 354.51,-45.79 511.2,-42.92"/>
<polygon fill="black" stroke="black" points="511.24,-46.42 521.18,-42.75 511.13,-39.42 511.24,-46.42"/>
<polygon fill="white" stroke="none" points="28.37,-156.43 28.37,-180.18 57.37,-180.18 57.37,-156.43 28.37,-156.43"/>
<text text-anchor="start" x="32.37" y="-162.88" font-family="Times New Roman,serif" font-size="14.00" fill="darkmagenta">0, 0</text>
</g>
<!-- 5 -->
<g id="node5" class="node">
<title>5</title>
<ellipse fill="none" stroke="black" cx="293.37" cy="-1297.96" rx="205.95" ry="27.93"/>
<text text-anchor="middle" x="293.37" y="-1292.53" font-family="Times New Roman,serif" font-size="14.00">5. type_code = is_side_one_equal_two(type_code)</text>
<text text-anchor="start" x="70.17" y="-1312.59" font-family="Times New Roman,serif" font-size="14.00" fill="darkorange">1,0</text>
</g>
<!-- 4&#45;&gt;5 -->
<g id="edge4" class="edge">
<title>4&#45;&gt;5</title>
<path fill="none" stroke="#429e6a" d="M293.37,-1417.45C293.37,-1393.13 293.37,-1361.78 293.37,-1337.44"/>
<polygon fill="#429e6a" stroke="#429e6a" points="296.87,-1337.63 293.37,-1327.63 289.87,-1337.63 296.87,-1337.63"/>
<text text-anchor="middle" x="314.37" y="-1374.27" font-family="Times New Roman,serif" font-size="14.00">&quot;i == j&quot;</text>
<text text-anchor="middle" x="314.37" y="-1358.52" font-family="Times New Roman,serif" font-size="14.00">c[7]</text>
<polygon fill="white" stroke="none" points="262.37,-1373.59 262.37,-1397.34 291.37,-1397.34 291.37,-1373.59 262.37,-1373.59"/>
<text text-anchor="start" x="266.37" y="-1380.04" font-family="Times New Roman,serif" font-size="14.00" fill="darkmagenta">1, 0</text>
</g>
<!-- 6 -->
<g id="node6" class="node">
<title>6</title>
<ellipse fill="none" stroke="black" cx="502.37" cy="-1215.03" rx="52.06" ry="18"/>
<text text-anchor="middle" x="502.37" y="-1209.6" font-family="Times New Roman,serif" font-size="14.00">6. if i == k:</text>
<text text-anchor="start" x="433.06" y="-1219.73" font-family="Times New Roman,serif" font-size="14.00" fill="darkorange">4,4</text>
</g>
<!-- 4&#45;&gt;6 -->
<g id="edge5" class="edge">
<title>4&#45;&gt;6</title>
<path fill="none" stroke="blue" stroke-width="3.52" d="M354.11,-1437.78C405.42,-1418.95 475.64,-1383.91 508.37,-1325.89 521.71,-1302.23 518.38,-1270.96 512.79,-1247.84"/>
<polygon fill="blue" stroke="blue" stroke-width="3.52" points="516.22,-1247.14 510.16,-1238.45 509.48,-1249.02 516.22,-1247.14"/>
<text text-anchor="middle" x="551.12" y="-1300.41" font-family="Times New Roman,serif" font-size="14.00">&quot;(i != j)&quot;</text>
<text text-anchor="middle" x="551.12" y="-1284.66" font-family="Times New Roman,serif" font-size="14.00"> Score: 0.63</text>
<polygon fill="white" stroke="none" points="434.73,-1378.08 434.73,-1401.83 463.73,-1401.83 463.73,-1378.08 434.73,-1378.08"/>
<text text-anchor="start" x="438.73" y="-1384.53" font-family="Times New Roman,serif" font-size="14.00" fill="darkmagenta">3, 4</text>
</g>
<!-- 5&#45;&gt;6 -->
<g id="edge6" class="edge">
<title>5&#45;&gt;6</title>
<path fill="none" stroke="#429e6a" d="M360.07,-1271.13C392.17,-1258.7 429.77,-1244.14 458.25,-1233.11"/>
<polygon fill="#429e6a" stroke="#429e6a" points="459.22,-1236.49 467.28,-1229.62 456.69,-1229.96 459.22,-1236.49"/>
<polygon fill="white" stroke="none" points="383.48,-1224.31 383.48,-1248.06 412.48,-1248.06 412.48,-1224.31 383.48,-1224.31"/>
<text text-anchor="start" x="387.48" y="-1230.76" font-family="Times New Roman,serif" font-size="14.00" fill="darkmagenta">1, 0</text>
</g>
<!-- 7 -->
<g id="node7" class="node">
<title>7</title>
<ellipse fill="none" stroke="black" cx="375.37" cy="-1101.6" rx="210.19" ry="27.93"/>
<text text-anchor="middle" x="375.37" y="-1096.17" font-family="Times New Roman,serif" font-size="14.00">7. type_code = is_side_one_equal_three(type_code)</text>
<text text-anchor="start" x="147.93" y="-1116.23" font-family="Times New Roman,serif" font-size="14.00" fill="darkorange">1,0</text>
</g>
<!-- 6&#45;&gt;7 -->
<g id="edge7" class="edge">
<title>6&#45;&gt;7</title>
<path fill="none" stroke="#429e6a" d="M483.9,-1197.83C465.85,-1181.98 437.78,-1157.36 414.71,-1137.12"/>
<polygon fill="#429e6a" stroke="#429e6a" points="417.11,-1134.57 407.29,-1130.6 412.49,-1139.83 417.11,-1134.57"/>
<text text-anchor="middle" x="483.25" y="-1165.73" font-family="Times New Roman,serif" font-size="14.00">&quot;i == k&quot;</text>
<text text-anchor="middle" x="483.25" y="-1149.98" font-family="Times New Roman,serif" font-size="14.00">c[8]</text>
<polygon fill="white" stroke="none" points="413.87,-1165.58 413.87,-1189.33 442.87,-1189.33 442.87,-1165.58 413.87,-1165.58"/>
<text text-anchor="start" x="417.87" y="-1172.03" font-family="Times New Roman,serif" font-size="14.00" fill="darkmagenta">1, 0</text>
</g>
<!-- 8 -->
<g id="node8" class="node">
<title>8</title>
<ellipse fill="none" stroke="black" cx="554.37" cy="-1018.67" rx="52.06" ry="18"/>
<text text-anchor="middle" x="554.37" y="-1013.24" font-family="Times New Roman,serif" font-size="14.00">8. if j == k:</text>
<text text-anchor="start" x="485.06" y="-1023.37" font-family="Times New Roman,serif" font-size="14.00" fill="darkorange">4,4</text>
</g>
<!-- 6&#45;&gt;8 -->
<g id="edge8" class="edge">
<title>6&#45;&gt;8</title>
<path fill="none" stroke="blue" stroke-width="3.52" d="M528.15,-1199.04C550.37,-1184.47 580.94,-1160.11 594.37,-1129.53 604.36,-1106.8 602.15,-1097.24 594.37,-1073.67 591.34,-1064.47 586.06,-1055.56 580.32,-1047.72"/>
<polygon fill="blue" stroke="blue" stroke-width="3.52" points="583.23,-1045.74 574.21,-1040.17 577.79,-1050.15 583.23,-1045.74"/>
<text text-anchor="middle" x="634.12" y="-1104.05" font-family="Times New Roman,serif" font-size="14.00">&quot;(i != k)&quot;</text>
<text text-anchor="middle" x="634.12" y="-1088.3" font-family="Times New Roman,serif" font-size="14.00"> Score: 0.63</text>
<polygon fill="white" stroke="none" points="563.38,-1131.51 563.38,-1155.26 592.38,-1155.26 592.38,-1131.51 563.38,-1131.51"/>
<text text-anchor="start" x="567.38" y="-1137.96" font-family="Times New Roman,serif" font-size="14.00" fill="darkmagenta">3, 4</text>
</g>
<!-- 7&#45;&gt;8 -->
<g id="edge9" class="edge">
<title>7&#45;&gt;8</title>
<path fill="none" stroke="#429e6a" d="M433.49,-1074.32C459.51,-1062.55 489.59,-1048.95 513.24,-1038.26"/>
<polygon fill="#429e6a" stroke="#429e6a" points="514.56,-1041.51 522.23,-1034.2 511.68,-1035.13 514.56,-1041.51"/>
<polygon fill="white" stroke="none" points="447.75,-1028.11 447.75,-1051.86 476.75,-1051.86 476.75,-1028.11 447.75,-1028.11"/>
<text text-anchor="start" x="451.75" y="-1034.56" font-family="Times New Roman,serif" font-size="14.00" fill="darkmagenta">1, 0</text>
</g>
<!-- 9 -->
<g id="node9" class="node">
<title>9</title>
<ellipse fill="none" stroke="black" cx="308.37" cy="-889.49" rx="210.72" ry="27.93"/>
<text text-anchor="middle" x="308.37" y="-884.06" font-family="Times New Roman,serif" font-size="14.00">9. type_code = is_side_two_equal_three(type_code)</text>
<text text-anchor="start" x="80.4" y="-904.12" font-family="Times New Roman,serif" font-size="14.00" fill="darkorange">0,4</text>
</g>
<!-- 8&#45;&gt;9 -->
<g id="edge10" class="edge">
<title>8&#45;&gt;9</title>
<path fill="none" stroke="red" stroke-width="5" d="M524.07,-1003.69C510.68,-997.41 494.79,-989.82 480.62,-982.67 443.82,-964.1 403.15,-942.39 370.57,-924.71"/>
<polygon fill="red" stroke="red" stroke-width="5" points="373.03,-921.06 362.15,-920.12 368.84,-928.75 373.03,-921.06"/>
<text text-anchor="middle" x="510.75" y="-969.37" font-family="Times New Roman,serif" font-size="14.00">&quot;j == k&quot;</text>
<text text-anchor="middle" x="510.75" y="-953.62" font-family="Times New Roman,serif" font-size="14.00">c[9]</text>
<text text-anchor="middle" x="510.75" y="-937.87" font-family="Times New Roman,serif" font-size="14.00"> Score: 1.0</text>
<polygon fill="white" stroke="none" points="408.55,-963.53 408.55,-987.28 437.55,-987.28 437.55,-963.53 408.55,-963.53"/>
<text text-anchor="start" x="412.55" y="-969.98" font-family="Times New Roman,serif" font-size="14.00" fill="darkmagenta">0, 4</text>
</g>
<!-- 10 -->
<g id="node10" class="node">
<title>10</title>
<ellipse fill="none" stroke="black" cx="424.37" cy="-775.81" rx="93.98" ry="18"/>
<text text-anchor="middle" x="424.37" y="-770.38" font-family="Times New Roman,serif" font-size="14.00">10. if type_code == 0:</text>
<text text-anchor="start" x="313.14" y="-780.51" font-family="Times New Roman,serif" font-size="14.00" fill="darkorange">4,4</text>
</g>
<!-- 8&#45;&gt;10 -->
<g id="edge11" class="edge">
<title>8&#45;&gt;10</title>
<path fill="none" stroke="#429e6a" d="M555.36,-1000.39C556.3,-970.09 554.65,-906.34 528.37,-861.56 513.07,-835.48 486.55,-814.06 464.12,-799.28"/>
<polygon fill="#429e6a" stroke="#429e6a" points="466.08,-796.38 455.76,-793.97 462.33,-802.29 466.08,-796.38"/>
<text text-anchor="middle" x="567.87" y="-884.06" font-family="Times New Roman,serif" font-size="14.00">(j != k)</text>
<polygon fill="white" stroke="none" points="497.36,-835.8 497.36,-859.55 526.36,-859.55 526.36,-835.8 497.36,-835.8"/>
<text text-anchor="start" x="501.36" y="-842.25" font-family="Times New Roman,serif" font-size="14.00" fill="darkmagenta">4, 0</text>
</g>
<!-- 9&#45;&gt;10 -->
<g id="edge12" class="edge">
<title>9&#45;&gt;10</title>
<path fill="none" stroke="red" stroke-width="5" d="M336.45,-861.45C354.21,-844.35 377.13,-822.29 395.11,-804.98"/>
<polygon fill="red" stroke="red" stroke-width="5" points="397.98,-808.28 402.15,-798.2 391.91,-801.98 397.98,-808.28"/>
<text text-anchor="middle" x="416.75" y="-814.26" font-family="Times New Roman,serif" font-size="14.00"> Score: 1.0</text>
<polygon fill="white" stroke="none" points="340.66,-829.55 340.66,-853.3 369.66,-853.3 369.66,-829.55 340.66,-829.55"/>
<text text-anchor="start" x="344.66" y="-836" font-family="Times New Roman,serif" font-size="14.00" fill="darkmagenta">0, 4</text>
</g>
<!-- 11 -->
<g id="node11" class="node">
<title>11</title>
<ellipse fill="none" stroke="black" cx="324.37" cy="-303.15" rx="160.34" ry="27.93"/>
<text text-anchor="middle" x="324.37" y="-297.73" font-family="Times New Roman,serif" font-size="14.00">11. if i + j &lt;= k or j + k &lt;= i or i + k &lt;= j:</text>
<text text-anchor="start" x="146.78" y="-317.78" font-family="Times New Roman,serif" font-size="14.00" fill="darkorange">2,0</text>
</g>
<!-- 10&#45;&gt;11 -->
<g id="edge13" class="edge">
<title>10&#45;&gt;11</title>
<path fill="none" stroke="#429e6a" d="M414.72,-757.43C404.67,-737.67 390.37,-704.16 390.37,-673.31 390.37,-673.31 390.37,-673.31 390.37,-439.94 390.37,-403.29 370.68,-366.17 352.81,-340.02"/>
<polygon fill="#429e6a" stroke="#429e6a" points="355.86,-338.27 347.22,-332.14 350.15,-342.32 355.86,-338.27"/>
<text text-anchor="middle" x="441.37" y="-571.26" font-family="Times New Roman,serif" font-size="14.00">&quot;type_code == 0&quot;</text>
<text text-anchor="middle" x="441.37" y="-555.51" font-family="Times New Roman,serif" font-size="14.00">c[10]</text>
<polygon fill="white" stroke="none" points="359.37,-441.94 359.37,-465.69 388.37,-465.69 388.37,-441.94 359.37,-441.94"/>
<text text-anchor="start" x="363.37" y="-448.39" font-family="Times New Roman,serif" font-size="14.00" fill="darkmagenta">2, 0</text>
</g>
<!-- 13 -->
<g id="node12" class="node">
<title>13</title>
<ellipse fill="none" stroke="black" cx="584.37" cy="-672.31" rx="88.49" ry="18"/>
<text text-anchor="middle" x="584.37" y="-666.88" font-family="Times New Roman,serif" font-size="14.00">13. if type_code &gt; 3:</text>
<text text-anchor="start" x="478.63" y="-677.01" font-family="Times New Roman,serif" font-size="14.00" fill="darkorange">2,4</text>
</g>
<!-- 10&#45;&gt;13 -->
<g id="edge14" class="edge">
<title>10&#45;&gt;13</title>
<path fill="none" stroke="blue" stroke-width="3.88" d="M450.79,-758.05C476.46,-741.76 515.75,-716.84 545.08,-698.23"/>
<polygon fill="blue" stroke="blue" stroke-width="3.88" points="546.65,-701.38 553.22,-693.07 542.9,-695.47 546.65,-701.38"/>
<text text-anchor="middle" x="581" y="-726.51" font-family="Times New Roman,serif" font-size="14.00">&quot;(type_code != 0)&quot;</text>
<text text-anchor="middle" x="581" y="-710.76" font-family="Times New Roman,serif" font-size="14.00"> Score: 0.72</text>
<polygon fill="white" stroke="none" points="473.41,-726.03 473.41,-749.78 502.41,-749.78 502.41,-726.03 473.41,-726.03"/>
<text text-anchor="start" x="477.41" y="-732.48" font-family="Times New Roman,serif" font-size="14.00" fill="darkmagenta">2, 4</text>
</g>
<!-- 26 -->
<g id="node13" class="node">
<title>26</title>
<ellipse fill="none" stroke="black" cx="201.37" cy="-155.43" rx="69.12" ry="27.93"/>
<text text-anchor="middle" x="201.37" y="-150.01" font-family="Times New Roman,serif" font-size="14.00">26. type_code = 4</text>
<text text-anchor="start" x="115" y="-170.06" font-family="Times New Roman,serif" font-size="14.00" fill="darkorange">2,0</text>
</g>
<!-- 11&#45;&gt;26 -->
<g id="edge15" class="edge">
<title>11&#45;&gt;26</title>
<path fill="none" stroke="#429e6a" d="M185.99,-288.72C147.53,-281.96 112.94,-271.96 100.87,-257.22 85.14,-238.01 87.36,-222.19 100.87,-201.36 108.3,-189.9 119.42,-181.33 131.59,-174.94"/>
<polygon fill="#429e6a" stroke="#429e6a" points="133.05,-178.12 140.62,-170.71 130.08,-171.78 133.05,-178.12"/>
<text text-anchor="middle" x="205.62" y="-231.74" font-family="Times New Roman,serif" font-size="14.00">&quot;i + j &lt;= k or j + k &lt;= i or i + k &lt;= j&quot;</text>
<text text-anchor="middle" x="205.62" y="-215.99" font-family="Times New Roman,serif" font-size="14.00">c[11]</text>
<polygon fill="white" stroke="none" points="119.44,-283.07 119.44,-306.82 148.44,-306.82 148.44,-283.07 119.44,-283.07"/>
<text text-anchor="start" x="123.44" y="-289.52" font-family="Times New Roman,serif" font-size="14.00" fill="darkmagenta">2, 0</text>
</g>
<!-- 28 -->
<g id="node14" class="node">
<title>28</title>
<ellipse fill="none" stroke="black" cx="446.37" cy="-155.43" rx="69.12" ry="27.93"/>
<text text-anchor="middle" x="446.37" y="-150.01" font-family="Times New Roman,serif" font-size="14.00">28. type_code = 1</text>
<text text-anchor="start" x="360" y="-170.06" font-family="Times New Roman,serif" font-size="14.00" fill="darkorange">0,0</text>
</g>
<!-- 11&#45;&gt;28 -->
<g id="edge16" class="edge">
<title>11&#45;&gt;28</title>
<path fill="none" stroke="black" d="M316.72,-274.79C312.32,-252.94 310.25,-222.56 325.12,-201.36 336.01,-185.84 352.91,-175.67 370.67,-169.01"/>
<polygon fill="black" stroke="black" points="371.68,-172.36 380.05,-165.87 369.46,-165.72 371.68,-172.36"/>
<text text-anchor="middle" x="448.5" y="-231.74" font-family="Times New Roman,serif" font-size="14.00">&quot;(not (i + j &lt;= k or j + k &lt;= i or i + k &lt;= j))&quot;</text>
<text text-anchor="middle" x="448.5" y="-215.99" font-family="Times New Roman,serif" font-size="14.00">c[12]</text>
<polygon fill="white" stroke="none" points="294.18,-175.52 294.18,-199.27 323.18,-199.27 323.18,-175.52 294.18,-175.52"/>
<text text-anchor="start" x="298.18" y="-181.97" font-family="Times New Roman,serif" font-size="14.00" fill="darkmagenta">0, 0</text>
</g>
<!-- 14 -->
<g id="node15" class="node">
<title>14</title>
<ellipse fill="none" stroke="black" cx="585.37" cy="-504.88" rx="69.12" ry="27.93"/>
<text text-anchor="middle" x="585.37" y="-499.45" font-family="Times New Roman,serif" font-size="14.00">14. type_code = 3</text>
<text text-anchor="start" x="499" y="-519.51" font-family="Times New Roman,serif" font-size="14.00" fill="darkorange">0,0</text>
</g>
<!-- 13&#45;&gt;14 -->
<g id="edge19" class="edge">
<title>13&#45;&gt;14</title>
<path fill="none" stroke="black" d="M584.42,-654.08C584.46,-640.66 584.53,-621.55 584.62,-604.81 584.73,-584.94 584.9,-562.83 585.04,-544.56"/>
<polygon fill="black" stroke="black" points="588.54,-544.71 585.12,-534.68 581.54,-544.65 588.54,-544.71"/>
<text text-anchor="middle" x="631.25" y="-623.01" font-family="Times New Roman,serif" font-size="14.00">&quot;type_code &gt; 3&quot;</text>
<text text-anchor="middle" x="631.25" y="-607.26" font-family="Times New Roman,serif" font-size="14.00">c[13]</text>
<polygon fill="white" stroke="none" points="553.69,-595.91 553.69,-619.66 582.69,-619.66 582.69,-595.91 553.69,-595.91"/>
<text text-anchor="start" x="557.69" y="-602.36" font-family="Times New Roman,serif" font-size="14.00" fill="darkmagenta">0, 0</text>
</g>
<!-- 16 -->
<g id="node16" class="node">
<title>16</title>
<ellipse fill="none" stroke="black" cx="754.37" cy="-568.81" rx="141.88" ry="18"/>
<text text-anchor="middle" x="754.37" y="-563.38" font-family="Times New Roman,serif" font-size="14.00">16. if type_code == 1 and i + j &gt; k:</text>
<text text-anchor="start" x="595.24" y="-573.51" font-family="Times New Roman,serif" font-size="14.00" fill="darkorange">2,4</text>
</g>
<!-- 13&#45;&gt;16 -->
<g id="edge20" class="edge">
<title>13&#45;&gt;16</title>
<path fill="none" stroke="blue" stroke-width="3.88" d="M635.74,-657.3C651.31,-651.93 668.07,-644.96 682.37,-636.31 699.31,-626.05 715.73,-611.38 728.6,-598.42"/>
<polygon fill="blue" stroke="blue" stroke-width="3.88" points="730.9,-601.08 735.28,-591.43 725.84,-596.24 730.9,-601.08"/>
<text text-anchor="middle" x="776.87" y="-623.01" font-family="Times New Roman,serif" font-size="14.00">&quot;(type_code &lt;= 3)&quot;</text>
<text text-anchor="middle" x="776.87" y="-607.26" font-family="Times New Roman,serif" font-size="14.00"> Score: 0.72</text>
<polygon fill="white" stroke="none" points="686.35,-603.81 686.35,-627.56 715.35,-627.56 715.35,-603.81 686.35,-603.81"/>
<text text-anchor="start" x="690.35" y="-610.26" font-family="Times New Roman,serif" font-size="14.00" fill="darkmagenta">2, 4</text>
</g>
<!-- 26&#45;&gt;3 -->
<g id="edge17" class="edge">
<title>26&#45;&gt;3</title>
<path fill="none" stroke="#429e6a" d="M257.68,-138.9C333.3,-118.05 467.14,-81.14 545.17,-59.63"/>
<polygon fill="#429e6a" stroke="#429e6a" points="546.1,-63 554.81,-56.97 544.23,-56.25 546.1,-63"/>
<polygon fill="white" stroke="none" points="376.31,-99.64 376.31,-123.39 405.31,-123.39 405.31,-99.64 376.31,-99.64"/>
<text text-anchor="start" x="380.31" y="-106.09" font-family="Times New Roman,serif" font-size="14.00" fill="darkmagenta">2, 0</text>
</g>
<!-- 28&#45;&gt;3 -->
<g id="edge18" class="edge">
<title>28&#45;&gt;3</title>
<path fill="none" stroke="black" d="M480.3,-130.75C507.87,-111.5 546.52,-84.53 573.73,-65.53"/>
<polygon fill="black" stroke="black" points="575.41,-68.63 581.61,-60.04 571.4,-62.89 575.41,-68.63"/>
<polygon fill="white" stroke="none" points="500.4,-97.08 500.4,-120.83 529.4,-120.83 529.4,-97.08 500.4,-97.08"/>
<text text-anchor="start" x="504.4" y="-103.53" font-family="Times New Roman,serif" font-size="14.00" fill="darkmagenta">0, 0</text>
</g>
<!-- 14&#45;&gt;3 -->
<g id="edge21" class="edge">
<title>14&#45;&gt;3</title>
<path fill="none" stroke="black" d="M586.05,-476.87C586.63,-451.39 587.37,-412.11 587.37,-378.01 587.37,-378.01 587.37,-378.01 587.37,-154.43 587.37,-125.76 593.53,-93.52 598.84,-71.08"/>
<polygon fill="black" stroke="black" points="602.21,-72.02 601.21,-61.47 595.41,-70.34 602.21,-72.02"/>
<polygon fill="white" stroke="none" points="556.37,-352.07 556.37,-375.82 585.37,-375.82 585.37,-352.07 556.37,-352.07"/>
<text text-anchor="start" x="560.37" y="-358.52" font-family="Times New Roman,serif" font-size="14.00" fill="darkmagenta">0, 0</text>
</g>
<!-- 17 -->
<g id="node17" class="node">
<title>17</title>
<ellipse fill="none" stroke="black" cx="753.37" cy="-377.01" rx="150.79" ry="27.93"/>
<text text-anchor="middle" x="753.37" y="-371.59" font-family="Times New Roman,serif" font-size="14.00">17. type_code = display_type_code(2)</text>
<text text-anchor="start" x="585.33" y="-391.64" font-family="Times New Roman,serif" font-size="14.00" fill="darkorange">1,0</text>
</g>
<!-- 16&#45;&gt;17 -->
<g id="edge22" class="edge">
<title>16&#45;&gt;17</title>
<path fill="none" stroke="#429e6a" d="M751.98,-550.39C751.32,-544.79 750.7,-538.55 750.37,-532.81 748.12,-493.31 749.45,-448.05 750.99,-416.72"/>
<polygon fill="#429e6a" stroke="#429e6a" points="754.47,-417.12 751.5,-406.95 747.48,-416.75 754.47,-417.12"/>
<text text-anchor="middle" x="837.37" y="-507.33" font-family="Times New Roman,serif" font-size="14.00">&quot;type_code == 1 and i + j &gt; k&quot;</text>
<text text-anchor="middle" x="837.37" y="-491.58" font-family="Times New Roman,serif" font-size="14.00">c[14]</text>
<polygon fill="white" stroke="none" points="718.2,-479.88 718.2,-503.63 747.2,-503.63 747.2,-479.88 718.2,-479.88"/>
<text text-anchor="start" x="722.2" y="-486.33" font-family="Times New Roman,serif" font-size="14.00" fill="darkmagenta">1, 0</text>
</g>
<!-- 19 -->
<g id="node18" class="node">
<title>19</title>
<ellipse fill="none" stroke="black" cx="950.37" cy="-440.94" rx="141.88" ry="18"/>
<text text-anchor="middle" x="950.37" y="-435.52" font-family="Times New Roman,serif" font-size="14.00">19. if type_code == 2 and i + k &gt; j:</text>
<text text-anchor="start" x="791.24" y="-445.64" font-family="Times New Roman,serif" font-size="14.00" fill="darkorange">1,4</text>
</g>
<!-- 16&#45;&gt;19 -->
<g id="edge23" class="edge">
<title>16&#45;&gt;19</title>
<path fill="none" stroke="blue" stroke-width="4.32" d="M858.49,-556.31C889.15,-550.93 917.43,-543.33 928.37,-532.81 943.67,-518.09 949.08,-494.69 950.71,-475.32"/>
<polygon fill="blue" stroke="blue" stroke-width="4.32" points="954.48,-475.58 951.09,-465.45 946.93,-475.29 954.48,-475.58"/>
<text text-anchor="middle" x="1057.24" y="-507.33" font-family="Times New Roman,serif" font-size="14.00">&quot;(not (type_code == 1 and i + j &gt; k))&quot;</text>
<text text-anchor="middle" x="1057.24" y="-491.58" font-family="Times New Roman,serif" font-size="14.00"> Score: 0.83</text>
<polygon fill="white" stroke="none" points="898.08,-534.11 898.08,-557.86 927.08,-557.86 927.08,-534.11 898.08,-534.11"/>
<text text-anchor="start" x="902.08" y="-540.56" font-family="Times New Roman,serif" font-size="14.00" fill="darkmagenta">1, 4</text>
</g>
<!-- 17&#45;&gt;3 -->
<g id="edge24" class="edge">
<title>17&#45;&gt;3</title>
<path fill="none" stroke="#429e6a" d="M718.28,-349.57C692.09,-327.79 657.79,-294.51 639.37,-257.22 609.23,-196.2 605.2,-114.49 605.43,-71.68"/>
<polygon fill="#429e6a" stroke="#429e6a" points="608.93,-71.77 605.58,-61.72 601.93,-71.66 608.93,-71.77"/>
<polygon fill="white" stroke="none" points="592.58,-218.4 592.58,-242.15 621.58,-242.15 621.58,-218.4 592.58,-218.4"/>
<text text-anchor="start" x="596.58" y="-224.85" font-family="Times New Roman,serif" font-size="14.00" fill="darkmagenta">1, 0</text>
</g>
<!-- 20 -->
<g id="node19" class="node">
<title>20</title>
<ellipse fill="none" stroke="black" cx="791.37" cy="-229.29" rx="150.79" ry="27.93"/>
<text text-anchor="middle" x="791.37" y="-223.87" font-family="Times New Roman,serif" font-size="14.00">20. type_code = display_type_code(2)</text>
<text text-anchor="start" x="623.33" y="-243.92" font-family="Times New Roman,serif" font-size="14.00" fill="darkorange">1,0</text>
</g>
<!-- 19&#45;&gt;20 -->
<g id="edge25" class="edge">
<title>19&#45;&gt;20</title>
<path fill="none" stroke="#429e6a" d="M936.02,-422.85C931.87,-417.37 927.61,-411.11 924.37,-404.94 912.18,-381.73 918.99,-371.49 905.37,-349.08 885.84,-316.97 856.3,-286.5 832.18,-264.47"/>
<polygon fill="#429e6a" stroke="#429e6a" points="834.8,-262.12 825.02,-258.05 830.13,-267.33 834.8,-262.12"/>
<text text-anchor="middle" x="1011.37" y="-379.46" font-family="Times New Roman,serif" font-size="14.00">&quot;type_code == 2 and i + k &gt; j&quot;</text>
<text text-anchor="middle" x="1011.37" y="-363.71" font-family="Times New Roman,serif" font-size="14.00">c[15]</text>
<polygon fill="white" stroke="none" points="861.9,-304.76 861.9,-328.51 890.9,-328.51 890.9,-304.76 861.9,-304.76"/>
<text text-anchor="start" x="865.9" y="-311.21" font-family="Times New Roman,serif" font-size="14.00" fill="darkmagenta">1, 0</text>
</g>
<!-- 22 -->
<g id="node20" class="node">
<title>22</title>
<ellipse fill="none" stroke="black" cx="1124.37" cy="-303.15" rx="141.88" ry="18"/>
<text text-anchor="middle" x="1124.37" y="-297.73" font-family="Times New Roman,serif" font-size="14.00">22. if type_code == 3 and j + k &gt; i:</text>
<text text-anchor="start" x="965.24" y="-307.85" font-family="Times New Roman,serif" font-size="14.00" fill="darkorange">0,4</text>
</g>
<!-- 19&#45;&gt;22 -->
<g id="edge26" class="edge">
<title>19&#45;&gt;22</title>
<path fill="none" stroke="red" stroke-width="5" d="M1043.16,-426.94C1069.33,-421.5 1093.18,-414.24 1102.37,-404.94 1119.76,-387.36 1124.79,-359.42 1125.73,-337.41"/>
<polygon fill="red" stroke="red" stroke-width="5" points="1130.11,-337.59 1125.76,-327.58 1121.36,-337.57 1130.11,-337.59"/>
<text text-anchor="middle" x="1231.24" y="-379.46" font-family="Times New Roman,serif" font-size="14.00">&quot;(not (type_code == 2 and i + k &gt; j))&quot;</text>
<text text-anchor="middle" x="1231.24" y="-363.71" font-family="Times New Roman,serif" font-size="14.00"> Score: 1.0</text>
<polygon fill="white" stroke="none" points="1082.09,-392.32 1082.09,-416.07 1111.09,-416.07 1111.09,-392.32 1082.09,-392.32"/>
<text text-anchor="start" x="1086.09" y="-398.77" font-family="Times New Roman,serif" font-size="14.00" fill="darkmagenta">0, 4</text>
</g>
<!-- 20&#45;&gt;3 -->
<g id="edge27" class="edge">
<title>20&#45;&gt;3</title>
<path fill="none" stroke="#429e6a" d="M713.04,-205.06C701.8,-199.27 691.11,-192.14 682.37,-183.36 646.61,-147.45 666.78,-120.38 639.37,-77.75 637.23,-74.42 634.75,-71.12 632.12,-67.95"/>
<polygon fill="#429e6a" stroke="#429e6a" points="634.82,-65.72 625.54,-60.61 629.61,-70.39 634.82,-65.72"/>
<polygon fill="white" stroke="none" points="626.94,-136.24 626.94,-159.99 655.94,-159.99 655.94,-136.24 626.94,-136.24"/>
<text text-anchor="start" x="630.94" y="-142.69" font-family="Times New Roman,serif" font-size="14.00" fill="darkmagenta">1, 0</text>
</g>
<!-- 23 -->
<g id="node21" class="node">
<title>23</title>
<ellipse fill="none" stroke="black" cx="842.37" cy="-155.43" rx="150.79" ry="27.93"/>
<text text-anchor="middle" x="842.37" y="-150.01" font-family="Times New Roman,serif" font-size="14.00">23. type_code = display_type_code(2)</text>
<text text-anchor="start" x="674.33" y="-170.06" font-family="Times New Roman,serif" font-size="14.00" fill="darkorange">0,2</text>
</g>
<!-- 22&#45;&gt;23 -->
<g id="edge28" class="edge">
<title>22&#45;&gt;23</title>
<path fill="none" stroke="red" stroke-width="3.96" d="M1023.59,-290.25C1001.26,-283.52 979.24,-273.15 962.37,-257.22 943.3,-239.22 961.05,-220.73 943.37,-201.36 939.12,-196.71 934.31,-192.51 929.13,-188.73"/>
<polygon fill="red" stroke="red" stroke-width="3.96" points="931.04,-185.8 920.73,-183.38 927.28,-191.7 931.04,-185.8"/>
<text text-anchor="middle" x="1049.37" y="-239.62" font-family="Times New Roman,serif" font-size="14.00">&quot;type_code == 3 and j + k &gt; i&quot;</text>
<text text-anchor="middle" x="1049.37" y="-223.87" font-family="Times New Roman,serif" font-size="14.00">c[16]</text>
<text text-anchor="middle" x="1049.37" y="-208.12" font-family="Times New Roman,serif" font-size="14.00"> Score: 0.74</text>
<polygon fill="white" stroke="none" points="938.18,-211.42 938.18,-235.17 967.18,-235.17 967.18,-211.42 938.18,-211.42"/>
<text text-anchor="start" x="942.18" y="-217.87" font-family="Times New Roman,serif" font-size="14.00" fill="darkmagenta">0, 2</text>
</g>
<!-- 25 -->
<g id="node22" class="node">
<title>25</title>
<ellipse fill="none" stroke="black" cx="1162.37" cy="-155.43" rx="150.79" ry="27.93"/>
<text text-anchor="middle" x="1162.37" y="-150.01" font-family="Times New Roman,serif" font-size="14.00">25. type_code = display_type_code(4)</text>
<text text-anchor="start" x="994.33" y="-170.06" font-family="Times New Roman,serif" font-size="14.00" fill="darkorange">0,2</text>
</g>
<!-- 22&#45;&gt;25 -->
<g id="edge29" class="edge">
<title>22&#45;&gt;25</title>
<path fill="none" stroke="red" stroke-width="3.96" d="M1131.12,-284.82C1134.2,-276.55 1137.73,-266.46 1140.37,-257.22 1145.76,-238.37 1150.56,-217.21 1154.3,-199.16"/>
<polygon fill="red" stroke="red" stroke-width="3.96" points="1157.7,-199.98 1156.23,-189.49 1150.84,-198.61 1157.7,-199.98"/>
<text text-anchor="middle" x="1260.24" y="-239.62" font-family="Times New Roman,serif" font-size="14.00">&quot;(not (type_code == 3 and j + k &gt; i))&quot;</text>
<text text-anchor="middle" x="1260.24" y="-223.87" font-family="Times New Roman,serif" font-size="14.00">c[17]</text>
<text text-anchor="middle" x="1260.24" y="-208.12" font-family="Times New Roman,serif" font-size="14.00"> Score: 0.74</text>
<polygon fill="white" stroke="none" points="1115.28,-236.86 1115.28,-260.61 1144.28,-260.61 1144.28,-236.86 1115.28,-236.86"/>
<text text-anchor="start" x="1119.28" y="-243.31" font-family="Times New Roman,serif" font-size="14.00" fill="darkmagenta">0, 2</text>
</g>
<!-- 23&#45;&gt;3 -->
<g id="edge30" class="edge">
<title>23&#45;&gt;3</title>
<path fill="none" stroke="red" stroke-width="3.96" d="M788.52,-128.95C748.08,-109.81 693.19,-83.84 654.27,-65.42"/>
<polygon fill="red" stroke="red" stroke-width="3.96" points="655.89,-62.31 645.36,-61.2 652.9,-68.64 655.89,-62.31"/>
<text text-anchor="middle" x="779.12" y="-80.2" font-family="Times New Roman,serif" font-size="14.00"> Score: 0.74</text>
<polygon fill="white" stroke="none" points="683.19,-95.77 683.19,-119.52 712.19,-119.52 712.19,-95.77 683.19,-95.77"/>
<text text-anchor="start" x="687.19" y="-102.22" font-family="Times New Roman,serif" font-size="14.00" fill="darkmagenta">0, 2</text>
</g>
<!-- 25&#45;&gt;3 -->
<g id="edge31" class="edge">
<title>25&#45;&gt;3</title>
<path fill="none" stroke="red" stroke-width="3.96" d="M1071.49,-132.82C1002.09,-116.65 903.96,-94.54 817.37,-77.75 775.08,-69.55 727.78,-61.59 688.71,-55.34"/>
<polygon fill="red" stroke="red" stroke-width="3.96" points="689.4,-51.91 678.98,-53.8 688.31,-58.82 689.4,-51.91"/>
<text text-anchor="middle" x="993.12" y="-80.2" font-family="Times New Roman,serif" font-size="14.00"> Score: 0.74</text>
<polygon fill="white" stroke="none" points="841.8,-90.87 841.8,-114.62 870.8,-114.62 870.8,-90.87 841.8,-90.87"/>
<text text-anchor="start" x="845.8" y="-97.32" font-family="Times New Roman,serif" font-size="14.00" fill="darkmagenta">0, 2</text>
</g>
</g>
</svg>
