<?xml version="1.0" encoding="UTF-8" standalone="no"?>
<!DOCTYPE svg PUBLIC "-//W3C//DTD SVG 1.1//EN"
 "http://www.w3.org/Graphics/SVG/1.1/DTD/svg11.dtd">
<!-- Generated by graphviz version 12.1.0 (20240811.2233)
 -->
<!-- Title: clustertrityp Pages: 1 -->
<svg width="1361pt" height="1695pt"
 viewBox="0.00 0.00 1361.48 1695.15" xmlns="http://www.w3.org/2000/svg" xmlns:xlink="http://www.w3.org/1999/xlink">
<g id="graph0" class="graph" transform="scale(1 1) rotate(0) translate(4 1691.15)">
<title>clustertrityp</title>
<polygon fill="white" stroke="none" points="-4,4 -4,-1691.15 1357.48,-1691.15 1357.48,4 -4,4"/>
<text text-anchor="middle" x="676.74" y="-7.2" font-family="Times New Roman,serif" font-size="14.00">trityp</text>
<!-- 1 -->
<g id="node1" class="node">
<title>1</title>
<ellipse fill="none" stroke="black" cx="183.72" cy="-1641.66" rx="124.28" ry="28.99"/>
<text text-anchor="middle" x="183.72" y="-1636.61" font-family="Times New Roman,serif" font-size="14.00">1. if i == 0 or j == 0 or k == 0:</text>
<text text-anchor="start" x="42.19" y="-1657.35" font-family="Times New Roman,serif" font-size="14.00" fill="darkorange">4,4</text>
</g>
<!-- 2 -->
<g id="node2" class="node">
<title>2</title>
<ellipse fill="none" stroke="black" cx="83.72" cy="-1398.86" rx="66.47" ry="28.99"/>
<text text-anchor="middle" x="83.72" y="-1393.81" font-family="Times New Roman,serif" font-size="14.00">2. type_code = 3</text>
<text text-anchor="start" x="0" y="-1414.55" font-family="Times New Roman,serif" font-size="14.00" fill="darkorange">0,0</text>
</g>
<!-- 1&#45;&gt;2 -->
<g id="edge1" class="edge">
<title>1&#45;&gt;2</title>
<path fill="none" stroke="black" d="M117.51,-1616.75C108.56,-1610.84 100.49,-1603.57 94.72,-1594.66 64.49,-1548.03 68.49,-1481.15 75.26,-1439.13"/>
<polygon fill="black" stroke="black" points="78.67,-1439.92 76.95,-1429.47 71.78,-1438.71 78.67,-1439.92"/>
<text text-anchor="middle" x="172.72" y="-1573.11" font-family="Times New Roman,serif" font-size="14.00">&quot;i == 0 or j == 0 or k == 0&quot;</text>
<text text-anchor="middle" x="172.72" y="-1556.61" font-family="Times New Roman,serif" font-size="14.00">c[5]</text>
<polygon fill="white" stroke="none" points="40.99,-1526.95 40.99,-1551.45 69.99,-1551.45 69.99,-1526.95 40.99,-1526.95"/>
<text text-anchor="start" x="44.99" y="-1534.15" font-family="Times New Roman,serif" font-size="14.00" fill="darkmagenta">0, 0</text>
</g>
<!-- 4 -->
<g id="node3" class="node">
<title>4</title>
<ellipse fill="none" stroke="black" cx="285.72" cy="-1486.51" rx="66.47" ry="40.66"/>
<text text-anchor="middle" x="285.72" y="-1489.71" font-family="Times New Roman,serif" font-size="14.00">4. type_code = 0</text>
<text text-anchor="middle" x="285.72" y="-1473.21" font-family="Times New Roman,serif" font-size="14.00">if i == j:</text>
<text text-anchor="start" x="202" y="-1513.86" font-family="Times New Roman,serif" font-size="14.00" fill="darkorange">4,4</text>
</g>
<!-- 1&#45;&gt;4 -->
<g id="edge2" class="edge">
<title>1&#45;&gt;4</title>
<path fill="none" stroke="blue" stroke-width="3.28" d="M233.8,-1614.85C241.65,-1609.07 249.03,-1602.33 254.72,-1594.66 266.09,-1579.34 273.31,-1559.94 277.87,-1541.87"/>
<polygon fill="blue" stroke="blue" stroke-width="3.28" points="281.25,-1542.81 279.99,-1532.29 274.42,-1541.3 281.25,-1542.81"/>
<text text-anchor="middle" x="374.45" y="-1581.36" font-family="Times New Roman,serif" font-size="14.00">&quot;(not (i == 0 or j == 0 or k == 0))&quot;</text>
<text text-anchor="middle" x="374.45" y="-1564.86" font-family="Times New Roman,serif" font-size="14.00">c[6]</text>
<text text-anchor="middle" x="374.45" y="-1548.36" font-family="Times New Roman,serif" font-size="14.00"> Score: 0.57</text>
<polygon fill="white" stroke="none" points="235.23,-1577.16 235.23,-1601.66 264.23,-1601.66 264.23,-1577.16 235.23,-1577.16"/>
<text text-anchor="start" x="239.23" y="-1584.36" font-family="Times New Roman,serif" font-size="14.00" fill="darkmagenta">4, 4</text>
</g>
<!-- 3 -->
<g id="node4" class="node">
<title>3</title>
<ellipse fill="none" stroke="black" cx="613.72" cy="-42.5" rx="83.08" ry="18"/>
<text text-anchor="middle" x="613.72" y="-37.45" font-family="Times New Roman,serif" font-size="14.00">3. return type_code</text>
<text text-anchor="start" x="513.38" y="-47.2" font-family="Times New Roman,serif" font-size="14.00" fill="darkorange">4,4</text>
</g>
<!-- 2&#45;&gt;3 -->
<g id="edge3" class="edge">
<title>2&#45;&gt;3</title>
<path fill="none" stroke="black" d="M75.41,-1370.04C68.83,-1345.5 60.72,-1308.64 60.72,-1275.88 60.72,-1275.88 60.72,-1275.88 60.72,-156.99 60.72,-64.51 361.24,-46.7 519.21,-43.73"/>
<polygon fill="black" stroke="black" points="518.88,-47.24 528.82,-43.57 518.76,-40.24 518.88,-47.24"/>
<polygon fill="white" stroke="none" points="29.72,-158.99 29.72,-183.49 58.72,-183.49 58.72,-158.99 29.72,-158.99"/>
<text text-anchor="start" x="33.72" y="-166.19" font-family="Times New Roman,serif" font-size="14.00" fill="darkmagenta">0, 0</text>
</g>
<!-- 5 -->
<g id="node5" class="node">
<title>5</title>
<ellipse fill="none" stroke="black" cx="285.72" cy="-1322.87" rx="196.93" ry="28.99"/>
<text text-anchor="middle" x="285.72" y="-1317.82" font-family="Times New Roman,serif" font-size="14.00">5. type_code = is_side_one_equal_two(type_code)</text>
<text text-anchor="start" x="71.54" y="-1338.56" font-family="Times New Roman,serif" font-size="14.00" fill="darkorange">1,0</text>
</g>
<!-- 4&#45;&gt;5 -->
<g id="edge4" class="edge">
<title>4&#45;&gt;5</title>
<path fill="none" stroke="#429e6a" d="M285.72,-1445.55C285.72,-1420.53 285.72,-1388.43 285.72,-1363.47"/>
<polygon fill="#429e6a" stroke="#429e6a" points="289.22,-1363.73 285.72,-1353.73 282.22,-1363.73 289.22,-1363.73"/>
<text text-anchor="middle" x="307.47" y="-1402.06" font-family="Times New Roman,serif" font-size="14.00">&quot;i == j&quot;</text>
<text text-anchor="middle" x="307.47" y="-1385.56" font-family="Times New Roman,serif" font-size="14.00">c[7]</text>
<polygon fill="white" stroke="none" points="254.72,-1400.81 254.72,-1425.31 283.72,-1425.31 283.72,-1400.81 254.72,-1400.81"/>
<text text-anchor="start" x="258.72" y="-1408.01" font-family="Times New Roman,serif" font-size="14.00" fill="darkmagenta">1, 0</text>
</g>
<!-- 6 -->
<g id="node6" class="node">
<title>6</title>
<ellipse fill="none" stroke="black" cx="454.72" cy="-1238.88" rx="54.93" ry="18"/>
<text text-anchor="middle" x="454.72" y="-1233.83" font-family="Times New Roman,serif" font-size="14.00">6. if i == k:</text>
<text text-anchor="start" x="382.53" y="-1207.58" font-family="Times New Roman,serif" font-size="14.00" fill="darkorange">4,4</text>
</g>
<!-- 4&#45;&gt;6 -->
<g id="edge5" class="edge">
<title>4&#45;&gt;6</title>
<path fill="none" stroke="blue" stroke-width="3.52" d="M343.32,-1466.04C392.64,-1445.96 460.48,-1409.37 491.72,-1351.86 504.02,-1329.22 499.34,-1318.5 491.72,-1293.88 488.99,-1285.09 484.29,-1276.45 479.13,-1268.76"/>
<polygon fill="blue" stroke="blue" stroke-width="3.52" points="481.94,-1266.67 473.17,-1260.74 476.32,-1270.85 481.94,-1266.67"/>
<text text-anchor="middle" x="532.29" y="-1326.07" font-family="Times New Roman,serif" font-size="14.00">&quot;(i != j)&quot;</text>
<text text-anchor="middle" x="532.29" y="-1309.57" font-family="Times New Roman,serif" font-size="14.00"> Score: 0.63</text>
<polygon fill="white" stroke="none" points="414.23,-1408.97 414.23,-1433.47 443.23,-1433.47 443.23,-1408.97 414.23,-1408.97"/>
<text text-anchor="start" x="418.23" y="-1416.17" font-family="Times New Roman,serif" font-size="14.00" fill="darkmagenta">3, 4</text>
</g>
<!-- 5&#45;&gt;6 -->
<g id="edge6" class="edge">
<title>5&#45;&gt;6</title>
<path fill="none" stroke="#429e6a" d="M341.52,-1294.8C365.48,-1283.17 392.94,-1269.85 414.81,-1259.24"/>
<polygon fill="#429e6a" stroke="#429e6a" points="416.22,-1262.45 423.69,-1254.93 413.17,-1256.15 416.22,-1262.45"/>
<polygon fill="white" stroke="none" points="352.07,-1248.14 352.07,-1272.64 381.07,-1272.64 381.07,-1248.14 352.07,-1248.14"/>
<text text-anchor="start" x="356.07" y="-1255.34" font-family="Times New Roman,serif" font-size="14.00" fill="darkmagenta">1, 0</text>
</g>
<!-- 7 -->
<g id="node7" class="node">
<title>7</title>
<ellipse fill="none" stroke="black" cx="302.72" cy="-1122.89" rx="201.7" ry="28.99"/>
<text text-anchor="middle" x="302.72" y="-1117.84" font-family="Times New Roman,serif" font-size="14.00">7. type_code = is_side_one_equal_three(type_code)</text>
<text text-anchor="start" x="83.77" y="-1138.58" font-family="Times New Roman,serif" font-size="14.00" fill="darkorange">1,0</text>
</g>
<!-- 6&#45;&gt;7 -->
<g id="edge7" class="edge">
<title>6&#45;&gt;7</title>
<path fill="none" stroke="#429e6a" d="M433.58,-1222.03C411.72,-1205.64 376.89,-1179.52 348.66,-1158.34"/>
<polygon fill="#429e6a" stroke="#429e6a" points="351.06,-1155.77 340.96,-1152.57 346.86,-1161.37 351.06,-1155.77"/>
<text text-anchor="middle" x="428.8" y="-1189.58" font-family="Times New Roman,serif" font-size="14.00">&quot;i == k&quot;</text>
<text text-anchor="middle" x="428.8" y="-1173.08" font-family="Times New Roman,serif" font-size="14.00">c[8]</text>
<polygon fill="white" stroke="none" points="355.8,-1188.95 355.8,-1213.45 384.8,-1213.45 384.8,-1188.95 355.8,-1188.95"/>
<text text-anchor="start" x="359.8" y="-1196.15" font-family="Times New Roman,serif" font-size="14.00" fill="darkmagenta">1, 0</text>
</g>
<!-- 8 -->
<g id="node8" class="node">
<title>8</title>
<ellipse fill="none" stroke="black" cx="514.72" cy="-1038.9" rx="54.93" ry="18"/>
<text text-anchor="middle" x="514.72" y="-1033.85" font-family="Times New Roman,serif" font-size="14.00">8. if j == k:</text>
<text text-anchor="start" x="442.53" y="-1043.6" font-family="Times New Roman,serif" font-size="14.00" fill="darkorange">4,4</text>
</g>
<!-- 6&#45;&gt;8 -->
<g id="edge8" class="edge">
<title>6&#45;&gt;8</title>
<path fill="none" stroke="blue" stroke-width="3.52" d="M470.53,-1221.41C484.92,-1205.2 505.18,-1179 513.72,-1151.88 521.89,-1125.92 521.43,-1094.86 519.32,-1072.04"/>
<polygon fill="blue" stroke="blue" stroke-width="3.52" points="522.83,-1071.9 518.21,-1062.37 515.88,-1072.7 522.83,-1071.9"/>
<text text-anchor="middle" x="553.63" y="-1126.09" font-family="Times New Roman,serif" font-size="14.00">&quot;(i != k)&quot;</text>
<text text-anchor="middle" x="553.63" y="-1109.59" font-family="Times New Roman,serif" font-size="14.00"> Score: 0.63</text>
<polygon fill="white" stroke="none" points="517.72,-1146.77 517.72,-1171.27 546.72,-1171.27 546.72,-1146.77 517.72,-1146.77"/>
<text text-anchor="start" x="521.72" y="-1153.97" font-family="Times New Roman,serif" font-size="14.00" fill="darkmagenta">3, 4</text>
</g>
<!-- 7&#45;&gt;8 -->
<g id="edge9" class="edge">
<title>7&#45;&gt;8</title>
<path fill="none" stroke="#429e6a" d="M371.55,-1095.27C403.71,-1082.83 441.1,-1068.37 469.6,-1057.35"/>
<polygon fill="#429e6a" stroke="#429e6a" points="470.59,-1060.72 478.65,-1053.85 468.06,-1054.19 470.59,-1060.72"/>
<polygon fill="white" stroke="none" points="394.91,-1047.75 394.91,-1072.25 423.91,-1072.25 423.91,-1047.75 394.91,-1047.75"/>
<text text-anchor="start" x="398.91" y="-1054.95" font-family="Times New Roman,serif" font-size="14.00" fill="darkmagenta">1, 0</text>
</g>
<!-- 9 -->
<g id="node9" class="node">
<title>9</title>
<ellipse fill="none" stroke="black" cx="313.72" cy="-906.41" rx="202.23" ry="28.99"/>
<text text-anchor="middle" x="313.72" y="-901.36" font-family="Times New Roman,serif" font-size="14.00">9. type_code = is_side_two_equal_three(type_code)</text>
<text text-anchor="start" x="94.23" y="-922.1" font-family="Times New Roman,serif" font-size="14.00" fill="darkorange">0,4</text>
</g>
<!-- 8&#45;&gt;9 -->
<g id="edge10" class="edge">
<title>8&#45;&gt;9</title>
<path fill="none" stroke="red" stroke-width="5" d="M490.87,-1022.42C461.29,-1003.21 409.89,-969.85 370.06,-943.98"/>
<polygon fill="red" stroke="red" stroke-width="5" points="372.5,-940.35 361.73,-938.58 367.74,-947.69 372.5,-940.35"/>
<text text-anchor="middle" x="484.95" y="-989.6" font-family="Times New Roman,serif" font-size="14.00">&quot;j == k&quot;</text>
<text text-anchor="middle" x="484.95" y="-973.1" font-family="Times New Roman,serif" font-size="14.00">c[9]</text>
<text text-anchor="middle" x="484.95" y="-956.6" font-family="Times New Roman,serif" font-size="14.00"> Score: 1.0</text>
<polygon fill="white" stroke="none" points="392.63,-980.76 392.63,-1005.26 421.63,-1005.26 421.63,-980.76 392.63,-980.76"/>
<text text-anchor="start" x="396.63" y="-987.96" font-family="Times New Roman,serif" font-size="14.00" fill="darkmagenta">0, 4</text>
</g>
<!-- 10 -->
<g id="node10" class="node">
<title>10</title>
<ellipse fill="none" stroke="black" cx="422.72" cy="-790.92" rx="94.86" ry="18"/>
<text text-anchor="middle" x="422.72" y="-785.87" font-family="Times New Roman,serif" font-size="14.00">10. if type_code == 0:</text>
<text text-anchor="start" x="310.61" y="-795.62" font-family="Times New Roman,serif" font-size="14.00" fill="darkorange">4,4</text>
</g>
<!-- 8&#45;&gt;10 -->
<g id="edge11" class="edge">
<title>8&#45;&gt;10</title>
<path fill="none" stroke="#429e6a" d="M520.84,-1020.98C530.77,-990.6 547.14,-925.48 524.72,-877.42 512.12,-850.42 486.34,-828.93 463.85,-814.25"/>
<polygon fill="#429e6a" stroke="#429e6a" points="465.76,-811.31 455.42,-808.98 462.05,-817.25 465.76,-811.31"/>
<text text-anchor="middle" x="555.84" y="-901.36" font-family="Times New Roman,serif" font-size="14.00">(j != k)</text>
<polygon fill="white" stroke="none" points="493.71,-850.91 493.71,-875.41 522.71,-875.41 522.71,-850.91 493.71,-850.91"/>
<text text-anchor="start" x="497.71" y="-858.11" font-family="Times New Roman,serif" font-size="14.00" fill="darkmagenta">4, 0</text>
</g>
<!-- 9&#45;&gt;10 -->
<g id="edge12" class="edge">
<title>9&#45;&gt;10</title>
<path fill="none" stroke="red" stroke-width="5" d="M340.66,-877.35C357.2,-860.13 378.33,-838.13 395.01,-820.77"/>
<polygon fill="red" stroke="red" stroke-width="5" points="398.14,-823.82 401.91,-813.58 391.83,-817.76 398.14,-823.82"/>
<text text-anchor="middle" x="417.09" y="-830.12" font-family="Times New Roman,serif" font-size="14.00"> Score: 1.0</text>
<polygon fill="white" stroke="none" points="342.52,-845.14 342.52,-869.64 371.52,-869.64 371.52,-845.14 342.52,-845.14"/>
<text text-anchor="start" x="346.52" y="-852.34" font-family="Times New Roman,serif" font-size="14.00" fill="darkmagenta">0, 4</text>
</g>
<!-- 11 -->
<g id="node11" class="node">
<title>11</title>
<ellipse fill="none" stroke="black" cx="328.72" cy="-309.96" rx="163.52" ry="28.99"/>
<text text-anchor="middle" x="328.72" y="-304.91" font-family="Times New Roman,serif" font-size="14.00">11. if i + j &lt;= k or j + k &lt;= i or i + k &lt;= j:</text>
<text text-anchor="start" x="147.95" y="-325.65" font-family="Times New Roman,serif" font-size="14.00" fill="darkorange">2,0</text>
</g>
<!-- 10&#45;&gt;11 -->
<g id="edge13" class="edge">
<title>10&#45;&gt;11</title>
<path fill="none" stroke="#429e6a" d="M414.79,-772.83C406.21,-752.73 393.72,-718.12 393.72,-686.92 393.72,-686.92 393.72,-686.92 393.72,-449.93 393.72,-412.92 374.57,-375.15 357.06,-348.35"/>
<polygon fill="#429e6a" stroke="#429e6a" points="360.08,-346.56 351.57,-340.24 354.28,-350.48 360.08,-346.56"/>
<text text-anchor="middle" x="442.84" y="-584.12" font-family="Times New Roman,serif" font-size="14.00">&quot;type_code == 0&quot;</text>
<text text-anchor="middle" x="442.84" y="-567.62" font-family="Times New Roman,serif" font-size="14.00">c[10]</text>
<polygon fill="white" stroke="none" points="362.72,-451.93 362.72,-476.43 391.72,-476.43 391.72,-451.93 362.72,-451.93"/>
<text text-anchor="start" x="366.72" y="-459.13" font-family="Times New Roman,serif" font-size="14.00" fill="darkmagenta">2, 0</text>
</g>
<!-- 13 -->
<g id="node12" class="node">
<title>13</title>
<ellipse fill="none" stroke="black" cx="584.72" cy="-685.92" rx="89.23" ry="18"/>
<text text-anchor="middle" x="584.72" y="-680.87" font-family="Times New Roman,serif" font-size="14.00">13. if type_code &gt; 3:</text>
<text text-anchor="start" x="478.24" y="-690.62" font-family="Times New Roman,serif" font-size="14.00" fill="darkorange">2,4</text>
</g>
<!-- 10&#45;&gt;13 -->
<g id="edge14" class="edge">
<title>10&#45;&gt;13</title>
<path fill="none" stroke="blue" stroke-width="3.88" d="M448.74,-773.37C474.77,-756.82 515.12,-731.17 545.11,-712.1"/>
<polygon fill="blue" stroke="blue" stroke-width="3.88" points="546.97,-715.06 553.53,-706.74 543.21,-709.16 546.97,-715.06"/>
<text text-anchor="middle" x="579.44" y="-741.62" font-family="Times New Roman,serif" font-size="14.00">&quot;(type_code != 0)&quot;</text>
<text text-anchor="middle" x="579.44" y="-725.12" font-family="Times New Roman,serif" font-size="14.00"> Score: 0.72</text>
<polygon fill="white" stroke="none" points="472.88,-740.31 472.88,-764.81 501.88,-764.81 501.88,-740.31 472.88,-740.31"/>
<text text-anchor="start" x="476.88" y="-747.51" font-family="Times New Roman,serif" font-size="14.00" fill="darkmagenta">2, 4</text>
</g>
<!-- 26 -->
<g id="node13" class="node">
<title>26</title>
<ellipse fill="none" stroke="black" cx="203.72" cy="-157.99" rx="66.47" ry="28.99"/>
<text text-anchor="middle" x="203.72" y="-152.94" font-family="Times New Roman,serif" font-size="14.00">26. type_code = 4</text>
<text text-anchor="start" x="120" y="-173.68" font-family="Times New Roman,serif" font-size="14.00" fill="darkorange">2,0</text>
</g>
<!-- 11&#45;&gt;26 -->
<g id="edge15" class="edge">
<title>11&#45;&gt;26</title>
<path fill="none" stroke="#429e6a" d="M187.86,-294.94C149.12,-288.02 114.37,-277.84 102.22,-262.97 85.91,-243.01 88.25,-226.64 102.22,-204.98 110.15,-192.67 122.27,-183.62 135.4,-176.98"/>
<polygon fill="#429e6a" stroke="#429e6a" points="136.56,-180.3 144.21,-172.98 133.66,-173.93 136.56,-180.3"/>
<text text-anchor="middle" x="207.97" y="-237.17" font-family="Times New Roman,serif" font-size="14.00">&quot;i + j &lt;= k or j + k &lt;= i or i + k &lt;= j&quot;</text>
<text text-anchor="middle" x="207.97" y="-220.67" font-family="Times New Roman,serif" font-size="14.00">c[11]</text>
<polygon fill="white" stroke="none" points="121.48,-289.24 121.48,-313.74 150.48,-313.74 150.48,-289.24 121.48,-289.24"/>
<text text-anchor="start" x="125.48" y="-296.44" font-family="Times New Roman,serif" font-size="14.00" fill="darkmagenta">2, 0</text>
</g>
<!-- 28 -->
<g id="node14" class="node">
<title>28</title>
<ellipse fill="none" stroke="black" cx="451.72" cy="-157.99" rx="66.47" ry="28.99"/>
<text text-anchor="middle" x="451.72" y="-152.94" font-family="Times New Roman,serif" font-size="14.00">28. type_code = 1</text>
<text text-anchor="start" x="368" y="-173.68" font-family="Times New Roman,serif" font-size="14.00" fill="darkorange">0,0</text>
</g>
<!-- 11&#45;&gt;28 -->
<g id="edge16" class="edge">
<title>11&#45;&gt;28</title>
<path fill="none" stroke="black" d="M321.1,-280.73C316.77,-258.19 314.87,-226.86 330.22,-204.98 341.64,-188.7 359.61,-178.18 378.26,-171.38"/>
<polygon fill="black" stroke="black" points="379.11,-174.78 387.52,-168.35 376.93,-168.13 379.11,-174.78"/>
<text text-anchor="middle" x="455.47" y="-237.17" font-family="Times New Roman,serif" font-size="14.00">&quot;(not (i + j &lt;= k or j + k &lt;= i or i + k &lt;= j))&quot;</text>
<text text-anchor="middle" x="455.47" y="-220.67" font-family="Times New Roman,serif" font-size="14.00">c[12]</text>
<polygon fill="white" stroke="none" points="299.28,-178.39 299.28,-202.89 328.28,-202.89 328.28,-178.39 299.28,-178.39"/>
<text text-anchor="start" x="303.28" y="-185.59" font-family="Times New Roman,serif" font-size="14.00" fill="darkmagenta">0, 0</text>
</g>
<!-- 14 -->
<g id="node15" class="node">
<title>14</title>
<ellipse fill="none" stroke="black" cx="587.72" cy="-515.92" rx="66.47" ry="28.99"/>
<text text-anchor="middle" x="587.72" y="-510.87" font-family="Times New Roman,serif" font-size="14.00">14. type_code = 3</text>
<text text-anchor="start" x="504" y="-531.62" font-family="Times New Roman,serif" font-size="14.00" fill="darkorange">0,0</text>
</g>
<!-- 13&#45;&gt;14 -->
<g id="edge19" class="edge">
<title>13&#45;&gt;14</title>
<path fill="none" stroke="black" d="M584.57,-667.59C584.49,-653.84 584.46,-634.15 584.72,-616.92 585.01,-597.11 585.64,-575.12 586.25,-556.8"/>
<polygon fill="black" stroke="black" points="589.74,-556.99 586.58,-546.88 582.75,-556.75 589.74,-556.99"/>
<text text-anchor="middle" x="629.72" y="-636.62" font-family="Times New Roman,serif" font-size="14.00">&quot;type_code &gt; 3&quot;</text>
<text text-anchor="middle" x="629.72" y="-620.12" font-family="Times New Roman,serif" font-size="14.00">c[13]</text>
<polygon fill="white" stroke="none" points="553.9,-608.54 553.9,-633.04 582.9,-633.04 582.9,-608.54 553.9,-608.54"/>
<text text-anchor="start" x="557.9" y="-615.74" font-family="Times New Roman,serif" font-size="14.00" fill="darkmagenta">0, 0</text>
</g>
<!-- 16 -->
<g id="node16" class="node">
<title>16</title>
<ellipse fill="none" stroke="black" cx="757.72" cy="-580.92" rx="144.5" ry="18"/>
<text text-anchor="middle" x="757.72" y="-575.87" font-family="Times New Roman,serif" font-size="14.00">16. if type_code == 1 and i + j &gt; k:</text>
<text text-anchor="start" x="595.97" y="-585.62" font-family="Times New Roman,serif" font-size="14.00" fill="darkorange">2,4</text>
</g>
<!-- 13&#45;&gt;16 -->
<g id="edge20" class="edge">
<title>13&#45;&gt;16</title>
<path fill="none" stroke="blue" stroke-width="3.88" d="M633.55,-670.43C648.55,-665.02 664.77,-658.15 678.72,-649.92 697.34,-638.91 715.8,-623.36 730.18,-609.91"/>
<polygon fill="blue" stroke="blue" stroke-width="3.88" points="732.23,-612.79 737,-603.32 727.37,-607.75 732.23,-612.79"/>
<text text-anchor="middle" x="775.37" y="-636.62" font-family="Times New Roman,serif" font-size="14.00">&quot;(type_code &lt;= 3)&quot;</text>
<text text-anchor="middle" x="775.37" y="-620.12" font-family="Times New Roman,serif" font-size="14.00"> Score: 0.72</text>
<polygon fill="white" stroke="none" points="685.91,-614.72 685.91,-639.22 714.91,-639.22 714.91,-614.72 685.91,-614.72"/>
<text text-anchor="start" x="689.91" y="-621.92" font-family="Times New Roman,serif" font-size="14.00" fill="darkmagenta">2, 4</text>
</g>
<!-- 26&#45;&gt;3 -->
<g id="edge17" class="edge">
<title>26&#45;&gt;3</title>
<path fill="none" stroke="#429e6a" d="M259.01,-141.69C335.63,-120.48 473.58,-82.29 552.98,-60.31"/>
<polygon fill="#429e6a" stroke="#429e6a" points="553.62,-63.77 562.33,-57.73 551.76,-57.02 553.62,-63.77"/>
<polygon fill="white" stroke="none" points="380.28,-101.54 380.28,-126.04 409.28,-126.04 409.28,-101.54 380.28,-101.54"/>
<text text-anchor="start" x="384.28" y="-108.74" font-family="Times New Roman,serif" font-size="14.00" fill="darkmagenta">2, 0</text>
</g>
<!-- 28&#45;&gt;3 -->
<g id="edge18" class="edge">
<title>28&#45;&gt;3</title>
<path fill="none" stroke="black" d="M486.07,-132.92C513.99,-113.37 553.12,-85.95 580.67,-66.65"/>
<polygon fill="black" stroke="black" points="582.48,-69.66 588.66,-61.05 578.46,-63.92 582.48,-69.66"/>
<polygon fill="white" stroke="none" points="506.81,-98.67 506.81,-123.17 535.81,-123.17 535.81,-98.67 506.81,-98.67"/>
<text text-anchor="start" x="510.81" y="-105.87" font-family="Times New Roman,serif" font-size="14.00" fill="darkmagenta">0, 0</text>
</g>
<!-- 14&#45;&gt;3 -->
<g id="edge21" class="edge">
<title>14&#45;&gt;3</title>
<path fill="none" stroke="black" d="M590.17,-486.48C592.18,-460.56 594.72,-421.21 594.72,-386.94 594.72,-386.94 594.72,-386.94 594.72,-156.99 594.72,-127.56 601.01,-94.42 606.35,-71.58"/>
<polygon fill="black" stroke="black" points="609.69,-72.67 608.66,-62.13 602.89,-71.01 609.69,-72.67"/>
<polygon fill="white" stroke="none" points="563.72,-360.2 563.72,-384.7 592.72,-384.7 592.72,-360.2 563.72,-360.2"/>
<text text-anchor="start" x="567.72" y="-367.4" font-family="Times New Roman,serif" font-size="14.00" fill="darkmagenta">0, 0</text>
</g>
<!-- 17 -->
<g id="node17" class="node">
<title>17</title>
<ellipse fill="none" stroke="black" cx="753.72" cy="-385.94" rx="144.42" ry="28.99"/>
<text text-anchor="middle" x="753.72" y="-380.89" font-family="Times New Roman,serif" font-size="14.00">17. type_code = display_type_code(2)</text>
<text text-anchor="start" x="592.04" y="-401.63" font-family="Times New Roman,serif" font-size="14.00" fill="darkorange">1,0</text>
</g>
<!-- 16&#45;&gt;17 -->
<g id="edge22" class="edge">
<title>16&#45;&gt;17</title>
<path fill="none" stroke="#429e6a" d="M753.54,-562.57C752.39,-556.97 751.29,-550.71 750.72,-544.92 746.73,-504.68 748.33,-458.41 750.4,-426.39"/>
<polygon fill="#429e6a" stroke="#429e6a" points="753.87,-427 751.07,-416.78 746.89,-426.51 753.87,-427"/>
<text text-anchor="middle" x="836.22" y="-519.12" font-family="Times New Roman,serif" font-size="14.00">&quot;type_code == 1 and i + j &gt; k&quot;</text>
<text text-anchor="middle" x="836.22" y="-502.62" font-family="Times New Roman,serif" font-size="14.00">c[14]</text>
<polygon fill="white" stroke="none" points="717.26,-490.88 717.26,-515.38 746.26,-515.38 746.26,-490.88 717.26,-490.88"/>
<text text-anchor="start" x="721.26" y="-498.08" font-family="Times New Roman,serif" font-size="14.00" fill="darkmagenta">1, 0</text>
</g>
<!-- 19 -->
<g id="node18" class="node">
<title>19</title>
<ellipse fill="none" stroke="black" cx="947.72" cy="-450.93" rx="144.5" ry="18"/>
<text text-anchor="middle" x="947.72" y="-445.88" font-family="Times New Roman,serif" font-size="14.00">19. if type_code == 2 and i + k &gt; j:</text>
<text text-anchor="start" x="785.97" y="-455.63" font-family="Times New Roman,serif" font-size="14.00" fill="darkorange">1,4</text>
</g>
<!-- 16&#45;&gt;19 -->
<g id="edge23" class="edge">
<title>16&#45;&gt;19</title>
<path fill="none" stroke="blue" stroke-width="4.32" d="M859.65,-567.85C888.74,-562.46 915.36,-554.99 925.72,-544.92 941.44,-529.61 946.79,-505.3 948.28,-485.38"/>
<polygon fill="blue" stroke="blue" stroke-width="4.32" points="952.06,-485.55 948.59,-475.44 944.5,-485.32 952.06,-485.55"/>
<text text-anchor="middle" x="1053.13" y="-519.12" font-family="Times New Roman,serif" font-size="14.00">&quot;(not (type_code == 1 and i + j &gt; k))&quot;</text>
<text text-anchor="middle" x="1053.13" y="-502.62" font-family="Times New Roman,serif" font-size="14.00"> Score: 0.83</text>
<polygon fill="white" stroke="none" points="932.51,-541.59 932.51,-566.09 961.51,-566.09 961.51,-541.59 932.51,-541.59"/>
<text text-anchor="start" x="936.51" y="-548.79" font-family="Times New Roman,serif" font-size="14.00" fill="darkmagenta">1, 4</text>
</g>
<!-- 17&#45;&gt;3 -->
<g id="edge24" class="edge">
<title>17&#45;&gt;3</title>
<path fill="none" stroke="#429e6a" d="M721.02,-357.39C696.4,-334.7 664.04,-300.27 646.72,-262.97 617.27,-199.53 612.99,-115.72 612.99,-72.32"/>
<polygon fill="#429e6a" stroke="#429e6a" points="616.49,-72.5 613.08,-62.47 609.49,-72.43 616.49,-72.5"/>
<polygon fill="white" stroke="none" points="599.9,-221.46 599.9,-245.96 628.9,-245.96 628.9,-221.46 599.9,-221.46"/>
<text text-anchor="start" x="603.9" y="-228.66" font-family="Times New Roman,serif" font-size="14.00" fill="darkmagenta">1, 0</text>
</g>
<!-- 20 -->
<g id="node19" class="node">
<title>20</title>
<ellipse fill="none" stroke="black" cx="791.72" cy="-233.97" rx="144.42" ry="28.99"/>
<text text-anchor="middle" x="791.72" y="-228.92" font-family="Times New Roman,serif" font-size="14.00">20. type_code = display_type_code(2)</text>
<text text-anchor="start" x="630.04" y="-249.67" font-family="Times New Roman,serif" font-size="14.00" fill="darkorange">1,0</text>
</g>
<!-- 19&#45;&gt;20 -->
<g id="edge25" class="edge">
<title>19&#45;&gt;20</title>
<path fill="none" stroke="#429e6a" d="M930.69,-432.79C926.01,-427.4 921.25,-421.21 917.72,-414.93 904.42,-391.3 912.15,-380.5 898.72,-356.95 880.32,-324.7 852.5,-293.32 829.84,-270.47"/>
<polygon fill="#429e6a" stroke="#429e6a" points="832.39,-268.07 822.83,-263.51 827.46,-273.04 832.39,-268.07"/>
<text text-anchor="middle" x="1003.22" y="-389.14" font-family="Times New Roman,serif" font-size="14.00">&quot;type_code == 2 and i + k &gt; j&quot;</text>
<text text-anchor="middle" x="1003.22" y="-372.64" font-family="Times New Roman,serif" font-size="14.00">c[15]</text>
<polygon fill="white" stroke="none" points="856.97,-313.19 856.97,-337.69 885.97,-337.69 885.97,-313.19 856.97,-313.19"/>
<text text-anchor="start" x="860.97" y="-320.39" font-family="Times New Roman,serif" font-size="14.00" fill="darkmagenta">1, 0</text>
</g>
<!-- 22 -->
<g id="node20" class="node">
<title>22</title>
<ellipse fill="none" stroke="black" cx="1114.72" cy="-309.96" rx="144.5" ry="18"/>
<text text-anchor="middle" x="1114.72" y="-304.91" font-family="Times New Roman,serif" font-size="14.00">22. if type_code == 3 and j + k &gt; i:</text>
<text text-anchor="start" x="952.97" y="-314.66" font-family="Times New Roman,serif" font-size="14.00" fill="darkorange">0,4</text>
</g>
<!-- 19&#45;&gt;22 -->
<g id="edge26" class="edge">
<title>19&#45;&gt;22</title>
<path fill="none" stroke="red" stroke-width="5" d="M1037.07,-436.37C1061.73,-430.92 1084.1,-423.8 1092.72,-414.93 1110.67,-396.47 1115.58,-367.23 1116.34,-344.46"/>
<polygon fill="red" stroke="red" stroke-width="5" points="1120.72,-344.46 1116.28,-334.49 1111.97,-344.51 1120.72,-344.46"/>
<text text-anchor="middle" x="1220.37" y="-389.14" font-family="Times New Roman,serif" font-size="14.00">&quot;(not (type_code == 2 and i + k &gt; j))&quot;</text>
<text text-anchor="middle" x="1220.37" y="-372.64" font-family="Times New Roman,serif" font-size="14.00"> Score: 1.0</text>
<polygon fill="white" stroke="none" points="1074.49,-398.09 1074.49,-422.59 1103.49,-422.59 1103.49,-398.09 1074.49,-398.09"/>
<text text-anchor="start" x="1078.49" y="-405.29" font-family="Times New Roman,serif" font-size="14.00" fill="darkmagenta">0, 4</text>
</g>
<!-- 20&#45;&gt;3 -->
<g id="edge27" class="edge">
<title>20&#45;&gt;3</title>
<path fill="none" stroke="#429e6a" d="M720.37,-208.33C709.87,-202.5 699.87,-195.45 691.72,-186.98 655.51,-149.38 675.09,-122.32 646.72,-78.5 644.56,-75.17 642.08,-71.88 639.45,-68.72"/>
<polygon fill="#429e6a" stroke="#429e6a" points="642.15,-66.48 632.86,-61.37 636.93,-71.16 642.15,-66.48"/>
<polygon fill="white" stroke="none" points="635.43,-137.87 635.43,-162.37 664.43,-162.37 664.43,-137.87 635.43,-137.87"/>
<text text-anchor="start" x="639.43" y="-145.07" font-family="Times New Roman,serif" font-size="14.00" fill="darkmagenta">1, 0</text>
</g>
<!-- 23 -->
<g id="node21" class="node">
<title>23</title>
<ellipse fill="none" stroke="black" cx="844.72" cy="-157.99" rx="144.42" ry="28.99"/>
<text text-anchor="middle" x="844.72" y="-152.94" font-family="Times New Roman,serif" font-size="14.00">23. type_code = display_type_code(3)</text>
<text text-anchor="start" x="683.04" y="-173.68" font-family="Times New Roman,serif" font-size="14.00" fill="darkorange">0,2</text>
</g>
<!-- 22&#45;&gt;23 -->
<g id="edge28" class="edge">
<title>22&#45;&gt;23</title>
<path fill="none" stroke="red" stroke-width="3.96" d="M1016.46,-296.4C994.26,-289.54 972.36,-279.03 955.72,-262.97 936.21,-244.13 954.43,-225.51 936.72,-204.98 932.94,-200.6 928.64,-196.59 924.02,-192.93"/>
<polygon fill="red" stroke="red" stroke-width="3.96" points="926.3,-190.25 916.08,-187.45 922.32,-196.01 926.3,-190.25"/>
<text text-anchor="middle" x="1041.22" y="-245.42" font-family="Times New Roman,serif" font-size="14.00">&quot;type_code == 3 and j + k &gt; i&quot;</text>
<text text-anchor="middle" x="1041.22" y="-228.92" font-family="Times New Roman,serif" font-size="14.00">c[16]</text>
<text text-anchor="middle" x="1041.22" y="-212.42" font-family="Times New Roman,serif" font-size="14.00"> Score: 0.74</text>
<polygon fill="white" stroke="none" points="931.34,-215.7 931.34,-240.2 960.34,-240.2 960.34,-215.7 931.34,-215.7"/>
<text text-anchor="start" x="935.34" y="-222.9" font-family="Times New Roman,serif" font-size="14.00" fill="darkmagenta">0, 2</text>
</g>
<!-- 25 -->
<g id="node22" class="node">
<title>25</title>
<ellipse fill="none" stroke="black" cx="1151.72" cy="-157.99" rx="144.42" ry="28.99"/>
<text text-anchor="middle" x="1151.72" y="-152.94" font-family="Times New Roman,serif" font-size="14.00">25. type_code = display_type_code(4)</text>
<text text-anchor="start" x="990.04" y="-173.68" font-family="Times New Roman,serif" font-size="14.00" fill="darkorange">0,2</text>
</g>
<!-- 22&#45;&gt;25 -->
<g id="edge29" class="edge">
<title>22&#45;&gt;25</title>
<path fill="none" stroke="red" stroke-width="3.96" d="M1121.36,-291.66C1124.48,-283.11 1128.08,-272.59 1130.72,-262.97 1136.09,-243.32 1140.74,-221.24 1144.29,-202.5"/>
<polygon fill="red" stroke="red" stroke-width="3.96" points="1147.68,-203.4 1146.04,-192.93 1140.8,-202.14 1147.68,-203.4"/>
<text text-anchor="middle" x="1248.48" y="-245.42" font-family="Times New Roman,serif" font-size="14.00">&quot;(not (type_code == 3 and j + k &gt; i))&quot;</text>
<text text-anchor="middle" x="1248.48" y="-228.92" font-family="Times New Roman,serif" font-size="14.00">c[17]</text>
<text text-anchor="middle" x="1248.48" y="-212.42" font-family="Times New Roman,serif" font-size="14.00"> Score: 0.74</text>
<polygon fill="white" stroke="none" points="1105.55,-241.66 1105.55,-266.16 1134.55,-266.16 1134.55,-241.66 1105.55,-241.66"/>
<text text-anchor="start" x="1109.55" y="-248.86" font-family="Times New Roman,serif" font-size="14.00" fill="darkmagenta">0, 2</text>
</g>
<!-- 23&#45;&gt;3 -->
<g id="edge30" class="edge">
<title>23&#45;&gt;3</title>
<path fill="none" stroke="red" stroke-width="3.96" d="M791.76,-130.75C760.85,-115.46 721.1,-95.83 685.72,-78.5 677.76,-74.6 669.3,-70.48 661.08,-66.47"/>
<polygon fill="red" stroke="red" stroke-width="3.96" points="662.63,-63.33 652.1,-62.11 659.57,-69.63 662.63,-63.33"/>
<text text-anchor="middle" x="784.27" y="-81.7" font-family="Times New Roman,serif" font-size="14.00"> Score: 0.74</text>
<polygon fill="white" stroke="none" points="688.34,-97.01 688.34,-121.51 717.34,-121.51 717.34,-97.01 688.34,-97.01"/>
<text text-anchor="start" x="692.34" y="-104.21" font-family="Times New Roman,serif" font-size="14.00" fill="darkmagenta">0, 2</text>
</g>
<!-- 25&#45;&gt;3 -->
<g id="edge31" class="edge">
<title>25&#45;&gt;3</title>
<path fill="none" stroke="red" stroke-width="3.96" d="M1064.52,-134.57C998.2,-117.93 904.54,-95.3 821.72,-78.5 780.49,-70.14 734.38,-62.23 696.07,-56.06"/>
<polygon fill="red" stroke="red" stroke-width="3.96" points="696.78,-52.63 686.35,-54.51 695.68,-59.54 696.78,-52.63"/>
<text text-anchor="middle" x="1000.05" y="-81.7" font-family="Times New Roman,serif" font-size="14.00"> Score: 0.74</text>
<polygon fill="white" stroke="none" points="842.71,-91.47 842.71,-115.97 871.71,-115.97 871.71,-91.47 842.71,-91.47"/>
<text text-anchor="start" x="846.71" y="-98.67" font-family="Times New Roman,serif" font-size="14.00" fill="darkmagenta">0, 2</text>
</g>
</g>
</svg>
