<?xml version="1.0" encoding="UTF-8" standalone="no"?>
<!DOCTYPE svg PUBLIC "-//W3C//DTD SVG 1.1//EN"
 "http://www.w3.org/Graphics/SVG/1.1/DTD/svg11.dtd">
<!-- Generated by graphviz version 10.0.1 (20240210.2158)
 -->
<!-- Title: clustertrityp Pages: 1 -->
<svg width="1175pt" height="1503pt"
 viewBox="0.00 0.00 1175.16 1502.75" xmlns="http://www.w3.org/2000/svg" xmlns:xlink="http://www.w3.org/1999/xlink">
<g id="graph0" class="graph" transform="scale(1 1) rotate(0) translate(4 1498.75)">
<title>clustertrityp</title>
<polygon fill="white" stroke="none" points="-4,4 -4,-1498.75 1171.16,-1498.75 1171.16,4 -4,4"/>
<text text-anchor="middle" x="583.58" y="-6.9" font-family="Times New Roman,serif" font-size="8.00">trityp</text>
<!-- 1 -->
<g id="node1" class="node">
<title>1</title>
<ellipse fill="none" stroke="black" cx="197.37" cy="-1456.32" rx="123.21" ry="27.93"/>
<text text-anchor="middle" x="197.37" y="-1453.97" font-family="Times New Roman,serif" font-size="8.00">1. if i == 0 or j == 0 or k == 0:</text>
<text text-anchor="start" x="62.91" y="-1476.65" font-family="Times New Roman,serif" font-size="8.00" fill="darkorange">4,4</text>
</g>
<!-- 2 -->
<g id="node2" class="node">
<title>2</title>
<ellipse fill="none" stroke="black" cx="80.37" cy="-1247.32" rx="69.12" ry="27.93"/>
<text text-anchor="middle" x="80.37" y="-1244.97" font-family="Times New Roman,serif" font-size="8.00">2. type_code = 3</text>
<text text-anchor="start" x="0" y="-1267.65" font-family="Times New Roman,serif" font-size="8.00" fill="darkorange">0,0</text>
</g>
<!-- 1&#45;&gt;2 -->
<g id="edge1" class="edge">
<title>1&#45;&gt;2</title>
<path fill="none" stroke="black" d="M157.37,-1429.59C150.54,-1423.88 144.01,-1417.42 138.87,-1410.39 111.52,-1372.96 95.84,-1321.45 87.73,-1286.63"/>
<polygon fill="black" stroke="black" points="91.17,-1285.98 85.59,-1276.98 84.34,-1287.5 91.17,-1285.98"/>
<text text-anchor="middle" x="186.62" y="-1402.79" font-family="Times New Roman,serif" font-size="8.00">&quot;i == 0 or j == 0 or k == 0&quot;</text>
<text text-anchor="middle" x="186.62" y="-1392.29" font-family="Times New Roman,serif" font-size="8.00">c[5]</text>
<text text-anchor="start" x="87.46" y="-1349.69" font-family="Times New Roman,serif" font-size="8.00" fill="darkmagenta"> &#160;0,0 &#160;&#160;</text>
</g>
<!-- 4 -->
<g id="node3" class="node">
<title>4</title>
<ellipse fill="none" stroke="black" cx="299.37" cy="-1332.32" rx="69.12" ry="39.07"/>
<text text-anchor="middle" x="299.37" y="-1335.22" font-family="Times New Roman,serif" font-size="8.00">4. type_code = 0</text>
<text text-anchor="middle" x="299.37" y="-1324.72" font-family="Times New Roman,serif" font-size="8.00">if i == j:</text>
<text text-anchor="start" x="219" y="-1363.79" font-family="Times New Roman,serif" font-size="8.00" fill="darkorange">4,4</text>
</g>
<!-- 1&#45;&gt;4 -->
<g id="edge2" class="edge">
<title>1&#45;&gt;4</title>
<path fill="none" stroke="blue" d="M221.28,-1428.9C226.63,-1422.86 232.24,-1416.44 237.37,-1410.39 246.3,-1399.84 255.74,-1388.31 264.49,-1377.45"/>
<polygon fill="blue" stroke="blue" points="267.17,-1379.7 270.7,-1369.71 261.71,-1375.32 267.17,-1379.7"/>
<text text-anchor="middle" x="314.75" y="-1402.79" font-family="Times New Roman,serif" font-size="8.00">&quot;(not (i == 0 or j == 0 or k == 0))&quot;</text>
<text text-anchor="middle" x="314.75" y="-1392.29" font-family="Times New Roman,serif" font-size="8.00">c[6]</text>
<text text-anchor="start" x="235.67" y="-1380.87" font-family="Times New Roman,serif" font-size="8.00" fill="darkmagenta"> &#160;4,4 &#160;&#160;</text>
</g>
<!-- 3 -->
<g id="node4" class="node">
<title>3</title>
<ellipse fill="none" stroke="black" cx="460.37" cy="-36.5" rx="74.02" ry="18"/>
<text text-anchor="middle" x="460.37" y="-34.15" font-family="Times New Roman,serif" font-size="8.00">3. return type_code</text>
<text text-anchor="start" x="375.1" y="-46.9" font-family="Times New Roman,serif" font-size="8.00" fill="darkorange">4,4</text>
</g>
<!-- 2&#45;&gt;3 -->
<g id="edge3" class="edge">
<title>2&#45;&gt;3</title>
<path fill="none" stroke="black" d="M74.95,-1219.08C70.66,-1195.08 65.37,-1159.13 65.37,-1127.53 65.37,-1127.53 65.37,-1127.53 65.37,-118.43 65.37,-55.77 258.57,-41.17 374.74,-38.05"/>
<polygon fill="black" stroke="black" points="374.65,-41.56 384.56,-37.82 374.48,-34.56 374.65,-41.56"/>
<text text-anchor="start" x="42.87" y="-993.79" font-family="Times New Roman,serif" font-size="8.00" fill="darkmagenta"> &#160;0,0 &#160;&#160;</text>
</g>
<!-- 5 -->
<g id="node5" class="node">
<title>5</title>
<ellipse fill="none" stroke="black" cx="299.37" cy="-1173.46" rx="205.95" ry="27.93"/>
<text text-anchor="middle" x="299.37" y="-1171.11" font-family="Times New Roman,serif" font-size="8.00">5. type_code = is_side_one_equal_two(type_code)</text>
<text text-anchor="start" x="82.17" y="-1193.79" font-family="Times New Roman,serif" font-size="8.00" fill="darkorange">1,0</text>
</g>
<!-- 4&#45;&gt;5 -->
<g id="edge4" class="edge">
<title>4&#45;&gt;5</title>
<path fill="none" stroke="#429e6a" d="M299.37,-1292.95C299.37,-1268.63 299.37,-1237.28 299.37,-1212.94"/>
<polygon fill="#429e6a" stroke="#429e6a" points="302.87,-1213.13 299.37,-1203.13 295.87,-1213.13 302.87,-1213.13"/>
<text text-anchor="middle" x="312.12" y="-1250.22" font-family="Times New Roman,serif" font-size="8.00">&quot;i == j&quot;</text>
<text text-anchor="middle" x="312.12" y="-1239.72" font-family="Times New Roman,serif" font-size="8.00">c[7]</text>
<text text-anchor="start" x="276.87" y="-1239.49" font-family="Times New Roman,serif" font-size="8.00" fill="darkmagenta"> &#160;1,0 &#160;&#160;</text>
</g>
<!-- 6 -->
<g id="node6" class="node">
<title>6</title>
<ellipse fill="none" stroke="black" cx="512.37" cy="-1090.53" rx="42.58" ry="18"/>
<text text-anchor="middle" x="512.37" y="-1088.18" font-family="Times New Roman,serif" font-size="8.00">6. if i == k:</text>
<text text-anchor="start" x="458.54" y="-1100.93" font-family="Times New Roman,serif" font-size="8.00" fill="darkorange">4,4</text>
</g>
<!-- 4&#45;&gt;6 -->
<g id="edge5" class="edge">
<title>4&#45;&gt;6</title>
<path fill="none" stroke="blue" d="M360.11,-1313.28C411.42,-1294.45 481.64,-1259.41 514.37,-1201.39 528.4,-1176.52 525.34,-1143.16 520.37,-1119.76"/>
<polygon fill="blue" stroke="blue" points="523.85,-1119.22 518.12,-1110.3 517.04,-1120.84 523.85,-1119.22"/>
<text text-anchor="middle" x="535.62" y="-1171.11" font-family="Times New Roman,serif" font-size="8.00">(i != j)</text>
<text text-anchor="start" x="450.13" y="-1243.21" font-family="Times New Roman,serif" font-size="8.00" fill="darkmagenta"> &#160;3,4 &#160;&#160;</text>
</g>
<!-- 5&#45;&gt;6 -->
<g id="edge6" class="edge">
<title>5&#45;&gt;6</title>
<path fill="none" stroke="#429e6a" d="M367.35,-1146.63C401.36,-1133.71 441.42,-1118.49 470.81,-1107.32"/>
<polygon fill="#429e6a" stroke="#429e6a" points="472,-1110.61 480.1,-1103.79 469.51,-1104.07 472,-1110.61"/>
<text text-anchor="start" x="402.09" y="-1117.28" font-family="Times New Roman,serif" font-size="8.00" fill="darkmagenta"> &#160;1,0 &#160;&#160;</text>
</g>
<!-- 7 -->
<g id="node7" class="node">
<title>7</title>
<ellipse fill="none" stroke="black" cx="380.37" cy="-987.6" rx="210.19" ry="27.93"/>
<text text-anchor="middle" x="380.37" y="-985.25" font-family="Times New Roman,serif" font-size="8.00">7. type_code = is_side_one_equal_three(type_code)</text>
<text text-anchor="start" x="158.93" y="-1007.93" font-family="Times New Roman,serif" font-size="8.00" fill="darkorange">1,0</text>
</g>
<!-- 6&#45;&gt;7 -->
<g id="edge7" class="edge">
<title>6&#45;&gt;7</title>
<path fill="none" stroke="#429e6a" d="M492.32,-1074.2C474.37,-1060.47 447.4,-1039.85 424.44,-1022.29"/>
<polygon fill="#429e6a" stroke="#429e6a" points="426.81,-1019.7 416.74,-1016.41 422.56,-1025.26 426.81,-1019.7"/>
<text text-anchor="middle" x="479.25" y="-1046.93" font-family="Times New Roman,serif" font-size="8.00">&quot;i == k&quot;</text>
<text text-anchor="middle" x="479.25" y="-1036.43" font-family="Times New Roman,serif" font-size="8.00">c[8]</text>
<text text-anchor="start" x="431.6" y="-1037.37" font-family="Times New Roman,serif" font-size="8.00" fill="darkmagenta"> &#160;1,0 &#160;&#160;</text>
</g>
<!-- 8 -->
<g id="node8" class="node">
<title>8</title>
<ellipse fill="none" stroke="black" cx="567.37" cy="-904.67" rx="42.58" ry="18"/>
<text text-anchor="middle" x="567.37" y="-902.32" font-family="Times New Roman,serif" font-size="8.00">8. if j == k:</text>
<text text-anchor="start" x="513.54" y="-915.07" font-family="Times New Roman,serif" font-size="8.00" fill="darkorange">4,4</text>
</g>
<!-- 6&#45;&gt;8 -->
<g id="edge8" class="edge">
<title>6&#45;&gt;8</title>
<path fill="none" stroke="blue" d="M538.35,-1075.86C559.17,-1063.29 586.89,-1042.53 599.37,-1015.53 609.79,-992.99 605.93,-983.61 599.37,-959.67 596.68,-949.85 591.69,-940 586.44,-931.46"/>
<polygon fill="blue" stroke="blue" points="589.53,-929.79 581.11,-923.37 583.69,-933.64 589.53,-929.79"/>
<text text-anchor="middle" x="617.75" y="-985.25" font-family="Times New Roman,serif" font-size="8.00">(i != k)</text>
<text text-anchor="start" x="599.4" y="-1007.86" font-family="Times New Roman,serif" font-size="8.00" fill="darkmagenta"> &#160;3,4 &#160;&#160;</text>
</g>
<!-- 7&#45;&gt;8 -->
<g id="edge9" class="edge">
<title>7&#45;&gt;8</title>
<path fill="none" stroke="#429e6a" d="M440.83,-960.43C469.4,-948.07 502.69,-933.66 527.96,-922.72"/>
<polygon fill="#429e6a" stroke="#429e6a" points="529.08,-926.05 536.87,-918.87 526.3,-919.63 529.08,-926.05"/>
<text text-anchor="start" x="467" y="-931.77" font-family="Times New Roman,serif" font-size="8.00" fill="darkmagenta"> &#160;1,0 &#160;&#160;</text>
</g>
<!-- 9 -->
<g id="node9" class="node">
<title>9</title>
<ellipse fill="none" stroke="black" cx="321.37" cy="-791.24" rx="210.72" ry="27.93"/>
<text text-anchor="middle" x="321.37" y="-788.89" font-family="Times New Roman,serif" font-size="8.00">9. type_code = is_side_two_equal_three(type_code)</text>
<text text-anchor="start" x="99.4" y="-811.57" font-family="Times New Roman,serif" font-size="8.00" fill="darkorange">0,4</text>
</g>
<!-- 8&#45;&gt;9 -->
<g id="edge10" class="edge">
<title>8&#45;&gt;9</title>
<path fill="none" stroke="red" stroke-width="5" d="M539.15,-890.88C503.92,-874.93 442.38,-847.05 393.68,-824.99"/>
<polygon fill="red" stroke="red" stroke-width="5" points="395.62,-821.07 384.71,-820.93 392.01,-829.04 395.62,-821.07"/>
<text text-anchor="middle" x="504.62" y="-861.07" font-family="Times New Roman,serif" font-size="8.00">&quot;j == k&quot;</text>
<text text-anchor="middle" x="504.62" y="-850.57" font-family="Times New Roman,serif" font-size="8.00">c[9]</text>
<text text-anchor="middle" x="504.62" y="-840.07" font-family="Times New Roman,serif" font-size="8.00">Score: 1.0</text>
<text text-anchor="start" x="436.43" y="-846.95" font-family="Times New Roman,serif" font-size="8.00" fill="darkmagenta"> &#160;0,4 &#160;&#160;</text>
</g>
<!-- 10 -->
<g id="node10" class="node">
<title>10</title>
<ellipse fill="none" stroke="black" cx="364.37" cy="-708.31" rx="80.01" ry="18"/>
<text text-anchor="middle" x="364.37" y="-705.96" font-family="Times New Roman,serif" font-size="8.00">10. if type_code == 0:</text>
<text text-anchor="start" x="273.11" y="-718.71" font-family="Times New Roman,serif" font-size="8.00" fill="darkorange">4,4</text>
</g>
<!-- 8&#45;&gt;10 -->
<g id="edge11" class="edge">
<title>8&#45;&gt;10</title>
<path fill="none" stroke="#429e6a" d="M569.41,-886.57C571.88,-857.47 572.4,-798.06 541.37,-763.31 518.4,-737.58 483.56,-723.93 450.85,-716.76"/>
<polygon fill="#429e6a" stroke="#429e6a" points="451.84,-713.39 441.35,-714.86 450.47,-720.25 451.84,-713.39"/>
<text text-anchor="middle" x="578.75" y="-788.89" font-family="Times New Roman,serif" font-size="8.00">(j != k)</text>
<text text-anchor="start" x="518.84" y="-745.17" font-family="Times New Roman,serif" font-size="8.00" fill="darkmagenta"> &#160;4,0 &#160;&#160;</text>
</g>
<!-- 9&#45;&gt;10 -->
<g id="edge12" class="edge">
<title>9&#45;&gt;10</title>
<path fill="none" stroke="red" d="M335.69,-763.29C340.27,-754.66 345.35,-745.1 349.94,-736.46"/>
<polygon fill="red" stroke="red" points="352.93,-738.3 354.53,-727.82 346.75,-735.01 352.93,-738.3"/>
<text text-anchor="start" x="323.03" y="-737.17" font-family="Times New Roman,serif" font-size="8.00" fill="darkmagenta"> &#160;0,4 &#160;&#160;</text>
</g>
<!-- 11 -->
<g id="node11" class="node">
<title>11</title>
<ellipse fill="none" stroke="black" cx="253.37" cy="-267.15" rx="160.34" ry="27.93"/>
<text text-anchor="middle" x="253.37" y="-264.8" font-family="Times New Roman,serif" font-size="8.00">11. if i + j &lt;= k or j + k &lt;= i or i + k &lt;= j:</text>
<text text-anchor="start" x="81.78" y="-287.48" font-family="Times New Roman,serif" font-size="8.00" fill="darkorange">2,0</text>
</g>
<!-- 10&#45;&gt;11 -->
<g id="edge13" class="edge">
<title>10&#45;&gt;11</title>
<path fill="none" stroke="#429e6a" d="M352.48,-690.28C342.67,-674.55 330.37,-650.17 330.37,-626.81 330.37,-626.81 330.37,-626.81 330.37,-403.94 330.37,-366.25 307.64,-329.43 286.87,-303.66"/>
<polygon fill="#429e6a" stroke="#429e6a" points="289.72,-301.61 280.62,-296.18 284.35,-306.1 289.72,-301.61"/>
<text text-anchor="middle" x="361.12" y="-535.71" font-family="Times New Roman,serif" font-size="8.00">&quot;type_code == 0&quot;</text>
<text text-anchor="middle" x="361.12" y="-525.21" font-family="Times New Roman,serif" font-size="8.00">c[10]</text>
<text text-anchor="start" x="307.87" y="-396.34" font-family="Times New Roman,serif" font-size="8.00" fill="darkmagenta"> &#160;2,0 &#160;&#160;</text>
</g>
<!-- 13 -->
<g id="node12" class="node">
<title>13</title>
<ellipse fill="none" stroke="black" cx="441.37" cy="-625.81" rx="74.52" ry="18"/>
<text text-anchor="middle" x="441.37" y="-623.46" font-family="Times New Roman,serif" font-size="8.00">13. if type_code &gt; 3:</text>
<text text-anchor="start" x="355.6" y="-636.21" font-family="Times New Roman,serif" font-size="8.00" fill="darkorange">2,4</text>
</g>
<!-- 10&#45;&gt;13 -->
<g id="edge14" class="edge">
<title>10&#45;&gt;13</title>
<path fill="none" stroke="blue" d="M380.7,-690.23C391.32,-679.13 405.35,-664.47 417.24,-652.03"/>
<polygon fill="blue" stroke="blue" points="419.63,-654.59 424.02,-644.95 414.58,-649.75 419.63,-654.59"/>
<text text-anchor="middle" x="436.62" y="-664.71" font-family="Times New Roman,serif" font-size="8.00">(type_code != 0)</text>
<text text-anchor="start" x="380.45" y="-659.37" font-family="Times New Roman,serif" font-size="8.00" fill="darkmagenta"> &#160;2,4 &#160;&#160;</text>
</g>
<!-- 26 -->
<g id="node13" class="node">
<title>26</title>
<ellipse fill="none" stroke="black" cx="169.37" cy="-119.43" rx="69.12" ry="27.93"/>
<text text-anchor="middle" x="169.37" y="-117.08" font-family="Times New Roman,serif" font-size="8.00">26. type_code = 4</text>
<text text-anchor="start" x="89" y="-139.76" font-family="Times New Roman,serif" font-size="8.00" fill="darkorange">2,0</text>
</g>
<!-- 11&#45;&gt;26 -->
<g id="edge15" class="edge">
<title>11&#45;&gt;26</title>
<path fill="none" stroke="#429e6a" d="M153.34,-244.95C142.8,-238.9 133.39,-231.15 126.37,-221.22 112.04,-200.95 117.12,-188.4 126.37,-165.36 127.95,-161.42 130.06,-157.63 132.5,-154.04"/>
<polygon fill="#429e6a" stroke="#429e6a" points="135.22,-156.24 138.65,-146.22 129.72,-151.92 135.22,-156.24"/>
<text text-anchor="middle" x="189.37" y="-196.19" font-family="Times New Roman,serif" font-size="8.00">&quot;i + j &lt;= k or j + k &lt;= i or i + k &lt;= j&quot;</text>
<text text-anchor="middle" x="189.37" y="-185.69" font-family="Times New Roman,serif" font-size="8.00">c[11]</text>
<text text-anchor="start" x="95.02" y="-186.83" font-family="Times New Roman,serif" font-size="8.00" fill="darkmagenta"> &#160;2,0 &#160;&#160;</text>
</g>
<!-- 28 -->
<g id="node14" class="node">
<title>28</title>
<ellipse fill="none" stroke="black" cx="331.37" cy="-119.43" rx="69.12" ry="27.93"/>
<text text-anchor="middle" x="331.37" y="-117.08" font-family="Times New Roman,serif" font-size="8.00">28. type_code = 1</text>
<text text-anchor="start" x="251" y="-139.76" font-family="Times New Roman,serif" font-size="8.00" fill="darkorange">0,0</text>
</g>
<!-- 11&#45;&gt;28 -->
<g id="edge16" class="edge">
<title>11&#45;&gt;28</title>
<path fill="none" stroke="black" d="M254.3,-239.06C256.15,-217.64 261.26,-187.73 275.12,-165.36 278.29,-160.25 282.25,-155.47 286.6,-151.08"/>
<polygon fill="black" stroke="black" points="288.63,-153.97 293.64,-144.63 283.9,-148.81 288.63,-153.97"/>
<text text-anchor="middle" x="350.5" y="-196.19" font-family="Times New Roman,serif" font-size="8.00">&quot;(not (i + j &lt;= k or j + k &lt;= i or i + k &lt;= j))&quot;</text>
<text text-anchor="middle" x="350.5" y="-185.69" font-family="Times New Roman,serif" font-size="8.00">c[12]</text>
<text text-anchor="start" x="253.48" y="-169.36" font-family="Times New Roman,serif" font-size="8.00" fill="darkmagenta"> &#160;0,0 &#160;&#160;</text>
</g>
<!-- 14 -->
<g id="node15" class="node">
<title>14</title>
<ellipse fill="none" stroke="black" cx="441.37" cy="-468.88" rx="69.12" ry="27.93"/>
<text text-anchor="middle" x="441.37" y="-466.53" font-family="Times New Roman,serif" font-size="8.00">14. type_code = 3</text>
<text text-anchor="start" x="361" y="-489.21" font-family="Times New Roman,serif" font-size="8.00" fill="darkorange">0,0</text>
</g>
<!-- 13&#45;&gt;14 -->
<g id="edge19" class="edge">
<title>13&#45;&gt;14</title>
<path fill="none" stroke="black" d="M441.37,-607.33C441.37,-583.55 441.37,-540.31 441.37,-508.66"/>
<polygon fill="black" stroke="black" points="444.87,-508.68 441.37,-498.68 437.87,-508.68 444.87,-508.68"/>
<text text-anchor="middle" x="469.87" y="-582.21" font-family="Times New Roman,serif" font-size="8.00">&quot;type_code &gt; 3&quot;</text>
<text text-anchor="middle" x="469.87" y="-571.71" font-family="Times New Roman,serif" font-size="8.00">c[13]</text>
<text text-anchor="start" x="418.87" y="-544.55" font-family="Times New Roman,serif" font-size="8.00" fill="darkmagenta"> &#160;0,0 &#160;&#160;</text>
</g>
<!-- 16 -->
<g id="node16" class="node">
<title>16</title>
<ellipse fill="none" stroke="black" cx="607.37" cy="-532.81" rx="127.91" ry="18"/>
<text text-anchor="middle" x="607.37" y="-530.46" font-family="Times New Roman,serif" font-size="8.00">16. if type_code == 1 and i + j &gt; k:</text>
<text text-anchor="start" x="468.21" y="-543.21" font-family="Times New Roman,serif" font-size="8.00" fill="darkorange">2,4</text>
</g>
<!-- 13&#45;&gt;16 -->
<g id="edge20" class="edge">
<title>13&#45;&gt;16</title>
<path fill="none" stroke="blue" d="M470.28,-608.96C496.99,-594.31 536.93,-572.42 566.82,-556.04"/>
<polygon fill="blue" stroke="blue" points="568.12,-559.31 575.21,-551.44 564.76,-553.17 568.12,-559.31"/>
<text text-anchor="middle" x="568.37" y="-576.96" font-family="Times New Roman,serif" font-size="8.00">(type_code &lt;= 3)</text>
<text text-anchor="start" x="500.87" y="-572.26" font-family="Times New Roman,serif" font-size="8.00" fill="darkmagenta"> &#160;2,4 &#160;&#160;</text>
</g>
<!-- 26&#45;&gt;3 -->
<g id="edge17" class="edge">
<title>26&#45;&gt;3</title>
<path fill="none" stroke="#429e6a" d="M222.11,-101.03C232.44,-97.76 243.22,-94.45 253.37,-91.5 301.89,-77.41 357.29,-63.04 398.56,-52.68"/>
<polygon fill="#429e6a" stroke="#429e6a" points="399.22,-56.12 408.07,-50.3 397.52,-49.33 399.22,-56.12"/>
<text text-anchor="start" x="292.59" y="-66.72" font-family="Times New Roman,serif" font-size="8.00" fill="darkmagenta"> &#160;2,0 &#160;&#160;</text>
</g>
<!-- 28&#45;&gt;3 -->
<g id="edge18" class="edge">
<title>28&#45;&gt;3</title>
<path fill="none" stroke="black" d="M367.99,-95.46C385.97,-84.18 407.52,-70.66 425.28,-59.51"/>
<polygon fill="black" stroke="black" points="426.82,-62.68 433.43,-54.4 423.1,-56.75 426.82,-62.68"/>
<text text-anchor="start" x="378.83" y="-66.94" font-family="Times New Roman,serif" font-size="8.00" fill="darkmagenta"> &#160;0,0 &#160;&#160;</text>
</g>
<!-- 14&#45;&gt;3 -->
<g id="edge21" class="edge">
<title>14&#45;&gt;3</title>
<path fill="none" stroke="black" d="M441.37,-440.87C441.37,-415.38 441.37,-376.1 441.37,-342.01 441.37,-342.01 441.37,-342.01 441.37,-118.43 441.37,-100.6 445.79,-81.14 450.37,-65.77"/>
<polygon fill="black" stroke="black" points="453.67,-66.94 453.37,-56.35 447,-64.81 453.67,-66.94"/>
<text text-anchor="start" x="418.87" y="-306.47" font-family="Times New Roman,serif" font-size="8.00" fill="darkmagenta"> &#160;0,0 &#160;&#160;</text>
</g>
<!-- 17 -->
<g id="node17" class="node">
<title>17</title>
<ellipse fill="none" stroke="black" cx="607.37" cy="-341.01" rx="150.79" ry="27.93"/>
<text text-anchor="middle" x="607.37" y="-338.66" font-family="Times New Roman,serif" font-size="8.00">17. type_code = display_type_code(2)</text>
<text text-anchor="start" x="445.33" y="-361.34" font-family="Times New Roman,serif" font-size="8.00" fill="darkorange">1,0</text>
</g>
<!-- 16&#45;&gt;17 -->
<g id="edge22" class="edge">
<title>16&#45;&gt;17</title>
<path fill="none" stroke="#429e6a" d="M607.37,-514.63C607.37,-484.56 607.37,-421.71 607.37,-380.72"/>
<polygon fill="#429e6a" stroke="#429e6a" points="610.87,-380.79 607.37,-370.79 603.87,-380.79 610.87,-380.79"/>
<text text-anchor="middle" x="659.87" y="-471.78" font-family="Times New Roman,serif" font-size="8.00">&quot;type_code == 1 and i + j &gt; k&quot;</text>
<text text-anchor="middle" x="659.87" y="-461.28" font-family="Times New Roman,serif" font-size="8.00">c[14]</text>
<text text-anchor="start" x="584.87" y="-434.32" font-family="Times New Roman,serif" font-size="8.00" fill="darkmagenta"> &#160;1,0 &#160;&#160;</text>
</g>
<!-- 19 -->
<g id="node18" class="node">
<title>19</title>
<ellipse fill="none" stroke="black" cx="781.37" cy="-404.94" rx="127.91" ry="18"/>
<text text-anchor="middle" x="781.37" y="-402.59" font-family="Times New Roman,serif" font-size="8.00">19. if type_code == 2 and i + k &gt; j:</text>
<text text-anchor="start" x="642.21" y="-415.34" font-family="Times New Roman,serif" font-size="8.00" fill="darkorange">1,4</text>
</g>
<!-- 16&#45;&gt;19 -->
<g id="edge23" class="edge">
<title>16&#45;&gt;19</title>
<path fill="none" stroke="blue" d="M675.73,-517.23C689.99,-512.23 704.33,-505.59 716.37,-496.81 738.95,-480.33 756.7,-453.62 767.91,-433.41"/>
<polygon fill="blue" stroke="blue" points="771,-435.05 772.6,-424.58 764.82,-431.77 771,-435.05"/>
<text text-anchor="middle" x="824.25" y="-466.53" font-family="Times New Roman,serif" font-size="8.00">(not (type_code == 1 and i + j &gt; k))</text>
<text text-anchor="start" x="712.66" y="-472.27" font-family="Times New Roman,serif" font-size="8.00" fill="darkmagenta"> &#160;1,4 &#160;&#160;</text>
</g>
<!-- 17&#45;&gt;3 -->
<g id="edge24" class="edge">
<title>17&#45;&gt;3</title>
<path fill="none" stroke="#429e6a" d="M572.9,-313.34C547.12,-291.44 513.19,-258.11 494.37,-221.22 468.57,-170.64 462.15,-103.33 460.68,-65.82"/>
<polygon fill="#429e6a" stroke="#429e6a" points="464.19,-66.15 460.4,-56.26 457.19,-66.36 464.19,-66.15"/>
<text text-anchor="start" x="460.91" y="-188.22" font-family="Times New Roman,serif" font-size="8.00" fill="darkmagenta"> &#160;1,0 &#160;&#160;</text>
</g>
<!-- 20 -->
<g id="node19" class="node">
<title>20</title>
<ellipse fill="none" stroke="black" cx="654.37" cy="-193.29" rx="150.79" ry="27.93"/>
<text text-anchor="middle" x="654.37" y="-190.94" font-family="Times New Roman,serif" font-size="8.00">20. type_code = display_type_code(2)</text>
<text text-anchor="start" x="492.33" y="-213.62" font-family="Times New Roman,serif" font-size="8.00" fill="darkorange">1,0</text>
</g>
<!-- 19&#45;&gt;20 -->
<g id="edge25" class="edge">
<title>19&#45;&gt;20</title>
<path fill="none" stroke="#429e6a" d="M779.7,-386.67C777.31,-367.71 771.75,-336.83 759.37,-313.08 742.71,-281.13 715.62,-250.79 693.14,-228.77"/>
<polygon fill="#429e6a" stroke="#429e6a" points="695.82,-226.49 686.18,-222.1 690.97,-231.55 695.82,-226.49"/>
<text text-anchor="middle" x="828.87" y="-343.91" font-family="Times New Roman,serif" font-size="8.00">&quot;type_code == 2 and i + k &gt; j&quot;</text>
<text text-anchor="middle" x="828.87" y="-333.41" font-family="Times New Roman,serif" font-size="8.00">c[15]</text>
<text text-anchor="start" x="725.31" y="-285.91" font-family="Times New Roman,serif" font-size="8.00" fill="darkmagenta"> &#160;1,0 &#160;&#160;</text>
</g>
<!-- 22 -->
<g id="node20" class="node">
<title>22</title>
<ellipse fill="none" stroke="black" cx="937.37" cy="-267.15" rx="127.91" ry="18"/>
<text text-anchor="middle" x="937.37" y="-264.8" font-family="Times New Roman,serif" font-size="8.00">22. if type_code == 3 and j + k &gt; i:</text>
<text text-anchor="start" x="798.21" y="-277.55" font-family="Times New Roman,serif" font-size="8.00" fill="darkorange">0,4</text>
</g>
<!-- 19&#45;&gt;22 -->
<g id="edge26" class="edge">
<title>19&#45;&gt;22</title>
<path fill="none" stroke="red" d="M854.13,-389.83C867.24,-384.83 880.01,-378.08 890.37,-368.94 911.95,-349.92 924.33,-318.89 930.91,-296.28"/>
<polygon fill="red" stroke="red" points="934.25,-297.36 933.45,-286.79 927.49,-295.55 934.25,-297.36"/>
<text text-anchor="middle" x="986.25" y="-338.66" font-family="Times New Roman,serif" font-size="8.00">(not (type_code == 2 and i + k &gt; j))</text>
<text text-anchor="start" x="886.26" y="-339.46" font-family="Times New Roman,serif" font-size="8.00" fill="darkmagenta"> &#160;0,4 &#160;&#160;</text>
</g>
<!-- 20&#45;&gt;3 -->
<g id="edge27" class="edge">
<title>20&#45;&gt;3</title>
<path fill="none" stroke="#429e6a" d="M572.2,-169.47C559.35,-163.6 546.87,-156.33 536.37,-147.36 507.19,-122.45 516.24,-103.31 493.37,-72.5 490.88,-69.15 488.11,-65.78 485.26,-62.52"/>
<polygon fill="#429e6a" stroke="#429e6a" points="488.03,-60.36 478.69,-55.35 482.87,-65.09 488.03,-60.36"/>
<text text-anchor="start" x="491.44" y="-108.37" font-family="Times New Roman,serif" font-size="8.00" fill="darkmagenta"> &#160;1,0 &#160;&#160;</text>
</g>
<!-- 23 -->
<g id="node21" class="node">
<title>23</title>
<ellipse fill="none" stroke="black" cx="696.37" cy="-119.43" rx="150.79" ry="27.93"/>
<text text-anchor="middle" x="696.37" y="-117.08" font-family="Times New Roman,serif" font-size="8.00">23. type_code = display_type_code(2)</text>
<text text-anchor="start" x="534.33" y="-139.76" font-family="Times New Roman,serif" font-size="8.00" fill="darkorange">0,2</text>
</g>
<!-- 22&#45;&gt;23 -->
<g id="edge28" class="edge">
<title>22&#45;&gt;23</title>
<path fill="none" stroke="red" stroke-width="3.96" d="M904.47,-249.48C890.78,-241.79 875.14,-231.98 862.37,-221.22 837.34,-200.13 841.16,-184.18 814.37,-165.36 806.37,-159.74 797.57,-154.71 788.49,-150.24"/>
<polygon fill="red" stroke="red" stroke-width="3.96" points="790.09,-147.12 779.54,-146.16 787.18,-153.49 790.09,-147.12"/>
<text text-anchor="middle" x="914.87" y="-201.44" font-family="Times New Roman,serif" font-size="8.00">&quot;type_code == 3 and j + k &gt; i&quot;</text>
<text text-anchor="middle" x="914.87" y="-190.94" font-family="Times New Roman,serif" font-size="8.00">c[16]</text>
<text text-anchor="middle" x="914.87" y="-180.44" font-family="Times New Roman,serif" font-size="8.00">Score: 0.74</text>
<text text-anchor="start" x="818.34" y="-187.79" font-family="Times New Roman,serif" font-size="8.00" fill="darkmagenta"> &#160;0,2 &#160;&#160;</text>
</g>
<!-- 25 -->
<g id="node22" class="node">
<title>25</title>
<ellipse fill="none" stroke="black" cx="1016.37" cy="-119.43" rx="150.79" ry="27.93"/>
<text text-anchor="middle" x="1016.37" y="-117.08" font-family="Times New Roman,serif" font-size="8.00">25. type_code = display_type_code(4)</text>
<text text-anchor="start" x="854.33" y="-139.76" font-family="Times New Roman,serif" font-size="8.00" fill="darkorange">0,2</text>
</g>
<!-- 22&#45;&gt;25 -->
<g id="edge29" class="edge">
<title>22&#45;&gt;25</title>
<path fill="none" stroke="red" stroke-width="3.96" d="M951.91,-248.88C958.33,-240.78 965.7,-230.82 971.37,-221.22 982.34,-202.66 992.36,-180.95 1000.14,-162.44"/>
<polygon fill="red" stroke="red" stroke-width="3.96" points="1003.32,-163.92 1003.86,-153.33 996.84,-161.27 1003.32,-163.92"/>
<text text-anchor="middle" x="1062.99" y="-201.44" font-family="Times New Roman,serif" font-size="8.00">&quot;(not (type_code == 3 and j + k &gt; i))&quot;</text>
<text text-anchor="middle" x="1062.99" y="-190.94" font-family="Times New Roman,serif" font-size="8.00">c[17]</text>
<text text-anchor="middle" x="1062.99" y="-180.44" font-family="Times New Roman,serif" font-size="8.00">Score: 0.74</text>
<text text-anchor="start" x="971.52" y="-182.19" font-family="Times New Roman,serif" font-size="8.00" fill="darkmagenta"> &#160;0,2 &#160;&#160;</text>
</g>
<!-- 23&#45;&gt;3 -->
<g id="edge30" class="edge">
<title>23&#45;&gt;3</title>
<path fill="none" stroke="red" d="M626.2,-94.37C589.67,-81.84 545.77,-66.78 512.31,-55.31"/>
<polygon fill="red" stroke="red" points="513.87,-52.15 503.27,-52.21 511.6,-58.77 513.87,-52.15"/>
<text text-anchor="start" x="541.45" y="-65.42" font-family="Times New Roman,serif" font-size="8.00" fill="darkmagenta"> &#160;0,2 &#160;&#160;</text>
</g>
<!-- 25&#45;&gt;3 -->
<g id="edge31" class="edge">
<title>25&#45;&gt;3</title>
<path fill="none" stroke="red" d="M908,-99.72C890.74,-96.88 873.08,-94.04 856.37,-91.5 745.22,-74.57 616.13,-57.44 536.34,-47.14"/>
<polygon fill="red" stroke="red" points="536.8,-43.67 526.44,-45.87 535.91,-50.62 536.8,-43.67"/>
<text text-anchor="start" x="694.37" y="-63.69" font-family="Times New Roman,serif" font-size="8.00" fill="darkmagenta"> &#160;0,2 &#160;&#160;</text>
</g>
</g>
</svg>
