<?xml version="1.0" encoding="UTF-8" standalone="no"?>
<!DOCTYPE svg PUBLIC "-//W3C//DTD SVG 1.1//EN"
 "http://www.w3.org/Graphics/SVG/1.1/DTD/svg11.dtd">
<!-- Generated by graphviz version 10.0.1 (20240210.2158)
 -->
<!-- Title: clusterconvert_list_to_hex Pages: 1 -->
<svg width="714pt" height="402pt"
 viewBox="0.00 0.00 713.74 402.08" xmlns="http://www.w3.org/2000/svg" xmlns:xlink="http://www.w3.org/1999/xlink">
<g id="graph0" class="graph" transform="scale(1 1) rotate(0) translate(4 398.08)">
<title>clusterconvert_list_to_hex</title>
<polygon fill="white" stroke="none" points="-4,4 -4,-398.08 709.74,-398.08 709.74,4 -4,4"/>
<text text-anchor="middle" x="352.87" y="-6.9" font-family="Times New Roman,serif" font-size="8.00">convert_list_to_hex</text>
<!-- 1 -->
<g id="node1" class="node">
<title>1</title>
<ellipse fill="none" stroke="black" cx="354.87" cy="-355.65" rx="54.27" ry="27.93"/>
<text text-anchor="middle" x="354.87" y="-353.3" font-family="Times New Roman,serif" font-size="8.00">1. results = []</text>
<text text-anchor="start" x="280.35" y="-375.98" font-family="Times New Roman,serif" font-size="8.00" fill="darkorange">13,13</text>
</g>
<!-- 2 -->
<g id="node2" class="node">
<title>2</title>
<ellipse fill="none" stroke="black" cx="354.87" cy="-272.72" rx="106.95" ry="18"/>
<text text-anchor="middle" x="354.87" y="-270.37" font-family="Times New Roman,serif" font-size="8.00">2. for num in decimal_nums:</text>
<text text-anchor="start" x="227.67" y="-283.12" font-family="Times New Roman,serif" font-size="8.00" fill="darkorange">65,65</text>
</g>
<!-- 1&#45;&gt;2 -->
<g id="edge1" class="edge">
<title>1&#45;&gt;2</title>
<path fill="none" stroke="blue" d="M354.87,-327.25C354.87,-319.34 354.87,-310.67 354.87,-302.66"/>
<polygon fill="blue" stroke="blue" points="358.37,-302.71 354.87,-292.71 351.37,-302.71 358.37,-302.71"/>
<text text-anchor="start" x="323.37" y="-301.94" font-family="Times New Roman,serif" font-size="8.00" fill="darkmagenta"> &#160;13,13 &#160;&#160;</text>
</g>
<!-- 3 -->
<g id="node3" class="node">
<title>3</title>
<ellipse fill="none" stroke="black" cx="434.87" cy="-169.79" rx="83.44" ry="27.93"/>
<text text-anchor="middle" x="434.87" y="-167.44" font-family="Times New Roman,serif" font-size="8.00">3. if num % 10 == 2:</text>
<text text-anchor="start" x="331.19" y="-190.12" font-family="Times New Roman,serif" font-size="8.00" fill="darkorange">52,52</text>
</g>
<!-- 2&#45;&gt;3 -->
<g id="edge2" class="edge">
<title>2&#45;&gt;3</title>
<path fill="none" stroke="blue" d="M368.45,-254.6C378.98,-241.31 393.93,-222.44 406.99,-205.97"/>
<polygon fill="blue" stroke="blue" points="409.6,-208.32 413.07,-198.31 404.11,-203.97 409.6,-208.32"/>
<text text-anchor="middle" x="421.25" y="-229.12" font-family="Times New Roman,serif" font-size="8.00">decimal_nums</text>
<text text-anchor="middle" x="421.25" y="-218.62" font-family="Times New Roman,serif" font-size="8.00">c[3]</text>
<text text-anchor="start" x="359.7" y="-218.3" font-family="Times New Roman,serif" font-size="8.00" fill="darkmagenta"> &#160;52,52 &#160;&#160;</text>
</g>
<!-- 4 -->
<g id="node4" class="node">
<title>4</title>
<ellipse fill="none" stroke="black" cx="274.87" cy="-169.79" rx="58.55" ry="18"/>
<text text-anchor="middle" x="274.87" y="-167.44" font-family="Times New Roman,serif" font-size="8.00">4. return results</text>
<text text-anchor="start" x="196.07" y="-144.19" font-family="Times New Roman,serif" font-size="8.00" fill="darkorange">13,13</text>
</g>
<!-- 2&#45;&gt;4 -->
<g id="edge3" class="edge">
<title>2&#45;&gt;4</title>
<path fill="none" stroke="blue" d="M341.3,-254.6C328.7,-238.7 309.76,-214.81 295.33,-196.59"/>
<polygon fill="blue" stroke="blue" points="298.14,-194.51 289.19,-188.85 292.65,-198.86 298.14,-194.51"/>
<text text-anchor="start" x="283.3" y="-213.57" font-family="Times New Roman,serif" font-size="8.00" fill="darkmagenta"> &#160;13,13 &#160;&#160;</text>
</g>
<!-- 5 -->
<g id="node5" class="node">
<title>5</title>
<ellipse fill="none" stroke="black" cx="189.87" cy="-46.43" rx="174.12" ry="27.93"/>
<text text-anchor="middle" x="189.87" y="-44.08" font-family="Times New Roman,serif" font-size="8.00">5. results.append(decimal_to_hex(num &#45; 1))</text>
<text text-anchor="start" x="0" y="-66.76" font-family="Times New Roman,serif" font-size="8.00" fill="darkorange">1,13</text>
</g>
<!-- 3&#45;&gt;5 -->
<g id="edge4" class="edge">
<title>3&#45;&gt;5</title>
<path fill="none" stroke="blue" stroke-width="5" d="M389.08,-146.11C351.79,-127.63 298.63,-101.3 256.6,-80.48"/>
<polygon fill="blue" stroke="blue" stroke-width="5" points="258.74,-76.66 247.83,-76.14 254.85,-84.5 258.74,-76.66"/>
<text text-anchor="middle" x="372.25" y="-116.26" font-family="Times New Roman,serif" font-size="8.00">&quot;num % 10 == 2&quot;</text>
<text text-anchor="middle" x="372.25" y="-105.76" font-family="Times New Roman,serif" font-size="8.00">c[4]</text>
<text text-anchor="middle" x="372.25" y="-95.26" font-family="Times New Roman,serif" font-size="8.00">Score: 0.55</text>
<text text-anchor="start" x="288.35" y="-101.98" font-family="Times New Roman,serif" font-size="8.00" fill="darkmagenta"> &#160;1,13 &#160;&#160;</text>
</g>
<!-- 7 -->
<g id="node6" class="node">
<title>7</title>
<ellipse fill="none" stroke="black" cx="544.87" cy="-46.43" rx="160.87" ry="27.93"/>
<text text-anchor="middle" x="544.87" y="-44.08" font-family="Times New Roman,serif" font-size="8.00">7. results.append(decimal_to_hex(num))</text>
<text text-anchor="start" x="363.76" y="-66.76" font-family="Times New Roman,serif" font-size="8.00" fill="darkorange">51,39</text>
</g>
<!-- 3&#45;&gt;7 -->
<g id="edge5" class="edge">
<title>3&#45;&gt;7</title>
<path fill="none" stroke="blue" d="M441.41,-141.66C446.29,-125.87 454.28,-106.38 466.62,-92.36 470.7,-87.73 475.37,-83.46 480.36,-79.55"/>
<polygon fill="blue" stroke="blue" points="482.31,-82.46 488.4,-73.79 478.23,-76.77 482.31,-82.46"/>
<text text-anchor="middle" x="498.5" y="-111.01" font-family="Times New Roman,serif" font-size="8.00">&quot;(num % 10 != 2)&quot;</text>
<text text-anchor="middle" x="498.5" y="-100.51" font-family="Times New Roman,serif" font-size="8.00">c[5]</text>
<text text-anchor="start" x="427.15" y="-95.4" font-family="Times New Roman,serif" font-size="8.00" fill="darkmagenta"> &#160;51,39 &#160;&#160;</text>
</g>
<!-- 5&#45;&gt;2 -->
<g id="edge6" class="edge">
<title>5&#45;&gt;2</title>
<path fill="none" stroke="blue" d="M185.65,-74.82C182.19,-107.18 181.38,-161.24 206.87,-197.72 225.63,-224.57 257.03,-242.18 286.1,-253.45"/>
<polygon fill="blue" stroke="blue" points="284.66,-256.65 295.25,-256.81 287.06,-250.08 284.66,-256.65"/>
<text text-anchor="start" x="179.89" y="-190.14" font-family="Times New Roman,serif" font-size="8.00" fill="darkmagenta"> &#160;1,13 &#160;&#160;</text>
</g>
<!-- 7&#45;&gt;2 -->
<g id="edge7" class="edge">
<title>7&#45;&gt;2</title>
<path fill="none" stroke="blue" d="M548.85,-74.81C552.02,-107.17 552.41,-161.23 526.87,-197.72 506.19,-227.28 471.11,-245.12 438.01,-255.84"/>
<polygon fill="blue" stroke="blue" points="437.35,-252.39 428.8,-258.64 439.38,-259.08 437.35,-252.39"/>
<text text-anchor="start" x="495.34" y="-190.17" font-family="Times New Roman,serif" font-size="8.00" fill="darkmagenta"> &#160;51,39 &#160;&#160;</text>
</g>
</g>
</svg>
