<?xml version="1.0" encoding="UTF-8" standalone="no"?>
<!DOCTYPE svg PUBLIC "-//W3C//DTD SVG 1.1//EN"
 "http://www.w3.org/Graphics/SVG/1.1/DTD/svg11.dtd">
<!-- Generated by graphviz version 10.0.1 (20240210.2158)
 -->
<!-- Pages: 1 -->
<svg width="348pt" height="156pt"
 viewBox="0.00 0.00 348.04 155.72" xmlns="http://www.w3.org/2000/svg" xmlns:xlink="http://www.w3.org/1999/xlink">
<g id="graph0" class="graph" transform="scale(1 1) rotate(0) translate(4 151.72)">
<polygon fill="white" stroke="none" points="-4,4 -4,-151.72 344.04,-151.72 344.04,4 -4,4"/>
<!-- combined.main -->
<g id="node1" class="node">
<title>combined.main</title>
<ellipse fill="none" stroke="black" stroke-width="2" cx="160.77" cy="-119.79" rx="76.54" ry="27.93"/>
<text text-anchor="middle" x="160.77" y="-122.24" font-family="Times New Roman,serif" font-size="14.00">combined.main</text>
<text text-anchor="middle" x="160.77" y="-106.49" font-family="Times New Roman,serif" font-size="14.00">Max Score: 0.57</text>
</g>
<!-- combined.med -->
<g id="node2" class="node">
<title>combined.med</title>
<ellipse fill="none" stroke="black" stroke-width="2" cx="71.77" cy="-27.93" rx="71.77" ry="27.93"/>
<text text-anchor="middle" x="71.77" y="-30.38" font-family="Times New Roman,serif" font-size="14.00">combined.med</text>
<text text-anchor="middle" x="71.77" y="-14.63" font-family="Times New Roman,serif" font-size="14.00">Max Score: 0.4</text>
</g>
<!-- combined.main&#45;&gt;combined.med -->
<g id="edge1" class="edge">
<title>combined.main&#45;&gt;combined.med</title>
<path fill="none" stroke="black" d="M135.03,-92.8C125.8,-83.49 115.26,-72.84 105.47,-62.95"/>
<polygon fill="black" stroke="black" points="108.04,-60.58 98.52,-55.94 103.07,-65.51 108.04,-60.58"/>
</g>
<!-- combined.multiply2 -->
<g id="node3" class="node">
<title>combined.multiply2</title>
<ellipse fill="none" stroke="red" stroke-width="2" cx="250.77" cy="-27.93" rx="89.27" ry="27.93"/>
<text text-anchor="middle" x="250.77" y="-30.38" font-family="Times New Roman,serif" font-size="14.00">combined.multiply2</text>
<text text-anchor="middle" x="250.77" y="-14.63" font-family="Times New Roman,serif" font-size="14.00">Max Score: 0.77</text>
</g>
<!-- combined.main&#45;&gt;combined.multiply2 -->
<g id="edge2" class="edge">
<title>combined.main&#45;&gt;combined.multiply2</title>
<path fill="none" stroke="black" d="M186.8,-92.8C195.97,-83.65 206.42,-73.21 216.18,-63.47"/>
<polygon fill="black" stroke="black" points="218.5,-66.1 223.1,-56.56 213.55,-61.15 218.5,-66.1"/>
</g>
</g>
</svg>
