<?xml version="1.0" encoding="UTF-8" standalone="no"?>
<!DOCTYPE svg PUBLIC "-//W3C//DTD SVG 1.1//EN"
 "http://www.w3.org/Graphics/SVG/1.1/DTD/svg11.dtd">
<!-- Generated by graphviz version 10.0.1 (20240210.2158)
 -->
<!-- Title: clusters_main_split Pages: 1 -->
<svg width="304pt" height="445pt"
 viewBox="0.00 0.00 303.63 445.36" xmlns="http://www.w3.org/2000/svg" xmlns:xlink="http://www.w3.org/1999/xlink">
<g id="graph0" class="graph" transform="scale(1 1) rotate(0) translate(4 441.36)">
<title>clusters_main_split</title>
<polygon fill="white" stroke="none" points="-4,4 -4,-441.36 299.63,-441.36 299.63,4 -4,4"/>
<text text-anchor="middle" x="147.82" y="-6.45" font-family="Times New Roman,serif" font-size="14.00">s_main_split</text>
<!-- 1 -->
<g id="node1" class="node">
<title>1</title>
<ellipse fill="none" stroke="black" cx="179.38" cy="-382.54" rx="47.38" ry="39.07"/>
<text text-anchor="middle" x="179.38" y="-392.87" font-family="Times New Roman,serif" font-size="14.00">1. a = 1</text>
<text text-anchor="middle" x="179.38" y="-377.12" font-family="Times New Roman,serif" font-size="14.00">b = 1</text>
<text text-anchor="middle" x="179.38" y="-361.37" font-family="Times New Roman,serif" font-size="14.00">if a == 1:</text>
<text text-anchor="start" x="87.76" y="-408.31" font-family="Times New Roman,serif" font-size="14.00" fill="darkorange">114,114</text>
</g>
<!-- 2 -->
<g id="node2" class="node">
<title>2</title>
<ellipse fill="none" stroke="black" cx="122.38" cy="-248.04" rx="78.13" ry="27.93"/>
<text text-anchor="middle" x="122.38" y="-242.62" font-family="Times New Roman,serif" font-size="14.00">2. multiply2(x, y, z)</text>
<text text-anchor="start" x="0" y="-262.67" font-family="Times New Roman,serif" font-size="14.00" fill="darkorange">114,114</text>
</g>
<!-- 1&#45;&gt;2 -->
<g id="edge1" class="edge">
<title>1&#45;&gt;2</title>
<path fill="none" stroke="blue" stroke-width="5" d="M142.25,-357.71C131.82,-348.95 121.79,-338.05 116.13,-325.47 111.47,-315.11 110.61,-303.17 111.54,-291.84"/>
<polygon fill="blue" stroke="blue" stroke-width="5" points="115.84,-292.67 113.01,-282.13 107.19,-291.36 115.84,-292.67"/>
<text text-anchor="middle" x="173.01" y="-312.17" font-family="Times New Roman,serif" font-size="14.00">&quot;a == 1&quot;</text>
<text text-anchor="middle" x="173.01" y="-296.42" font-family="Times New Roman,serif" font-size="14.00">c[12]:(114,114) 0.57</text>
<text text-anchor="start" x="70.49" y="-324.47" font-family="Times New Roman,serif" font-size="14.00" fill="darkmagenta">114,114</text>
</g>
<!-- 3 -->
<g id="node3" class="node">
<title>3</title>
<ellipse fill="none" stroke="black" cx="182.38" cy="-165.11" rx="55.06" ry="18"/>
<text text-anchor="middle" x="182.38" y="-159.69" font-family="Times New Roman,serif" font-size="14.00">3. if b == 1:</text>
<text text-anchor="start" x="83.08" y="-169.81" font-family="Times New Roman,serif" font-size="14.00" fill="darkorange">114,114</text>
</g>
<!-- 1&#45;&gt;3 -->
<g id="edge2" class="edge">
<title>1&#45;&gt;3</title>
<path fill="none" stroke="black" d="M211.48,-353.48C218.76,-345.27 225.48,-335.71 229.38,-325.47 246.81,-279.75 220.5,-224.64 200.77,-192.67"/>
<polygon fill="black" stroke="black" points="203.82,-190.94 195.48,-184.42 197.93,-194.72 203.82,-190.94"/>
<text text-anchor="middle" x="254.38" y="-242.62" font-family="Times New Roman,serif" font-size="14.00">(a != 1)</text>
<text text-anchor="start" x="213.84" y="-264.13" font-family="Times New Roman,serif" font-size="14.00" fill="darkmagenta">0,0</text>
</g>
<!-- 2&#45;&gt;3 -->
<g id="edge3" class="edge">
<title>2&#45;&gt;3</title>
<path fill="none" stroke="blue" d="M142.03,-220.54C148.83,-211.37 156.44,-201.11 163.2,-191.99"/>
<polygon fill="blue" stroke="blue" points="165.82,-194.33 168.96,-184.21 160.2,-190.16 165.82,-194.33"/>
<text text-anchor="start" x="111.74" y="-204.16" font-family="Times New Roman,serif" font-size="14.00" fill="darkmagenta">114,114</text>
</g>
<!-- 4 -->
<g id="node4" class="node">
<title>4</title>
<ellipse fill="none" stroke="black" cx="182.38" cy="-51.68" rx="59.04" ry="27.93"/>
<text text-anchor="middle" x="182.38" y="-46.26" font-family="Times New Roman,serif" font-size="14.00">4. med(x, y, z)</text>
<text text-anchor="start" x="79.09" y="-66.31" font-family="Times New Roman,serif" font-size="14.00" fill="darkorange">114,114</text>
</g>
<!-- 3&#45;&gt;4 -->
<g id="edge4" class="edge">
<title>3&#45;&gt;4</title>
<path fill="none" stroke="blue" stroke-width="5" d="M182.38,-146.7C182.38,-133.16 182.38,-113.76 182.38,-96.09"/>
<polygon fill="blue" stroke="blue" stroke-width="5" points="186.76,-96.18 182.38,-86.18 178.01,-96.18 186.76,-96.18"/>
<text text-anchor="middle" x="239.01" y="-115.81" font-family="Times New Roman,serif" font-size="14.00">&quot;b == 1&quot;</text>
<text text-anchor="middle" x="239.01" y="-100.06" font-family="Times New Roman,serif" font-size="14.00">c[13]:(114,114) 0.57</text>
<text text-anchor="start" x="138.13" y="-115.8" font-family="Times New Roman,serif" font-size="14.00" fill="darkmagenta">114,114</text>
</g>
</g>
</svg>
