<?xml version="1.0" encoding="UTF-8" standalone="no"?>
<!DOCTYPE svg PUBLIC "-//W3C//DTD SVG 1.1//EN"
 "http://www.w3.org/Graphics/SVG/1.1/DTD/svg11.dtd">
<!-- Generated by graphviz version 10.0.1 (20240210.2158)
 -->
<!-- Title: clusters_med_split Pages: 1 -->
<svg width="577pt" height="551pt"
 viewBox="0.00 0.00 576.72 550.95" xmlns="http://www.w3.org/2000/svg" xmlns:xlink="http://www.w3.org/1999/xlink">
<g id="graph0" class="graph" transform="scale(1 1) rotate(0) translate(4 546.95)">
<title>clusters_med_split</title>
<polygon fill="white" stroke="none" points="-4,4 -4,-546.95 572.72,-546.95 572.72,4 -4,4"/>
<text text-anchor="middle" x="284.36" y="-6.45" font-family="Times New Roman,serif" font-size="14.00">s_med_split</text>
<!-- 1 -->
<g id="node1" class="node">
<title>1</title>
<ellipse fill="none" stroke="black" cx="256.72" cy="-499.26" rx="56.39" ry="27.93"/>
<text text-anchor="middle" x="256.72" y="-501.71" font-family="Times New Roman,serif" font-size="14.00">1. med = w</text>
<text text-anchor="middle" x="256.72" y="-485.96" font-family="Times New Roman,serif" font-size="14.00">if v &lt; w:</text>
<text text-anchor="start" x="156.08" y="-513.9" font-family="Times New Roman,serif" font-size="14.00" fill="darkorange">114,114</text>
</g>
<!-- 2 -->
<g id="node2" class="node">
<title>2</title>
<ellipse fill="none" stroke="black" cx="199.72" cy="-375.9" rx="48.97" ry="27.93"/>
<text text-anchor="middle" x="199.72" y="-370.48" font-family="Times New Roman,serif" font-size="14.00">2. if u &lt; w:</text>
<text text-anchor="start" x="120" y="-390.53" font-family="Times New Roman,serif" font-size="14.00" fill="darkorange">55,48</text>
</g>
<!-- 1&#45;&gt;2 -->
<g id="edge1" class="edge">
<title>1&#45;&gt;2</title>
<path fill="none" stroke="blue" stroke-width="5" d="M223.88,-476.24C216.62,-469.74 209.8,-462.01 205.47,-453.33 200.4,-443.17 198.07,-431.3 197.21,-419.97"/>
<polygon fill="blue" stroke="blue" stroke-width="5" points="201.59,-420.19 197.01,-410.28 192.85,-420.37 201.59,-420.19"/>
<text text-anchor="middle" x="247.84" y="-440.03" font-family="Times New Roman,serif" font-size="14.00">&quot;v &lt; w&quot;</text>
<text text-anchor="middle" x="247.84" y="-424.28" font-family="Times New Roman,serif" font-size="14.00">c[1]:(55,48) 0.4</text>
<text text-anchor="start" x="170.57" y="-445.31" font-family="Times New Roman,serif" font-size="14.00" fill="darkmagenta">55,48</text>
</g>
<!-- 4 -->
<g id="node3" class="node">
<title>4</title>
<ellipse fill="none" stroke="black" cx="317.72" cy="-375.9" rx="49.07" ry="18"/>
<text text-anchor="middle" x="317.72" y="-370.48" font-family="Times New Roman,serif" font-size="14.00">4. if u &gt; v:</text>
<text text-anchor="start" x="268.65" y="-380.6" font-family="Times New Roman,serif" font-size="14.00" fill="darkorange">59,66</text>
</g>
<!-- 1&#45;&gt;4 -->
<g id="edge2" class="edge">
<title>1&#45;&gt;4</title>
<path fill="none" stroke="blue" d="M278.64,-473.15C283.37,-466.94 288.05,-460.12 291.72,-453.33 299.86,-438.25 306.15,-420.13 310.51,-405.32"/>
<polygon fill="blue" stroke="blue" points="313.87,-406.31 313.18,-395.74 307.13,-404.43 313.87,-406.31"/>
<text text-anchor="middle" x="329.47" y="-432.16" font-family="Times New Roman,serif" font-size="14.00">(v &gt;= w)</text>
<text text-anchor="start" x="292.56" y="-421.73" font-family="Times New Roman,serif" font-size="14.00" fill="darkmagenta">59,66</text>
</g>
<!-- 10 -->
<g id="node4" class="node">
<title>10</title>
<ellipse fill="none" stroke="black" cx="79.72" cy="-198.54" rx="48.97" ry="27.93"/>
<text text-anchor="middle" x="79.72" y="-193.12" font-family="Times New Roman,serif" font-size="14.00">10. med = v</text>
<text text-anchor="start" x="0" y="-213.17" font-family="Times New Roman,serif" font-size="14.00" fill="darkorange">34,29</text>
</g>
<!-- 2&#45;&gt;10 -->
<g id="edge3" class="edge">
<title>2&#45;&gt;10</title>
<path fill="none" stroke="blue" stroke-width="4.3" d="M155.2,-364.24C136.27,-357.49 115.62,-346.74 102.72,-329.97 83.79,-305.37 78.43,-270.45 77.59,-242.93"/>
<polygon fill="blue" stroke="blue" stroke-width="4.3" points="81.35,-243.02 77.58,-233.02 73.83,-243.02 81.35,-243.02"/>
<text text-anchor="middle" x="149.22" y="-316.67" font-family="Times New Roman,serif" font-size="14.00">&quot;u &lt; w&quot;</text>
<text text-anchor="middle" x="149.22" y="-300.92" font-family="Times New Roman,serif" font-size="14.00">c[2]:(34,29) 0.33</text>
<text text-anchor="start" x="58.74" y="-308.93" font-family="Times New Roman,serif" font-size="14.00" fill="darkmagenta">34,29</text>
</g>
<!-- 12 -->
<g id="node5" class="node">
<title>12</title>
<ellipse fill="none" stroke="black" cx="199.72" cy="-262.47" rx="55.55" ry="18"/>
<text text-anchor="middle" x="199.72" y="-257.05" font-family="Times New Roman,serif" font-size="14.00">12. if u &lt; w:</text>
<text text-anchor="start" x="113.41" y="-267.17" font-family="Times New Roman,serif" font-size="14.00" fill="darkorange">21,19</text>
</g>
<!-- 2&#45;&gt;12 -->
<g id="edge4" class="edge">
<title>2&#45;&gt;12</title>
<path fill="none" stroke="blue" d="M199.72,-347.64C199.72,-330.68 199.72,-308.91 199.72,-291.76"/>
<polygon fill="blue" stroke="blue" points="203.22,-292.25 199.72,-282.25 196.22,-292.25 203.22,-292.25"/>
<text text-anchor="middle" x="224.47" y="-308.8" font-family="Times New Roman,serif" font-size="14.00">(u &gt;= w)</text>
<text text-anchor="start" x="199.72" y="-316.77" font-family="Times New Roman,serif" font-size="14.00" fill="darkmagenta">21,19</text>
</g>
<!-- 5 -->
<g id="node8" class="node">
<title>5</title>
<ellipse fill="none" stroke="black" cx="318.72" cy="-198.54" rx="48.97" ry="27.93"/>
<text text-anchor="middle" x="318.72" y="-193.12" font-family="Times New Roman,serif" font-size="14.00">5. med = v</text>
<text text-anchor="start" x="239" y="-213.17" font-family="Times New Roman,serif" font-size="14.00" fill="darkorange">18,19</text>
</g>
<!-- 4&#45;&gt;5 -->
<g id="edge9" class="edge">
<title>4&#45;&gt;5</title>
<path fill="none" stroke="blue" stroke-width="4.1" d="M316.28,-357.42C315.66,-349.11 315.02,-339.04 314.72,-329.97 313.75,-300.86 314.76,-268.09 316.01,-242.67"/>
<polygon fill="blue" stroke="blue" stroke-width="4.1" points="319.58,-243.01 316.54,-232.83 312.42,-242.63 319.58,-243.01"/>
<text text-anchor="middle" x="361.22" y="-316.67" font-family="Times New Roman,serif" font-size="14.00">&quot;u &gt; v&quot;</text>
<text text-anchor="middle" x="361.22" y="-300.92" font-family="Times New Roman,serif" font-size="14.00">c[4]:(18,19) 0.31</text>
<text text-anchor="start" x="283.67" y="-294.45" font-family="Times New Roman,serif" font-size="14.00" fill="darkmagenta">18,19</text>
</g>
<!-- 7 -->
<g id="node9" class="node">
<title>7</title>
<ellipse fill="none" stroke="black" cx="433.72" cy="-262.47" rx="51.06" ry="18"/>
<text text-anchor="middle" x="433.72" y="-257.05" font-family="Times New Roman,serif" font-size="14.00">7. if u &gt; w:</text>
<text text-anchor="start" x="351.9" y="-267.17" font-family="Times New Roman,serif" font-size="14.00" fill="darkorange">41,47</text>
</g>
<!-- 4&#45;&gt;7 -->
<g id="edge10" class="edge">
<title>4&#45;&gt;7</title>
<path fill="none" stroke="blue" d="M356.03,-364.47C375.1,-357.51 397.13,-346.53 411.72,-329.97 421.01,-319.42 426.4,-304.84 429.51,-292.02"/>
<polygon fill="blue" stroke="blue" points="432.91,-292.88 431.47,-282.39 426.05,-291.49 432.91,-292.88"/>
<text text-anchor="middle" x="449.97" y="-308.8" font-family="Times New Roman,serif" font-size="14.00">(u &lt;= v)</text>
<text text-anchor="start" x="380.98" y="-332.41" font-family="Times New Roman,serif" font-size="14.00" fill="darkmagenta">41,47</text>
</g>
<!-- 3 -->
<g id="node6" class="node">
<title>3</title>
<ellipse fill="none" stroke="black" cx="316.72" cy="-41.75" rx="60.05" ry="18"/>
<text text-anchor="middle" x="316.72" y="-36.33" font-family="Times New Roman,serif" font-size="14.00">3. return med</text>
<text text-anchor="start" x="212.42" y="-46.45" font-family="Times New Roman,serif" font-size="14.00" fill="darkorange">114,114</text>
</g>
<!-- 10&#45;&gt;3 -->
<g id="edge5" class="edge">
<title>10&#45;&gt;3</title>
<path fill="none" stroke="blue" d="M83.5,-170.22C88.82,-142.55 101.3,-100.67 129.72,-77.75 147.79,-63.18 202.41,-54.05 247.98,-48.79"/>
<polygon fill="blue" stroke="blue" points="248.29,-52.28 257.84,-47.7 247.52,-45.32 248.29,-52.28"/>
<text text-anchor="start" x="127.83" y="-67.3" font-family="Times New Roman,serif" font-size="14.00" fill="darkmagenta">34,29</text>
</g>
<!-- 12&#45;&gt;3 -->
<g id="edge6" class="edge">
<title>12&#45;&gt;3</title>
<path fill="none" stroke="blue" d="M186.38,-244.91C162.63,-213.27 118.52,-143.27 152.22,-96.75 173.77,-66.98 212.26,-53.33 246.59,-47.19"/>
<polygon fill="blue" stroke="blue" points="246.74,-50.71 256.07,-45.69 245.65,-43.8 246.74,-50.71"/>
<text text-anchor="middle" x="177.47" y="-119.26" font-family="Times New Roman,serif" font-size="14.00">(u &gt;= w)</text>
<text text-anchor="start" x="133.98" y="-85.24" font-family="Times New Roman,serif" font-size="14.00" fill="darkmagenta">21,19</text>
</g>
<!-- 13 -->
<g id="node7" class="node">
<title>13</title>
<ellipse fill="none" stroke="black" cx="259.72" cy="-124.68" rx="48.97" ry="27.93"/>
<text text-anchor="middle" x="259.72" y="-119.26" font-family="Times New Roman,serif" font-size="14.00">13. med = u</text>
<text text-anchor="start" x="193.5" y="-139.31" font-family="Times New Roman,serif" font-size="14.00" fill="darkorange">0,0</text>
</g>
<!-- 12&#45;&gt;13 -->
<g id="edge7" class="edge">
<title>12&#45;&gt;13</title>
<path fill="none" stroke="black" d="M194.97,-244.34C190.67,-225.24 186.63,-193.97 198.47,-170.61 202.36,-162.92 208.27,-156.22 214.9,-150.52"/>
<polygon fill="black" stroke="black" points="216.6,-153.62 222.39,-144.75 212.33,-148.08 216.6,-153.62"/>
<text text-anchor="middle" x="229.84" y="-200.99" font-family="Times New Roman,serif" font-size="14.00">&quot;u &lt; w&quot;</text>
<text text-anchor="middle" x="229.84" y="-185.24" font-family="Times New Roman,serif" font-size="14.00">c[3]:(0,0) 0</text>
<text text-anchor="start" x="174.75" y="-193.59" font-family="Times New Roman,serif" font-size="14.00" fill="darkmagenta">0,0</text>
</g>
<!-- 13&#45;&gt;3 -->
<g id="edge8" class="edge">
<title>13&#45;&gt;3</title>
<path fill="none" stroke="black" d="M277.44,-98.52C284.04,-89.15 291.54,-78.5 298.2,-69.03"/>
<polygon fill="black" stroke="black" points="301.01,-71.13 303.91,-60.94 295.29,-67.1 301.01,-71.13"/>
<text text-anchor="start" x="273.85" y="-81.57" font-family="Times New Roman,serif" font-size="14.00" fill="darkmagenta">0,0</text>
</g>
<!-- 5&#45;&gt;3 -->
<g id="edge11" class="edge">
<title>5&#45;&gt;3</title>
<path fill="none" stroke="blue" d="M318.51,-170.16C318.34,-149.89 318.07,-121.6 317.72,-96.75 317.6,-88.43 317.44,-79.4 317.29,-71.14"/>
<polygon fill="blue" stroke="blue" points="320.79,-71.22 317.1,-61.29 313.79,-71.35 320.79,-71.22"/>
<text text-anchor="start" x="317.96" y="-117.7" font-family="Times New Roman,serif" font-size="14.00" fill="darkmagenta">18,19</text>
</g>
<!-- 7&#45;&gt;3 -->
<g id="edge12" class="edge">
<title>7&#45;&gt;3</title>
<path fill="none" stroke="blue" d="M424.54,-244.31C404.29,-206.46 355.66,-115.56 331.24,-69.89"/>
<polygon fill="blue" stroke="blue" points="334.37,-68.33 326.57,-61.17 328.2,-71.64 334.37,-68.33"/>
<text text-anchor="middle" x="399.47" y="-119.26" font-family="Times New Roman,serif" font-size="14.00">(u &lt;= w)</text>
<text text-anchor="start" x="344.33" y="-154.31" font-family="Times New Roman,serif" font-size="14.00" fill="darkmagenta">23,28</text>
</g>
<!-- 8 -->
<g id="node10" class="node">
<title>8</title>
<ellipse fill="none" stroke="black" cx="498.72" cy="-124.68" rx="48.97" ry="27.93"/>
<text text-anchor="middle" x="498.72" y="-119.26" font-family="Times New Roman,serif" font-size="14.00">8. med = u</text>
<text text-anchor="start" x="419" y="-139.31" font-family="Times New Roman,serif" font-size="14.00" fill="darkorange">18,19</text>
</g>
<!-- 7&#45;&gt;8 -->
<g id="edge13" class="edge">
<title>7&#45;&gt;8</title>
<path fill="none" stroke="blue" stroke-width="4.1" d="M441.95,-244.27C451.26,-224.83 466.74,-192.48 479.19,-166.48"/>
<polygon fill="blue" stroke="blue" stroke-width="4.1" points="482.39,-168.1 483.47,-157.53 475.92,-165 482.39,-168.1"/>
<text text-anchor="middle" x="522.22" y="-200.99" font-family="Times New Roman,serif" font-size="14.00">&quot;u &gt; w&quot;</text>
<text text-anchor="middle" x="522.22" y="-185.24" font-family="Times New Roman,serif" font-size="14.00">c[5]:(18,19) 0.31</text>
<text text-anchor="start" x="433.33" y="-200.5" font-family="Times New Roman,serif" font-size="14.00" fill="darkmagenta">18,19</text>
</g>
<!-- 8&#45;&gt;3 -->
<g id="edge14" class="edge">
<title>8&#45;&gt;3</title>
<path fill="none" stroke="blue" d="M460.98,-106.57C441.76,-97.89 418.02,-87.21 396.72,-77.75 384.94,-72.52 372.17,-66.91 360.36,-61.74"/>
<polygon fill="blue" stroke="blue" points="361.79,-58.55 351.22,-57.75 358.99,-64.96 361.79,-58.55"/>
<text text-anchor="start" x="365.95" y="-80.19" font-family="Times New Roman,serif" font-size="14.00" fill="darkmagenta">18,19</text>
</g>
</g>
</svg>
