<?xml version="1.0" encoding="UTF-8" standalone="no"?>
<!DOCTYPE svg PUBLIC "-//W3C//DTD SVG 1.1//EN"
 "http://www.w3.org/Graphics/SVG/1.1/DTD/svg11.dtd">
<!-- Generated by graphviz version 10.0.1 (20240210.2158)
 -->
<!-- Title: clusters_multiply2_split Pages: 1 -->
<svg width="858pt" height="642pt"
 viewBox="0.00 0.00 857.91 641.72" xmlns="http://www.w3.org/2000/svg" xmlns:xlink="http://www.w3.org/1999/xlink">
<g id="graph0" class="graph" transform="scale(1 1) rotate(0) translate(4 637.72)">
<title>clusters_multiply2_split</title>
<polygon fill="white" stroke="none" points="-4,4 -4,-637.72 853.91,-637.72 853.91,4 -4,4"/>
<text text-anchor="middle" x="424.95" y="-6.45" font-family="Times New Roman,serif" font-size="14.00">s_multiply2_split</text>
<!-- 1 -->
<g id="node1" class="node">
<title>1</title>
<ellipse fill="none" stroke="black" cx="364.61" cy="-578.9" rx="109.42" ry="39.07"/>
<text text-anchor="middle" x="364.61" y="-589.23" font-family="Times New Roman,serif" font-size="14.00">1. print(&#39;Inputs: &#39;, x, y, z)</text>
<text text-anchor="middle" x="364.61" y="-573.48" font-family="Times New Roman,serif" font-size="14.00">rxy = 0</text>
<text text-anchor="middle" x="364.61" y="-557.73" font-family="Times New Roman,serif" font-size="14.00">rxyz = 0</text>
<text text-anchor="start" x="210.94" y="-604.67" font-family="Times New Roman,serif" font-size="14.00" fill="darkorange">114,114</text>
</g>
<!-- 2 -->
<g id="node2" class="node">
<title>2</title>
<ellipse fill="none" stroke="black" cx="364.61" cy="-484.83" rx="98.47" ry="18"/>
<text text-anchor="middle" x="364.61" y="-479.41" font-family="Times New Roman,serif" font-size="14.00">2. for i in range(abs(x)):</text>
<text text-anchor="start" x="221.89" y="-489.53" font-family="Times New Roman,serif" font-size="14.00" fill="darkorange">277,321</text>
</g>
<!-- 1&#45;&gt;2 -->
<g id="edge1" class="edge">
<title>1&#45;&gt;2</title>
<path fill="none" stroke="blue" d="M364.61,-539.39C364.61,-531.01 364.61,-522.29 364.61,-514.39"/>
<polygon fill="blue" stroke="blue" points="368.11,-514.66 364.61,-504.66 361.11,-514.66 368.11,-514.66"/>
<text text-anchor="start" x="320.36" y="-523.68" font-family="Times New Roman,serif" font-size="14.00" fill="darkmagenta">114,114</text>
</g>
<!-- 3 -->
<g id="node3" class="node">
<title>3</title>
<ellipse fill="none" stroke="black" cx="242.61" cy="-371.4" rx="48.97" ry="27.93"/>
<text text-anchor="middle" x="242.61" y="-365.98" font-family="Times New Roman,serif" font-size="14.00">3. if x &gt;= 0:</text>
<text text-anchor="start" x="149.39" y="-386.03" font-family="Times New Roman,serif" font-size="14.00" fill="darkorange">163,207</text>
</g>
<!-- 2&#45;&gt;3 -->
<g id="edge2" class="edge">
<title>2&#45;&gt;3</title>
<path fill="none" stroke="blue" stroke-width="5" d="M281.82,-474.76C267.17,-469.38 253.59,-461.2 244.11,-448.83 236.92,-439.45 234.55,-427.35 234.52,-415.56"/>
<polygon fill="blue" stroke="blue" stroke-width="5" points="238.88,-415.93 235.29,-405.62 230.16,-415.26 238.88,-415.93"/>
<text text-anchor="middle" x="297.86" y="-435.53" font-family="Times New Roman,serif" font-size="14.00">&quot;range(abs(x))&quot;</text>
<text text-anchor="middle" x="297.86" y="-419.78" font-family="Times New Roman,serif" font-size="14.00">c[6]:(163,207) 0.77</text>
<text text-anchor="start" x="199.2" y="-450.4" font-family="Times New Roman,serif" font-size="14.00" fill="darkmagenta">163,207</text>
</g>
<!-- 4 -->
<g id="node4" class="node">
<title>4</title>
<ellipse fill="none" stroke="black" cx="574.61" cy="-371.4" rx="97.97" ry="18"/>
<text text-anchor="middle" x="574.61" y="-365.98" font-family="Times New Roman,serif" font-size="14.00">4. for j in range(abs(z)):</text>
<text text-anchor="start" x="432.39" y="-376.1" font-family="Times New Roman,serif" font-size="14.00" fill="darkorange">278,321</text>
</g>
<!-- 2&#45;&gt;4 -->
<g id="edge3" class="edge">
<title>2&#45;&gt;4</title>
<path fill="none" stroke="blue" d="M395.6,-467.39C432.12,-448.01 492.96,-415.73 533.42,-394.26"/>
<polygon fill="blue" stroke="blue" points="534.97,-397.4 542.16,-389.62 531.69,-391.22 534.97,-397.4"/>
<text text-anchor="start" x="425.19" y="-430.66" font-family="Times New Roman,serif" font-size="14.00" fill="darkmagenta">114,114</text>
</g>
<!-- 5 -->
<g id="node5" class="node">
<title>5</title>
<ellipse fill="none" stroke="black" cx="272.61" cy="-248.04" rx="63.82" ry="27.93"/>
<text text-anchor="middle" x="272.61" y="-242.62" font-family="Times New Roman,serif" font-size="14.00">5. rxy = rxy + y</text>
<text text-anchor="start" x="178.04" y="-262.67" font-family="Times New Roman,serif" font-size="14.00" fill="darkorange">33,63</text>
</g>
<!-- 3&#45;&gt;5 -->
<g id="edge4" class="edge">
<title>3&#45;&gt;5</title>
<path fill="none" stroke="blue" stroke-width="3.91" d="M247.05,-343.33C249.68,-328.62 253.33,-310.19 257.61,-293.97 257.88,-292.96 258.16,-291.94 258.44,-290.91"/>
<polygon fill="blue" stroke="blue" stroke-width="3.91" points="261.71,-292.2 261.27,-281.62 255.01,-290.16 261.71,-292.2"/>
<text text-anchor="middle" x="304.11" y="-312.17" font-family="Times New Roman,serif" font-size="14.00">&quot;x &gt;= 0&quot;</text>
<text text-anchor="middle" x="304.11" y="-296.42" font-family="Times New Roman,serif" font-size="14.00">c[7]:(33,63) 0.56</text>
<text text-anchor="start" x="230.82" y="-295.94" font-family="Times New Roman,serif" font-size="14.00" fill="darkmagenta">33,63</text>
</g>
<!-- 7 -->
<g id="node6" class="node">
<title>7</title>
<ellipse fill="none" stroke="black" cx="117.61" cy="-248.04" rx="73.36" ry="27.93"/>
<text text-anchor="middle" x="117.61" y="-242.62" font-family="Times New Roman,serif" font-size="14.00">7. rxy = &#45;(rxy + y)</text>
<text text-anchor="start" x="0" y="-262.67" font-family="Times New Roman,serif" font-size="14.00" fill="darkorange">130,144</text>
</g>
<!-- 3&#45;&gt;7 -->
<g id="edge5" class="edge">
<title>3&#45;&gt;7</title>
<path fill="none" stroke="blue" stroke-width="4.32" d="M197.54,-359.96C177.45,-353.2 155.01,-342.39 140.11,-325.47 131.78,-316.02 126.53,-303.61 123.23,-291.56"/>
<polygon fill="blue" stroke="blue" stroke-width="4.32" points="127.01,-291.13 121.19,-282.16 119.61,-292.73 127.01,-291.13"/>
<text text-anchor="middle" x="193.86" y="-312.17" font-family="Times New Roman,serif" font-size="14.00">&quot;(x &lt; 0)&quot;</text>
<text text-anchor="middle" x="193.86" y="-296.42" font-family="Times New Roman,serif" font-size="14.00">c[8]:(130,144) 0.64</text>
<text text-anchor="start" x="95.84" y="-327.89" font-family="Times New Roman,serif" font-size="14.00" fill="darkmagenta">130,144</text>
</g>
<!-- 8 -->
<g id="node8" class="node">
<title>8</title>
<ellipse fill="none" stroke="black" cx="711.61" cy="-248.04" rx="48.97" ry="27.93"/>
<text text-anchor="middle" x="711.61" y="-242.62" font-family="Times New Roman,serif" font-size="14.00">8. if z &gt;= 0:</text>
<text text-anchor="start" x="618.39" y="-262.67" font-family="Times New Roman,serif" font-size="14.00" fill="darkorange">164,207</text>
</g>
<!-- 4&#45;&gt;8 -->
<g id="edge9" class="edge">
<title>4&#45;&gt;8</title>
<path fill="none" stroke="blue" stroke-width="5" d="M593.95,-353.27C614.61,-334.97 647.89,-305.49 673.79,-282.54"/>
<polygon fill="blue" stroke="blue" stroke-width="5" points="676.58,-285.92 681.16,-276.02 670.77,-279.37 676.58,-285.92"/>
<text text-anchor="middle" x="712.86" y="-312.17" font-family="Times New Roman,serif" font-size="14.00">&quot;range(abs(z))&quot;</text>
<text text-anchor="middle" x="712.86" y="-296.42" font-family="Times New Roman,serif" font-size="14.00">c[9]:(164,207) 0.77</text>
<text text-anchor="start" x="595.66" y="-315" font-family="Times New Roman,serif" font-size="14.00" fill="darkmagenta">164,207</text>
</g>
<!-- 9 -->
<g id="node9" class="node">
<title>9</title>
<ellipse fill="none" stroke="black" cx="518.61" cy="-248.04" rx="125.87" ry="27.93"/>
<text text-anchor="middle" x="518.61" y="-250.49" font-family="Times New Roman,serif" font-size="14.00">9. print(&#39;multiply done&#39;, rxyz)</text>
<text text-anchor="middle" x="518.61" y="-234.74" font-family="Times New Roman,serif" font-size="14.00">return rxyz</text>
<text text-anchor="start" x="348.5" y="-262.67" font-family="Times New Roman,serif" font-size="14.00" fill="darkorange">114,114</text>
</g>
<!-- 4&#45;&gt;9 -->
<g id="edge10" class="edge">
<title>4&#45;&gt;9</title>
<path fill="none" stroke="blue" d="M566.59,-353.02C558.63,-335.78 546.19,-308.82 535.98,-286.67"/>
<polygon fill="blue" stroke="blue" points="539.17,-285.24 531.8,-277.63 532.81,-288.17 539.17,-285.24"/>
<text text-anchor="start" x="504.57" y="-316.97" font-family="Times New Roman,serif" font-size="14.00" fill="darkmagenta">114,114</text>
</g>
<!-- 6 -->
<g id="node7" class="node">
<title>6</title>
<ellipse fill="none" stroke="black" cx="272.61" cy="-124.68" rx="80.5" ry="18"/>
<text text-anchor="middle" x="272.61" y="-119.26" font-family="Times New Roman,serif" font-size="14.00">6. print(&#39;rxy: &#39;, rxy)</text>
<text text-anchor="start" x="147.86" y="-129.38" font-family="Times New Roman,serif" font-size="14.00" fill="darkorange">163,207</text>
</g>
<!-- 5&#45;&gt;6 -->
<g id="edge6" class="edge">
<title>5&#45;&gt;6</title>
<path fill="none" stroke="blue" d="M272.61,-219.81C272.61,-200.36 272.61,-174.25 272.61,-154.46"/>
<polygon fill="blue" stroke="blue" points="276.11,-154.59 272.61,-144.59 269.11,-154.59 276.11,-154.59"/>
<text text-anchor="start" x="241.86" y="-183.82" font-family="Times New Roman,serif" font-size="14.00" fill="darkmagenta">33,63</text>
</g>
<!-- 7&#45;&gt;6 -->
<g id="edge8" class="edge">
<title>7&#45;&gt;6</title>
<path fill="none" stroke="blue" d="M148.98,-222.48C176.2,-201.17 215.36,-170.51 242.27,-149.44"/>
<polygon fill="blue" stroke="blue" points="244.33,-152.27 250.05,-143.35 240.02,-146.75 244.33,-152.27"/>
<text text-anchor="start" x="155.76" y="-184.98" font-family="Times New Roman,serif" font-size="14.00" fill="darkmagenta">130,144</text>
</g>
<!-- 6&#45;&gt;2 -->
<g id="edge7" class="edge">
<title>6&#45;&gt;2</title>
<path fill="none" stroke="blue" d="M290.72,-142.49C308.22,-160 333.78,-189.14 345.61,-220.11 376.43,-300.75 372.22,-405.23 367.82,-455.01"/>
<polygon fill="blue" stroke="blue" points="364.34,-454.64 366.86,-464.93 371.3,-455.31 364.34,-454.64"/>
<text text-anchor="start" x="365.16" y="-301.72" font-family="Times New Roman,serif" font-size="14.00" fill="darkmagenta">163,207</text>
</g>
<!-- 10 -->
<g id="node10" class="node">
<title>10</title>
<ellipse fill="none" stroke="black" cx="552.61" cy="-124.68" rx="80.26" ry="27.93"/>
<text text-anchor="middle" x="552.61" y="-119.26" font-family="Times New Roman,serif" font-size="14.00">10. rxyz = rxyz + rxy</text>
<text text-anchor="start" x="441.6" y="-139.31" font-family="Times New Roman,serif" font-size="14.00" fill="darkorange">36,63</text>
</g>
<!-- 8&#45;&gt;10 -->
<g id="edge11" class="edge">
<title>8&#45;&gt;10</title>
<path fill="none" stroke="blue" stroke-width="3.86" d="M674.68,-229.35C667.72,-226.17 660.48,-222.97 653.61,-220.11 632.29,-211.24 623.07,-216.32 604.86,-202.11 592.48,-192.46 581.94,-179.04 573.64,-166.14"/>
<polygon fill="blue" stroke="blue" stroke-width="3.86" points="576.65,-164.36 568.52,-157.57 570.64,-167.95 576.65,-164.36"/>
<text text-anchor="middle" x="655.49" y="-188.81" font-family="Times New Roman,serif" font-size="14.00">&quot;z &gt;= 0&quot;</text>
<text text-anchor="middle" x="655.49" y="-173.06" font-family="Times New Roman,serif" font-size="14.00">c[10]:(36,63) 0.55</text>
<text text-anchor="start" x="574.07" y="-204.53" font-family="Times New Roman,serif" font-size="14.00" fill="darkmagenta">36,63</text>
</g>
<!-- 12 -->
<g id="node11" class="node">
<title>12</title>
<ellipse fill="none" stroke="black" cx="731.61" cy="-124.68" rx="80.26" ry="27.93"/>
<text text-anchor="middle" x="731.61" y="-119.26" font-family="Times New Roman,serif" font-size="14.00">12. rxyz = rxyz + rxy</text>
<text text-anchor="start" x="607.1" y="-139.31" font-family="Times New Roman,serif" font-size="14.00" fill="darkorange">128,144</text>
</g>
<!-- 8&#45;&gt;12 -->
<g id="edge12" class="edge">
<title>8&#45;&gt;12</title>
<path fill="none" stroke="blue" stroke-width="4.38" d="M709.3,-219.88C708.69,-205.15 708.97,-186.71 712.36,-170.61 712.56,-169.68 712.77,-168.74 713.01,-167.8"/>
<polygon fill="blue" stroke="blue" stroke-width="4.38" points="716.58,-169.19 716.09,-158.49 709.31,-166.78 716.58,-169.19"/>
<text text-anchor="middle" x="768.24" y="-188.81" font-family="Times New Roman,serif" font-size="14.00">&quot;(z &lt; 0)&quot;</text>
<text text-anchor="middle" x="768.24" y="-173.06" font-family="Times New Roman,serif" font-size="14.00">c[11]:(128,144) 0.65</text>
<text text-anchor="start" x="665.82" y="-188.26" font-family="Times New Roman,serif" font-size="14.00" fill="darkmagenta">128,144</text>
</g>
<!-- 11 -->
<g id="node12" class="node">
<title>11</title>
<ellipse fill="none" stroke="black" cx="731.61" cy="-41.75" rx="92.98" ry="18"/>
<text text-anchor="middle" x="731.61" y="-36.33" font-family="Times New Roman,serif" font-size="14.00">11. print(&#39;rxyz: &#39;, rxyz)</text>
<text text-anchor="start" x="594.38" y="-46.45" font-family="Times New Roman,serif" font-size="14.00" fill="darkorange">164,207</text>
</g>
<!-- 10&#45;&gt;11 -->
<g id="edge13" class="edge">
<title>10&#45;&gt;11</title>
<path fill="none" stroke="blue" d="M600.58,-101.99C626.97,-90.06 659.56,-75.32 685.64,-63.54"/>
<polygon fill="blue" stroke="blue" points="686.96,-66.78 694.63,-59.47 684.08,-60.4 686.96,-66.78"/>
<text text-anchor="start" x="617.3" y="-82.98" font-family="Times New Roman,serif" font-size="14.00" fill="darkmagenta">36,63</text>
</g>
<!-- 12&#45;&gt;11 -->
<g id="edge15" class="edge">
<title>12&#45;&gt;11</title>
<path fill="none" stroke="blue" d="M731.61,-96.28C731.61,-88.36 731.61,-79.7 731.61,-71.69"/>
<polygon fill="blue" stroke="blue" points="735.11,-71.74 731.61,-61.74 728.11,-71.74 735.11,-71.74"/>
<text text-anchor="start" x="687.36" y="-81.02" font-family="Times New Roman,serif" font-size="14.00" fill="darkmagenta">128,144</text>
</g>
<!-- 11&#45;&gt;4 -->
<g id="edge14" class="edge">
<title>11&#45;&gt;4</title>
<path fill="none" stroke="blue" d="M773.96,-58.14C791.41,-66.74 810,-79.3 820.61,-96.75 874.69,-185.65 850.97,-259.37 770.61,-325.47 753.78,-339.32 706.73,-350.35 662.95,-358.02"/>
<polygon fill="blue" stroke="blue" points="662.37,-354.56 653.1,-359.69 663.55,-361.46 662.37,-354.56"/>
<text text-anchor="start" x="726.35" y="-327.93" font-family="Times New Roman,serif" font-size="14.00" fill="darkmagenta">164,207</text>
</g>
</g>
</svg>
