<?xml version="1.0" encoding="UTF-8" standalone="no"?>
<!DOCTYPE svg PUBLIC "-//W3C//DTD SVG 1.1//EN"
 "http://www.w3.org/Graphics/SVG/1.1/DTD/svg11.dtd">
<!-- Generated by graphviz version 10.0.1 (20240210.2158)
 -->
<!-- Title: clusters_main_split Pages: 1 -->
<svg width="244pt" height="445pt"
 viewBox="0.00 0.00 243.63 445.36" xmlns="http://www.w3.org/2000/svg" xmlns:xlink="http://www.w3.org/1999/xlink">
<g id="graph0" class="graph" transform="scale(1 1) rotate(0) translate(4 441.36)">
<title>clusters_main_split</title>
<polygon fill="white" stroke="none" points="-4,4 -4,-441.36 239.63,-441.36 239.63,4 -4,4"/>
<text text-anchor="middle" x="117.82" y="-6.45" font-family="Times New Roman,serif" font-size="14.00">s_main_split</text>
<!-- 1 -->
<g id="node1" class="node">
<title>1</title>
<ellipse fill="none" stroke="black" cx="122.38" cy="-382.54" rx="47.38" ry="39.07"/>
<text text-anchor="middle" x="122.38" y="-392.87" font-family="Times New Roman,serif" font-size="14.00">1. a = 1</text>
<text text-anchor="middle" x="122.38" y="-377.12" font-family="Times New Roman,serif" font-size="14.00">b = 1</text>
<text text-anchor="middle" x="122.38" y="-361.37" font-family="Times New Roman,serif" font-size="14.00">if a == 1:</text>
<text text-anchor="start" x="30.76" y="-408.31" font-family="Times New Roman,serif" font-size="14.00" fill="darkorange">114,114</text>
</g>
<!-- 2 -->
<g id="node2" class="node">
<title>2</title>
<ellipse fill="none" stroke="black" cx="122.38" cy="-248.04" rx="78.13" ry="27.93"/>
<text text-anchor="middle" x="122.38" y="-242.62" font-family="Times New Roman,serif" font-size="14.00">2. multiply2(x, y, z)</text>
<text text-anchor="start" x="0" y="-262.67" font-family="Times New Roman,serif" font-size="14.00" fill="darkorange">114,114</text>
</g>
<!-- 1&#45;&gt;2 -->
<g id="edge1" class="edge">
<title>1&#45;&gt;2</title>
<path fill="none" stroke="blue" stroke-width="5" d="M122.38,-343.22C122.38,-327.33 122.38,-308.83 122.38,-292.45"/>
<polygon fill="blue" stroke="blue" stroke-width="5" points="126.76,-292.58 122.38,-282.58 118.01,-292.58 126.76,-292.58"/>
<text text-anchor="middle" x="179.01" y="-312.17" font-family="Times New Roman,serif" font-size="14.00">&quot;a == 1&quot;</text>
<text text-anchor="middle" x="179.01" y="-296.42" font-family="Times New Roman,serif" font-size="14.00">c[12]:(114,114) 0.57</text>
<text text-anchor="start" x="78.13" y="-312.35" font-family="Times New Roman,serif" font-size="14.00" fill="darkmagenta">114,114</text>
</g>
<!-- 3 -->
<g id="node3" class="node">
<title>3</title>
<ellipse fill="none" stroke="black" cx="122.38" cy="-165.11" rx="55.06" ry="18"/>
<text text-anchor="middle" x="122.38" y="-159.69" font-family="Times New Roman,serif" font-size="14.00">3. if b == 1:</text>
<text text-anchor="start" x="23.08" y="-169.81" font-family="Times New Roman,serif" font-size="14.00" fill="darkorange">114,114</text>
</g>
<!-- 2&#45;&gt;3 -->
<g id="edge2" class="edge">
<title>2&#45;&gt;3</title>
<path fill="none" stroke="blue" d="M122.38,-219.64C122.38,-211.72 122.38,-203.06 122.38,-195.05"/>
<polygon fill="blue" stroke="blue" points="125.88,-195.1 122.38,-185.1 118.88,-195.1 125.88,-195.1"/>
<text text-anchor="start" x="78.13" y="-204.38" font-family="Times New Roman,serif" font-size="14.00" fill="darkmagenta">114,114</text>
</g>
<!-- 4 -->
<g id="node4" class="node">
<title>4</title>
<ellipse fill="none" stroke="black" cx="122.38" cy="-51.68" rx="59.04" ry="27.93"/>
<text text-anchor="middle" x="122.38" y="-46.26" font-family="Times New Roman,serif" font-size="14.00">4. med(x, y, z)</text>
<text text-anchor="start" x="19.09" y="-66.31" font-family="Times New Roman,serif" font-size="14.00" fill="darkorange">114,114</text>
</g>
<!-- 3&#45;&gt;4 -->
<g id="edge3" class="edge">
<title>3&#45;&gt;4</title>
<path fill="none" stroke="blue" stroke-width="5" d="M122.38,-146.7C122.38,-133.16 122.38,-113.76 122.38,-96.09"/>
<polygon fill="blue" stroke="blue" stroke-width="5" points="126.76,-96.18 122.38,-86.18 118.01,-96.18 126.76,-96.18"/>
<text text-anchor="middle" x="179.01" y="-115.81" font-family="Times New Roman,serif" font-size="14.00">&quot;b == 1&quot;</text>
<text text-anchor="middle" x="179.01" y="-100.06" font-family="Times New Roman,serif" font-size="14.00">c[13]:(114,114) 0.57</text>
<text text-anchor="start" x="78.13" y="-115.8" font-family="Times New Roman,serif" font-size="14.00" fill="darkmagenta">114,114</text>
</g>
</g>
</svg>
