<?xml version="1.0" encoding="UTF-8" standalone="no"?>
<!DOCTYPE svg PUBLIC "-//W3C//DTD SVG 1.1//EN"
 "http://www.w3.org/Graphics/SVG/1.1/DTD/svg11.dtd">
<!-- Generated by graphviz version 10.0.1 (20240210.2158)
 -->
<!-- Title: clusters_med_split Pages: 1 -->
<svg width="556pt" height="550pt"
 viewBox="0.00 0.00 555.72 549.95" xmlns="http://www.w3.org/2000/svg" xmlns:xlink="http://www.w3.org/1999/xlink">
<g id="graph0" class="graph" transform="scale(1 1) rotate(0) translate(4 545.95)">
<title>clusters_med_split</title>
<polygon fill="white" stroke="none" points="-4,4 -4,-545.95 551.72,-545.95 551.72,4 -4,4"/>
<text text-anchor="middle" x="273.86" y="-6.45" font-family="Times New Roman,serif" font-size="14.00">s_med_split</text>
<!-- 1 -->
<g id="node1" class="node">
<title>1</title>
<ellipse fill="none" stroke="black" cx="183.72" cy="-498.26" rx="56.39" ry="27.93"/>
<text text-anchor="middle" x="183.72" y="-500.71" font-family="Times New Roman,serif" font-size="14.00">1. med = w</text>
<text text-anchor="middle" x="183.72" y="-484.96" font-family="Times New Roman,serif" font-size="14.00">if v &lt; w:</text>
<text text-anchor="start" x="83.08" y="-512.9" font-family="Times New Roman,serif" font-size="14.00" fill="darkorange">114,114</text>
</g>
<!-- 2 -->
<g id="node2" class="node">
<title>2</title>
<ellipse fill="none" stroke="black" cx="167.72" cy="-287.15" rx="48.97" ry="27.93"/>
<text text-anchor="middle" x="167.72" y="-281.73" font-family="Times New Roman,serif" font-size="14.00">2. if u &lt; w:</text>
<text text-anchor="start" x="88" y="-301.78" font-family="Times New Roman,serif" font-size="14.00" fill="darkorange">55,48</text>
</g>
<!-- 1&#45;&gt;2 -->
<g id="edge1" class="edge">
<title>1&#45;&gt;2</title>
<path fill="none" stroke="blue" stroke-width="5" d="M181.03,-469.97C179.59,-454.84 177.83,-435.68 176.47,-418.58 174.15,-389.49 171.95,-356.72 170.34,-331.3"/>
<polygon fill="blue" stroke="blue" stroke-width="5" points="174.73,-331.33 169.74,-321.62 165.99,-331.88 174.73,-331.33"/>
<text text-anchor="middle" x="219.84" y="-403.03" font-family="Times New Roman,serif" font-size="14.00">&quot;v &lt; w&quot;</text>
<text text-anchor="middle" x="219.84" y="-387.28" font-family="Times New Roman,serif" font-size="14.00">c[1]:(55,48) 0.4</text>
<text text-anchor="start" x="143.75" y="-395.15" font-family="Times New Roman,serif" font-size="14.00" fill="darkmagenta">55,48</text>
</g>
<!-- 4 -->
<g id="node3" class="node">
<title>4</title>
<ellipse fill="none" stroke="black" cx="320.72" cy="-400.58" rx="49.07" ry="18"/>
<text text-anchor="middle" x="320.72" y="-395.16" font-family="Times New Roman,serif" font-size="14.00">4. if u &gt; v:</text>
<text text-anchor="start" x="240.9" y="-405.28" font-family="Times New Roman,serif" font-size="14.00" fill="darkorange">59,66</text>
</g>
<!-- 1&#45;&gt;4 -->
<g id="edge2" class="edge">
<title>1&#45;&gt;4</title>
<path fill="none" stroke="blue" d="M215.84,-474.83C238.02,-459.34 267.38,-438.84 289.39,-423.46"/>
<polygon fill="blue" stroke="blue" points="291.19,-426.47 297.39,-417.88 287.19,-420.73 291.19,-426.47"/>
<text text-anchor="middle" x="292.47" y="-439.03" font-family="Times New Roman,serif" font-size="14.00">(v &gt;= w)</text>
<text text-anchor="start" x="226.45" y="-448.4" font-family="Times New Roman,serif" font-size="14.00" fill="darkmagenta">59,66</text>
</g>
<!-- 10 -->
<g id="node4" class="node">
<title>10</title>
<ellipse fill="none" stroke="black" cx="79.72" cy="-139.43" rx="48.97" ry="27.93"/>
<text text-anchor="middle" x="79.72" y="-134.01" font-family="Times New Roman,serif" font-size="14.00">10. med = v</text>
<text text-anchor="start" x="0" y="-154.06" font-family="Times New Roman,serif" font-size="14.00" fill="darkorange">34,29</text>
</g>
<!-- 2&#45;&gt;10 -->
<g id="edge3" class="edge">
<title>2&#45;&gt;10</title>
<path fill="none" stroke="blue" stroke-width="4.3" d="M123.63,-274.8C106.53,-268.01 88.7,-257.44 78.72,-241.22 68.22,-224.16 67.31,-202.21 69.51,-183.14"/>
<polygon fill="blue" stroke="blue" stroke-width="4.3" points="73.21,-183.83 71.1,-173.36 65.78,-182.63 73.21,-183.83"/>
<text text-anchor="middle" x="125.22" y="-215.74" font-family="Times New Roman,serif" font-size="14.00">&quot;u &lt; w&quot;</text>
<text text-anchor="middle" x="125.22" y="-199.99" font-family="Times New Roman,serif" font-size="14.00">c[2]:(34,29) 0.33</text>
<text text-anchor="start" x="42.7" y="-232.74" font-family="Times New Roman,serif" font-size="14.00" fill="darkmagenta">34,29</text>
</g>
<!-- 12 -->
<g id="node5" class="node">
<title>12</title>
<ellipse fill="none" stroke="black" cx="208.72" cy="-139.43" rx="55.55" ry="18"/>
<text text-anchor="middle" x="208.72" y="-134.01" font-family="Times New Roman,serif" font-size="14.00">12. if u &lt; w:</text>
<text text-anchor="start" x="153.16" y="-144.13" font-family="Times New Roman,serif" font-size="14.00" fill="darkorange">21,19</text>
</g>
<!-- 2&#45;&gt;12 -->
<g id="edge4" class="edge">
<title>2&#45;&gt;12</title>
<path fill="none" stroke="blue" d="M171.49,-259.2C174.77,-238.65 180.27,-209.82 188.22,-185.36 190.09,-179.6 192.49,-173.59 194.99,-167.92"/>
<polygon fill="blue" stroke="blue" points="198.12,-169.48 199.15,-158.93 191.77,-166.53 198.12,-169.48"/>
<text text-anchor="middle" x="213.47" y="-207.87" font-family="Times New Roman,serif" font-size="14.00">(u &gt;= w)</text>
<text text-anchor="start" x="174.25" y="-194.06" font-family="Times New Roman,serif" font-size="14.00" fill="darkmagenta">21,19</text>
</g>
<!-- 5 -->
<g id="node7" class="node">
<title>5</title>
<ellipse fill="none" stroke="black" cx="295.72" cy="-213.29" rx="48.97" ry="27.93"/>
<text text-anchor="middle" x="295.72" y="-207.87" font-family="Times New Roman,serif" font-size="14.00">5. med = v</text>
<text text-anchor="start" x="216" y="-227.92" font-family="Times New Roman,serif" font-size="14.00" fill="darkorange">18,19</text>
</g>
<!-- 4&#45;&gt;5 -->
<g id="edge7" class="edge">
<title>4&#45;&gt;5</title>
<path fill="none" stroke="blue" stroke-width="4.1" d="M303.88,-383.21C299.37,-377.76 295.09,-371.34 292.72,-364.58 280.55,-329.88 282.68,-287.85 287.06,-257.07"/>
<polygon fill="blue" stroke="blue" stroke-width="4.1" points="290.6,-257.68 288.67,-247.24 283.52,-256.53 290.6,-257.68"/>
<text text-anchor="middle" x="339.22" y="-351.28" font-family="Times New Roman,serif" font-size="14.00">&quot;u &gt; v&quot;</text>
<text text-anchor="middle" x="339.22" y="-335.53" font-family="Times New Roman,serif" font-size="14.00">c[4]:(18,19) 0.31</text>
<text text-anchor="start" x="253.02" y="-314.88" font-family="Times New Roman,serif" font-size="14.00" fill="darkmagenta">18,19</text>
</g>
<!-- 7 -->
<g id="node8" class="node">
<title>7</title>
<ellipse fill="none" stroke="black" cx="411.72" cy="-287.15" rx="51.06" ry="18"/>
<text text-anchor="middle" x="411.72" y="-281.73" font-family="Times New Roman,serif" font-size="14.00">7. if u &gt; w:</text>
<text text-anchor="start" x="329.9" y="-291.85" font-family="Times New Roman,serif" font-size="14.00" fill="darkorange">41,47</text>
</g>
<!-- 4&#45;&gt;7 -->
<g id="edge8" class="edge">
<title>4&#45;&gt;7</title>
<path fill="none" stroke="blue" d="M356.82,-387.97C368.76,-382.54 381.16,-374.94 389.72,-364.58 400.86,-351.1 406.37,-332.24 409.08,-316.63"/>
<polygon fill="blue" stroke="blue" points="412.51,-317.36 410.45,-306.97 405.58,-316.38 412.51,-317.36"/>
<text text-anchor="middle" x="427.97" y="-343.41" font-family="Times New Roman,serif" font-size="14.00">(u &lt;= v)</text>
<text text-anchor="start" x="396.86" y="-356.41" font-family="Times New Roman,serif" font-size="14.00" fill="darkmagenta">41,47</text>
</g>
<!-- 3 -->
<g id="node6" class="node">
<title>3</title>
<ellipse fill="none" stroke="black" cx="295.72" cy="-41.75" rx="60.05" ry="18"/>
<text text-anchor="middle" x="295.72" y="-36.33" font-family="Times New Roman,serif" font-size="14.00">3. return med</text>
<text text-anchor="start" x="191.42" y="-46.45" font-family="Times New Roman,serif" font-size="14.00" fill="darkorange">114,114</text>
</g>
<!-- 10&#45;&gt;3 -->
<g id="edge5" class="edge">
<title>10&#45;&gt;3</title>
<path fill="none" stroke="blue" d="M117.84,-121.55C155.56,-104.84 213.21,-79.3 252.58,-61.86"/>
<polygon fill="blue" stroke="blue" points="253.81,-65.14 261.54,-57.89 250.98,-58.74 253.81,-65.14"/>
<text text-anchor="start" x="159.48" y="-91.93" font-family="Times New Roman,serif" font-size="14.00" fill="darkmagenta">34,29</text>
</g>
<!-- 12&#45;&gt;3 -->
<g id="edge6" class="edge">
<title>12&#45;&gt;3</title>
<path fill="none" stroke="blue" d="M212.06,-121.06C215.33,-107.91 221.44,-90.08 232.22,-77.75 237.34,-71.89 243.69,-66.82 250.37,-62.5"/>
<polygon fill="blue" stroke="blue" points="252.13,-65.53 259,-57.47 248.6,-59.48 252.13,-65.53"/>
<text text-anchor="middle" x="256.47" y="-80.2" font-family="Times New Roman,serif" font-size="14.00">(u &gt;= w)</text>
<text text-anchor="start" x="201.48" y="-80.18" font-family="Times New Roman,serif" font-size="14.00" fill="darkmagenta">21,19</text>
</g>
<!-- 5&#45;&gt;3 -->
<g id="edge9" class="edge">
<title>5&#45;&gt;3</title>
<path fill="none" stroke="blue" d="M295.72,-185.05C295.72,-153.84 295.72,-102.94 295.72,-71.22"/>
<polygon fill="blue" stroke="blue" points="299.22,-71.6 295.72,-61.6 292.22,-71.6 299.22,-71.6"/>
<text text-anchor="start" x="264.97" y="-124.99" font-family="Times New Roman,serif" font-size="14.00" fill="darkmagenta">18,19</text>
</g>
<!-- 7&#45;&gt;3 -->
<g id="edge10" class="edge">
<title>7&#45;&gt;3</title>
<path fill="none" stroke="blue" d="M403.56,-269.04C383.72,-227.4 332.79,-120.55 308.71,-70.01"/>
<polygon fill="blue" stroke="blue" points="311.98,-68.73 304.52,-61.21 305.66,-71.75 311.98,-68.73"/>
<text text-anchor="middle" x="378.47" y="-134.01" font-family="Times New Roman,serif" font-size="14.00">(u &lt;= w)</text>
<text text-anchor="start" x="322.91" y="-166.79" font-family="Times New Roman,serif" font-size="14.00" fill="darkmagenta">23,28</text>
</g>
<!-- 8 -->
<g id="node9" class="node">
<title>8</title>
<ellipse fill="none" stroke="black" cx="475.72" cy="-139.43" rx="48.97" ry="27.93"/>
<text text-anchor="middle" x="475.72" y="-134.01" font-family="Times New Roman,serif" font-size="14.00">8. med = u</text>
<text text-anchor="start" x="396" y="-154.06" font-family="Times New Roman,serif" font-size="14.00" fill="darkorange">18,19</text>
</g>
<!-- 7&#45;&gt;8 -->
<g id="edge11" class="edge">
<title>7&#45;&gt;8</title>
<path fill="none" stroke="blue" stroke-width="4.1" d="M419.31,-268.86C428.71,-247.46 445.04,-210.29 457.71,-181.43"/>
<polygon fill="blue" stroke="blue" stroke-width="4.1" points="460.95,-182.97 461.69,-172.37 454.38,-180.08 460.95,-182.97"/>
<text text-anchor="middle" x="501.22" y="-215.74" font-family="Times New Roman,serif" font-size="14.00">&quot;u &gt; w&quot;</text>
<text text-anchor="middle" x="501.22" y="-199.99" font-family="Times New Roman,serif" font-size="14.00">c[5]:(18,19) 0.31</text>
<text text-anchor="start" x="410.9" y="-220.44" font-family="Times New Roman,serif" font-size="14.00" fill="darkmagenta">18,19</text>
</g>
<!-- 8&#45;&gt;3 -->
<g id="edge12" class="edge">
<title>8&#45;&gt;3</title>
<path fill="none" stroke="blue" d="M443.64,-118.06C423.82,-105.79 397.67,-90.2 373.72,-77.75 362.94,-72.15 351.08,-66.55 339.93,-61.53"/>
<polygon fill="blue" stroke="blue" points="341.46,-58.38 330.9,-57.52 338.62,-64.78 341.46,-58.38"/>
<text text-anchor="start" x="357.19" y="-87.81" font-family="Times New Roman,serif" font-size="14.00" fill="darkmagenta">18,19</text>
</g>
</g>
</svg>
