<?xml version="1.0" encoding="UTF-8" standalone="no"?>
<!DOCTYPE svg PUBLIC "-//W3C//DTD SVG 1.1//EN"
 "http://www.w3.org/Graphics/SVG/1.1/DTD/svg11.dtd">
<!-- Generated by graphviz version 10.0.1 (20240210.2158)
 -->
<!-- Title: clusterconvert_list_to_hex Pages: 1 -->
<svg width="761pt" height="485pt"
 viewBox="0.00 0.00 760.99 485.33" xmlns="http://www.w3.org/2000/svg" xmlns:xlink="http://www.w3.org/1999/xlink">
<g id="graph0" class="graph" transform="scale(1 1) rotate(0) translate(4 481.33)">
<title>clusterconvert_list_to_hex</title>
<polygon fill="white" stroke="none" points="-4,4 -4,-481.33 756.99,-481.33 756.99,4 -4,4"/>
<text text-anchor="middle" x="376.5" y="-6.45" font-family="Times New Roman,serif" font-size="14.00">convert_list_to_hex</text>
<!-- 1 -->
<g id="node1" class="node">
<title>1</title>
<ellipse fill="none" stroke="black" cx="408.12" cy="-433.65" rx="54.27" ry="27.93"/>
<text text-anchor="middle" x="408.12" y="-428.23" font-family="Times New Roman,serif" font-size="14.00">1. results = []</text>
<text text-anchor="start" x="323.1" y="-448.28" font-family="Times New Roman,serif" font-size="14.00" fill="darkorange">13,13</text>
</g>
<!-- 2 -->
<g id="node2" class="node">
<title>2</title>
<ellipse fill="none" stroke="black" cx="408.12" cy="-319.97" rx="116.43" ry="18"/>
<text text-anchor="middle" x="408.12" y="-314.55" font-family="Times New Roman,serif" font-size="14.00">2. for num in decimal_nums:</text>
<text text-anchor="start" x="260.94" y="-324.67" font-family="Times New Roman,serif" font-size="14.00" fill="darkorange">65,65</text>
</g>
<!-- 1&#45;&gt;2 -->
<g id="edge1" class="edge">
<title>1&#45;&gt;2</title>
<path fill="none" stroke="blue" stroke-width="3.85" d="M408.12,-405.33C408.12,-389.8 408.12,-370.25 408.12,-353.88"/>
<polygon fill="blue" stroke="blue" stroke-width="3.85" points="411.62,-354.11 408.12,-344.11 404.62,-354.11 411.62,-354.11"/>
<text text-anchor="middle" x="441.87" y="-358.42" font-family="Times New Roman,serif" font-size="14.00"> Score: 0.57</text>
<polygon fill="white" stroke="none" points="363.62,-374.02 363.62,-397.77 406.12,-397.77 406.12,-374.02 363.62,-374.02"/>
<text text-anchor="start" x="367.62" y="-380.47" font-family="Times New Roman,serif" font-size="14.00" fill="darkmagenta">13, 13</text>
</g>
<!-- 3 -->
<g id="node3" class="node">
<title>3</title>
<ellipse fill="none" stroke="black" cx="493.12" cy="-190.79" rx="83.44" ry="27.93"/>
<text text-anchor="middle" x="493.12" y="-185.37" font-family="Times New Roman,serif" font-size="14.00">3. if num % 10 == 2:</text>
<text text-anchor="start" x="378.94" y="-205.42" font-family="Times New Roman,serif" font-size="14.00" fill="darkorange">52,52</text>
</g>
<!-- 2&#45;&gt;3 -->
<g id="edge2" class="edge">
<title>2&#45;&gt;3</title>
<path fill="none" stroke="blue" stroke-width="3.6" d="M419.9,-301.92C423.81,-296.23 428.17,-289.84 432.12,-283.97 443.8,-266.64 456.58,-247.38 467.41,-230.96"/>
<polygon fill="blue" stroke="blue" stroke-width="3.6" points="470.05,-233.32 472.63,-223.04 464.2,-229.47 470.05,-233.32"/>
<text text-anchor="middle" x="503.25" y="-270.67" font-family="Times New Roman,serif" font-size="14.00">decimal_nums</text>
<text text-anchor="middle" x="503.25" y="-254.92" font-family="Times New Roman,serif" font-size="14.00">c[3]</text>
<text text-anchor="middle" x="503.25" y="-239.17" font-family="Times New Roman,serif" font-size="14.00"> Score: 0.52</text>
<polygon fill="white" stroke="none" points="415.23,-234.34 415.23,-258.09 457.73,-258.09 457.73,-234.34 415.23,-234.34"/>
<text text-anchor="start" x="419.23" y="-240.79" font-family="Times New Roman,serif" font-size="14.00" fill="darkmagenta">52, 52</text>
</g>
<!-- 4 -->
<g id="node4" class="node">
<title>4</title>
<ellipse fill="none" stroke="black" cx="324.12" cy="-190.79" rx="68.03" ry="18"/>
<text text-anchor="middle" x="324.12" y="-185.37" font-family="Times New Roman,serif" font-size="14.00">4. return results</text>
<text text-anchor="start" x="225.35" y="-195.49" font-family="Times New Roman,serif" font-size="14.00" fill="darkorange">13,13</text>
</g>
<!-- 2&#45;&gt;4 -->
<g id="edge3" class="edge">
<title>2&#45;&gt;4</title>
<path fill="none" stroke="blue" stroke-width="2.65" d="M382.76,-301.92C376.27,-296.71 369.69,-290.59 364.62,-283.97 350.41,-265.41 340,-241.09 333.29,-222.09"/>
<polygon fill="blue" stroke="blue" stroke-width="2.65" points="336.7,-221.26 330.23,-212.87 330.06,-223.47 336.7,-221.26"/>
<text text-anchor="middle" x="398.87" y="-246.92" font-family="Times New Roman,serif" font-size="14.00"> Score: 0.33</text>
<polygon fill="white" stroke="none" points="304.42,-260.74 304.42,-284.49 346.92,-284.49 346.92,-260.74 304.42,-260.74"/>
<text text-anchor="start" x="308.42" y="-267.19" font-family="Times New Roman,serif" font-size="14.00" fill="darkmagenta">13, 13</text>
</g>
<!-- 5 -->
<g id="node5" class="node">
<title>5</title>
<ellipse fill="none" stroke="black" cx="198.12" cy="-51.68" rx="174.12" ry="27.93"/>
<text text-anchor="middle" x="198.12" y="-46.26" font-family="Times New Roman,serif" font-size="14.00">5. results.append(decimal_to_hex(num &#45; 1))</text>
<text text-anchor="start" x="0" y="-66.31" font-family="Times New Roman,serif" font-size="14.00" fill="darkorange">1,13</text>
</g>
<!-- 3&#45;&gt;5 -->
<g id="edge4" class="edge">
<title>3&#45;&gt;5</title>
<path fill="none" stroke="blue" stroke-width="3.75" d="M438.8,-169.28C420.13,-161.93 399.2,-153.35 380.37,-144.86 340.04,-126.67 295.71,-104.3 260.88,-86.16"/>
<polygon fill="blue" stroke="blue" stroke-width="3.75" points="262.57,-83.09 252.08,-81.56 259.32,-89.29 262.57,-83.09"/>
<text text-anchor="middle" x="431" y="-131.56" font-family="Times New Roman,serif" font-size="14.00">&quot;num % 10 == 2&quot;</text>
<text text-anchor="middle" x="431" y="-115.81" font-family="Times New Roman,serif" font-size="14.00">c[4]</text>
<text text-anchor="middle" x="431" y="-100.06" font-family="Times New Roman,serif" font-size="14.00"> Score: 0.55</text>
<polygon fill="white" stroke="none" points="303.56,-128.6 303.56,-152.35 339.31,-152.35 339.31,-128.6 303.56,-128.6"/>
<text text-anchor="start" x="307.56" y="-135.05" font-family="Times New Roman,serif" font-size="14.00" fill="darkmagenta">1, 13</text>
</g>
<!-- 7 -->
<g id="node6" class="node">
<title>7</title>
<ellipse fill="none" stroke="black" cx="592.12" cy="-51.68" rx="160.87" ry="27.93"/>
<text text-anchor="middle" x="592.12" y="-46.26" font-family="Times New Roman,serif" font-size="14.00">7. results.append(decimal_to_hex(num))</text>
<text text-anchor="start" x="400.51" y="-66.31" font-family="Times New Roman,serif" font-size="14.00" fill="darkorange">51,39</text>
</g>
<!-- 3&#45;&gt;7 -->
<g id="edge5" class="edge">
<title>3&#45;&gt;7</title>
<path fill="none" stroke="blue" stroke-width="3.3" d="M485.8,-162.6C482.16,-142.99 480.82,-116.71 493.12,-97.61 495.97,-93.19 499.37,-89.21 503.17,-85.61"/>
<polygon fill="blue" stroke="blue" stroke-width="3.3" points="505.18,-88.48 510.87,-79.54 500.85,-82.98 505.18,-88.48"/>
<text text-anchor="middle" x="545.62" y="-131.56" font-family="Times New Roman,serif" font-size="14.00">&quot;(num % 10 != 2)&quot;</text>
<text text-anchor="middle" x="545.62" y="-115.81" font-family="Times New Roman,serif" font-size="14.00">c[5]</text>
<text text-anchor="middle" x="545.62" y="-100.06" font-family="Times New Roman,serif" font-size="14.00"> Score: 0.46</text>
<polygon fill="white" stroke="none" points="464.23,-90.41 464.23,-114.16 506.73,-114.16 506.73,-90.41 464.23,-90.41"/>
<text text-anchor="start" x="468.23" y="-96.86" font-family="Times New Roman,serif" font-size="14.00" fill="darkmagenta">51, 39</text>
</g>
<!-- 5&#45;&gt;2 -->
<g id="edge6" class="edge">
<title>5&#45;&gt;2</title>
<path fill="none" stroke="blue" stroke-width="5" d="M186.89,-79.87C174.34,-114.95 159.11,-176.47 186.37,-218.72 215,-263.07 268.49,-288.01 315.77,-301.92"/>
<polygon fill="blue" stroke="blue" stroke-width="5" points="314.37,-306.07 325.17,-304.5 316.68,-297.64 314.37,-306.07"/>
<text text-anchor="middle" x="217.5" y="-177.37" font-family="Times New Roman,serif" font-size="14.00"> Score: 0.8</text>
<polygon fill="white" stroke="none" points="171.55,-247.97 171.55,-271.72 207.3,-271.72 207.3,-247.97 171.55,-247.97"/>
<text text-anchor="start" x="175.55" y="-254.42" font-family="Times New Roman,serif" font-size="14.00" fill="darkmagenta">1, 13</text>
</g>
<!-- 7&#45;&gt;2 -->
<g id="edge7" class="edge">
<title>7&#45;&gt;2</title>
<path fill="none" stroke="blue" stroke-width="3.65" d="M596.86,-79.97C603.82,-130.26 609.89,-236.75 547.12,-283.97 536.36,-292.07 523.94,-298.31 511.03,-303.11"/>
<polygon fill="blue" stroke="blue" stroke-width="3.65" points="509.98,-299.78 501.57,-306.22 512.16,-306.43 509.98,-299.78"/>
<text text-anchor="middle" x="632.87" y="-177.37" font-family="Times New Roman,serif" font-size="14.00"> Score: 0.53</text>
<polygon fill="white" stroke="none" points="595.99,-207.26 595.99,-231.01 638.49,-231.01 638.49,-207.26 595.99,-207.26"/>
<text text-anchor="start" x="599.99" y="-213.71" font-family="Times New Roman,serif" font-size="14.00" fill="darkmagenta">51, 39</text>
</g>
</g>
</svg>
