<?xml version="1.0" encoding="UTF-8" standalone="no"?>
<!DOCTYPE svg PUBLIC "-//W3C//DTD SVG 1.1//EN"
 "http://www.w3.org/Graphics/SVG/1.1/DTD/svg11.dtd">
<!-- Generated by graphviz version 10.0.1 (20240210.2158)
 -->
<!-- Title: clusterdecimal_to_hex Pages: 1 -->
<svg width="511pt" height="514pt"
 viewBox="0.00 0.00 511.40 514.13" xmlns="http://www.w3.org/2000/svg" xmlns:xlink="http://www.w3.org/1999/xlink">
<g id="graph0" class="graph" transform="scale(1 1) rotate(0) translate(4 510.13)">
<title>clusterdecimal_to_hex</title>
<polygon fill="white" stroke="none" points="-4,4 -4,-510.13 507.4,-510.13 507.4,4 -4,4"/>
<text text-anchor="middle" x="251.7" y="-6.45" font-family="Times New Roman,serif" font-size="14.00">decimal_to_hex</text>
<!-- 1 -->
<g id="node1" class="node">
<title>1</title>
<ellipse fill="none" stroke="black" cx="187.88" cy="-462.45" rx="48.97" ry="27.93"/>
<text text-anchor="middle" x="187.88" y="-457.03" font-family="Times New Roman,serif" font-size="14.00">1. if n == 0:</text>
<text text-anchor="start" x="108.16" y="-477.08" font-family="Times New Roman,serif" font-size="14.00" fill="darkorange">52,52</text>
</g>
<!-- 2 -->
<g id="node2" class="node">
<title>2</title>
<ellipse fill="none" stroke="black" cx="151.88" cy="-339.09" rx="48.97" ry="27.93"/>
<text text-anchor="middle" x="151.88" y="-333.67" font-family="Times New Roman,serif" font-size="14.00">2. return &#39;0&#39;</text>
<text text-anchor="start" x="85.66" y="-353.72" font-family="Times New Roman,serif" font-size="14.00" fill="darkorange">0,0</text>
</g>
<!-- 1&#45;&gt;2 -->
<g id="edge1" class="edge">
<title>1&#45;&gt;2</title>
<path fill="none" stroke="black" d="M179.89,-434.52C174.95,-417.86 168.54,-396.24 163.09,-377.88"/>
<polygon fill="black" stroke="black" points="166.48,-376.99 160.28,-368.4 159.77,-378.98 166.48,-376.99"/>
<text text-anchor="middle" x="199.63" y="-403.22" font-family="Times New Roman,serif" font-size="14.00">&quot;n == 0&quot;</text>
<text text-anchor="middle" x="199.63" y="-387.47" font-family="Times New Roman,serif" font-size="14.00">c[1]</text>
<polygon fill="white" stroke="none" points="138.91,-402.86 138.91,-426.61 167.91,-426.61 167.91,-402.86 138.91,-402.86"/>
<text text-anchor="start" x="142.91" y="-409.31" font-family="Times New Roman,serif" font-size="14.00" fill="darkmagenta">0, 0</text>
</g>
<!-- 3 -->
<g id="node3" class="node">
<title>3</title>
<ellipse fill="none" stroke="black" cx="280.88" cy="-339.09" rx="62.04" ry="18"/>
<text text-anchor="middle" x="280.88" y="-333.67" font-family="Times New Roman,serif" font-size="14.00">3. hex_str = &#39;&#39;</text>
<text text-anchor="start" x="218.84" y="-292.04" font-family="Times New Roman,serif" font-size="14.00" fill="darkorange">52,52</text>
</g>
<!-- 1&#45;&gt;3 -->
<g id="edge2" class="edge">
<title>1&#45;&gt;3</title>
<path fill="none" stroke="blue" stroke-width="4.74" d="M210.44,-437.2C216.28,-430.62 222.45,-423.42 227.88,-416.52 239.49,-401.77 251.49,-384.66 261.12,-370.37"/>
<polygon fill="blue" stroke="blue" stroke-width="4.74" points="264.36,-372.98 266.45,-362.36 257.46,-368.39 264.36,-372.98"/>
<text text-anchor="middle" x="283.63" y="-403.22" font-family="Times New Roman,serif" font-size="14.00">&quot;(n != 0)&quot;</text>
<text text-anchor="middle" x="283.63" y="-387.47" font-family="Times New Roman,serif" font-size="14.00"> Score: 0.57</text>
<polygon fill="white" stroke="none" points="231.87,-372.71 231.87,-396.46 274.37,-396.46 274.37,-372.71 231.87,-372.71"/>
<text text-anchor="start" x="235.87" y="-379.16" font-family="Times New Roman,serif" font-size="14.00" fill="darkmagenta">52, 52</text>
</g>
<!-- 5 -->
<g id="node4" class="node">
<title>5</title>
<ellipse fill="none" stroke="black" cx="280.88" cy="-225.41" rx="63.04" ry="18"/>
<text text-anchor="middle" x="280.88" y="-219.99" font-family="Times New Roman,serif" font-size="14.00">5. while n &gt; 0:</text>
<text text-anchor="start" x="173.59" y="-230.11" font-family="Times New Roman,serif" font-size="14.00" fill="darkorange">137,171</text>
</g>
<!-- 3&#45;&gt;5 -->
<g id="edge3" class="edge">
<title>3&#45;&gt;5</title>
<path fill="none" stroke="blue" stroke-width="4.74" d="M280.88,-320.64C280.88,-304.41 280.88,-279.8 280.88,-259.8"/>
<polygon fill="blue" stroke="blue" stroke-width="4.74" points="285.03,-259.92 280.88,-249.92 276.74,-259.92 285.03,-259.92"/>
<text text-anchor="middle" x="314.63" y="-263.86" font-family="Times New Roman,serif" font-size="14.00"> Score: 0.57</text>
<polygon fill="white" stroke="none" points="236.38,-256.29 236.38,-280.04 278.88,-280.04 278.88,-256.29 236.38,-256.29"/>
<text text-anchor="start" x="240.38" y="-262.74" font-family="Times New Roman,serif" font-size="14.00" fill="darkmagenta">52, 52</text>
</g>
<!-- 6 -->
<g id="node5" class="node">
<title>6</title>
<ellipse fill="none" stroke="black" cx="189.88" cy="-73.96" rx="152.38" ry="50.21"/>
<text text-anchor="middle" x="189.88" y="-84.28" font-family="Times New Roman,serif" font-size="14.00">6. x = n % 16</text>
<text text-anchor="middle" x="189.88" y="-68.53" font-family="Times New Roman,serif" font-size="14.00">hex_str = digit_to_hex(x) + hex_str</text>
<text text-anchor="middle" x="189.88" y="-52.78" font-family="Times New Roman,serif" font-size="14.00">n = n // 16</text>
<text text-anchor="start" x="0" y="-110.86" font-family="Times New Roman,serif" font-size="14.00" fill="darkorange">85,119</text>
</g>
<!-- 5&#45;&gt;6 -->
<g id="edge4" class="edge">
<title>5&#45;&gt;6</title>
<path fill="none" stroke="blue" stroke-width="4.54" d="M228.51,-215.26C214.13,-210.1 200.12,-202.03 191.38,-189.41 181.56,-175.22 178.23,-157.49 178.11,-140.25"/>
<polygon fill="blue" stroke="blue" stroke-width="4.54" points="182.07,-140.66 178.57,-130.48 174.13,-140.29 182.07,-140.66"/>
<text text-anchor="middle" x="225.63" y="-176.11" font-family="Times New Roman,serif" font-size="14.00">&quot;n &gt; 0&quot;</text>
<text text-anchor="middle" x="225.63" y="-160.36" font-family="Times New Roman,serif" font-size="14.00">c[2]</text>
<text text-anchor="middle" x="225.63" y="-144.61" font-family="Times New Roman,serif" font-size="14.00"> Score: 0.54</text>
<polygon fill="white" stroke="none" points="133.62,-179.43 133.62,-203.18 182.87,-203.18 182.87,-179.43 133.62,-179.43"/>
<text text-anchor="start" x="137.62" y="-185.88" font-family="Times New Roman,serif" font-size="14.00" fill="darkmagenta">85, 119</text>
</g>
<!-- 7 -->
<g id="node6" class="node">
<title>7</title>
<ellipse fill="none" stroke="black" cx="431.88" cy="-73.96" rx="71.52" ry="18"/>
<text text-anchor="middle" x="431.88" y="-68.53" font-family="Times New Roman,serif" font-size="14.00">7. return hex_str</text>
<text text-anchor="start" x="360.36" y="-78.66" font-family="Times New Roman,serif" font-size="14.00" fill="darkorange">52,52</text>
</g>
<!-- 5&#45;&gt;7 -->
<g id="edge5" class="edge">
<title>5&#45;&gt;7</title>
<path fill="none" stroke="blue" stroke-width="3.3" d="M314.93,-209.99C325.79,-204.48 337.44,-197.53 346.88,-189.41 375.23,-165.05 399.72,-129.6 415.03,-104.62"/>
<polygon fill="blue" stroke="blue" stroke-width="3.3" points="417.91,-106.63 420.01,-96.24 411.89,-103.05 417.91,-106.63"/>
<text text-anchor="middle" x="421.63" y="-168.24" font-family="Times New Roman,serif" font-size="14.00">&quot;(n &lt;= 0)&quot;</text>
<text text-anchor="middle" x="421.63" y="-152.49" font-family="Times New Roman,serif" font-size="14.00"> Score: 0.35</text>
<polygon fill="white" stroke="none" points="344.28,-132.36 344.28,-156.11 386.78,-156.11 386.78,-132.36 344.28,-132.36"/>
<text text-anchor="start" x="348.28" y="-138.81" font-family="Times New Roman,serif" font-size="14.00" fill="darkmagenta">52, 52</text>
</g>
<!-- 6&#45;&gt;5 -->
<g id="edge6" class="edge">
<title>6&#45;&gt;5</title>
<path fill="none" stroke="blue" stroke-width="5" d="M243.46,-121.07C249.24,-127.71 254.57,-134.8 258.88,-142.16 267.61,-157.07 272.96,-175.51 276.19,-191.15"/>
<polygon fill="blue" stroke="blue" stroke-width="5" points="271.85,-191.76 277.89,-200.85 280.47,-190.25 271.85,-191.76"/>
<text text-anchor="middle" x="308.63" y="-152.36" font-family="Times New Roman,serif" font-size="14.00"> Score: 0.61</text>
<polygon fill="white" stroke="none" points="269.93,-135.9 269.93,-159.65 319.18,-159.65 319.18,-135.9 269.93,-135.9"/>
<text text-anchor="start" x="273.93" y="-142.35" font-family="Times New Roman,serif" font-size="14.00" fill="darkmagenta">85, 119</text>
</g>
</g>
</svg>
