<?xml version="1.0" encoding="UTF-8" standalone="no"?>
<!DOCTYPE svg PUBLIC "-//W3C//DTD SVG 1.1//EN"
 "http://www.w3.org/Graphics/SVG/1.1/DTD/svg11.dtd">
<!-- Generated by graphviz version 10.0.1 (20240210.2158)
 -->
<!-- Title: clusterprocess_and_convert Pages: 1 -->
<svg width="728pt" height="485pt"
 viewBox="0.00 0.00 727.73 485.33" xmlns="http://www.w3.org/2000/svg" xmlns:xlink="http://www.w3.org/1999/xlink">
<g id="graph0" class="graph" transform="scale(1 1) rotate(0) translate(4 481.33)">
<title>clusterprocess_and_convert</title>
<polygon fill="white" stroke="none" points="-4,4 -4,-481.33 723.73,-481.33 723.73,4 -4,4"/>
<text text-anchor="middle" x="359.87" y="-6.45" font-family="Times New Roman,serif" font-size="14.00">process_and_convert</text>
<!-- 1 -->
<g id="node1" class="node">
<title>1</title>
<ellipse fill="none" stroke="black" cx="379.23" cy="-433.65" rx="90.33" ry="27.93"/>
<text text-anchor="middle" x="379.23" y="-428.23" font-family="Times New Roman,serif" font-size="14.00">1. validated_nums = []</text>
<text text-anchor="start" x="258.15" y="-448.28" font-family="Times New Roman,serif" font-size="14.00" fill="darkorange">13,13</text>
</g>
<!-- 2 -->
<g id="node2" class="node">
<title>2</title>
<ellipse fill="none" stroke="black" cx="379.23" cy="-319.97" rx="116.43" ry="18"/>
<text text-anchor="middle" x="379.23" y="-314.55" font-family="Times New Roman,serif" font-size="14.00">2. for num in decimal_nums:</text>
<text text-anchor="start" x="232.05" y="-324.67" font-family="Times New Roman,serif" font-size="14.00" fill="darkorange">65,65</text>
</g>
<!-- 1&#45;&gt;2 -->
<g id="edge1" class="edge">
<title>1&#45;&gt;2</title>
<path fill="none" stroke="blue" stroke-width="5" d="M379.23,-405.33C379.23,-389.97 379.23,-370.66 379.23,-354.4"/>
<polygon fill="blue" stroke="blue" stroke-width="5" points="383.61,-354.52 379.23,-344.52 374.86,-354.52 383.61,-354.52"/>
<text text-anchor="middle" x="412.98" y="-358.42" font-family="Times New Roman,serif" font-size="14.00"> Score: 0.57</text>
<polygon fill="white" stroke="none" points="334.73,-373.56 334.73,-397.31 377.23,-397.31 377.23,-373.56 334.73,-373.56"/>
<text text-anchor="start" x="338.73" y="-380.01" font-family="Times New Roman,serif" font-size="14.00" fill="darkmagenta">13, 13</text>
</g>
<!-- 3 -->
<g id="node3" class="node">
<title>3</title>
<ellipse fill="none" stroke="black" cx="141.23" cy="-190.79" rx="110.48" ry="27.93"/>
<text text-anchor="middle" x="141.23" y="-185.37" font-family="Times New Roman,serif" font-size="14.00">3. if 0 &lt;= num &lt;= 1000000:</text>
<text text-anchor="start" x="0" y="-205.42" font-family="Times New Roman,serif" font-size="14.00" fill="darkorange">52,52</text>
</g>
<!-- 2&#45;&gt;3 -->
<g id="edge2" class="edge">
<title>2&#45;&gt;3</title>
<path fill="none" stroke="blue" stroke-width="4.65" d="M298.82,-306.63C278.19,-301.46 256.59,-294.19 237.98,-283.97 213.29,-270.42 190.26,-248.99 172.87,-230.2"/>
<polygon fill="blue" stroke="blue" stroke-width="4.65" points="176.09,-227.7 166.4,-222.95 170.02,-233.12 176.09,-227.7"/>
<text text-anchor="middle" x="278.36" y="-270.67" font-family="Times New Roman,serif" font-size="14.00">decimal_nums</text>
<text text-anchor="middle" x="278.36" y="-254.92" font-family="Times New Roman,serif" font-size="14.00">c[6]</text>
<text text-anchor="middle" x="278.36" y="-239.17" font-family="Times New Roman,serif" font-size="14.00"> Score: 0.52</text>
<polygon fill="white" stroke="none" points="178.12,-276.44 178.12,-300.19 220.62,-300.19 220.62,-276.44 178.12,-276.44"/>
<text text-anchor="start" x="182.12" y="-282.89" font-family="Times New Roman,serif" font-size="14.00" fill="darkmagenta">52, 52</text>
</g>
<!-- 4 -->
<g id="node4" class="node">
<title>4</title>
<ellipse fill="none" stroke="black" cx="451.23" cy="-190.79" rx="181.8" ry="18"/>
<text text-anchor="middle" x="451.23" y="-185.37" font-family="Times New Roman,serif" font-size="14.00">4. return convert_list_to_hex(validated_nums)</text>
<text text-anchor="start" x="269.43" y="-143.74" font-family="Times New Roman,serif" font-size="14.00" fill="darkorange">13,13</text>
</g>
<!-- 2&#45;&gt;4 -->
<g id="edge3" class="edge">
<title>2&#45;&gt;4</title>
<path fill="none" stroke="blue" stroke-width="3.32" d="M389.82,-301.6C393.19,-296 396.91,-289.74 400.23,-283.97 411.98,-263.59 424.8,-240.42 434.64,-222.41"/>
<polygon fill="blue" stroke="blue" stroke-width="3.32" points="437.72,-224.09 439.43,-213.63 431.57,-220.74 437.72,-224.09"/>
<text text-anchor="middle" x="458.98" y="-246.92" font-family="Times New Roman,serif" font-size="14.00"> Score: 0.33</text>
<polygon fill="white" stroke="none" points="371.71,-230.04 371.71,-253.79 414.21,-253.79 414.21,-230.04 371.71,-230.04"/>
<text text-anchor="start" x="375.71" y="-236.49" font-family="Times New Roman,serif" font-size="14.00" fill="darkmagenta">13, 13</text>
</g>
<!-- 3&#45;&gt;2 -->
<g id="edge4" class="edge">
<title>3&#45;&gt;2</title>
<path fill="none" stroke="black" d="M220.97,-210.44C266.01,-221.25 314.14,-233.36 318.23,-236.72 336.21,-251.48 326.87,-265.3 340.73,-283.97 343.38,-287.54 346.44,-291.03 349.64,-294.34"/>
<polygon fill="black" stroke="black" points="347.04,-296.7 356.68,-301.09 351.89,-291.65 347.04,-296.7"/>
<text text-anchor="middle" x="367.98" y="-254.92" font-family="Times New Roman,serif" font-size="14.00">(0 &gt; num)</text>
<polygon fill="white" stroke="none" points="266.71,-204.08 266.71,-227.83 295.71,-227.83 295.71,-204.08 266.71,-204.08"/>
<text text-anchor="start" x="270.71" y="-210.53" font-family="Times New Roman,serif" font-size="14.00" fill="darkmagenta">0, 0</text>
</g>
<!-- 5 -->
<g id="node5" class="node">
<title>5</title>
<ellipse fill="none" stroke="black" cx="405.23" cy="-51.68" rx="127.99" ry="27.93"/>
<text text-anchor="middle" x="405.23" y="-46.26" font-family="Times New Roman,serif" font-size="14.00">5. validated_nums.append(num)</text>
<text text-anchor="start" x="246.5" y="-66.31" font-family="Times New Roman,serif" font-size="14.00" fill="darkorange">52,52</text>
</g>
<!-- 3&#45;&gt;5 -->
<g id="edge5" class="edge">
<title>3&#45;&gt;5</title>
<path fill="none" stroke="blue" stroke-width="5" d="M188.74,-165.12C231.7,-142.81 295.25,-109.8 342.4,-85.31"/>
<polygon fill="blue" stroke="blue" stroke-width="5" points="344.38,-89.22 351.24,-80.72 340.35,-81.45 344.38,-89.22"/>
<text text-anchor="middle" x="381.23" y="-131.56" font-family="Times New Roman,serif" font-size="14.00">&quot;0 &lt;= num &lt;= 1000000&quot;</text>
<text text-anchor="middle" x="381.23" y="-115.81" font-family="Times New Roman,serif" font-size="14.00">c[7]</text>
<text text-anchor="middle" x="381.23" y="-100.06" font-family="Times New Roman,serif" font-size="14.00"> Score: 0.57</text>
<polygon fill="white" stroke="none" points="228.1,-123.57 228.1,-147.32 270.6,-147.32 270.6,-123.57 228.1,-123.57"/>
<text text-anchor="start" x="232.1" y="-130.02" font-family="Times New Roman,serif" font-size="14.00" fill="darkmagenta">52, 52</text>
</g>
<!-- 5&#45;&gt;2 -->
<g id="edge6" class="edge">
<title>5&#45;&gt;2</title>
<path fill="none" stroke="blue" stroke-width="5" d="M487.77,-73.39C573.05,-99.08 687.79,-148.27 642.23,-218.72 609.75,-268.97 548.16,-294.08 492.76,-306.61"/>
<polygon fill="blue" stroke="blue" stroke-width="5" points="491.95,-302.31 483.05,-308.63 493.73,-310.88 491.95,-302.31"/>
<text text-anchor="middle" x="685.98" y="-177.37" font-family="Times New Roman,serif" font-size="14.00"> Score: 0.57</text>
<polygon fill="white" stroke="none" points="515.09,-303.49 515.09,-327.24 557.59,-327.24 557.59,-303.49 515.09,-303.49"/>
<text text-anchor="start" x="519.09" y="-309.94" font-family="Times New Roman,serif" font-size="14.00" fill="darkmagenta">52, 52</text>
</g>
</g>
</svg>
