<?xml version="1.0" encoding="UTF-8" standalone="no"?>
<!DOCTYPE svg PUBLIC "-//W3C//DTD SVG 1.1//EN"
 "http://www.w3.org/Graphics/SVG/1.1/DTD/svg11.dtd">
<!-- Generated by graphviz version 10.0.1 (20240210.2158)
 -->
<!-- Title: clusterprocess_and_convert Pages: 1 -->
<svg width="632pt" height="392pt"
 viewBox="0.00 0.00 632.43 391.58" xmlns="http://www.w3.org/2000/svg" xmlns:xlink="http://www.w3.org/1999/xlink">
<g id="graph0" class="graph" transform="scale(1 1) rotate(0) translate(4 387.58)">
<title>clusterprocess_and_convert</title>
<polygon fill="white" stroke="none" points="-4,4 -4,-387.58 628.43,-387.58 628.43,4 -4,4"/>
<text text-anchor="middle" x="312.22" y="-6.9" font-family="Times New Roman,serif" font-size="8.00">process_and_convert</text>
<!-- 1 -->
<g id="node1" class="node">
<title>1</title>
<ellipse fill="none" stroke="black" cx="361.73" cy="-345.15" rx="90.33" ry="27.93"/>
<text text-anchor="middle" x="361.73" y="-342.8" font-family="Times New Roman,serif" font-size="8.00">1. validated_nums = []</text>
<text text-anchor="start" x="251.15" y="-365.48" font-family="Times New Roman,serif" font-size="8.00" fill="darkorange">13,13</text>
</g>
<!-- 2 -->
<g id="node2" class="node">
<title>2</title>
<ellipse fill="none" stroke="black" cx="361.73" cy="-262.22" rx="106.95" ry="18"/>
<text text-anchor="middle" x="361.73" y="-259.87" font-family="Times New Roman,serif" font-size="8.00">2. for num in decimal_nums:</text>
<text text-anchor="start" x="234.53" y="-272.62" font-family="Times New Roman,serif" font-size="8.00" fill="darkorange">65,65</text>
</g>
<!-- 1&#45;&gt;2 -->
<g id="edge1" class="edge">
<title>1&#45;&gt;2</title>
<path fill="none" stroke="blue" d="M361.73,-316.75C361.73,-308.84 361.73,-300.17 361.73,-292.16"/>
<polygon fill="blue" stroke="blue" points="365.23,-292.21 361.73,-282.21 358.23,-292.21 365.23,-292.21"/>
<text text-anchor="start" x="330.23" y="-291.44" font-family="Times New Roman,serif" font-size="8.00" fill="darkmagenta"> &#160;13,13 &#160;&#160;</text>
</g>
<!-- 3 -->
<g id="node3" class="node">
<title>3</title>
<ellipse fill="none" stroke="black" cx="130.73" cy="-159.29" rx="110.48" ry="27.93"/>
<text text-anchor="middle" x="130.73" y="-156.94" font-family="Times New Roman,serif" font-size="8.00">3. if 0 &lt;= num &lt;= 1000000:</text>
<text text-anchor="start" x="0" y="-179.62" font-family="Times New Roman,serif" font-size="8.00" fill="darkorange">52,52</text>
</g>
<!-- 2&#45;&gt;3 -->
<g id="edge2" class="edge">
<title>2&#45;&gt;3</title>
<path fill="none" stroke="blue" d="M316.06,-245.61C300.08,-239.87 282.11,-233.08 265.98,-226.22 240.12,-215.23 212.11,-201.83 188.33,-189.99"/>
<polygon fill="blue" stroke="blue" points="189.93,-186.88 179.42,-185.53 186.79,-193.14 189.93,-186.88"/>
<text text-anchor="middle" x="291.11" y="-218.62" font-family="Times New Roman,serif" font-size="8.00">decimal_nums</text>
<text text-anchor="middle" x="291.11" y="-208.12" font-family="Times New Roman,serif" font-size="8.00">c[6]</text>
<text text-anchor="start" x="214.47" y="-209.85" font-family="Times New Roman,serif" font-size="8.00" fill="darkmagenta"> &#160;52,52 &#160;&#160;</text>
</g>
<!-- 4 -->
<g id="node4" class="node">
<title>4</title>
<ellipse fill="none" stroke="black" cx="431.73" cy="-159.29" rx="172.32" ry="18"/>
<text text-anchor="middle" x="431.73" y="-156.94" font-family="Times New Roman,serif" font-size="8.00">4. return convert_list_to_hex(validated_nums)</text>
<text text-anchor="start" x="259.41" y="-123.19" font-family="Times New Roman,serif" font-size="8.00" fill="darkorange">13,13</text>
</g>
<!-- 2&#45;&gt;4 -->
<g id="edge3" class="edge">
<title>2&#45;&gt;4</title>
<path fill="none" stroke="blue" d="M373.61,-244.1C384.47,-228.44 400.71,-205.03 413.26,-186.92"/>
<polygon fill="blue" stroke="blue" points="416.12,-188.95 418.94,-178.74 410.36,-184.96 416.12,-188.95"/>
<text text-anchor="start" x="396.75" y="-203.14" font-family="Times New Roman,serif" font-size="8.00" fill="darkmagenta"> &#160;13,13 &#160;&#160;</text>
</g>
<!-- 3&#45;&gt;2 -->
<g id="edge4" class="edge">
<title>3&#45;&gt;2</title>
<path fill="none" stroke="black" d="M211.25,-178.77C258.54,-189.82 309.99,-202.28 314.73,-205.22 326.62,-212.61 336.98,-224.02 344.94,-234.62"/>
<polygon fill="black" stroke="black" points="342.04,-236.59 350.66,-242.75 347.76,-232.56 342.04,-236.59"/>
<text text-anchor="middle" x="353.98" y="-213.37" font-family="Times New Roman,serif" font-size="8.00">(0 &gt; num)</text>
<text text-anchor="start" x="262.61" y="-178.49" font-family="Times New Roman,serif" font-size="8.00" fill="darkmagenta"> &#160;0,0 &#160;&#160;</text>
</g>
<!-- 5 -->
<g id="node5" class="node">
<title>5</title>
<ellipse fill="none" stroke="black" cx="380.73" cy="-46.43" rx="127.99" ry="27.93"/>
<text text-anchor="middle" x="380.73" y="-44.08" font-family="Times New Roman,serif" font-size="8.00">5. validated_nums.append(num)</text>
<text text-anchor="start" x="232.5" y="-66.76" font-family="Times New Roman,serif" font-size="8.00" fill="darkorange">52,52</text>
</g>
<!-- 3&#45;&gt;5 -->
<g id="edge5" class="edge">
<title>3&#45;&gt;5</title>
<path fill="none" stroke="blue" d="M184.37,-134.51C222.64,-117.54 274.34,-94.61 315.09,-76.54"/>
<polygon fill="blue" stroke="blue" points="316.36,-79.81 324.08,-72.55 313.52,-73.41 316.36,-79.81"/>
<text text-anchor="middle" x="321.48" y="-105.76" font-family="Times New Roman,serif" font-size="8.00">&quot;0 &lt;= num &lt;= 1000000&quot;</text>
<text text-anchor="middle" x="321.48" y="-95.26" font-family="Times New Roman,serif" font-size="8.00">c[7]</text>
<text text-anchor="start" x="223.18" y="-95.73" font-family="Times New Roman,serif" font-size="8.00" fill="darkmagenta"> &#160;52,52 &#160;&#160;</text>
</g>
<!-- 5&#45;&gt;2 -->
<g id="edge6" class="edge">
<title>5&#45;&gt;2</title>
<path fill="none" stroke="blue" d="M472.76,-66.14C555.58,-87.3 657.86,-126.87 612.73,-187.22 592.71,-214.01 512.69,-234.46 448.32,-247"/>
<polygon fill="blue" stroke="blue" points="447.97,-243.51 438.8,-248.82 449.28,-250.38 447.97,-243.51"/>
<text text-anchor="start" x="441.15" y="-223.92" font-family="Times New Roman,serif" font-size="8.00" fill="darkmagenta"> &#160;52,52 &#160;&#160;</text>
</g>
</g>
</svg>
