<?xml version="1.0" encoding="UTF-8" standalone="no"?>
<!DOCTYPE svg PUBLIC "-//W3C//DTD SVG 1.1//EN"
 "http://www.w3.org/Graphics/SVG/1.1/DTD/svg11.dtd">
<!-- Generated by graphviz version 10.0.1 (20240210.2158)
 -->
<!-- Title: clusterprocess_and_convert Pages: 1 -->
<svg width="726pt" height="485pt"
 viewBox="0.00 0.00 725.73 485.33" xmlns="http://www.w3.org/2000/svg" xmlns:xlink="http://www.w3.org/1999/xlink">
<g id="graph0" class="graph" transform="scale(1 1) rotate(0) translate(4 481.33)">
<title>clusterprocess_and_convert</title>
<polygon fill="white" stroke="none" points="-4,4 -4,-481.33 721.73,-481.33 721.73,4 -4,4"/>
<text text-anchor="middle" x="358.87" y="-6.45" font-family="Times New Roman,serif" font-size="14.00">process_and_convert</text>
<!-- 1 -->
<g id="node1" class="node">
<title>1</title>
<ellipse fill="none" stroke="black" cx="451.23" cy="-433.65" rx="90.33" ry="27.93"/>
<text text-anchor="middle" x="451.23" y="-428.23" font-family="Times New Roman,serif" font-size="14.00">1. validated_nums = []</text>
<text text-anchor="start" x="330.15" y="-448.28" font-family="Times New Roman,serif" font-size="14.00" fill="darkorange">13,13</text>
</g>
<!-- 2 -->
<g id="node2" class="node">
<title>2</title>
<ellipse fill="none" stroke="black" cx="451.23" cy="-319.97" rx="116.43" ry="18"/>
<text text-anchor="middle" x="451.23" y="-314.55" font-family="Times New Roman,serif" font-size="14.00">2. for num in decimal_nums:</text>
<text text-anchor="start" x="304.05" y="-324.67" font-family="Times New Roman,serif" font-size="14.00" fill="darkorange">65,65</text>
</g>
<!-- 1&#45;&gt;2 -->
<g id="edge1" class="edge">
<title>1&#45;&gt;2</title>
<path fill="none" stroke="blue" stroke-width="5" d="M451.23,-405.33C451.23,-389.97 451.23,-370.66 451.23,-354.4"/>
<polygon fill="blue" stroke="blue" stroke-width="5" points="455.61,-354.52 451.23,-344.52 446.86,-354.52 455.61,-354.52"/>
<text text-anchor="middle" x="484.98" y="-358.42" font-family="Times New Roman,serif" font-size="14.00"> Score: 0.57</text>
<polygon fill="white" stroke="none" points="406.73,-373.56 406.73,-397.31 449.23,-397.31 449.23,-373.56 406.73,-373.56"/>
<text text-anchor="start" x="410.73" y="-380.01" font-family="Times New Roman,serif" font-size="14.00" fill="darkmagenta">13, 13</text>
</g>
<!-- 3 -->
<g id="node3" class="node">
<title>3</title>
<ellipse fill="none" stroke="black" cx="141.23" cy="-190.79" rx="110.48" ry="27.93"/>
<text text-anchor="middle" x="141.23" y="-185.37" font-family="Times New Roman,serif" font-size="14.00">3. if 0 &lt;= num &lt;= 1000000:</text>
<text text-anchor="start" x="0" y="-205.42" font-family="Times New Roman,serif" font-size="14.00" fill="darkorange">52,52</text>
</g>
<!-- 2&#45;&gt;3 -->
<g id="edge2" class="edge">
<title>2&#45;&gt;3</title>
<path fill="none" stroke="blue" stroke-width="4.65" d="M411.34,-302.61C361.26,-282.06 274.45,-246.45 212.77,-221.14"/>
<polygon fill="blue" stroke="blue" stroke-width="4.65" points="214.57,-217.48 203.77,-217.45 211.48,-225.01 214.57,-217.48"/>
<text text-anchor="middle" x="400.36" y="-270.67" font-family="Times New Roman,serif" font-size="14.00">decimal_nums</text>
<text text-anchor="middle" x="400.36" y="-254.92" font-family="Times New Roman,serif" font-size="14.00">c[6]</text>
<text text-anchor="middle" x="400.36" y="-239.17" font-family="Times New Roman,serif" font-size="14.00"> Score: 0.52</text>
<polygon fill="white" stroke="none" points="260.16,-260.84 260.16,-284.59 302.66,-284.59 302.66,-260.84 260.16,-260.84"/>
<text text-anchor="start" x="264.16" y="-267.29" font-family="Times New Roman,serif" font-size="14.00" fill="darkmagenta">52, 52</text>
</g>
<!-- 4 -->
<g id="node4" class="node">
<title>4</title>
<ellipse fill="none" stroke="black" cx="451.23" cy="-190.79" rx="181.8" ry="18"/>
<text text-anchor="middle" x="451.23" y="-185.37" font-family="Times New Roman,serif" font-size="14.00">4. return convert_list_to_hex(validated_nums)</text>
<text text-anchor="start" x="269.43" y="-195.49" font-family="Times New Roman,serif" font-size="14.00" fill="darkorange">13,13</text>
</g>
<!-- 2&#45;&gt;4 -->
<g id="edge3" class="edge">
<title>2&#45;&gt;4</title>
<path fill="none" stroke="blue" stroke-width="3.32" d="M451.23,-301.56C451.23,-281.58 451.23,-248.41 451.23,-223.75"/>
<polygon fill="blue" stroke="blue" stroke-width="3.32" points="454.73,-224.02 451.23,-214.02 447.73,-224.02 454.73,-224.02"/>
<text text-anchor="middle" x="484.98" y="-246.92" font-family="Times New Roman,serif" font-size="14.00"> Score: 0.33</text>
<polygon fill="white" stroke="none" points="453.23,-229.5 453.23,-253.25 495.73,-253.25 495.73,-229.5 453.23,-229.5"/>
<text text-anchor="start" x="457.23" y="-235.95" font-family="Times New Roman,serif" font-size="14.00" fill="darkmagenta">13, 13</text>
</g>
<!-- 5 -->
<g id="node5" class="node">
<title>5</title>
<ellipse fill="none" stroke="black" cx="405.23" cy="-51.68" rx="127.99" ry="27.93"/>
<text text-anchor="middle" x="405.23" y="-46.26" font-family="Times New Roman,serif" font-size="14.00">5. validated_nums.append(num)</text>
<text text-anchor="start" x="246.5" y="-66.31" font-family="Times New Roman,serif" font-size="14.00" fill="darkorange">52,52</text>
</g>
<!-- 3&#45;&gt;5 -->
<g id="edge4" class="edge">
<title>3&#45;&gt;5</title>
<path fill="none" stroke="blue" stroke-width="5" d="M188.74,-165.12C231.7,-142.81 295.25,-109.8 342.4,-85.31"/>
<polygon fill="blue" stroke="blue" stroke-width="5" points="344.38,-89.22 351.24,-80.72 340.35,-81.45 344.38,-89.22"/>
<text text-anchor="middle" x="382.23" y="-131.56" font-family="Times New Roman,serif" font-size="14.00">&quot;0 &lt;= num &lt;= 1000000&quot;</text>
<text text-anchor="middle" x="382.23" y="-115.81" font-family="Times New Roman,serif" font-size="14.00">c[7]</text>
<text text-anchor="middle" x="382.23" y="-100.06" font-family="Times New Roman,serif" font-size="14.00"> Score: 0.57</text>
<polygon fill="white" stroke="none" points="228.1,-123.57 228.1,-147.32 270.6,-147.32 270.6,-123.57 228.1,-123.57"/>
<text text-anchor="start" x="232.1" y="-130.02" font-family="Times New Roman,serif" font-size="14.00" fill="darkmagenta">52, 52</text>
</g>
<!-- 5&#45;&gt;2 -->
<g id="edge5" class="edge">
<title>5&#45;&gt;2</title>
<path fill="none" stroke="blue" stroke-width="5" d="M499.71,-70.87C551.29,-86.14 610.88,-113.7 642.23,-162.86 680.94,-223.53 586.53,-271.82 517.09,-297.84"/>
<polygon fill="blue" stroke="blue" stroke-width="5" points="515.61,-293.72 507.7,-301.23 518.59,-301.95 515.61,-293.72"/>
<text text-anchor="middle" x="683.98" y="-177.37" font-family="Times New Roman,serif" font-size="14.00"> Score: 0.57</text>
<polygon fill="white" stroke="none" points="545.56,-261.49 545.56,-285.24 588.06,-285.24 588.06,-261.49 545.56,-261.49"/>
<text text-anchor="start" x="549.56" y="-267.94" font-family="Times New Roman,serif" font-size="14.00" fill="darkmagenta">52, 52</text>
</g>
</g>
</svg>
