<?xml version="1.0" encoding="UTF-8" standalone="no"?>
<!DOCTYPE svg PUBLIC "-//W3C//DTD SVG 1.1//EN"
 "http://www.w3.org/Graphics/SVG/1.1/DTD/svg11.dtd">
<!-- Generated by graphviz version 10.0.1 (20240210.2158)
 -->
<!-- Title: clusterfind_triplet_for_index Pages: 1 -->
<svg width="766pt" height="997pt"
 viewBox="0.00 0.00 765.58 997.19" xmlns="http://www.w3.org/2000/svg" xmlns:xlink="http://www.w3.org/1999/xlink">
<g id="graph0" class="graph" transform="scale(1 1) rotate(0) translate(4 993.19)">
<title>clusterfind_triplet_for_index</title>
<polygon fill="white" stroke="none" points="-4,4 -4,-993.19 761.58,-993.19 761.58,4 -4,4"/>
<text text-anchor="middle" x="378.79" y="-6.45" font-family="Times New Roman,serif" font-size="14.00">find_triplet_for_index</text>
<!-- 1 -->
<g id="node1" class="node">
<title>1</title>
<ellipse fill="none" stroke="black" cx="559.08" cy="-945.51" rx="108.36" ry="27.93"/>
<text text-anchor="middle" x="559.08" y="-940.09" font-family="Times New Roman,serif" font-size="14.00">1. l, r = i + 1, len(nums) &#45; 1</text>
<text text-anchor="start" x="419.96" y="-960.14" font-family="Times New Roman,serif" font-size="14.00" fill="darkorange">77,82</text>
</g>
<!-- 2 -->
<g id="node2" class="node">
<title>2</title>
<ellipse fill="none" stroke="black" cx="559.08" cy="-831.83" rx="59.05" ry="18"/>
<text text-anchor="middle" x="559.08" y="-826.4" font-family="Times New Roman,serif" font-size="14.00">2. while l &lt; r:</text>
<text text-anchor="start" x="455.78" y="-836.53" font-family="Times New Roman,serif" font-size="14.00" fill="darkorange">227,249</text>
</g>
<!-- 1&#45;&gt;2 -->
<g id="edge1" class="edge">
<title>1&#45;&gt;2</title>
<path fill="none" stroke="blue" stroke-width="5" d="M559.08,-917.19C559.08,-901.82 559.08,-882.52 559.08,-866.26"/>
<polygon fill="blue" stroke="blue" stroke-width="5" points="563.45,-866.37 559.08,-856.37 554.7,-866.37 563.45,-866.37"/>
<text text-anchor="middle" x="592.83" y="-870.28" font-family="Times New Roman,serif" font-size="14.00"> Score: 0.57</text>
<polygon fill="white" stroke="none" points="514.58,-885.41 514.58,-909.16 557.08,-909.16 557.08,-885.41 514.58,-885.41"/>
<text text-anchor="start" x="518.58" y="-891.86" font-family="Times New Roman,serif" font-size="14.00" fill="darkmagenta">77, 82</text>
</g>
<!-- 3 -->
<g id="node3" class="node">
<title>3</title>
<ellipse fill="none" stroke="black" cx="336.08" cy="-691.51" rx="139.12" ry="39.07"/>
<text text-anchor="middle" x="336.08" y="-693.96" font-family="Times New Roman,serif" font-size="14.00">3. s = nums[i] + nums[l] + nums[r]</text>
<text text-anchor="middle" x="336.08" y="-678.21" font-family="Times New Roman,serif" font-size="14.00">if s &gt; 0:</text>
<text text-anchor="start" x="152.71" y="-717.28" font-family="Times New Roman,serif" font-size="14.00" fill="darkorange">227,249</text>
</g>
<!-- 2&#45;&gt;3 -->
<g id="edge2" class="edge">
<title>2&#45;&gt;3</title>
<path fill="none" stroke="blue" stroke-width="5" d="M505.92,-823.54C481.36,-818.45 452.61,-809.94 429.58,-795.83 407.43,-782.26 387.42,-761.91 371.64,-742.84"/>
<polygon fill="blue" stroke="blue" stroke-width="5" points="375.18,-740.26 365.54,-735.15 368.33,-745.7 375.18,-740.26"/>
<text text-anchor="middle" x="463.83" y="-782.53" font-family="Times New Roman,serif" font-size="14.00">&quot;l &lt; r&quot;</text>
<text text-anchor="middle" x="463.83" y="-766.78" font-family="Times New Roman,serif" font-size="14.00">c[6]</text>
<text text-anchor="middle" x="463.83" y="-751.03" font-family="Times New Roman,serif" font-size="14.00"> Score: 0.57</text>
<polygon fill="white" stroke="none" points="365.92,-794.19 365.92,-817.94 421.92,-817.94 421.92,-794.19 365.92,-794.19"/>
<text text-anchor="start" x="369.92" y="-800.64" font-family="Times New Roman,serif" font-size="14.00" fill="darkmagenta">227, 249</text>
</g>
<!-- 5 -->
<g id="node4" class="node">
<title>5</title>
<ellipse fill="none" stroke="black" cx="494.08" cy="-541.26" rx="48.97" ry="27.93"/>
<text text-anchor="middle" x="494.08" y="-535.84" font-family="Times New Roman,serif" font-size="14.00">5. r &#45;= 1</text>
<text text-anchor="start" x="407.61" y="-484.28" font-family="Times New Roman,serif" font-size="14.00" fill="darkorange">94,136</text>
</g>
<!-- 3&#45;&gt;5 -->
<g id="edge3" class="edge">
<title>3&#45;&gt;5</title>
<path fill="none" stroke="blue" stroke-width="5" d="M386.39,-654.71C393.49,-648.43 400.31,-641.6 406.08,-634.45 420.8,-616.19 414.26,-604.95 429.58,-587.2 434.61,-581.37 440.55,-575.93 446.76,-570.98"/>
<polygon fill="blue" stroke="blue" stroke-width="5" points="449.13,-574.67 454.64,-565.25 443.98,-567.6 449.13,-574.67"/>
<text text-anchor="middle" x="463.83" y="-621.15" font-family="Times New Roman,serif" font-size="14.00">&quot;s &gt; 0&quot;</text>
<text text-anchor="middle" x="463.83" y="-605.4" font-family="Times New Roman,serif" font-size="14.00">c[7]</text>
<text text-anchor="middle" x="463.83" y="-589.65" font-family="Times New Roman,serif" font-size="14.00"> Score: 0.57</text>
<polygon fill="white" stroke="none" points="380.79,-581.11 380.79,-604.86 430.04,-604.86 430.04,-581.11 380.79,-581.11"/>
<text text-anchor="start" x="384.79" y="-587.56" font-family="Times New Roman,serif" font-size="14.00" fill="darkmagenta">94, 136</text>
</g>
<!-- 7 -->
<g id="node5" class="node">
<title>7</title>
<ellipse fill="none" stroke="black" cx="360.08" cy="-541.26" rx="48.57" ry="18"/>
<text text-anchor="middle" x="360.08" y="-535.84" font-family="Times New Roman,serif" font-size="14.00">7. if s &lt; 0:</text>
<text text-anchor="start" x="267.26" y="-545.96" font-family="Times New Roman,serif" font-size="14.00" fill="darkorange">133,113</text>
</g>
<!-- 3&#45;&gt;7 -->
<g id="edge4" class="edge">
<title>3&#45;&gt;7</title>
<path fill="none" stroke="blue" stroke-width="5" d="M333.21,-652.23C332.68,-632.54 333.52,-608.31 338.58,-587.2 339.67,-582.62 341.27,-577.97 343.12,-573.47"/>
<polygon fill="blue" stroke="blue" stroke-width="5" points="346.91,-575.67 347.24,-564.76 339.01,-571.92 346.91,-575.67"/>
<text text-anchor="middle" x="372.83" y="-613.27" font-family="Times New Roman,serif" font-size="14.00">&quot;(s &lt;= 0)&quot;</text>
<text text-anchor="middle" x="372.83" y="-597.52" font-family="Times New Roman,serif" font-size="14.00"> Score: 0.57</text>
<polygon fill="white" stroke="none" points="277.32,-607.06 277.32,-630.81 333.32,-630.81 333.32,-607.06 277.32,-607.06"/>
<text text-anchor="start" x="281.32" y="-613.51" font-family="Times New Roman,serif" font-size="14.00" fill="darkmagenta">133, 113</text>
</g>
<!-- 5&#45;&gt;2 -->
<g id="edge5" class="edge">
<title>5&#45;&gt;2</title>
<path fill="none" stroke="blue" stroke-width="5" d="M497.25,-569.36C501.88,-606.19 511.48,-673.97 525.58,-730.58 531.34,-753.7 539.87,-779.15 546.88,-798.62"/>
<polygon fill="blue" stroke="blue" stroke-width="5" points="542.71,-799.96 550.28,-807.83 550.92,-796.94 542.71,-799.96"/>
<text text-anchor="middle" x="559.83" y="-678.09" font-family="Times New Roman,serif" font-size="14.00"> Score: 0.57</text>
<polygon fill="white" stroke="none" points="479.18,-667.21 479.18,-690.96 528.43,-690.96 528.43,-667.21 479.18,-667.21"/>
<text text-anchor="start" x="483.18" y="-673.66" font-family="Times New Roman,serif" font-size="14.00" fill="darkmagenta">94, 136</text>
</g>
<!-- 8 -->
<g id="node6" class="node">
<title>8</title>
<ellipse fill="none" stroke="black" cx="605.08" cy="-402.15" rx="48.97" ry="27.93"/>
<text text-anchor="middle" x="605.08" y="-396.73" font-family="Times New Roman,serif" font-size="14.00">8. l += 1</text>
<text text-anchor="start" x="525.36" y="-416.78" font-family="Times New Roman,serif" font-size="14.00" fill="darkorange">81,64</text>
</g>
<!-- 7&#45;&gt;8 -->
<g id="edge6" class="edge">
<title>7&#45;&gt;8</title>
<path fill="none" stroke="blue" stroke-width="5" d="M385.83,-525.85C426.29,-503.21 505.39,-458.94 556.69,-430.23"/>
<polygon fill="blue" stroke="blue" stroke-width="5" points="558.66,-434.15 565.25,-425.44 554.38,-426.51 558.66,-434.15"/>
<text text-anchor="middle" x="552.83" y="-482.03" font-family="Times New Roman,serif" font-size="14.00">&quot;s &lt; 0&quot;</text>
<text text-anchor="middle" x="552.83" y="-466.28" font-family="Times New Roman,serif" font-size="14.00">c[8]</text>
<text text-anchor="middle" x="552.83" y="-450.53" font-family="Times New Roman,serif" font-size="14.00"> Score: 0.57</text>
<polygon fill="white" stroke="none" points="433.72,-448.4 433.72,-472.15 476.22,-472.15 476.22,-448.4 433.72,-448.4"/>
<text text-anchor="start" x="437.72" y="-454.85" font-family="Times New Roman,serif" font-size="14.00" fill="darkmagenta">81, 64</text>
</g>
<!-- 10 -->
<g id="node7" class="node">
<title>10</title>
<ellipse fill="none" stroke="black" cx="360.08" cy="-402.15" rx="177.84" ry="27.93"/>
<text text-anchor="middle" x="360.08" y="-396.73" font-family="Times New Roman,serif" font-size="14.00">10. result.append((nums[i], nums[l], nums[r]))</text>
<text text-anchor="start" x="151.49" y="-416.78" font-family="Times New Roman,serif" font-size="14.00" fill="darkorange">52,49</text>
</g>
<!-- 7&#45;&gt;10 -->
<g id="edge7" class="edge">
<title>7&#45;&gt;10</title>
<path fill="none" stroke="blue" stroke-width="5" d="M360.08,-522.9C360.08,-503.81 360.08,-472.41 360.08,-446.55"/>
<polygon fill="blue" stroke="blue" stroke-width="5" points="364.45,-446.78 360.08,-436.78 355.7,-446.78 364.45,-446.78"/>
<text text-anchor="middle" x="393.83" y="-482.03" font-family="Times New Roman,serif" font-size="14.00">&quot;(s &gt;= 0)&quot;</text>
<text text-anchor="middle" x="393.83" y="-466.28" font-family="Times New Roman,serif" font-size="14.00">c[9]</text>
<text text-anchor="middle" x="393.83" y="-450.53" font-family="Times New Roman,serif" font-size="14.00"> Score: 0.57</text>
<polygon fill="white" stroke="none" points="315.58,-478.39 315.58,-502.14 358.08,-502.14 358.08,-478.39 315.58,-478.39"/>
<text text-anchor="start" x="319.58" y="-484.84" font-family="Times New Roman,serif" font-size="14.00" fill="darkmagenta">52, 49</text>
</g>
<!-- 8&#45;&gt;2 -->
<g id="edge8" class="edge">
<title>8&#45;&gt;2</title>
<path fill="none" stroke="blue" stroke-width="5" d="M606.71,-430.18C609.54,-486.57 613.29,-620.65 593.08,-730.58 588.79,-753.9 580.19,-779.19 572.71,-798.53"/>
<polygon fill="blue" stroke="blue" stroke-width="5" points="568.69,-796.8 569.01,-807.71 576.8,-800.06 568.69,-796.8"/>
<text text-anchor="middle" x="641.83" y="-597.4" font-family="Times New Roman,serif" font-size="14.00"> Score: 0.57</text>
<polygon fill="white" stroke="none" points="561.31,-624.88 561.31,-648.63 603.81,-648.63 603.81,-624.88 561.31,-624.88"/>
<text text-anchor="start" x="565.31" y="-631.33" font-family="Times New Roman,serif" font-size="14.00" fill="darkmagenta">81, 64</text>
</g>
<!-- 11 -->
<g id="node8" class="node">
<title>11</title>
<ellipse fill="none" stroke="black" cx="426.08" cy="-288.47" rx="168.83" ry="18"/>
<text text-anchor="middle" x="426.08" y="-283.05" font-family="Times New Roman,serif" font-size="14.00">11. while l &lt; r and nums[l] == nums[l + 1]:</text>
<text text-anchor="start" x="226.5" y="-293.17" font-family="Times New Roman,serif" font-size="14.00" fill="darkorange">52,49</text>
</g>
<!-- 10&#45;&gt;11 -->
<g id="edge9" class="edge">
<title>10&#45;&gt;11</title>
<path fill="none" stroke="blue" stroke-width="5" d="M376.05,-374.12C385.57,-358.02 397.68,-337.53 407.6,-320.74"/>
<polygon fill="blue" stroke="blue" stroke-width="5" points="411.3,-323.07 412.62,-312.24 403.77,-318.62 411.3,-323.07"/>
<text text-anchor="middle" x="438.83" y="-326.92" font-family="Times New Roman,serif" font-size="14.00"> Score: 0.57</text>
<polygon fill="white" stroke="none" points="351.52,-342.33 351.52,-366.08 394.02,-366.08 394.02,-342.33 351.52,-342.33"/>
<text text-anchor="start" x="355.52" y="-348.78" font-family="Times New Roman,serif" font-size="14.00" fill="darkmagenta">52, 49</text>
</g>
<!-- 12 -->
<g id="node9" class="node">
<title>12</title>
<ellipse fill="none" stroke="black" cx="459.08" cy="-175.04" rx="53.74" ry="27.93"/>
<text text-anchor="middle" x="459.08" y="-169.62" font-family="Times New Roman,serif" font-size="14.00">12. l += 1</text>
<text text-anchor="start" x="388.09" y="-189.67" font-family="Times New Roman,serif" font-size="14.00" fill="darkorange">0,0</text>
</g>
<!-- 11&#45;&gt;12 -->
<g id="edge10" class="edge">
<title>11&#45;&gt;12</title>
<path fill="none" stroke="black" d="M443.23,-270.28C447.52,-264.99 451.6,-258.86 454.08,-252.47 458.63,-240.73 460.5,-227.21 461.05,-214.84"/>
<polygon fill="black" stroke="black" points="464.55,-214.99 461.19,-204.94 457.55,-214.89 464.55,-214.99"/>
<text text-anchor="middle" x="557.83" y="-239.17" font-family="Times New Roman,serif" font-size="14.00">&quot;l &lt; r and nums[l] == nums[l + 1]&quot;</text>
<text text-anchor="middle" x="557.83" y="-223.42" font-family="Times New Roman,serif" font-size="14.00">c[10]</text>
<polygon fill="white" stroke="none" points="435.52,-212.32 435.52,-236.07 464.52,-236.07 464.52,-212.32 435.52,-212.32"/>
<text text-anchor="start" x="439.52" y="-218.77" font-family="Times New Roman,serif" font-size="14.00" fill="darkmagenta">0, 0</text>
</g>
<!-- 13 -->
<g id="node10" class="node">
<title>13</title>
<ellipse fill="none" stroke="black" cx="199.08" cy="-175.04" rx="168.33" ry="18"/>
<text text-anchor="middle" x="199.08" y="-169.62" font-family="Times New Roman,serif" font-size="14.00">13. while l &lt; r and nums[r] == nums[r &#45; 1]:</text>
<text text-anchor="start" x="0" y="-179.74" font-family="Times New Roman,serif" font-size="14.00" fill="darkorange">52,49</text>
</g>
<!-- 11&#45;&gt;13 -->
<g id="edge11" class="edge">
<title>11&#45;&gt;13</title>
<path fill="none" stroke="blue" stroke-width="5" d="M278.53,-279.42C242.8,-274.29 211.5,-265.96 199.83,-252.47 189.73,-240.81 188.65,-223.98 190.48,-209.08"/>
<polygon fill="blue" stroke="blue" stroke-width="5" points="194.71,-210.22 192.29,-199.58 186.12,-208.59 194.71,-210.22"/>
<text text-anchor="middle" x="316.7" y="-239.17" font-family="Times New Roman,serif" font-size="14.00">&quot;(not (l &lt; r and nums[l] == nums[l + 1]))&quot;</text>
<text text-anchor="middle" x="316.7" y="-223.42" font-family="Times New Roman,serif" font-size="14.00"> Score: 0.57</text>
<polygon fill="white" stroke="none" points="180.04,-269.16 180.04,-292.91 222.54,-292.91 222.54,-269.16 180.04,-269.16"/>
<text text-anchor="start" x="184.04" y="-275.61" font-family="Times New Roman,serif" font-size="14.00" fill="darkmagenta">52, 49</text>
</g>
<!-- 12&#45;&gt;11 -->
<g id="edge12" class="edge">
<title>12&#45;&gt;11</title>
<path fill="none" stroke="black" d="M451.13,-202.87C446.06,-219.99 439.51,-242.13 434.37,-259.46"/>
<polygon fill="black" stroke="black" points="431.15,-258.03 431.66,-268.61 437.86,-260.02 431.15,-258.03"/>
<polygon fill="white" stroke="none" points="443.28,-238.16 443.28,-261.91 472.28,-261.91 472.28,-238.16 443.28,-238.16"/>
<text text-anchor="start" x="447.28" y="-244.61" font-family="Times New Roman,serif" font-size="14.00" fill="darkmagenta">0, 0</text>
</g>
<!-- 14 -->
<g id="node11" class="node">
<title>14</title>
<ellipse fill="none" stroke="black" cx="190.08" cy="-51.68" rx="53.74" ry="27.93"/>
<text text-anchor="middle" x="190.08" y="-46.26" font-family="Times New Roman,serif" font-size="14.00">14. r &#45;= 1</text>
<text text-anchor="start" x="119.09" y="-66.31" font-family="Times New Roman,serif" font-size="14.00" fill="darkorange">0,0</text>
</g>
<!-- 13&#45;&gt;14 -->
<g id="edge13" class="edge">
<title>13&#45;&gt;14</title>
<path fill="none" stroke="black" d="M197.79,-156.65C196.53,-139.65 194.57,-113.19 192.94,-91.22"/>
<polygon fill="black" stroke="black" points="196.44,-91.11 192.21,-81.4 189.46,-91.63 196.44,-91.11"/>
<text text-anchor="middle" x="292.45" y="-115.81" font-family="Times New Roman,serif" font-size="14.00">&quot;l &lt; r and nums[r] == nums[r &#45; 1]&quot;</text>
<text text-anchor="middle" x="292.45" y="-100.06" font-family="Times New Roman,serif" font-size="14.00">c[11]</text>
<polygon fill="white" stroke="none" points="163.94,-92.44 163.94,-116.19 192.94,-116.19 192.94,-92.44 163.94,-92.44"/>
<text text-anchor="start" x="167.94" y="-98.89" font-family="Times New Roman,serif" font-size="14.00" fill="darkmagenta">0, 0</text>
</g>
<!-- 15 -->
<g id="node12" class="node">
<title>15</title>
<ellipse fill="none" stroke="black" cx="562.08" cy="-51.68" rx="50.03" ry="27.93"/>
<text text-anchor="middle" x="562.08" y="-54.13" font-family="Times New Roman,serif" font-size="14.00">15. l += 1</text>
<text text-anchor="middle" x="562.08" y="-38.38" font-family="Times New Roman,serif" font-size="14.00">r &#45;= 1</text>
<text text-anchor="start" x="481.3" y="-66.31" font-family="Times New Roman,serif" font-size="14.00" fill="darkorange">52,49</text>
</g>
<!-- 13&#45;&gt;15 -->
<g id="edge14" class="edge">
<title>13&#45;&gt;15</title>
<path fill="none" stroke="blue" stroke-width="5" d="M289.86,-159.47C323.08,-152.48 360.5,-142.6 393.08,-129.11 417.52,-118.99 419.88,-109.36 443.58,-97.61 462.79,-88.09 484.55,-79.31 504.13,-72.08"/>
<polygon fill="blue" stroke="blue" stroke-width="5" points="505.47,-76.25 513.4,-68.75 502.51,-68.01 505.47,-76.25"/>
<text text-anchor="middle" x="560.33" y="-115.81" font-family="Times New Roman,serif" font-size="14.00">&quot;(not (l &lt; r and nums[r] == nums[r &#45; 1]))&quot;</text>
<text text-anchor="middle" x="560.33" y="-100.06" font-family="Times New Roman,serif" font-size="14.00"> Score: 0.57</text>
<polygon fill="white" stroke="none" points="399.8,-94.88 399.8,-118.63 442.3,-118.63 442.3,-94.88 399.8,-94.88"/>
<text text-anchor="start" x="403.8" y="-101.33" font-family="Times New Roman,serif" font-size="14.00" fill="darkmagenta">52, 49</text>
</g>
<!-- 14&#45;&gt;13 -->
<g id="edge15" class="edge">
<title>14&#45;&gt;13</title>
<path fill="none" stroke="black" d="M188.77,-79.98C188.4,-94.59 188.47,-112.87 190.08,-129.11 190.6,-134.42 191.47,-140.03 192.47,-145.42"/>
<polygon fill="black" stroke="black" points="189.03,-146.09 194.46,-155.18 195.89,-144.69 189.03,-146.09"/>
<polygon fill="white" stroke="none" points="158.25,-120.62 158.25,-144.37 187.25,-144.37 187.25,-120.62 158.25,-120.62"/>
<text text-anchor="start" x="162.25" y="-127.07" font-family="Times New Roman,serif" font-size="14.00" fill="darkmagenta">0, 0</text>
</g>
<!-- 15&#45;&gt;2 -->
<g id="edge16" class="edge">
<title>15&#45;&gt;2</title>
<path fill="none" stroke="blue" stroke-width="5" d="M610.11,-60.4C633.37,-66.61 659.73,-77.73 676.08,-97.61 698.01,-124.28 690.08,-139.51 690.08,-174.04 690.08,-692.51 690.08,-692.51 690.08,-692.51 690.08,-744.27 641.12,-784.44 603.06,-807.85"/>
<polygon fill="blue" stroke="blue" stroke-width="5" points="600.94,-804.02 594.52,-812.84 605.36,-811.57 600.94,-804.02"/>
<text text-anchor="middle" x="723.83" y="-388.73" font-family="Times New Roman,serif" font-size="14.00"> Score: 0.57</text>
<polygon fill="white" stroke="none" points="645.58,-629.7 645.58,-653.45 688.08,-653.45 688.08,-629.7 645.58,-629.7"/>
<text text-anchor="start" x="649.58" y="-636.15" font-family="Times New Roman,serif" font-size="14.00" fill="darkmagenta">52, 49</text>
</g>
</g>
</svg>
