<?xml version="1.0" encoding="UTF-8" standalone="no"?>
<!DOCTYPE svg PUBLIC "-//W3C//DTD SVG 1.1//EN"
 "http://www.w3.org/Graphics/SVG/1.1/DTD/svg11.dtd">
<!-- Generated by graphviz version 10.0.1 (20240210.2158)
 -->
<!-- Title: clustermodify_array Pages: 1 -->
<svg width="713pt" height="770pt"
 viewBox="0.00 0.00 713.42 770.33" xmlns="http://www.w3.org/2000/svg" xmlns:xlink="http://www.w3.org/1999/xlink">
<g id="graph0" class="graph" transform="scale(1 1) rotate(0) translate(4 766.33)">
<title>clustermodify_array</title>
<polygon fill="white" stroke="none" points="-4,4 -4,-766.33 709.42,-766.33 709.42,4 -4,4"/>
<text text-anchor="middle" x="352.71" y="-6.45" font-family="Times New Roman,serif" font-size="14.00">modify_array</text>
<!-- 1 -->
<g id="node1" class="node">
<title>1</title>
<ellipse fill="none" stroke="black" cx="482.92" cy="-707.51" rx="56.92" ry="39.07"/>
<text text-anchor="middle" x="482.92" y="-709.96" font-family="Times New Roman,serif" font-size="14.00">1. nums.sort()</text>
<text text-anchor="middle" x="482.92" y="-694.21" font-family="Times New Roman,serif" font-size="14.00">i = 0</text>
<text text-anchor="start" x="395.25" y="-733.28" font-family="Times New Roman,serif" font-size="14.00" fill="darkorange">14,14</text>
</g>
<!-- 2 -->
<g id="node2" class="node">
<title>2</title>
<ellipse fill="none" stroke="black" cx="482.92" cy="-582.7" rx="92.48" ry="18"/>
<text text-anchor="middle" x="482.92" y="-577.27" font-family="Times New Roman,serif" font-size="14.00">2. while i &lt; len(nums):</text>
<text text-anchor="start" x="346.19" y="-587.4" font-family="Times New Roman,serif" font-size="14.00" fill="darkorange">182,280</text>
</g>
<!-- 1&#45;&gt;2 -->
<g id="edge1" class="edge">
<title>1&#45;&gt;2</title>
<path fill="none" stroke="blue" stroke-width="3.92" d="M482.92,-667.99C482.92,-651.65 482.92,-632.78 482.92,-617.05"/>
<polygon fill="blue" stroke="blue" stroke-width="3.92" points="486.42,-617.13 482.92,-607.13 479.42,-617.13 486.42,-617.13"/>
<text text-anchor="middle" x="516.67" y="-621.15" font-family="Times New Roman,serif" font-size="14.00"> Score: 0.57</text>
<polygon fill="white" stroke="none" points="438.42,-636.56 438.42,-660.31 480.92,-660.31 480.92,-636.56 438.42,-636.56"/>
<text text-anchor="start" x="442.42" y="-643.01" font-family="Times New Roman,serif" font-size="14.00" fill="darkmagenta">14, 14</text>
</g>
<!-- 3 -->
<g id="node3" class="node">
<title>3</title>
<ellipse fill="none" stroke="black" cx="192.92" cy="-453.51" rx="148.67" ry="27.93"/>
<text text-anchor="middle" x="192.92" y="-448.09" font-family="Times New Roman,serif" font-size="14.00">3. if i &gt; 0 and nums[i] == nums[i &#45; 1]:</text>
<text text-anchor="start" x="0" y="-468.15" font-family="Times New Roman,serif" font-size="14.00" fill="darkorange">168,266</text>
</g>
<!-- 2&#45;&gt;3 -->
<g id="edge2" class="edge">
<title>2&#45;&gt;3</title>
<path fill="none" stroke="blue" stroke-width="3.92" d="M409.8,-571.37C382.86,-566.02 352.57,-558.13 326.42,-546.7 294,-532.52 261.26,-510.07 236.31,-490.87"/>
<polygon fill="blue" stroke="blue" stroke-width="3.92" points="238.71,-488.3 228.69,-484.86 234.38,-493.8 238.71,-488.3"/>
<text text-anchor="middle" x="369.67" y="-533.4" font-family="Times New Roman,serif" font-size="14.00">&quot;i &lt; len(nums)&quot;</text>
<text text-anchor="middle" x="369.67" y="-517.65" font-family="Times New Roman,serif" font-size="14.00">c[1]</text>
<text text-anchor="middle" x="369.67" y="-501.9" font-family="Times New Roman,serif" font-size="14.00"> Score: 0.57</text>
<polygon fill="white" stroke="none" points="252.47,-541.1 252.47,-564.85 308.47,-564.85 308.47,-541.1 252.47,-541.1"/>
<text text-anchor="start" x="256.47" y="-547.55" font-family="Times New Roman,serif" font-size="14.00" fill="darkmagenta">168, 266</text>
</g>
<!-- 4 -->
<g id="node4" class="node">
<title>4</title>
<ellipse fill="none" stroke="black" cx="423.92" cy="-453.51" rx="64.04" ry="18"/>
<text text-anchor="middle" x="423.92" y="-448.09" font-family="Times New Roman,serif" font-size="14.00">4. return nums</text>
<text text-anchor="start" x="359.88" y="-458.21" font-family="Times New Roman,serif" font-size="14.00" fill="darkorange">14,14</text>
</g>
<!-- 2&#45;&gt;4 -->
<g id="edge3" class="edge">
<title>2&#45;&gt;4</title>
<path fill="none" stroke="blue" stroke-width="3.92" d="M444.57,-565.97C436.85,-560.98 429.71,-554.63 425.17,-546.7 415.01,-528.93 414.68,-505.92 416.91,-487.33"/>
<polygon fill="blue" stroke="blue" stroke-width="3.92" points="420.33,-488.07 418.49,-477.64 413.42,-486.94 420.33,-488.07"/>
<text text-anchor="middle" x="477.29" y="-525.52" font-family="Times New Roman,serif" font-size="14.00">&quot;(i &gt;= len(nums))&quot;</text>
<text text-anchor="middle" x="477.29" y="-509.77" font-family="Times New Roman,serif" font-size="14.00"> Score: 0.57</text>
<polygon fill="white" stroke="none" points="418.8,-494.95 418.8,-518.7 461.3,-518.7 461.3,-494.95 418.8,-494.95"/>
<text text-anchor="start" x="422.8" y="-501.4" font-family="Times New Roman,serif" font-size="14.00" fill="darkmagenta">14, 14</text>
</g>
<!-- 5 -->
<g id="node5" class="node">
<title>5</title>
<ellipse fill="none" stroke="black" cx="240.92" cy="-314.4" rx="72.83" ry="27.93"/>
<text text-anchor="middle" x="240.92" y="-308.98" font-family="Times New Roman,serif" font-size="14.00">5. if nums[i] &gt;= 0:</text>
<text text-anchor="start" x="137.34" y="-329.03" font-family="Times New Roman,serif" font-size="14.00" fill="darkorange">13,29</text>
</g>
<!-- 3&#45;&gt;5 -->
<g id="edge4" class="edge">
<title>3&#45;&gt;5</title>
<path fill="none" stroke="blue" stroke-width="4.03" d="M106.15,-430.57C96.23,-424.65 87.37,-417.13 80.92,-407.58 69.15,-390.19 68.24,-377.07 80.92,-360.33 91.01,-347.02 124.69,-336.56 158.57,-329.1"/>
<polygon fill="blue" stroke="blue" stroke-width="4.03" points="159.06,-332.59 168.13,-327.11 157.62,-325.7 159.06,-332.59"/>
<text text-anchor="middle" x="176.92" y="-394.28" font-family="Times New Roman,serif" font-size="14.00">&quot;i &gt; 0 and nums[i] == nums[i &#45; 1]&quot;</text>
<text text-anchor="middle" x="176.92" y="-378.53" font-family="Times New Roman,serif" font-size="14.00">c[2]</text>
<text text-anchor="middle" x="176.92" y="-362.78" font-family="Times New Roman,serif" font-size="14.00"> Score: 0.59</text>
<polygon fill="white" stroke="none" points="83.45,-311.11 83.45,-334.86 125.95,-334.86 125.95,-311.11 83.45,-311.11"/>
<text text-anchor="start" x="87.45" y="-317.56" font-family="Times New Roman,serif" font-size="14.00" fill="darkmagenta">13, 29</text>
</g>
<!-- 7 -->
<g id="node6" class="node">
<title>7</title>
<ellipse fill="none" stroke="black" cx="417.92" cy="-314.4" rx="48.97" ry="27.93"/>
<text text-anchor="middle" x="417.92" y="-308.98" font-family="Times New Roman,serif" font-size="14.00">7. i += 1</text>
<text text-anchor="start" x="324.7" y="-273.17" font-family="Times New Roman,serif" font-size="14.00" fill="darkorange">155,237</text>
</g>
<!-- 3&#45;&gt;7 -->
<g id="edge5" class="edge">
<title>3&#45;&gt;7</title>
<path fill="none" stroke="blue" stroke-width="3.92" d="M248.18,-427.36C257.14,-421.7 265.8,-415.1 272.92,-407.58 289.01,-390.59 278.78,-376 296.17,-360.33 306.14,-351.35 333.19,-341 359.27,-332.5"/>
<polygon fill="blue" stroke="blue" stroke-width="3.92" points="360.23,-335.86 368.71,-329.52 358.12,-329.19 360.23,-335.86"/>
<text text-anchor="middle" x="412.79" y="-394.28" font-family="Times New Roman,serif" font-size="14.00">&quot;(not (i &gt; 0 and nums[i] == nums[i &#45; 1]))&quot;</text>
<text text-anchor="middle" x="412.79" y="-378.53" font-family="Times New Roman,serif" font-size="14.00">c[5]</text>
<text text-anchor="middle" x="412.79" y="-362.78" font-family="Times New Roman,serif" font-size="14.00"> Score: 0.57</text>
<polygon fill="white" stroke="none" points="298.41,-334.37 298.41,-358.12 354.41,-358.12 354.41,-334.37 298.41,-334.37"/>
<text text-anchor="start" x="302.41" y="-340.82" font-family="Times New Roman,serif" font-size="14.00" fill="darkmagenta">155, 237</text>
</g>
<!-- 8 -->
<g id="node7" class="node">
<title>8</title>
<ellipse fill="none" stroke="black" cx="240.92" cy="-175.29" rx="62.76" ry="27.93"/>
<text text-anchor="middle" x="240.92" y="-169.87" font-family="Times New Roman,serif" font-size="14.00">8. nums[i] += 1</text>
<text text-anchor="start" x="154.16" y="-189.92" font-family="Times New Roman,serif" font-size="14.00" fill="darkorange">5,17</text>
</g>
<!-- 5&#45;&gt;8 -->
<g id="edge6" class="edge">
<title>5&#45;&gt;8</title>
<path fill="none" stroke="blue" stroke-width="5" d="M240.92,-285.99C240.92,-267.02 240.92,-241.4 240.92,-219.68"/>
<polygon fill="blue" stroke="blue" stroke-width="5" points="245.29,-219.9 240.92,-209.9 236.54,-219.9 245.29,-219.9"/>
<text text-anchor="middle" x="283.29" y="-255.17" font-family="Times New Roman,serif" font-size="14.00">&quot;nums[i] &gt;= 0&quot;</text>
<text text-anchor="middle" x="283.29" y="-239.42" font-family="Times New Roman,serif" font-size="14.00">c[3]</text>
<text text-anchor="middle" x="283.29" y="-223.67" font-family="Times New Roman,serif" font-size="14.00"> Score: 0.78</text>
<polygon fill="white" stroke="none" points="203.17,-246.66 203.17,-270.41 238.92,-270.41 238.92,-246.66 203.17,-246.66"/>
<text text-anchor="start" x="207.17" y="-253.11" font-family="Times New Roman,serif" font-size="14.00" fill="darkmagenta">5, 17</text>
</g>
<!-- 10 -->
<g id="node8" class="node">
<title>10</title>
<ellipse fill="none" stroke="black" cx="394.92" cy="-175.29" rx="73.36" ry="27.93"/>
<text text-anchor="middle" x="394.92" y="-169.87" font-family="Times New Roman,serif" font-size="14.00">10. nums[i &#45; 1] &#45;= 3</text>
<text text-anchor="start" x="297.56" y="-189.92" font-family="Times New Roman,serif" font-size="14.00" fill="darkorange">8,12</text>
</g>
<!-- 5&#45;&gt;10 -->
<g id="edge7" class="edge">
<title>5&#45;&gt;10</title>
<path fill="none" stroke="blue" stroke-width="4.18" d="M290.7,-293.61C304.27,-286.84 318.39,-278.43 329.92,-268.47 346.8,-253.91 361.52,-234.06 372.66,-216.52"/>
<polygon fill="blue" stroke="blue" stroke-width="4.18" points="375.77,-218.44 377.83,-207.99 369.52,-214.65 375.77,-218.44"/>
<text text-anchor="middle" x="412.67" y="-255.17" font-family="Times New Roman,serif" font-size="14.00">&quot;(nums[i] &lt; 0)&quot;</text>
<text text-anchor="middle" x="412.67" y="-239.42" font-family="Times New Roman,serif" font-size="14.00">c[4]</text>
<text text-anchor="middle" x="412.67" y="-223.67" font-family="Times New Roman,serif" font-size="14.00"> Score: 0.62</text>
<polygon fill="white" stroke="none" points="325.38,-229.74 325.38,-253.49 361.13,-253.49 361.13,-229.74 325.38,-229.74"/>
<text text-anchor="start" x="329.38" y="-236.19" font-family="Times New Roman,serif" font-size="14.00" fill="darkmagenta">8, 12</text>
</g>
<!-- 7&#45;&gt;2 -->
<g id="edge11" class="edge">
<title>7&#45;&gt;2</title>
<path fill="none" stroke="blue" stroke-width="3.92" d="M465.25,-322.28C488.25,-328.26 513.89,-339.44 527.92,-360.33 551.01,-394.71 546.11,-509.49 527.92,-546.7 526.64,-549.32 525.06,-551.8 523.26,-554.13"/>
<polygon fill="blue" stroke="blue" stroke-width="3.92" points="520.9,-551.54 516.29,-561.08 525.84,-556.5 520.9,-551.54"/>
<text text-anchor="middle" x="576.67" y="-440.09" font-family="Times New Roman,serif" font-size="14.00"> Score: 0.57</text>
<polygon fill="white" stroke="none" points="485.45,-417.46 485.45,-441.21 541.45,-441.21 541.45,-417.46 485.45,-417.46"/>
<text text-anchor="start" x="489.45" y="-423.91" font-family="Times New Roman,serif" font-size="14.00" fill="darkmagenta">155, 237</text>
</g>
<!-- 9 -->
<g id="node9" class="node">
<title>9</title>
<ellipse fill="none" stroke="black" cx="394.92" cy="-51.68" rx="56.92" ry="27.93"/>
<text text-anchor="middle" x="394.92" y="-54.13" font-family="Times New Roman,serif" font-size="14.00">9. i = 0</text>
<text text-anchor="middle" x="394.92" y="-38.38" font-family="Times New Roman,serif" font-size="14.00">nums.sort()</text>
<text text-anchor="start" x="307.25" y="-66.31" font-family="Times New Roman,serif" font-size="14.00" fill="darkorange">13,29</text>
</g>
<!-- 8&#45;&gt;9 -->
<g id="edge8" class="edge">
<title>8&#45;&gt;9</title>
<path fill="none" stroke="blue" stroke-width="5" d="M265.47,-149.17C281.33,-133.53 302.79,-113.45 323.42,-97.61 330.24,-92.38 337.68,-87.18 345.11,-82.28"/>
<polygon fill="blue" stroke="blue" stroke-width="5" points="347.42,-86 353.5,-76.93 342.72,-78.62 347.42,-86"/>
<text text-anchor="middle" x="357.67" y="-100.06" font-family="Times New Roman,serif" font-size="14.00"> Score: 0.78</text>
<polygon fill="white" stroke="none" points="272.08,-110.52 272.08,-134.27 307.83,-134.27 307.83,-110.52 272.08,-110.52"/>
<text text-anchor="start" x="276.08" y="-116.97" font-family="Times New Roman,serif" font-size="14.00" fill="darkmagenta">5, 17</text>
</g>
<!-- 10&#45;&gt;9 -->
<g id="edge10" class="edge">
<title>10&#45;&gt;9</title>
<path fill="none" stroke="blue" stroke-width="4.18" d="M394.92,-147C394.92,-131.9 394.92,-112.79 394.92,-95.73"/>
<polygon fill="blue" stroke="blue" stroke-width="4.18" points="398.58,-95.97 394.92,-85.97 391.26,-95.97 398.58,-95.97"/>
<text text-anchor="middle" x="428.67" y="-100.06" font-family="Times New Roman,serif" font-size="14.00"> Score: 0.62</text>
<polygon fill="white" stroke="none" points="357.17,-115.39 357.17,-139.14 392.92,-139.14 392.92,-115.39 357.17,-115.39"/>
<text text-anchor="start" x="361.17" y="-121.84" font-family="Times New Roman,serif" font-size="14.00" fill="darkmagenta">8, 12</text>
</g>
<!-- 9&#45;&gt;2 -->
<g id="edge9" class="edge">
<title>9&#45;&gt;2</title>
<path fill="none" stroke="blue" stroke-width="4.03" d="M451.28,-56.56C523.06,-64.92 637.92,-91.26 637.92,-174.29 637.92,-454.51 637.92,-454.51 637.92,-454.51 637.92,-506 586.17,-540.45 542.47,-560.36"/>
<polygon fill="blue" stroke="blue" stroke-width="4.03" points="541.12,-557.11 533.32,-564.29 543.9,-563.58 541.12,-557.11"/>
<text text-anchor="middle" x="671.67" y="-300.98" font-family="Times New Roman,serif" font-size="14.00"> Score: 0.59</text>
<polygon fill="white" stroke="none" points="593.42,-338.3 593.42,-362.05 635.92,-362.05 635.92,-338.3 593.42,-338.3"/>
<text text-anchor="start" x="597.42" y="-344.75" font-family="Times New Roman,serif" font-size="14.00" fill="darkmagenta">13, 29</text>
</g>
</g>
</svg>
