<?xml version="1.0" encoding="UTF-8" standalone="no"?>
<!DOCTYPE svg PUBLIC "-//W3C//DTD SVG 1.1//EN"
 "http://www.w3.org/Graphics/SVG/1.1/DTD/svg11.dtd">
<!-- Generated by graphviz version 10.0.1 (20240210.2158)
 -->
<!-- Title: clusterthree_sum Pages: 1 -->
<svg width="761pt" height="494pt"
 viewBox="0.00 0.00 760.53 494.27" xmlns="http://www.w3.org/2000/svg" xmlns:xlink="http://www.w3.org/1999/xlink">
<g id="graph0" class="graph" transform="scale(1 1) rotate(0) translate(4 490.27)">
<title>clusterthree_sum</title>
<polygon fill="white" stroke="none" points="-4,4 -4,-490.27 756.53,-490.27 756.53,4 -4,4"/>
<text text-anchor="middle" x="376.27" y="-6.45" font-family="Times New Roman,serif" font-size="14.00">three_sum</text>
<!-- 1 -->
<g id="node1" class="node">
<title>1</title>
<ellipse fill="none" stroke="black" cx="571.03" cy="-420.32" rx="167.23" ry="50.21"/>
<text text-anchor="middle" x="571.03" y="-430.64" font-family="Times New Roman,serif" font-size="14.00">1. modified_nums = modify_array(nums)</text>
<text text-anchor="middle" x="571.03" y="-414.89" font-family="Times New Roman,serif" font-size="14.00">print(&#39;Modified array:&#39;, modified_nums)</text>
<text text-anchor="middle" x="571.03" y="-399.14" font-family="Times New Roman,serif" font-size="14.00">result = []</text>
<text text-anchor="start" x="373.05" y="-457.22" font-family="Times New Roman,serif" font-size="14.00" fill="darkorange">14,14</text>
</g>
<!-- 2 -->
<g id="node2" class="node">
<title>2</title>
<ellipse fill="none" stroke="black" cx="571.03" cy="-284.36" rx="161.84" ry="18"/>
<text text-anchor="middle" x="571.03" y="-278.94" font-family="Times New Roman,serif" font-size="14.00">2. for i in range(len(modified_nums) &#45; 2):</text>
<text text-anchor="start" x="378.44" y="-289.06" font-family="Times New Roman,serif" font-size="14.00" fill="darkorange">91,96</text>
</g>
<!-- 1&#45;&gt;2 -->
<g id="edge1" class="edge">
<title>1&#45;&gt;2</title>
<path fill="none" stroke="blue" stroke-width="5" d="M571.03,-369.82C571.03,-352.71 571.03,-333.96 571.03,-318.48"/>
<polygon fill="blue" stroke="blue" stroke-width="5" points="575.41,-318.9 571.03,-308.9 566.66,-318.9 575.41,-318.9"/>
<text text-anchor="middle" x="604.78" y="-322.81" font-family="Times New Roman,serif" font-size="14.00"> Score: 0.57</text>
<polygon fill="white" stroke="none" points="526.53,-338.21 526.53,-361.96 569.03,-361.96 569.03,-338.21 526.53,-338.21"/>
<text text-anchor="start" x="530.53" y="-344.66" font-family="Times New Roman,serif" font-size="14.00" fill="darkmagenta">14, 14</text>
</g>
<!-- 3 -->
<g id="node3" class="node">
<title>3</title>
<ellipse fill="none" stroke="black" cx="260.03" cy="-155.18" rx="229.28" ry="27.93"/>
<text text-anchor="middle" x="260.03" y="-149.76" font-family="Times New Roman,serif" font-size="14.00">3. if i &gt; 0 and modified_nums[i] == modified_nums[i &#45; 1]:</text>
<text text-anchor="start" x="0" y="-169.81" font-family="Times New Roman,serif" font-size="14.00" fill="darkorange">77,82</text>
</g>
<!-- 2&#45;&gt;3 -->
<g id="edge2" class="edge">
<title>2&#45;&gt;3</title>
<path fill="none" stroke="blue" stroke-width="5" d="M460.7,-270.91C435.35,-265.78 408.97,-258.55 385.53,-248.36 354.57,-234.9 323.95,-212.64 300.71,-193.37"/>
<polygon fill="blue" stroke="blue" stroke-width="5" points="303.79,-190.25 293.35,-187.09 298.12,-196.91 303.79,-190.25"/>
<text text-anchor="middle" x="476.78" y="-235.06" font-family="Times New Roman,serif" font-size="14.00">&quot;range(len(modified_nums) &#45; 2)&quot;</text>
<text text-anchor="middle" x="476.78" y="-219.31" font-family="Times New Roman,serif" font-size="14.00">c[12]</text>
<text text-anchor="middle" x="476.78" y="-203.56" font-family="Times New Roman,serif" font-size="14.00"> Score: 0.57</text>
<polygon fill="white" stroke="none" points="323.34,-241.75 323.34,-265.5 365.84,-265.5 365.84,-241.75 323.34,-241.75"/>
<text text-anchor="start" x="327.34" y="-248.2" font-family="Times New Roman,serif" font-size="14.00" fill="darkmagenta">77, 82</text>
</g>
<!-- 4 -->
<g id="node4" class="node">
<title>4</title>
<ellipse fill="none" stroke="black" cx="571.03" cy="-155.18" rx="64.04" ry="18"/>
<text text-anchor="middle" x="571.03" y="-149.76" font-family="Times New Roman,serif" font-size="14.00">4. return result</text>
<text text-anchor="start" x="506.99" y="-159.88" font-family="Times New Roman,serif" font-size="14.00" fill="darkorange">14,14</text>
</g>
<!-- 2&#45;&gt;4 -->
<g id="edge3" class="edge">
<title>2&#45;&gt;4</title>
<path fill="none" stroke="blue" stroke-width="5" d="M571.03,-265.94C571.03,-246.35 571.03,-214.05 571.03,-189.56"/>
<polygon fill="blue" stroke="blue" stroke-width="5" points="575.41,-189.62 571.03,-179.62 566.66,-189.62 575.41,-189.62"/>
<text text-anchor="middle" x="604.78" y="-211.31" font-family="Times New Roman,serif" font-size="14.00"> Score: 0.57</text>
<polygon fill="white" stroke="none" points="573.03,-194.22 573.03,-217.97 615.53,-217.97 615.53,-194.22 573.03,-194.22"/>
<text text-anchor="start" x="577.03" y="-200.67" font-family="Times New Roman,serif" font-size="14.00" fill="darkmagenta">14, 14</text>
</g>
<!-- 6 -->
<g id="node5" class="node">
<title>6</title>
<ellipse fill="none" stroke="black" cx="465.03" cy="-41.75" rx="197.27" ry="18"/>
<text text-anchor="middle" x="465.03" y="-36.33" font-family="Times New Roman,serif" font-size="14.00">6. find_triplet_for_index(modified_nums, i, result)</text>
<text text-anchor="start" x="237.01" y="-46.45" font-family="Times New Roman,serif" font-size="14.00" fill="darkorange">77,82</text>
</g>
<!-- 3&#45;&gt;6 -->
<g id="edge4" class="edge">
<title>3&#45;&gt;6</title>
<path fill="none" stroke="blue" stroke-width="5" d="M271.83,-126.91C280.42,-110.25 293.64,-89.87 311.28,-77.75 320.07,-71.71 329.75,-66.7 339.84,-62.54"/>
<polygon fill="blue" stroke="blue" stroke-width="5" points="341.12,-66.73 349.01,-59.18 338.11,-58.51 341.12,-66.73"/>
<text text-anchor="middle" x="484.91" y="-95.95" font-family="Times New Roman,serif" font-size="14.00">&quot;(not (i &gt; 0 and modified_nums[i] == modified_nums[i &#45; 1]))&quot;</text>
<text text-anchor="middle" x="484.91" y="-80.2" font-family="Times New Roman,serif" font-size="14.00"> Score: 0.57</text>
<polygon fill="white" stroke="none" points="266.81,-79.73 266.81,-103.48 309.31,-103.48 309.31,-79.73 266.81,-79.73"/>
<text text-anchor="start" x="270.81" y="-86.18" font-family="Times New Roman,serif" font-size="14.00" fill="darkmagenta">77, 82</text>
</g>
<!-- 6&#45;&gt;2 -->
<g id="edge5" class="edge">
<title>6&#45;&gt;2</title>
<path fill="none" stroke="blue" stroke-width="5" d="M601.17,-55.07C626.89,-60.21 648.46,-67.47 657.03,-77.75 705.79,-136.2 685.64,-185.97 642.03,-248.36 639.69,-251.71 636.93,-254.76 633.89,-257.52"/>
<polygon fill="blue" stroke="blue" stroke-width="5" points="631.59,-253.78 626.05,-263.19 636.72,-260.87 631.59,-253.78"/>
<text text-anchor="middle" x="718.78" y="-141.76" font-family="Times New Roman,serif" font-size="14.00"> Score: 0.57</text>
<polygon fill="white" stroke="none" points="679.35,-188.31 679.35,-212.06 721.85,-212.06 721.85,-188.31 679.35,-188.31"/>
<text text-anchor="start" x="683.35" y="-194.76" font-family="Times New Roman,serif" font-size="14.00" fill="darkmagenta">77, 82</text>
</g>
</g>
</svg>
