<?xml version="1.0" encoding="UTF-8" standalone="no"?>
<!DOCTYPE svg PUBLIC "-//W3C//DTD SVG 1.1//EN"
 "http://www.w3.org/Graphics/SVG/1.1/DTD/svg11.dtd">
<!-- Generated by graphviz version 10.0.1 (20240210.2158)
 -->
<!-- Title: clusterfind_triplet_for_index Pages: 1 -->
<svg width="614pt" height="977pt"
 viewBox="0.00 0.00 614.09 977.33" xmlns="http://www.w3.org/2000/svg" xmlns:xlink="http://www.w3.org/1999/xlink">
<g id="graph0" class="graph" transform="scale(1 1) rotate(0) translate(4 973.33)">
<title>clusterfind_triplet_for_index</title>
<polygon fill="white" stroke="none" points="-4,4 -4,-973.33 610.09,-973.33 610.09,4 -4,4"/>
<text text-anchor="middle" x="303.04" y="-6.45" font-family="Times New Roman,serif" font-size="14.00">find_triplet_for_index</text>
<!-- 1 -->
<g id="node1" class="node">
<title>1</title>
<ellipse fill="none" stroke="black" cx="407.59" cy="-925.65" rx="108.36" ry="27.93"/>
<text text-anchor="middle" x="407.59" y="-920.22" font-family="Times New Roman,serif" font-size="14.00">1. l, r = i + 1, len(nums) &#45; 1</text>
<text text-anchor="start" x="268.47" y="-940.28" font-family="Times New Roman,serif" font-size="14.00" fill="darkorange">77,82</text>
</g>
<!-- 2 -->
<g id="node2" class="node">
<title>2</title>
<ellipse fill="none" stroke="black" cx="407.59" cy="-811.97" rx="59.05" ry="18"/>
<text text-anchor="middle" x="407.59" y="-806.54" font-family="Times New Roman,serif" font-size="14.00">2. while l &lt; r:</text>
<text text-anchor="start" x="304.29" y="-816.67" font-family="Times New Roman,serif" font-size="14.00" fill="darkorange">227,249</text>
</g>
<!-- 1&#45;&gt;2 -->
<g id="edge1" class="edge">
<title>1&#45;&gt;2</title>
<path fill="none" stroke="blue" stroke-width="5" d="M407.59,-897.33C407.59,-881.96 407.59,-862.66 407.59,-846.4"/>
<polygon fill="blue" stroke="blue" stroke-width="5" points="411.96,-846.51 407.59,-836.51 403.21,-846.51 411.96,-846.51"/>
<text text-anchor="middle" x="441.34" y="-850.42" font-family="Times New Roman,serif" font-size="14.00"> Score: 0.57</text>
<polygon fill="white" stroke="none" points="363.09,-865.55 363.09,-889.3 405.59,-889.3 405.59,-865.55 363.09,-865.55"/>
<text text-anchor="start" x="367.09" y="-872" font-family="Times New Roman,serif" font-size="14.00" fill="darkmagenta">77, 82</text>
</g>
<!-- 3 -->
<g id="node3" class="node">
<title>3</title>
<ellipse fill="none" stroke="black" cx="184.59" cy="-671.65" rx="139.12" ry="39.07"/>
<text text-anchor="middle" x="184.59" y="-674.1" font-family="Times New Roman,serif" font-size="14.00">3. s = nums[i] + nums[l] + nums[r]</text>
<text text-anchor="middle" x="184.59" y="-658.35" font-family="Times New Roman,serif" font-size="14.00">if s &gt; 0:</text>
<text text-anchor="start" x="1.21" y="-697.42" font-family="Times New Roman,serif" font-size="14.00" fill="darkorange">227,249</text>
</g>
<!-- 2&#45;&gt;3 -->
<g id="edge2" class="edge">
<title>2&#45;&gt;3</title>
<path fill="none" stroke="blue" stroke-width="5" d="M354.43,-803.68C329.87,-798.59 301.12,-790.08 278.09,-775.97 255.94,-762.4 235.92,-742.04 220.15,-722.98"/>
<polygon fill="blue" stroke="blue" stroke-width="5" points="223.69,-720.4 214.05,-715.29 216.84,-725.84 223.69,-720.4"/>
<text text-anchor="middle" x="312.34" y="-762.67" font-family="Times New Roman,serif" font-size="14.00">&quot;l &lt; r&quot;</text>
<text text-anchor="middle" x="312.34" y="-746.92" font-family="Times New Roman,serif" font-size="14.00">c[6]</text>
<text text-anchor="middle" x="312.34" y="-731.17" font-family="Times New Roman,serif" font-size="14.00"> Score: 0.57</text>
<polygon fill="white" stroke="none" points="214.43,-774.33 214.43,-798.08 270.43,-798.08 270.43,-774.33 214.43,-774.33"/>
<text text-anchor="start" x="218.43" y="-780.78" font-family="Times New Roman,serif" font-size="14.00" fill="darkmagenta">227, 249</text>
</g>
<!-- 5 -->
<g id="node4" class="node">
<title>5</title>
<ellipse fill="none" stroke="black" cx="342.59" cy="-521.4" rx="48.97" ry="27.93"/>
<text text-anchor="middle" x="342.59" y="-515.98" font-family="Times New Roman,serif" font-size="14.00">5. r &#45;= 1</text>
<text text-anchor="start" x="256.12" y="-464.42" font-family="Times New Roman,serif" font-size="14.00" fill="darkorange">94,136</text>
</g>
<!-- 3&#45;&gt;5 -->
<g id="edge3" class="edge">
<title>3&#45;&gt;5</title>
<path fill="none" stroke="blue" stroke-width="5" d="M234.9,-634.85C241.99,-628.57 248.82,-621.74 254.59,-614.58 269.31,-596.32 262.76,-585.09 278.09,-567.33 283.12,-561.51 289.06,-556.06 295.27,-551.12"/>
<polygon fill="blue" stroke="blue" stroke-width="5" points="297.64,-554.81 303.15,-545.39 292.49,-547.74 297.64,-554.81"/>
<text text-anchor="middle" x="312.34" y="-601.28" font-family="Times New Roman,serif" font-size="14.00">&quot;s &gt; 0&quot;</text>
<text text-anchor="middle" x="312.34" y="-585.53" font-family="Times New Roman,serif" font-size="14.00">c[7]</text>
<text text-anchor="middle" x="312.34" y="-569.78" font-family="Times New Roman,serif" font-size="14.00"> Score: 0.57</text>
<polygon fill="white" stroke="none" points="229.3,-561.25 229.3,-585 278.55,-585 278.55,-561.25 229.3,-561.25"/>
<text text-anchor="start" x="233.3" y="-567.7" font-family="Times New Roman,serif" font-size="14.00" fill="darkmagenta">94, 136</text>
</g>
<!-- 7 -->
<g id="node5" class="node">
<title>7</title>
<ellipse fill="none" stroke="black" cx="208.59" cy="-521.4" rx="48.57" ry="18"/>
<text text-anchor="middle" x="208.59" y="-515.98" font-family="Times New Roman,serif" font-size="14.00">7. if s &lt; 0:</text>
<text text-anchor="start" x="115.77" y="-526.1" font-family="Times New Roman,serif" font-size="14.00" fill="darkorange">133,113</text>
</g>
<!-- 3&#45;&gt;7 -->
<g id="edge4" class="edge">
<title>3&#45;&gt;7</title>
<path fill="none" stroke="blue" stroke-width="5" d="M181.72,-632.37C181.19,-612.68 182.03,-588.45 187.09,-567.33 188.18,-562.76 189.78,-558.1 191.62,-553.6"/>
<polygon fill="blue" stroke="blue" stroke-width="5" points="195.42,-555.81 195.75,-544.9 187.51,-552.06 195.42,-555.81"/>
<text text-anchor="middle" x="221.34" y="-593.41" font-family="Times New Roman,serif" font-size="14.00">&quot;(s &lt;= 0)&quot;</text>
<text text-anchor="middle" x="221.34" y="-577.66" font-family="Times New Roman,serif" font-size="14.00"> Score: 0.57</text>
<polygon fill="white" stroke="none" points="125.82,-587.2 125.82,-610.95 181.82,-610.95 181.82,-587.2 125.82,-587.2"/>
<text text-anchor="start" x="129.82" y="-593.65" font-family="Times New Roman,serif" font-size="14.00" fill="darkmagenta">133, 113</text>
</g>
<!-- 5&#45;&gt;2 -->
<g id="edge5" class="edge">
<title>5&#45;&gt;2</title>
<path fill="none" stroke="blue" stroke-width="5" d="M345.76,-549.49C350.38,-586.33 359.99,-654.11 374.09,-710.72 379.84,-733.83 388.38,-759.28 395.39,-778.76"/>
<polygon fill="blue" stroke="blue" stroke-width="5" points="391.22,-780.1 398.78,-787.97 399.43,-777.08 391.22,-780.1"/>
<text text-anchor="middle" x="408.34" y="-658.23" font-family="Times New Roman,serif" font-size="14.00"> Score: 0.57</text>
<polygon fill="white" stroke="none" points="327.69,-647.35 327.69,-671.1 376.94,-671.1 376.94,-647.35 327.69,-647.35"/>
<text text-anchor="start" x="331.69" y="-653.8" font-family="Times New Roman,serif" font-size="14.00" fill="darkmagenta">94, 136</text>
</g>
<!-- 8 -->
<g id="node6" class="node">
<title>8</title>
<ellipse fill="none" stroke="black" cx="453.59" cy="-382.29" rx="48.97" ry="27.93"/>
<text text-anchor="middle" x="453.59" y="-376.87" font-family="Times New Roman,serif" font-size="14.00">8. l += 1</text>
<text text-anchor="start" x="373.87" y="-396.92" font-family="Times New Roman,serif" font-size="14.00" fill="darkorange">81,64</text>
</g>
<!-- 7&#45;&gt;8 -->
<g id="edge6" class="edge">
<title>7&#45;&gt;8</title>
<path fill="none" stroke="blue" stroke-width="5" d="M234.34,-505.99C274.8,-483.35 353.89,-439.08 405.2,-410.37"/>
<polygon fill="blue" stroke="blue" stroke-width="5" points="407.17,-414.28 413.76,-405.58 402.89,-406.65 407.17,-414.28"/>
<text text-anchor="middle" x="401.34" y="-462.17" font-family="Times New Roman,serif" font-size="14.00">&quot;s &lt; 0&quot;</text>
<text text-anchor="middle" x="401.34" y="-446.42" font-family="Times New Roman,serif" font-size="14.00">c[8]</text>
<text text-anchor="middle" x="401.34" y="-430.67" font-family="Times New Roman,serif" font-size="14.00"> Score: 0.57</text>
<polygon fill="white" stroke="none" points="282.23,-428.54 282.23,-452.29 324.73,-452.29 324.73,-428.54 282.23,-428.54"/>
<text text-anchor="start" x="286.23" y="-434.99" font-family="Times New Roman,serif" font-size="14.00" fill="darkmagenta">81, 64</text>
</g>
<!-- 10 -->
<g id="node7" class="node">
<title>10</title>
<ellipse fill="none" stroke="black" cx="208.59" cy="-382.29" rx="177.84" ry="27.93"/>
<text text-anchor="middle" x="208.59" y="-376.87" font-family="Times New Roman,serif" font-size="14.00">10. result.append((nums[i], nums[l], nums[r]))</text>
<text text-anchor="start" x="0" y="-396.92" font-family="Times New Roman,serif" font-size="14.00" fill="darkorange">52,49</text>
</g>
<!-- 7&#45;&gt;10 -->
<g id="edge7" class="edge">
<title>7&#45;&gt;10</title>
<path fill="none" stroke="blue" stroke-width="5" d="M208.59,-503.04C208.59,-483.94 208.59,-452.54 208.59,-426.69"/>
<polygon fill="blue" stroke="blue" stroke-width="5" points="212.96,-426.92 208.59,-416.92 204.21,-426.92 212.96,-426.92"/>
<text text-anchor="middle" x="242.34" y="-462.17" font-family="Times New Roman,serif" font-size="14.00">&quot;(s &gt;= 0)&quot;</text>
<text text-anchor="middle" x="242.34" y="-446.42" font-family="Times New Roman,serif" font-size="14.00">c[9]</text>
<text text-anchor="middle" x="242.34" y="-430.67" font-family="Times New Roman,serif" font-size="14.00"> Score: 0.57</text>
<polygon fill="white" stroke="none" points="164.09,-458.53 164.09,-482.28 206.59,-482.28 206.59,-458.53 164.09,-458.53"/>
<text text-anchor="start" x="168.09" y="-464.98" font-family="Times New Roman,serif" font-size="14.00" fill="darkmagenta">52, 49</text>
</g>
<!-- 8&#45;&gt;2 -->
<g id="edge8" class="edge">
<title>8&#45;&gt;2</title>
<path fill="none" stroke="blue" stroke-width="5" d="M455.22,-410.32C458.05,-466.7 461.8,-600.79 441.59,-710.72 437.3,-734.04 428.69,-759.32 421.22,-778.66"/>
<polygon fill="blue" stroke="blue" stroke-width="5" points="417.19,-776.94 417.52,-787.85 425.31,-780.2 417.19,-776.94"/>
<text text-anchor="middle" x="490.34" y="-577.53" font-family="Times New Roman,serif" font-size="14.00"> Score: 0.57</text>
<polygon fill="white" stroke="none" points="409.82,-605.02 409.82,-628.77 452.32,-628.77 452.32,-605.02 409.82,-605.02"/>
<text text-anchor="start" x="413.82" y="-611.47" font-family="Times New Roman,serif" font-size="14.00" fill="darkmagenta">81, 64</text>
</g>
<!-- 11 -->
<g id="node8" class="node">
<title>11</title>
<ellipse fill="none" stroke="black" cx="269.59" cy="-268.61" rx="168.83" ry="18"/>
<text text-anchor="middle" x="269.59" y="-263.19" font-family="Times New Roman,serif" font-size="14.00">11. while l &lt; r and nums[l] == nums[l + 1]:</text>
<text text-anchor="start" x="70.01" y="-273.31" font-family="Times New Roman,serif" font-size="14.00" fill="darkorange">52,49</text>
</g>
<!-- 10&#45;&gt;11 -->
<g id="edge9" class="edge">
<title>10&#45;&gt;11</title>
<path fill="none" stroke="blue" stroke-width="5" d="M223.51,-353.97C232.26,-337.95 243.35,-317.65 252.45,-300.98"/>
<polygon fill="blue" stroke="blue" stroke-width="5" points="256.19,-303.27 257.14,-292.39 248.51,-299.07 256.19,-303.27"/>
<text text-anchor="middle" x="284.34" y="-307.06" font-family="Times New Roman,serif" font-size="14.00"> Score: 0.57</text>
<polygon fill="white" stroke="none" points="197.33,-322.42 197.33,-346.17 239.83,-346.17 239.83,-322.42 197.33,-322.42"/>
<text text-anchor="start" x="201.33" y="-328.87" font-family="Times New Roman,serif" font-size="14.00" fill="darkmagenta">52, 49</text>
</g>
<!-- 13 -->
<g id="node9" class="node">
<title>13</title>
<ellipse fill="none" stroke="black" cx="280.59" cy="-165.11" rx="168.33" ry="18"/>
<text text-anchor="middle" x="280.59" y="-159.69" font-family="Times New Roman,serif" font-size="14.00">13. while l &lt; r and nums[r] == nums[r &#45; 1]:</text>
<text text-anchor="start" x="81.51" y="-169.81" font-family="Times New Roman,serif" font-size="14.00" fill="darkorange">52,49</text>
</g>
<!-- 11&#45;&gt;13 -->
<g id="edge10" class="edge">
<title>11&#45;&gt;13</title>
<path fill="none" stroke="blue" stroke-width="5" d="M271.45,-250.39C272.96,-236.47 275.13,-216.45 276.98,-199.41"/>
<polygon fill="blue" stroke="blue" stroke-width="5" points="281.31,-200.03 278.04,-189.61 272.61,-199.09 281.31,-200.03"/>
<text text-anchor="middle" x="394.21" y="-219.31" font-family="Times New Roman,serif" font-size="14.00">&quot;(not (l &lt; r and nums[l] == nums[l + 1]))&quot;</text>
<text text-anchor="middle" x="394.21" y="-203.56" font-family="Times New Roman,serif" font-size="14.00"> Score: 0.57</text>
<polygon fill="white" stroke="none" points="230.59,-218.82 230.59,-242.57 273.09,-242.57 273.09,-218.82 230.59,-218.82"/>
<text text-anchor="start" x="234.59" y="-225.27" font-family="Times New Roman,serif" font-size="14.00" fill="darkmagenta">52, 49</text>
</g>
<!-- 15 -->
<g id="node10" class="node">
<title>15</title>
<ellipse fill="none" stroke="black" cx="409.59" cy="-51.68" rx="50.03" ry="27.93"/>
<text text-anchor="middle" x="409.59" y="-54.13" font-family="Times New Roman,serif" font-size="14.00">15. l += 1</text>
<text text-anchor="middle" x="409.59" y="-38.38" font-family="Times New Roman,serif" font-size="14.00">r &#45;= 1</text>
<text text-anchor="start" x="328.81" y="-66.31" font-family="Times New Roman,serif" font-size="14.00" fill="darkorange">52,49</text>
</g>
<!-- 13&#45;&gt;15 -->
<g id="edge11" class="edge">
<title>13&#45;&gt;15</title>
<path fill="none" stroke="blue" stroke-width="5" d="M279.13,-146.62C278.87,-131.96 280.85,-111.27 292.09,-97.61 305.62,-81.16 325.9,-70.72 345.81,-64.11"/>
<polygon fill="blue" stroke="blue" stroke-width="5" points="346.83,-68.37 355.22,-61.39 344.4,-59.96 346.83,-68.37"/>
<text text-anchor="middle" x="408.84" y="-115.81" font-family="Times New Roman,serif" font-size="14.00">&quot;(not (l &lt; r and nums[r] == nums[r &#45; 1]))&quot;</text>
<text text-anchor="middle" x="408.84" y="-100.06" font-family="Times New Roman,serif" font-size="14.00"> Score: 0.57</text>
<polygon fill="white" stroke="none" points="261.24,-58.74 261.24,-82.49 303.74,-82.49 303.74,-58.74 261.24,-58.74"/>
<text text-anchor="start" x="265.24" y="-65.19" font-family="Times New Roman,serif" font-size="14.00" fill="darkmagenta">52, 49</text>
</g>
<!-- 15&#45;&gt;2 -->
<g id="edge12" class="edge">
<title>15&#45;&gt;2</title>
<path fill="none" stroke="blue" stroke-width="5" d="M457.52,-60.4C480.99,-66.61 507.75,-77.74 524.59,-97.61 544.11,-120.66 538.59,-133.91 538.59,-164.11 538.59,-672.65 538.59,-672.65 538.59,-672.65 538.59,-724.41 489.63,-764.58 451.57,-787.99"/>
<polygon fill="blue" stroke="blue" stroke-width="5" points="449.45,-784.16 443.03,-792.98 453.87,-791.71 449.45,-784.16"/>
<text text-anchor="middle" x="572.34" y="-368.87" font-family="Times New Roman,serif" font-size="14.00"> Score: 0.57</text>
<polygon fill="white" stroke="none" points="494.09,-611.09 494.09,-634.84 536.59,-634.84 536.59,-611.09 494.09,-611.09"/>
<text text-anchor="start" x="498.09" y="-617.54" font-family="Times New Roman,serif" font-size="14.00" fill="darkmagenta">52, 49</text>
</g>
</g>
</svg>
