<?xml version="1.0" encoding="UTF-8" standalone="no"?>
<!DOCTYPE svg PUBLIC "-//W3C//DTD SVG 1.1//EN"
 "http://www.w3.org/Graphics/SVG/1.1/DTD/svg11.dtd">
<!-- Generated by graphviz version 10.0.1 (20240210.2158)
 -->
<!-- Title: clusterthree_sum Pages: 1 -->
<svg width="834pt" height="494pt"
 viewBox="0.00 0.00 834.32 494.27" xmlns="http://www.w3.org/2000/svg" xmlns:xlink="http://www.w3.org/1999/xlink">
<g id="graph0" class="graph" transform="scale(1 1) rotate(0) translate(4 490.27)">
<title>clusterthree_sum</title>
<polygon fill="white" stroke="none" points="-4,4 -4,-490.27 830.32,-490.27 830.32,4 -4,4"/>
<text text-anchor="middle" x="413.16" y="-6.45" font-family="Times New Roman,serif" font-size="14.00">three_sum</text>
<!-- 1 -->
<g id="node1" class="node">
<title>1</title>
<ellipse fill="none" stroke="black" cx="277.82" cy="-420.32" rx="167.23" ry="50.21"/>
<text text-anchor="middle" x="277.82" y="-430.64" font-family="Times New Roman,serif" font-size="14.00">1. modified_nums = modify_array(nums)</text>
<text text-anchor="middle" x="277.82" y="-414.89" font-family="Times New Roman,serif" font-size="14.00">print(&#39;Modified array:&#39;, modified_nums)</text>
<text text-anchor="middle" x="277.82" y="-399.14" font-family="Times New Roman,serif" font-size="14.00">result = []</text>
<text text-anchor="start" x="79.83" y="-457.22" font-family="Times New Roman,serif" font-size="14.00" fill="darkorange">14,14</text>
</g>
<!-- 2 -->
<g id="node2" class="node">
<title>2</title>
<ellipse fill="none" stroke="black" cx="277.82" cy="-284.36" rx="161.84" ry="18"/>
<text text-anchor="middle" x="277.82" y="-278.94" font-family="Times New Roman,serif" font-size="14.00">2. for i in range(len(modified_nums) &#45; 2):</text>
<text text-anchor="start" x="85.22" y="-289.06" font-family="Times New Roman,serif" font-size="14.00" fill="darkorange">91,96</text>
</g>
<!-- 1&#45;&gt;2 -->
<g id="edge1" class="edge">
<title>1&#45;&gt;2</title>
<path fill="none" stroke="blue" stroke-width="5" d="M277.82,-369.82C277.82,-352.71 277.82,-333.96 277.82,-318.48"/>
<polygon fill="blue" stroke="blue" stroke-width="5" points="282.19,-318.9 277.82,-308.9 273.44,-318.9 282.19,-318.9"/>
<text text-anchor="middle" x="311.57" y="-322.81" font-family="Times New Roman,serif" font-size="14.00"> Score: 0.57</text>
<polygon fill="white" stroke="none" points="233.32,-338.21 233.32,-361.96 275.82,-361.96 275.82,-338.21 233.32,-338.21"/>
<text text-anchor="start" x="237.32" y="-344.66" font-family="Times New Roman,serif" font-size="14.00" fill="darkmagenta">14, 14</text>
</g>
<!-- 3 -->
<g id="node3" class="node">
<title>3</title>
<ellipse fill="none" stroke="black" cx="433.82" cy="-155.18" rx="229.28" ry="27.93"/>
<text text-anchor="middle" x="433.82" y="-149.76" font-family="Times New Roman,serif" font-size="14.00">3. if i &gt; 0 and modified_nums[i] == modified_nums[i &#45; 1]:</text>
<text text-anchor="start" x="173.79" y="-169.81" font-family="Times New Roman,serif" font-size="14.00" fill="darkorange">77,82</text>
</g>
<!-- 2&#45;&gt;3 -->
<g id="edge2" class="edge">
<title>2&#45;&gt;3</title>
<path fill="none" stroke="blue" stroke-width="5" d="M298.85,-266.21C321.6,-247.66 358.56,-217.53 388.06,-193.48"/>
<polygon fill="blue" stroke="blue" stroke-width="5" points="390.77,-196.92 395.76,-187.21 385.24,-190.14 390.77,-196.92"/>
<text text-anchor="middle" x="465.57" y="-235.06" font-family="Times New Roman,serif" font-size="14.00">&quot;range(len(modified_nums) &#45; 2)&quot;</text>
<text text-anchor="middle" x="465.57" y="-219.31" font-family="Times New Roman,serif" font-size="14.00">c[12]</text>
<text text-anchor="middle" x="465.57" y="-203.56" font-family="Times New Roman,serif" font-size="14.00"> Score: 0.57</text>
<polygon fill="white" stroke="none" points="304.99,-226.93 304.99,-250.68 347.49,-250.68 347.49,-226.93 304.99,-226.93"/>
<text text-anchor="start" x="308.99" y="-233.38" font-family="Times New Roman,serif" font-size="14.00" fill="darkmagenta">77, 82</text>
</g>
<!-- 4 -->
<g id="node4" class="node">
<title>4</title>
<ellipse fill="none" stroke="black" cx="122.82" cy="-155.18" rx="64.04" ry="18"/>
<text text-anchor="middle" x="122.82" y="-149.76" font-family="Times New Roman,serif" font-size="14.00">4. return result</text>
<text text-anchor="start" x="28.03" y="-159.88" font-family="Times New Roman,serif" font-size="14.00" fill="darkorange">14,14</text>
</g>
<!-- 2&#45;&gt;4 -->
<g id="edge3" class="edge">
<title>2&#45;&gt;4</title>
<path fill="none" stroke="blue" stroke-width="5" d="M256.91,-266.21C230.85,-244.83 186.03,-208.05 155.44,-182.95"/>
<polygon fill="blue" stroke="blue" stroke-width="5" points="158.23,-179.58 147.72,-176.61 152.68,-186.34 158.23,-179.58"/>
<text text-anchor="middle" x="266.57" y="-211.31" font-family="Times New Roman,serif" font-size="14.00"> Score: 0.57</text>
<polygon fill="white" stroke="none" points="155.21,-221.27 155.21,-245.02 197.71,-245.02 197.71,-221.27 155.21,-221.27"/>
<text text-anchor="start" x="159.21" y="-227.72" font-family="Times New Roman,serif" font-size="14.00" fill="darkmagenta">14, 14</text>
</g>
<!-- 5 -->
<g id="node5" class="node">
<title>5</title>
<ellipse fill="none" stroke="black" cx="67.82" cy="-41.75" rx="50.57" ry="18"/>
<text text-anchor="middle" x="67.82" y="-36.33" font-family="Times New Roman,serif" font-size="14.00">5. </text>
<text text-anchor="start" x="0" y="-46.45" font-family="Times New Roman,serif" font-size="14.00" fill="darkorange">0,0</text>
</g>
<!-- 3&#45;&gt;5 -->
<g id="edge4" class="edge">
<title>3&#45;&gt;5</title>
<path fill="none" stroke="black" d="M271.78,-135.11C192.89,-125.28 113.32,-114.32 105.82,-109.25 92.25,-100.09 82.94,-84.36 76.94,-70.5"/>
<polygon fill="black" stroke="black" points="80.26,-69.4 73.36,-61.36 73.74,-71.95 80.26,-69.4"/>
<text text-anchor="middle" x="258.82" y="-95.95" font-family="Times New Roman,serif" font-size="14.00">&quot;i &gt; 0 and modified_nums[i] == modified_nums[i &#45; 1]&quot;</text>
<text text-anchor="middle" x="258.82" y="-80.2" font-family="Times New Roman,serif" font-size="14.00">c[13]</text>
<polygon fill="white" stroke="none" points="164.01,-122.39 164.01,-146.14 193.01,-146.14 193.01,-122.39 164.01,-122.39"/>
<text text-anchor="start" x="168.01" y="-128.84" font-family="Times New Roman,serif" font-size="14.00" fill="darkmagenta">0, 0</text>
</g>
<!-- 6 -->
<g id="node6" class="node">
<title>6</title>
<ellipse fill="none" stroke="black" cx="602.82" cy="-41.75" rx="197.27" ry="18"/>
<text text-anchor="middle" x="602.82" y="-36.33" font-family="Times New Roman,serif" font-size="14.00">6. find_triplet_for_index(modified_nums, i, result)</text>
<text text-anchor="start" x="374.8" y="-10.45" font-family="Times New Roman,serif" font-size="14.00" fill="darkorange">77,82</text>
</g>
<!-- 3&#45;&gt;6 -->
<g id="edge5" class="edge">
<title>3&#45;&gt;6</title>
<path fill="none" stroke="blue" stroke-width="5" d="M421.15,-126.99C415.74,-110.98 412.93,-91.28 424.07,-77.75 430.24,-70.24 443.77,-64.32 460.75,-59.66"/>
<polygon fill="blue" stroke="blue" stroke-width="5" points="461.7,-63.93 470.4,-57.34 459.66,-55.43 461.7,-63.93"/>
<text text-anchor="middle" x="596.69" y="-95.95" font-family="Times New Roman,serif" font-size="14.00">&quot;(not (i &gt; 0 and modified_nums[i] == modified_nums[i &#45; 1]))&quot;</text>
<text text-anchor="middle" x="596.69" y="-80.2" font-family="Times New Roman,serif" font-size="14.00"> Score: 0.57</text>
<polygon fill="white" stroke="none" points="392.7,-42.46 392.7,-66.21 435.2,-66.21 435.2,-42.46 392.7,-42.46"/>
<text text-anchor="start" x="396.7" y="-48.91" font-family="Times New Roman,serif" font-size="14.00" fill="darkmagenta">77, 82</text>
</g>
<!-- 5&#45;&gt;2 -->
<g id="edge6" class="edge">
<title>5&#45;&gt;2</title>
<path fill="none" stroke="black" d="M59.15,-59.76C46.23,-87.73 25.88,-144.18 49.82,-183.11 77.02,-227.37 128.91,-252.16 176.32,-266.02"/>
<polygon fill="black" stroke="black" points="175.27,-269.36 185.84,-268.66 177.14,-262.61 175.27,-269.36"/>
<polygon fill="white" stroke="none" points="46.98,-218.02 46.98,-241.77 75.98,-241.77 75.98,-218.02 46.98,-218.02"/>
<text text-anchor="start" x="50.98" y="-224.47" font-family="Times New Roman,serif" font-size="14.00" fill="darkmagenta">0, 0</text>
</g>
<!-- 6&#45;&gt;2 -->
<g id="edge7" class="edge">
<title>6&#45;&gt;2</title>
<path fill="none" stroke="blue" stroke-width="5" d="M720.49,-56.59C743.24,-61.68 762.35,-68.55 769.82,-77.75 778.64,-88.62 776.06,-96.72 769.82,-109.25 720.03,-209.11 666.48,-212.49 560.82,-248.36 523.03,-261.19 480.99,-269.41 441.11,-274.65"/>
<polygon fill="blue" stroke="blue" stroke-width="5" points="440.65,-270.3 431.26,-275.86 441.71,-278.98 440.65,-270.3"/>
<text text-anchor="middle" x="792.57" y="-141.76" font-family="Times New Roman,serif" font-size="14.00"> Score: 0.57</text>
<polygon fill="white" stroke="none" points="516.31,-250.36 516.31,-274.11 558.81,-274.11 558.81,-250.36 516.31,-250.36"/>
<text text-anchor="start" x="520.31" y="-256.81" font-family="Times New Roman,serif" font-size="14.00" fill="darkmagenta">77, 82</text>
</g>
</g>
</svg>
